<?xml version="1.0" encoding="UTF-8"?>
<svg width="392px" height="138px" viewBox="0 0 392 138" version="1.1" xmlns="http://www.w3.org/2000/svg" xmlns:xlink="http://www.w3.org/1999/xlink">
    <!-- Generator: Sketch 62 (91390) - https://sketch.com -->
    <title>accessories/Glasses 4</title>
    <desc>Created with Sketch.</desc>
    <g id="accessories/Glasses-4" stroke="none" stroke-width="1" fill="none" fill-rule="evenodd">
        <path d="M370.267229,94.0812186 C361.087518,105.550169 325.150885,118.280642 306.024457,104.460924 C286.89803,90.6412047 279.339478,81.010236 276.782894,63.7418278 C276.51029,61.9005247 273.181038,60.6757933 271.773574,61.9830996 C263.892542,69.3032997 258.790943,78.6267129 253.736631,87.9739798 C248.036181,98.5161913 242.421537,109.123108 232.062291,116.259689 C213.713905,126.095013 180.520036,127.495741 170.713277,123.157318 C151.927276,114.846558 137.066708,97.0725316 133.687387,72.6128057 C131.395829,65.3796109 129.246349,61.0020129 127.238947,59.4800116 C124.384546,57.3158209 108.631937,55.3878277 106.906249,55.0676312 C75.8071363,49.2972786 36.4749058,45.6190335 8.77600719,65.9200219 C5.02749548,68.1858834 -7.80539205,76.6985178 -7.99790561,74.60536 C-8.12928599,66.4063563 1.16220359,47.8487707 22.2939084,39.0185659 C48.4257396,28.098982 87.2707875,27.4603638 109.774665,29.8701917 C110.906452,29.9913891 114.764588,29.0433611 115.037186,28.9253388 C149.130646,14.1644408 188.359486,18.0847288 224.839489,24.2887991 C230.066858,25.3031978 276.863504,36.8905006 295.477887,29.8701917 C326.25407,17.3061158 359.067147,8.2038606 392.30185,11.7849229 C392.579752,11.8148671 396.775316,37.2812197 393.50699,39.0185659 C390.906064,40.4011413 386.480238,43.9439017 384.907987,45.8827637 C383.502453,47.6160336 382.61672,49.7708648 382.69528,52.7561081 C383.327324,70.0252897 378.399915,83.920401 370.267229,94.0812186 Z M243.72836,78.6720803 C247.630761,73.0270335 248.862219,60.3460528 247.228404,51.0948644 C246.401153,46.4106974 244.794863,42.6821957 242.779067,40.8261969 C241.439156,39.5925037 239.910346,39.0117383 238.243089,39.0979354 C237.328973,39.1451951 236.338477,39.4051824 235.290511,39.9705735 C221.097217,32.2929564 203.902812,29.5286089 187.604096,30.323616 C174.629301,30.3211866 165.372072,33.3837093 159.0944,38.1509351 C151.540713,43.8871592 148.137536,52.1332968 147.940635,61.0762046 C147.706992,71.6878578 152.06617,83.2970102 159.216953,92.4828862 C166.061287,101.275098 175.424043,107.793236 185.581316,109.297105 C197.111926,111.586016 208.862264,109.37159 219.07862,103.95477 C229.556845,98.3991036 238.407944,89.4765185 243.72836,78.6720803 Z M357.507438,84.6585403 C364.084035,76.8869454 368.457047,66.7766474 369.122697,56.7593194 C369.728486,47.6428312 367.287306,38.6124814 360.537606,31.1497224 C354.418516,25.8975011 343.605727,25.8104772 332.231167,28.7352865 C317.523167,32.5172431 302.307464,40.969058 297.23517,46.4275624 C296.040378,47.0540173 294.931407,48.1449237 293.965307,50.4849258 L293.958397,51.3191347 C292.421839,58.4056844 293.333557,65.5970212 295.991544,72.2310611 C298.878802,79.4373326 303.830659,85.9791775 309.868491,90.9705601 C317.890232,97.5784779 326.26399,99.6013328 334.1016,98.5342588 C342.979407,97.325564 351.234778,92.0709712 357.507438,84.6585403 Z" id="ðŸŽ¨-Background" fill="#FFFFFF"></path>
        <path d="M294.4196,27.0634 C325.5846,14.3394 358.8976,5.1684 392.6236,8.8024 C395.4126,7.7414 398.8746,8.6354 400.1106,12.5794 C412.1236,49.1744 385.3346,38.9974 385.6946,52.6774 C388.5026,129.3804 285.4076,142.4794 273.8156,64.1814 L273.6026,64.3074 L273.6026,64.3074 C256.9246,79.8704 253.4116,105.1954 233.7646,118.7304 C194.1316,147.7154 137.9496,124.7504 130.7336,73.1504 L130.576211,72.452332 C128.153961,61.9216159 125.257898,59.3105277 113.3116,59.3624 L111.424306,58.9874342 C80.385228,52.872048 39.05216,47.3766 10.4636,68.4074 C4.2456,72.0234 3.9536,81.3194 -1.3004,85.3584 C-7.0564,86.4764 -10.6024,79.5534 -10.9924,74.7624 C-11.9044,26.9994 73.5656,23.5634 111.8436,27.6624 C112.5746,26.9054 114.1356,26.9994 114.6616,27.9424 C149.2796,12.9544 188.2806,15.0284 225.3466,21.3314 C248.3076,25.7764 270.9856,35.9014 294.4196,27.0634 Z M389.5206,17.6204 C370.8196,16.6854 353.5216,17.7084 335.1656,22.2034 C325.4916,24.5374 318.0676,27.4884 308.8076,31.0374 C251.0496,56.6264 244.3876,11.1414 114.9196,28.9714 C116.5946,36.1454 116.9026,43.2484 116.9926,49.9884 C143.42758,48.92316 137.203668,74.1647841 147.107497,91.894471 L147.4126,92.4294 C161.8466,118.2974 195.9066,130.3634 223.3816,113.2054 C246.3036,99.8454 248.5396,65.9604 271.3616,52.5124 C291.1446,51.7344 283.2426,78.4344 294.0086,89.4084 C309.1626,109.6294 341.3736,112.4564 360.3756,93.4364 C369.2906,84.2844 374.0286,72.6644 374.2906,60.1804 C374.7876,52.2044 373.4196,44.0994 379.4496,38.4894 C383.6766,34.1954 391.1866,35.6284 392.0486,29.1374 C392.5966,25.2994 391.0006,21.1364 389.5206,17.6204 Z M186.28,28.0747 C204.857,27.1597 224.513,30.3857 240.464,39.4967 C252.271,30.1007 255.164,67.4427 247.327,78.2437 C236.036,101.3457 209.749,116.5347 184.438,111.4907 C144.952,105.7687 117.44,28.0057 186.28,28.0747 Z M239.33,42.0007 L238.319634,41.8530365 C221.207242,39.24197 174.61224,27.14534 156.641,46.2377 C139.2,77.9067 183.447,131.1007 229.492,88.7307 C242.307,75.6837 247.274,59.8627 239.33,42.0007 Z M293.5595,46.0482 C302.4215,35.5552 347.5865,14.3012 363.3295,27.9402 C392.0625,60.1412 346.4955,125.2742 308.3295,93.5412 C295.6175,82.9342 287.2545,66.0342 290.9145,49.6692 L290.92013,48.9832 C290.928056,48.7345333 290.9745,48.7912 291.2405,48.4812 C291.7115,47.2442 292.5595,46.4542 293.5595,46.0482 Z M362.9285,65.5652 C372.6185,13.0082 332.1195,32.9882 298.8595,47.0162 C300.6445,48.6472 300.6365,50.8742 300.1235,52.7042 C296.6155,91.7002 344.0125,113.7982 362.9285,65.5652 Z M111.1716,30.2164 C97.2986,34.9144 5.5376,26.5124 -2.9394,69.5264 C6.0086,55.0294 24.5406,49.2764 41.2006,46.1544 C63.8616,41.9074 86.3986,44.3664 108.7416,48.8354 L109.203057,44.2113617 C109.698597,39.3065938 110.221071,34.7182235 111.1716,30.2164 Z" id="ðŸ–-Ink" fill="#000000"></path>
    </g>
</svg>