<?xml version="1.0" encoding="UTF-8"?>
<svg width="392px" height="138px" viewBox="0 0 392 138" version="1.1" xmlns="http://www.w3.org/2000/svg" xmlns:xlink="http://www.w3.org/1999/xlink">
    <!-- Generator: Sketch 62 (91390) - https://sketch.com -->
    <title>accessories/Glasses 2</title>
    <desc>Created with Sketch.</desc>
    <g id="accessories/Glasses-2" stroke="none" stroke-width="1" fill="none" fill-rule="evenodd">
        <path d="M372.3111,95.4577 C360.1701,108.0027 339.9021,111.6027 323.7491,104.8747 C282.2731,87.5457 302.5741,33.4957 334.5611,18.9807 C338.5571,17.9847 343.8941,15.6217 348.7611,15.0857 C349.2011,14.8697 350.1591,15.4947 351.3201,14.9037 C386.5911,18.8417 394.6231,73.5937 372.3111,95.4577 M238.5331,98.6687 C224.9161,116.7297 199.6001,122.3017 178.9161,113.9057 C138.0541,97.8137 152.5471,49.8847 180.5041,31.0947 C239.5611,8.9037 263.9481,65.3677 238.5331,98.6687 M149.9531,58.6507 C149.9151,58.6327 149.8771,58.6237 149.8381,58.6057 C150.0541,58.5107 150.2701,58.4157 150.4851,58.3187 C150.4151,58.5017 150.3391,58.6827 150.2711,58.8657 C150.1651,58.7927 150.0721,58.7077 149.9531,58.6507 M400.4231,39.1277 C397.0891,39.1347 392.2731,39.6827 389.5131,41.9957 C382.7071,19.0427 357.5851,-2.2003 335.7371,13.2897 C318.5321,18.8227 305.7651,31.0937 298.5091,47.4077 C285.4261,39.6257 264.8541,42.9487 253.5091,53.2397 C246.0791,28.6887 227.7931,20.0917 206.0281,18.8227 C182.2721,14.9317 158.5941,38.0027 151.2061,56.5107 C145.0631,55.8117 135.8841,53.8567 130.1051,57.6477 C92.5981,47.8117 27.0231,42.3887 19.3981,47.8537 C13.9641,49.9387 10.9821,62.7647 18.5721,63.4567 C25.1861,62.5177 17.8001,54.0587 24.4671,53.1357 C59.9901,50.9337 94.4751,58.0877 129.6221,61.0897 C132.7601,65.3107 142.8991,66.7227 148.3081,65.0267 C139.7891,96.4227 158.1791,117.7827 185.7341,124.1807 C228.4011,133.9817 265.5221,95.8137 254.3651,56.1137 C267.2901,49.6837 282.1571,49.9597 296.2371,53.3467 C272.7091,139.9367 412.1661,136.0517 390.3851,44.9627 C404.8801,52.1727 408.0281,40.5827 400.4231,39.1277" id="ðŸ–-Ink" fill="#000000"></path>
    </g>
</svg>