<?xml version="1.0" encoding="UTF-8"?>
<svg width="392px" height="138px" viewBox="0 0 392 138" version="1.1" xmlns="http://www.w3.org/2000/svg" xmlns:xlink="http://www.w3.org/1999/xlink">
    <!-- Generator: Sketch 62 (91390) - https://sketch.com -->
    <title>accessories/Sunglasses 2</title>
    <desc>Created with Sketch.</desc>
    <g id="accessories/Sunglasses-2" stroke="none" stroke-width="1" fill="none" fill-rule="evenodd">
        <path d="M398.9346,13.2313 C398.1116,13.0943 397.2876,12.9653 396.4636,12.8443 C395.8206,12.4793 395.0656,12.1983 394.1876,12.0293 C392.1826,11.5203 390.1916,11.1773 388.2036,10.9923 C359.6716,4.5713 293.6646,13.6883 290.9406,38.0363 C281.8546,41.0693 273.9926,38.3533 263.4616,38.6233 C255.4456,5.1183 116.8626,9.8473 110.1976,30.0473 C110.1726,30.0403 110.1476,30.0343 110.1216,30.0263 C103.7176,28.0443 94.2766,28.5223 86.9466,28.2083 C71.2956,27.8803 55.6266,29.2753 40.3136,32.5763 C11.6386,37.1333 -27.4964,42.4683 -7.5534,78.2763 C-7.5494,78.2823 -7.5464,78.2893 -7.5414,78.2953 L-7.5384,78.2923 C-4.1014,81.8153 1.7316,78.9783 1.9486,74.2093 C-4.7564,57.2453 10.3876,55.2083 22.0396,50.3333 C51.0326,39.9173 80.5506,38.4733 110.5366,41.6953 C112.7926,44.3513 116.2156,46.6673 119.8336,47.8793 C139.8826,51.2073 129.3166,66.0793 141.9896,68.2423 C139.6616,120.0843 202.6026,148.3823 239.0716,114.3033 C253.6326,100.0673 257.1036,78.9783 260.4796,59.9693 C262.2646,59.5683 263.3996,58.5923 264.0626,57.3003 C268.3556,53.0143 271.0526,49.0563 279.5416,47.8793 C288.0306,46.7033 294.5656,49.0643 295.4496,49.7873 C295.6726,50.2363 295.9116,50.6863 296.1896,51.1363 C296.5776,51.8073 297.1056,52.3423 297.7056,52.7633 C289.3226,104.3873 329.3996,137.0353 369.8586,110.2603 C387.4386,93.7233 391.1536,68.4053 391.8876,45.8073 C394.2706,44.3693 395.7796,41.5823 394.9546,38.0783 C393.8176,33.2483 396.4836,29.0663 400.7296,26.9663 C406.2466,24.2393 405.2706,14.2803 398.9346,13.2313 M225.086988,37.7223618 C220.065054,36.6178235 217.920374,44.3606372 222.95832,45.4681879 C226.525804,46.252514 229.549376,48.0515396 231.592155,51.0993468 L231.807252,51.4306867 C234.548399,55.792609 241.479828,51.7660647 238.719666,47.3760269 C235.614234,42.4357281 230.788453,38.9755108 225.086988,37.7223618 Z M372.1732,32.9216366 C370.402814,31.6745124 367.723715,32.6003163 366.69591,34.362557 C365.564701,36.303111 366.306135,38.4637159 367.964208,39.7331967 L368.133036,39.8571332 C369.653907,40.9290575 371.135119,42.8505012 371.321131,44.8192514 L371.337546,45.0655335 C371.536702,50.2177028 379.543974,50.24381 379.343817,45.0655335 C379.148664,39.999719 376.215367,35.767329 372.1732,32.9216366 Z" id="ðŸ–-Ink" fill="#000000"></path>
    </g>
</svg>