<?xml version="1.0" encoding="UTF-8"?>
<svg width="1645px" height="2500px" viewBox="0 0 1645 2500" version="1.1" xmlns="http://www.w3.org/2000/svg" xmlns:xlink="http://www.w3.org/1999/xlink">
    <!-- Generator: Sketch 62 (91390) - https://sketch.com -->
    <title>pose/standing/blazer-1</title>
    <desc>Created with Sketch.</desc>
    <g id="pose/standing/blazer-1" stroke="none" stroke-width="1" fill="none" fill-rule="evenodd">
        <path d="M381.0576,600.9554 C414.0256,674.2714 454.7836,739.0934 503.0506,803.8304 C499.6666,650.8644 496.7516,497.0764 491.7626,342.7054 C461.1966,402.3564 428.6286,456.3374 385.1506,515.5554 C351.0656,551.9934 366.9586,567.1174 381.0576,600.9554 Z M272.9776,2390.5694 C269.1576,2385.1614 271.4186,2378.2864 276.7026,2374.7794 C265.4516,2350.5134 299.3546,2331.7814 316.0416,2313.5154 C353.9706,2272.3554 413.7226,2213.3554 419.0416,2161.3834 C437.1296,2043.4744 447.4676,1925.1494 476.4326,1808.6204 C493.6416,1734.6074 541.4196,1675.2194 562.7676,1602.5144 C599.8926,1410.3704 551.933328,1217.68212 560.225328,1023.62212 C455.595328,1013.35512 469.1456,1026.4084 480.3526,939.3534 C473.3496,934.4914 466.5276,929.3404 460.1516,924.1524 C443.4476,933.0674 423.7286,954.9244 405.3346,953.7684 C399.5126,952.4064 395.3156,945.1054 391.3216,938.8354 C361.7836,892.2434 334.3256,846.6984 307.4436,799.7444 C158.7866,565.2734 192.4106,512.1794 331.0746,287.4164 C389.4716,200.6114 461.2006,74.2954 572.4496,65.5304 C585.8796,65.5414 600.0396,64.8254 611.6086,56.3764 C611.6906,42.9214 618.5636,38.5804 635.9996,36.1214 C645.8176,35.1124 653.5216,29.3854 663.1056,31.7224 C669.9436,8.8854 668.5726,-9.4796 675.9926,-32.0756 C701.4096,-70.6386 783.8656,-51.3986 814.0596,-39.3046 C851.5806,-26.2536 815.8886,32.1574 840.3776,58.8314 C845.7156,61.8134 851.2726,63.2424 858.3876,63.2394 C888.7246,56.4834 903.5086,92.9214 917.8496,116.9564 C958.8996,122.0194 989.6636,128.1154 1008.5476,142.9174 C1025.8676,155.9964 1038.5996,177.0334 1055.5266,220.5384 C1090.9736,298.1264 1114.2156,375.1844 1124.4826,449.5184 C1133.4166,499.8904 1158.2396,543.4834 1178.1646,589.2354 C1227.0816,708.3604 1248.1986,787.2614 1236.4886,892.1114 C1224.0696,889.8854 1211.5486,885.3694 1198.4756,883.6834 L1193.1916,896.1904 C1192.8566,895.9384 1192.7186,895.6594 1192.6956,895.5804 C1177.3556,1000.5264 1219.4366,1214.2244 1082.1476,1186.1054 C1070.0346,1301.5974 1031.3996,1404.2654 984.9116,1500.8384 C966.1106,1537.1704 947.2046,1575.5684 947.5186,1618.2314 L954.5956,1618.3894 C955.7986,1618.4164 956.1846,1618.6614 956.1886,1618.6634 C957.5356,1618.9924 955.9716,1629.5044 954.4616,1635.4504 C932.2526,1713.9374 913.0466,1792.4164 895.8026,1871.8514 C892.1626,1882.5554 890.5906,1911.3704 882.1666,1916.2574 C882.5336,1920.1914 870.9158,1927.9024 870.0178,1927.6524 C872.0418,1942.8094 864.7086,1949.5924 864.9556,1964.9804 C864.9156,1964.6154 875.2586,1965.1534 874.8076,1964.8414 C880.9826,1964.8424 887.9796,1977.9564 888.0646,1986.8424 C888.6276,1997.5484 879.5826,2007.6124 876.4206,2018.1164 C871.5186,2041.1654 872.2836,2064.5304 870.1026,2087.7254 C890.6876,2092.3964 886.0676,2114.2864 868.0166,2115.3644 C868.0166,2115.3634 864.7288,2145.9474 865.3778,2161.1924 C877.7618,2162.6784 883.2636,2173.7184 887.3536,2182.2834 C902.5856,2182.4534 916.8416,2189.3874 930.9856,2196.6104 C963.9556,2212.7724 996.3346,2229.7004 1025.7026,2246.8474 C1051.6136,2264.0794 1108.0916,2283.0274 1078.7676,2319.2714 C1079.2126,2320.2064 1072.4756,2337.0254 1063.3866,2335.4934 C1018.5476,2339.8504 848.0366,2302.8094 808.5896,2294.5944 C795.2016,2291.4104 736.6146,2283.7774 760.9446,2263.9954 C751.8776,2238.6644 751.4778,2190.6004 778.8278,2184.7324 C781.4838,2160.9314 801.5118,2152.5764 821.4878,2161.3834 C821.3618,2144.2634 822.4288,2129.44286 822.6078,2112.31386 C812.9928,2111.04686 802.3466,2107.4774 799.5676,2100.1834 C796.9326,2096.1564 797.9546,2082.4484 807.8546,2082.3474 C808.1446,2082.3274 815.2976,2082.6704 815.5856,2082.6644 C814.4396,2054.9534 816.8556,2031.4354 812.7076,2003.6754 C810.4836,1994.4594 803.2066,1992.9574 798.4436,1988.2154 C793.9726,1974.4264 807.7216,1963.2894 819.4846,1960.9694 C822.4796,1946.9514 816.1556,1932.1034 819.4846,1918.3474 C811.8146,1918.0924 805.8266,1917.6994 800.8446,1913.0404 C798.6816,1910.9204 795.1406,1911.5634 792.3886,1911.3754 C789.7216,1882.4334 771.6726,1857.7154 767.6686,1829.8754 C762.0286,1796.9194 772.6586,1762.5314 776.4666,1728.9444 C779.5506,1701.0114 774.6346,1672.4274 772.1786,1644.9924 C671.0986,1806.3584 534.6066,1961.8644 510.1696,2158.2934 C507.5676,2173.4134 505.9896,2190.3274 519.9296,2205.1364 L520.5276,2205.3064 C524.0716,2212.4244 526.2986,2225.9924 528.8406,2233.3334 C542.0046,2243.7354 529.9216,2263.7114 520.4126,2272.7144 C517.5286,2276.0014 515.0696,2279.8154 512.4356,2283.2614 C462.7636,2342.6044 457.1446,2409.6554 361.7936,2405.1304 C338.3526,2403.6634 283.5006,2404.4084 272.9776,2390.5694 Z" id="ðŸŽ¨-Background" fill="#FFFFFF"></path>
        <path d="M672.0688,-22.9786 C680.1178,-28.4376 668.6578,18.9264 668.6378,23.4824 C666.6678,33.3414 663.1778,45.1314 654.7678,51.5324 C658.5168,82.2334 663.1838,112.8394 668.9278,143.2214 L672.306227,143.665589 C722.426916,150.313128 772.875987,159.451411 823.8368,154.6904 C851.2998,154.9094 869.4608,136.1044 880.5478,112.7914 L878.2578,104.5824 L878.2578,104.5824 C843.4158,83.1734 816.9918,39.8334 832.7078,-1.1086 C833.7278,-3.7676 837.9778,-2.6876 837.0478,0.0914000001 C830.4528,18.5694 833.2258,39.3924 842.5878,56.3514 C848.4378,59.4614 854.6678,59.2514 860.9378,59.0514 C891.1858,54.6254 908.5408,88.9844 921.5678,110.3914 L932.963281,112.078656 C976.558757,118.559704 1018.6018,126.2314 1040.1298,170.9204 L1042.09701,175.103536 C1072.54751,239.981484 1101.01052,306.698684 1117.5978,376.6014 C1125.8578,413.3914 1128.8478,451.3014 1140.9658,487.1824 C1166.1268,553.8104 1201.5828,616.4244 1220.8078,685.4024 C1232.7368,710.2894 1266.3078,897.6394 1233.1878,899.0624 C1221.2778,895.4924 1209.1478,892.6014 1196.8878,890.5514 C1198.7778,891.9924 1199.4678,894.4424 1199.1078,896.9424 C1194.8278,926.9714 1194.5078,957.3914 1194.5278,987.6744 C1196.2808,1060.3624 1196.0378,1214.0324 1087.8278,1194.4614 C1078.9618,1283.3534 1048.6668,1369.3564 1014.9958,1451.6514 C994.9868,1504.6924 956.1868,1553.0774 954.2378,1611.3414 C967.6368,1611.5434 962.4498,1628.6034 960.7978,1636.8314 C956.2918,1656.9724 950.4248,1676.7934 944.4868,1696.5614 C923.5648,1767.4164 911.0828,1840.6454 893.1678,1912.3124 C892.1978,1915.7614 890.5678,1918.1124 888.4878,1919.7024 C888.1408,1927.1404 876.8628,1931.4544 870.5078,1928.9524 C871.4038,1937.98393 871.155329,1947.1067 871.279734,1956.1648 L871.3078,1957.8624 L873.2578,1957.8414 C881.7488,1955.6544 890.3308,1969.4024 892.7268,1976.4714 C900.7858,1996.2294 882.0958,2010.7244 880.7078,2029.5324 C879.4388,2047.4104 877.7558,2065.1154 876.9878,2083.0414 C900.3038,2092.1474 889.9688,2122.6194 867.1478,2122.3124 C868.2148,2133.4244 868.3588,2144.6344 868.8278,2155.7614 C878.7628,2158.3694 886.2008,2166.7474 891.0878,2175.4924 C911.1608,2176.8514 929.4778,2188.7334 947.3578,2197.1414 C975.0078,2210.7914 1002.2078,2225.3814 1028.8888,2240.8524 C1054.8578,2258.1754 1112.6788,2277.7904 1087.4078,2317.8224 C1093.76869,2323.30637 1089.32537,2334.06341 1083.52822,2338.55019 L1083.3278,2338.7024 C1077.5678,2343.2114 1069.9478,2343.2114 1062.8678,2342.4714 C980.6228,2344.5314 893.9608,2318.9774 812.1778,2302.2914 L803.930393,2300.81602 C786.683209,2297.69308 769.16249,2294.03847 753.8668,2285.6514 C747.1408,2280.1614 745.4918,2266.7864 752.3778,2261.3914 C745.3188,2235.8374 751.6858,2190.9584 779.6178,2181.0814 C782.9398,2162.1174 798.2438,2148.5454 817.7378,2154.3124 C817.8348,2142.1804 818.8198,2130.1854 819.0378,2118.0514 C809.3778,2116.2324 800.4678,2112.4714 795.8088,2103.2914 C790.6848,2094.1514 796.2428,2078.8034 807.8778,2079.3124 C808.2718,2060.4034 807.2028,2041.8174 807.0478,2022.9424 L807.031773,2021.80453 C806.969669,2015.69406 807.216035,2008.95081 804.6278,2003.3414 C801.9678,1997.5514 794.8878,1996.9824 791.7468,1991.4824 C784.8608,1976.6974 798.6488,1959.3464 812.8578,1955.3714 C814.6388,1945.4704 813.7188,1934.9854 815.5078,1924.9924 C807.9378,1924.5514 801.4878,1922.7914 796.0078,1918.4924 C792.2168,1917.9134 785.5178,1919.6054 785.0878,1914.1524 C783.5478,1891.9214 772.3378,1872.1124 765.2788,1851.3814 C750.6988,1811.0354 763.9288,1768.9054 768.9978,1728.1014 C771.3878,1707.2824 768.8678,1686.3814 766.7378,1665.5324 C670.5298,1816.2914 547.1408,1962.0764 518.6278,2143.9614 C517.0468,2164.4264 508.6898,2181.2794 523.3678,2198.9314 C528.3098,2200.4014 532.4908,2223.4804 534.3978,2229.3414 C549.4368,2243.2614 536.3228,2268.0974 523.2478,2278.8714 C516.9838,2289.6844 508.6068,2299.1714 500.7688,2308.8524 L498.244623,2313.09047 C481.642924,2340.88139 463.911106,2368.75038 441.3988,2392.0354 C403.5198,2420.1064 340.0638,2412.1226 295.4678,2407.0724 L291.953612,2406.49917 C282.552759,2404.94171 272.028223,2402.73436 266.5978,2394.3314 C261.9578,2387.1614 262.5778,2377.8624 268.3478,2372.4824 C262.6218,2355.9844 275.6678,2339.7584 287.9378,2329.6314 C335.4898,2287.4404 376.4838,2237.8274 408.4178,2182.8314 C420.6558,2093.8964 433.2218,2004.9914 446.8288,1916.2514 C457.8098,1842.8454 474.5368,1769.3204 509.8578,1703.4614 L513.0088,1697.46146 C529.563531,1666.00246 546.153681,1635.09444 555.5388,1600.4924 C574.9888,1528.0074 570.3298,1452.1454 567.6368,1377.9424 C564.1708,1262.1444 555.9238,1146.2914 556.9978,1030.4024 C535.2198,1028.1174 476.1428,1029.5034 466.8468,1007.1124 C463.7998,985.7724 470.9428,964.0424 472.5578,942.7214 C467.9578,939.5014 463.4678,936.1124 459.0978,932.6314 C450.9978,938.6814 442.6378,944.3814 434.0478,949.7004 C413.5008,964.5044 397.6088,966.8644 384.8978,942.5324 C348.0988,884.3394 312.6088,825.2954 279.1168,765.1324 C248.0508,707.4164 209.5488,649.8214 201.6628,583.3694 C190.1988,463.7984 330.4048,272.3674 400.6068,175.2104 C444.1818,122.4564 500.6738,66.2334 572.9978,63.1524 L573.92104,63.1118552 C583.433739,62.7405494 596.700816,63.5269714 604.4178,57.2614 C605.9148,35.6774 628.0638,35.7714 644.5178,32.2114 C647.9248,29.6014 653.0968,28.9774 657.4578,29.2024 C663.3608,12.2234 664.7088,-6.5556 672.0688,-22.9786 Z M468.8278,2198.2324 C450.7748,2188.8214 429.2368,2188.0804 410.2378,2195.5114 C386.6868,2239.1944 356.5288,2279.0684 322.2668,2314.8704 C309.7638,2332.3474 262.7718,2355.3914 286.2078,2378.9714 L290.967554,2379.84222 C326.42523,2386.26434 362.411929,2391.23494 398.5278,2388.3214 C422.4738,2381.6804 441.8068,2363.9304 457.0388,2344.7334 C475.9538,2320.2044 491.5698,2293.2044 508.8668,2267.5124 C524.3978,2241.1674 532.5868,2240.8154 520.4078,2209.5224 C520.3878,2210.1314 520.2378,2210.7614 519.9278,2211.3814 C515.6278,2220.0624 502.4278,2219.2724 494.9778,2216.0014 C485.2678,2211.7324 478.2078,2203.1714 468.8278,2198.2324 Z M298.2378,2387.0724 C298.5978,2387.2424 298.9678,2387.4114 299.3378,2387.5724 C299.6078,2387.5724 299.8778,2387.5814 300.1478,2387.5914 L298.2378,2387.0724 L298.2378,2387.0724 Z M982.8488,2229.8294 C956.0768,2217.8404 906.9758,2182.8804 879.6278,2188.2114 C859.4238,2194.3874 840.7958,2205.4714 819.2578,2207.0534 L818.332092,2207.08875 C802.963533,2207.76054 775.63882,2212.86848 769.8578,2194.7914 C762.2068,2209.4244 759.6948,2227.5194 759.8088,2244.0714 C759.4908,2258.1664 765.9388,2269.3384 780.9178,2270.4614 L794.784048,2273.95463 C882.64605,2296.03761 971.33235,2317.10775 1061.8778,2323.6314 C1085.6438,2308.7954 1086.2318,2289.2454 1061.0278,2275.6924 C1035.5778,2259.4114 1009.3878,2244.2324 982.8488,2229.8294 Z M465.3578,1889.1614 C449.6218,1987.7004 439.0548,2086.8074 423.8178,2185.3914 C476.9588,2172.0624 492.6708,2219.8304 512.4278,2206.4924 C498.5698,2188.2644 500.2418,2174.4904 504.3378,2153.2824 C512.4678,2081.7754 539.0748,2013.7394 572.0678,1950.2514 C575.8278,1942.9924 579.6878,1935.7824 583.5978,1928.6014 C541.1778,1932.4604 495.5138,1920.3544 465.3578,1889.1614 Z M793.0178,2170.1614 C789.3668,2175.8124 787.9318,2182.6444 786.7678,2189.1814 C786.1678,2192.5624 786.4978,2197.5414 785.2978,2201.3314 C808.1178,2202.0034 831.0778,2196.7044 851.6378,2186.8914 C835.3088,2185.7214 799.3648,2188.4954 793.0178,2170.1614 Z M778.8278,2184.7324 C776.6078,2186.3124 774.6878,2188.1414 773.0278,2190.1714 C772.4678,2193.3224 774.0978,2196.7614 776.7378,2198.7114 C777.2678,2194.0944 777.9098,2189.3174 778.8278,2184.7324 Z M823.4078,2118.7514 C823.4778,2133.0044 824.3458,2147.0774 824.1878,2161.3224 C824.1648,2166.2724 825.6318,2172.5114 822.6078,2176.7114 L827.410019,2177.21425 C839.450015,2178.4588 851.726918,2179.50964 863.7578,2178.1314 C864.1458,2159.5854 864.1568,2140.9524 865.3778,2122.4114 C850.5418,2122.3184 838.0128,2119.8244 823.4078,2118.7514 Z M869.3778,2175.5514 C869.3578,2176.1314 869.3478,2176.7214 869.3678,2177.2914 C871.0978,2176.9614 872.8178,2176.5814 874.5178,2176.1214 C873.1228,2175.9894 871.6868,2176.2254 870.3178,2175.7424 C870.0018,2175.7054 869.6778,2175.6634 869.3778,2175.5514 Z M817.5578,2173.3414 C816.0358,2175.0594 813.0718,2175.3764 811.1978,2174.2214 C810.8178,2174.3014 810.4378,2174.3514 810.0378,2174.3714 L809.6978,2174.3624 L809.6978,2174.3624 L810.999622,2174.69542 C813.715698,2175.37438 815.818867,2175.7894 818.6078,2176.1924 C818.1178,2175.3124 817.7878,2174.3514 817.5578,2173.3414 Z M879.9978,2173.2614 C879.6478,2173.9114 879.1678,2174.4614 878.5778,2174.9024 C879.2478,2174.6814 879.9278,2174.4614 880.5878,2174.2114 C880.4078,2173.8914 880.2078,2173.5724 879.9978,2173.2614 Z M801.3278,2169.3514 C801.5868,2169.9354 802.1468,2170.8434 802.7878,2171.3224 C802.2178,2170.7214 801.7178,2170.0624 801.3278,2169.3514 Z M868.9978,2160.1614 C869.0078,2160.5114 869.0178,2160.8514 869.0378,2161.1924 C869.2228,2161.0174 869.4338,2160.8144 869.6978,2160.7114 C869.4578,2160.5324 869.2178,2160.3514 868.9978,2160.1614 Z M807.8078,2082.4314 C796.6218,2086.0724 800.5368,2100.1194 809.0078,2104.7214 C818.2178,2110.8014 832.1278,2109.8514 842.6998,2110.7714 C854.0598,2111.5694 883.8488,2117.7804 878.5878,2097.9314 C877.7878,2096.5014 876.7178,2095.5914 875.5378,2094.8624 C875.4378,2095.1124 875.3278,2095.3414 875.2178,2095.5724 C874.7568,2109.4364 828.5548,2101.9324 820.5788,2096.6514 L820.074528,2096.43094 C813.358448,2093.53627 807.000971,2092.34457 807.8078,2082.4314 Z M821.4878,1919.8914 C823.9128,1930.7604 823.1168,1942.0624 824.6478,1952.9614 C825.6078,1956.1214 824.3778,1958.2324 822.4078,1959.3124 L823.820451,1959.72547 C836.067279,1963.23546 848.41817,1964.89144 861.1678,1962.0324 C859.7498,1950.6094 862.9288,1937.6734 864.5278,1926.1214 C864.7878,1924.8014 864.8978,1923.4924 865.1878,1922.2914 L821.4878,1919.8914 L821.4878,1919.8914 Z M870.0178,1922.5514 C870.2308,1924.1824 870.2038,1925.9594 870.3878,1927.6524 C870.4278,1927.5914 870.4678,1927.5324 870.5278,1927.4924 C872.1278,1926.1014 873.5778,1924.3124 875.1078,1922.7724 C873.4298,1922.7454 871.7098,1922.6454 870.0178,1922.5514 Z M799.4678,699.8224 L798.4178,700.0324 C816.7038,791.6604 831.0958,884.4584 836.0778,977.9214 L836.145427,979.292466 C836.640362,988.484711 837.882086,998.654733 831.7678,1006.3014 C825.3178,1014.3714 815.2678,1015.3914 805.7378,1016.8624 C725.1098,1029.1224 643.3328,1033.2664 561.8278,1030.6124 C571.2438,1156.2444 574.7308,1282.2474 580.7078,1408.0814 L580.976129,1414.67671 C583.808164,1485.82153 584.47502,1558.89987 560.9758,1626.9444 C523.4178,1711.3344 476.6278,1791.6084 465.9878,1885.5724 C500.4288,1911.6624 546.6398,1927.6934 589.2578,1918.3014 C639.9178,1823.4134 707.9348,1739.7234 764.2378,1648.5224 C869.8198,1465.1064 859.3868,1243.2634 856.7078,1039.8714 C856.3308,1038.4554 857.7518,1037.9654 857.6678,1039.6214 C858.7578,1039.5224 859.8978,1040.0324 860.1088,1041.2824 C866.5328,1083.9104 864.2428,1127.3014 863.9698,1170.2614 C863.8708,1202.3114 866.0858,1235.5984 863.7278,1267.0624 C860.3898,1375.1534 846.8908,1484.7184 806.6278,1585.7824 C856.4398,1596.9354 887.1638,1648.8014 941.8978,1614.2514 C941.9068,1551.1674 983.7698,1498.8394 1005.4978,1441.8624 C1034.83237,1373.15915 1056.80833,1301.42634 1072.50325,1228.42167 L1074.16862,1220.62034 C1076.21105,1211.08013 1078.45011,1201.1854 1081.9278,1192.0224 C1077.7748,1186.9674 1081.3478,1177.2184 1081.2378,1168.5414 C1075.31098,1168.54042 1067.70716,1166.07485 1066.9852,1159.23997 L1066.9568,1158.9214 C1062.5998,1110.8854 1062.2318,1061.5114 1071.2278,1013.9924 L1069.95816,1014.06912 C1047.45689,1015.39094 939.82114,1019.9018 936.8978,1001.7914 C932.8878,971.4214 942.5778,941.3124 944.5588,911.1614 C948.1128,843.0354 947.2548,774.6454 946.7878,706.4314 C925.1918,709.2984 904.4558,705.1704 883.0878,704.4834 C855.970409,702.474052 828.042443,704.301295 801.252115,700.11079 L799.4678,699.8224 Z M1136.0478,886.2514 C1134.9678,887.5224 1133.7878,888.2914 1132.5878,888.6814 C1132.5978,917.5514 1126.7778,945.9424 1110.8288,970.9424 C1103.8258,980.2194 1100.0628,990.9104 1096.7078,1001.9214 C1097.6718,1004.9144 1096.4598,1008.3624 1094.2078,1010.0724 C1079.4688,1054.9274 1077.9488,1102.9524 1083.3878,1149.5414 C1099.9638,1125.1974 1106.5408,1096.1474 1111.1778,1067.5014 C1111.4278,1066.0624 1113.8078,1066.0814 1114.0678,1067.5014 C1119.5698,1098.1234 1110.2458,1128.7134 1098.2078,1156.7024 C1091.5268,1162.3444 1092.9678,1175.1804 1092.1878,1183.1714 C1214.3788,1201.0014 1171.8868,966.0974 1187.5378,893.7514 C1187.8278,891.7614 1189.5178,890.3124 1191.4378,889.7024 C1173.1108,886.9014 1154.5398,886.6954 1136.0478,886.2514 Z M641.6478,37.3624 L639.532581,37.8971828 C617.245111,43.4819022 611.322,43.6029 609.9058,69.8414 C604.3558,106.8874 583.8688,139.2004 574.6588,175.0224 C570.9748,187.6714 574.8728,210.9864 592.3378,207.5624 C597.9978,205.8224 602.4078,213.4614 598.1278,217.5114 C585.4778,229.4924 573.1978,241.8414 560.8478,254.1124 C610.4398,421.7124 674.8618,584.9594 753.3378,741.1414 C756.4478,747.3414 747.1178,752.7914 744.0278,746.5914 C666.01283,589.90905 601.12826,426.716876 550.768409,259.072882 L549.2468,253.9914 C547.0218,247.8194 575.4618,225.7004 580.6378,218.4824 C528.7808,193.4694 601.0008,105.9344 603.1078,63.8414 C588.0938,69.7454 571.4428,67.7074 555.7678,70.2714 C525.6478,75.5604 499.2118,92.9834 475.7138,111.7894 C380.2648,196.1784 319.2678,313.0174 258.2528,423.1424 C216.6988,494.9964 196.6698,582.8274 238.3658,659.2624 C286.7508,757.2594 342.8768,851.7164 402.2178,943.4124 C408.7368,951.8894 418.7568,942.1564 425.6278,938.5814 C465.0948,914.8334 499.3178,882.5274 525.6378,844.7514 C456.6248,758.1194 392.4208,663.4774 356.6458,558.0704 C353.7868,532.4274 389.6888,502.7124 402.7878,480.4314 C431.7178,440.4944 458.7428,399.1544 484.5478,357.1524 C483.7358,353.0014 485.4518,348.4334 489.8478,348.5624 L492.394941,344.307151 C512.047829,311.572162 514.2594,310.34052 494.7378,350.3514 C504.6668,498.3664 503.0138,649.2464 507.3078,798.1924 C518.9178,813.5814 530.8678,828.7114 543.0978,843.6014 C582.7698,816.2264 629.4388,798.3734 677.3688,792.8414 L679.198935,792.660064 C699.396471,790.612972 734.3941,785.92308 737.1198,812.9434 C733.8188,845.5004 666.6218,827.1974 645.1378,845.6614 C680.3558,859.8734 720.7128,863.8784 753.0478,885.3024 C763.4188,891.3614 783.7518,910.6654 763.8878,918.0524 C755.2198,918.7944 746.2688,915.4234 737.6078,914.6814 C747.3548,917.9704 756.3198,923.5404 762.0278,932.2724 C766.1378,938.2614 769.1378,950.6924 759.3178,953.2534 C736.9318,953.8864 714.6378,946.5774 692.5878,942.9424 L694.546646,943.738747 C710.62084,950.327872 735.6058,962.16256 713.9578,979.6144 C692.2838,990.8474 666.0458,971.7384 644.4588,966.6384 C586.3098,953.0914 543.2968,990.2164 483.6878,950.0224 C482.0138,967.7244 476.6638,985.9374 478.3068,1003.6544 C492.6268,1017.0754 537.2938,1016.6314 557.2478,1018.4114 L557.266547,1018.27203 C557.468568,1016.33068 556.504358,1007.09958 559.4878,1011.0814 C559.7678,1013.5724 560.0678,1016.0514 560.3778,1018.5414 C632.938814,1020.64083 705.782801,1018.19811 777.805096,1008.82172 L780.8478,1008.4214 C791.9078,1006.9424 803.4678,1005.9714 814.3268,1003.3304 C825.4318,1001.8354 825.4548,989.9804 824.2748,981.2524 C809.0248,658.9524 678.2598,355.8894 641.6478,37.3624 Z M847.1778,63.9824 C849.7478,67.8124 852.5978,71.4614 855.6778,74.9124 C860.4108,67.5604 871.9728,63.4084 875.2388,74.3614 C878.9338,85.6304 884.2228,97.2164 884.3778,109.1524 C959.9598,355.9924 961.8768,618.4674 960.4058,874.5014 C962.6688,915.1124 950.0948,954.8654 951.2578,995.2514 C992.6578,1001.2214 1034.6578,1001.7324 1076.2278,997.3124 C1077.4578,994.0814 1078.8478,990.9024 1080.4238,987.7804 C1142.6518,911.7784 1109.6508,816.5354 1079.6878,734.2114 C1061.5698,734.9784 1043.3438,733.8284 1025.2078,734.0514 C1030.8118,751.4254 1032.2558,769.8074 1035.2378,787.7724 C1037.26843,800.573963 1039.86067,813.27533 1042.83738,825.882269 L1043.63711,829.243393 C1044.75977,833.892219 1046.24894,838.910886 1044.6178,843.5224 C1043.0178,848.0724 1037.4978,849.9114 1033.8368,846.3714 C1027.2388,838.8354 1027.9468,827.6064 1025.8168,818.2614 L1025.29019,814.339081 C1021.67759,787.81457 1017.09061,760.335906 1023.6478,734.0414 C1017.1318,732.6394 999.3198,737.7864 998.3858,729.0114 C998.6598,714.5184 988.1668,683.1174 999.8478,673.5724 C1006.7978,668.2614 1018.7478,669.9424 1026.8978,669.6124 C1036.3178,669.2324 1045.7278,668.8814 1055.1378,668.9424 C979.51467,485.85774 1000.54508,429.50099 1008.21945,247.292647 L1008.4478,241.7324 C1008.4278,240.5324 1010.3578,240.2324 1010.5678,241.4424 C1022.1318,316.0764 1006.7178,391.6404 1014.0198,466.5114 C1026.9868,608.7654 1116.9668,730.9014 1132.0078,872.4714 C1164.4558,868.7014 1197.2688,873.3264 1228.7178,881.4824 C1229.3778,875.7324 1229.8878,869.9614 1230.2478,864.1924 C1236.2158,758.5214 1199.2058,655.8954 1156.0208,561.1204 C1130.1418,510.8144 1114.1438,457.1224 1107.4478,400.9824 C1094.4478,327.8604 1065.2748,258.9814 1036.1958,191.0554 C1017.8128,140.2664 978.0748,128.2904 928.7978,122.3914 C945.4178,149.9924 961.9378,177.6524 978.4288,205.3324 C982.1068,213.7034 970.8278,219.6784 965.9078,224.8324 C1026.4428,257.9044 991.0968,360.0354 992.3488,417.2614 C987.8548,469.8474 986.1598,522.7324 978.2378,574.9524 C977.6578,578.5724 972.1178,577.5114 972.0658,574.1214 C972.7978,495.8764 982.1098,417.9484 986.1978,339.8314 L986.795071,332.962898 C989.941198,296.031888 992.53306,243.68812 948.6078,233.6414 C942.6178,232.6624 942.1578,223.7424 946.9678,221.0624 C953.3678,217.4924 958.9778,213.1314 963.9978,207.9424 C938.6738,167.2064 916.5898,124.2914 889.9378,84.4434 C870.9928,60.1314 872.7698,68.7044 847.1778,63.9824 Z M724.8488,810.9604 C719.9508,796.5104 672.4238,805.9214 659.7378,807.4924 C612.9578,816.3414 565.8778,837.0814 530.2478,869.0224 C528.0478,870.9924 525.4478,870.9614 523.3978,869.8914 C507.4388,890.3154 489.0098,908.8264 468.7978,925.0914 C472.4978,928.0114 476.2978,930.8414 480.2078,933.5514 C482.0778,933.7514 483.7678,934.7214 484.5278,936.4614 C540.1388,976.8294 581.0488,945.3414 638.8178,952.6134 C660.3878,956.9704 680.2498,970.7144 702.4768,971.2924 C718.7888,967.5764 704.4268,960.7454 696.8078,958.1014 C678.4078,949.302242 659.624864,941.331361 640.823266,933.432738 L630.2478,928.9924 C623.3178,926.0814 625.6978,915.5914 633.4378,917.4214 C646.9878,920.6214 660.5778,923.6614 674.1778,926.6524 C700.3308,931.9974 727.1098,938.8534 753.5378,941.4524 C747.6628,925.0934 685.3298,907.4254 667.2068,900.9234 C660.3618,897.6844 640.8398,898.3004 643.0678,887.6704 C644.8678,877.7794 665.6408,889.1064 672.5678,889.9114 C700.8398,897.0974 729.6988,901.4514 758.5078,905.8314 C727.5638,874.7304 679.5978,872.0464 640.0778,857.4814 L638.992135,857.234101 C631.962993,855.594698 622.3365,852.5043 628.0498,844.5034 C648.3548,814.5124 728.2468,829.6894 724.8488,810.9604 Z M666.3778,643.9712 C680.7918,632.1252 688.5118,656.4592 687.5978,667.7722 C688.2778,677.1622 689.0078,686.5512 689.6188,695.9422 C688.7248,703.2842 696.5358,730.0482 686.0878,730.2922 C640.4238,727.9692 594.8368,728.5562 549.1578,725.8012 C549.0978,735.0322 548.6478,744.2512 549.1188,753.4922 C548.8698,765.0462 552.8778,776.5872 550.5378,788.0112 C549.1078,793.2612 541.9778,793.9712 539.1958,789.4922 C530.8508,769.8272 536.5868,744.4612 542.4978,724.5722 C508.1718,716.0212 524.5398,687.8192 524.6278,663.6412 C524.5778,663.0012 525.2178,662.6712 525.7388,662.7922 C534.2918,674.7532 523.1528,690.7262 528.0378,703.7322 C532.9338,717.52644 553.238952,716.715163 565.507752,716.875916 L566.9978,716.9022 C604.7128,717.5512 642.4028,719.1082 680.1178,719.8412 C678.5078,707.1222 678.0678,694.0822 677.0988,681.3722 C675.8778,672.2332 677.6388,661.4012 672.9978,653.2112 C652.0278,660.0402 630.1928,662.7612 608.1478,662.3332 C581.8658,663.0432 554.2438,665.4102 528.5478,662.2712 C565.3778,656.5702 606.0728,657.4052 643.6078,650.1712 C651.0678,648.2372 658.6838,644.3382 666.3778,643.9712 Z M485.0778,369.3714 C462.3528,412.8084 436.2318,454.1384 408.4078,494.3814 C402.4478,502.9714 396.3278,511.4524 390.1098,519.8714 L389.343117,520.856499 C376.801638,536.886544 363.50588,550.05498 375.3678,571.2514 C406.1328,646.1054 447.3238,716.4024 495.0478,781.6414 C492.0228,644.2154 489.3518,506.7524 485.0778,369.3714 Z M1055.9778,671.1414 C998.9228,683.1194 997.8548,660.6884 1007.3778,724.1714 C1030.2608,724.3284 1053.1298,723.8114 1076.0178,724.1814 C1069.4778,706.4524 1062.6978,688.8014 1055.9778,671.1414 Z M865.8478,75.5414 C863.4598,75.5054 859.8008,76.9114 857.3678,76.7614 C862.052244,81.7679 867.209436,86.3177086 872.637193,90.3299535 L873.596428,91.031062 L873.161939,90.1967963 C870.863327,85.6956303 868.957495,80.5152654 866.345994,76.3167167 L865.8478,75.5414 Z" id="ðŸ–-Ink" fill="#000000"></path>
    </g>
</svg>