<?xml version="1.0" encoding="UTF-8"?>
<svg width="1645px" height="2500px" viewBox="0 0 1645 2500" version="1.1" xmlns="http://www.w3.org/2000/svg" xmlns:xlink="http://www.w3.org/1999/xlink">
    <!-- Generator: Sketch 62 (91390) - https://sketch.com -->
    <title>pose/standing/blazer-3</title>
    <desc>Created with Sketch.</desc>
    <g id="pose/standing/blazer-3" stroke="none" stroke-width="1" fill="none" fill-rule="evenodd">
        <path d="M383.8193,510.1309 C357.0323,541.5169 359.4003,550.2449 373.6723,581.9339 C405.2033,655.4619 450.4153,730.2059 501.7383,798.3869 C498.3503,645.4209 495.4363,491.6239 490.4253,337.2629 C459.9083,396.9059 427.4093,450.7799 383.8193,510.1309 M378.7653,2400.6749 C361.9043,2399.0409 243.2373,2403.4339 274.9953,2368.7719 C265.1923,2347.4509 292.5793,2329.4629 309.4553,2313.2449 C325.2453,2298.1539 340.8063,2281.3849 357.0203,2261.9859 C372.1193,2243.9999 389.1403,2222.7389 400.1443,2197.9289 C402.5803,2194.0409 405.0543,2191.3179 407.5043,2189.8309 L408.9173,2188.9729 L409.7973,2187.5719 C419.0843,2172.7229 426.7523,2157.3799 435.1913,2142.2539 C414.5523,2134.7849 395.8003,2127.2819 372.4233,2116.9149 C405.4093,1922.3139 454.8463,1732.7189 486.8113,1537.5429 C506.2673,1367.7029 516.7123,1196.2659 561.2343,1028.9979 L566.9303,1029.4369 L570.1043,1018.4759 C565.4283,1018.3549 555.9553,1018.0379 551.2653,1017.8549 L552.3633,1023.4629 C531.1393,1021.0009 510.3413,1014.9419 489.7083,1009.8019 C479.1783,1008.3599 468.6213,1000.8149 472.4103,988.2419 C473.6293,970.0009 477.3963,952.2049 479.1693,933.9689 C472.4543,929.3759 465.5273,924.1339 458.8923,918.7599 C441.3463,927.0489 420.1393,953.8129 400.9533,947.0039 C356.1163,886.7129 318.4873,814.2369 284.4353,756.3369 C202.1903,622.4359 176.0863,538.7369 260.9113,399.1179 C334.2483,282.1529 413.3563,96.2499 560.3743,66.8959 C576.8803,63.8089 594.1763,63.6789 610.0393,56.1449 C610.8533,45.3419 616.2413,39.1359 620.1853,39.0479 C629.7653,36.9409 640.2843,33.5509 649.6393,33.4649 C652.9373,32.0849 656.9633,33.2189 660.1313,33.8419 C669.5603,14.8829 668.7173,-9.3211 679.0493,-27.0941 C679.4243,-40.5601 683.5213,-55.4381 724.9473,-58.1451 C753.1463,-60.5031 793.0853,-62.7751 815.6263,-50.4311 C831.3983,-37.7101 831.5613,-9.2121 829.5833,10.8679 C827.4103,25.6149 828.3823,42.7659 839.9103,60.0859 C872.7653,49.9249 895.6763,71.4029 916.2433,111.4719 C1002.3403,123.2149 1020.9053,129.8839 1054.3103,215.3219 C1070.2413,252.3729 1086.8283,291.9569 1099.2463,332.5179 C1115.8773,382.1039 1117.3383,434.0079 1133.5073,483.9439 C1177.4193,594.0009 1222.0743,665.0259 1236.1363,793.1529 C1242.9993,849.7239 1239.0563,877.7769 1232.5323,886.2739 C1213.9743,880.8989 1190.0333,876.7819 1170.5443,874.4919 L1191.3993,890.3839 C1173.7273,970.6589 1224.6263,1199.5869 1086.6213,1182.0009 C1085.3953,1179.0129 1087.6453,1162.5779 1088.2383,1155.7599 C1084.4653,1156.0249 1077.4873,1156.2719 1073.7723,1155.8039 C1067.1913,1174.8289 1057.3103,1191.9239 1051.0733,1211.2759 C1047.9883,1223.0679 1044.0903,1234.9369 1040.2793,1246.4049 C953.3693,1539.6399 936.1583,1821.9379 974.9423,2116.3279 L973.1893,2116.9649 L972.4793,2118.2299 L971.4143,2118.6299 C968.6763,2122.2919 964.7973,2122.4489 958.6083,2122.4589 C920.5933,2123.7969 887.1923,2125.5159 856.2173,2126.3799 C859.5043,2142.8599 857.3993,2160.2069 855.9503,2176.9689 C873.9783,2175.7009 890.5183,2183.0299 906.9963,2191.8329 C938.4823,2207.3179 969.8403,2223.5829 1000.3273,2241.3649 C1030.5943,2260.7689 1079.5423,2277.3619 1055.2413,2312.2369 L1062.2673,2315.0009 C1062.5033,2315.0939 1062.6543,2315.1759 1062.7433,2315.2309 C1063.5733,2318.1939 1054.0553,2330.4549 1051.2353,2330.3219 C984.6753,2333.4349 927.9093,2317.8639 842.7693,2301.5489 C823.2773,2294.4659 725.0983,2282.4179 724.6873,2263.8189 C724.9993,2258.0219 730.9793,2258.4159 735.1513,2257.6899 C722.6433,2194.4119 764.9253,2189.3029 770.9783,2131.8839 C762.6073,2133.4819 753.5563,2134.8499 744.9823,2132.4939 C737.4583,2009.9599 749.5463,1884.5269 736.1803,1760.7939 L722.5913,1759.2879 C676.9133,1893.9259 629.5503,2031.6849 593.1753,2171.5359 C592.4823,2174.5749 589.0833,2172.4979 587.5293,2171.3869 C563.7543,2170.8219 539.9723,2168.2789 516.6593,2164.2679 C516.0993,2178.0239 515.5103,2192.0339 514.9323,2205.7759 L518.5253,2207.7079 C520.8423,2210.9399 519.8673,2226.0659 519.4473,2232.5759 C519.0243,2239.2339 518.6743,2244.0489 519.2623,2248.5649 C526.7603,2263.3739 501.1223,2295.4679 487.5623,2313.3139 C458.0183,2351.6209 433.5453,2408.3529 378.7653,2400.6749" id="ðŸŽ¨-Background" fill="#FFFFFF"></path>
        <path d="M672.0685,-26.6688 C680.1165,-32.1268 668.6565,15.2352 668.6365,19.7922 L668.434307,20.7842655 C666.428368,30.4312111 662.8962,41.6545333 654.7675,47.8412 C658.5165,78.5442 663.1825,109.1492 668.9265,139.5322 L672.304929,139.976326 C722.425659,146.622971 772.875665,155.762189 823.8355,151.0002 C851.2915,151.2172 869.4685,132.4182 880.5375,109.1012 C879.7875,106.3512 879.0375,103.6122 878.2675,100.8622 C843.3995,79.4952 816.9965,36.1332 832.7065,-4.7978 C833.3765,-6.5478 835.4565,-6.6678 836.5275,-5.7578 C836.7005,-5.7418 836.8595,-5.5998 836.8465,-5.4088 L836.289185,3.24855772 C835.223387,20.4665735 834.866344,38.2640778 844.1765,53.7522 C882.1145,45.0952 905.7055,76.7472 921.5675,106.7022 L932.962777,108.389235 C976.557604,114.86951 1018.60142,122.54128 1040.1285,167.2312 L1043.07728,173.507723 C1073.157,237.726493 1101.18854,303.761126 1117.5965,372.9122 C1125.8575,409.7022 1128.8465,447.6122 1140.9645,483.4932 C1166.1255,550.1202 1201.5815,612.7342 1220.8065,681.7122 C1232.7355,706.6002 1266.3065,893.9472 1233.1875,895.3722 C1221.2775,891.8022 1209.1475,888.9122 1196.8865,886.8612 C1198.7775,888.3022 1199.4665,890.7522 1199.1075,893.2522 C1194.8275,923.2822 1194.5065,953.7022 1194.5265,983.9842 C1196.7885,1057.3202 1194.7605,1215.0962 1084.3855,1189.7722 C1076.3285,1186.8042 1081.5605,1173.8752 1081.2375,1164.8422 C1080.6075,1164.8722 1079.9665,1164.8612 1079.3275,1164.8212 C1072.9905,1181.9312 1064.1055,1197.7222 1058.5375,1215.1112 C1053.8175,1230.0522 1050.5175,1246.1222 1043.9375,1260.4312 C974.2495,1508.4252 945.4815,1769.2622 972.7275,2025.9412 C974.2565,2041.3112 975.9775,2056.6622 977.8985,2071.9822 C977.6265,2081.7952 989.0565,2121.2992 978.8175,2124.3612 C978.4205,2125.1362 977.0465,2126.0252 976.2275,2126.3022 C970.0435,2132.9802 959.7615,2130.5042 951.5965,2131.3912 C922.7475,2132.6752 893.9015,2133.8632 865.0375,2134.8212 C866.7655,2147.0762 865.3695,2159.5152 864.3465,2171.7522 C885.3955,2171.9262 904.7405,2184.7472 923.3575,2193.4522 C951.0065,2207.1012 978.2065,2221.6912 1004.8885,2237.1612 C1029.5235,2254.4132 1084.5625,2271.0732 1065.6265,2310.1912 C1079.7465,2315.9252 1060.1245,2339.9052 1049.3965,2340.1752 C979.5625,2339.8222 910.1715,2323.9702 841.9265,2310.0552 C803.1505,2299.8012 760.8395,2295.9052 724.9665,2278.2212 C714.7835,2273.6132 716.9165,2255.2402 728.1175,2253.5322 C719.8005,2192.2812 753.5515,2193.1232 763.0575,2142.0922 C757.5315,2142.9972 751.4275,2142.4862 745.8865,2141.3612 C733.0565,2153.2372 737.7705,2059.7702 736.0265,2050.6412 C735.6785,1954.8002 740.2205,1858.7562 730.0175,1763.2422 L712.677867,1814.33002 C672.254125,1933.56476 632.436375,2053.10595 600.7465,2175.0022 C598.8465,2182.3612 591.1265,2183.2422 586.1975,2180.0322 C565.3865,2179.4222 544.6575,2177.4622 524.1265,2174.1412 C523.7275,2183.8912 523.3175,2193.6412 522.9075,2203.3912 C531.7625,2208.1642 525.7665,2238.2552 526.8975,2248.4312 C536.5385,2270.4202 497.5065,2313.2442 484.8575,2331.2922 C462.08354,2363.12961 439.462476,2407.69166 395.418738,2409.1716 L394.0775,2409.2032 C361.1995,2410.0062 328.0255,2408.0802 295.4665,2403.3822 L291.504118,2402.73429 C282.219393,2401.17987 271.940725,2398.91078 266.5965,2390.6412 C262.0175,2383.5612 262.5775,2374.4222 268.1365,2369.0122 C260.7945,2342.3472 289.3745,2326.1992 305.3375,2309.9622 C335.1565,2281.1692 362.2595,2249.5012 385.6975,2215.3022 L387.043701,2212.10945 C391.388171,2201.852 396.578833,2190.46415 404.6665,2185.5522 C412.3785,2173.2942 418.9735,2160.3942 425.9375,2147.7212 C406.9165,2140.7312 388.1875,2132.9222 369.6665,2124.7022 C365.981256,2123.05856 364.808509,2118.26186 365.452766,2114.69354 L365.4995,2114.4522 C401.6565,1926.5122 445.0055,1739.9142 478.7215,1551.5432 C500.2565,1377.9412 509.0845,1202.1282 554.3575,1032.3422 C532.3935,1030.0572 510.5335,1023.7402 488.9785,1018.3412 C471.6975,1014.6592 462.9595,1005.8732 466.3675,987.5522 C467.5395,971.2692 470.7965,955.2492 472.5575,939.0322 C467.9565,935.8112 463.4665,932.4222 459.0965,928.9412 C450.9965,934.9922 442.6365,940.6912 434.0475,946.0102 C413.4795,960.8372 397.6035,963.1462 384.8975,938.8422 C348.0975,880.6492 312.6085,821.6062 279.1165,761.4422 C248.0495,703.7262 209.5475,646.1312 201.6615,579.6792 C190.2065,460.0902 330.3835,268.7112 400.6065,171.5202 C439.3315,124.7062 486.4945,76.5252 547.8275,62.9122 C566.6935,60.1132 586.5825,59.7322 604.5675,52.8822 C606.0285,44.1302 610.1335,36.0722 619.4075,33.9302 C629.1625,31.7702 639.6205,28.4342 649.4475,28.1912 C651.6685,27.5642 654.2895,27.1682 656.6365,27.6012 C663.3615,10.1182 664.3505,-9.5808 672.0685,-26.6688 Z M296.3365,2382.8322 C298.0175,2383.6622 299.7565,2384.3822 301.5375,2385.0212 C303.7275,2385.3212 305.9075,2385.6012 308.0865,2385.8512 C304.1365,2384.9622 300.2165,2383.9622 296.3365,2382.8322 Z M514.5775,2212.8722 C482.3615,2224.5802 473.5085,2169.6212 410.1475,2191.8612 C385.3855,2237.8852 353.3275,2279.6872 316.6855,2316.8512 C303.6615,2333.0582 265.1125,2351.4632 285.8865,2375.2312 L289.068275,2375.81416 C325.144508,2382.38331 361.764729,2387.6028 398.5265,2384.6312 C426.3065,2376.9602 447.1405,2354.6692 463.9775,2332.1922 C476.1585,2310.5762 490.4085,2290.2322 504.9555,2270.1722 C512.9535,2260.1982 513.7645,2247.5032 513.7275,2235.2312 C513.9965,2227.7712 514.2775,2220.3212 514.5775,2212.8722 Z M876.4665,2185.8912 C862.7885,2180.8702 848.7585,2185.5942 836.3165,2191.7542 C815.0635,2201.2742 769.0315,2212.6822 749.3675,2197.5022 C739.7255,2213.4682 736.4925,2231.2152 739.1375,2249.6312 L739.157968,2250.48829 C739.364376,2258.05513 740.316259,2264.18919 749.4565,2264.7222 L775.085825,2271.17705 C861.547512,2292.90751 948.8595,2313.91798 1037.8575,2319.9622 C1061.6105,2305.1132 1062.2765,2285.5942 1037.0285,2272.0002 L1030.56925,2268.03757 C980.999264,2237.67546 930.272125,2207.83512 876.4665,2185.8912 Z M1064.5675,2312.1722 C1064.3275,2312.5822 1064.0965,2312.9922 1063.8575,2313.3912 C1064.2275,2313.5712 1064.5675,2313.8322 1064.8865,2314.1112 C1064.8865,2313.4412 1064.7875,2312.7822 1064.5675,2312.1722 Z M430.7375,2149.4622 C431.0675,2156.2122 427.7565,2163.8322 425.4265,2169.8912 C424.0575,2173.4712 422.6475,2178.5822 420.4665,2182.6812 C474.63435,2166.68082 491.123236,2213.56366 510.653695,2203.81507 L511.2465,2203.5022 L511.2465,2203.4922 C507.2595,2194.3732 511.6075,2181.5352 514.2875,2172.4412 C485.8415,2167.2902 457.9115,2159.2762 430.7375,2149.4622 Z M858.7875,2135.0322 L843.170179,2135.51401 C818.876081,2136.25218 794.578912,2136.89579 770.2675,2136.8612 C772.8115,2154.3542 767.8335,2183.2092 756.5275,2196.8022 C756.5065,2196.8112 756.4875,2196.8112 756.4775,2196.8212 C788.4775,2201.6722 818.7845,2186.9952 847.2875,2174.6512 C848.4885,2161.2462 853.7445,2147.5662 858.7875,2135.0322 Z M754.2875,2188.3212 C753.3175,2190.1412 752.3365,2191.9622 751.3575,2193.7822 C751.7875,2194.2522 752.2675,2194.6812 752.7775,2195.0522 C752.4805,2192.7812 753.2885,2190.5342 754.2875,2188.3212 Z M799.2675,700.5722 C817.1065,790.8282 831.1885,882.2032 836.0775,974.2312 L836.12095,975.143485 C836.595691,984.454809 837.98369,994.837089 831.7675,1002.6112 C825.3175,1010.6812 815.2675,1011.7022 805.7375,1013.1722 C725.8065,1025.3482 644.7505,1029.4632 563.9475,1027.0122 C534.1205,1174.8532 515.8775,1324.5302 504.7505,1474.8622 C480.5745,1689.6642 425.6975,1899.6442 384.5965,2111.5712 C448.3365,2139.4922 514.4475,2159.3022 584.3075,2162.0522 C683.1905,1796.1272 868.3165,1409.9382 878.1765,1043.8822 C878.7065,1043.2922 879.9775,1043.4312 880.1175,1044.3212 C883.3765,1064.3512 881.9875,1085.2522 881.2675,1105.4412 C878.5325,1167.5712 871.6275,1229.6702 861.4475,1290.9812 C835.6015,1443.2532 787.8615,1590.5792 738.9555,1736.7312 C737.3175,1743.2902 739.7955,1750.5922 739.8775,1757.2922 C750.0925,1869.0612 751.1385,1981.4062 754.4285,2093.5222 C753.7345,2105.9162 757.6295,2119.9502 753.3365,2131.5922 C790.2735,2126.6342 827.3945,2123.9612 864.5175,2120.8612 L864.794424,2120.67968 C866.331147,2119.70432 868.783853,2118.67196 870.1975,2120.4122 C901.5605,2117.9412 932.9555,2115.6802 964.3365,2113.5712 C919.8335,1794.5092 950.5925,1461.9122 1070.9965,1162.1722 C1063.3715,1155.1772 1066.6945,1139.5902 1064.9475,1129.8512 C1063.3385,1090.0992 1063.4255,1049.4392 1071.2275,1010.3022 L1069.24265,1010.42036 C1045.27085,1011.79044 939.79101,1016.0268 936.8975,998.1012 C932.8865,967.7312 942.5775,937.6222 944.5575,907.4712 C948.1125,839.3462 947.2535,770.9552 946.7875,702.7422 C925.9115,705.5372 905.8955,701.7002 885.2565,700.9122 C856.5615,700.6592 827.9245,701.3942 799.2675,700.5722 Z M427.2465,2148.2122 C426.7065,2150.5612 426.0775,2152.9122 425.4075,2155.2622 C426.333864,2153.1622 427.376756,2151.14484 428.618071,2149.36791 L428.9965,2148.8422 L427.2465,2148.2122 Z M768.5865,2136.8722 L766.8765,2136.8912 L766.8765,2136.8912 L766.8675,2137.8722 L766.8675,2137.8722 C767.2675,2138.5422 767.3365,2139.3612 766.8365,2140.0212 C766.7775,2143.0422 766.6475,2146.0712 766.4165,2149.1012 C767.0775,2145.0212 767.7375,2140.9412 768.5865,2136.8722 Z M746.8575,2135.8722 L746.9475,2137.3912 L746.9475,2137.3912 C749.1365,2137.3112 751.3465,2137.4012 753.5275,2137.2922 C754.6765,2137.2312 755.8575,2137.0322 757.0465,2136.8212 C753.6175,2136.7122 750.1975,2136.4412 746.8575,2135.8722 Z M1136.0465,882.5612 C1134.9665,883.8322 1133.7875,884.6012 1132.5865,884.9922 C1132.5965,913.8612 1126.7775,942.2522 1110.8285,967.2522 C1104.1935,976.0622 1100.4445,986.0902 1097.2385,996.5422 C1080.3705,1044.3772 1077.2385,1095.7602 1083.3865,1145.8512 C1099.9605,1121.5072 1106.5475,1092.4572 1111.1765,1063.8112 C1111.4265,1062.3722 1113.8075,1062.3912 1114.0665,1063.8112 C1119.6675,1094.4712 1110.0395,1124.5852 1098.5275,1152.9222 C1091.3365,1158.0692 1093.0495,1171.5502 1092.1875,1179.4812 C1214.3775,1197.3112 1171.8855,962.4072 1187.5375,890.0612 C1187.8275,888.0712 1189.5175,886.6222 1191.4375,886.0122 C1173.1095,883.2112 1154.5385,883.0062 1136.0465,882.5612 Z M560.6265,1026.8722 C560.7775,1027.6412 560.9075,1028.4122 561.0065,1029.1812 C561.2275,1028.4312 561.4475,1027.6722 561.6665,1026.9122 C561.3275,1026.9012 560.9775,1026.8912 560.6265,1026.8722 Z M643.2065,33.2612 L641.067558,33.8223218 C618.489767,39.6537585 611.18299,38.85249 609.9055,66.1512 C604.3555,103.1972 583.8675,135.5102 574.6585,171.3322 C570.9735,183.9812 574.8715,207.2962 592.3365,203.8722 C597.9965,202.1322 602.4075,209.7712 598.1265,213.8222 C585.4775,225.8012 573.1975,238.1512 560.8465,250.4222 C610.4395,418.0222 674.8615,581.2692 753.3365,737.4522 C756.4475,743.6512 747.1175,749.1012 744.0275,742.9012 C666.01154,586.21885 601.12696,423.026676 550.767109,255.381711 L549.2455,250.3002 C547.0205,244.1302 575.4605,222.0102 580.6365,214.7922 C528.7105,189.7392 601.2065,102.0022 603.1765,59.7522 C588.3145,66.2942 571.4675,63.9462 555.7665,66.5812 C525.6475,71.8712 499.2115,89.2922 475.7125,108.0982 C380.2635,192.4892 319.2675,309.3262 258.2525,419.4522 C216.6995,491.3042 196.6665,579.1422 238.3655,655.5732 C286.7495,753.5692 342.8765,848.0262 402.2165,939.7222 C408.7325,948.2092 418.7615,938.4522 425.6265,934.8912 C465.0935,911.1442 499.3165,878.8372 525.6365,841.0612 C461.8285,762.6682 406.2475,676.9952 366.9395,583.6512 L366.397389,582.569223 C357.577812,564.819742 350.60376,543.34608 365.3165,526.6312 C417.5585,459.6302 464.0215,388.5022 507.7465,315.7122 C508.1975,314.9812 509.2065,315.6222 508.8765,316.3822 C504.3865,326.5612 499.6575,336.6622 494.7275,346.6722 C504.6855,494.6712 503.0025,645.5632 507.3075,794.5022 C518.9165,809.8912 530.8675,825.0212 543.0965,839.9122 C582.7695,812.5372 629.4385,794.6832 677.3685,789.1512 L680.46643,788.84017 C700.82565,786.742857 734.44995,782.79005 737.1185,809.2542 C733.8185,841.8102 666.6215,823.5072 645.1365,841.9712 C680.3555,856.1832 720.7125,860.1882 753.0465,881.6122 C763.4185,887.6712 783.7505,906.9752 763.8865,914.3622 C755.2195,915.1042 746.2675,911.7342 737.6075,910.9922 C747.3545,914.2802 756.3185,919.8512 762.0275,928.5822 C766.1365,934.5712 769.1365,947.0022 759.3175,949.5632 C736.9305,950.1962 714.6365,942.8872 692.5865,939.2522 L694.545457,940.048662 C710.620462,946.63867 735.6045,958.47332 713.9565,975.9242 C692.2835,987.1572 666.0445,968.0482 644.4575,962.9482 C586.3095,949.4022 543.2955,986.5272 483.6875,946.3322 C481.9955,959.7652 479.4555,973.1042 478.4385,986.6112 L478.30732,987.375919 C476.241893,999.704767 478.01046,1004.15628 491.2875,1006.5122 C507.2955,1011.3522 524.0625,1012.8712 540.6975,1013.7712 C620.7515,1018.0082 701.3375,1015.0012 780.8475,1004.7342 C792.2885,1001.6592 819.1635,1004.5582 823.9465,991.9522 C814.9845,667.4852 679.9575,362.1742 642.7775,41.9222 C642.1665,38.8412 642.1265,35.7022 643.2065,33.2612 Z M868.8975,60.9922 C862.5125,61.2542 856.5675,62.6402 850.2165,63.2822 C853.7335,70.7742 872.2975,81.3722 870.6075,85.0912 C871.9475,86.1322 873.3075,87.1322 874.6875,88.1012 C872.7675,81.3412 870.8275,74.5912 868.8825,67.8302 C939.4245,239.9572 949.1155,443.6102 958.4885,631.3822 C961.5755,726.0602 963.2555,821.0322 958.6875,915.6512 C956.1475,940.7822 949.4265,966.1812 951.2565,991.5612 C992.6575,997.5322 1034.6575,998.0422 1076.2275,993.6222 C1077.4565,990.3912 1078.8465,987.2122 1080.4225,984.0902 C1142.6515,908.0892 1109.6505,812.8452 1079.6875,730.5212 C1061.5695,731.2892 1043.3425,730.1382 1025.2065,730.3622 C1030.8105,747.7352 1032.2545,766.1172 1035.2375,784.0822 C1037.26812,796.883762 1039.85949,809.58513 1042.83692,822.192069 L1043.6368,825.553193 C1044.75936,830.202019 1046.2477,835.220686 1044.6175,839.8322 C1043.0175,844.3822 1037.4965,846.2212 1033.8355,842.6812 C1027.2385,835.1452 1027.9465,823.9162 1025.8165,814.5722 L1025.42322,811.631728 C1021.79218,784.803036 1017.00839,756.970329 1023.6475,730.3512 C1017.1315,728.9492 999.3195,734.0962 998.3845,725.3212 C998.6595,710.8282 988.1655,679.4282 999.8465,669.8822 C1006.7965,664.5722 1018.7465,666.2522 1026.8975,665.9222 C1036.3175,665.5422 1045.7275,665.1912 1055.1365,665.2522 C979.51337,482.16754 1000.54476,425.81177 1008.21914,243.602477 L1008.4475,238.0422 C1008.4265,236.8412 1010.3575,236.5422 1010.5675,237.7522 C1022.1295,312.3862 1006.7175,387.9512 1014.0195,462.8212 C1026.9865,605.0752 1116.9655,727.2112 1132.0065,868.7822 C1164.4485,865.0112 1197.2715,869.6362 1228.7165,877.7922 C1229.3765,872.0422 1229.8865,866.2712 1230.2465,860.5022 C1236.2155,754.8312 1199.2045,652.2052 1156.0205,557.4302 C1130.1405,507.1242 1114.1435,453.4322 1107.4475,397.2922 C1094.4475,324.1712 1065.2735,255.2912 1036.1945,187.3652 C1017.8125,136.5762 978.0745,124.6002 928.7965,118.7022 C945.4165,146.3012 961.9375,173.9622 978.4275,201.6422 C982.1065,210.0122 970.8275,215.9882 965.9075,221.1412 C1026.4425,254.2142 991.0965,356.3442 992.3475,413.5722 C987.8535,466.1572 986.1585,519.0422 978.2375,571.2622 C977.6575,574.8822 972.1175,573.8222 972.0655,570.4312 C972.7965,492.1872 982.1095,414.2582 986.1965,336.1402 L986.69323,330.445181 C989.87949,293.46008 992.9991,240.1039 948.6075,229.9522 C942.6175,228.9712 942.1575,220.0512 946.9665,217.3722 C953.3675,213.8012 958.9775,209.4412 963.9965,204.2522 C947.0375,175.7422 930.1075,147.2122 913.3275,118.5812 L912.540305,117.250475 C900.621495,96.9926165 889.550586,73.4190817 868.8975,60.9922 Z M724.8475,807.2702 C719.9505,792.8202 672.4225,802.2312 659.7375,803.8022 C612.9565,812.6512 565.8765,833.3912 530.2465,865.3322 C528.0465,867.3022 525.4475,867.2712 523.3975,866.2022 C507.4385,886.6262 489.0085,905.1362 468.7965,921.4012 C472.4965,924.3212 476.2965,927.1512 480.2065,929.8612 C482.0775,930.0612 483.7675,931.0322 484.5275,932.7712 C540.1385,973.1392 581.0475,941.6512 638.8175,948.9232 C660.3865,953.2802 680.2485,967.0242 702.4765,967.6022 C718.7875,963.8862 704.4255,957.0552 696.8075,954.4122 C679.556711,946.1622 661.970602,938.640801 644.347361,931.224571 L630.2465,925.3022 C623.3175,922.3912 625.6975,911.9012 633.4375,913.7312 C646.9875,916.9312 660.5775,919.9712 674.1765,922.9632 C700.3305,928.3072 727.1085,935.1632 753.5375,937.7622 C747.6615,921.4032 685.3295,903.7352 667.2055,897.2332 C660.3615,893.9942 640.8395,894.6102 643.0675,883.9812 C644.8675,874.0892 665.6395,885.4162 672.5675,886.2212 C700.8395,893.4072 729.6985,897.7612 758.5065,902.1412 C727.5635,871.0402 679.5965,868.3562 640.0775,853.7912 L639.212924,853.595193 C632.167054,851.969014 622.27602,848.89832 628.0485,840.8132 C648.3545,810.8222 728.2465,826.0002 724.8475,807.2702 Z M666.3768,640.2821 C680.7908,628.4341 688.5118,652.7681 687.5968,664.0821 C688.2768,673.4721 689.0068,682.8621 689.6178,692.2521 C688.7248,699.5941 696.5348,726.3581 686.0868,726.6021 C640.4228,724.2791 594.8358,724.8661 549.1568,722.1121 C549.0968,731.3421 548.6478,740.5611 549.1178,749.8021 C548.8688,761.3561 552.8768,772.8971 550.5368,784.3221 C549.1078,789.5721 541.9778,790.2821 539.1938,785.8021 C530.8508,766.1371 536.5868,740.7711 542.4968,720.8821 C520.1288,716.7411 517.0438,695.6771 522.9368,676.8821 L522.875731,675.863766 C522.547877,670.066183 522.5728,663.847489 525.1568,659.1621 C532.0648,651.0141 546.3918,656.3071 555.9068,655.6931 C585.0758,652.6801 614.7798,651.8471 643.6078,646.4811 C651.0698,644.5471 658.6798,640.6471 666.3768,640.2821 Z M485.0575,365.7122 C462.3485,409.1382 436.2215,450.4582 408.4075,490.6912 C402.4475,499.2822 396.3275,507.7622 390.1095,516.1812 L388.958601,517.656133 C376.531675,533.465923 363.62662,546.58107 375.3675,567.5612 C406.1315,642.4162 447.3235,712.7122 495.0465,777.9522 C492.0245,640.5352 489.3555,503.0832 485.0575,365.7122 Z M1055.9775,667.4522 C998.9215,679.4292 997.8535,656.9992 1007.3765,720.4812 C1030.2595,720.6382 1053.1295,720.1222 1076.0175,720.4922 C1069.4775,702.7622 1062.6975,685.1122 1055.9775,667.4522 Z M672.9968,649.5211 C643.1978,659.8951 611.5588,658.4151 580.4378,659.6911 C580.5008,666.3941 548.6578,660.1731 542.5478,661.0931 L540.197203,660.890942 C535.143449,660.483253 528.791774,660.416869 528.7368,666.6221 C530.3578,677.4811 524.2568,689.3721 528.0368,700.0421 C533.1368,714.4121 554.9568,712.9321 566.9968,713.2121 C586.8468,713.6621 606.6968,714.1411 626.5468,714.6621 C644.3768,715.1321 662.2678,716.0211 680.1168,716.1511 C678.5068,703.4321 678.0678,690.3911 677.0978,677.6821 C675.8768,668.5431 677.6378,657.7111 672.9968,649.5211 Z M798.2965,695.7312 C798.3275,695.8912 798.3575,696.0522 798.3975,696.2212 C798.7435,696.1222 799.1385,696.0662 799.4775,695.9712 C799.0865,695.9012 798.6875,695.8222 798.2965,695.7312 Z" id="ðŸ–-Ink" fill="#000000"></path>
    </g>
</svg>