<?xml version="1.0" encoding="UTF-8"?>
<svg width="1645px" height="2500px" viewBox="0 0 1645 2500" version="1.1" xmlns="http://www.w3.org/2000/svg" xmlns:xlink="http://www.w3.org/1999/xlink">
    <!-- Generator: Sketch 62 (91390) - https://sketch.com -->
    <title>pose/standing/blazer-4</title>
    <desc>Created with Sketch.</desc>
    <g id="pose/standing/blazer-4" stroke="none" stroke-width="1" fill="none" fill-rule="evenodd">
        <path d="M383.8193,510.1309 C357.0323,541.5169 359.4003,550.2449 373.6723,581.9339 C405.2033,655.4619 450.4153,730.2059 501.7383,798.3869 C498.3503,645.4209 495.4363,491.6239 490.4253,337.2629 C459.9083,396.9059 427.4093,450.7799 383.8193,510.1309 M378.7653,2400.6749 C361.9043,2399.0409 243.2373,2403.4339 274.9953,2368.7719 C265.1923,2347.4509 292.5793,2329.4629 309.4553,2313.2449 C325.2453,2298.1539 340.8063,2281.3849 357.0203,2261.9859 C372.1193,2243.9999 389.1403,2222.7389 400.1443,2197.9289 C402.5803,2194.0409 405.0543,2191.3179 407.5043,2189.8309 L408.9173,2188.9729 L409.7973,2187.5719 C419.0843,2172.7229 426.7523,2157.3799 435.1913,2142.2539 C414.5523,2134.7849 395.8003,2127.2819 372.4233,2116.9149 C405.4093,1922.3139 454.8463,1732.7189 486.8113,1537.5429 C506.2673,1367.7029 516.7123,1196.2659 561.2343,1028.9979 L566.9303,1029.4369 L570.1043,1018.4759 C565.4283,1018.3549 555.9553,1018.0379 551.2653,1017.8549 L552.3633,1023.4629 C531.1393,1021.0009 510.3413,1014.9419 489.7083,1009.8019 C479.1783,1008.3599 468.6213,1000.8149 472.4103,988.2419 C473.6293,970.0009 477.3963,952.2049 479.1693,933.9689 C472.4543,929.3759 465.5273,924.1339 458.8923,918.7599 C441.3463,927.0489 420.1393,953.8129 400.9533,947.0039 C356.1163,886.7129 318.4873,814.2369 284.4353,756.3369 C202.1903,622.4359 176.0863,538.7369 260.9113,399.1179 C334.2483,282.1529 413.3563,96.2499 560.3743,66.8959 C576.8803,63.8089 594.1763,63.6789 610.0393,56.1449 C610.8533,45.3419 616.2413,39.1359 620.1853,39.0479 C629.7653,36.9409 640.2843,33.5509 649.6393,33.4649 C652.9373,32.0849 656.9633,33.2189 660.1313,33.8419 C669.5603,14.8829 668.7173,-9.3211 679.0493,-27.0941 C679.4243,-40.5601 683.5213,-55.4381 724.9473,-58.1451 C753.1463,-60.5031 793.0853,-62.7751 815.6263,-50.4311 C831.3983,-37.7101 831.5613,-9.2121 829.5833,10.8679 C827.4103,25.6149 828.3823,42.7659 839.9103,60.0859 C872.7653,49.9249 895.6763,71.4029 916.2433,111.4719 C1002.3403,123.2149 1020.9053,129.8839 1054.3103,215.3219 C1070.2413,252.3729 1086.8283,291.9569 1099.2463,332.5179 C1115.8773,382.1039 1117.3383,434.0079 1133.5073,483.9439 C1177.4193,594.0009 1222.0743,665.0259 1236.1363,793.1529 C1242.9993,849.7239 1239.0563,877.7769 1232.5323,886.2739 C1213.9743,880.8989 1190.0333,876.7819 1170.5443,874.4919 L1191.3993,890.3839 C1173.7273,970.6589 1224.6263,1199.5869 1086.6213,1182.0009 C1085.3953,1179.0129 1087.6453,1162.5779 1088.2383,1155.7599 C1084.4653,1156.0249 1077.4873,1156.2719 1073.7723,1155.8039 C1067.1913,1174.8289 1057.3103,1191.9239 1051.0733,1211.2759 C1047.9883,1223.0679 1044.0903,1234.9369 1040.2793,1246.4049 C953.3693,1539.6399 936.1583,1821.9379 974.9423,2116.3279 L973.1893,2116.9649 L972.4793,2118.2299 L971.4143,2118.6299 C968.6763,2122.2919 964.7973,2122.4489 958.6083,2122.4589 C920.5933,2123.7969 887.1923,2125.5159 856.2173,2126.3799 C859.5043,2142.8599 857.3993,2160.2069 855.9503,2176.9689 C873.9783,2175.7009 890.5183,2183.0299 906.9963,2191.8329 C938.4823,2207.3179 969.8403,2223.5829 1000.3273,2241.3649 C1030.5943,2260.7689 1079.5423,2277.3619 1055.2413,2312.2369 L1062.2673,2315.0009 C1062.5033,2315.0939 1062.6543,2315.1759 1062.7433,2315.2309 C1063.5733,2318.1939 1054.0553,2330.4549 1051.2353,2330.3219 C984.6753,2333.4349 927.9093,2317.8639 842.7693,2301.5489 C823.2773,2294.4659 725.0983,2282.4179 724.6873,2263.8189 C724.9993,2258.0219 730.9793,2258.4159 735.1513,2257.6899 C722.6433,2194.4119 764.9253,2189.3029 770.9783,2131.8839 C762.6073,2133.4819 753.5563,2134.8499 744.9823,2132.4939 C737.4583,2009.9599 749.5463,1884.5269 736.1803,1760.7939 L722.5913,1759.2879 C676.9133,1893.9259 629.5503,2031.6849 593.1753,2171.5359 C592.4823,2174.5749 589.0833,2172.4979 587.5293,2171.3869 C563.7543,2170.8219 539.9723,2168.2789 516.6593,2164.2679 C516.0993,2178.0239 515.5103,2192.0339 514.9323,2205.7759 L518.5253,2207.7079 C520.8423,2210.9399 519.8673,2226.0659 519.4473,2232.5759 C519.0243,2239.2339 518.6743,2244.0489 519.2623,2248.5649 C526.7603,2263.3739 501.1223,2295.4679 487.5623,2313.3139 C458.0183,2351.6209 433.5453,2408.3529 378.7653,2400.6749" id="ðŸŽ¨-Background" fill="#FFFFFF"></path>
        <path d="M672.0687,-25.5587 C680.1167,-31.0167 668.6567,16.3453 668.6367,20.9023 L668.434507,21.8943656 C666.428567,31.5413122 662.896367,42.7646667 654.7667,48.9523 C658.5157,79.6543 663.1827,110.2593 668.9267,140.6423 L672.305127,141.086426 C722.425816,147.733071 772.874887,156.872289 823.8357,152.1103 C851.2917,152.3283 869.4677,133.5283 880.5367,110.2113 C879.7867,107.4613 879.0367,104.7223 878.2667,101.9723 C843.3997,80.6053 816.9957,37.2443 832.7057,-3.6877 C833.3767,-5.4377 835.4557,-5.5577 836.5267,-4.6477 C836.7007,-4.6317 836.8587,-4.4897 836.8467,-4.2977 L836.330901,3.688476 C835.233509,21.11326 834.744767,39.1730333 844.1767,54.8623 C882.1147,46.2063 905.7047,77.8573 921.5667,107.8123 L932.961977,109.499335 C976.55681,115.97961 1018.6007,123.65138 1040.1287,168.3413 L1043.07739,174.617821 C1073.15627,238.836532 1101.18874,304.870258 1117.5967,374.0223 C1125.8567,410.8123 1128.8467,448.7223 1140.9647,484.6033 C1166.1257,551.2303 1201.5817,613.8443 1220.8067,682.8223 C1232.7357,707.7103 1266.3067,895.0573 1233.1867,896.4823 C1221.2767,892.9123 1209.1467,890.0223 1196.8867,887.9713 C1198.7767,889.4123 1199.4667,891.8623 1199.1067,894.3623 C1194.8267,924.3923 1194.5067,954.8123 1194.5267,985.0943 C1196.7877,1058.4303 1194.7597,1216.2073 1084.3857,1190.8823 C1076.3287,1187.9143 1081.5607,1174.9853 1081.2367,1165.9523 C1080.6067,1165.9823 1079.9667,1165.9713 1079.3267,1165.9313 C1072.9907,1183.0413 1064.1057,1198.8323 1058.5367,1216.2213 C1053.8167,1231.1623 1050.5167,1247.2323 1043.9377,1261.5413 C974.2487,1509.5353 945.4807,1770.3723 972.7267,2027.0513 C974.2567,2042.4213 975.9767,2057.7723 977.8987,2073.0923 C977.6567,2082.6713 989.0007,2122.7783 978.8167,2125.4713 C978.4207,2126.2463 977.0467,2127.1353 976.2267,2127.4123 C970.0427,2134.0903 959.7617,2131.6143 951.5967,2132.5013 C922.7477,2133.7853 893.9007,2134.9733 865.0367,2135.9313 C866.7657,2148.1863 865.3697,2160.6253 864.3467,2172.8623 C885.3957,2173.0353 904.7397,2185.8573 923.3567,2194.5623 C951.0067,2208.2113 978.2057,2222.8013 1004.8887,2238.2713 C1029.5237,2255.5233 1084.5627,2272.1833 1065.6267,2311.3013 C1079.7457,2317.0353 1060.1247,2341.0153 1049.3967,2341.2853 C979.5617,2340.9323 910.1717,2325.0813 841.9257,2311.1653 C803.1507,2300.9113 760.8387,2297.0153 724.9667,2279.3313 C714.7837,2274.7233 716.9167,2256.3503 728.1167,2254.6423 C719.7997,2193.3803 753.5627,2194.2253 763.0567,2143.2023 C757.5317,2144.1073 751.4267,2143.5963 745.8867,2142.4713 C733.0567,2154.3473 737.7697,2060.8793 736.0267,2051.7513 C735.6797,1955.9103 740.2197,1859.8663 730.0167,1764.3523 L712.677354,1815.44012 C672.254091,1934.67486 632.435575,2054.21605 600.7457,2176.1123 C598.8467,2183.4713 591.1267,2184.3523 586.1967,2181.1423 C565.3867,2180.5323 544.6567,2178.5723 524.1267,2175.2513 C523.7267,2185.0013 523.3167,2194.7513 522.9067,2204.5013 C531.7617,2209.2753 525.7657,2239.3643 526.8967,2249.5413 C536.4827,2271.6363 497.6307,2314.1703 484.8577,2332.4023 C462.0778,2364.24367 439.468437,2408.79694 395.418143,2410.28155 L394.0767,2410.3133 C361.1997,2411.1153 328.0247,2409.1913 295.4667,2404.4923 L291.952512,2403.91907 C282.551659,2402.36161 272.027123,2400.15426 266.5967,2391.7513 C262.0167,2384.6713 262.5767,2375.5323 268.1367,2370.1223 C260.7947,2343.4573 289.3737,2327.3093 305.3367,2311.0723 C335.1567,2282.2793 362.2597,2250.6113 385.6967,2216.4123 L387.042902,2213.21955 C391.38738,2202.9621 396.578129,2191.57425 404.6667,2186.6623 C412.3777,2174.4043 418.9667,2161.5043 425.9367,2148.8313 C406.9167,2141.8413 388.1867,2134.0323 369.6667,2125.8123 C365.980478,2124.16866 364.808665,2119.37196 365.45203,2115.80364 L365.4987,2115.5623 C401.6557,1927.6223 445.0047,1741.0243 478.7217,1552.6533 C500.2557,1379.0513 509.0837,1203.2383 554.3567,1033.4523 C532.3937,1031.1673 510.5327,1024.8503 488.9787,1019.4513 C471.6977,1015.7693 462.9587,1006.9833 466.3667,988.6623 C467.5387,972.3793 470.7967,956.3593 472.5567,940.1423 C467.9557,936.9213 463.4667,933.5323 459.0967,930.0513 C450.9957,936.1023 442.6367,941.8013 434.0467,947.1203 C413.4797,961.9473 397.6037,964.2563 384.8967,939.9523 C348.0977,881.7593 312.6087,822.7163 279.1157,762.5523 C248.0497,704.8363 209.5477,647.2413 201.6617,580.7893 C190.2057,461.2003 330.3837,269.8223 400.6057,172.6303 C439.3307,125.8163 486.4947,77.6353 547.8277,64.0223 C566.6927,61.2233 586.5817,60.8423 604.5667,53.9923 C606.0277,45.2403 610.1337,37.1823 619.4067,35.0403 C629.1627,32.8803 639.6207,29.5443 649.4467,29.3013 C651.6687,28.6743 654.2897,28.2783 656.6367,28.7113 C663.3617,11.2283 664.3507,-8.4707 672.0687,-25.5587 Z M296.3367,2383.9423 C298.0167,2384.7723 299.7567,2385.4923 301.5367,2386.1313 C303.7267,2386.4313 305.9067,2386.7113 308.0867,2386.9613 C304.1367,2386.0723 300.2167,2385.0723 296.3367,2383.9423 Z M514.5767,2213.9823 C482.3627,2225.6903 473.5067,2170.7313 410.1467,2192.9713 C385.3847,2238.9953 353.3277,2280.7973 316.6857,2317.9613 C303.6617,2334.1683 265.1127,2352.5733 285.8867,2376.3413 L289.068473,2376.92426 C325.144653,2383.49341 361.763957,2388.7129 398.5267,2385.7413 C426.3067,2378.0703 447.1397,2355.7793 463.9777,2333.3023 C476.1587,2311.6863 490.4087,2291.3423 504.9557,2271.2823 C512.9537,2261.3083 513.7647,2248.6133 513.7267,2236.3413 C513.9957,2228.8813 514.2767,2221.4313 514.5767,2213.9823 Z M876.4667,2187.0013 C862.7887,2181.9803 848.7587,2186.7043 836.3167,2192.8643 C815.0637,2202.3843 769.0307,2213.7923 749.3667,2198.6123 C739.7247,2214.5783 736.4917,2232.3253 739.1377,2250.7413 L739.166266,2251.88147 C739.389559,2259.31771 740.429712,2265.30595 749.4557,2265.8323 L775.085047,2272.28715 C861.546875,2294.01761 948.85961,2315.02808 1037.8567,2321.0723 C1061.6107,2306.2233 1062.2767,2286.7043 1037.0277,2273.1103 L1030.56857,2269.14767 C980.999464,2238.78556 930.272325,2208.94522 876.4667,2187.0013 Z M1064.5667,2313.2823 C1064.3267,2313.6923 1064.0967,2314.1023 1063.8567,2314.5013 C1064.2267,2314.6813 1064.5667,2314.9423 1064.8867,2315.2213 C1064.8867,2314.5513 1064.7867,2313.8923 1064.5667,2313.2823 Z M430.7367,2150.5723 C431.0667,2157.3223 427.7567,2164.9423 425.4267,2171.0013 C424.0567,2174.5813 422.6467,2179.6923 420.4667,2183.7913 C474.64247,2167.79092 491.120654,2214.67474 510.652839,2204.9252 L511.2457,2204.6123 L511.2457,2204.6023 C507.2597,2195.4833 511.6067,2182.6453 514.2867,2173.5513 C485.8407,2168.4003 457.9107,2160.3863 430.7367,2150.5723 Z M858.7867,2136.1423 L843.169379,2136.62411 C818.875281,2137.36228 794.578112,2138.00589 770.2667,2137.9713 C772.8107,2155.4643 767.8337,2184.3193 756.5267,2197.9123 C756.5067,2197.9213 756.4867,2197.9213 756.4767,2197.9313 C788.4777,2202.7823 818.7847,2188.1053 847.2867,2175.7613 C848.4887,2162.3563 853.7447,2148.6763 858.7867,2136.1423 Z M754.2867,2189.4313 L751.3667,2194.8923 L751.3667,2194.8923 C751.7867,2195.3623 752.2667,2195.7913 752.7767,2196.1623 C752.4807,2193.8913 753.2877,2191.6443 754.2867,2189.4313 Z M427.2457,2149.3223 C426.7057,2151.6713 426.0767,2154.0223 425.4067,2156.3723 C426.4267,2154.0623 427.5867,2151.8523 428.9957,2149.9523 L427.2457,2149.3223 L427.2457,2149.3223 Z M768.5867,2137.9823 L766.8767,2138.0013 L766.8767,2138.0013 L766.8667,2138.9823 L766.8667,2138.9823 C767.2667,2139.6523 767.3367,2140.4713 766.8367,2141.1313 C766.7767,2144.1523 766.6467,2147.1813 766.4167,2150.2113 L766.986846,2146.71441 C767.469353,2143.80077 767.979557,2140.88873 768.5867,2137.9823 Z M746.8567,2136.9823 L746.9467,2138.5013 L746.9467,2138.5013 C749.1367,2138.4213 751.3467,2138.5113 753.5267,2138.4023 C754.6767,2138.3413 755.8567,2138.1423 757.0467,2137.9313 C753.6167,2137.8223 750.1967,2137.5513 746.8567,2136.9823 Z M1136.0467,883.6713 C1134.9667,884.9423 1133.7867,885.7113 1132.5867,886.1023 C1132.5967,914.9713 1126.7767,943.3623 1110.8277,968.3623 C1104.1937,977.1723 1100.4447,987.2003 1097.2377,997.6523 C1080.3707,1045.4873 1077.2387,1096.8703 1083.3867,1146.9613 C1099.9607,1122.6173 1106.5467,1093.5673 1111.1767,1064.9213 C1111.4267,1063.4823 1113.8067,1063.5013 1114.0667,1064.9213 C1119.6677,1095.5813 1110.0397,1125.6953 1098.5267,1154.0323 C1091.3367,1159.1803 1093.0497,1172.6603 1092.1867,1180.5913 C1214.3767,1198.4213 1171.8857,963.5173 1187.5367,891.1713 C1187.8267,889.1813 1189.5167,887.7323 1191.4367,887.1223 C1173.1097,884.3213 1154.5377,884.1163 1136.0467,883.6713 Z M560.6267,1027.9823 C560.7767,1028.7513 560.9067,1029.5223 561.0067,1030.2913 L561.6667,1028.0223 L561.6667,1028.0223 C561.3267,1028.0113 560.9767,1028.0013 560.6267,1027.9823 Z M643.2057,34.3723 L641.066846,34.9333371 C618.489967,40.7639167 611.18319,39.96356 609.9057,67.2613 C604.3557,104.3073 583.8677,136.6213 574.6577,172.4423 C570.9737,185.0923 574.8707,208.4063 592.3367,204.9823 C597.9957,203.2423 602.4067,210.8813 598.1267,214.9323 C585.4767,226.9123 573.1967,239.2613 560.8467,251.5323 C610.4387,419.1323 674.8607,582.3793 753.3367,738.5623 C756.4467,744.7613 747.1167,750.2113 744.0277,744.0113 C666.01174,587.32895 601.12716,424.136776 550.767309,256.492782 L549.2457,251.4113 C547.0217,245.2383 575.4597,223.1213 580.6367,215.9023 C528.7097,190.8493 601.2067,103.1123 603.1767,60.8623 C588.3147,67.4043 571.4667,65.0573 555.7667,67.6913 C525.6477,72.9813 499.2107,90.4023 475.7127,109.2083 C380.2637,193.5993 319.2677,310.4363 258.2517,420.5623 C216.6987,492.4143 196.6667,580.2523 238.3657,656.6833 C286.7497,754.6793 342.8757,849.1363 402.2167,940.8323 C408.7327,949.3193 418.7607,939.5623 425.6267,936.0013 C465.0937,912.2543 499.3167,879.9473 525.6367,842.1713 C461.8287,763.7783 406.2467,678.1053 366.9387,584.7613 L366.39659,583.679323 C357.577052,565.929842 350.60394,544.45618 365.3157,527.7413 C417.5587,460.7403 464.0217,389.6123 507.7457,316.8223 C508.1967,316.0913 509.2057,316.7323 508.8767,317.4923 C504.3867,327.6713 499.6567,337.7723 494.7267,347.7823 C504.6847,495.7813 503.0027,646.6733 507.3067,795.6123 C518.9167,811.0013 530.8667,826.1313 543.0967,841.0223 C582.7697,813.6473 629.4387,795.7933 677.3677,790.2613 L680.46563,789.95027 C700.824852,787.852957 734.4492,783.90015 737.1187,810.3643 C733.8187,842.9203 666.6207,824.6173 645.1367,843.0813 C680.3547,857.2933 720.7117,861.2983 753.0457,882.7223 C763.4177,888.7813 783.7497,908.0853 763.8867,915.4723 C755.2197,916.2143 746.2677,912.8443 737.6067,912.1023 C747.3547,915.3903 756.3187,920.9603 762.0267,929.6923 C766.1367,935.6813 769.1367,948.1123 759.3167,950.6733 C736.9307,951.3063 714.6357,943.9973 692.5867,940.3623 L694.545551,941.158651 C710.619815,947.747849 735.60562,959.58342 713.9557,977.0343 C692.2837,988.2673 666.0437,969.1583 644.4567,964.0583 C586.3097,950.5113 543.2947,987.6373 483.6867,947.4423 C481.9957,960.8753 479.4547,974.2143 478.4387,987.7213 L478.307462,988.486077 C476.241133,1000.81583 478.01066,1005.26638 491.2877,1007.6223 C507.2957,1012.4633 524.0617,1013.9813 540.6967,1014.8813 C620.7507,1019.1183 701.3367,1016.1113 780.8477,1005.8443 C792.2877,1002.7693 819.1637,1005.6673 823.9467,993.0623 C814.9847,668.5953 679.9577,363.2843 642.7767,43.0323 C642.1667,39.9523 642.1267,36.8123 643.2057,34.3723 Z M868.8967,62.1023 C862.5117,62.3643 856.5677,63.7503 850.2167,64.3923 C853.7337,71.8843 872.2977,82.4823 870.6067,86.2023 C871.9467,87.2423 873.3067,88.2423 874.6867,89.2113 C872.7667,82.4523 870.8267,75.7023 868.8827,68.9403 C939.4247,241.0673 949.1157,444.7203 958.4877,632.4923 C961.5757,727.1703 963.2547,822.1423 958.6867,916.7613 C956.1467,941.8923 949.4267,967.2913 951.2567,992.6713 C992.6567,998.6423 1034.6567,999.1523 1076.2267,994.7323 C1077.4557,991.5013 1078.8467,988.3223 1080.4227,985.2003 C1142.6507,909.1993 1109.6507,813.9553 1079.6867,731.6313 C1061.5687,732.3993 1043.3427,731.2483 1025.2057,731.4723 C1030.8107,748.8453 1032.2547,767.2273 1035.2377,785.1923 C1037.26832,797.993862 1039.85881,810.69523 1042.83613,823.302169 L1043.73898,827.086911 C1044.84606,831.615907 1046.19841,836.470529 1044.6167,840.9423 C1043.0167,845.4923 1037.4957,847.3313 1033.8357,843.7913 C1027.2377,836.2563 1027.9457,825.0263 1025.8167,815.6823 L1025.42332,812.741828 C1021.79145,785.913136 1017.00856,758.080429 1023.6467,731.4613 C1017.1317,730.0593 999.3187,735.2063 998.3847,726.4313 C998.6597,711.9383 988.1647,680.5383 999.8467,670.9923 C1006.7967,665.6823 1018.7457,667.3623 1026.8967,667.0323 C1036.3167,666.6523 1045.7267,666.3013 1055.1367,666.3623 C979.51357,483.27863 1000.54398,426.92091 1008.21835,244.712548 L1008.4467,239.1523 C1008.4267,237.9523 1010.3567,237.6523 1010.5677,238.8623 C1022.1297,313.4973 1006.7167,389.0613 1014.0187,463.9313 C1026.9867,606.1853 1116.9647,728.3213 1132.0067,869.8923 C1164.4487,866.1213 1197.2717,870.7463 1228.7167,878.9023 C1229.3767,873.1523 1229.8867,867.3813 1230.2457,861.6123 C1236.2157,755.9413 1199.2047,653.3153 1156.0207,558.5403 C1130.1407,508.2343 1114.1427,454.5423 1107.4477,398.4023 C1094.4467,325.2813 1065.2737,256.4013 1036.1947,188.4753 C1017.8117,137.6863 978.0737,125.7103 928.7967,119.8123 C945.4167,147.4123 961.9367,175.0723 978.4277,202.7523 C982.1057,211.1233 970.8277,217.0983 965.9067,222.2513 C1026.4427,255.3243 991.0957,357.4553 992.3477,414.6823 C987.8537,467.2673 986.1587,520.1523 978.2367,572.3723 C977.6567,575.9923 972.1167,574.9323 972.0657,571.5413 C972.7957,493.2973 982.1097,415.3683 986.1967,337.2503 L986.69343,331.555281 C989.879687,294.57018 992.99925,241.214 948.6067,231.0623 C942.6167,230.0813 942.1567,221.1623 946.9667,218.4823 C953.3667,214.9123 958.9767,210.5513 963.9957,205.3623 C947.0367,176.8523 930.1067,148.3223 913.3277,119.6913 L912.540442,118.360575 C900.620695,98.1027165 889.549786,74.5291817 868.8967,62.1023 Z M724.8467,808.3803 C719.9497,793.9303 672.4227,803.3413 659.7367,804.9123 C612.9557,813.7613 565.8767,834.5013 530.2457,866.4423 C528.0467,868.4123 525.4467,868.3813 523.3967,867.3123 C507.4377,887.7363 489.0087,906.2463 468.7967,922.5113 C472.4957,925.4313 476.2967,928.2613 480.2057,930.9713 C482.0767,931.1713 483.7667,932.1423 484.5267,933.8813 C540.1377,974.2493 581.0477,942.7613 638.8167,950.0333 C660.3857,954.3903 680.2487,968.1343 702.4767,968.7123 C718.7877,964.9963 704.4247,958.1653 696.8067,955.5223 C679.555911,947.2723 661.969802,939.750901 644.346561,932.334671 L630.2457,926.4123 C623.3167,923.5013 625.6967,913.0113 633.4367,914.8413 C646.9867,918.0413 660.5767,921.0813 674.1767,924.0733 C700.3297,929.4173 727.1087,936.2733 753.5367,938.8723 C747.6617,922.5133 685.3287,904.8453 667.2057,898.3433 C660.3607,895.1043 640.8387,895.7203 643.0677,885.0913 C644.8677,875.1993 665.6397,886.5263 672.5667,887.3313 C700.8387,894.5173 729.6977,898.8713 758.5067,903.2513 C727.5627,872.1503 679.5967,869.4663 640.0767,854.9013 L638.991178,854.654001 C631.96289,853.014597 622.33635,849.9242 628.0487,841.9233 C648.3507,811.9353 728.2457,827.1073 724.8467,808.3803 Z M666.377,641.3922 C680.79,629.5442 688.511,653.8782 687.597,665.1922 C688.276,674.5822 689.007,683.9722 689.618,693.3622 C688.72,700.7032 696.531,727.4732 686.087,727.7122 C640.423,725.3892 594.836,725.9762 549.156,723.2222 C549.097,732.4522 548.647,741.6712 549.117,750.9122 C548.869,762.4662 552.876,774.0082 550.536,785.4322 C549.107,790.6822 541.977,791.3922 539.194,786.9122 C530.85,767.2472 536.587,741.8812 542.496,721.9922 C520.129,717.8502 517.043,696.7872 522.937,677.9922 L522.875782,676.973866 C522.547182,671.176283 522.572944,664.957589 525.156,660.2722 C532.065,652.1242 546.391,657.4172 555.907,656.8032 C585.075,653.7902 614.78,652.9572 643.607,647.5912 C651.069,645.6572 658.68,641.7572 666.377,641.3922 Z M485.0567,366.8223 C462.3487,410.2483 436.2217,451.5683 408.4067,491.8013 C402.4467,500.3923 396.3267,508.8723 390.1087,517.2913 L389.342017,518.276399 C376.800538,534.306444 363.5048,547.47488 375.3677,568.6713 C406.1317,643.5263 447.3227,713.8223 495.0467,779.0623 C492.0247,641.6453 489.3547,504.1933 485.0567,366.8223 Z M1055.9767,668.5623 C998.9217,680.5393 997.8537,658.1093 1007.3767,721.5913 C1030.2597,721.7483 1053.1287,721.2323 1076.0167,721.6023 C1069.4767,703.8723 1062.6967,686.2223 1055.9767,668.5623 Z M672.996,650.6312 C643.198,661.0052 611.559,659.5252 580.437,660.8012 C580.5,667.5042 548.659,661.2832 542.547,662.2032 L540.422133,662.019505 C535.334638,661.596731 528.792667,661.434354 528.736,667.7322 C530.357,678.5912 524.257,690.4822 528.036,701.1522 C533.137,715.5222 554.956,714.0422 566.996,714.3222 C586.847,714.7722 606.696,715.2512 626.547,715.7722 C644.377,716.2422 662.267,717.1312 680.107,717.2612 C678.507,704.5422 678.067,691.5012 677.098,678.7922 C675.876,669.6532 677.638,658.8212 672.996,650.6312 Z M798.2967,696.8413 C798.3267,697.0013 798.3567,697.1623 798.3967,697.3313 C798.629367,697.271967 798.867367,697.216633 799.109811,697.1653 L799.4767,697.0913 L799.4767,697.0813 C799.0867,697.0113 798.6867,696.9323 798.2967,696.8413 Z M884.7167,125.6423 C871.8297,147.7713 850.4687,161.9843 824.7367,162.1923 C779.5747,164.7973 733.8177,161.8043 689.8067,151.0913 C683.3367,149.4723 675.6067,148.0623 669.6567,144.5223 C703.6347,328.9453 758.5627,508.6013 797.2967,691.9613 C825.3487,694.4373 853.3137,694.1773 881.4267,692.8523 C903.1237,692.5233 925.0387,694.8583 946.5867,691.6313 L945.91529,668.86579 C940.477494,486.644233 932.9087,302.22278 884.7167,125.6423 Z" id="ðŸ–-Ink" fill="#000000"></path>
    </g>
</svg>