<?xml version="1.0" encoding="UTF-8"?>
<svg width="1645px" height="2500px" viewBox="0 0 1645 2500" version="1.1" xmlns="http://www.w3.org/2000/svg" xmlns:xlink="http://www.w3.org/1999/xlink">
    <!-- Generator: Sketch 62 (91390) - https://sketch.com -->
    <title>pose/standing/blazer-2</title>
    <desc>Created with Sketch.</desc>
    <g id="pose/standing/blazer-2" stroke="none" stroke-width="1" fill="none" fill-rule="evenodd">
        <path d="M381.0576,600.9554 C414.0256,674.2714 454.7836,739.0934 503.0506,803.8304 C499.6666,650.8644 496.7516,497.0764 491.7626,342.7054 C461.1966,402.3564 428.6286,456.3374 385.1506,515.5554 C351.0656,551.9934 366.9586,567.1174 381.0576,600.9554 Z M272.9776,2390.5694 C269.1576,2385.1614 271.4186,2378.2864 276.7026,2374.7794 C265.4516,2350.5134 299.3546,2331.7814 316.0416,2313.5154 C353.9706,2272.3554 413.7226,2213.3554 419.0416,2161.3834 C437.1296,2043.4744 447.4676,1925.1494 476.4326,1808.6204 C493.6416,1734.6074 541.4196,1675.2194 562.7676,1602.5144 C599.8926,1410.3704 551.933328,1217.68212 560.225328,1023.62212 C455.595328,1013.35512 469.1456,1026.4084 480.3526,939.3534 C473.3496,934.4914 466.5276,929.3404 460.1516,924.1524 C443.4476,933.0674 423.7286,954.9244 405.3346,953.7684 C399.5126,952.4064 395.3156,945.1054 391.3216,938.8354 C361.7836,892.2434 334.3256,846.6984 307.4436,799.7444 C158.7866,565.2734 192.4106,512.1794 331.0746,287.4164 C389.4716,200.6114 461.2006,74.2954 572.4496,65.5304 C585.8796,65.5414 600.0396,64.8254 611.6086,56.3764 C611.6906,42.9214 618.5636,38.5804 635.9996,36.1214 C645.8176,35.1124 653.5216,29.3854 663.1056,31.7224 C669.9436,8.8854 668.5726,-9.4796 675.9926,-32.0756 C701.4096,-70.6386 783.8656,-51.3986 814.0596,-39.3046 C851.5806,-26.2536 815.8886,32.1574 840.3776,58.8314 C845.7156,61.8134 851.2726,63.2424 858.3876,63.2394 C888.7246,56.4834 903.5086,92.9214 917.8496,116.9564 C958.8996,122.0194 989.6636,128.1154 1008.5476,142.9174 C1025.8676,155.9964 1038.5996,177.0334 1055.5266,220.5384 C1090.9736,298.1264 1114.2156,375.1844 1124.4826,449.5184 C1133.4166,499.8904 1158.2396,543.4834 1178.1646,589.2354 C1227.0816,708.3604 1248.1986,787.2614 1236.4886,892.1114 C1224.0696,889.8854 1211.5486,885.3694 1198.4756,883.6834 L1193.1916,896.1904 C1192.8566,895.9384 1192.7186,895.6594 1192.6956,895.5804 C1177.3556,1000.5264 1219.4366,1214.2244 1082.1476,1186.1054 C1070.0346,1301.5974 1031.3996,1404.2654 984.9116,1500.8384 C966.1106,1537.1704 947.2046,1575.5684 947.5186,1618.2314 L954.5956,1618.3894 C955.7986,1618.4164 956.1846,1618.6614 956.1886,1618.6634 C957.5356,1618.9924 955.9716,1629.5044 954.4616,1635.4504 C932.2526,1713.9374 913.0466,1792.4164 895.8026,1871.8514 C892.1626,1882.5554 890.5906,1911.3704 882.1666,1916.2574 C882.5336,1920.1914 870.9158,1927.9024 870.0178,1927.6524 C872.0418,1942.8094 864.7086,1949.5924 864.9556,1964.9804 C864.9156,1964.6154 875.2586,1965.1534 874.8076,1964.8414 C880.9826,1964.8424 887.9796,1977.9564 888.0646,1986.8424 C888.6276,1997.5484 879.5826,2007.6124 876.4206,2018.1164 C871.5186,2041.1654 872.2836,2064.5304 870.1026,2087.7254 C890.6876,2092.3964 886.0676,2114.2864 868.0166,2115.3644 C868.0166,2115.3634 864.7288,2145.9474 865.3778,2161.1924 C877.7618,2162.6784 883.2636,2173.7184 887.3536,2182.2834 C902.5856,2182.4534 916.8416,2189.3874 930.9856,2196.6104 C963.9556,2212.7724 996.3346,2229.7004 1025.7026,2246.8474 C1051.6136,2264.0794 1108.0916,2283.0274 1078.7676,2319.2714 C1079.2126,2320.2064 1072.4756,2337.0254 1063.3866,2335.4934 C1018.5476,2339.8504 848.0366,2302.8094 808.5896,2294.5944 C795.2016,2291.4104 736.6146,2283.7774 760.9446,2263.9954 C751.8776,2238.6644 751.4778,2190.6004 778.8278,2184.7324 C781.4838,2160.9314 801.5118,2152.5764 821.4878,2161.3834 C821.3618,2144.2634 822.4288,2129.44286 822.6078,2112.31386 C812.9928,2111.04686 802.3466,2107.4774 799.5676,2100.1834 C796.9326,2096.1564 797.9546,2082.4484 807.8546,2082.3474 C808.1446,2082.3274 815.2976,2082.6704 815.5856,2082.6644 C814.4396,2054.9534 816.8556,2031.4354 812.7076,2003.6754 C810.4836,1994.4594 803.2066,1992.9574 798.4436,1988.2154 C793.9726,1974.4264 807.7216,1963.2894 819.4846,1960.9694 C822.4796,1946.9514 816.1556,1932.1034 819.4846,1918.3474 C811.8146,1918.0924 805.8266,1917.6994 800.8446,1913.0404 C798.6816,1910.9204 795.1406,1911.5634 792.3886,1911.3754 C789.7216,1882.4334 771.6726,1857.7154 767.6686,1829.8754 C762.0286,1796.9194 772.6586,1762.5314 776.4666,1728.9444 C779.5506,1701.0114 774.6346,1672.4274 772.1786,1644.9924 C671.0986,1806.3584 534.6066,1961.8644 510.1696,2158.2934 C507.5676,2173.4134 505.9896,2190.3274 519.9296,2205.1364 L520.5276,2205.3064 C524.0716,2212.4244 526.2986,2225.9924 528.8406,2233.3334 C542.0046,2243.7354 529.9216,2263.7114 520.4126,2272.7144 C517.5286,2276.0014 515.0696,2279.8154 512.4356,2283.2614 C462.7636,2342.6044 457.1446,2409.6554 361.7936,2405.1304 C338.3526,2403.6634 283.5006,2404.4084 272.9776,2390.5694 Z" id="ðŸŽ¨-Background" fill="#FFFFFF"></path>
        <path d="M672.0694,-21.5616 C680.1154,-27.0616 668.6594,20.3604 668.6374,24.8894 L668.435207,25.8825289 C666.429267,35.5394 662.897067,46.7624 654.7674,52.9394 C658.5164,83.6414 663.1834,114.2544 668.9274,144.6294 C720.1584,151.3134 771.7294,160.9664 823.8364,156.0974 C851.02675,156.33302 869.095309,137.886954 880.212637,114.907131 L880.5474,114.2094 L878.2574,105.9894 C843.4104,84.5964 816.9944,41.2304 832.7074,0.3094 C833.7274,-2.3506 837.9774,-1.2806 837.0474,1.4994 C830.4544,19.9714 833.2224,40.7954 842.5874,57.7594 C848.4374,60.8794 854.6674,60.6594 860.9374,60.4694 C891.1814,56.0444 908.5524,90.3924 921.5684,111.8094 L932.963121,113.496789 C976.556406,119.977968 1018.60508,127.6458 1040.1294,172.3394 L1042.09691,176.52193 C1072.55194,241.390896 1101.01109,308.117453 1117.5974,378.0094 C1125.8584,414.7994 1128.8474,452.7094 1140.9654,488.6004 C1166.1244,555.2264 1201.5804,617.8344 1220.8074,686.8094 C1232.7334,711.1824 1266.2444,899.8424 1233.1874,900.4694 C1221.2784,896.9004 1209.1474,894.0204 1196.8874,891.9594 C1198.7784,893.4004 1199.4674,895.8494 1199.1084,898.3604 C1194.8284,928.3894 1194.5074,958.8094 1194.5284,989.0824 C1196.2804,1061.7884 1196.0404,1215.4204 1087.8284,1195.8794 C1078.9574,1284.7744 1048.6664,1370.7704 1014.9954,1453.0584 C994.9894,1506.1044 956.1884,1554.4924 954.2384,1612.7594 C967.6444,1612.9604 962.4444,1630.0194 960.7974,1638.2494 C956.2884,1658.3894 950.4234,1678.2184 944.4864,1697.9694 C923.5704,1768.8264 911.0784,1842.0604 893.1674,1913.7304 C892.1984,1917.1794 890.5684,1919.5294 888.4884,1921.1104 C888.1344,1928.5674 876.8764,1932.8474 870.5074,1930.3694 C871.402459,1939.38964 871.155704,1948.52237 871.279481,1957.57418 L871.3074,1959.2704 L873.2574,1959.2494 C881.7484,1957.0624 890.3304,1970.8194 892.7264,1977.8794 C900.7864,1997.6404 882.0974,2012.1274 880.7064,2030.9494 C879.4394,2048.8174 877.7554,2066.5294 876.9884,2084.4494 C900.2904,2093.5494 889.9834,2124.0384 867.1474,2123.7194 C868.2144,2134.8454 868.3594,2146.0344 868.8284,2157.1794 C878.7574,2159.7804 886.2034,2168.1554 891.0874,2176.9004 C911.1574,2178.2734 929.4774,2190.1444 947.3584,2198.5494 C975.0074,2212.2094 1002.2074,2226.7894 1028.8884,2242.2704 C1054.8684,2259.5734 1112.6794,2279.2194 1087.4084,2319.2394 C1093.7683,2324.72435 1089.32595,2335.47262 1083.52882,2339.95822 L1083.3284,2340.1104 C1077.5684,2344.6194 1069.9484,2344.6194 1062.8684,2343.8894 C980.6224,2345.9474 893.9614,2320.3884 812.1774,2303.6994 L806.001897,2302.59706 C788.099909,2299.38958 769.773124,2295.79988 753.8674,2287.0594 C747.1394,2281.5774 745.4924,2268.1984 752.3774,2262.7994 C745.3174,2237.2464 751.6854,2192.3764 779.6184,2182.4894 C782.9324,2163.5384 798.2524,2149.9464 817.7384,2155.7304 C817.8334,2143.5924 818.8204,2131.6014 819.0384,2119.4594 C809.3774,2117.6394 800.4674,2113.8894 795.8084,2104.7094 C790.6864,2095.5594 796.2354,2080.2254 807.8774,2080.7194 C808.2724,2061.8164 807.2034,2043.2304 807.0474,2024.3604 L807.031373,2023.22253 C806.969269,2017.11203 807.215635,2010.36822 804.6274,2004.7494 C801.9674,1998.9594 794.8874,1998.3894 791.7464,1992.9004 C784.8604,1978.1184 798.6434,1960.7594 812.8584,1956.7794 C814.6414,1946.8824 813.7174,1936.4024 815.5074,1926.4094 C807.9374,1925.9694 801.4884,1924.2094 796.0074,1919.9094 C792.2204,1919.3234 785.5194,1921.0124 785.0874,1915.5694 C783.5474,1893.3294 772.3374,1873.5294 765.2784,1852.7894 C750.6984,1812.4434 763.9304,1770.3134 768.9974,1729.5094 C771.3874,1708.6994 768.8684,1687.7994 766.7384,1666.9404 C670.5384,1817.7054 547.1374,1963.4854 518.6274,2145.3684 C517.0454,2165.8414 508.6924,2182.6854 523.3684,2200.3494 C528.2944,2201.7754 532.4994,2224.9194 534.3974,2230.7494 C549.4294,2244.6694 536.3304,2269.5134 523.2474,2280.2794 C516.9854,2291.1024 508.6104,2300.5774 500.7694,2310.2714 L498.24408,2314.50848 C481.635924,2342.29301 463.917368,2370.15838 441.3984,2393.4434 C403.5524,2421.5334 340.0444,2413.53976 295.4674,2408.4804 L291.50502,2407.83554 C282.220309,2406.28731 271.941752,2404.01898 266.5984,2395.7494 C261.9574,2388.5794 262.5784,2379.2794 268.3484,2373.9004 C262.6224,2357.3894 275.6694,2341.1774 287.9374,2331.0394 C335.4974,2288.8544 376.4924,2239.2344 408.4174,2184.2394 C420.6544,2095.3134 433.2214,2006.3934 446.8284,1917.6704 C457.8094,1844.2464 474.5384,1770.7454 509.8584,1704.8694 L518.518608,1688.39737 C533.16088,1660.49571 547.196072,1632.65777 555.5384,1601.9004 C574.9874,1529.4334 570.3294,1453.5464 567.6364,1379.3604 C564.1704,1263.5454 555.9224,1147.7094 556.9974,1031.8094 C535.2124,1029.5204 476.1484,1030.9304 466.8464,1008.5294 C463.8004,987.1804 470.9424,965.4594 472.5574,944.1394 C467.9574,940.9094 463.4674,937.5294 459.0974,934.0394 C450.9974,940.0894 442.6374,945.7994 434.0474,951.1084 C413.5014,965.9084 397.6134,968.2764 384.8974,943.9494 C348.1064,885.7514 312.6104,826.7144 279.1164,766.5504 C248.0514,708.8414 209.5474,651.2264 201.6624,584.7864 C190.2004,465.1944 330.4084,273.7874 400.6074,176.6174 C443.74665,124.39094 499.550752,68.7694136 570.832603,64.677566 L572.9974,64.5694 C582.5574,64.0894 596.4484,65.1394 604.4174,58.6694 C605.9234,37.0794 628.0604,37.1884 644.5174,33.6184 C647.9274,31.0174 653.0984,30.4014 657.4574,30.6094 C663.3644,13.6334 664.7054,-5.1356 672.0694,-21.5616 Z M468.8284,2199.6394 C450.7744,2190.2394 429.2304,2189.4784 410.2384,2196.9294 C386.6864,2240.6074 356.5204,2280.4754 322.2664,2316.2884 C309.7514,2333.7644 262.7744,2356.8034 286.2074,2380.3894 L289.379935,2380.97112 C325.351629,2387.52487 361.873457,2392.68351 398.5274,2389.7294 C422.4764,2383.0954 441.8074,2365.3344 457.0384,2346.1514 C475.9454,2321.6134 491.5704,2294.6164 508.8674,2268.9204 C524.3984,2242.5814 532.5864,2242.2264 520.4084,2210.9404 C520.3874,2211.5494 520.2384,2212.1694 519.9274,2212.7994 C515.6274,2221.4804 502.4274,2220.6794 494.9774,2217.4094 C485.2674,2213.1394 478.2074,2204.5894 468.8284,2199.6394 Z M298.2384,2388.4894 L298.783775,2388.7394 L298.783775,2388.7394 L299.3374,2388.9894 L300.1474,2388.9994 L298.2384,2388.4894 L298.2384,2388.4894 Z M982.8484,2231.2364 C956.0614,2219.2484 906.9884,2184.3104 879.6274,2189.6194 C859.4224,2195.8044 840.7944,2206.8694 819.2574,2208.4714 L818.331399,2208.50578 C802.958174,2209.16257 775.63452,2214.2951 769.8584,2196.1994 C762.2104,2210.8234 759.6944,2228.9324 759.8084,2245.4794 C759.4904,2259.5814 765.9424,2270.7354 780.9174,2271.8794 L794.78419,2275.37108 C882.64926,2297.44482 971.33195,2318.5172 1061.8774,2325.0494 C1085.6454,2310.1944 1086.2304,2290.6664 1061.0284,2277.0994 C1035.5784,2260.8194 1009.3874,2245.6504 982.8484,2231.2364 Z M465.3584,1890.5694 C449.6224,1989.1114 439.0574,2088.2124 423.8184,2186.7994 C477.0054,2173.4954 492.6254,2221.2244 512.4274,2207.9094 C498.5764,2189.6644 500.2364,2175.9224 504.3374,2154.6904 C512.4664,2083.1814 539.0754,2015.1544 572.0684,1951.6594 C575.8284,1944.4094 579.6874,1937.1994 583.5974,1930.0094 C541.1744,1933.8834 495.5094,1921.7754 465.3584,1890.5694 Z M793.0174,2171.5694 C789.3744,2177.2284 787.9294,2184.0474 786.7674,2190.5894 C786.1674,2193.9694 786.4974,2198.9494 785.2974,2202.7394 C808.1204,2203.4304 831.0714,2198.1064 851.6374,2188.3094 L850.633938,2188.2418 C833.872836,2187.21008 799.23648,2189.5671 793.0174,2171.5694 Z M778.8284,2186.1504 C776.6084,2187.7304 774.6874,2189.5594 773.0284,2191.5894 C772.4674,2194.7394 774.0974,2198.1694 776.7384,2200.1294 C777.2654,2195.5154 777.9094,2190.7344 778.8284,2186.1504 Z M823.4084,2120.1694 C823.4784,2134.4364 824.3454,2148.4914 824.1874,2162.7394 C824.1644,2167.6804 825.6304,2173.9204 822.6084,2178.1194 L827.409518,2178.62773 C839.447487,2179.88231 851.7274,2180.91793 863.7574,2179.5494 C864.1464,2161.0004 864.1574,2142.3584 865.3774,2123.8294 C850.5404,2123.7324 838.0114,2121.2354 823.4084,2120.1694 Z M869.3774,2176.9694 C869.3584,2177.5394 869.3474,2178.1394 869.3684,2178.6994 C871.0974,2178.3794 872.8184,2177.9894 874.5174,2177.5394 C873.1194,2177.3964 871.6964,2177.6344 870.3184,2177.1594 C870.0004,2177.1134 869.6784,2177.0714 869.3774,2176.9694 Z M817.5574,2174.7494 C816.0374,2176.4734 813.0734,2176.7834 811.1984,2175.6394 C810.8184,2175.7094 810.4374,2175.7594 810.0384,2175.7794 C809.9274,2175.7894 809.8074,2175.7794 809.6984,2175.7794 L811.000569,2176.10635 C813.71728,2176.77678 815.820333,2177.21087 818.6084,2177.6104 C818.1184,2176.7194 817.7884,2175.7594 817.5574,2174.7494 Z M879.9974,2174.6794 C879.6474,2175.3294 879.1674,2175.8694 878.5784,2176.3194 L879.921881,2175.86829 C880.145178,2175.79162 880.3674,2175.71273 880.5874,2175.6294 C880.4084,2175.2994 880.2074,2174.9894 879.9974,2174.6794 Z M801.3284,2170.7594 C801.5804,2171.3484 802.1434,2172.2514 802.7884,2172.7304 C802.2174,2172.1394 801.7174,2171.4804 801.3284,2170.7594 Z M868.9974,2161.5794 C869.0074,2161.9194 869.0174,2162.2594 869.0384,2162.6104 C869.2214,2162.4144 869.4394,2162.2384 869.6984,2162.1194 C869.4574,2161.9404 869.2174,2161.7594 868.9974,2161.5794 Z M807.8074,2083.8494 C796.6204,2087.4804 800.5394,2101.5344 809.0074,2106.1394 C818.2174,2112.2194 832.1274,2111.2704 842.6984,2112.1804 C853.5204,2112.4104 866.0464,2116.8124 875.7874,2110.4894 C880.8684,2107.0624 880.9134,2099.2784 875.5384,2096.2794 C875.4374,2096.5204 875.3284,2096.7494 875.2174,2096.9804 C875.2884,2097.5294 875.2384,2098.1504 874.9974,2098.8794 C868.8604,2109.9284 830.3474,2103.5444 820.5794,2098.0684 L819.824456,2097.74072 C813.210159,2094.92655 807.006802,2093.62228 807.8074,2083.8494 Z M821.4884,1921.2994 C823.9104,1932.1654 823.1174,1943.4764 824.6474,1954.3794 C825.6084,1957.5394 824.3774,1959.6394 822.4084,1960.7194 C835.1184,1964.5204 847.9274,1966.4094 861.1674,1963.4494 C859.7324,1950.7094 863.3534,1936.5094 865.1874,1923.6994 L821.4884,1921.2994 L821.4884,1921.2994 Z M870.0174,1923.9694 C870.2314,1925.5964 870.2034,1927.3714 870.3874,1929.0594 C870.414067,1929.0194 870.440733,1928.98384 870.473622,1928.95007 L870.5284,1928.9004 C872.1274,1927.5094 873.5784,1925.7304 875.1084,1924.1904 C873.4294,1924.1554 871.7094,1924.0614 870.0174,1923.9694 Z M803.7474,1594.2194 C795.6474,1613.5394 786.5074,1632.3294 776.2574,1650.6294 L776.675181,1654.95139 C779.385082,1683.28602 781.425739,1711.64937 776.8304,1739.9294 L776.399167,1742.35336 C769.316232,1781.97867 760.488,1823.23808 777.6674,1861.5894 L778.448842,1863.60046 C784.586971,1879.34755 791.048012,1894.96899 792.7074,1911.8794 C820.6274,1913.8794 848.6374,1916.6694 876.5974,1917.6494 C883.8274,1918.8794 887.3434,1914.7444 887.9874,1907.9494 C909.7984,1816.4644 928.9314,1724.3504 952.5684,1633.3194 L952.814141,1632.85442 C955.376113,1627.94726 957.297292,1622.30588 952.5374,1620.5884 C943.5564,1619.0204 934.7484,1628.6334 926.2184,1631.0884 C880.4384,1649.1564 845.7634,1601.1634 803.7474,1594.2194 Z M802.6678,1631.4801 C830.4688,1672.6581 815.3428,1735.2051 812.1488,1784.1101 C809.7868,1802.1191 812.5618,1820.5641 810.6778,1838.4801 C810.4178,1839.8791 808.2078,1840.1391 807.5968,1838.8791 C801.0438,1822.3791 803.7338,1803.4021 804.3078,1786.0401 C808.3978,1734.6921 819.9788,1681.6781 802.6678,1631.4801 Z M883.9424,1067.5484 C883.8384,1066.8754 882.8954,1067.1174 882.8374,1067.6974 C882.5384,1191.2054 874.7864,1314.3544 862.5264,1437.2444 C862.3544,1439.9064 866.7084,1440.5364 867.2224,1437.8804 C876.040636,1392.23873 879.602096,1345.72975 882.587625,1299.37983 L882.9234,1294.1334 C886.8074,1231.8754 888.0384,1169.4514 886.3694,1107.0924 C886.0064,1093.9874 885.9544,1080.5194 883.9424,1067.5484 Z M1136.0474,887.6594 C1134.9674,888.9404 1133.7884,889.7094 1132.5874,890.0994 C1132.5974,918.9594 1126.7784,947.3604 1110.8294,972.3604 C1103.8254,981.6254 1100.0634,992.3264 1096.7074,1003.3394 C1097.6714,1006.3274 1096.4594,1009.7654 1094.2074,1011.4894 C1079.4674,1056.3354 1077.9484,1104.3634 1083.3874,1150.9494 C1099.9644,1126.6094 1106.5394,1097.5514 1111.1774,1068.9094 C1111.4274,1067.4694 1113.8074,1067.4894 1114.0674,1068.9094 C1119.5684,1099.5444 1110.2464,1130.1224 1098.2074,1158.1104 C1091.5314,1163.7644 1092.9644,1176.5784 1092.1874,1184.5894 C1214.3824,1202.3944 1171.8844,967.5094 1187.5384,895.1694 C1187.8284,893.1694 1189.5174,891.7304 1191.4374,891.1104 C1173.1074,888.3224 1154.5404,888.1084 1136.0474,887.6594 Z M641.6474,38.7794 L639.531172,39.3132382 C617.233596,44.8882622 611.32454,45.01508 609.9064,71.2594 C604.3574,108.2854 583.8704,140.6194 574.6594,176.4304 C570.9764,189.0794 574.8634,212.3854 592.3374,208.9804 C597.9974,207.2394 602.4084,214.8694 598.1274,218.9294 C585.4774,230.8994 573.1984,243.2494 560.8474,255.5294 C610.4394,423.1284 674.8684,586.3784 753.3374,742.5594 C756.4484,748.7494 747.1184,754.2094 744.0284,747.9994 C666.00551,591.31606 601.125761,428.117015 550.767948,260.479676 L549.2464,255.3984 C547.0234,249.2304 575.4584,227.1134 580.6374,219.8894 C528.7834,194.8894 600.9974,107.3384 603.1084,65.2594 C588.0884,71.1394 571.4424,69.1244 555.7674,71.6894 C525.6454,76.9594 499.2114,94.4094 475.7134,113.1964 C380.2724,197.5894 319.2684,314.4294 258.2534,424.5504 C216.6974,496.4224 196.6694,584.2424 238.3664,660.6804 C286.7464,758.6714 342.8884,853.1324 402.2174,944.8304 C408.7444,953.3064 418.7584,943.5644 425.6274,939.9894 C465.0934,916.2494 499.3184,883.9394 525.6374,846.1594 C456.6244,759.5364 392.4214,664.8834 356.6454,559.4784 C353.7874,533.8364 389.6864,504.1354 402.7884,481.8494 C431.7144,441.8924 458.7414,400.5784 484.5474,358.5594 C483.7364,354.4064 485.4514,349.8524 489.8474,349.9694 L492.40172,345.705976 C512.109024,312.90651 514.3032,311.63428 494.7384,351.7594 C504.6654,499.7774 503.0134,650.6524 507.3074,799.6104 C518.9174,814.9894 530.8684,830.1194 543.0974,845.0094 C582.7734,817.6444 629.4414,799.7854 677.3694,794.2594 L679.828864,794.014098 C700.115163,791.938318 734.4218,787.60484 737.1194,814.3514 C733.5014,847.0924 666.7294,828.5044 645.1374,847.0794 C680.3534,861.2784 720.7144,865.2954 753.0474,886.7204 C763.4194,892.7614 783.7494,912.0894 763.8874,919.4704 C755.2194,920.2204 746.2694,916.8254 737.6084,916.0994 C747.3544,919.3804 756.3194,924.9614 762.0284,933.6904 C766.1374,939.6794 769.1374,952.0994 759.3174,954.6714 C736.9284,955.2774 714.6354,948.0144 692.5874,944.3494 L694.547011,945.147379 C710.626738,951.748251 735.60348,963.5642 713.9574,981.0314 C692.2814,992.2524 666.0464,973.1524 644.4584,968.0464 C586.2844,954.5264 543.3104,991.6254 483.6874,951.4404 C482.0134,969.1384 476.6634,987.3494 478.3064,1005.0714 C492.6484,1018.4924 537.2814,1018.0474 557.2474,1019.8194 L557.225555,1019.13825 C556.934542,1008.25782 559.82958,1009.36932 560.3774,1019.9494 C610.9224,1021.5004 661.5854,1020.5584 712.0284,1016.9294 C733.675459,1015.33034 755.287085,1013.17233 776.812423,1010.37201 L780.8474,1009.8394 C791.9084,1008.3604 803.4674,1007.3794 814.3274,1004.7384 C825.4384,1003.2484 825.4534,991.3744 824.2754,982.6594 C809.0244,660.3614 678.2614,357.3074 641.6474,38.7794 Z M847.1774,65.3994 C849.7474,69.2194 852.5974,72.8694 855.6774,76.3194 C860.4194,68.9774 871.9564,64.8174 875.2394,75.7794 C878.9374,87.0474 884.2204,98.6204 884.3774,110.5594 C959.9554,357.3954 961.8774,619.8704 960.4054,875.9094 C962.6684,916.5254 950.0944,956.2714 951.2574,996.6694 C992.6584,1002.6294 1034.6584,1003.1394 1076.2274,998.7304 C1077.4574,995.4994 1078.8474,992.3094 1080.4234,989.1884 C1142.6454,913.1994 1109.6594,817.9474 1079.6874,735.6294 C1061.5694,736.3804 1043.3434,735.2514 1025.2074,735.4594 C1030.8074,752.8344 1032.2574,771.2144 1035.2384,789.1794 C1037.26903,801.980025 1039.85863,814.68397 1042.83667,827.297828 L1043.63686,830.660402 C1044.76026,835.30933 1046.2486,840.328886 1044.6184,844.9404 C1043.0174,849.4894 1037.4974,851.3294 1033.8364,847.7894 C1027.2404,840.2534 1027.9484,829.0244 1025.8174,819.6694 L1025.42402,816.730228 C1021.79215,789.911781 1017.00926,762.046694 1023.6474,735.4594 C1017.1284,734.0404 999.3204,739.2064 998.3854,730.4294 C998.6614,715.9414 988.1654,684.5294 999.8474,674.9804 C1006.7974,669.6694 1018.7474,671.3494 1026.8974,671.0204 C1036.3184,670.6394 1045.7274,670.2894 1055.1374,670.3494 C979.51328,487.27662 1000.54564,430.903327 1008.22004,248.699504 L1008.4484,243.1394 C1008.4274,241.9494 1010.3584,241.6494 1010.5684,242.8594 C1022.1314,317.4914 1006.7174,393.0614 1014.0194,467.9194 C1026.9894,610.1814 1116.9604,732.3094 1132.0074,873.8794 C1164.4554,870.1214 1197.2694,874.7284 1228.7174,882.9004 C1229.3774,877.1504 1229.8874,871.3794 1230.2474,865.5994 C1236.2144,759.9434 1199.2094,657.3004 1156.0204,562.5384 C1130.1394,512.2114 1114.1424,458.5384 1107.4484,402.3894 C1094.4444,329.2734 1065.2734,260.3864 1036.1954,192.4734 C1017.8194,141.6724 978.0774,129.6994 928.7974,123.7994 C945.4174,151.3994 961.9374,179.0594 978.4284,206.7394 C982.1104,215.1054 970.8334,221.0954 965.9084,226.2394 C1026.4434,259.3314 991.0964,361.4324 992.3484,418.6794 C987.8544,471.2464 986.1594,524.1574 978.2384,576.3694 C977.6584,579.9804 972.1184,578.9294 972.0664,575.5294 C972.7974,497.2864 982.1104,419.3484 986.1974,341.2384 L986.694351,335.543416 C989.88153,298.558752 992.99335,245.2068 948.6084,235.0494 C942.6184,234.0794 942.1584,225.1594 946.9674,222.4804 C953.3684,218.9094 958.9774,214.5394 963.9974,209.3594 C938.6724,168.6064 916.5844,125.7024 889.9374,85.8514 L888.824222,84.4314363 C871.036872,61.8715568 872.27422,70.02598 847.1774,65.3994 Z M724.8484,812.3674 C719.9264,797.9224 672.4374,807.3414 659.7384,808.9004 C612.9574,817.7594 565.8774,838.4994 530.2474,870.4404 C528.0474,872.4094 525.4484,872.3794 523.3974,871.3094 C507.4264,891.7304 489.0124,910.2384 468.7974,926.5094 C472.4974,929.4194 476.2974,932.2594 480.2074,934.9594 C482.0784,935.1594 483.7674,936.1294 484.5284,937.8794 C540.1364,978.2314 581.0554,946.7524 638.8174,954.0304 C660.3884,958.3784 680.2524,972.1254 702.4774,972.6994 C718.7884,968.9844 704.4254,962.1534 696.8074,959.5094 C674.9574,949.0594 652.5684,939.7894 630.2474,930.4004 C623.3184,927.4894 625.6984,916.9994 633.4374,918.8294 C646.9884,922.0294 660.5784,925.0794 674.1774,928.0604 C700.3294,933.4204 727.1074,940.2724 753.5384,942.8604 C747.6684,926.5124 685.3194,908.8264 667.2064,902.3414 C660.3554,899.0834 640.8354,899.7244 643.0684,889.0784 C644.8694,879.2014 665.6524,890.5154 672.5684,891.3294 C700.8424,898.4984 729.6964,902.8774 758.5074,907.2394 C727.5594,876.1494 679.5984,873.4504 640.0784,858.8994 L638.771608,858.597158 C631.846136,856.949972 622.590848,853.905005 627.873915,846.162783 L628.0494,845.9114 C648.3764,815.9054 728.2354,831.1174 724.8484,812.3674 Z M666.3775,645.389 C680.7815,633.508 688.5165,657.886 687.5975,669.19 C688.2785,678.57 689.0075,687.96 689.6185,697.35 C688.7235,704.701 696.5365,731.458 686.0875,731.7 C640.4235,729.397 594.8375,729.948 549.1585,727.219 C549.0975,736.44 548.6475,745.66 549.1185,754.91 C548.8705,766.455 552.8775,778.015 550.5375,789.419 C549.1085,794.679 541.9775,795.379 539.1955,790.9 C530.8485,771.238 536.5915,745.874 542.4975,725.98 C507.9935,717.196 524.6215,689.366 524.6275,665.049 C524.5775,664.41 525.2175,664.08 525.7385,664.2 C534.2915,676.167 523.1525,692.135 528.0375,705.15 C533.0865,719.3763 554.522772,718.068015 566.633393,718.302407 L566.9975,718.31 C604.7135,718.964 642.4035,720.521 680.1185,721.25 C678.5075,708.53 678.0685,695.5 677.0985,682.78 C675.8765,673.651 677.6425,662.815 672.9975,654.629 C652.0255,661.446 630.1925,664.176 608.1475,663.741 C581.8685,664.451 554.2315,666.827 528.5475,663.679 C565.3815,657.988 606.0715,658.813 643.6075,651.589 C651.0675,649.654 658.6805,645.738 666.3775,645.389 Z M485.0784,370.7894 C462.3544,414.2104 436.2354,455.5504 408.4084,495.7894 C402.4484,504.3894 396.3284,512.8694 390.1094,521.2894 L388.958586,522.764333 C376.532516,538.574123 363.62655,551.68927 375.3684,572.6694 C406.1424,647.5194 447.3244,717.8194 495.0474,783.0594 L494.229955,745.577875 C491.524516,620.638491 488.963855,495.691218 485.0784,370.7894 Z M1055.9774,672.5494 C998.9394,684.5414 997.8484,662.0924 1007.3774,725.5794 C1030.2604,725.7354 1053.1294,725.2194 1076.0174,725.5894 C1069.4774,707.8604 1062.6984,690.2094 1055.9774,672.5494 Z M884.7174,129.6094 C871.8504,151.7594 850.4774,165.9824 824.7384,166.1894 C779.5774,168.7854 733.8144,165.8084 689.8074,155.0894 C683.3374,153.4594 675.6084,152.0594 669.6474,148.5204 C703.581498,332.746933 758.510631,512.228327 797.149541,695.400412 L798.4174,701.4404 L799.4674,701.2304 C825.7704,696.5574 854.3834,698.4994 881.4274,696.8394 C903.1244,696.5244 925.0414,698.8524 946.5874,695.6194 L945.916386,672.852063 C940.481112,490.616632 932.8998,306.19852 884.7174,129.6094 Z M865.8474,76.9484 C863.4594,76.9154 859.8024,78.3394 857.3684,78.1694 C862.3284,83.4804 867.8184,88.2704 873.5974,92.4394 C870.9524,87.4804 868.8894,81.5314 865.8474,76.9484 Z" id="ðŸ–-Ink" fill="#000000"></path>
    </g>
</svg>