<?xml version="1.0" encoding="UTF-8"?>
<svg width="1645px" height="2500px" viewBox="0 0 1645 2500" version="1.1" xmlns="http://www.w3.org/2000/svg" xmlns:xlink="http://www.w3.org/1999/xlink">
    <!-- Generator: Sketch 62 (91390) - https://sketch.com -->
    <title>pose/standing/crossed_arms-1</title>
    <desc>Created with Sketch.</desc>
    <g id="pose/standing/crossed_arms-1" stroke="none" stroke-width="1" fill="none" fill-rule="evenodd">
        <path d="M1153.53434,2397.67392 C1159.57134,2373.27215 1150.6892,2353.8083 1125.1872,2339.4366 C1122.99271,2333.63057 1073.70426,2314.80365 1034.53938,2287.16771 C999.354016,2262.33983 973.832191,2228.2554 972.7622,2226.36583 C967.487809,2214.09593 964.549995,2205.19185 963.948758,2199.65358 C959.623452,2159.8112 962.125265,2133.69362 959.4542,2121.30085 C977.4502,2118.93834 1021.6922,950.15538 1014.5372,911.418464 C1026.2562,908.842525 1038.6842,906.126277 1049.8562,899.517959 C1050.7472,899.288723 1049.2822,896.698951 1049.3242,896.211824 C1077.3522,841.184339 1034.3562,654.070534 1007.4082,602.266185 C1028.8082,601.708905 1056.9952,598.798004 1070.2442,580.927484 C1076.5162,578.864361 1080.4702,575.267729 1083.5142,569.489403 C1087.0192,563.984777 1090.2722,558.209416 1093.2012,552.289794 C1107.4592,522.66797 1116.2552,489.776571 1111.5002,457.140098 C1112.4072,456.852565 1117.0742,456.822922 1117.3062,455.516673 C1117.7642,447.493416 1116.2912,440.423662 1113.8812,432.846032 C1089.3962,347.49123 1059.9222,263.456511 1020.9622,183.099446 C1001.4392,140.090048 961.0472,124.395294 919.1952,108.248984 C899.0612,100.337381 878.9182,91.2064804 857.9052,86.0249585 C857.6402,84.5546869 858.8952,80.0816226 856.1412,80.4462262 C852.7402,81.1556718 853.4112,86.6247266 852.1502,89.693721 C803.5612,49.9153636 834.3742,29.4175241 805.0762,7.63220874 C774.7602,-8.10503352 737.7882,-8.74432502 704.3632,-5.33839333 C692.0322,-4.98169436 682.1652,0.577276251 679.2572,12.9905979 C668.6572,38.6748998 643.8202,57.5789569 616.7242,63.3740801 C614.4852,59.388142 608.3292,47.9569776 604.8812,51.5654669 C565.7482,52.9013589 506.4152,67.2681261 469.7872,78.0165233 C433.0172,87.4082786 395.8192,104.553543 386.1992,144.509756 C368.7442,215.709241 396.5142,508.318989 442.0642,564.670509 L443.5452,564.695211 C451.6202,572.959561 462.5962,579.017515 475.0342,583.077559 C474.7552,609.421902 466.4522,635.142763 462.3202,660.9071 C453.0172,707.632688 445.8672,754.408669 435.5042,801.383256 C435.4582,806.617146 415.7412,878.23558 435.1802,863.874741 C439.1922,865.848936 444.1072,867.998023 448.4282,869.841791 C427.7762,916.912221 418.3262,992.858471 419.7902,1051.00732 C420.1562,1085.63479 418.7242,1115.97001 410.9572,1151.43142 C353.4942,1451.89151 302.8302,2123.92817 301.6392,2132.91185 C300.5442,2141.49831 307.815532,2188.1084 301.6392,2200.40494 C296.157829,2211.31786 272.778172,2204.87365 268.305696,2209.08423 C256.690696,2228.00212 262.008459,2240.05592 252.481459,2258.94318 C247.595459,2263.31546 236.671431,2272.87914 233.087431,2279.60207 C225.832431,2286.58883 105.6772,2365.44191 110.5472,2377.40664 C110.5472,2377.40664 109.9992,2383.14754 109.8152,2384.3945 C99.5712,2444.00275 116.6292,2443.50772 171.8192,2452.27698 C252.4412,2466.49949 312.6952,2439.13575 380.8312,2402.57658 C403.4732,2387.30571 435.6552,2358.15094 425.1802,2323.62031 C424.8912,2321.50976 418.677859,2285.1897 416.213859,2266.74708 C420.665656,2256.90107 414.276888,2252.592 397.047555,2253.81986 C401.297555,2249.1551 410.6342,2188.71498 407.4492,2180.71939 C405.4262,2160.12472 408.5672,2141.43112 407.5732,2120.23471 C418.3992,2121.03802 608.4662,1219.88007 727.6842,1163.88031 C728.4212,1169.86613 726.9912,1181.00779 734.9352,1182.12433 C771.8102,1469.82922 860.4702,2114.35263 864.5412,2115.48103 C858.4312,2148.33587 858.6162,2224.49986 858.5022,2257.11559 C857.5672,2257.98708 853.2752,2261.81887 852.5842,2262.75262 C852.4402,2262.50955 849.6452,2265.30188 849.5022,2265.37401 L849.1242,2264.50844 C836.5662,2292.82896 818.263183,2321.99585 834.440183,2349.7502 C822.434183,2348.87574 824.3612,2371.98143 823.8242,2382.61323 C830.662657,2403.42 1025.0642,2459.55925 1068.5062,2462.2251 C1082.7792,2464.71607 1149.25243,2443.57154 1162.04443,2440.53317 C1178.61943,2437.43355 1162.35934,2406.624 1153.53434,2397.67392 Z" id="ðŸŽ¨-Background" fill="#FFFFFF"></path>
        <path d="M687.3461,5.99474423 C693.638073,5.80264408 694.839557,13.7205217 690.538483,17.0034779 L690.3611,17.134 C686.6941,19.735 684.9741,22.061 682.9841,26.211 C673.2811,51.892 645.9191,66.621 619.1581,61.167 C628.4531,78.507 634.6951,95.289 644.0001,112.336 C686.8441,200.597 827.5481,229.31 844.3761,108.21 C818.5941,103.228 803.3151,45.248 819.8581,27.95 L820.305293,30.0553339 C825.073526,52.7649801 828.33551,76.01459 845.5501,93.138 C846.0741,93.291 846.5751,93.338 847.0691,93.338 C847.7251,90.229 848.4811,87.154 849.4221,84.138 C851.7131,76.779 863.1801,78.163 862.8581,86.124 C897.1911,96.586 930.1851,111.405 963.0241,125.721 C990.3261,137.631 1012.6491,158.935 1025.3671,185.913 C1061.0241,259.708 1088.2501,337.606 1111.9881,415.97 C1113.5781,426.56 1131.3271,465.918 1117.0071,469.702 C1120.5201,502.124 1111.5361,534.919 1097.6561,564.034 C1091.2161,574.973 1086.6701,590.139 1073.7321,594.701 C1060.2991,611.574 1035.7361,615.952 1015.2861,617.144 C1042.7901,681.894 1080.1611,846.826 1054.8891,911.167 C1057.1321,921.722 1028.0111,926.735 1020.2191,929.147 C1026.4991,966.677 1025.1291,1005.337 1022.4211,1043.137 C997.0601,1365.549 992.2471,1689.732 1018.9291,2012.227 C1020.4991,2032.327 1022.1901,2052.427 1023.9791,2072.517 L1025.0623,2084.563 C1026.48166,2100.603 1027.6879,2116.579 1027.3191,2132.747 C1027.2001,2138.357 1022.5491,2141.727 1017.8991,2142.017 C1002.2821,2151.982 981.3061,2152.065 963.2391,2154.467 C966.4301,2171.886 968.2181,2199.061 973.8031,2213.717 C985.4291,2210.679 992.9221,2221.518 981.3351,2227.639 C995.5981,2235.554 1002.9361,2250.705 1014.3541,2261.34 C1045.7171,2248.602 1051.5571,2267.635 1025.9281,2271.976 C1032.8961,2277.793 1040.2931,2283.166 1047.9401,2288.269 L1048.48349,2288.19287 C1057.52514,2286.82152 1074.57046,2279.3431 1078.8511,2289.246 C1080.7721,2296.414 1071.9231,2298.692 1065.5131,2299.563 C1071.2011,2303.15 1076.9081,2306.717 1082.6161,2310.279 C1087.6111,2308.08 1092.5651,2305.334 1097.6581,2303.573 C1110.1961,2300.782 1111.2781,2317.053 1094.9161,2317.971 C1105.1661,2325.543 1119.3141,2321.181 1125.8651,2331.867 C1149.8371,2341.546 1161.1681,2370.779 1155.5731,2394.14 C1163.9891,2401.626 1169.8991,2412.846 1170.5821,2424.12 C1172.2041,2436.199 1162.5921,2447.562 1149.5701,2450.742 C1134.9031,2455.624 1120.0231,2460.081 1105.1841,2464.27 L1103.62899,2464.80422 C1091.39839,2468.97288 1078.04383,2472.70702 1065.3241,2471.979 C989.8941,2467.479 889.3081,2436.494 828.9341,2397.939 C813.8761,2386.619 811.2431,2358.627 831.9671,2349.675 C822.4171,2332.361 826.9801,2319.78 831.0281,2300.923 C833.8391,2288.624 837.6561,2276.004 844.5651,2264.625 C845.1781,2263.615 846.6521,2263.919 846.7341,2264.913 C847.6386,2277.78043 846.437927,2290.94448 845.479478,2303.90034 L845.3741,2305.339 C844.5161,2317.29 842.5801,2321.687 845.8211,2332.999 C853.5801,2361.864 928.3801,2376.279 957.7741,2388.183 C980.8491,2395.33 1004.2761,2401.732 1028.0321,2407.36 L1029.77445,2407.73772 C1049.82872,2412.15065 1070.47733,2418.82849 1091.5991,2415.361 C1102.5531,2407.392 1118.9931,2409.635 1129.7561,2400.518 C1145.9911,2382.986 1133.2261,2357.287 1121.8511,2341.355 C1110.8509,2344.86467 1101.44803,2335.42115 1093.34945,2330.4269 L1093.0501,2330.244 C1084.7811,2325.013 1076.5331,2328.677 1068.2511,2323.459 L1066.38027,2323.81288 C1035.95456,2329.61294 1012.39744,2336.22682 1060.9241,2318.872 C1052.9311,2313.876 1044.9181,2308.838 1037.1541,2303.539 C1021.2171,2305.461 1003.7561,2313.83 988.9441,2314.59 C998.9121,2305.302 1012.5111,2300.159 1025.3251,2295.051 C1017.8651,2289.386 1010.7661,2283.324 1004.4161,2276.654 L998.350245,2278.1673 C961.084553,2287.42238 946.4356,2290.0962 996.6051,2267.528 C986.7381,2256.572 985.1351,2240.348 974.2871,2230.042 C956.8411,2233.697 940.8111,2241.37 926.6021,2251.279 C920.8561,2255.393 916.5281,2260.533 911.9771,2265.68 C890.4121,2293.424 857.0041,2297.705 846.7981,2261.718 C846.621767,2260.98008 847.778954,2260.52136 848.104528,2261.1454 L848.1421,2261.233 C853.02379,2272.28536 868.773809,2281.24717 881.929258,2274.37802 L882.3271,2274.165 C895.1921,2267.46 901.1681,2253.78 911.3021,2244.461 C924.9781,2232.113 942.1201,2223.835 959.8071,2217.621 C955.5191,2201.952 954.0721,2173.429 954.5591,2155.047 C924.7791,2156.454 894.8041,2155.018 865.5491,2149.357 C870.2361,2183.53 867.1551,2228.001 869.3091,2258.476 C872.4231,2268.701 853.4791,2275.092 851.4651,2264.906 C850.3521,2231.934 853.5771,2184.373 858.5991,2147.577 L856.497865,2147.06616 C854.514127,2146.57264 852.430433,2145.97767 850.7291,2145.017 C831.9551,2147.143 837.0761,2099.436 833.9241,2086.018 C812.7431,1790.136 768.1261,1496.909 730.2091,1202.977 C724.9511,1200.965 724.0181,1194.51 723.1491,1189.117 C675.3691,1221.46 665.8471,1286.095 644.4591,1336.197 C551.0521,1595.616 509.3181,1869.307 444.5801,2136.447 L444.936084,2136.54091 C445.190316,2136.61659 445.192564,2136.65431 444.661228,2136.61631 L444.5391,2136.607 L444.5391,2136.627 C448.5391,2137.157 451.6901,2141.357 449.2491,2145.268 C441.9611,2159.977 421.7581,2154.771 408.4591,2153.837 C409.7501,2176.491 404.8991,2225.371 407.9731,2245.555 C424.3781,2245.858 425.4211,2263.915 427.5931,2274.649 L427.761837,2275.75134 C430.660851,2294.08857 440.40356,2328.47256 433.1251,2343.298 C444.3761,2356.686 436.2831,2374.875 424.6111,2384.016 C412.1121,2393.251 396.5541,2398.664 382.4251,2405.78 C315.9261,2432.646 251.5911,2484.446 170.1011,2464.512 L166.55338,2463.76416 C109.439778,2451.69445 93.03058,2446.33236 104.3731,2389.804 C99.7151,2378.316 99.6841,2365.735 106.2381,2355.575 C117.9261,2340.575 137.5641,2332.369 153.1901,2320.973 C179.6571,2303.19 207.8261,2287.637 233.6771,2269.125 C232.7161,2268.292 234.0501,2267.985 234.8341,2268.126 C253.0781,2253.842 251.3711,2229.114 264.0991,2211.471 C267.2821,2202.379 283.3551,2200.163 293.9401,2201.423 C290.6331,2184.478 306.7881,2107.343 308.8401,2161.827 L308.839382,2162.60896 C308.87933,2171.02067 310.256622,2199.10035 307.7801,2204.599 C342.9141,2215.336 350.4901,2249.089 358.0091,2276.345 L358.493098,2276.47538 C360.893099,2277.0943 364.107874,2277.59545 365.3081,2279.951 C376.6061,2272.771 379.7631,2258.635 390.7051,2251.029 C387.6361,2248.629 387.4741,2244.048 389.0401,2240.496 C394.1361,2221.812 397.1911,2174.256 404.8891,2153.387 C368.7201,2147.968 331.8731,2145.211 296.5491,2135.377 C291.9591,2139.887 282.5391,2138.287 282.9091,2130.147 C293.8491,1952.786 312.6651,1775.974 336.3841,1599.888 C355.8861,1435.064 390.1941,1272.338 414.0911,1108.377 L414.293587,1085.87348 C414.93859,1018.22578 416.7457,949.5655 441.9691,885.877 C439.7491,884.907 437.5491,883.907 435.3791,882.857 C408.0281,894.194 429.5771,825.303 430.5831,812.888 C444.0241,740.904 459.8571,668.934 469.9521,596.501 C459.3701,592.673 449.5991,587.243 441.4481,579.352 C392.0301,539.124 363.3821,213.332 381.3431,147.825 C390.7181,106.619 430.4471,86.376 468.3121,77.062 L473.904958,75.481541 C516.194312,63.5850085 559.217579,52.8051268 603.2471,50.156 C604.8151,48.734 609.4261,49.143 610.0301,50.329 C612.7881,51.99 615.4061,55.233 617.6201,58.659 C678.7341,51.635 662.2041,11.686 687.3461,5.99474423 Z M833.5531,2352.28 C824.9971,2371.713 836.3661,2386.493 855.4271,2394.663 C921.4341,2425.268 995.1251,2449.863 1070.7761,2454.56 C1093.8591,2448.977 1116.7221,2439.751 1140.1131,2434.043 L1141.12209,2433.86112 C1149.35586,2432.34905 1153.22383,2430.83385 1152.5171,2422.28 L1152.81733,2418.82179 C1153.34502,2412.67641 1153.79089,2406.54332 1153.3631,2400.401 C1146.1671,2417.609 1124.6281,2427.068 1105.7461,2430.543 C1075.8071,2444.752 1042.2781,2430.303 1012.8641,2424.217 C965.0881,2409.69 861.7251,2386.864 833.5531,2352.28 Z M418.8711,2352.686 L417.882992,2352.98891 C409.314226,2355.64018 400.60173,2358.88804 390.9981,2356.497 C348.0981,2371.04 306.3411,2387.536 264.8981,2404.71 C220.1821,2426.119 148.1801,2451.009 109.4301,2399.27 C115.0011,2426.408 107.1251,2435.689 144.1221,2442.459 C202.8261,2461.602 249.9951,2451.8 298.7071,2425.643 C334.3961,2408.29 372.7821,2394.495 407.3271,2375.636 L407.793339,2375.30779 C414.588451,2370.45618 422.787078,2361.60692 418.8711,2352.686 Z M329.7691,2235.859 C318.5681,2215.194 288.4261,2203.846 266.0091,2211.464 C263.7281,2231.394 269.6371,2253.706 256.9831,2271.011 C268.1881,2272.97545 279.357621,2275.23847 290.510284,2277.58151 L300.716081,2279.73881 C305.725017,2280.83603 312.098767,2282.7145 311.2621,2288.027 C310.33647,2293.89984 302.629578,2292.10553 297.500672,2290.6281 L295.5131,2290.045 C281.1091,2285.805 266.7291,2281.48 252.5081,2276.634 C245.0121,2284.884 234.9491,2291.355 225.1901,2297.604 L229.237811,2298.06426 C243.419187,2299.65651 257.737535,2301.10265 271.7491,2303.976 C277.8711,2305.79 276.5501,2314.136 270.2861,2313.468 C253.5581,2309.104 236.8741,2304.17 219.8591,2301.039 C211.5421,2306.538 203.2641,2312.065 194.9271,2317.538 C211.3241,2319.911 227.7931,2320.125 244.1821,2321.524 C254.7931,2322.503 254.7901,2337.005 244.1811,2336.168 C225.0361,2334.413 205.9031,2328.748 187.6751,2322.312 L178.068403,2328.62836 C166.855853,2335.9957 155.618433,2343.34389 144.2691,2350.536 C137.4401,2354.887 128.6201,2359.026 123.8481,2365.326 C108.7781,2389.666 146.4341,2412.926 171.8801,2412.541 C210.5271,2412.952 242.7151,2392.885 276.5691,2380.873 C295.2961,2376.237 390.5071,2328.57 399.1711,2341.116 C404.6181,2338.499 412.1941,2337.555 416.1161,2333.244 C416.9101,2313.313 412.7111,2292.432 409.1871,2272.33 C408.4691,2268.821 406.7531,2264.613 406.5611,2261.011 C390.7011,2266.86 386.1851,2288.997 365.3091,2287.113 C362.0421,2292.333 351.9801,2289.901 347.4401,2285.756 C342.4991,2281.247 341.8791,2274.896 340.7001,2269.239 L340.153715,2266.64 C337.937053,2256.2198 335.279869,2245.54392 329.7691,2235.859 Z M799.7311,545.429 L797.179882,546.074006 C771.20263,552.574291 744.027798,557.276762 717.3311,555.531 C712.7161,572.992 715.1221,614.525 696.3511,621.162 C689.9381,623.578 680.2881,621.617 677.3481,615.069 C638.5211,614.379 599.4221,610.909 560.5931,608.6 C531.3641,606.301 501.0381,606.389 472.9011,597.519 C476.3101,614.686 477.4841,631.54 475.5761,649.097 C469.012288,723.978406 447.40581,796.93539 440.163974,871.495302 L439.8301,875.047 L439.6201,874.927 C439.6201,875.067 439.6101,875.207 439.5991,875.347 C441.7091,875.957 443.8191,876.597 445.9191,877.247 C446.6691,876.867 447.6901,877.237 448.2291,877.957 C602.8651,926.056 767.0021,946.946 928.1691,925.777 C956.3941,922.254 984.4151,917.318 1012.2391,911.467 C1011.9961,908.978 1015.7931,908.326 1016.4591,910.677 C1022.6341,909.6 1028.8081,908.421 1034.9501,907.627 C1034.2091,905.537 1034.0791,903.277 1034.8401,901.237 C1046.8171,865.297 1041.3451,824.321 1037.5671,787.048 C1032.7491,729.822 1020.7401,673.689 1011.0391,617.235 C965.1151,615.148 919.4661,607.652 873.3201,608.591 C868.4591,621.191 851.5131,631.774 838.2461,624.57 C828.8781,619.51 826.1041,608.48 822.3441,599.365 C814.9111,581.344 807.3211,563.386 799.7311,545.429 Z M605.1441,51.864 C556.9191,66.111 507.5111,76.285 459.7251,92.097 C420.0111,101.993 392.9001,126.911 391.2261,169.407 C387.9491,260.44 397.9291,351.933 412.9931,441.643 L413.779459,445.693977 C422.137258,488.929192 429.629342,532.920788 445.4131,574.13 C468.4551,584.843 494.6171,587.894 519.8261,589.134 C556.6131,591.006 593.3981,592.929 630.1531,595.336 L658.9711,597.205 C667.3321,597.747 678.9581,596.315 685.2411,602.817 C685.797975,603.733875 686.930534,603.618914 687.79173,604.187632 L687.9601,604.311 C688.8771,604.934 689.8011,606.447 691.1231,606.154 C693.272918,605.486848 694.097836,601.200435 694.602678,599.15319 L694.6491,598.968 C697.4481,588.017 699.4761,576.83 702.0611,565.82 C707.9531,544.155 710.4911,521.254 719.4461,500.517 C706.6271,492.336 694.5531,482.983 684.1991,471.885 L671.714531,467.488417 C641.847165,457.008062 611.643345,446.85451 580.5131,440.573 C579.7671,447.406 569.9611,451.313 566.3041,444.162 C560.2421,425.944 559.1181,406.164 554.9381,387.387 C545.4491,331.366 534.1751,275.549 527.6121,219.082 C545.7061,269.094 555.0811,330.478 568.9101,384.529 C569.5511,384.156 570.4381,384.373 570.4651,385.258 C619.4281,366.741 673.7881,367.495 722.1081,387.145 C734.2121,392 746.5051,396.359 758.5451,401.366 C762.6571,403.688 770.8481,403.546 772.2291,408.623 C773.7081,405.177 775.6961,401.95 778.3361,399.773 C779.1601,398.075 788.5191,395.044 789.4331,398.404 C844.3271,405.938 897.7011,429.82 954.1841,425.788 C947.5001,401.386 948.2911,375.034 947.8431,349.833 L947.979109,346.995531 C949.141601,322.16923 949.982767,291.443222 958.3981,271.013 C953.0131,322.445 956.9231,373.963 963.4951,424.917 C1003.3341,419.777 984.9901,442.557 958.4551,441.702 C904.9061,445.56 855.4871,421.877 806.2051,404.618 C779.2871,393.857 776.2361,402.971 777.4361,428.547 C777.4611,461.847 792.5411,492.239 806.2011,521.784 L812.337938,535.583222 C822.5381,558.544889 832.5981,581.359333 842.5081,604.596 C885.8051,590.239 934.5521,598.116 979.4061,600.732 C1013.6311,605.031 1038.2071,603.505 1067.1611,583.707 C1077.6051,563.753 1091.3661,544.829 1096.7471,522.322 C1102.9881,501.694 1105.0661,480.087 1106.8861,458.71 L1105.2462,452.728886 C1084.14376,375.980359 1060.79124,299.607266 1028.8801,226.506 L1027.15355,222.478267 C1016.33489,197.161831 1005.34586,170.595768 983.4581,152.863 C946.7251,125.74 901.2951,113.71 862.6811,89.576 L862.43476,91.3416458 C858.516018,119.026133 851.7471,147.724917 834.0281,169.999 C801.2881,210.201 739.4721,211.332 697.5751,185.222 C653.9891,161.123 627.8401,116.254 615.1181,69.353 L614.968866,68.8375198 C613.777832,64.657603 610.462361,52.0017391 605.1441,51.864 Z M723.5101,503.054 C723.4831,517.797 720.5741,532.329 718.6061,546.882 C741.2651,542.41 763.8571,539.291 786.1431,533.246 C764.4341,525.044 743.3381,515.163 723.5101,503.054 Z M668.9491,384.148 C635.9081,377.68 602.0801,381.549 569.4091,386.759 C572.9591,403.262 577.0141,419.617 580.4041,436.142 C592.1041,435.606 703.0911,455.261 690.5651,471.039 C706.9481,479.8 722.4681,490.099 738.7761,499.05 C755.1781,508.052 772.2541,515.789 789.8711,522.074 L788.941802,520.005565 C773.780146,486.133738 759.61452,448.01652 771.2971,410.998 C755.5881,417.303 734.1441,403.759 718.9241,398.692 C702.7681,392.208 686.1281,387.093 668.9491,384.148 Z M431.0793,252.989 C431.1893,246.809 450.2753,264.528 452.7663,266.368 L454.272035,267.73043 C472.587632,284.351541 490.680873,302.636853 500.8853,325.444 C501.6313,347.859 468.2263,293.559 463.5953,290.242 C453.4903,277.236 441.1803,265.941 431.0793,252.989 Z M959.2271,305.7492 C954.0631,307.4492 968.1571,289.9352 973.6531,291.2132 C975.8401,290.8942 977.7431,294.0642 975.3151,295.1542 L974.109407,295.685357 C968.469713,298.13208 962.703767,300.221067 959.2271,305.7492 Z" id="ðŸ–-Ink" fill="#000000"></path>
    </g>
</svg>