<?xml version="1.0" encoding="UTF-8"?>
<svg width="1645px" height="2500px" viewBox="0 0 1645 2500" version="1.1" xmlns="http://www.w3.org/2000/svg" xmlns:xlink="http://www.w3.org/1999/xlink">
    <!-- Generator: Sketch 62 (91390) - https://sketch.com -->
    <title>pose/standing/crossed_arms-2</title>
    <desc>Created with Sketch.</desc>
    <g id="pose/standing/crossed_arms-2" stroke="none" stroke-width="1" fill="none" fill-rule="evenodd">
        <path d="M1177.4452,2393.66875 C1179.80774,2384.11926 1175.96029,2371.72549 1173.7423,2359.31477 C1170.29267,2340.01245 1162.14433,2312.03969 1146.62239,2303.29226 C1143.87001,2296.01021 1067.50155,2237.68549 1027.6678,2208.37401 C1007.2093,2193.31971 990.45379,2164.92255 986.30679,2165.25455 C978.41879,2145.85249 977.404909,2126.69982 972.562909,2104.23471 C990.558909,2101.87219 1021.2972,2106.11899 1035.4802,2095.87451 C1038.0222,2096.04347 1037.9842,2068.28282 1038.3542,2064.36111 C1027.6678,2035.41323 1001.4068,1327.10497 1027.6678,989.726047 C1030.4488,952.173847 1037.6922,910.15538 1030.5372,871.418464 C1042.2562,868.842525 1049.2822,856.698951 1049.3242,856.211824 C1077.3522,801.184339 1034.3562,614.070534 1007.4082,562.266185 C1028.8082,561.708905 1056.9952,558.798004 1070.2442,540.927484 C1076.5162,538.864361 1080.4702,535.267729 1083.5142,529.489403 C1087.0192,523.984777 1090.2722,518.209416 1093.2012,512.289794 C1107.4592,482.66797 1116.2552,449.776571 1111.5002,417.140098 C1112.4072,416.852565 1117.0742,416.822922 1117.3062,415.516673 C1117.7642,407.493416 1116.2912,400.423662 1113.8812,392.846032 C1089.3962,307.49123 1059.9222,223.456511 1020.9622,143.099446 C1001.4392,100.090048 961.0472,84.3952937 919.1952,68.248984 C899.0612,60.3373811 878.9182,51.2064804 857.9052,46.0249585 C857.6402,44.5546869 858.8952,40.0816226 856.1412,40.4462262 C852.7402,41.1556718 853.4112,46.6247266 852.1502,49.693721 C803.5612,9.91536362 834.3742,-10.5824759 805.0762,-32.3677913 C774.7602,-48.1050335 756.7882,-48.744325 723.3632,-45.3383933 C711.0322,-44.9816944 701.1652,-39.4227237 698.2572,-27.0094021 C687.6572,-1.32510024 662.8202,17.5789569 635.7242,23.3740801 C633.4852,19.388142 627.3292,7.9569776 623.8812,11.5654669 C584.7482,12.9013589 509.125308,43.8173029 472.497308,54.5657 C435.727308,63.9574554 436.1932,73.9649336 426.5732,113.921146 C409.1182,185.120632 412.3892,452.53118 457.9392,508.8827 C474.452682,519.913806 486.855422,526.782707 495.147422,529.489403 C494.868422,555.833746 499.279422,595.080406 495.147422,620.844742 C485.844422,667.570331 474.5052,714.488675 464.1422,761.463262 C464.0962,766.697152 422.6252,844.272249 442.0642,829.91141 C446.0762,831.885606 453.1292,840.173348 457.4502,842.017116 C436.7982,889.087547 440.6002,946.865372 442.0642,1005.01422 C442.4302,1039.64169 434.3402,1077.58775 426.5732,1113.04916 C369.1102,1413.50925 330.1312,1754.66873 308.7942,2055.63867 C307.9242,2067.96208 307.3532,2077.36865 306.9412,2086.13199 C306.5172,2089.13379 310.5722,2089.07648 312.0772,2087.55285 L314.1542,2085.53222 C316.4672,2086.19424 320.1642,2087.2011 322.5082,2087.83643 C322.8062,2097.69457 321.8302,2107.92817 320.6392,2116.91185 C319.5442,2125.49831 305.5902,2163.00826 308.7942,2171.3892 C298.1572,2170.82204 278.1882,2188.28128 268.6612,2207.16854 C263.7752,2211.54082 248.1458,2218.72976 244.5618,2225.4527 C239.725133,2230.11054 220.5098,2242.17754 186.9158,2261.6537 C168.3628,2276.49672 108.6772,2335.44191 113.5472,2347.40664 C113.5472,2347.40664 112.9992,2351.14754 112.8152,2352.3945 C102.5712,2412.00275 119.6292,2409.50772 174.8192,2418.27698 C255.4412,2432.49949 331.6952,2389.36366 399.8312,2352.80448 C422.4732,2337.53362 444.5282,2341.58629 442.0642,2323.14367 C437.5952,2300.37422 436.8012,2218.85721 410.9572,2220.699 C415.2072,2216.03425 414.1422,2173.25014 410.9572,2165.25455 C408.9342,2144.65988 427.5672,2125.43112 426.5732,2104.23471 C437.3992,2105.03802 459.5152,2110.11382 464.1422,2098.03941 C463.9342,2096.82209 458.8222,2096.84679 457.9392,2096.55629 L458.0322,2095.87451 L457.4502,2095.73618 C502.5212,1936.86681 612.318078,1207.28446 731.536078,1151.2847 C732.273078,1157.27052 745.3898,1150.16816 753.3338,1151.2847 C790.2088,1438.98959 832.4272,1710.18176 854.9482,2017.90823 C857.2002,2027.03518 862.410608,2090.69098 864.6092,2101.24941 C869.211867,2105.05216 872.8702,2107.32966 875.5842,2108.08193 C876.815022,2140.55122 872.6452,2208.30188 872.5022,2208.37401 L870.346244,2213.64866 C857.788244,2241.96917 848.4322,2279.86597 864.6092,2307.62031 C852.6032,2306.74585 847.3612,2316.98143 846.8242,2327.61323 C839.7492,2374.23606 1026.8022,2415.61113 1070.2442,2418.27698 C1084.5172,2420.76795 1186.2702,2402.61883 1177.4452,2393.66875 Z" id="ðŸŽ¨-Background" fill="#FFFFFF"></path>
        <path d="M1160.3428,2397.5217 C1136.7628,2402.9287 1113.7568,2411.8667 1090.4738,2417.1487 C1014.6438,2411.5607 940.2008,2386.0447 873.6828,2354.5537 C854.4008,2346.1137 843.0948,2331.1367 851.7138,2311.9217 C879.9298,2346.7997 984.3758,2371.0607 1032.1918,2386.0877 C1061.9288,2392.6127 1095.6948,2407.3657 1125.7238,2393.5987 C1144.7518,2390.3457 1166.4108,2381.2167 1173.7338,2364.0847 C1174.2378,2371.3857 1173.4888,2378.6467 1172.8538,2385.9277 C1173.5998,2394.8627 1169.2408,2396.0747 1160.3428,2397.5217 L1160.3428,2397.5217 Z M878.7468,2103.6207 C878.1218,2102.1367 876.1398,2102.1027 875.3898,2103.4537 C873.9468,2103.3367 872.4098,2103.1907 870.8778,2103.1257 C873.5038,2094.8217 873.8728,2086.1347 872.5688,2077.5567 C870.9218,2053.9117 869.0358,2030.2837 867.0388,2006.6657 C846.4458,1780.3297 822.7258,1553.3147 782.2798,1329.4667 C782.7658,1329.1237 783.0848,1328.5917 782.9988,1327.9137 C780.9708,1312.0517 776.6858,1296.5907 773.6938,1280.8907 C770.6758,1265.0567 768.1298,1249.1387 765.3468,1233.2637 C764.5158,1228.5237 763.6708,1223.7797 762.7888,1219.0407 C763.4228,1207.5257 760.6428,1195.4147 759.1748,1184.2587 C758.1438,1176.4287 756.6568,1168.4177 754.6088,1160.5887 C755.4718,1157.9537 755.0218,1154.8287 752.9038,1152.8437 C752.8748,1152.8167 752.8438,1152.7917 752.8158,1152.7657 C752.9738,1152.2437 753.1478,1151.7467 753.3338,1151.2847 C754.7898,1147.6857 757.9408,1146.0747 760.2198,1143.5147 C766.7628,1142.3317 773.4558,1142.0057 780.0538,1143.0547 C781.0398,1143.2387 781.7718,1141.8767 780.7768,1141.3417 C754.2608,1125.8287 721.2528,1140.7867 701.6968,1161.0117 C641.5968,1246.4277 619.8588,1354.8807 586.6498,1452.8837 C526.5338,1666.0477 484.3648,1884.0957 436.0718,2099.9317 C397.8718,2098.1537 359.7608,2092.5797 321.4778,2093.5397 C320.0398,2090.2917 317.5678,2086.8167 314.6238,2085.4207 C338.4098,1756.3967 379.2788,1428.5977 440.1278,1104.3527 C446.8808,1019.4207 436.3158,932.8307 461.5038,849.7827 C640.2678,920.1477 840.1548,930.6227 1027.6678,892.7787 C992.6078,1290.4487 974.0868,1692.2777 1022.2468,2089.8657 C1006.8528,2095.9537 990.3228,2098.5677 973.9538,2100.4777 C942.4778,2104.2837 910.3898,2104.7647 878.7468,2103.6207 L878.7468,2103.6207 Z M403.0998,2197.3527 C400.2688,2202.8517 403.2718,2208.5757 409.2058,2210.1387 C391.4548,2214.8197 388.1618,2233.7047 374.1698,2242.3207 C372.8588,2239.8407 369.1518,2239.4237 366.6718,2238.7007 C359.1968,2210.9037 350.5678,2178.1947 315.5478,2167.9717 C317.7758,2165.1227 317.4678,2161.7607 317.3638,2158.3897 C319.9658,2145.1627 329.3348,2115.6287 323.5308,2100.4577 C355.7078,2107.7907 388.7378,2110.7937 421.3638,2115.5467 C414.7258,2139.6857 409.1008,2176.1357 403.0998,2197.3527 L403.0998,2197.3527 Z M425.4818,2314.9197 C426.5338,2314.6357 427.5858,2314.3427 428.6178,2314.0317 C433.7518,2336.5477 398.9618,2343.8957 381.8028,2351.8857 C355.9428,2362.6037 330.1138,2373.3607 304.3458,2384.1997 C252.1708,2410.3767 203.1678,2417.7487 145.1668,2399.0917 C108.2558,2392.0187 115.2778,2384.9627 109.8668,2356.4857 C146.8758,2406.2627 222.6878,2384.8987 269.7508,2363.3777 C312.5258,2346.9957 355.6108,2331.2647 399.8628,2317.4787 C408.7038,2319.6917 417.1288,2317.3827 425.4818,2314.9197 L425.4818,2314.9197 Z M801.2238,495.2427 C778.9388,501.2797 756.3418,504.4067 733.6838,508.8827 C735.6588,494.3377 738.5618,479.7977 738.6138,465.0627 C758.4448,477.1647 779.5218,487.0527 801.2238,495.2427 L801.2238,495.2427 Z M590.9538,348.1227 C638.5788,338.1937 689.0048,341.8197 734.0038,360.6827 C749.4548,365.8217 770.3288,379.2117 786.3738,373.0127 C774.4718,410.7837 789.4618,449.6977 804.9638,484.0727 C769.3808,472.2077 738.0518,451.3357 705.6538,433.0327 C717.7838,417.0657 607.4678,397.7127 595.4928,398.1327 C592.0938,381.6197 588.0438,365.2437 584.4928,348.7527 C586.4738,349.4927 588.9338,348.5027 590.9538,348.1227 L590.9538,348.1227 Z M837.0478,365.9877 C837.3018,366.1747 837.4898,366.4177 837.5768,366.7387 C884.1908,373.1957 931.0028,394.4097 978.8658,388.2597 C1011.2038,384.0867 996.3138,402.5777 974.7758,401.8837 C926.1848,406.7527 881.1328,378.0267 835.9248,368.2337 L837.0478,365.9877 Z M862.4888,53.7987 C862.3758,54.3087 862.2608,54.8197 862.1538,55.3327 C861.6738,55.3327 861.1948,55.2827 860.6948,55.1427 C860.3838,54.8417 860.0888,54.5317 859.7878,54.2257 C860.6708,53.9757 861.5848,53.8217 862.4888,53.7987 L862.4888,53.7987 Z M1191.0438,2387.9907 C1190.3738,2376.7137 1184.4538,2365.4137 1175.9838,2357.8257 C1181.6388,2334.6777 1170.3118,2305.1867 1146.1438,2295.2227 C1139.5718,2284.4507 1125.3078,2279.7127 1115.0038,2272.0287 C1123.6478,2271.4997 1131.5708,2265.3437 1124.9338,2258.7187 C1110.8908,2262.9767 1097.3058,2268.7277 1083.9338,2274.4927 C1080.3218,2275.2507 1071.7388,2282.4107 1071.0638,2276.0237 C1073.6068,2270.9387 1093.2178,2265.8017 1099.6138,2262.2747 C1094.8738,2259.2777 1090.1238,2256.2717 1085.4038,2253.2547 C1093.7918,2253.0507 1104.5728,2246.7517 1096.3538,2239.6037 C1074.2078,2244.5317 1051.1798,2248.8757 1031.6638,2260.0897 C1015.5638,2256.0947 1062.4348,2241.7457 1066.7638,2241.0637 C1059.4138,2236.0587 1052.2938,2230.8257 1045.6038,2225.1757 C1052.9408,2225.0397 1068.2358,2217.6587 1058.4538,2211.0677 C1046.1378,2207.9027 1029.0368,2218.0587 1016.8138,2221.3147 C1016.8038,2221.3067 1016.8038,2221.3157 1016.8038,2221.3157 C1007.5948,2224.7267 998.4748,2228.4127 989.4338,2232.2207 C985.7838,2233.7597 984.2338,2228.7227 987.8338,2227.1977 C1001.8798,2221.2827 1016.0958,2215.6887 1030.6238,2210.8637 C1026.6638,2206.5457 1022.9338,2202.0537 1019.1948,2197.5447 C1020.1868,2190.4777 1012.8898,2184.2717 1010.1858,2177.8797 C1010.7588,2174.6067 1009.1158,2169.4727 1005.2338,2168.7927 C1002.1498,2165.8027 997.4948,2165.6067 993.1948,2166.2877 C986.3718,2153.1707 980.4828,2132.7457 978.3198,2116.4697 C996.3938,2114.0577 1017.3658,2113.9837 1032.9888,2104.0077 C1037.6378,2103.7167 1042.2728,2100.3447 1042.4008,2094.7407 C1042.8628,2074.5317 1040.8638,2054.6197 1039.0688,2034.5107 C1037.2748,2014.4237 1035.5878,1994.3277 1034.0098,1974.2227 C1007.3408,1651.7277 1012.1458,1327.5427 1037.5088,1005.1327 C1040.2178,967.3347 1041.5748,928.6757 1035.2978,891.1427 C1043.0908,888.7347 1072.2168,883.7177 1069.9738,873.1627 C1095.2478,808.7947 1057.8678,643.9287 1030.3838,579.1427 C1050.8378,577.9467 1075.3898,573.5607 1088.8228,556.6927 C1101.7608,552.1317 1106.2958,536.9617 1112.7448,526.0327 C1126.6158,496.9077 1135.6038,464.1307 1132.0938,431.7027 C1146.4148,427.9067 1128.6568,388.5557 1127.0748,377.9627 C1103.3268,299.6127 1076.1148,221.6917 1040.4548,147.9117 C1027.7248,120.9367 1005.4128,99.6247 978.1028,87.7137 C945.2728,73.3987 912.2838,58.5867 877.9538,48.1127 C878.1628,42.2647 872.0458,39.9747 867.8728,42.0887 C867.6068,42.0027 867.3388,41.9147 867.0658,41.8497 C862.8458,40.8477 856.4558,42.4947 853.0608,46.0237 C841.9328,29.7207 839.0528,9.0927 834.9468,-10.0583 C818.3958,7.2547 833.6778,65.2127 859.4538,70.2027 C842.6648,191.3107 701.9148,162.5817 659.0848,74.3287 C649.7918,57.2797 643.5248,40.5147 634.2538,23.1627 C661.0048,28.6417 688.3648,13.8727 698.0638,-11.7893 C700.0538,-15.9473 701.7748,-18.2673 705.4448,-20.8673 C709.9538,-24.0673 708.8038,-32.2073 702.4338,-32.0012879 C677.3118,-26.3603 693.8118,13.6427 632.7038,20.6527 C630.4928,17.2327 627.8838,13.9927 625.1338,12.3227 C623.9718,11.0437 620.3018,10.6847 618.3228,12.1527 C572.3428,14.9187 527.4928,26.5427 483.3938,39.0617 C445.5188,48.3727 405.8038,68.6107 396.4248,109.8247 C378.4748,175.3657 407.1078,501.0857 456.5338,541.3627 C464.6838,549.2527 474.4638,554.6827 485.0538,558.5027 C474.9178,630.9277 459.1178,702.9017 445.6668,774.8837 C444.6608,787.2987 423.1128,856.1897 450.4638,844.8527 C451.2058,845.2117 451.9578,845.5577 452.7068,845.9067 C451.0908,849.1977 449.5698,852.5327 448.0988,855.9067 C443.3758,866.7357 439.6168,877.6857 437.8928,889.4157 C436.0998,901.6117 435.7458,913.9407 435.2028,926.2397 C435.0008,930.8107 434.8348,935.3037 434.7778,939.7727 C429.4948,982.9367 429.6018,1027.0017 429.1748,1070.3727 C405.2788,1234.3327 370.9708,1397.0597 351.4688,1561.8837 C327.7498,1737.9697 308.9338,1914.7817 297.9928,2092.1427 C297.6188,2100.2817 307.0478,2101.8867 311.6328,2097.3717 C312.2898,2097.5587 312.9488,2097.7367 313.6088,2097.9187 C313.6198,2105.0337 313.0088,2112.1677 312.1838,2119.2327 C310.6158,2129.5307 298.8218,2155.4537 301.7918,2164.7967 C291.0558,2163.3067 273.7718,2165.4917 270.6558,2174.2877 C258.3658,2189.9307 259.1518,2211.2637 244.5618,2225.4527 C258.6048,2228.5237 272.5538,2232.6407 286.1738,2236.9637 C288.9888,2238.4757 287.2848,2242.5937 283.7248,2241.5307 C276.1628,2239.2707 268.5808,2236.9407 260.9568,2234.8317 L260.9568,2234.8237 C253.5848,2232.7777 246.1808,2230.9417 238.6808,2229.5417 C238.4218,2229.7527 238.5108,2230.2077 238.8368,2230.3907 C233.4698,2234.5507 227.3768,2238.1697 221.2658,2241.6387 C225.2058,2242.5037 277.5538,2256.5157 261.8918,2260.9067 C246.7058,2254.6107 230.8788,2248.5947 214.4608,2245.4747 C207.3568,2249.4957 200.4068,2253.6877 193.3918,2257.8157 C196.7778,2258.5327 253.2098,2270.7847 233.6518,2274.3277 C218.4828,2268.8117 202.7598,2265.1077 186.9158,2261.6537 C167.4898,2273.1977 148.0328,2284.7077 128.8608,2296.5747 C120.8428,2301.5077 112.1258,2306.2677 106.9768,2313.6917 C100.1368,2323.5647 100.0558,2335.8887 104.7568,2347.1787 C91.0338,2406.2507 115.2508,2408.5307 171.6968,2420.9367 C251.7108,2441.4097 321.1038,2392.3007 390.6378,2365.6197 C405.1618,2358.8207 421.2158,2353.7067 434.2328,2344.7457 C446.5248,2335.9957 454.6268,2317.6127 443.3698,2305.0037 C451.1498,2290.4627 440.7598,2254.8067 438.2768,2237.7677 C436.2278,2227.0187 434.8488,2209.6767 418.8758,2209.1247 C423.1468,2206.3477 423.0108,2201.1347 421.5898,2196.9397 C419.7198,2176.2987 426.1368,2139.6437 427.6788,2116.3297 C439.8878,2117.2097 457.9938,2120.7867 464.3298,2107.2617 C466.7768,2103.3527 463.6188,2099.1587 459.6178,2098.6267 C459.6198,2098.6197 459.6208,2098.6147 459.6228,2098.6087 C460.4778,2098.6737 460.2358,2098.5777 459.6658,2098.4407 C524.3928,1831.3027 566.1398,1557.6067 659.5448,1298.1957 C680.9268,1248.0877 690.4518,1183.4697 738.2318,1151.1247 C738.8838,1155.1657 739.5708,1159.8267 742.1108,1162.7347 C742.2488,1163.2577 742.3918,1163.7797 742.5248,1164.3027 C744.1938,1170.8167 746.0728,1177.2667 747.7318,1183.7827 C785.1138,1471.4157 828.2718,1758.4477 849.0118,2048.0137 C852.1548,2061.4217 847.0418,2109.1547 865.8178,2107.0117 C868.1408,2108.3197 871.1728,2108.9467 873.6918,2109.5717 C869.8118,2126.7787 870.8958,2152.7707 871.0148,2168.4617 C870.7458,2184.1407 868.1558,2200.3777 869.9038,2215.9027 C871.9138,2226.1097 891.0038,2219.9617 887.8838,2209.7027 C887.4468,2180.2827 885.6648,2143.9917 880.6118,2111.3297 C909.8678,2117.0367 939.8548,2118.4217 969.6448,2117.0537 C968.0468,2134.2967 973.1568,2155.8687 979.1038,2170.0127 C961.2668,2176.0007 943.9908,2184.0607 930.2038,2196.2227 C917.1478,2208.0817 905.1498,2235.2767 882.1338,2226.2887 C875.7538,2223.4517 868.7638,2218.5287 866.5638,2212.1867 C864.4328,2210.6017 865.5478,2214.4207 865.9638,2215.3317 L865.0938,2215.6317 C859.7998,2212.2557 850.0758,2247.2747 849.2638,2251.6427 C845.1988,2270.3917 840.4888,2291.7517 850.1138,2309.2787 C829.4318,2317.8657 831.6588,2345.7947 846.9938,2357.4887 C907.8748,2396.9117 1009.3888,2429.0927 1084.9518,2434.4917 C1098.3228,2435.4207 1112.3898,2431.5037 1125.1138,2427.2937 C1140.0638,2423.2977 1155.0638,2419.0267 1169.8438,2414.3307 C1182.8638,2411.3427 1192.6618,2400.1827 1191.0438,2387.9907 L1191.0438,2387.9907 Z" id="ðŸ–-Ink" fill="#000000"></path>
    </g>
</svg>