<?xml version="1.0" encoding="UTF-8"?>
<svg width="1645px" height="2500px" viewBox="0 0 1645 2500" version="1.1" xmlns="http://www.w3.org/2000/svg" xmlns:xlink="http://www.w3.org/1999/xlink">
    <!-- Generator: Sketch 62 (91390) - https://sketch.com -->
    <title>pose/standing/pointing_finger-1</title>
    <desc>Created with Sketch.</desc>
    <g id="pose/standing/pointing_finger-1" stroke="none" stroke-width="1" fill="none" fill-rule="evenodd">
        <path d="M815.3189,1091.21023 C814.2149,1131.34774 807.7359,1171.35344 802.8619,1211.26126 C798.9629,1250.70572 791.6069,1290.52566 785.7009,1329.23911 C785.4639,1336.00593 776.1669,1339.29646 771.6749,1334.26429 C771.7919,1246.25077 795.2779,1155.93936 786.9589,1066.08334 C793.6649,1062.33443 800.4919,1058.18805 807.0049,1054.04468 C815.7899,1065.64992 816.7609,1079.04973 815.3189,1091.21023 M468.3159,572.301628 C458.2699,608.854009 436.9839,640.361239 427.6609,676.966549 L417.8169,675.98588 C412.9729,595.237493 426.5899,515.904186 442.4929,437.872112 L452.3879,438.456319 C455.8789,483.426273 478.8229,526.022451 468.3159,572.301628 M1552.1699,274.877371 C1551.6349,273.373413 1551.0919,271.840494 1550.5829,270.287602 L1544.8199,271.520928 C1555.5559,251.140593 1545.5439,244.434696 1533.3959,227.585568 L1532.0729,230.646413 L1527.3989,220.410309 C1526.4709,217.810837 1525.5229,215.603833 1522.9599,214.632152 C1520.4559,201.896441 1513.0029,190.233273 1503.0769,183.897873 L1501.1759,186.037968 C1497.2419,182.592645 1492.4999,181.281425 1487.9849,179.685591 C1497.6759,165.02649 1503.9099,146.008307 1510.4449,130.290643 C1515.7659,113.783052 1524.0849,97.7627985 1525.6479,81.0235215 C1524.3899,64.9363592 1509.2159,75.386174 1501.8149,83.4102815 C1479.2079,103.274317 1459.7379,134.73461 1445.1479,172.940747 C1420.0929,166.409613 1405.7199,173.301258 1398.7599,207.601696 C1392.3529,230.903065 1385.8039,254.803621 1384.9389,278.961827 C1381.5749,277.805397 1375.6079,273.4563 1372.3839,276.866671 C1316.6989,337.912803 1250.9489,384.942961 1187.3619,436.414091 C1139.3089,400.997168 1114.3029,330.927286 1087.8749,278.326689 C1041.7709,188.042247 995.6659,55.8676697 877.0779,56.333038 C861.3619,54.6912666 846.0129,52.808822 831.1769,48.2360294 C825.4319,46.6721523 818.3299,44.788709 816.3799,41.292455 C812.8659,30.0317411 812.1999,17.8472811 806.0219,7.52029959 C789.0689,-20.0902201 752.3389,-22.2602743 723.5569,-16.2654121 C674.6899,-7.19172933 675.9199,-12.4885391 672.3919,39.0065581 C671.3339,51.2309638 661.8769,52.9815874 651.7809,55.5131509 C640.3189,59.1342354 628.6419,62.0932187 616.8609,64.4769828 C618.0839,64.1324505 619.3059,63.7919128 620.5289,63.4453832 C429.2749,66.4812621 302.2889,288.75753 277.0969,446.011063 C247.8369,606.892672 285.6819,785.939622 345.5129,921.064195 C342.9439,970.272396 352.5789,1019.70429 358.6789,1068.20546 C362.5079,1080.33998 375.7639,1081.52138 379.5539,1067.46546 C379.5539,1067.46546 384.2259,1048.96457 384.2259,1048.96457 L389.2269,1067.37958 C392.3979,1078.77411 397.4939,1080.12827 402.0789,1080.20616 C407.7669,1080.20616 410.8849,1077.39798 411.0719,1062.58209 L420.4929,1060.31317 C424.1229,1067.24276 427.7279,1073.37044 433.4319,1077.63166 C444.9019,1161.17425 452.1019,1248.03934 479.9429,1328.8776 C491.0449,1358.87788 508.0939,1386.1159 520.6149,1415.54895 C461.5789,1549.05272 451.6829,1696.9939 437.5079,1839.93785 C438.6479,1840.02673 444.5069,1840.54203 445.7579,1840.64889 L442.5249,1849.2582 C438.1099,1851.12866 435.5149,1855.07131 434.1779,1859.43539 C431.1999,1859.18872 418.7759,1859.2816 419.4679,1862.13273 C420.9049,1878.92693 425.6049,1890.90866 434.5109,1899.65379 C434.6329,1902.34714 434.7979,1905.09441 435.0059,1907.64395 C417.3379,1969.4111 404.3909,2035.25771 396.5239,2103.15555 C386.5229,2112.79646 384.0199,2144.50941 398.9359,2152.96893 C440.1139,2181.37636 495.4279,2194.86505 547.5079,2189.74301 C603.8709,2184.40026 671.0919,2161.9008 644.1189,2097.49523 C643.7699,2095.49694 641.0329,2095.40107 638.8749,2095.83748 C634.0969,2091.19278 628.9169,2087.68055 623.3139,2085.70723 C612.1809,2057.85005 602.1679,2028.6407 593.4339,1999.47828 C589.1789,1986.08447 584.7789,1972.23427 585.1409,1957.5472 C587.2469,1921.47917 590.9529,1906.5724 615.9699,1878.16197 C631.4569,1885.62184 660.9709,1831.60017 667.7349,1820.25957 C681.9629,1786.71111 700.0959,1756.21351 715.2899,1723.30318 C717.6369,1717.74273 725.8389,1717.62389 729.0479,1722.44235 C730.4929,1724.4686 730.8539,1726.98019 730.0409,1729.329 C716.8089,1767.57808 698.7919,1804.1005 681.4129,1839.78107 C687.3349,1860.50693 689.6729,1895.12194 704.4829,1910.54501 C712.5389,1964.24212 657.4139,1988.84372 692.9349,2048.39388 C680.9129,2049.22076 679.7919,2054.03622 680.0019,2068.66237 C679.9619,2079.16511 679.6889,2090.18615 681.6659,2100.00283 C684.0629,2112.06345 695.1739,2115.29806 711.8519,2118.85424 C725.3679,2121.84917 738.3819,2125.27053 751.7949,2128.50414 C765.3599,2133.021 779.6519,2132.65051 785.2289,2118.90616 C852.4029,2141.7142 1046.0499,2139.10475 1110.0979,2108.88077 C1127.7849,2101.7884 1140.2599,2097.77984 1124.0169,2077.80995 C1115.0749,2020.81832 969.0899,2061.567 948.4689,1999.05586 C945.5269,1990.93987 941.2759,1986.67267 933.0039,1985.19368 C934.2649,1978.74543 932.5819,1971.57816 925.4169,1969.72168 C923.2609,1969.07655 920.9629,1968.90978 918.7429,1966.87554 C913.2309,1955.50098 904.1909,1948.60235 893.6599,1942.55256 C897.9609,1936.35397 894.4849,1933.46589 892.5489,1926.53031 C890.5849,1913.25733 895.0989,1900.53959 894.8679,1887.6411 C897.2879,1883.57362 899.1569,1877.87536 903.0299,1875.05618 C906.6189,1872.51763 904.3869,1871.41912 902.9889,1868.61792 C904.0569,1867.67221 906.4719,1865.52013 907.5629,1864.6603 C911.7579,1860.03957 907.3609,1853.29972 901.9819,1852.78242 C901.3199,1850.55344 900.5339,1847.96596 900.0309,1845.75696 C914.9049,1800.96676 932.4559,1742.8087 938.2829,1681.18735 C943.9219,1582.62615 938.6329,1499.53394 968.6109,1399.36891 C1010.5159,1240.76921 1091.9229,1091.93524 1093.0219,924.106066 C1091.6229,896.283833 1099.3219,866.661045 1092.3419,839.359107 L1101.0109,834.842238 C1102.2589,836.282283 1104.5139,836.242338 1104.9639,834.283996 C1110.6509,825.038546 1104.2759,813.951596 1102.9679,803.828338 C1105.9439,800.63767 1104.4579,797.72762 1100.8669,795.986983 C1062.3589,659.819825 997.9499,639.927828 1015.6799,469.719879 C1044.6099,531.12053 1108.6939,593.277155 1179.3339,584.13856 C1250.4939,594.793097 1416.4919,421.149812 1448.5519,365.01701 C1454.4279,365.47339 1454.4999,361.254118 1455.3939,357.278515 C1484.6759,360.727832 1512.0839,337.706084 1512.6299,309.540318 C1538.3249,325.496657 1565.7849,302.708592 1552.1699,274.877371" id="ðŸŽ¨-Background" fill="#FFFFFF"></path>
        <path d="M1347.363,459.6106 L1344.60466,462.070083 C1299.49657,502.242554 1251.64748,542.3419 1195.174,565.0436 C1187.524,567.8356 1179.551,568.5886 1171.693,570.2516 C1106.01,570.9026 1061.407,519.9686 1019.813,476.0506 C1023.297,400.8946 1020.416,323.2926 990.761,253.0606 L990.052437,251.253302 C982.797127,232.882848 973.927921,214.670283 959.743,200.6306 C959.393,200.2906 958.913,200.8006 959.213,201.1616 C971.317833,216.00895 978.365547,234.144878 983.427318,252.440207 L983.683,253.3706 C1000.94266,315.32777 1003.94383,380.339912 1001.6734,444.331769 L1001.603,446.2706 C1000.053,489.5106 996.323,532.9806 1001.523,576.1306 C1005.315,620.6666 1024.998,660.9366 1046.434,699.3996 C1065.12,734.9246 1079.086,772.9006 1087.553,812.1506 C1084.83,823.7326 1074.966,832.2246 1064.713,838.6716 C1046.183,850.1306 1024.713,856.4006 1003.743,861.6506 C917.94,883.6996 828.571,893.9346 740.293,883.2596 C646.111,871.0196 554.193,845.6906 462.983,819.9006 C453.603,817.0206 443.193,814.4116 434.233,809.9306 C433.633,809.2706 432.923,808.7106 432.153,808.2516 C430.604,786.3446 428.552,764.6326 427.023,742.7806 C429.088,700.4516 440.835,659.2866 458.833,621.0606 C491.724,558.3886 480.86,520.2756 460.81,456.4206 C456.203,440.1716 452.913,423.1716 453.323,406.4216 C455.423,395.8706 457.453,385.3106 459.323,374.7206 C460.103,372.6906 460.953,370.6806 461.903,368.6806 C462.083,368.3006 461.573,368.0016 461.333,368.3506 C460.913,368.9506 460.513,369.5606 460.113,370.1806 C461.503,362.1006 462.793,354.0106 463.923,345.9006 C464.073,344.8306 462.693,344.4116 462.293,345.4506 C426.253,442.4836 405.331,546.4926 406.192,650.1806 C406.703,680.7106 408.803,711.2306 411.043,741.6906 L410.834626,744.627711 C410.040686,756.152712 409.62298,767.90011 413.653,778.8806 C414.511,797.7206 417.705,816.3336 416.713,835.2306 C414.387,852.4816 409.187,864.6896 396.242,876.6206 C383.422,889.6506 368.749,900.4336 352.033,907.9116 C282.538,704.5876 241.822,493.3816 342.319,292.3316 C388.962,194.4446 469.255,106.5026 577.013,78.5306 C561.65542,95.50812 573.626982,120.904506 584.668397,137.091233 L585.343,138.0706 C638.224,216.4586 754.671,235.1336 842.002,218.0836 C884.308,210.8206 923.976,183.4206 927.352,137.5996 C929.974,106.9096 912.511,76.6396 886.113,61.5206 L889.32807,61.8719933 C915.02036,64.7283712 939.97172,68.85088 959.693,87.2416 C1032.378,154.5206 1066.097,250.3366 1109.032,337.0816 L1110.74042,340.238607 C1129.12995,374.353341 1146.89994,411.19978 1177.453,435.9406 L1171.743,440.8106 L1171.743,440.8106 C1171.023,441.4306 1171.793,442.8316 1172.703,442.4606 C1175.643,441.2706 1178.563,440.0206 1181.473,438.7516 C1185.578,442.0436 1190.292,438.7126 1190.783,434.5306 C1259.874,401.4446 1318.269,348.9656 1372.473,295.7306 C1386.159,327.4366 1409.238,362.0206 1446.183,367.2006 C1411.303,395.8316 1380.433,428.9306 1347.363,459.6106 Z M792.014,1067.5376 C796.498,1064.9836 800.925,1062.3316 805.294,1059.5836 C812.505,1071.1246 810.671,1081.2706 809.895,1094.0176 C808.246,1115.2856 808.613,1136.9206 804.304,1157.8536 C796.834,1211.2656 792.414,1267.0806 781.32,1319.1326 C781.073,1322.0426 780.815,1324.9496 780.589,1327.8606 C780.291,1331.6906 774.29,1331.7106 774.589,1327.8606 C781.894,1241.4546 797.399,1154.5426 792.014,1067.5376 Z M832.683,2108.4306 C888.972,2117.7806 946.431,2111.1506 1002.743,2105.1416 L1011.00896,2104.06916 C1037.66275,2100.60263 1064.47325,2096.96191 1090.653,2091.1456 C1092.859,2089.3196 1096.258,2088.5116 1097.583,2085.8106 L1099.199,2085.9236 C1100.564,2085.1496 1101.956,2084.4246 1103.37,2083.7406 C1107.482,2083.0046 1110.834,2082.1086 1115.081,2080.9436 C1120.844,2082.9016 1121.444,2087.9736 1117.533,2091.5626 C1117.924,2093.3946 1115.734,2094.4426 1114.303,2095.2526 C1114.074,2095.7136 1113.717,2096.1536 1113.182,2096.5286 C1110.615,2098.1506 1108.022,2100.0896 1105.082,2100.8916 C1097.89851,2108.36526 1082.47138,2111.20631 1073.97279,2112.72101 L1073.133,2112.8706 C1002.513,2125.5156 930.266,2128.9146 858.753,2123.2016 C846.423833,2122.21068 834.103069,2120.95172 821.829221,2119.417 L818.483,2118.9916 C807.883,2117.6206 796.193,2117.0906 788.043,2109.3316 C783.985025,2105.47109 775.852204,2107.9071 776.080086,2114.04279 L776.093,2114.2806 C776.8058,2124.3588 753.251324,2116.02092 748.588472,2114.71791 L748.453,2114.6806 C735.413,2111.1406 722.453,2107.2306 709.373,2103.8606 L706.164845,2103.23719 C694.802608,2100.97984 693.91904,2099.83764 693.793,2085.7506 L693.370355,2081.91909 C692.799777,2076.81454 692.186884,2071.72681 691.362421,2066.65977 L691.043,2064.7606 C690.673,2062.6306 687.053,2049.4506 693.083,2051.2006 C693.843,2051.4216 694.583,2050.8106 694.623,2050.0706 C736.993,2077.0706 782.843,2099.6616 832.683,2108.4306 Z M608.893,2142.4116 L612.489065,2140.25312 C618.511889,2136.60963 624.561333,2132.65143 628.833,2127.1106 C635.88,2127.3776 638.78,2120.7346 638.513,2114.8106 C644.429,2134.0696 637.092,2149.4816 619.752,2159.2306 C559.347,2191.3146 482.064,2186.5896 421.933,2156.0826 C416.163,2153.1006 410.523,2149.8706 405.053,2146.3806 L403.822167,2145.59625 C401.772167,2144.28004 399.784667,2142.86893 398.693,2140.6106 C396.062,2132.8916 396.098,2125.2836 395.813,2116.6806 C400.369,2122.8276 407.93,2127.0876 414.213,2131.3206 C426.203,2139.3506 439.193,2145.7206 452.663,2150.8316 C502.542,2169.3736 561.787,2168.2416 608.893,2142.4116 Z M426.203,561.0406 C431.02,519.1966 439.275,477.9326 447.273,436.6206 C450.524,481.0206 473.555,524.2566 463.313,569.1706 C453.302,605.3256 431.849,637.3996 422.683,673.8706 C420.901,636.2056 421.997,598.5186 426.203,561.0406 Z M485.563,924.1006 C480.143,925.0906 474.573,925.0706 469.092,924.6806 C446.881,921.9876 443.368,935.4486 443.444,954.2706 C442.768167,966.437267 442.023583,978.603933 441.389069,990.776966 L441.023,998.0816 C440.563,1007.8106 439.342,1018.6906 440.563,1028.8606 C436.539,1038.0966 434.363,1047.7256 433.723,1057.8206 C431.873,1057.3206 429.893,1057.5606 428.473,1058.5306 C420.323,1043.9916 418.373,1026.2416 416.693,1009.8706 C415.873,1001.8206 404.053,1001.4506 403.873,1009.8706 C403.643,1021.3206 403.473,1032.7806 403.273,1044.2306 L402.963,1061.9006 L402.963,1061.9006 L402.963801,1062.16388 C403.013686,1064.68035 404.150184,1071.03566 401.059109,1070.79105 L400.883,1070.7706 C395.131,1070.3396 394.866,1049.8516 393.622,1044.7416 L388.823,1010.4706 L388.823,1010.4706 C387.744596,1002.80305 376.731,1005.30561 375.973842,1011.99342 L375.953,1012.2106 C374.606,1027.8726 373.24,1043.5366 372.083,1059.2116 C371.718,1061.9226 371.669,1066.8276 368.713,1068.0106 C366.102,1065.6636 365.607,1061.7126 365.052,1058.4306 C360.136,1013.2086 350.905,968.5666 345.213,923.4506 C348.903,922.9216 352.283,920.6206 353.363,917.0816 C382.977,911.0236 414.055,894.3346 428.933,867.2206 C431.903,869.8406 434.223,873.2706 437.103,875.9606 C441.653,880.2306 446.653,884.0816 451.433,888.0706 C464.831,899.4266 478.279,910.1466 491.403,921.8506 C489.483,922.4806 487.733,923.7106 485.563,924.1006 Z M807.763,-1.6294 C807.913,-2.2194 808.733,-2.0494 808.773,-1.4894 C809.593,9.9116 812.323,21.9406 816.483,33.1206 C817.973,33.3606 819.403,34.2006 820.443,35.8316 C821.843,38.0220762 828.540052,39.5495138 832.033994,40.5797697 L832.533,40.7306 C847.038,45.2146 862.177,47.0246 877.222,48.6236 C947.981,52.5406 973.734,74.7406 1013.652,130.8316 C1061.036,194.0216 1087.623,269.0166 1123.343,338.7606 C1132.133,355.7206 1141.623,372.2806 1152.053,388.2906 L1153.04756,389.810385 C1162.36421,404.003787 1172.67128,418.382669 1186.903,427.9606 C1221.34179,399.054903 1258.16991,373.246594 1292.23742,343.893081 L1295.423,341.1306 C1320.983,319.0106 1345.393,295.5706 1368.623,271.0106 C1371.363,268.1106 1376.503,267.3506 1380.303,269.0506 C1381.788,246.9436 1388.024,225.2606 1393.774,203.9006 C1399.811,176.3876 1410.298,157.7916 1441.933,164.6006 C1454.66696,132.501485 1471.71854,101.175019 1497.53483,77.739052 L1499.19188,76.2450605 C1504.68796,71.2485468 1511.90234,64.0840426 1519.623,64.7306 C1526.633,65.3106 1530.233,71.6616 1530.513,78.1206 C1530.83383,85.7826833 1527.49668,93.5846586 1525.10553,100.766546 L1524.903,101.3806 C1521.823,110.8106 1518.503,120.1616 1514.993,129.4406 C1511.613,138.3706 1507.993,147.2106 1504.203,155.9706 C1500.34,163.2986 1497.499,175.4316 1490.463,179.8606 C1486.831,182.0226 1483.09,179.1156 1482.703,175.4006 C1482.153,170.5306 1484.953,166.2516 1487.013,162.0106 C1488.913,158.1106 1490.773,154.1906 1492.583,150.2506 C1499.857,134.3886 1506.384,118.1976 1511.993,101.6806 C1513.659,96.1206 1520.479,81.6676 1518.113,76.6716 C1515.744,76.6906 1510.867,81.7006 1509.143,83.1906 C1482.023,105.6776 1464.397,136.7496 1444.233,165.1006 C1456.887,168.7206 1470.622,170.4186 1481.133,178.9206 C1502.751,197.8026 1485.391,235.1916 1456.413,228.2306 C1464.501,245.4346 1471.457,273.2276 1457.123,288.7706 C1452.813,292.8106 1444.443,291.5206 1443.133,285.0816 C1441.733,278.2416 1443.413,272.3806 1444.953,265.7516 C1447.743,252.2546 1449.435,238.4316 1447.533,224.6906 L1446.93488,224.334118 C1442.02272,221.350091 1438.93396,217.999869 1439.083,211.8316 C1438.443,207.3706 1443.193,201.3606 1447.963,205.0106 C1449.513,206.1906 1451.403,206.2806 1453.033,207.4706 C1455.79781,210.102694 1459.2327,212.17264 1463.15219,212.14034 L1463.533,212.1306 C1468.573,212.0906 1472.293,209.0506 1473.833,204.3316 C1478.053,191.3806 1463.443,187.0306 1453.943,184.5416 L1451.48916,183.783697 C1425.5579,175.849299 1416.15946,175.71992 1409.643,206.2206 C1402.586,228.9766 1396.366,252.4036 1384.433,273.2006 L1385.91764,276.751275 C1397.91429,305.353269 1412.97604,338.27812 1445.233,347.0506 C1446.375,337.4966 1456.7,337.1516 1464.173,337.3906 C1473.819,336.8696 1483.5,331.9706 1490.313,324.9306 C1496.265,318.9316 1499.259,310.5716 1505.843,305.2206 C1502.863,298.4406 1509.593,290.9606 1516.623,294.8606 C1521.363,297.4806 1524.223,301.2206 1529.943,301.9806 C1535.013,302.6616 1539.683,300.8906 1543.533,297.6406 C1553.583,289.1406 1548.803,276.6506 1551.263,265.5206 C1548.023,271.1306 1542.643,275.4306 1536.883,278.4006 C1498.421,300.4196 1498.807,257.2476 1520.063,264.3406 C1543.153,259.0826 1542.763,250.7306 1534.133,231.1206 L1533.9792,230.659999 C1532.57584,226.543584 1529.44004,219.266044 1532.353,214.8316 C1532.513,214.6106 1532.803,214.5406 1533.013,214.7416 C1535.653,217.3406 1536.693,221.7006 1538.922,224.7606 L1541.57934,227.936901 C1549.6508,237.67086 1558.0964,249.2355 1552.853,262.2306 C1553.413,262.1106 1554.023,262.3506 1554.213,263.0306 C1556.693,272.0606 1561.623,280.9306 1560.603,290.5906 C1558.47,311.7606 1535.541,323.3836 1516.553,314.5606 C1512.901,341.7756 1486.087,361.3636 1459.213,360.1506 C1458.363,363.8806 1455.603,367.1616 1451.333,367.5016 C1411.783,430.9126 1256.315,594.0476 1180.073,587.2306 C1172.783,590.5406 1163.503,588.8806 1155.783,587.8816 C1096.571,580.1526 1047.086,536.8116 1019.483,485.4406 C1009.336,653.7096 1066.675,651.6676 1105.043,791.0706 C1108.883,793.4806 1111.123,798.7416 1108.143,803.1906 C1109.79,811.6246 1113.161,820.2676 1111.863,828.9216 C1111.223,831.3906 1109.933,833.6406 1108.763,835.9006 C1106.355,840.5126 1100.006,839.9576 1097.033,836.3706 C1102.075,854.6256 1099.925,873.7896 1098.633,892.4006 C1097.843,903.3316 1097.903,914.1106 1097.892,925.0506 C1096.388,1091.5916 1015.101,1241.7526 973.313,1399.7516 C961.493,1444.0406 952.413,1489.1716 948.843,1534.9216 C945.053,1583.5906 947.693,1632.5306 943.133,1681.1406 C937.848,1737.4396 922.823,1792.1596 905.1,1845.6746 C906.161,1850.0106 908.363,1854.9436 907.003,1858.6796 C881.685,1862.9506 857.25,1870.7156 832.663,1877.9266 C831.699,1878.2026 831.099,1878.8016 830.796,1879.5146 L825.176,1881.3816 L825.176,1881.3816 C821.53,1882.5966 823.092,1888.3936 826.77,1887.1686 L832.913368,1885.12594 C853.925859,1878.16708 875.182,1871.52016 897.035,1868.3996 L897.706274,1868.12542 C902.075391,1866.37748 907.216115,1865.0937 909.519,1869.9096 C910.687,1872.3516 909.762,1874.8106 908.093,1876.7436 C906.683,1878.3766 904.889,1879.3806 903.656,1881.2306 C902.277,1883.6656 901.109,1886.2286 899.74,1888.6986 C899.753,1900.9236 895.734,1913.0256 897.293,1925.2206 C898.466,1930.2806 902.565,1935.1336 899.963,1940.5506 L901.147684,1941.30665 C908.042766,1945.73979 914.631919,1950.60195 919.163,1957.4506 C920.153,1958.9506 920.903,1962.0406 922.033,1963.1006 C923.213,1964.2006 925.413,1964.3316 926.863,1964.8506 C934.206,1967.0856 938.826,1973.7196 938.193,1981.4216 C955.388,1986.3716 949.466,2003.8476 967.213,2016.0106 C985.433,2029.2206 1010.103,2030.6716 1031.623,2034.1006 L1068.293,2039.9516 L1068.293,2039.9516 L1070.42533,2040.21088 C1093.63595,2043.07741 1123.90745,2048.47073 1128.578,2075.6026 L1128.95216,2076.04032 C1134.56179,2082.74174 1139.95513,2095.46423 1133.031,2102.7376 C1127.402,2107.7366 1119.715,2110.0846 1112.898,2112.9966 C1103.446,2119.8296 1089.824,2123.0126 1079.453,2124.9406 C989.795,2141.5536 897.434,2143.4796 807.173,2130.5906 L805.663615,2130.36971 C799.355977,2129.42482 792.842259,2128.1443 787.083,2125.4406 C779.029,2139.0066 763.52,2137.2996 750.463,2133.4506 C740.213,2130.9116 729.963,2128.4116 719.713,2125.9116 L718.75216,2125.65893 C702.919834,2121.59271 680.46774,2120.35718 676.633,2101.0306 C674.653,2091.0816 674.783,2080.0106 674.883,2069.9006 L674.860328,2066.58245 C674.847215,2058.06473 675.517091,2046.51772 685.153,2044.7206 C671.767,2019.9046 674.684,1989.3916 687.152,1964.7906 L687.813125,1963.58314 C696.987908,1946.7465 702.719465,1932.68907 699.673,1912.8006 C693.563,1907.0406 690.713,1898.7706 688.453,1890.6406 C683.705,1873.5266 679.558,1856.2326 676.048,1838.8176 L681.493349,1827.62509 C697.462298,1794.78383 713.255714,1761.80127 725.186,1727.2496 C726.283,1724.0766 721.132,1721.8346 719.703,1724.9366 C704.616,1757.7016 686.167,1788.8346 672.121,1822.0916 C662.808,1839.4826 651.627,1855.8356 639.092,1871.0596 L638.537448,1871.83455 C633.670986,1878.50946 629.5954,1880.73038 621.603,1883.4806 C620.323,1884.0206 619.023,1884.0306 617.803,1883.6806 C610.176,1894.0256 600.919,1902.2206 596.913,1914.5706 C592.543,1928.2306 590.873,1943.2516 590.012,1957.5316 C589.553,1976.1356 597.298,1993.7026 602.163,2011.3716 C609.601,2035.1726 617.886,2058.7156 627.05,2081.9126 C631.944,2083.8946 636.386,2086.9406 640.483,2090.6956 C643.898,2090.3646 647.496,2091.9176 648.773,2096.0816 L649.303074,2097.82173 C653.816042,2112.80236 657.644663,2130.10526 651.784,2145.1116 C635.586,2181.4716 583.531,2190.5356 547.923,2194.8906 C495.193,2199.9006 439.88,2187.2916 395.983,2157.2206 C389.783,2152.8706 385.553,2147.9216 384.523,2140.2116 L384.414808,2139.24919 C382.997747,2126.35526 382.66861,2111.05475 391.613,2101.0606 C399.259,2035.6586 411.784,1970.2816 429.823,1906.9306 C429.683,1905.1406 429.573,1903.3506 429.483,1901.5506 C419.414,1891.0576 415.473,1876.2876 414.343,1862.1006 C414.212,1856.1416 420.238,1854.8976 424.911,1854.1686 L426.632635,1854.15295 C441.860043,1854.04503 457.574727,1854.79325 471.162,1860.4816 L470.492984,1860.50854 C469.805375,1860.54247 469.08725,1860.6231 468.566,1860.9816 C475.374,1863.1646 482.799,1864.1356 489.307,1867.0056 C494.1273,1867.24215 498.33029,1869.53279 503.212321,1869.94646 L503.989,1869.9956 C504.857,1870.0716 505.517,1869.8156 505.992,1869.3836 C519.107,1871.7236 532.146,1874.8736 545.24,1876.7996 C549.017,1877.3556 550.647,1871.5756 546.835,1871.0146 C529.318,1868.4366 511.881,1863.7086 494.242,1861.5186 C490.342,1860.0036 486.573,1858.0616 482.663,1856.4986 C482.435,1855.9796 482.007,1855.5146 481.312,1855.1886 C477.023,1853.1736 472.568,1851.5166 468.012,1850.1316 C456.331,1846.5056 444.061,1844.9816 431.897,1844.2616 L432.759055,1835.5551 C446.754891,1693.26866 456.96702,1547.16838 515.033,1414.6616 C502.696,1386.1306 485.917,1358.9586 475.123,1329.6106 C470.643,1317.8806 467.923,1305.9216 464.373,1293.9506 C462.065,1288.2166 460.158,1282.4096 459.233,1276.2606 C445.017,1211.1556 436.98,1144.9296 428.592,1078.8906 C422.946,1074.2196 419.216,1067.4856 415.943,1061.2906 L415.928327,1062.23184 C415.73491,1072.42848 414.2964,1084.1713 401.473,1083.8706 C391.123,1083.6206 386.592,1075.8906 384.273,1067.3406 C379.765,1085.2186 359.734,1086.1966 353.863,1068.5906 C351.243,1061.4916 351.353,1053.3906 350.573,1045.9406 C346.388,1005.0536 337.654,964.1946 340.163,923.0206 C337.523,922.1206 335.223,920.1006 334.102,916.7306 C284.101,765.0986 239.603,602.8236 272.062,442.8186 C304.518,286.0536 392.416,110.5626 558.523,66.1106 C592.151,57.6036 626.312,54.7166 660.783,52.5206 C665.757,42.8866 668.972,31.9276 669.623,21.0206 C669.823,17.8706 669.673,14.7516 669.663,11.6006 C669.653,8.6906 670.893,5.2206 670.313,2.5016 C670.173,1.8406 671.073,1.6206 671.313,2.2306 C672.043,4.1406 673.533,5.1006 674.543,6.7106 C677.055,11.2616 677.72,16.6646 678.383,21.7506 C680.875352,41.6043955 675.206399,62.0319258 663.209202,77.972704 L662.793,78.5206 C659.073,83.5016 651.993,92.5206 644.673,88.2006 C638.294481,84.4271309 642.379459,76.7422165 646.184706,72.6262235 L646.473,72.3206 C651.623,66.9606 655.943,61.2306 659.453,54.9806 C643.857,59.1416 628.383,63.7236 612.833,68.0606 L612.09509,68.4665731 C599.918242,75.1057756 581.82362,82.21252 583.422,98.6726 C615.802,196.4986 759.056,221.6366 847.593,198.2806 L849.004488,197.897371 C865.944404,193.220615 882.907764,185.704593 894.434865,172.005004 L894.912,171.4306 C915.377,147.1736 913.809,107.0976 888.183,87.1806 C872.963,74.7006 851.933,68.0706 832.943,63.7516 C838.466,72.9316 850.681,79.4146 852.903,90.2906 C853.473,94.0206 851.413,97.5706 847.303,97.6506 C836.863,97.8506 829.163,86.6906 823.683,79.1906 C812.247,63.5006 805.759,44.5326 804.373,25.2106 C803.683,15.8106 805.413,7.3406 807.763,-1.6294 Z M1498.543,174.8604 C1497.989,174.4814 1498.295,173.3544 1499.043,173.6614 C1527.423,185.4364 1539.008,227.6074 1517.643,250.8314 C1510.553,258.3204 1499.923,262.6504 1490.243,258.7214 C1478.346,256.7064 1471.396,244.6794 1469.873,233.6004 C1469.76947,233.083694 1470.34802,232.848677 1470.67489,233.173806 L1470.733,233.2414 C1475.228,238.7894 1482.314,242.5024 1488.773,245.3414 C1490.583,244.3604 1492.563,243.5814 1494.553,243.1204 C1497.383,242.4804 1500.283,244.7004 1500.013,247.5914 C1513.37206,245.14412 1518.72664,229.229286 1519.13222,217.155091 L1519.143,216.7904 C1519.683,200.0814 1512.133,184.6304 1498.543,174.8604 Z" id="ðŸ–-Ink" fill="#000000"></path>
    </g>
</svg>