<?xml version="1.0" encoding="UTF-8"?>
<svg width="1645px" height="2500px" viewBox="0 0 1645 2500" version="1.1" xmlns="http://www.w3.org/2000/svg" xmlns:xlink="http://www.w3.org/1999/xlink">
    <!-- Generator: Sketch 62 (91390) - https://sketch.com -->
    <title>pose/standing/pointing_finger-2</title>
    <desc>Created with Sketch.</desc>
    <g id="pose/standing/pointing_finger-2" stroke="none" stroke-width="1" fill="none" fill-rule="evenodd">
        <path d="M427.6609,674.966549 L417.8169,673.98588 C412.9729,593.237493 426.5899,513.904186 442.4929,435.872112 L452.3879,436.456319 C455.8789,481.426273 478.8229,524.022451 468.3159,570.301628 C458.2699,606.854009 436.9839,638.361239 427.6609,674.966549 Z M1550.5829,268.287602 L1544.8199,269.520928 C1555.5559,249.140593 1545.5439,242.434696 1533.3959,225.585568 L1532.0729,228.646413 L1527.3989,218.410309 C1526.4709,215.810837 1525.5229,213.603833 1522.9599,212.632152 C1520.4559,199.896441 1513.0029,188.233273 1503.0769,181.897873 L1501.1759,184.037968 C1497.2419,180.592645 1492.4999,179.281425 1487.9849,177.685591 C1497.6759,163.02649 1503.9099,144.008307 1510.4449,128.290643 C1515.7659,111.783052 1524.0849,95.7627985 1525.6479,79.0235215 C1524.3899,62.9363592 1509.2159,73.386174 1501.8149,81.4102815 C1479.2079,101.274317 1459.7379,132.73461 1445.1479,170.940747 C1420.0929,164.409613 1405.7199,171.301258 1398.7599,205.601696 C1392.3529,228.903065 1385.8039,252.803621 1384.9389,276.961827 C1381.5749,275.805397 1375.6079,271.4563 1372.3839,274.866671 C1316.6989,335.912803 1250.9489,382.942961 1187.3619,434.414091 C1139.3089,398.997168 1114.3029,328.927286 1087.8749,276.326689 C1041.7709,186.042247 995.6659,53.8676697 877.0779,54.333038 C861.3619,52.6912666 846.0129,50.808822 831.1769,46.2360294 C825.4319,44.6721523 818.3299,42.788709 816.3799,39.292455 C812.8659,28.0317411 812.1999,15.8472811 806.0219,5.52029959 C789.0689,-22.0902201 752.3389,-24.2602743 723.5569,-18.2654121 C674.6899,-9.19172933 675.9199,-14.4885391 672.3919,37.0065581 C671.3339,49.2309638 661.8769,50.9815874 651.7809,53.5131509 C640.3189,57.1342354 628.6419,60.0932187 616.8609,62.4769828 C618.0839,62.1324505 619.3059,61.7919128 620.5289,61.4453832 C429.2749,64.4812621 302.2889,286.75753 277.0969,444.011063 C247.8369,604.892672 285.6819,783.939622 345.5129,919.064195 C342.9439,968.272396 352.5789,1017.70429 358.6789,1066.20546 C362.5079,1078.33998 375.7639,1079.52138 379.5539,1065.46546 C379.5539,1065.46546 384.2259,1046.96457 384.2259,1046.96457 L389.2269,1065.37958 C392.3979,1076.77411 397.4939,1078.12827 402.0789,1078.20616 C407.7669,1078.20616 410.8849,1075.39798 411.0719,1060.58209 L420.4929,1058.31317 C424.1229,1065.24276 427.7279,1071.37044 433.4319,1075.63166 C444.9019,1159.17425 452.1019,1246.03934 479.9429,1326.8776 C491.0449,1356.87788 508.0939,1384.1159 520.6149,1413.54895 C461.5789,1547.05272 451.6829,1694.9939 437.5079,1837.93785 C438.6479,1838.02673 444.5069,1838.54203 445.7579,1838.64889 L442.5249,1847.2582 C438.1099,1849.12866 435.5149,1853.07131 434.1779,1857.43539 C431.1999,1857.18872 418.7759,1857.2816 419.4679,1860.13273 C420.9049,1876.92693 425.6049,1888.90866 434.5109,1897.65379 C434.6329,1900.34714 434.7979,1903.09441 435.0059,1905.64395 C417.3379,1967.4111 404.3909,2033.25771 396.5239,2101.15555 C386.5229,2110.79646 384.0199,2142.50941 398.9359,2150.96893 C440.1139,2179.37636 495.4279,2192.86505 547.5079,2187.74301 C603.8709,2182.40026 671.0919,2159.9008 644.1189,2095.49523 C643.7699,2093.49694 641.0329,2093.40107 638.8749,2093.83748 C634.0969,2089.19278 628.9169,2085.68055 623.3139,2083.70723 C612.1809,2055.85005 602.1679,2026.6407 593.4339,1997.47828 C589.1789,1984.08447 584.7789,1970.23427 585.1409,1955.5472 C587.2469,1919.47917 590.9529,1904.5724 615.9699,1876.16197 C631.4569,1883.62184 660.9709,1829.60017 667.7349,1818.25957 C677.220233,1795.89393 681.779567,1802.40109 681.4129,1837.78107 C687.3349,1858.50693 689.6729,1893.12194 704.4829,1908.54501 C712.5389,1962.24212 657.4139,1986.84372 692.9349,2046.39388 C680.9129,2047.22076 679.7919,2052.03622 680.0019,2066.66237 C679.9619,2077.16511 679.6889,2088.18615 681.6659,2098.00283 C684.0629,2110.06345 695.1739,2113.29806 711.8519,2116.85424 C725.3679,2119.84917 738.3819,2123.27053 751.7949,2126.50414 C765.3599,2131.021 779.6519,2130.65051 785.2289,2116.90616 C852.4029,2139.7142 1046.0499,2137.10475 1110.0979,2106.88077 C1127.7849,2099.7884 1140.2599,2095.77984 1124.0169,2075.80995 C1115.0749,2018.81832 953.6249,2083.05221 933.0039,2020.54107 C930.0619,2012.42508 891.227219,1961.59699 880.696219,1955.5472 C884.997219,1949.34862 880.524813,1899.46711 880.696219,1897.65379 C883.439789,1868.6294 932.798539,1737.18525 938.2829,1679.18735 C943.9219,1580.62615 938.6329,1497.53394 968.6109,1397.36891 C1010.5159,1238.76921 1091.9229,1089.93524 1093.0219,922.106066 C1091.6229,894.283833 1099.3219,864.661045 1092.3419,837.359107 L1101.0109,832.842238 C1102.2589,834.282283 1104.5139,834.242338 1104.9639,832.283996 C1110.6509,823.038546 1104.2759,811.951596 1102.9679,801.828338 C1105.9439,798.63767 1104.4579,795.72762 1100.8669,793.986983 C1062.3589,657.819825 997.9499,637.927828 1015.6799,467.719879 C1044.6099,529.12053 1108.6939,591.277155 1179.3339,582.13856 C1250.4939,592.793097 1416.4919,419.149812 1448.5519,363.01701 C1454.4279,363.47339 1454.4999,359.254118 1455.3939,355.278515 C1484.6759,358.727832 1512.0839,335.706084 1512.6299,307.540318 C1538.3249,323.496657 1565.7849,300.708592 1552.1699,272.877371 C1551.6349,271.373413 1551.0919,269.840494 1550.5829,268.287602 Z" id="ðŸŽ¨-Background" fill="#FFFFFF"></path>
        <path d="M807.7625,-1.6293 C807.9125,-2.2193 808.7335,-2.0493 808.7735,-1.4893 C809.5925,9.9117 812.3225,21.9407 816.4835,33.1207 C817.9725,33.3607 819.4025,34.2007 820.4435,35.8317 C821.842548,38.0202714 828.539554,39.5494324 832.033495,40.5798568 L832.5325,40.7307 C847.0375,45.2137 862.1775,47.0247 877.2225,48.6237 C947.9815,52.5407 973.7345,74.7407 1013.6515,130.8317 C1061.0355,194.0217 1087.6225,269.0167 1123.3425,338.7607 C1132.1325,355.7207 1141.6225,372.2807 1152.0525,388.2907 L1153.54713,390.570995 C1162.73307,404.515887 1172.92491,418.553803 1186.9025,427.9607 C1221.34226,399.055003 1258.17041,373.246694 1292.237,343.892269 L1295.4225,341.1297 C1320.9835,319.0107 1345.3935,295.5707 1368.6225,271.0107 C1371.3625,268.1107 1376.5025,267.3507 1380.3025,269.0507 C1381.7875,246.9437 1388.0245,225.2607 1393.7735,203.9007 C1399.8115,176.3877 1410.2975,157.7917 1441.9325,164.6007 L1442.74253,162.574481 C1455.3883,131.186073 1472.26154,100.68173 1497.53433,77.739152 L1499.19151,76.2451605 C1504.68837,71.2486468 1511.90184,64.0841426 1519.6225,64.7307 C1526.6325,65.3107 1530.2335,71.6617 1530.5125,78.1207 C1530.83333,85.7827833 1527.49618,93.5847586 1525.10595,100.765727 L1524.9035,101.3797 C1521.8225,110.8107 1518.5025,120.1617 1514.9925,129.4407 C1511.6125,138.3707 1507.9925,147.2107 1504.2035,155.9707 C1500.3405,163.2967 1497.4985,175.4317 1490.4625,179.8607 C1486.8305,182.0227 1483.0895,179.1157 1482.7025,175.4007 C1482.1535,170.5307 1484.9525,166.2517 1487.0125,162.0107 C1488.9125,158.1107 1490.7735,154.1907 1492.5825,150.2507 C1499.8575,134.3887 1506.3845,118.1977 1511.9925,101.6807 L1512.16051,101.142746 C1514.06956,95.240237 1520.40667,81.5139462 1518.1125,76.6707 C1515.7435,76.6907 1510.8665,81.7007 1509.1425,83.1907 C1482.0235,105.6777 1464.3975,136.7497 1444.2335,165.1007 C1456.8865,168.7207 1470.6225,170.4187 1481.1325,178.9197 C1502.7505,197.8027 1485.3905,235.1917 1456.4125,228.2307 C1464.5005,245.4347 1471.4565,273.2277 1457.1225,288.7707 C1452.8135,292.8107 1444.4435,291.5207 1443.1325,285.0817 C1441.7335,278.2417 1443.4125,272.3797 1444.9525,265.7517 C1447.7425,252.2547 1449.4345,238.4317 1447.5325,224.6907 L1446.93449,224.334218 C1442.02322,221.350191 1438.93442,217.999969 1439.0825,211.8317 C1438.4435,207.3707 1443.1935,201.3607 1447.9625,205.0107 C1449.5125,206.1907 1451.4035,206.2807 1453.0325,207.4707 C1455.79731,210.102794 1459.2322,212.17274 1463.15169,212.139531 L1463.5325,212.1297 C1468.5725,212.0907 1472.2925,209.0507 1473.8325,204.3317 C1478.0525,191.3797 1463.4435,187.0307 1453.9435,184.5417 L1451.48966,183.783797 C1425.5584,175.849399 1416.15996,175.72002 1409.6435,206.2207 L1408.8625,208.751738 C1402.11785,230.708426 1395.92354,253.173959 1384.4325,273.2007 L1386.29319,277.646562 C1398.23045,306.036682 1413.31255,338.3696 1445.2335,347.0507 C1446.3745,337.4967 1456.6995,337.1517 1464.1725,337.3907 C1473.8185,336.8697 1483.4995,331.9707 1490.3135,324.9307 C1496.2655,318.9317 1499.2585,310.5717 1505.8425,305.2207 C1502.8625,298.4407 1509.5925,290.9607 1516.6225,294.8607 C1521.3625,297.4807 1524.2235,301.2207 1529.9435,301.9807 C1535.0125,302.6617 1539.6825,300.8907 1543.5325,297.6407 C1553.5825,289.1407 1548.8025,276.6507 1551.2625,265.5207 C1548.0235,271.1297 1542.6435,275.4307 1536.8825,278.4007 C1498.4205,300.4197 1498.8075,257.2487 1520.0635,264.3407 C1543.1535,259.0827 1542.7635,250.7307 1534.1325,231.1207 L1533.89602,230.419149 C1532.45786,226.26483 1529.49556,219.180867 1532.3525,214.8317 C1532.5125,214.6107 1532.8025,214.5407 1533.0125,214.7417 C1535.6535,217.3407 1536.6935,221.7007 1538.9225,224.7607 L1541.04243,227.290787 C1549.26903,237.157682 1558.21242,248.94682 1552.8525,262.2307 C1553.4125,262.1107 1554.0235,262.3507 1554.2125,263.0307 C1556.6935,272.0607 1561.6225,280.9307 1560.6025,290.5907 C1558.4705,311.7607 1535.5405,323.3837 1516.5525,314.5607 C1512.9015,341.7757 1486.0865,361.3637 1459.2125,360.1507 C1458.3625,363.8797 1455.6025,367.1617 1451.3325,367.5017 C1411.7825,430.9127 1256.3155,594.0467 1180.0725,587.2307 C1172.7825,590.5407 1163.5025,588.8797 1155.7825,587.8807 C1096.5705,580.1527 1047.0855,536.8117 1019.4835,485.4407 C1009.3365,653.7097 1066.6745,651.6677 1105.0425,791.0707 C1108.8825,793.4807 1111.1225,798.7417 1108.1435,803.1907 C1109.7895,811.6247 1113.1605,820.2677 1111.8625,828.9207 C1111.2225,831.3907 1109.9325,833.6407 1108.7625,835.9007 C1106.3555,840.5127 1100.0065,839.9577 1097.0325,836.3707 C1102.0745,854.6257 1099.9245,873.7897 1098.6325,892.4007 C1097.8425,903.3317 1097.9025,914.1107 1097.8925,925.0507 C1096.3875,1091.5917 1015.1015,1241.7527 973.3135,1399.7517 C961.4925,1444.0417 952.4125,1489.1697 948.8425,1534.9207 C945.0525,1583.5907 947.6935,1632.5317 943.1325,1681.1407 C937.7475,1738.5977 922.1865,1794.3917 904.0235,1848.9707 C905.2625,1852.1207 903.8725,1856.1207 900.9725,1858.1407 C899.9835,1861.0817 898.9925,1864.0017 898.0025,1866.9307 C899.6125,1874.7307 900.0125,1882.5607 899.6825,1890.6297 C899.4085,1902.1947 895.7815,1913.6697 897.2925,1925.2207 C898.4655,1930.2817 902.5645,1935.1327 899.9625,1940.5507 L901.147184,1941.30675 C908.042266,1945.73989 914.631419,1950.60205 919.1625,1957.4507 C920.1525,1958.9507 920.9025,1962.0407 922.0325,1963.1007 C923.2125,1964.2007 925.4125,1964.3317 926.8625,1964.8507 C934.2065,1967.0857 938.8255,1973.7197 938.1935,1981.4207 C955.3885,1986.3717 949.4655,2003.8487 967.2125,2016.0107 C985.4325,2029.2207 1010.1035,2030.6707 1031.6225,2034.1007 L1068.2925,2039.9517 L1068.2925,2039.9517 L1070.51119,2040.22098 C1094.65593,2043.20443 1125.94346,2049.02416 1128.8845,2078.1067 C1133.3985,2081.2267 1134.9415,2087.5977 1136.2425,2092.6467 C1137.2455,2096.6317 1137.1465,2100.7497 1134.2195,2103.9017 C1130.7705,2107.6167 1124.6355,2109.1407 1120.1035,2111.1197 C1114.1775,2113.4627 1109.0215,2117.4737 1102.5985,2118.5967 C1094.9215,2121.7717 1086.4465,2123.6397 1079.4525,2124.9407 C1002.3895,2139.2157 923.3165,2142.6587 845.3135,2135.1407 C832.5725,2133.9117 819.8425,2132.4117 807.1725,2130.5907 L805.663115,2130.36981 C799.355477,2129.42492 792.841759,2128.1444 787.0825,2125.4407 C779.0285,2139.0057 763.5195,2137.2997 750.4625,2133.4507 C740.2125,2130.9117 729.9625,2128.4117 719.7125,2125.9117 C703.8445,2121.6357 680.5465,2120.7517 676.6325,2101.0307 C674.6525,2091.0817 674.7825,2080.0107 674.8825,2069.9007 L674.860835,2066.87505 C674.833488,2058.33156 675.406722,2046.53848 685.1525,2044.7207 C671.7665,2019.9057 674.6835,1989.3917 687.1525,1964.7907 L687.813624,1963.58324 C696.988362,1946.7466 702.718965,1932.68917 699.6725,1912.8007 C693.5635,1907.0407 690.7125,1898.7707 688.4525,1890.6407 C682.0995,1867.7117 676.7915,1844.4617 672.7025,1821.0207 C663.2685,1838.8077 651.8845,1855.5207 639.0925,1871.0597 C634.0085,1878.3157 629.8395,1880.6597 621.6025,1883.4807 C620.3225,1884.0207 619.0225,1884.0307 617.8025,1883.6807 C610.1755,1894.0257 600.9195,1902.2207 596.9125,1914.5707 C592.5425,1928.2307 590.8725,1943.2517 590.0115,1957.5317 C589.5535,1976.1357 597.2985,1993.7027 602.1625,2011.3717 C609.7845,2035.7557 618.2895,2059.8727 627.7315,2083.6187 C633.9075,2085.0737 643.2575,2084.3507 645.5075,2091.7547 C646.9565,2092.6287 648.1455,2094.0377 648.7725,2096.0817 L649.302574,2097.82183 C653.815542,2112.80246 657.644163,2130.10536 651.7835,2145.1117 C635.5865,2181.4717 583.5305,2190.5367 547.9225,2194.8907 C495.1925,2199.9007 439.8795,2187.2917 395.9825,2157.2207 C389.7825,2152.8707 385.5525,2147.9207 384.5225,2140.2117 L384.361695,2138.76465 C382.990468,2125.97367 382.779915,2110.92992 391.6125,2101.0607 C399.2585,2035.6587 411.7845,1970.2817 429.8225,1906.9307 C429.6825,1905.1407 429.5725,1903.3507 429.4825,1901.5507 C419.4135,1891.0577 415.4725,1876.2867 414.3425,1862.1007 C414.5095,1853.7987 425.0875,1854.5327 431.0125,1853.1207 C445.9855,1705.1987 454.5875,1552.6577 515.0325,1414.6617 C502.982407,1386.79323 486.694516,1360.2232 475.885149,1331.65475 L475.1225,1329.6107 C470.6425,1317.8797 467.9225,1305.9207 464.3735,1293.9507 C462.0645,1288.2167 460.1575,1282.4097 459.2325,1276.2607 C445.0175,1211.1557 436.9795,1144.9297 428.5925,1078.8907 C422.9455,1074.2197 419.2155,1067.4857 415.9435,1061.2907 L415.915051,1062.86451 C415.670345,1072.9077 414.03245,1084.1652 401.4725,1083.8707 C391.1225,1083.6207 386.5925,1075.8907 384.2725,1067.3407 C379.7645,1085.2187 359.7335,1086.1967 353.8625,1068.5907 C351.2425,1061.4917 351.3525,1053.3907 350.5725,1045.9407 C346.3875,1005.0537 337.6535,964.1947 340.1625,923.0207 C337.5225,922.1207 335.2225,920.1007 334.1025,916.7307 C284.1015,765.0987 239.6025,602.8237 272.0615,442.8187 C304.5185,286.0537 392.4155,110.5627 558.5225,66.1107 C592.1515,57.6037 626.3125,54.7167 660.7825,52.5207 C665.7565,42.8867 668.9725,31.9277 669.6225,21.0207 C669.8225,17.8707 669.6725,14.7517 669.6625,11.6007 C669.6525,8.6907 670.8925,5.2207 670.3125,2.5017 C670.1725,1.8407 671.0725,1.6207 671.3125,2.2307 C672.0425,4.1407 673.5325,5.1007 674.5425,6.7107 C677.0555,11.2617 677.7195,16.6647 678.3825,21.7507 C680.9035,41.8327 675.0745,62.5017 662.7925,78.5207 L662.110203,79.4270119 C658.248433,84.5053324 651.566919,92.2695372 644.6725,88.2007 C638.1325,84.3317 642.5925,76.3507 646.4725,72.3207 C651.6225,66.9607 655.9435,61.2307 659.4525,54.9807 C643.8575,59.1417 628.3825,63.7237 612.8325,68.0607 L611.720008,68.6700695 C599.550515,75.2518842 581.83943,82.38055 583.4215,98.6717 C615.8025,196.4987 759.0565,221.6367 847.5925,198.2807 C864.998287,193.6335 882.588067,186.084263 894.434404,172.005065 L894.9115,171.4307 C915.3775,147.1737 913.8085,107.0977 888.1825,87.1807 C872.9625,74.7007 851.9325,68.0707 832.9435,63.7517 C838.4655,72.9317 850.6815,79.4147 852.9025,90.2907 C853.4725,94.0207 851.4125,97.5707 847.3025,97.6507 C836.8625,97.8507 829.1625,86.6907 823.6835,79.1907 C812.2465,63.5007 805.7595,44.5327 804.3725,25.2107 C803.6825,15.8107 805.4125,7.3407 807.7625,-1.6293 Z M638.5125,2114.8107 C638.7805,2120.7347 635.8795,2127.3777 628.8325,2127.1107 C623.7065,2133.7597 616.0215,2138.1287 608.8925,2142.4117 C561.7865,2168.2417 502.5425,2169.3737 452.6625,2150.8317 C439.1935,2145.7207 426.2025,2139.3507 414.2125,2131.3207 L413.091507,2130.57288 C407.051365,2126.57911 400.101441,2122.46611 395.8125,2116.6807 L395.959117,2121.42224 C396.178762,2128.1406 396.555813,2134.33901 398.6935,2140.6107 C400.0025,2143.3207 402.6025,2144.8107 405.0525,2146.3797 C410.5225,2149.8707 416.1625,2153.1007 421.9325,2156.0827 C482.0635,2186.5897 559.3465,2191.3147 619.7525,2159.2307 C637.0915,2149.4817 644.4295,2134.0697 638.5125,2114.8107 Z M694.6225,2050.0707 C694.5825,2050.8107 693.8425,2051.4207 693.0825,2051.2007 C687.0525,2049.4507 690.6725,2062.6297 691.0425,2064.7607 C692.2525,2071.7207 693.0235,2078.7207 693.7935,2085.7507 L693.808578,2087.08789 C694.004344,2101.06532 695.39286,2101.1641 709.3725,2103.8607 C720.999167,2106.85626 732.531019,2110.27848 744.108522,2113.48824 L748.735067,2114.75962 C753.674276,2116.17301 776.330067,2124.09311 776.106746,2114.58049 L776.0925,2114.2807 C775.649184,2108.05057 783.724052,2105.48586 787.884441,2109.18628 L788.0425,2109.3317 C796.059877,2116.9635 807.500205,2117.60138 817.961283,2118.92492 L818.4835,2118.9917 C831.8625,2120.7207 845.3025,2122.1207 858.7525,2123.2017 C929.513721,2128.85456 1000.99259,2125.58625 1070.90189,2113.26694 L1075.4486,2112.456 C1081.54817,2111.34962 1090.31033,2109.58256 1097.3465,2106.1997 C1100.0375,2105.9727 1113.6915,2099.3427 1113.1885,2096.4777 C1113.4285,2096.0517 1113.6395,2095.6247 1113.8215,2095.1887 C1116.4915,2092.2847 1116.4065,2086.1707 1112.9025,2083.8677 C1107.0635,2085.3967 1101.2295,2086.8907 1095.3705,2088.3397 L1095.3635,2088.3587 L1095.3635,2088.3587 C1089.4435,2092.9227 1081.3565,2092.9137 1074.2125,2094.5017 C1066.4925,2095.8797 1058.7625,2097.1807 1051.0235,2098.4117 C1006.6825,2105.3887 961.9625,2110.3237 917.1125,2112.4207 C837.7735,2119.3407 760.1415,2094.0387 694.6225,2050.0707 Z M436.5225,813.9307 C441.2825,825.6407 437.8725,840.7807 434.3725,852.8707 C439.7635,855.8787 443.4655,861.0187 448.0725,865.0017 C464.0545,877.9227 480.3235,890.5167 496.3325,903.4207 L497.017917,903.962662 C501.729212,907.662282 506.944128,911.322747 508.8225,917.3097 C513.2255,936.9987 487.2685,942.3647 472.6525,940.9607 C469.9435,940.8507 462.1825,939.0707 460.3225,940.9407 C459.2525,942.0207 459.6935,946.8607 459.6025,948.3007 C458.585611,963.933589 457.762302,979.58228 456.659905,995.210955 L456.2325,1001.0707 C455.3425,1012.9207 455.3225,1026.3007 450.6425,1037.5507 C449.6325,1044.3317 446.8125,1051.1807 446.1225,1057.8907 C445.4925,1063.8797 444.0825,1070.4607 440.0825,1074.9307 L443.77794,1104.07555 C450.738111,1158.72776 458.093632,1213.369 469.5525,1267.2807 C472.1225,1279.3797 475.6625,1291.0707 478.9435,1302.9807 C488.3945,1337.3377 506.1425,1368.4367 521.8125,1400.2007 L522.417173,1401.44216 C527.692437,1412.3904 531.183955,1422.89088 530.1625,1435.3507 C529.5325,1443.0017 517.5325,1443.0507 518.1625,1435.3507 C518.5925,1430.1707 518.0625,1425.4117 516.9435,1420.8607 C492.0505,1520.7797 473.9555,1622.2497 464.6125,1724.8407 C460.8455,1767.0987 458.0845,1809.2587 453.0725,1851.4307 C465.9435,1851.3107 478.8925,1852.5707 491.3025,1854.7517 C512.6265,1848.5747 538.0795,1850.5587 557.3425,1861.6207 C569.235033,1862.87137 581.0753,1864.48267 592.850291,1866.57495 L595.3725,1867.0307 C600.8625,1868.0507 608.8525,1868.1297 613.1525,1872.1207 C614.8365,1864.2227 620.5895,1858.6157 625.6525,1852.7007 C630.2725,1847.1207 634.6225,1841.3507 638.7425,1835.4107 C650.0905,1819.2117 659.4935,1801.7497 667.4525,1783.6617 C667.3425,1780.8207 668.5325,1778.5607 670.4025,1776.9707 C702.6825,1702.6847 722.7125,1623.8107 740.4905,1545.0007 C781.3045,1367.9687 816.3665,1189.4837 837.4125,1008.9307 C837.5025,1008.1007 838.7125,1008.0607 838.7225,1008.9307 C843.0085,1142.6677 819.8285,1275.1297 791.8625,1405.4117 C763.2735,1534.1467 741.1045,1665.7747 688.6825,1787.5817 C692.5485,1812.4357 697.1455,1837.1667 703.1625,1861.6007 C761.8665,1845.8027 822.9725,1839.7217 883.6525,1842.1107 C909.7595,1767.4387 926.4855,1689.4697 925.1265,1610.0817 C922.1415,1471.9877 966.0265,1340.1647 1013.1245,1212.1407 C1045.6405,1113.4537 1085.2195,1014.4307 1089.5535,909.5107 C1091.5655,885.2067 1098.9815,860.6887 1094.0325,836.2907 C1085.1325,847.0607 1072.3935,854.9117 1059.9225,860.6907 C1038.9925,870.3907 1016.5725,876.3507 994.1225,881.3177 C879.6365,910.6467 759.3835,910.6137 644.6025,882.7827 L636.069714,880.816138 C567.761796,865.015065 498.47418,847.37422 436.5225,813.9307 Z M428.9325,867.2207 C414.0545,894.3347 382.9775,911.0237 353.3625,917.0817 C352.2825,920.6207 348.9025,922.9207 345.2125,923.4507 C350.9045,968.5667 360.1365,1013.2087 365.0525,1058.4307 L365.335,1060.11658 C365.830972,1062.98445 366.536667,1066.05487 368.7125,1068.0107 C371.6685,1066.8277 371.7175,1061.9227 372.0835,1059.2117 C373.2405,1043.5367 374.6055,1027.8727 375.9525,1012.2107 C376.4925,1005.3607 387.7325,1002.7207 388.8225,1010.4707 L393.6225,1044.7417 L393.6225,1044.7417 L393.702245,1045.09646 C394.866533,1050.67128 395.247091,1069.91395 400.696871,1070.74955 L400.8825,1070.7707 C404.252325,1071.28158 402.969788,1064.4867 402.961681,1062.02819 L403.2725,1044.2307 L403.659167,1021.32329 C403.725833,1017.50514 403.795833,1013.68737 403.8725,1009.8707 C404.0525,1001.4507 415.8725,1001.8207 416.6935,1009.8707 L417.046691,1013.27597 C418.670954,1028.6747 420.884569,1044.99439 428.4725,1058.5307 C429.8925,1057.5607 431.8725,1057.3207 433.7225,1057.8207 C434.3625,1047.7257 436.5385,1038.0967 440.5625,1028.8607 C439.384569,1019.04139 440.481263,1008.5602 440.972334,999.092178 L441.0225,998.0817 C441.605833,985.905867 442.335,973.737672 443.031181,961.570751 L443.4435,954.2707 C444.0325,943.6617 443.1225,930.2107 455.1425,925.7407 C466.8745,922.0667 480.1835,928.1377 491.4025,921.8507 C478.2785,910.1467 464.8315,899.4267 451.4325,888.0707 C446.6525,884.0817 441.6525,880.2307 437.1025,875.9607 C434.2225,873.2707 431.9025,869.8407 428.9325,867.2207 Z M447.2725,436.6207 L443.269259,457.275607 C436.618611,491.703478 430.2175,526.1707 426.2025,561.0407 C421.9965,598.5187 420.9015,636.2057 422.6825,673.8707 C431.8495,637.3997 453.3015,605.3257 463.3135,569.1697 C473.5545,524.2557 450.5245,481.0207 447.2725,436.6207 Z M1498.5425,174.8604 C1497.9895,174.4814 1498.2945,173.3544 1499.0425,173.6614 C1527.4225,185.4364 1539.0075,227.6074 1517.6435,250.8314 C1510.5525,258.3204 1499.9225,262.6504 1490.2425,258.7214 C1478.48168,256.729298 1471.55509,244.951448 1469.92656,233.978444 L1469.8725,233.6004 C1469.76897,233.083694 1470.34752,232.848677 1470.67522,233.173806 L1470.7335,233.2414 C1475.2285,238.7894 1482.3145,242.5024 1488.7735,245.3414 C1490.5825,244.3604 1492.5635,243.5814 1494.5525,243.1204 C1497.3825,242.4804 1500.2825,244.7004 1500.0125,247.5914 C1513.37156,245.14412 1518.72614,229.229286 1519.13269,217.155091 L1519.1435,216.7904 C1519.6825,200.0814 1512.1325,184.6304 1498.5425,174.8604 Z" id="ðŸ–-Ink" fill="#000000"></path>
    </g>
</svg>