<?xml version="1.0" encoding="UTF-8"?>
<svg width="1645px" height="2500px" viewBox="0 0 1645 2500" version="1.1" xmlns="http://www.w3.org/2000/svg" xmlns:xlink="http://www.w3.org/1999/xlink">
    <!-- Generator: Sketch 62 (91390) - https://sketch.com -->
    <title>pose/standing/polka_dots</title>
    <desc>Created with Sketch.</desc>
    <g id="pose/standing/polka_dots" stroke="none" stroke-width="1" fill="none" fill-rule="evenodd">
        <path d="M1113.90763,765.421288 C1103.49099,671.034972 1087.73197,574.218193 1047.93517,486.795465 C1034.26057,373.741247 1057.29936,211.826645 952.599042,135.590253 C953.937958,122.054767 929.688595,110.390385 918.447455,103.165342 C900.187275,91.1985865 875.489212,67.686893 853.874556,80.8583157 C847.056004,78.7766963 830.240968,87.2981583 822.5,68.8167545 C814.570753,49.8858395 815.722707,11.9270224 809.400227,8.46180536 C812.189976,-18.8933157 689.26681,-37.1963869 657.18437,1.47011911 C641.950099,31.1280193 659.448411,40.5680322 625.098655,79.5544568 C609.930097,80.486816 595.460774,84.3336607 581.470955,89.6081495 C569.919728,91.2064795 558.430107,93.1501276 546.991826,95.1727056 C401.105476,108.67958 390.075851,216.674394 377.145665,332.647044 C366.074969,488.431923 317.985927,643.634694 338.776082,800.647919 C327.285435,856.791725 326.529728,916.700486 340.250532,972.310529 C295.262354,1038.04037 327.872751,1074.41125 355.932478,1136.90891 C360.681316,1148.15149 364.814088,1159.73149 366.915898,1171.72686 C366.361439,1181.02085 366.423046,1190.32471 368.055619,1199.54964 C372.817805,1220.56866 407.843179,1217.62951 409.403878,1196.39145 C412.143315,1182.44455 411.294172,1167.97473 413.418571,1153.95777 C413.295358,1154.68787 413.079735,1156.08887 413.079735,1156.1974 C418.216694,1120.92562 426.496613,1107.252 449.368043,1080.33691 C478.733829,1037.86771 460.675924,984.501248 467.377689,936.969678 C469.214591,921.087014 471.643942,905.415488 473.269328,889.503225 C483.171553,895.329236 493.935243,900.19033 505.181518,903.227157 C498.095738,957.9226 510.421154,1012.87654 524.124503,1065.78323 C561.213696,1202.07441 610.385986,1342.02388 589.028024,1485.04678 C589.038292,1484.97772 565.739962,1601.93907 547.339114,1659.67134 C525.089911,1732.88669 507.176543,1806.22833 475.699706,1876.43152 C458.841076,1926.96242 423.173967,1974.89949 424.559087,2029.29994 C412.244966,2047.51498 434.417161,2069.40223 453.955677,2069.34698 C453.955677,2085.78998 449.615838,2109.50183 440.93616,2140.48253 C438.890823,2157.71194 430.081087,2179.65049 443.400422,2194.28311 C425.293232,2240.40874 418.93133,2290.32202 413.961735,2339.13916 C412.063227,2362.29521 409.886462,2390.20679 434.672828,2403.33874 C457.766041,2413.33028 484.65011,2408.93586 509.309156,2411.91447 C533.16629,2411.94802 557.854086,2418.2042 581.316938,2412.80244 C608.265694,2405.1265 613.691177,2375.9333 608.616851,2352.58683 C605.34349,2328.27643 601.421207,2304.04496 597.129284,2279.88255 C584.395212,2227.27283 580.831273,2168.89433 564.518887,2118.2835 C573.657191,2116.5727 582.828352,2111.96615 589.028024,2105.25021 C604.77979,2104.73223 616.393651,2093.0072 620.252274,2079.14415 C623.037916,2070.2083 635.030657,2068.3722 643.108302,2065.52875 C644.618689,2073.24414 649.032798,2079.73218 652.626513,2086.75102 C649.55748,2101.65101 659.801621,2119.0728 676.714671,2119.41812 C679.158398,2121.76628 681.427572,2124.16378 683.922637,2126.40341 C664.690101,2154.71161 650.428186,2186.67525 646.814962,2220.38916 C642.46246,2246.24856 637.907683,2287.68576 672.135252,2295.34294 C685.057224,2297.04783 698.962848,2300.35499 711.625046,2295.6488 C725.742186,2301.98391 740.751593,2305.02172 755.950954,2307.73395 C821.094741,2318.72888 883.923549,2317.8054 949.6105,2325.1883 C966.94042,2327.6006 1036.37778,2334.72698 1047.93517,2325.1883 C1062.0328,2328.0722 1053.50773,2317.55874 1059.43941,2307.73395 C1064.16361,2300.35499 1076.7773,2286.22654 1068.63497,2282.13206 C1051.55045,2274.75902 1036.40653,2260.25467 1020.77592,2252.0213 C947.726991,2210.44301 790.168256,2139.63502 791.261772,2137.64105 C791.046149,2139.05193 792.217054,2103.45643 798.057354,2094.01148 C806.272587,2085.86789 822.645504,2087.29859 831.221135,2079.5092 C836.663046,2079.76375 877.493478,2068.01701 873.998333,2048.34177 C869.519538,2032.6367 884.150065,2013.38842 873.998333,2000.13018 C907.610864,1693.08211 985.826532,1395.28684 1028.99116,1089.87658 C1029.94606,1089.03795 1030.89069,1088.18945 1031.84559,1087.35082 C1054.10404,1091.07335 1071.39494,1068.71942 1078.15318,1051.11313 C1081.40806,1047.80695 1084.53972,1044.4031 1087.4147,1040.71313 C1105.55166,1017.12592 1105.87715,986.404445 1107.93994,958.339941 C1112.42695,955.044619 1115.31219,949.924044 1115.55862,943.866176 C1116.27633,925.82774 1117.04128,907.788317 1117.79699,889.759747 C1117.80726,889.759747 1117.80726,889.759747 1117.80726,889.749881 C1123.39292,880.781474 1124.15273,870.688316 1122.56123,860.4077 C1123.14752,827.158491 1128.27017,796.011548 1113.90763,765.421288 Z" id="ðŸŽ¨-Background" fill="#FFFFFF"></path>
        <path d="M656.449542,-1.80864596 C656.785784,-4.75268973 660.713659,-4.70812801 661.088271,-1.80864596 C665.218093,33.2277525 651.383694,73.4511341 617.358603,89.7785454 C642.871615,112.314888 660.827759,142.443557 691.44297,159.457219 C755.678366,201.306608 848.506471,162.148746 862.791213,88.3436583 C846.93734,84.7074226 817.39649,85.0153935 812.583076,66.491585 C810.256643,64.1070383 809.058086,43.6720275 809.201468,28.6012565 C809.056066,25.79882 808.9662,22.9944029 808.871285,20.2107813 C808.627938,17.9549684 808.559276,15.6555841 808.58351,13.3433263 C808.632987,8.32567759 816.144416,8.42371335 816.459454,13.3433263 C816.58971,15.3604865 816.676548,17.4024032 816.758336,19.4542224 C816.812862,19.9958948 816.887583,20.5355866 816.954225,21.0762688 C817.987186,24.8293552 818.702079,28.7517761 819.546219,32.3137422 C819.99959,34.2308861 820.470128,36.1698157 820.973986,38.1057745 C821.697967,43.1808584 822.994469,48.1390915 825.21387,52.8339154 C831.11477,65.3171363 845.666082,76.0357134 860.010399,76.1515739 C863.083027,76.1763304 866.13849,75.7247717 869.214147,75.802012 C874.22244,75.9297556 878.313892,77.9142372 882.782986,79.9353584 C886.817893,81.7594178 890.607434,82.993282 894.499968,82.9873405 C1055.07836,137.448684 1032.96917,336.812832 1057.426,471.602108 C1082.35437,605.46252 1133.84892,734.517198 1141.42901,871.317693 C1143.70091,885.503171 1128.03384,890.766404 1118.31614,897.478389 C1115.72516,933.169349 1130.74297,969.294043 1120.32753,1004.61366 C1110.69364,1033.49262 1071.85009,1102.92571 1034.73419,1091.98927 C992.646355,1411.86611 894.828132,1708.31699 885.573898,2032.08754 C894.944252,2059.15927 868.039823,2078.81396 843.224539,2082.77401 L839.841528,2084.72391 C828.5282,2091.21709 816.838289,2097.57219 804.460756,2101.58994 C804.150766,2101.76918 803.841787,2101.95139 803.526749,2102.12369 C802.923937,2102.45246 802.277705,2102.64952 801.617338,2102.75053 C802.310017,2111.03604 804.928264,2118.81948 808.304822,2126.38705 C859.792296,2138.26522 905.013344,2169.45347 953.429199,2189.84689 C984.659925,2209.0619 1079.99674,2236.81973 1087.23605,2270.5722 L1087.4283,2271.59684 C1090.33836,2286.72009 1082.20695,2305.37659 1064.98893,2306.80653 C1073.97659,2313.46207 1068.08983,2326.90188 1058.29942,2329.49438 C1046.53296,2332.62658 1033.76383,2331.2917 1021.65306,2332.26414 C907.408439,2335.85185 792.157116,2325.75615 680.800347,2300.13911 C671.448168,2297.97836 661.708249,2295.15612 653.826246,2289.57105 C605.500258,2251.31631 655.801291,2170.35263 667.679831,2120.72573 C663.366237,2120.04344 659.10111,2119.09874 654.910703,2117.85497 L653.973965,2117.57431 C649.901828,2116.3415 645.691881,2114.8629 642.529315,2111.9857 C642.400068,2111.86785 642.291017,2111.73516 642.167829,2111.61237 C621.809522,2111.3242 642.544461,2066.48126 644.375113,2054.48623 C636.101332,2072.10791 629.346195,2090.91989 619.436641,2107.69787 C612.613852,2118.04609 597.651576,2110.86769 587.602679,2110.14084 C590.944906,2171.47954 605.581037,2231.28235 620.613994,2290.71084 C632.821708,2340.05848 653.778789,2399.36021 584.620927,2414.36068 C536.986608,2426.84291 423.47809,2422.07381 403.174309,2369.90888 C397.186571,2327.43662 410.300019,2284.39298 416.785557,2242.53468 L417.923232,2236.58114 C425.665143,2195.88856 432.822614,2155.00748 444.050461,2115.07531 C445.595358,2108.57326 447.497702,2102.19994 449.544438,2095.87218 C449.811008,2092.18049 450.004877,2088.48286 449.76557,2084.77631 C449.452552,2079.92107 448.534701,2075.16584 447.561315,2070.40467 C447.436108,2069.79863 447.324027,2069.09653 447.208917,2068.34493 C427.151511,2059.08995 412.257898,2048.62191 410.33637,2037.32502 C408.369597,2026.60765 412.345078,2015.74167 415.292672,2005.51185 L415.464821,2004.91083 C480.059684,1778.02537 602.930479,1573.56967 581.990563,1331.55303 C574.288293,1212.51781 517.928841,1103.03859 508.419143,984.314311 C502.949401,960.632237 498.00977,936.704578 497.215107,912.288721 C493.835519,911.493542 490.431697,910.769662 487.070284,909.897242 C485.098269,920.454407 482.60422,930.922448 478.515797,940.775538 C476.939598,960.256928 477.947315,979.951224 481.337001,999.216738 C482.117527,1003.65508 479.956691,1007.51809 476.298416,1008.93713 C485.088172,1036.33565 486.821889,1070.69669 464.154315,1091.91995 L462.275991,1093.16441 C442.583667,1106.27652 440.526168,1109.9873 435.945306,1134.41895 L420.868206,1196.16275 C418.977377,1203.80475 416.712691,1211.58952 411.265327,1217.58992 C396.80893,1233.51034 373.799055,1223.11953 366.34417,1206.15044 C359.539556,1188.76444 359.591053,1169.62667 354.623149,1151.72276 C350.846735,1133.22866 340.374757,1117.43302 329.995676,1101.92653 C306.793951,1066.32965 304.942094,1016.76415 330.812553,981.900057 C333.072343,976.1308 335.141293,970.452648 337.541437,964.779447 C328.589113,954.275756 334.350669,937.729497 333.322758,924.874929 C333.305592,914.26231 333.110713,903.650681 332.787597,893.043013 C330.89939,830.390236 324.448184,768.127622 324.213925,705.468904 C321.70473,621.019508 343.922971,539.216088 356.80418,456.388739 C367.879979,374.596212 367.290293,291.205405 385.411024,210.365509 C419.134204,51.6901648 608.370939,112.184174 640.385644,49.65518 C650.059929,34.0090678 654.390689,16.203198 656.449542,-1.80864596 Z M425.296625,2350.45819 C422.434022,2371.55866 437.249886,2376.62483 454.238702,2383.03875 C497.555388,2398.93044 547.569656,2402.70036 591.598206,2387.54839 C599.40044,2384.24686 604.982263,2379.30744 607.755,2372.06864 C546.650796,2377.64975 482.487091,2373.58968 425.296625,2350.45819 Z M658.253941,2256.49933 C662.08791,2275.45192 686.4993,2277.68198 702.844914,2280.86765 C741.880317,2289.03928 781.296391,2295.60173 820.932587,2300.2411 C897.742232,2309.50796 975.443474,2311.10129 1052.62874,2307.58487 C1054.71424,2306.68412 1056.05195,2304.95296 1058.68314,2304.95581 L1059.00523,2304.96465 C1059.15366,2304.96465 1059.29401,2304.97851 1059.43941,2304.98346 C1058.15604,2304.13679 1057.05745,2303.02473 1056.24259,2301.71164 C923.572301,2287.12412 790.097254,2277.1928 658.253941,2256.49933 Z M787.956613,2094.01148 C756.092358,2099.54506 723.567736,2102.46434 691.394502,2097.43382 C689.224579,2124.06588 678.917188,2149.93346 670.809004,2175.41682 C715.261644,2187.16824 744.682336,2137.84238 784.444749,2128.44877 C782.192027,2116.66567 782.990729,2104.28444 787.956613,2094.01148 Z M459.527702,2073.64579 C459.634734,2073.83295 459.69128,2074.05576 459.670075,2074.32115 C459.515585,2105.35392 456.370256,2136.27381 451.799179,2166.98574 C480.043528,2136.53524 527.315352,2128.82606 566.246752,2141.48753 L566.076137,2139.50642 C565.075757,2128.26345 563.579813,2116.75006 565.41271,2105.60941 L563.628511,2105.11106 C543.547635,2099.56704 496.332284,2088.45078 459.527702,2073.64579 Z M1041.30556,903.354593 C867.382485,950.058238 682.24528,952.987428 506.505692,914.371238 C515.270205,942.485718 521.851668,971.112161 526.501504,1000.12679 C536.466594,1074.75676 563.91729,1145.28409 582.408594,1217.99494 C603.742892,1303.81055 608.826267,1376.07098 598.208356,1463.72843 L597.881796,1466.38453 C574.503367,1662.95515 478.766212,1842.40417 433.7875,2033.24218 C486.718896,2065.38603 552.107412,2077.9455 612.800653,2091.23677 C650.945468,2012.53287 683.177267,1931.81774 704.298935,1847.06929 C780.389647,1581.06162 880.652442,1330.59347 858.381694,1049.7418 C853.41682,1046.48186 855.032398,1039.60648 857.760706,1035.21369 C856.817612,1014.95296 855.513032,994.711054 853.37744,974.560248 C853.305749,973.878948 854.445741,973.744273 854.586094,974.399825 C858.117143,991.659071 861.824895,1008.87376 864.926806,1026.21717 C886.309995,1004.4463 900.138337,977.236921 918.942659,953.616243 C921.619471,971.253768 884.961997,1039.57083 868.832467,1050.14285 C903.200867,1261.3317 845.967993,1454.65984 784.151925,1655.51334 C742.554821,1799.73089 702.139108,1944.37028 659.222278,2088.19073 C659.742292,2088.19568 660.263317,2088.20559 660.784341,2088.22242 C658.203454,2083.46818 712.82414,2086.74891 717.309389,2084.36338 C757.534262,2080.55285 796.903888,2071.01962 836.029157,2061.45767 L840.829519,2060.21599 C850.577725,2057.65428 861.895051,2053.96779 863.648479,2043.54188 L863.674238,2042.22716 C863.685452,2041.83883 863.703005,2041.52844 863.735317,2041.50095 L863.45431,2040.32699 C863.393408,2040.05754 863.352482,2039.84594 863.360704,2039.78186 L862.971889,2039.20327 C862.523886,2038.5562 862.103482,2037.98262 862.700337,2038.64009 C858.28072,2033.80861 857.879855,2026.34007 862.981044,2021.72248 C872.541229,1670.4336 985.620609,1348.9222 1027.50044,1001.56365 C1031.65147,968.766235 1036.71832,936.093588 1041.30556,903.354593 Z M348.510204,971.367648 C328.400292,996.356866 324.945984,1031.23284 332.874435,1061.68929 C337.037578,1076.80462 345.454742,1089.53144 354.133427,1102.49395 C369.351165,1124.10242 376.448603,1149.21047 380.319933,1174.9404 L380.428986,1175.42829 C382.194938,1183.69949 383.290638,1206.51889 394.9702,1203.95107 C398.037491,1201.97701 399.506994,1193.30652 400.586053,1188.77295 L414.068356,1133.55346 C417.970987,1117.56571 420.311556,1098.56658 434.139898,1087.49943 L435.773938,1086.45633 C447.069651,1079.18907 458.088421,1070.75889 459.860915,1056.59737 C463.75244,1039.23811 456.516668,1022.4324 453.813603,1005.55737 C417.750865,997.304545 382.542363,985.655124 348.510204,971.367648 Z M1113.90763,900.020387 L1112.70127,900.61615 C1098.82984,907.530189 1057.44326,929.907055 1046.77025,921.313953 C1047.02268,972.462876 1042.92719,1023.36027 1036.92734,1074.09626 C1038.46113,1073.75858 1040.04339,1073.79819 1041.46106,1074.31808 C1071.55221,1065.98603 1104.24546,1009.08171 1106.76879,979.839325 C1108.82765,953.222119 1103.54268,925.457202 1113.90763,900.020387 Z M619.194304,116.076887 L617.661566,114.048195 C601.3715,92.6080017 592.230473,84.951294 564.060672,96.3905132 C567.847395,101.077704 569.630145,107.358986 568.015461,113.863127 L567.907768,114.278575 C559.020068,150.849876 513.430465,172.039466 480.060694,152.141176 C468.402276,155.176324 456.246059,146.79377 455.776531,134.913618 C422.756128,154.354407 407.49901,189.972089 401.307306,225.745241 C422.983319,214.333481 452.131382,225.225354 460.781795,247.920139 C479.743636,289.3962 424.484797,332.54382 390.786861,297.61734 C383.485457,367.577248 380.058411,438.072886 366.758162,507.303961 C376.61521,491.09043 400.116827,487.274957 414.130959,500.616734 C460.018434,540.233086 407.240518,630.23487 351.769634,587.328874 C345.046808,625.866832 342.674937,664.952405 342.989975,703.938952 C360.765376,697.089321 370.496207,727.814127 371.78463,740.818224 C373.39415,756.469288 365.314239,789.285523 346.37966,791.13731 L347.936976,816.167621 C350.582665,859.066371 352.933555,901.924104 352.345183,944.92968 C353.297365,945.168333 354.108183,945.602067 354.786726,946.164534 C354.836203,947.406321 355.00079,948.649097 355.237069,949.87801 C355.470318,951.09504 356.244786,951.74168 357.157588,951.944684 L357.188889,951.992216 C357.14749,952.852752 356.978864,953.715269 356.655749,954.529263 C391.409869,969.082128 427.286816,981.097946 463.82918,990.557902 C462.931524,978.392555 463.158715,966.262857 464.423914,954.243078 C450.60769,941.104304 467.601555,893.406438 469.23127,874.867776 C475.615834,837.723113 480.474686,800.34772 484.770105,762.920834 C471.944432,761.823625 465.377106,748.431345 462.004586,737.532541 C457.608193,725.532567 454.956625,712.718599 458.052477,700.099713 C461.192758,685.076474 478.023046,670.720671 493.895093,676.011632 L494.894647,665.948112 C501.179075,602.20643 506.670683,538.359513 516.079004,474.971964 C485.351713,492.11733 456.336935,454.83205 463.758498,425.890704 C465.931451,413.604545 473.412589,401.699636 484.451028,395.317408 C494.21518,389.705603 514.396783,384.146282 520.798512,396.492847 C523.79743,396.877068 526.607526,398.339683 528.729993,400.49944 C535.368,366.122555 543.441853,331.481271 556.288731,298.898737 C515.681168,273.390623 523.277416,209.164323 576.722768,209.07916 C648.794729,215.252443 629.621853,320.392336 560.108564,300.61981 C538.275032,432.201632 525.692705,564.870761 514.526029,697.667633 C522.930066,711.364913 521.599233,731.689015 510.067033,743.217625 C505.051672,791.256141 498.967,839.19563 490.973926,886.846954 C543.844738,898.632042 597.366831,908.379174 651.470531,912.870004 C654.071612,896.135596 672.276152,887.205429 688.007846,885.861645 C698.425297,884.742651 709.75757,888.69577 719.708523,890.588158 C731.732465,895.191878 741.569318,905.768847 745.961672,917.30538 C796.468691,917.61335 847.006003,914.419761 897.041475,907.876121 C891.987744,882.707666 928.621993,863.521374 950.926063,867.437853 C959.852133,868.533081 968.560101,871.911849 975.249605,877.940554 C981.7826,879.327908 987.923817,884.971401 989.545454,891.762606 C1007.26027,887.549049 1025.40524,884.340606 1042.52027,878.08117 C1059.31421,872.573343 1064.80212,858.748319 1060.45117,842.408035 C1012.95418,861.430934 972.653572,785.961219 1017.97559,758.660734 C1023.77754,754.366965 1035.86813,751.589285 1039.2669,759.709419 C1039.84649,759.808446 1040.42204,759.931238 1040.99456,760.069874 C1037.22319,744.539622 1033.42961,729.015312 1029.63603,713.491002 C1007.85904,711.410465 1000.58894,679.464669 1018.67332,668.241059 C1012.51999,642.487361 1006.55245,616.684149 1000.94942,590.806668 C971.107191,596.958412 946.370531,559.844796 952.68606,533.032166 L952.886971,532.22287 C956.452351,517.64822 967.29894,503.316183 983.322448,500.894997 C979.536946,478.995391 976.154329,457.020525 973.305862,434.975351 C969.178059,430.581567 967.330242,424.030995 968.936732,418.234011 C970.100959,375.855823 961.504062,332.221985 964.969478,289.238748 C933.301112,327.717291 867.316852,301.525898 882.389189,250.752283 C881.507689,203.716901 948.382536,187.04686 970.933991,228.628879 C973.349281,219.759117 976.453211,210.933918 977.971855,201.788864 C978.202615,200.738481 979.823888,200.950502 979.920386,201.93569 L979.924685,202.048313 C983.285088,262.197711 980.812243,322.740243 987.269508,382.824285 C1011.4012,384.009626 1021.25926,441.545728 995.043469,445.676104 C1004.95706,512.568185 1019.84866,578.587846 1036.03271,644.296566 C1064.15488,637.077569 1075.02874,697.500279 1051.87649,707.66233 C1058.61345,734.373611 1065.3181,761.083901 1071.8622,787.840733 L1071.98842,787.783298 C1075.3882,781.942743 1084.44958,782.593344 1090.27576,783.707387 C1109.52032,790.79567 1101.38488,825.61025 1080.43285,823.478219 C1091.86205,857.861046 1084.61618,889.762281 1046.48449,901.575095 L1046.50469,902.669333 C1047.68507,901.747401 1049.12092,900.998764 1050.85766,900.511556 C1074.68644,893.825318 1096.93699,883.435508 1117.46897,869.966978 C1111.42873,770.691406 1082.67648,674.453952 1059.41215,578.156093 C1032.67534,573.895993 1024.14912,531.086052 1045.00523,515.321108 C1030.566,451.384954 1026.4079,386.005001 1019.34379,321.074626 C1000.08609,316.878893 995.221183,285.990695 1012.60683,276.529748 C1001.58959,195.894835 960.108606,127.925351 882.710285,93.3583362 C880.20109,104.835453 876.035927,115.978851 870.463191,126.409263 C870.985225,126.43798 871.490093,126.501357 871.983854,126.583549 C872.1131,126.81527 872.26961,127.04402 872.482664,127.262867 C876.67509,131.548714 879.360989,136.372271 881.064414,141.535488 C881.229001,142.64458 881.411764,143.752681 881.599575,144.859792 C881.411764,145.313331 881.202748,145.761919 880.962431,146.201595 C889.255397,177.709696 850.38761,193.816279 824.144559,186.767606 C820.07633,185.968466 817.417694,183.689878 815.999014,180.80921 C769.537,205.776642 708.899294,200.51539 667.043697,167.502093 C636.622356,183.740381 597.452658,145.819354 619.194304,116.076887 Z M401.170184,822.50826 C445.625852,815.974522 460.167067,887.373278 424.336568,907.197298 C412.784173,914.05287 396.897989,914.646036 385.523307,907.072525 C355.236261,888.745778 363.660493,826.273229 401.170184,822.50826 Z M570.388792,779.785834 C626.968366,779.544234 631.808033,866.285091 582.457162,881.903476 C545.75728,892.487378 509.806622,851.855019 528.62811,817.975244 C530.366876,796.898545 548.620893,780.094818 570.388792,779.785834 Z M746.686057,787.657139 C749.629439,765.25052 773.142163,743.844064 796.807357,750.012395 C818.492458,755.4717 824.146982,780.727297 827.992059,799.431333 C836.735367,838.158432 792.69672,877.423242 755.590923,856.095016 C731.888369,841.965983 728.422953,807.386094 746.686057,787.657139 Z M873.050338,656.890201 C880.980808,644.318847 898.747122,638.781312 913.250977,643.162223 C953.031565,655.808837 948.305998,719.294422 916.295332,738.217306 C861.306093,766.869496 817.451217,684.495686 873.050338,656.890201 Z M613.962557,693.9803 C613.032589,656.253365 652.134635,621.911139 688.865819,643.356215 C748.317084,683.019109 687.433003,774.012145 630.391979,723.013741 C620.225952,716.482975 614.21903,705.883229 613.962557,693.9803 Z M540.001479,597.720467 C512.48616,555.059064 559.741827,491.816093 604.839688,532.692056 C620.306832,548.49661 619.616172,577.478557 610.661829,596.265775 C596.09638,621.365901 555.645327,621.954116 540.001479,597.720467 Z M739.797736,517.717439 C761.270792,497.195285 798.79159,496.980399 815.106912,524.059066 C834.446395,557.462525 811.365839,614.612425 767.771475,611.896142 C722.475706,608.697601 710.067054,545.310051 739.797736,517.717439 Z M627.292997,451.01628 C592.836749,415.878875 630.248495,359.516232 676.97809,373.088739 C753.34951,401.063592 687.069397,506.329248 627.292997,451.01628 Z M815.379036,443.088752 C784.689105,387.357894 859.242999,337.247754 897.184857,390.890153 C926.286473,439.474302 847.718877,495.558682 815.379036,443.088752 Z M715.278304,284.550361 C688.723244,238.098242 735.128714,186.481916 783.88586,213.745762 C853.265864,261.711989 764.45752,353.961664 715.278304,284.550361 Z" id="ðŸ–-Ink" fill="#000000"></path>
    </g>
</svg>