<?xml version="1.0" encoding="UTF-8"?>
<svg width="1645px" height="2500px" viewBox="0 0 1645 2500" version="1.1" xmlns="http://www.w3.org/2000/svg" xmlns:xlink="http://www.w3.org/1999/xlink">
    <!-- Generator: Sketch 62 (91390) - https://sketch.com -->
    <title>pose/standing/resting-1</title>
    <desc>Created with Sketch.</desc>
    <g id="pose/standing/resting-1" stroke="none" stroke-width="1" fill="none" fill-rule="evenodd">
        <path d="M526.000846,529.538893 L524.585846,546.421893 L523.529846,544.443893 C523.379846,578.500893 518.334846,612.930893 512.770846,646.910893 C498.226846,634.947893 486.270846,624.400893 489.723846,603.979893 C498.469846,574.876893 509.686846,546.487893 518.754846,517.542893 L520.274846,525.132893 L526.260846,526.338893 L526.000846,529.538893 Z M1564.71085,2323.67389 C1562.03285,2311.84089 1559.10985,2299.31189 1556.37185,2287.44689 C1556.10185,2286.44489 1553.59485,2286.21889 1552.78685,2285.94889 C1538.30885,2250.48789 1525.63985,2242.40589 1497.59885,2237.58189 C1452.38185,2229.39989 1407.76085,2211.66289 1365.04585,2185.37489 C1366.04285,2181.46289 1368.76885,2174.70889 1371.24685,2167.49489 C1370.92385,2167.60589 1370.59785,2167.70289 1370.26185,2167.76789 C1369.68885,2167.87889 1369.14985,2167.90489 1368.63585,2167.86889 C1365.73885,2174.67289 1362.58585,2180.64989 1360.91785,2182.85289 C1355.58285,2179.41189 1349.64585,2175.62589 1344.41785,2171.96789 L1344.43985,2171.90389 C1339.78685,2168.67789 1334.03585,2164.69289 1329.47985,2162.20789 C1328.62585,2157.49089 1321.71585,2156.02889 1318.10585,2152.91389 C1311.09785,2147.90589 1307.21085,2145.32389 1300.78285,2151.71789 C1286.91785,2133.70689 1275.75085,2114.66089 1264.77285,2090.03989 C1257.90285,2075.64889 1254.52785,2059.71389 1245.29085,2046.86389 C1245.46785,2046.76389 1251.33985,2044.93489 1251.48385,2044.76989 C1146.51385,1812.17189 1129.69585,1553.35389 1107.30485,1304.72689 C1102.36585,1249.12789 1097.19885,1193.01589 1087.57085,1139.04689 C1086.24985,1130.87389 1085.06385,1122.82489 1080.14685,1116.30789 C1139.13685,1067.69089 1139.71185,973.455893 1111.13885,903.561893 C1176.83485,726.300893 1048.05985,538.032893 1057.56285,357.124893 C1062.88985,234.411893 1040.80585,92.2268933 902.220846,62.7838933 C885.034846,52.8898933 864.431846,51.4128933 848.032846,51.1458933 C833.268846,43.6858933 830.941846,27.2148933 825.685846,13.6748933 L820.549846,13.7068933 C819.042846,7.57889325 817.550846,0.859893254 816.254846,-5.31410675 C814.305846,-9.22910675 815.460846,-14.3311067 809.320846,-13.2461067 C795.404846,-33.3981067 684.035846,-43.5291067 682.770846,-11.0811067 C678.750846,-8.71010675 677.956846,-4.08210675 677.020846,1.53789325 C670.844846,41.3898933 628.296846,73.1708933 589.959846,66.7618933 L589.338846,66.2008933 C426.126846,60.1508933 361.875846,176.286893 329.982846,334.562893 C305.063846,457.540893 289.224846,590.815893 308.738846,713.996893 C327.803846,769.820893 385.550846,796.680893 430.226846,831.070893 C425.076846,844.051893 424.595846,858.372893 424.438846,872.418893 C423.849846,888.632893 422.670846,904.978893 421.236846,920.976893 C418.298846,941.251893 413.542846,976.148893 441.134846,978.515893 C451.823846,1220.83089 474.149846,1462.50989 440.034846,1705.53189 C411.713846,1839.92989 422.555846,2002.54989 457.572846,2134.04789 C459.592846,2140.54489 464.781846,2146.39089 471.409846,2144.31389 C474.775846,2146.48989 477.404846,2147.85489 480.187846,2145.79989 C481.827846,2148.83789 483.624846,2151.75689 485.567846,2154.58689 C486.302846,2190.71489 490.397846,2226.15989 488.533846,2262.52189 C485.753846,2262.19989 479.638846,2259.13689 477.262846,2261.14089 L476.922846,2263.91089 L474.660846,2264.68489 C469.925846,2278.04589 466.954846,2292.07289 464.756846,2303.38589 C455.175846,2322.78189 442.934846,2357.10489 449.760846,2378.70989 C449.429846,2379.09389 447.591846,2381.23189 447.302846,2381.55589 C445.671846,2382.49089 445.370846,2383.73889 444.972846,2385.17189 C440.322846,2386.91689 439.845846,2392.23189 439.366846,2397.66689 C437.037846,2410.83589 440.497846,2422.80589 441.686846,2435.68889 L441.756846,2435.60289 C441.756846,2435.60289 445.660846,2440.12889 445.666846,2440.13489 C494.731846,2443.12189 543.046846,2443.88789 591.893846,2445.64389 C595.579846,2438.58189 596.689846,2429.03689 599.459846,2421.27889 C657.369846,2463.65589 757.704846,2447.44489 830.443846,2437.03689 C859.983846,2432.77689 887.891846,2428.75189 912.634846,2427.41189 C914.244846,2427.18989 914.359846,2426.49589 914.401846,2425.85489 C914.644846,2416.15589 916.468846,2406.21189 915.558846,2396.79789 C920.667846,2391.83289 918.338846,2382.78789 914.827846,2374.84389 C901.916846,2346.87289 866.823846,2343.81189 838.391846,2339.03989 C784.901846,2328.65589 741.889846,2309.12489 707.094846,2279.26789 C709.435846,2277.14989 711.560846,2275.06989 713.496846,2273.03489 C712.740846,2272.53089 711.984846,2272.02789 711.230846,2271.51889 C709.399846,2270.71589 707.648846,2269.89289 706.042846,2268.85389 C705.224846,2269.31389 704.199846,2269.40789 703.187846,2268.83989 C699.690846,2266.87589 696.840846,2263.98889 693.518846,2261.77989 C692.859846,2262.72689 692.197846,2263.69189 691.531846,2264.69989 C688.345846,2261.34189 684.739846,2257.53889 681.588846,2254.01789 C681.475846,2253.04489 681.731846,2250.61789 680.544846,2250.35289 C671.586846,2251.25889 661.210846,2254.27889 651.839846,2257.63389 C641.247846,2222.81889 635.112846,2185.13989 635.820846,2149.55889 C646.236846,2149.55989 655.359846,2149.46289 663.126846,2144.50989 C665.249846,2145.08089 668.207846,2146.31189 668.756846,2142.97389 C671.908846,2129.34789 672.727846,2114.92189 673.520846,2100.97189 C689.642846,1837.06789 714.206846,1625.00789 795.680846,1401.45489 C803.504846,1432.49489 816.640846,1464.77789 828.594846,1495.67789 C882.978846,1624.81589 922.158846,1764.08489 955.743846,1899.62989 C968.957846,1950.36589 983.321846,2006.11589 997.508846,2056.32489 C1003.01085,2080.46189 1014.19485,2089.29689 1037.63185,2089.10489 C1055.69185,2089.95289 1073.81385,2089.68989 1091.94685,2088.41689 C1116.66785,2110.95989 1126.80485,2141.38889 1134.02685,2168.78889 C1128.00985,2173.26489 1118.45985,2171.57589 1111.42485,2173.05389 C1105.35885,2182.83389 1107.45785,2196.50889 1107.59985,2208.57289 C1108.55185,2224.24689 1107.74085,2241.06289 1112.30285,2255.86089 C1113.11785,2272.04789 1113.21885,2289.77989 1114.43585,2308.59889 C1101.03385,2316.37289 1103.48885,2333.54889 1107.93985,2349.98089 C1109.92885,2354.16189 1181.95885,2353.33289 1199.82685,2353.15889 C1220.82285,2351.93589 1250.76385,2357.30189 1257.64885,2334.27589 C1307.63585,2362.05189 1383.68385,2352.66689 1441.91985,2344.49289 C1484.18485,2339.34089 1522.47485,2334.54789 1563.97985,2325.80889 C1564.40885,2325.62089 1565.01185,2324.28489 1564.71085,2323.67389 L1564.71085,2323.67389 Z" id="ðŸŽ¨-Background" fill="#FFFFFF"></path>
        <path d="M1111.4601,2172.6023 C1122.7241,2178.8563 1131.7351,2188.6183 1143.5601,2194.0323 C1194.7371,2219.6813 1259.5251,2205.8663 1298.5201,2164.7333 C1304.0211,2164.8473 1308.4361,2158.8253 1307.2701,2153.4033 C1318.9691,2154.4363 1328.1921,2163.4543 1336.9001,2170.5733 C1335.7101,2178.8133 1336.2601,2187.0933 1339.5901,2194.9833 C1339.8501,2195.6123 1340.9801,2195.8623 1341.1201,2194.9833 C1342.1301,2188.9833 1343.1701,2182.9423 1344.5301,2177.0133 C1346.9851,2179.0253 1349.4811,2180.9423 1352.0201,2182.8433 C1352.2401,2187.7723 1357.3801,2191.3623 1361.5801,2189.6633 C1396.0371,2213.0583 1434.9841,2229.6623 1475.4301,2239.3733 C1507.0771,2245.9883 1523.5141,2245.3063 1537.5501,2278.6533 C1532.3481,2279.6943 1527.23047,2282.2233 1519.4101,2284.1333 C1387.0941,2299.5823 1253.5581,2282.9323 1121.0301,2294.2033 C1119.2581,2265.0503 1117.6731,2235.9163 1115.6701,2206.7833 C1114.9651,2196.2993 1114.6581,2185.7203 1110.5901,2175.9233 C1110.6701,2174.7233 1110.8601,2173.5433 1111.2401,2172.6233 C1111.3101,2172.6123 1111.3801,2172.6123 1111.4601,2172.6023 Z M1116.4001,2100.8333 C1116.8281,2098.8913 1115.3071,2097.2553 1113.8001,2095.9733 C1112.0701,2093.0533 1110.1001,2090.3033 1107.7601,2087.9833 C1153.7171,2083.9153 1197.7801,2069.7713 1240.9501,2055.1833 C1246.1661,2092.3143 1264.6781,2126.0373 1285.5401,2156.6733 C1250.1311,2193.5993 1192.4711,2202.5893 1146.1201,2182.4033 C1149.2121,2175.5783 1142.5781,2165.7223 1140.8911,2158.6733 C1135.0771,2141.7863 1127.1171,2125.6463 1120.2201,2109.2433 C1119.0401,2106.5333 1117.8001,2103.6633 1116.4001,2100.8333 Z M1106.9401,2100.1923 C1107.2501,2100.4133 1107.5701,2100.6443 1107.8801,2100.8433 C1108.0701,2101.3033 1108.2501,2101.7633 1108.4401,2102.2233 C1107.9601,2101.7033 1107.4701,2101.1923 1106.9801,2100.6923 C1106.9701,2100.5223 1106.9601,2100.3623 1106.9401,2100.1923 Z M682.0901,2253.3433 C683.0101,2254.9733 683.9701,2256.5833 684.9701,2258.1633 C683.0461,2259.3633 668.5451,2290.1683 676.6501,2285.2433 C681.1501,2278.8333 685.6501,2272.3733 690.5001,2266.2033 C691.8501,2268.0033 693.2401,2269.7723 694.6801,2271.5033 C689.6901,2275.0933 691.6301,2283.5033 698.2401,2283.5223 C700.6041,2283.5333 702.4371,2283.0433 704.6401,2282.2233 C734.2211,2310.5443 773.1111,2327.2943 812.2601,2337.6733 C844.6981,2347.8453 905.7991,2342.6473 907.4501,2388.9033 C904.1501,2388.8213 900.6131,2389.8943 898.1001,2392.2723 C754.8841,2440.7523 606.9211,2389.6483 462.4701,2375.4933 C464.4631,2371.4883 461.9251,2364.2583 456.639685,2364.5733 C456.5901,2332.1773 465.5411,2300.0103 478.5001,2270.5333 C551.9971,2340.6673 604.6221,2272.0593 678.7601,2255.2833 C680.1901,2254.9933 681.2901,2254.2833 682.0901,2253.3433 Z M719.9801,2240.7533 C719.7681,2240.7533 719.2281,2240.6853 719.0201,2240.7533 C716.0371,2250.8183 709.6951,2259.8873 701.6201,2266.3933 C699.4701,2264.4233 697.3601,2262.4133 695.2901,2260.3733 C700.6801,2254.1123 706.5801,2248.3233 713.4101,2243.4333 C715.3251,2242.1243 717.5621,2240.6053 719.9801,2240.7533 Z M434.2001,944.7133 C432.2871,937.7133 434.4511,930.3893 434.6701,923.2723 C436.3101,903.9033 438.5401,884.3833 438.1101,864.9233 C437.5811,857.9213 437.4331,851.1513 438.9901,844.3133 C438.5161,842.4783 436.8781,846.8163 436.3901,847.2233 C436.2901,846.6733 436.1601,846.1233 436.0501,845.5733 C436.8301,844.6833 437.6601,843.9033 438.5601,843.1533 C476.9691,874.9253 514.1941,908.1323 550.0901,942.7233 C553.8101,946.2933 559.3001,946.0733 563.0501,942.7233 C570.8301,935.7633 578.8901,929.2333 587.1901,923.0833 C590.0601,932.4633 594.4501,941.1533 599.4701,949.5533 C566.6611,953.5583 534.2871,944.8373 501.7101,942.2933 C479.8651,940.6153 457.9381,941.6463 436.2401,944.5333 C435.6801,944.6133 434.8001,944.6133 434.2001,944.7133 Z M506.5301,633.6133 C495.0741,623.7123 490.2731,617.2413 491.6811,601.6433 C498.4571,578.5953 507.2411,556.1913 514.7401,533.3833 C515.7051,538.2013 515.7871,543.1353 516.1901,548.0223 C513.5401,576.6223 511.4871,605.3183 506.5301,633.6133 Z M518.1801,525.3733 C518.0201,525.0733 517.8601,524.7723 517.6901,524.4833 C517.9401,523.7133 518.1901,522.9423 518.4401,522.1733 C518.3501,523.2433 518.2701,524.3033 518.1801,525.3733 Z M311.6101,701.4133 C311.6801,689.1833 310.0801,676.8733 309.3701,664.6733 C303.5111,562.0503 310.6951,458.6793 330.7801,357.8633 C357.2681,215.3243 406.3381,72.1903 575.9001,69.2833 C581.8481,74.6683 583.9361,82.9753 587.2501,90.1133 C597.2431,109.8943 611.9211,127.0243 628.7501,141.3333 C698.5001,198.1073 882.9601,262.9203 899.1621,125.3743 C899.2001,121.1023 898.9101,116.5933 898.2201,112.0833 C899.7501,107.3523 899.0401,101.4233 897.9601,96.1023 C898.6901,92.2933 897.5701,87.9233 895.6401,83.8123 C895.9601,83.5433 896.2601,83.2433 896.5201,82.9133 C888.9081,68.3813 875.8591,63.6263 861.3691,58.1533 C859.3701,56.1533 861.1401,52.0133 864.2101,53.0933 C870.9601,55.4633 877.9001,57.0623 884.9401,58.2723 C885.9201,58.4433 886.5401,58.9533 886.8501,59.6023 C1051.2891,109.3783 1045.9131,244.8243 1043.3861,387.9843 C1045.8761,542.2253 1135.2341,687.0333 1109.1601,842.8733 C1078.3831,654.8203 1017.8441,471.9323 1004.1041,280.9733 C1003.0711,263.8483 1000.5291,246.9383 998.5991,229.9033 C997.6131,222.7283 996.5371,202.6313 994.0801,205.9923 C982.3431,271.6683 991.5121,339.1473 1001.3591,404.5333 C1023.0711,537.4103 1058.9441,667.4283 1083.2201,799.8033 C1096.6151,858.6523 1098.0541,920.5313 1039.0271,954.5613 C975.2271,989.6703 895.8451,982.6153 826.9101,968.3863 C821.4101,967.0933 817.2501,969.9533 815.2701,973.8933 C801.8121,945.6933 771.6081,931.8143 751.9501,908.6833 C732.2631,883.4463 719.3831,853.6083 701.2801,827.2433 C703.1201,811.2013 688.2051,785.9123 671.1801,785.5733 C628.1891,740.6893 581.6901,699.1443 531.4401,662.5433 C530.7101,660.2333 528.7501,658.9333 527.3701,656.8633 C525.3191,653.3753 523.9871,649.0253 524.3091,645.0033 C531.9381,600.9303 533.7201,555.2033 521.7901,511.7033 C543.0621,445.6033 556.0071,377.3433 568.1501,309.1333 C569.2851,305.8343 563.7611,304.2873 562.9401,307.6933 C561.5101,314.9333 560.1401,322.1833 558.8001,329.4333 C534.2811,419.9353 505.0721,508.9333 473.2081,597.0823 C469.4901,609.3733 466.0101,621.6433 468.1101,634.5133 C469.9291,642.0183 481.3081,641.2953 482.6101,633.6023 C485.1561,632.8573 487.4081,633.5193 489.4001,635.0333 C489.4201,635.0033 489.4301,634.9733 489.4501,634.9533 C504.6961,656.7523 524.9011,674.7723 545.4601,691.8323 C580.6781,721.7723 615.2201,752.5123 647.7501,785.3733 C655.4791,795.3633 681.4271,813.1993 683.2611,826.7023 C679.8591,850.7543 654.9651,862.1593 635.4201,871.5623 C606.9861,885.3773 580.3191,902.8713 556.6701,923.8523 C505.1861,876.2493 451.5471,830.8593 394.8601,789.5533 C362.3501,766.1523 322.0821,742.9543 311.6101,701.4133 Z M888.6201,85.1023 C888.7601,85.8733 888.8901,86.6433 889.0201,87.4033 C888.4101,86.5533 887.7801,85.7133 887.1101,84.9133 C887.6101,84.9833 888.1101,85.0433 888.6201,85.1023 Z M1074.3001,1101.1533 C1073.7501,1099.5223 1073.1701,1097.9033 1072.5901,1096.2833 C1074.0951,1089.0543 1076.3631,1082.2753 1077.0501,1074.6733 C1091.6301,1059.8563 1100.6801,1039.6773 1103.1001,1019.0933 C1103.8201,1013.0433 1104.2401,1007.2433 1099.8001,1002.5133 C1098.1701,1000.7723 1094.7101,1000.5833 1093.1101,1002.5133 C1087.6701,1009.0633 1089.0801,1018.9333 1087.1401,1026.9233 C1083.0591,1043.8463 1073.6141,1059.8023 1060.0801,1070.5733 C1052.4581,1076.8033 1042.7251,1084.6673 1034.0001,1087.0633 C1040.8091,1060.4493 1055.7921,1035.1183 1057.7781,1007.0723 C1058.3501,998.8523 1057.8301,991.1633 1055.8201,983.1633 C1054.3261,978.1813 1052.0781,973.8523 1053.8501,968.6633 C1074.4381,955.3693 1092.6301,936.2273 1101.8701,913.1023 C1105.1571,913.4633 1108.5361,912.0053 1110.0201,908.3433 C1117.4101,963.0333 1127.3801,1020.7833 1098.8301,1070.9333 C1092.4331,1082.3013 1084.1771,1092.6193 1074.3001,1101.1533 Z M780.6901,974.5233 C772.6521,966.2763 765.4131,957.3653 758.0201,948.5533 C750.1711,940.4143 736.7841,953.0993 750.6401,965.0133 C774.7871,995.1893 773.9281,1032.8163 762.4601,1067.7633 C760.4801,1058.7833 758.9001,1049.8633 755.9301,1041.0533 C748.5601,1019.2033 737.3801,998.8433 723.4301,980.5223 C720.0701,976.1133 711.3701,978.3523 713.5801,984.6733 C720.5501,1004.5833 723.7001,1026.6133 720.5401,1047.6133 C719.0601,1057.4033 714.8401,1066.7133 714.2701,1076.6533 C714.0801,1080.0933 716.1201,1088.7933 710.6901,1086.8233 C708.6001,1086.0633 706.7401,1081.6333 705.8501,1078.8133 C701.4151,1064.2533 702.3481,1048.8253 700.6501,1033.8523 C698.5401,1014.3933 695.2901,994.4033 681.3401,979.6233 C678.2801,976.3733 673.7601,978.4633 672.3101,982.0033 C661.2821,1008.6143 672.6911,1041.6213 653.0801,1064.9633 C652.1001,1066.0433 646.5001,1071.5133 645.5901,1070.7933 C644.0501,1069.5733 645.7101,1062.6833 645.9701,1061.0833 C659.4541,1005.3533 613.6241,959.0863 597.2501,915.8833 C629.8491,889.0713 685.6591,880.4973 699.8201,836.5433 C713.0311,865.7243 724.4811,896.5993 745.4201,921.3533 C765.9581,945.9343 804.4681,962.1533 806.0601,998.0533 C796.2551,992.3503 788.6161,982.5143 780.6901,974.5233 Z M485.1801,2139.8733 C510.3751,2140.2653 535.6921,2148.0853 560.6701,2147.6723 C583.7391,2148.4933 606.8381,2147.4263 629.8701,2146.0333 C621.1681,2180.3713 624.5221,2220.6373 636.0301,2253.9423 C591.2561,2274.8863 550.4871,2304.7993 501.3801,2275.5933 C500.8401,2271.2723 499.3701,2266.9833 497.9501,2262.7833 C498.5151,2260.4603 498.9451,2257.4233 496.8201,2255.5833 C496.9371,2216.7653 492.9331,2177.9203 485.1801,2139.8733 Z M1366.6701,2140.3943 C1369.6441,2143.5343 1359.0491,2167.9923 1356.5001,2172.1333 C1353.4791,2170.1823 1350.4871,2168.2693 1347.5201,2166.2333 C1349.8801,2159.1923 1353.0601,2152.4633 1357.6801,2146.3133 C1358.9301,2144.6533 1363.8601,2137.9733 1366.6701,2140.3943 Z M1558.4001,2282.5533 C1557.9101,2280.4333 1555.8801,2278.5033 1553.6701,2277.9633 C1547.3051,2261.5233 1537.1331,2245.0823 1521.3811,2236.4333 C1511.8701,2231.5033 1501.3301,2230.0733 1490.9601,2228.0133 C1447.4381,2219.5243 1406.0711,2202.2773 1368.2801,2179.4533 C1371.9921,2168.9533 1375.4711,2158.5283 1377.7001,2147.6443 C1381.3361,2135.4583 1371.6461,2125.2733 1359.4991,2130.3833 C1348.8171,2135.1833 1342.3591,2149.8873 1339.1801,2160.4233 C1336.4901,2158.5733 1333.6501,2156.7233 1330.7301,2155.0433 C1329.2101,2150.7933 1324.1901,2148.9833 1320.3201,2146.5733 C1314.2911,2142.5513 1306.1911,2135.5073 1298.9401,2140.9633 C1285.8321,2123.4813 1275.3261,2104.0933 1266.4601,2084.1633 C1259.4951,2070.1223 1256.8401,2054.1513 1247.0801,2041.6123 C1248.4501,2032.9263 1243.1381,2024.2633 1239.5911,2016.5433 C1236.3001,2009.4933 1233.1601,2002.3633 1230.2001,1995.1633 C1168.7791,1827.9983 1146.9261,1648.7693 1121.1451,1473.3643 C1102.6011,1355.2693 1105.4181,1234.1073 1079.2501,1117.3633 C1142.8171,1065.6663 1141.3101,970.2593 1113.6401,899.7333 C1172.7471,734.5483 1072.5311,570.1193 1060.4201,405.5833 C1056.5311,285.5073 1076.5091,141.3223 951.6851,73.5343 C935.8801,64.8133 918.9021,57.7743 901.1401,54.2833 C884.7051,45.0403 865.1181,42.7883 846.5101,42.4233 C836.0091,36.7203 833.0281,23.6303 829.2591,13.1133 C828.2301,9.3233 825.9201,5.0533 825.5101,1.1733 C825.4701,0.8333 824.9501,0.6933 824.8601,1.0833 C810.2851,39.5013 847.0381,79.6443 884.4301,84.4833 C901.2881,143.9403 865.8291,196.9493 801.9281,193.5813 C727.9391,188.0323 623.3461,147.2033 596.6001,72.0533 C608.3931,71.8333 619.6171,68.1533 630.7401,64.6523 C633.3101,63.4763 636.8881,63.6523 638.4701,61.0433 C664.0371,48.1923 683.7601,24.0193 688.0201,-4.3977 C687.8401,-4.2567 687.5301,-4.0467 687.0401,-3.7367 C687.4801,-4.0167 687.8801,-4.3167 688.2401,-4.6267 C688.6001,-8.9867 688.6501,-13.3467 688.2301,-17.7167 C686.2701,-19.4867 683.4901,-20.4467 680.2601,-19.7967 C670.4201,-17.8167 670.2201,-7.4467 668.6401,0.3333 C667.2201,7.3433 664.5601,13.7933 660.9801,19.9733 C646.3971,44.7573 618.4991,62.0013 589.3101,58.2533 C587.9801,57.0533 586.1101,56.4633 584.3001,57.0623 C584.4301,57.1733 584.5701,57.2833 584.7001,57.3833 C413.2751,51.0913 352.1151,182.7793 322.2621,329.7363 C298.4071,437.5763 288.9941,548.6263 294.5501,658.9423 C295.9091,671.6973 294.2321,706.4613 302.5601,713.9633 C320.8641,769.6283 378.2251,795.7853 421.4801,829.0833 C416.9171,842.1693 416.8161,856.1043 416.5801,869.8133 C415.9001,885.4833 414.8501,901.1433 413.4201,916.7723 C412.1301,930.8733 408.4401,946.7033 413.5501,960.4233 C416.8101,969.0793 424.1081,978.1143 433.7601,979.2633 C436.3561,1002.9243 437.1991,1026.8583 439.2401,1050.5333 C441.6801,1267.3743 466.4701,1485.3653 432.2471,1701.0223 C419.6371,1782.9243 409.2591,1865.8703 417.8501,1948.7433 C424.2971,2010.3123 436.4911,2071.2203 449.8891,2131.5833 C452.3301,2139.5623 458.6401,2147.1533 467.5401,2145.7833 C470.6081,2147.6363 474.3431,2149.0673 477.6701,2147.4533 C478.1371,2186.0153 483.1341,2224.5243 480.3701,2263.1123 C478.5201,2262.0033 476.6501,2260.9133 474.7701,2259.8523 C473.6891,2257.5403 471.5261,2255.3103 468.9201,2256.6923 C468.3501,2256.4333 467.6101,2256.9333 467.7401,2257.5223 C462.9871,2270.4113 459.7861,2284.4303 457.1491,2297.9733 C447.8941,2315.7823 442.2791,2335.6333 440.4101,2355.6933 C439.4931,2363.5213 438.1541,2373.6363 445.0301,2379.2433 C442.6421,2379.3253 439.6761,2379.5223 438.9601,2382.3033 C435.5771,2390.5963 430.0501,2441.6083 442.6101,2441.3833 C491.2701,2444.3523 540.1501,2445.1443 588.8701,2446.8943 C591.5201,2446.9933 594.0501,2444.9423 594.7301,2442.4333 C596.2801,2436.7433 597.9501,2431.0833 599.5701,2425.4133 C676.9201,2467.86328 861.638672,2443.125 908.2401,2433.6473 C917.8401,2433.6473 918.4621,2403.7453 917.8401,2394.6333 C923.2601,2387.7633 919.8601,2376.2633 916.5301,2369.0033 C902.4791,2338.5173 865.6751,2335.2593 836.5001,2330.3843 C791.4821,2321.7103 747.3771,2304.7043 711.7901,2275.2633 C721.3941,2266.1453 732.7781,2251.0943 731.5511,2237.3533 C730.2701,2231.3733 724.9001,2228.0533 719.0201,2228.4133 C705.6291,2229.5343 695.8791,2243.6263 688.3301,2253.2933 C686.7501,2251.6233 685.2001,2249.9423 683.6601,2248.2433 C683.4901,2244.6533 681.1001,2241.1533 676.9201,2241.6533 C668.6401,2242.6433 660.5901,2244.6633 652.7101,2247.3433 C650.7601,2238.2723 647.1601,2229.4133 645.1501,2220.3033 C639.8431,2197.4673 638.5921,2174.1243 638.0901,2150.7333 C647.7611,2150.5833 653.3171,2150.1143 660.8301,2146.1333 C664.9101,2147.3333 669.5301,2145.8233 670.7901,2140.3523 C674.9001,2122.5833 675.1201,2104.2233 676.3701,2086.0633 C690.2681,1855.7923 715.3101,1623.8763 795.2101,1405.9533 C803.5441,1432.2203 814.5171,1457.5483 823.9001,1483.4533 C889.4451,1654.2643 930.1971,1832.9803 977.5501,2009.3433 C981.5601,2024.1533 985.6301,2038.9423 989.8001,2053.7033 C995.6221,2078.8673 1007.8201,2090.4583 1034.5611,2090.3523 C1052.1201,2091.1733 1069.7151,2090.9693 1087.2601,2089.8033 C1107.9901,2109.4043 1118.0271,2135.5953 1125.2901,2162.3943 C1119.9981,2165.0353 1104.3431,2161.1463 1103.6501,2168.3233 C1097.0861,2179.0663 1099.8851,2192.9393 1099.7591,2204.9533 C1100.7331,2221.0733 1099.9021,2238.1503 1104.6891,2253.5933 C1104.9571,2269.8633 1105.5971,2286.1333 1106.4601,2302.3933 C1092.1431,2312.7263 1096.4291,2333.3023 1100.3601,2347.8523 C1099.5481,2358.1653 1184.8651,2353.5243 1197.0201,2354.4253 C1217.0321,2352.7813 1246.5201,2359.0123 1257.1101,2337.2333 C1323.4831,2369.9063 1415.4511,2346.6373 1486.9291,2340.0183 C1512.1101,2336.3233 1537.1801,2331.9533 1562.1301,2326.9633 C1565.7501,2326.2333 1567.5001,2322.1023 1566.7501,2318.8233 C1564.0101,2306.7233 1561.1901,2294.6433 1558.4001,2282.5533 Z" id="ðŸ–-Ink" fill="#000000"></path>
    </g>
</svg>