<?xml version="1.0" encoding="UTF-8"?>
<svg width="1645px" height="2500px" viewBox="0 0 1645 2500" version="1.1" xmlns="http://www.w3.org/2000/svg" xmlns:xlink="http://www.w3.org/1999/xlink">
    <!-- Generator: Sketch 62 (91390) - https://sketch.com -->
    <title>pose/standing/resting-2</title>
    <desc>Created with Sketch.</desc>
    <g id="pose/standing/resting-2" stroke="none" stroke-width="1" fill="none" fill-rule="evenodd">
        <path d="M526.000846,529.538893 L524.585846,546.421893 L523.529846,544.443893 C523.379846,578.500893 518.334846,612.930893 512.770846,646.910893 C498.226846,634.947893 486.270846,624.400893 489.723846,603.979893 C498.469846,574.876893 509.686846,546.487893 518.754846,517.542893 L520.274846,525.132893 L526.260846,526.338893 L526.000846,529.538893 Z M1564.71085,2323.67389 C1562.03285,2311.84089 1559.10985,2299.31189 1556.37185,2287.44689 C1556.10185,2286.44489 1553.59485,2286.21889 1552.78685,2285.94889 C1538.30885,2250.48789 1525.63985,2242.40589 1497.59885,2237.58189 C1452.38185,2229.39989 1407.76085,2211.66289 1365.04585,2185.37489 C1366.04285,2181.46289 1368.76885,2174.70889 1371.24685,2167.49489 C1370.92385,2167.60589 1370.59785,2167.70289 1370.26185,2167.76789 C1369.68885,2167.87889 1369.14985,2167.90489 1368.63585,2167.86889 C1365.73885,2174.67289 1362.58585,2180.64989 1360.91785,2182.85289 C1355.58285,2179.41189 1349.64585,2175.62589 1344.41785,2171.96789 L1344.43985,2171.90389 C1339.78685,2168.67789 1334.03585,2164.69289 1329.47985,2162.20789 C1328.62585,2157.49089 1321.71585,2156.02889 1318.10585,2152.91389 C1311.09785,2147.90589 1307.21085,2145.32389 1300.78285,2151.71789 C1286.91785,2133.70689 1275.75085,2114.66089 1264.77285,2090.03989 C1257.90285,2075.64889 1254.52785,2059.71389 1245.29085,2046.86389 C1245.46785,2046.76389 1251.33985,2044.93489 1251.48385,2044.76989 C1146.51385,1812.17189 1129.69585,1553.35389 1107.30485,1304.72689 C1102.36585,1249.12789 1097.19885,1193.01589 1087.57085,1139.04689 C1086.24985,1130.87389 1085.06385,1122.82489 1080.14685,1116.30789 C1139.13685,1067.69089 1139.71185,973.455893 1111.13885,903.561893 C1176.83485,726.300893 1048.05985,538.032893 1057.56285,357.124893 C1062.88985,234.411893 1040.80585,92.2268933 902.220846,62.7838933 C885.034846,52.8898933 864.431846,51.4128933 848.032846,51.1458933 C833.268846,43.6858933 830.941846,27.2148933 825.685846,13.6748933 L820.549846,13.7068933 C819.042846,7.57889325 817.550846,0.859893254 816.254846,-5.31410675 C814.305846,-9.22910675 815.460846,-14.3311067 809.320846,-13.2461067 C795.404846,-33.3981067 684.035846,-43.5291067 682.770846,-11.0811067 C678.750846,-8.71010675 677.956846,-4.08210675 677.020846,1.53789325 C670.844846,41.3898933 628.296846,73.1708933 589.959846,66.7618933 L589.338846,66.2008933 C426.126846,60.1508933 361.875846,176.286893 329.982846,334.562893 C305.063846,457.540893 289.224846,590.815893 308.738846,713.996893 C327.803846,769.820893 385.550846,796.680893 430.226846,831.070893 C425.076846,844.051893 424.595846,858.372893 424.438846,872.418893 C423.849846,888.632893 422.670846,904.978893 421.236846,920.976893 C418.298846,941.251893 413.542846,976.148893 441.134846,978.515893 C451.823846,1220.83089 474.149846,1462.50989 440.034846,1705.53189 C411.713846,1839.92989 422.555846,2002.54989 457.572846,2134.04789 C459.592846,2140.54489 464.781846,2146.39089 471.409846,2144.31389 C474.775846,2146.48989 477.404846,2147.85489 480.187846,2145.79989 C481.827846,2148.83789 483.624846,2151.75689 485.567846,2154.58689 C486.302846,2190.71489 490.397846,2226.15989 488.533846,2262.52189 C485.753846,2262.19989 479.638846,2259.13689 477.262846,2261.14089 L476.922846,2263.91089 L474.660846,2264.68489 C469.925846,2278.04589 466.954846,2292.07289 464.756846,2303.38589 C455.175846,2322.78189 442.934846,2357.10489 449.760846,2378.70989 C449.429846,2379.09389 447.591846,2381.23189 447.302846,2381.55589 C445.671846,2382.49089 445.370846,2383.73889 444.972846,2385.17189 C440.322846,2386.91689 439.845846,2392.23189 439.366846,2397.66689 C437.037846,2410.83589 440.497846,2422.80589 441.686846,2435.68889 L441.756846,2435.60289 C441.756846,2435.60289 445.660846,2440.12889 445.666846,2440.13489 C494.731846,2443.12189 543.046846,2443.88789 591.893846,2445.64389 C595.579846,2438.58189 596.689846,2429.03689 599.459846,2421.27889 C657.369846,2463.65589 757.704846,2447.44489 830.443846,2437.03689 C859.983846,2432.77689 887.891846,2428.75189 912.634846,2427.41189 C914.244846,2427.18989 914.359846,2426.49589 914.401846,2425.85489 C914.644846,2416.15589 916.468846,2406.21189 915.558846,2396.79789 C920.667846,2391.83289 918.338846,2382.78789 914.827846,2374.84389 C901.916846,2346.87289 866.823846,2343.81189 838.391846,2339.03989 C784.901846,2328.65589 741.889846,2309.12489 707.094846,2279.26789 C709.435846,2277.14989 711.560846,2275.06989 713.496846,2273.03489 C712.740846,2272.53089 711.984846,2272.02789 711.230846,2271.51889 C709.399846,2270.71589 707.648846,2269.89289 706.042846,2268.85389 C705.224846,2269.31389 704.199846,2269.40789 703.187846,2268.83989 C699.690846,2266.87589 696.840846,2263.98889 693.518846,2261.77989 C692.859846,2262.72689 692.197846,2263.69189 691.531846,2264.69989 C688.345846,2261.34189 684.739846,2257.53889 681.588846,2254.01789 C681.475846,2253.04489 681.731846,2250.61789 680.544846,2250.35289 C671.586846,2251.25889 661.210846,2254.27889 651.839846,2257.63389 C641.247846,2222.81889 635.112846,2185.13989 635.820846,2149.55889 C646.236846,2149.55989 655.359846,2149.46289 663.126846,2144.50989 C665.249846,2145.08089 668.207846,2146.31189 668.756846,2142.97389 C671.908846,2129.34789 672.727846,2114.92189 673.520846,2100.97189 C689.642846,1837.06789 714.206846,1625.00789 795.680846,1401.45489 C803.504846,1432.49489 816.640846,1464.77789 828.594846,1495.67789 C882.978846,1624.81589 922.158846,1764.08489 955.743846,1899.62989 C968.957846,1950.36589 983.321846,2006.11589 997.508846,2056.32489 C1003.01085,2080.46189 1014.19485,2089.29689 1037.63185,2089.10489 C1055.69185,2089.95289 1073.81385,2089.68989 1091.94685,2088.41689 C1116.66785,2110.95989 1126.80485,2141.38889 1134.02685,2168.78889 C1128.00985,2173.26489 1118.45985,2171.57589 1111.42485,2173.05389 C1105.35885,2182.83389 1107.45785,2196.50889 1107.59985,2208.57289 C1108.55185,2224.24689 1107.74085,2241.06289 1112.30285,2255.86089 C1113.11785,2272.04789 1113.21885,2289.77989 1114.43585,2308.59889 C1101.03385,2316.37289 1103.48885,2333.54889 1107.93985,2349.98089 C1109.92885,2354.16189 1181.95885,2353.33289 1199.82685,2353.15889 C1220.82285,2351.93589 1250.76385,2357.30189 1257.64885,2334.27589 C1307.63585,2362.05189 1383.68385,2352.66689 1441.91985,2344.49289 C1484.18485,2339.34089 1522.47485,2334.54789 1563.97985,2325.80889 C1564.40885,2325.62089 1565.01185,2324.28489 1564.71085,2323.67389 L1564.71085,2323.67389 Z" id="ðŸŽ¨-Background" fill="#FFFFFF"></path>
        <path d="M680.2599,-19.7962 C683.4899,-20.4472 686.2699,-19.4872 688.2299,-17.7162 C688.6499,-13.3462 688.5999,-8.9872 688.2399,-4.6272 C687.8799,-4.3172 687.4799,-4.0162 687.0399,-3.7372 L687.374431,-3.95085625 C687.676775,-4.1468875 687.8849,-4.29145 688.0199,-4.3972 C683.7599,24.0198 664.0369,48.1928 638.4699,61.0428 C636.8879,63.6528 633.3099,63.4758 630.7399,64.6528 L627.128339,65.7899052 C617.183632,68.9088329 607.118873,71.8565838 596.5999,72.0528 C623.3459,147.2038 727.9389,188.0328 801.9289,193.5808 C865.8289,196.9498 901.2879,143.9408 884.4299,84.4838 C847.41281,79.6922 811.020044,40.3001297 824.437998,2.23582047 L824.8599,1.0828 C824.9499,0.6938 825.4699,0.8328 825.5099,1.1728 C825.9199,5.0528 828.2299,9.3238 829.2589,13.1138 L829.733067,14.4598492 C833.293241,24.7228087 836.452604,36.9607718 846.5099,42.4228 L848.230309,42.4620873 C866.321209,42.9339437 885.210592,45.3242308 901.1399,54.2838 C918.9019,57.7748 935.8799,64.8138 951.6859,73.5348 C1076.5089,141.3228 1056.5309,285.5068 1060.4199,405.5828 C1072.5309,570.1198 1172.7479,734.5478 1113.6399,899.7338 C1140.6289,968.5248 1142.7159,1060.9818 1083.8109,1113.4628 C1084.4579,1114.4798 1085.0029,1115.5948 1085.4599,1116.7358 C1088.26405,1123.73558 1089.132,1131.75631 1090.45508,1139.18711 L1090.6099,1140.0418 C1093.7959,1157.3198 1096.0879,1174.7768 1098.3279,1192.1998 C1102.74649,1226.56916 1105.95598,1261.0916 1109.01396,1295.60795 L1109.4499,1300.5388 C1117.1059,1387.2998 1123.7929,1474.2548 1133.8349,1560.7948 L1135.70996,1573.62138 C1149.30342,1666.26943 1164.10708,1759.13496 1186.4059,1849.9218 C1187.0639,1852.3558 1187.7179,1854.7898 1188.3889,1857.2198 C1196.4249,1886.3438 1205.8839,1914.9768 1214.7729,1943.8318 C1217.5879,1952.9678 1220.7059,1961.9648 1223.9929,1970.8878 L1228.07838,1981.03195 C1228.76046,1982.72202 1229.4439,1984.41147 1230.1299,1986.0998 C1237.3779,2003.9328 1245.0979,2021.5648 1253.2259,2039.0128 C1254.6919,2042.1598 1252.5569,2045.0598 1250.0409,2045.8668 C1257.4619,2057.6418 1260.2599,2071.6638 1266.4599,2084.1638 C1275.3269,2104.0928 1285.8319,2123.4818 1298.9399,2140.9628 C1306.1909,2135.5068 1314.2909,2142.5498 1320.3199,2146.5738 C1324.1899,2148.9838 1329.2099,2150.7928 1330.7299,2155.0428 C1333.6499,2156.7228 1336.4899,2158.5738 1339.1799,2160.4228 L1339.44859,2159.54773 C1342.71599,2149.08854 1349.11053,2135.05129 1359.4989,2130.3828 C1371.6459,2125.2748 1381.3359,2135.4578 1377.6999,2147.6438 C1375.4709,2158.5288 1371.9919,2168.9538 1368.2799,2179.4538 C1405.64628,2202.02135 1446.50876,2219.13652 1489.49368,2227.72337 L1490.9599,2228.0128 C1501.3299,2230.0738 1511.8699,2231.5028 1521.3799,2236.4328 C1537.1329,2245.0818 1547.3059,2261.5238 1553.6699,2277.9628 C1555.8799,2278.5028 1557.9099,2280.4328 1558.3999,2282.5528 L1562.59365,2300.68455 C1563.9899,2306.7283 1565.3799,2312.7733 1566.7499,2318.8238 C1567.4999,2322.1028 1565.7499,2326.2338 1562.1299,2326.9628 C1537.1799,2331.9538 1512.1099,2336.3238 1486.9299,2340.0178 C1415.4509,2346.6368 1323.4829,2369.9068 1257.1099,2337.2338 C1246.5199,2359.0118 1217.0319,2352.7818 1197.0199,2354.4248 C1184.8649,2353.5248 1099.5469,2358.1648 1100.3599,2347.8528 L1099.88769,2346.0788 C1096.11578,2331.67211 1092.71558,2312.31252 1106.4599,2302.3938 C1105.5979,2286.1328 1104.9569,2269.8628 1104.6899,2253.5928 C1099.9019,2238.1508 1100.7329,2221.0738 1099.7589,2204.9528 C1099.8849,2192.9398 1097.0849,2179.0658 1103.6499,2168.3238 C1104.2259,2161.2028 1120.0509,2165.0018 1125.2899,2162.3938 L1124.82742,2160.7021 C1117.59955,2134.49498 1107.55348,2108.99213 1087.2599,2089.8028 C1069.7149,2090.9688 1052.1209,2091.1728 1034.5609,2090.3518 C1007.8199,2090.4578 995.6229,2078.8678 989.7999,2053.7038 C985.6299,2038.9428 981.5599,2024.1538 977.5499,2009.3428 C946.2649,1892.8278 917.8569,1775.2858 883.2829,1659.6728 C870.0659,1620.9268 855.4449,1582.6528 840.7029,1544.4758 C830.7109,1518.6008 820.7039,1492.7318 810.7049,1466.8588 C805.5679,1453.5688 800.5059,1440.2018 796.0409,1426.6708 C794.6669,1422.5108 793.4229,1418.3278 792.2479,1414.1278 C714.6929,1629.6718 690.0939,1858.6688 676.3699,2086.0638 C675.1199,2104.2228 674.8999,2122.5828 670.7899,2140.3528 C669.5299,2145.8238 664.9099,2147.3328 660.8299,2146.1328 C653.3169,2150.1148 647.7609,2150.5828 638.0899,2150.7338 L638.161562,2153.85215 C638.711112,2176.19773 640.078767,2198.48173 645.1499,2220.3028 C647.1599,2229.4138 650.7599,2238.2728 652.7099,2247.3428 C660.5899,2244.6638 668.6399,2242.6438 676.9199,2241.6538 C681.0999,2241.1538 683.4899,2244.6538 683.6599,2248.2438 C685.1999,2249.9428 686.7499,2251.6228 688.3299,2253.2928 L689.128008,2252.26573 C696.563563,2242.65849 706.096028,2229.4957 719.0199,2228.4138 C724.8999,2228.0528 730.2699,2231.3728 731.5509,2237.3538 C732.7779,2251.0948 721.3949,2266.1458 711.7899,2275.2628 C747.3769,2304.7048 791.4819,2321.7098 836.4989,2330.3838 L838.258313,2330.67459 C867.136998,2335.40001 902.75992,2339.12652 916.5299,2369.0028 L916.819425,2369.64458 C920.049591,2376.92558 923.102799,2387.96193 917.8399,2394.6328 C918.4619,2403.7458 916.7779,2413.1238 916.5599,2422.3238 C916.3299,2426.0638 913.8099,2428.2338 910.2399,2428.6478 C818.3459,2433.5798 678.2749,2476.5918 599.5699,2425.4138 C597.9499,2431.0828 596.2799,2436.7438 594.7299,2442.4328 C594.0499,2444.9428 591.5199,2446.9938 588.8699,2446.8938 C540.1499,2445.1438 491.2699,2444.3528 442.6099,2441.3838 C441.1939,2441.4098 440.0099,2440.7768 439.0249,2439.6338 C437.8829,2441.0328 434.9669,2440.6518 434.5769,2438.6618 C433.8899,2435.1668 433.8849,2431.6228 433.5709,2428.0818 C433.2069,2423.9818 432.1119,2420.2008 431.4699,2416.1928 C430.2849,2408.7908 430.8179,2400.8518 431.5519,2393.4258 L431.739499,2391.54711 C432.253437,2386.63918 433.167714,2381.06292 437.60358,2378.28216 L437.8979,2378.1048 C437.9139,2378.0958 437.9299,2378.0878 437.9459,2378.0798 C438.4369,2376.5158 439.6009,2375.1648 441.0729,2374.0928 L441.1599,2373.9928 C438.8419,2368.4598 439.7349,2361.4598 440.4109,2355.6928 C442.2789,2335.6328 447.8939,2315.7828 457.1489,2297.9728 C459.7869,2284.4298 462.9859,2270.4118 467.7399,2257.5228 C467.6099,2256.9328 468.3499,2256.4328 468.9199,2256.6928 C469.1169,2256.5888 469.3109,2256.5108 469.5029,2256.4468 C469.5269,2256.2478 469.5659,2256.0518 469.6289,2255.8648 C470.4499,2253.4398 472.9879,2252.1148 475.3639,2251.7378 C477.3769,2251.4188 479.1209,2251.9548 480.9279,2252.4108 C482.2299,2217.4028 478.0939,2182.4488 477.6699,2147.4538 C474.3429,2149.0678 470.6079,2147.6358 467.5399,2145.7838 C458.6399,2147.1538 452.3299,2139.5638 449.8889,2131.5828 L448.458314,2125.11325 C435.628161,2066.86846 424.066686,2008.11391 417.8509,1948.7438 C409.2589,1865.8708 419.6379,1782.9238 432.2469,1701.0228 C466.4709,1485.3658 441.6799,1267.3738 439.2399,1050.5338 C437.1999,1026.8588 436.3559,1002.9238 433.7599,979.2628 C424.1079,978.1148 416.8109,969.0798 413.5499,960.4228 C408.4399,946.7038 412.1299,930.8728 413.4199,916.7728 C414.8499,901.1428 415.8999,885.4838 416.5809,869.8138 L416.660575,865.237203 C416.893431,853.018405 417.4239,840.7148 421.4799,829.0828 C378.2249,795.7858 320.8639,769.6278 302.5599,713.9628 C294.2319,706.4608 295.9089,671.6978 294.5499,658.9428 C288.9939,548.6258 298.4079,437.5768 322.2619,329.7368 C352.1159,182.7798 413.2749,51.0908 584.6999,57.3828 C584.5699,57.2838 584.4299,57.1728 584.2999,57.0628 C586.1099,56.4628 587.9799,57.0528 589.3099,58.2528 C618.4989,62.0008 646.3979,44.7568 660.9799,19.9728 C664.5599,13.7928 667.2199,7.3428 668.6399,0.3328 L668.750559,-0.227170832 C670.234889,-7.93625272 670.654186,-17.864319 680.2599,-19.7962 Z M458.7999,2380.1538 C454.6569,2382.4458 450.1239,2382.7198 446.3099,2385.7728 C443.6299,2400.4328 443.8499,2415.6438 447.0699,2430.1928 C492.7699,2430.6828 538.5299,2432.9938 584.2099,2434.5638 C586.0499,2427.4938 587.7899,2420.3828 589.7099,2413.3328 L589.755307,2413.1878 L589.8559,2412.9098 C594.5969,2413.0698 599.3389,2413.2068 604.0819,2413.3258 C674.2359,2463.6088 819.5829,2420.8778 904.2699,2416.6828 L905.1399,2402.5928 C904.2829,2403.1898 903.4339,2403.5218 902.6189,2403.6368 C903.4059,2401.5798 902.0069,2398.9018 899.2149,2399.6828 C894.7079,2400.9438 890.1789,2402.1048 885.6339,2403.1948 C885.2889,2403.0588 884.8979,2402.9948 884.4599,2403.0318 C844.7049,2406.4258 804.7869,2406.1088 764.9229,2406.2288 C725.1969,2406.3478 685.5129,2408.0218 645.7829,2407.9118 C629.5779,2407.8658 613.3739,2407.6228 597.1759,2407.1418 C550.5209,2398.4758 504.1979,2388.2508 458.7999,2380.1538 Z M1547.7919,2294.2438 C1545.82554,2295.66703 1543.2569,2295.78912 1540.52607,2296.16083 L1540.1349,2296.2158 C1537.6379,2296.5798 1535.1359,2296.9228 1532.6229,2297.1138 C1526.4139,2301.1268 1514.0469,2300.5818 1508.0599,2301.7238 C1376.6389,2314.8588 1244.3049,2299.2738 1112.7499,2309.8238 C1106.4709,2318.7828 1108.0009,2329.8728 1111.3399,2339.8828 C1148.0749,2341.2648 1184.8459,2342.0118 1221.5999,2340.4228 L1224.53735,2340.31476 C1229.07607,2340.1364 1233.7324,2339.80959 1237.9299,2338.0928 C1241.67916,2336.56267 1246.28576,2332.76685 1245.69872,2328.22091 L1245.6599,2327.9628 C1244.7599,2322.7438 1250.2399,2316.6328 1255.5699,2320.3448 C1305.8369,2353.6928 1374.1359,2336.9248 1430.7699,2333.6438 C1471.5799,2329.3238 1512.1699,2323.1728 1552.4499,2315.3828 C1550.8889,2308.3388 1549.3379,2301.2898 1547.7919,2294.2438 Z M629.7479,2146.5128 C625.5329,2146.9958 621.3129,2147.4288 617.0869,2147.8108 C600.138194,2149.34115 583.130139,2150.10971 566.121927,2150.59834 L558.18148,2150.81528 C542.332487,2151.24243 526.381991,2151.61871 510.5629,2150.7578 C502.5629,2150.3238 494.3589,2149.3798 486.6239,2147.2048 C493.4289,2182.9038 496.9289,2219.2548 496.8199,2255.5828 C498.9449,2257.4228 498.5149,2260.4598 497.9499,2262.7838 L498.48283,2264.36286 C499.722869,2268.05653 500.9074,2271.8128 501.3799,2275.5928 C550.4869,2304.7988 591.2559,2274.8858 636.0299,2253.9428 C628.6509,2234.7498 626.4059,2213.7058 625.1699,2193.3238 C624.4809,2177.4698 625.6659,2161.9988 629.7479,2146.5128 Z M719.0099,2240.7848 C716.9639,2241.0168 715.0659,2242.3008 713.4099,2243.4328 C706.5799,2248.3238 700.6799,2254.1128 695.2899,2260.3728 C697.3599,2262.4138 699.4699,2264.4228 701.6199,2266.3938 C709.6869,2259.8938 716.0229,2250.8378 719.0099,2240.7848 Z M1240.9499,2055.1828 L1234.30118,2057.42244 C1193.25564,2071.19587 1151.36013,2084.12347 1107.7599,2087.9838 C1110.0999,2090.3028 1112.0699,2093.0528 1113.7999,2095.9728 C1115.3079,2097.2548 1116.8279,2098.8908 1116.3999,2100.8328 C1117.7999,2103.6638 1119.0399,2106.5338 1120.2199,2109.2438 C1127.1169,2125.6458 1135.0779,2141.7868 1140.8909,2158.6728 C1142.5779,2165.7218 1149.2109,2175.5788 1146.1199,2182.4038 C1192.4719,2202.5888 1250.1309,2193.5988 1285.5399,2156.6728 L1284.29115,2154.83099 C1263.9437,2124.68756 1246.06158,2091.57314 1240.9499,2055.1828 Z M1366.6699,2140.3938 C1363.8599,2137.9728 1358.9299,2144.6538 1357.6799,2146.3138 C1353.0599,2152.4628 1349.8799,2159.1928 1347.5199,2166.2338 C1350.4879,2168.2698 1353.4789,2170.1818 1356.4999,2172.1328 L1356.66583,2171.8543 C1359.4757,2167.00339 1369.58321,2143.4707 1366.6699,2140.3938 Z M485.1799,2139.8738 L485.2289,2140.1228 C487.7169,2140.5098 490.2099,2140.8558 492.7139,2141.1398 C498.7959,2141.8308 504.9579,2142.1378 511.0969,2142.2668 C502.4569,2141.0188 493.8109,2140.0068 485.1799,2139.8738 Z M551.055418,966.35011 L549.0099,966.1438 L546.38197,965.820162 C512.650043,961.627479 478.657622,956.028218 444.6899,961.4728 C449.3939,983.2348 449.7079,1006.0388 451.2279,1028.3328 C458.47767,1243.06578 484.584564,1459.02487 455.334293,1673.25258 L454.4309,1679.7438 C443.7689,1755.9338 431.0829,1832.3888 436.1899,1909.5928 C440.1729,1979.9628 454.4929,2049.1398 468.7199,2118.0028 C472.1399,2118.8628 475.5599,2119.7228 478.9899,2120.5638 C479.0899,2119.6078 479.6839,2120.1558 479.7999,2120.7628 C521.9369,2132.0128 565.9139,2132.9798 609.2099,2130.1538 C617.3739,2129.6848 625.5009,2129.0208 633.6599,2128.4628 C639.9479,2125.7278 646.6699,2123.9848 653.4899,2122.7838 C667.8709,1904.2598 686.7029,1683.2418 754.2979,1473.7328 C797.3299,1340.6368 851.0769,1211.0288 882.8799,1074.5228 C883.9799,1070.6928 889.7799,1072.3028 888.8379,1076.1728 L887.844826,1081.40694 C879.770608,1124.15867 872.492724,1167.04637 859.9199,1208.8328 C869.4649,1198.4338 880.3509,1189.2548 889.3599,1178.3728 C892.1699,1174.9428 894.7499,1171.3328 896.9709,1167.4838 C899.0759,1162.7138 902.4569,1158.9788 907.6899,1157.8638 C910.0899,1156.8928 912.3199,1158.9328 913.1099,1160.9428 C915.310987,1166.49052 914.382702,1170.44771 911.176979,1175.33647 L910.375714,1176.53975 C896.236526,1197.44106 873.606503,1209.64765 854.9299,1226.0528 C839.2959,1278.2478 821.3019,1329.7008 803.6599,1381.2338 C803.4389,1391.4858 805.3009,1401.6068 808.2999,1411.3828 C811.7159,1421.4318 814.7749,1432.0798 820.0209,1441.5028 C892.9629,1593.9868 929.7199,1760.1338 974.0399,1922.3828 C985.7059,1965.6538 997.5199,2008.9058 1010.2409,2051.8818 L1010.42372,2052.66486 C1013.32136,2064.77838 1017.84338,2069.6514 1031.1199,2069.6328 C1097.6429,2072.6928 1165.9479,2061.8308 1226.5499,2035.0738 C1193.1689,1945.9848 1169.9899,1853.7888 1151.9679,1760.3548 C1142.8749,1716.1868 1135.5069,1671.6698 1129.3019,1626.9798 C1120.6609,1569.9208 1113.0369,1512.7338 1105.3129,1455.8328 C1089.5069,1344.3128 1090.2019,1230.8318 1070.0599,1119.9938 C1063.1809,1120.2198 1057.2849,1112.0458 1061.4699,1105.9428 C1060.0109,1099.8728 1061.3129,1093.2398 1063.4799,1087.6328 L1063.2199,1086.4138 C1039.6229,1107.3728 1008.8269,1110.0248 1024.6309,1069.7338 L1025.72201,1066.9967 C1037.58971,1037.43395 1052.68872,1005.8499 1045.9899,973.4228 C977.5419,1009.9588 893.8749,1004.0668 820.3099,988.0528 C826.0399,1008.8888 810.6039,1021.6618 793.1899,1007.6728 C790.0499,1005.1328 786.9699,1002.5028 783.9499,999.7838 C788.3769,1017.3408 785.9999,1035.7408 781.9099,1053.1428 L781.519971,1055.14965 C779.528089,1065.58963 777.269285,1079.44665 769.3299,1086.6728 C763.5399,1091.9328 754.8199,1089.6928 752.2189,1082.1828 C750.7669,1057.3428 743.8409,1032.9058 731.1599,1011.3028 C733.2799,1027.0928 732.7599,1043.3138 728.8699,1058.4538 C727.3699,1064.2438 725.2899,1070.1538 724.7989,1076.1428 L724.874032,1077.12427 C725.620394,1087.67843 724.21789,1097.37137 711.0579,1097.5838 C679.8529,1092.0828 699.5389,1018.2268 679.6699,994.8728 C673.6329,1023.0598 680.6659,1060.1128 653.2299,1078.8238 C645.6499,1083.5638 636.3999,1080.8138 634.8589,1071.6138 L635.404604,1064.38251 C638.678235,1020.26486 638.0671,1007.042 609.7799,965.6828 C590.597951,970.279512 570.51065,968.312889 551.055418,966.35011 Z M1106.9399,2100.1928 C1106.9599,2100.3628 1106.9699,2100.5228 1106.9799,2100.6928 C1107.30657,2101.02613 1107.63323,2101.36436 1107.95694,2101.70658 L1108.4399,2102.2228 L1107.8799,2100.8428 C1107.5699,2100.6438 1107.2499,2100.4138 1106.9399,2100.1928 Z M1081.1869,1115.7418 L1079.90075,1116.82661 C1079.68523,1117.00658 1079.46857,1117.1858 1079.2499,1117.3638 C1080.3909,1122.4528 1081.4579,1127.5528 1082.4929,1132.6588 L1082.2919,1129.2958 C1082.1049,1125.9878 1082.6299,1119.9858 1081.1869,1115.7418 Z M1060.35566,663.507118 C1050.70417,618.582137 1041.08421,599.624062 1053.3074,664.328888 L1054.63428,671.317661 C1059.92858,699.334792 1065.50714,731.097014 1070.74639,765.291034 L1071.83898,772.449659 C1077.30748,807.902963 1085.90408,859.801306 1086.53924,901.378787 C1087.2599,948.5528 1063.31438,962.552434 1053.8499,968.6638 C1052.0789,973.8518 1054.3269,978.1808 1055.8199,983.1638 C1057.8299,991.1638 1058.3499,998.8528 1057.7779,1007.0728 C1055.7909,1035.1188 1040.8089,1060.4498 1033.9999,1087.0638 C1042.7249,1084.6668 1052.4579,1076.8028 1060.0799,1070.5738 C1073.6139,1059.8018 1083.0589,1043.8458 1087.1399,1026.9228 C1089.0799,1018.9328 1087.6699,1009.0638 1093.1099,1002.5128 C1094.7099,1000.5828 1098.1699,1000.7728 1099.7999,1002.5128 C1104.2399,1007.2438 1103.8199,1013.0428 1103.0999,1019.0928 C1100.6809,1039.6768 1091.6299,1059.8568 1077.0499,1074.6728 C1076.3629,1082.2758 1074.0949,1089.0538 1072.5899,1096.2838 C1073.1699,1097.9038 1073.7499,1099.5228 1074.2999,1101.1538 C1084.1759,1092.6198 1092.4329,1082.3008 1098.8299,1070.9328 C1127.3799,1020.7838 1117.4099,963.0338 1110.0199,908.3428 C1108.5369,912.0048 1105.1569,913.4628 1101.8699,913.1028 C1099.98049,917.831441 1095.04363,914.817291 1094.84757,908.702239 C1093.62583,870.595673 1088.56426,816.418447 1079.2499,760.922845 C1073.6999,727.855525 1066.97752,694.330022 1060.35566,663.507118 Z M699.8199,836.5428 C685.6589,880.4978 629.8499,889.0718 597.2499,915.8828 C613.6239,959.0858 659.4539,1005.3538 645.9699,1061.0828 L645.894434,1061.50265 C645.489084,1063.63829 644.1599,1069.66087 645.5899,1070.7928 C646.4999,1071.5128 652.0999,1066.0428 653.0809,1064.9628 C672.6909,1041.6218 661.2819,1008.6148 672.3099,982.0028 C673.7599,978.4628 678.2799,976.3728 681.3399,979.6228 C695.131377,994.235834 698.464655,1013.93918 700.577513,1033.18919 L700.6499,1033.8528 C702.3489,1048.8258 701.4159,1064.2528 705.8499,1078.8138 L706.016877,1079.32693 C706.959519,1082.14139 708.722841,1086.10851 710.6899,1086.8238 C716.1199,1088.7928 714.0799,1080.0928 714.2699,1076.6538 C714.8399,1066.7128 719.0599,1057.4038 720.5399,1047.6138 C723.6999,1026.6138 720.5499,1004.5828 713.5799,984.6728 C711.3699,978.3528 720.0699,976.1138 723.4299,980.5228 C737.3799,998.8428 748.5599,1019.2038 755.9299,1041.0528 C758.8999,1049.8638 760.4799,1058.7838 762.4599,1067.7628 C774.8119,1030.2588 774.4559,990.8308 746.4799,960.0828 C739.8599,952.1328 750.8899,940.6728 758.0199,948.5528 C765.4139,957.3658 772.6529,966.2758 780.6899,974.5238 C788.6159,982.5128 796.2549,992.3508 806.0599,998.0528 C804.4679,962.1538 765.9579,945.9348 745.4189,921.3528 C724.4809,896.5988 713.0309,865.7238 699.8199,836.5428 Z M514.7399,533.3828 C507.2419,556.1918 498.4579,578.5948 491.6809,601.6428 C490.2729,617.2418 495.0749,623.7118 506.5299,633.6138 C511.4869,605.3198 513.5399,576.6228 516.1899,548.0228 C515.7869,543.1338 515.7059,538.2028 514.7399,533.3828 Z M518.4399,522.1728 L517.6899,524.4838 L517.93865,524.92455 L518.1799,525.3728 L518.4399,522.1728 Z M975.5029,236.7528 L978.366527,255.635678 C988.886442,324.873994 999.739317,394.100967 1014.6709,462.5448 C1015.4939,466.3158 1020.3499,461.2528 1019.4569,453.9508 C1010.27366,378.85138 975.632323,235.865333 975.496395,236.683764 L975.5029,236.7528 Z M887.1099,84.9138 C887.7799,85.7128 888.4099,86.5528 889.0199,87.4038 C888.8899,86.6428 888.7599,85.8728 888.6199,85.1028 C888.1099,85.0428 887.6099,84.9838 887.1099,84.9138 Z" id="ðŸ–-Ink" fill="#000000"></path>
    </g>
</svg>