<?xml version="1.0" encoding="UTF-8"?>
<svg width="1645px" height="2500px" viewBox="0 0 1645 2500" version="1.1" xmlns="http://www.w3.org/2000/svg" xmlns:xlink="http://www.w3.org/1999/xlink">
    <!-- Generator: Sketch 62 (91390) - https://sketch.com -->
    <title>pose/standing/robot_dance-3</title>
    <desc>Created with Sketch.</desc>
    <g id="pose/standing/robot_dance-3" stroke="none" stroke-width="1" fill="none" fill-rule="evenodd">
        <path d="M354.965535,903.913804 C355.13454,915.405271 356.285995,941.794371 359.169094,952.918661 C327.049996,901.418626 278.922209,845.131094 271.602959,782.054179 C273.884037,781.429782 284.00511,780.496131 285.77217,779.169777 C302.389738,786.892279 299.245835,763.12492 301.701919,752.132185 C308.334146,728.85865 322.268417,705.966037 328.322624,682.538366 C344.237168,675.654285 312.278076,672.737484 307.634917,672.60102 C326.938577,651.10152 335.81788,621.545721 349.56235,596.465753 C369.75804,553.841785 387.845658,510.269439 403.99621,466.01379 C407.526331,493.743521 408.159353,521.773669 406.008279,549.656554 C399.367052,669.089275 354.515519,783.92639 354.965535,903.913804 Z M1469.7148,691.759922 C1459.72246,693.439708 1443.07043,695.030649 1433.09809,695.847471 C1446.18754,688.04152 1484.87409,673.170439 1460.49425,659.805779 C1452.977,657.059804 1444.91044,660.976926 1437.33018,662.188415 C1405.8491,667.371111 1366.97722,667.097638 1335.12913,664.486164 C1346.73853,654.954284 1362.02409,641.226025 1373.35448,631.361329 C1379.37568,626.119728 1385.21392,624.132562 1378.44068,616.305994 C1366.50228,605.183667 1345.15238,613.374467 1331.3489,618.262636 C1293.2716,639.60211 1250.278,662.749984 1209.4106,679.16889 C1208.98259,673.441319 1209.247,666.035921 1203.72682,662.188415 C1187.53326,654.554271 1175.61058,656.785805 1158.37999,654.753568 C1138.29731,651.742518 1120.4467,648.317739 1100.55802,643.004469 C1087.54957,633.079886 1079.61751,603.811992 1058.81679,607.083207 C1077.23942,560.705981 1049.16026,512.32033 1038.6119,467.912508 C1025.44845,422.465988 1018.53221,375.268013 1018.34421,328.014078 C1018.2152,252.35889 974.409705,194.309554 911.113541,155.488913 C886.160689,138.632142 869.404456,97.6305686 838.5114,89.41817 C834.582266,74.3373984 834.343918,67.7129511 830.8938,52.5173139 C829.161741,48.1524216 827.874697,24.4675304 823.518548,25.273553 C818.715384,1.81250244 794.235547,-7.59665808 773.052823,-12.5103526 C745.510882,-18.2202522 707.075568,-25.1367313 682.316722,-9.02511474 C675.145477,-3.05603127 671.995369,6.93923827 671.469351,15.8683195 C668.718257,27.7583804 662.996025,40.0756918 656.325797,50.3919959 C644.942417,46.5445245 651.38464,39.3745577 640.126021,37.7052 C537.323661,22.4623077 423.212252,97.9081213 356.511588,171.508244 C235.606455,295.709359 139.019155,465.263067 154.829695,642.27879 C150.57755,641.650466 131.730905,638.695376 132,644.652679 C132.925946,670.557323 137.690109,692.163513 139.005154,718.04754 C137.698109,752.338354 173.310326,756.469588 199.036206,764.926444 C197.452152,864.413787 233.582386,963.926655 290.132319,1045.70703 C303.870788,1061.79901 324.485493,1117.64098 349.56235,1095.39632 C352.517451,1091.93858 329.599367,1067.98604 325.522227,1062.06801 C311.599752,1044.53481 274.721066,957.722931 300.784683,940.384118 C306.578881,959.123899 362.685258,1049.23364 372.6866,998.088018 C385.970054,1005.8007 407.920344,1011.06376 423.799887,1010.26657 C453.651907,1026.44397 482.6999,1043.91434 511.36788,1062.06801 C524.721336,1088.3035 544.308006,1113.50128 560.717566,1138.69023 C447.152685,1401.11097 336.304787,1833.02789 190.160793,2080.19605 C177.418357,2096.33712 247.517129,2123.77134 259.898552,2129.69429 C236.220743,2168.1556 233.256266,2212.72443 215.24265,2254.13986 C211.811533,2253.58517 208.350414,2254.31461 205.255309,2255.97182 C183.034549,2271.02608 174.649263,2324.91866 173.382219,2351.4909 C174.408254,2363.34463 170.016104,2381.27054 179.602432,2389.99934 C178.262386,2391.45038 177.262352,2393.22245 176.550328,2395.03183 C169.804097,2400.28521 170.635126,2411.89449 174.241249,2419.09273 C186.929682,2445.43818 279.673852,2442.99361 309.770881,2448.62889 C416.380524,2457.66302 505.860197,2459.08559 612.45584,2449.21108 C625.539287,2446.47001 615.644949,2426.04946 609.184728,2420.51039 C612.16883,2418.69414 614.076896,2415.37776 612.770851,2411.11694 C588.538023,2341.78721 500.952961,2346.47804 447.95515,2309.45402 C461.890626,2301.39085 452.896319,2303.96403 444.14102,2307.09977 C434.848702,2301.25831 425.809393,2294.68446 417.436107,2287.42143 C423.867327,2283.44924 420.695218,2280.825 413.737981,2284.15119 C402.772606,2275.35367 394.232314,2261.75633 380.263837,2257.49256 C366.582369,2254.13986 366.582369,2248.28664 366.582369,2244.59718 C374.724647,2211.84478 383.618849,2178.2569 388.190005,2145.04111 C393.066172,2152.23543 435.138712,2094.58861 444.14102,2080.19605 C479.119215,2024.77684 479.024634,1970.1657 503.502471,1909.89759 C553.767189,1778.65237 656.731848,1503.57892 719.523994,1378.05636 C866.443015,1617.55897 794.883569,1941.47939 885.516667,2196.87173 C889.544804,2204.54416 897.119063,2233.32044 907.609422,2225.0187 C911.686561,2225.97395 916.021709,2226.48741 919.904842,2227.0372 C918.783804,2254.95641 916.692732,2282.801 912.055574,2310.42765 C907.736426,2311.56943 904.066301,2313.83729 902.164236,2317.80359 C894.889987,2312.45989 880.962511,2391.29499 879.77047,2399.32576 C879.75247,2409.68428 870.826165,2432.74968 878.978443,2438.90628 C867.233042,2443.71394 865.312976,2461.48571 873.574259,2470.62391 C898.103097,2503.60506 1017.66818,2494.54148 1061.77769,2500.06975 C1117.5576,2498.68547 1350.90808,2519.57825 1367.10964,2466.6419 C1370.33075,2454.55745 1364.80956,2439.30193 1353.57918,2434.65134 C1358.07333,2424.15636 1347.31096,2414.02364 1340.72774,2406.65948 C1301.90441,2366.26116 1242.2082,2359.89731 1190.51843,2342.31502 C1192.4455,2340.33972 1123.04511,2304.7658 1107.9996,2295.9722 C1108.99263,2284.02618 1084.18001,2296.00263 1084.11101,2295.9722 C1072.28061,2275.05488 1063.90034,2242.50991 1055.96807,2219.9452 C1070.60757,2215.40555 1105.8802,2211.37228 1112.41742,2196.87173 C1133.42814,2189.82173 1112.35275,2159.33942 1107.9996,2145.04111 C984.838391,1836.76053 1101.68605,1447.91021 919.904842,1156.94194 C953.225981,1137.85167 991.453512,1096.07215 958.539387,1061.02342 C951.952162,1052.59798 935.839539,1026.36631 936.104548,1030.9462 C929.984149,1005.97034 916.314529,962.948782 912.055574,937.694104 C896.418451,844.969361 906.667588,758.13012 919.904842,664.486164 C938.28247,734.94982 1001.62363,793.655604 1066.05984,825.849384 C1091.2077,836.229502 1124.41483,857.65537 1152.02377,850.895972 C1176.94163,843.521013 1222.19617,792.347903 1227.52936,767.769613 C1300.16884,776.410057 1375.59042,769.474925 1445.00979,746.632381 C1453.92109,743.260046 1464.46645,743.545504 1461.71136,730.8936 C1458.96326,720.156122 1439.36839,722.894662 1430.9431,724.888611 C1443.82154,717.747309 1477.25406,715.877768 1477.00658,697.205729 C1476.56304,693.314043 1473.69094,691.091345 1469.7148,691.759922 Z" id="ðŸŽ¨-Background" fill="#FFFFFF"></path>
        <path d="M671.7216,-0.0018 C672.8266,0.4462 673.5806,2.1272 674.0276,4.6532 C675.2576,5.0372 676.3116,5.9462 676.6286,7.3152 C677.560748,11.3413481 676.471387,15.5390464 675.631298,19.5520063 L675.5356,20.0142 C674.7406,23.8992 673.7686,27.7602 672.5806,31.5462 L672.406939,32.505041 C669.515475,48.1527108 663.941,63.03062 657.3946,60.5032 L658.907148,63.2586039 C684.59414,109.898169 757.96774,235.12692 815.2556,217.2772 C848.6156,203.9002 848.1386,160.4162 845.6996,130.1532 C820.9296,145.3532 816.2956,28.9972 821.3736,16.1392 C825.4166,13.1642 827.3666,39.9302 828.8706,43.6202 C832.1526,58.3022 836.1776,72.7952 839.9566,87.3552 C847.9436,88.9372 855.4976,92.1222 862.1766,96.6872 C862.4946,96.8702 862.8226,97.0362 863.1346,97.2262 C867.1426,99.6662 870.2696,102.7782 873.0576,106.2252 C876.2086,109.7522 878.9036,113.6132 881.4486,117.5822 C887.0426,123.9412 892.3756,130.5362 897.8866,136.9632 C900.5016,140.0132 903.1786,142.9702 905.9156,145.8522 L908.026044,147.626719 C908.3786,147.921089 908.731933,148.2142 909.0866,148.5052 C972.3766,188.0382 1016.1916,247.1892 1016.3146,324.2352 C1016.5016,372.3682 1023.4176,420.4422 1036.5816,466.7342 C1047.1286,511.9662 1081.2066,558.1982 1062.7846,605.4352 C1083.5856,602.1022 1085.5176,628.8582 1098.5256,638.9682 L1102.61285,640.074835 C1120.88702,644.995006 1137.64757,649.098717 1156.3446,651.9542 C1173.5766,654.0242 1193.4976,651.7502 1209.6896,659.5272 C1215.2096,663.4462 1213.2346,670.5172 1213.6646,676.3512 C1254.5296,659.6262 1291.2316,636.5212 1329.3086,614.7852 L1330.58385,614.328627 C1344.67769,609.323267 1369.81874,601.8021 1381.3986,612.7922 C1388.1716,620.7642 1381.3336,627.8812 1375.3126,633.2202 C1363.9826,643.2672 1351.9636,652.4832 1340.3556,662.1932 C1371.63489,664.8057 1403.0116,662.72154 1433.94573,657.645056 L1435.6326,657.3652 C1443.2116,656.1312 1452.1486,653.1792 1459.6666,655.9762 C1484.0446,669.5892 1455.8366,685.4792 1442.7476,693.4312 C1452.7206,692.5992 1462.6766,691.3592 1472.6696,689.6472 C1476.6446,688.9672 1479.5166,691.2312 1479.95644,695.1952 C1480.2076,714.2142 1455.1676,715.2392 1442.2906,722.5132 L1443.32282,722.268983 C1451.74176,720.318202 1463.84652,718.60464 1466.4846,729.1032 C1469.2406,741.9912 1451.8756,747.1982 1442.9646,750.6322 C1373.5476,773.9002 1298.1286,780.9642 1225.4926,772.1632 C1220.1606,797.1982 1174.9056,849.3222 1149.9886,856.8342 C1122.3806,863.7202 1089.1746,841.8952 1064.0276,831.3222 C999.5936,798.5302 939.8916,744.4362 921.5156,672.6642 C906.0726,783.9482 912.3146,896.1402 935.4976,1005.6322 C939.2506,1014.1682 943.2106,1022.5722 947.6656,1030.7612 C949.0116,1030.9772 950.1506,1031.8772 950.4136,1033.6992 C950.5506,1034.6962 950.7516,1035.6662 950.9786,1036.6232 C955.4146,1044.1632 960.2766,1051.4082 964.7906,1058.9052 C965.7236,1060.4532 966.6446,1062.0612 967.4866,1063.7082 C997.5366,1099.1682 960.9106,1144.8612 928.1526,1163.9772 C1109.9276,1460.3522 992.5236,1833.8432 1115.6806,2147.8522 L1115.95448,2148.74646 C1120.62921,2163.68077 1134.86638,2194.42082 1114.2756,2201.4582 C1107.7386,2216.2282 1074.7966,2217.9722 1060.1586,2222.5962 C1068.0896,2245.5802 1076.9086,2268.3112 1088.7386,2289.6172 L1088.9526,2289.7122 L1088.9526,2289.7122 C1093.6646,2286.2452 1103.7686,2282.6632 1107.9446,2286.4412 C1108.9606,2286.5682 1109.9726,2286.8552 1110.9606,2287.3472 C1117.4236,2290.5602 1122.6226,2296.7032 1128.8046,2300.5712 C1132.1476,2302.6632 1135.6226,2304.5632 1139.2016,2306.2222 C1142.5326,2307.7672 1146.0726,2308.7842 1148.7906,2311.3302 C1149.6496,2312.1332 1149.8666,2313.1542 1149.6546,2314.0952 C1151.8006,2315.2102 1153.9446,2316.3272 1156.0816,2317.4502 L1157.24242,2316.72274 C1176.13239,2304.94776 1191.3228,2298.56886 1163.8436,2321.1902 C1173.6896,2325.7442 1183.7876,2329.7292 1193.9496,2333.4612 C1201.6686,2329.7462 1209.9066,2327.0362 1218.4006,2326.6652 C1219.9276,2328.5552 1208.2526,2335.8562 1206.3266,2337.8682 C1258.0136,2355.7772 1314.8646,2369.8002 1353.6856,2410.9492 L1354.11597,2411.43702 C1360.72534,2418.89428 1370.933,2429.00109 1366.5376,2439.4612 C1377.7666,2444.1982 1383.2896,2459.7372 1380.0666,2472.0462 C1363.8666,2525.9652 1115.5236,2504.6852 1059.7466,2506.0952 C1015.6386,2500.4642 896.0776,2509.6962 871.5486,2476.1022 C863.2896,2466.7942 865.2076,2448.6922 876.9536,2443.7952 C868.8016,2437.5252 877.7266,2414.0302 877.7466,2403.4792 L877.933829,2402.25957 C879.182715,2394.38155 884.59516,2363.551 890.2126,2342.0062 C890.3276,2340.3092 890.5526,2338.5702 890.8246,2336.8182 L891.000856,2335.7059 C892.117981,2328.83888 893.832241,2321.85464 898.2656,2316.3312 C901.4496,2312.3662 905.8616,2309.9182 910.6486,2309.0332 C911.9316,2300.8302 912.9846,2292.6072 913.8886,2284.3712 C914.5256,2274.6882 914.7676,2264.9872 914.6586,2255.2842 C914.6016,2250.3832 914.4726,2245.4862 914.2336,2240.5912 C914.0576,2236.9892 914.2636,2232.7092 913.3496,2229.0272 C912.7406,2229.6512 911.8736,2229.9862 910.9026,2229.6532 C908.8396,2228.9462 906.9406,2227.6422 905.0466,2226.5742 C904.9756,2226.5342 904.9186,2226.4872 904.8576,2226.4432 C894.7436,2233.0152 887.4246,2204.8952 883.4906,2197.2632 C792.8616,1937.1242 864.4186,1637.7432 717.5036,1393.7902 C697.2216,1437.3462 679.7926,1477.3032 660.2706,1521.1632 C599.3026,1658.1352 524.0376,1899.4072 473.5626,2044.4412 C459.8296,2074.0882 443.6876,2102.7432 424.4996,2129.2162 C418.3656,2136.1762 414.2496,2146.4172 405.3696,2150.1572 L404.5926,2150.2752 L404.5926,2150.2752 C402.2226,2154.7072 398.9326,2158.4402 394.0406,2158.3152 C392.8406,2158.2842 391.6166,2158.1482 390.3806,2157.9352 C386.0446,2188.1152 380.5926,2218.4852 373.3446,2248.1832 L374.322468,2247.7737 C379.06632,2245.81165 384.055406,2244.14033 388.9246,2244.5772 C400.7406,2247.5692 396.3656,2257.9082 387.0256,2261.3182 C398.6516,2264.9322 406.5186,2275.1252 415.1516,2283.6112 C422.4476,2279.6762 430.6256,2277.6352 439.3646,2278.4952 C440.7026,2278.6262 441.7226,2279.2112 442.4316,2280.0152 C442.9326,2280.0182 443.4196,2280.0462 443.8816,2280.1232 L442.9306,2280.6972 L442.9306,2280.6972 C444.4826,2283.3092 443.3746,2287.2852 439.3646,2287.3072 C436.2166,2287.3242 433.1856,2287.6102 430.2546,2288.1522 C428.2196,2289.3432 426.1946,2290.5462 424.1976,2291.8032 C430.9346,2297.7562 438.1076,2303.2472 445.4936,2308.2682 C449.3946,2306.2732 453.5196,2304.6012 457.8106,2303.2602 C463.3496,2301.5282 465.7676,2310.3412 460.2036,2311.9382 C459.0226,2312.2772 457.8526,2312.6542 456.6906,2313.0582 L455.5494,2313.74918 C455.28212,2313.90936 455.0046,2314.0744 454.7146,2314.2452 C507.7116,2351.9572 597.2926,2347.1792 621.5256,2417.7972 C622.3276,2420.4622 621.9146,2422.7612 620.7876,2424.5702 C626.0396,2429.3922 628.4626,2438.0582 627.2796,2444.7082 L627.38055,2445.26708 C628.28154,2450.64805 626.985433,2455.37057 621.2096,2456.5992 C582.6686,2460.1912 544.2216,2462.4752 505.5126,2463.1802 L502.388924,2463.20576 C446.930042,2463.57888 177.17828,2461.56184 165.0106,2425.9212 C161.7656,2419.3232 160.7656,2409.0852 165.5136,2403.2012 C166.0646,2400.0352 167.1496,2397.1522 169.0786,2394.8952 C161.2656,2386.9982 165.1086,2367.0902 164.1526,2357.0642 C165.8676,2323.5902 172.6536,2287.6972 193.0976,2260.3052 C193.4316,2259.8722 193.8356,2259.6052 194.2526,2259.4752 C197.8226,2255.8852 202.5136,2253.6162 207.8776,2253.3112 C208.0446,2252.8942 208.2146,2252.4772 208.3776,2252.0602 C212.5476,2242.2202 216.5086,2232.1982 220.4436,2222.1292 C223.3636,2210.6882 226.4096,2199.2772 229.4606,2187.9272 C232.5096,2176.5882 235.4926,2165.2332 238.4106,2153.8602 C240.7346,2144.7942 242.7336,2134.5772 246.7556,2125.9132 C246.6466,2125.5432 246.5416,2125.1742 246.4216,2124.8042 L242.236325,2123.10912 C214.82256,2111.95759 171.3859,2093.14845 180.9296,2080.7272 C282.6286,1869.2382 382.1776,1568.1542 475.5056,1348.9022 C476.9636,1344.6032 478.5056,1340.3292 480.1986,1336.0952 C484.320267,1325.7877 488.495406,1315.49548 492.729804,1305.23126 L495.2776,1299.0762 L535.9366,1201.1692 L535.9366,1201.1692 C540.1926,1190.9212 544.9906,1180.7272 548.3446,1170.1382 C551.5766,1159.9392 552.4446,1149.7912 546.3046,1140.5092 C540.8106,1132.2032 533.0686,1125.3292 526.8746,1117.5272 C522.1906,1111.6272 517.6246,1105.3252 513.5326,1098.7032 C509.8166,1093.8002 506.7106,1088.1872 503.9396,1083.6642 C499.4986,1076.4172 493.8516,1068.3922 490.6286,1060.0182 C486.4716,1057.3952 482.3066,1054.7852 478.1266,1052.2032 C470.9076,1048.1532 463.8046,1043.9132 456.8906,1039.3262 C448.1586,1034.1292 439.3706,1029.0252 430.5136,1024.0342 C427.3166,1022.4462 424.1176,1020.8642 420.9146,1019.2872 C411.3186,1020.1192 384.8086,1008.2822 375.7776,1000.2732 C374.7456,1000.0652 373.7186,999.8302 372.6976,999.5742 C372.2896,1004.6892 370.6196,1009.3212 366.7286,1012.7562 C340.8516,1025.6072 307.8696,967.4052 298.7796,947.9852 C280.7156,965.6462 323.8176,1053.0072 337.7406,1070.8662 L338.483379,1071.97303 C342.207493,1077.55714 346.111497,1083.82773 351.393737,1087.95384 L351.9266,1088.3592 C355.5476,1091.0402 356.2196,1095.2282 353.2656,1098.7502 C328.1886,1121.4082 301.8646,1071.6562 288.1266,1055.2652 C231.5806,971.9652 195.4496,870.6022 197.0336,769.2672 C171.3096,760.6532 135.6976,756.4452 137.0046,721.5172 C135.6896,695.1522 130.9256,669.0692 129.996874,642.6842 C129.7316,636.6162 148.5776,639.6262 152.8306,640.2662 C146.5656,579.6422 156.0316,518.0922 172.9146,459.8272 C217.2386,310.7412 399.7616,42.0352 579.4126,32.3342 C579.2556,32.0412 579.3296,31.6462 579.7326,31.5412 C587.8636,29.4282 596.8496,29.7662 605.2056,30.0322 C613.9026,30.3082 622.7426,30.3682 631.3936,31.3512 C640.3596,32.3692 649.8536,35.6672 655.8766,42.1932 L657.962822,38.4259956 C660.384649,34.0281136 662.718156,29.5855333 664.4806,24.7322 C665.3736,22.2802 666.0726,19.7382 666.7106,17.1692 C667.4316,13.5052 667.6126,9.6912 669.3456,6.3632 C669.3916,6.2762 669.4486,6.2042 669.4986,6.1232 C670.1216,4.0262 670.8346,1.9722 671.7216,-0.0018 Z M892.2126,2443.6662 C889.6446,2446.2782 885.1936,2447.4162 881.2516,2446.1692 C868.1506,2483.4152 939.2276,2481.0782 962.0396,2483.1742 C986.3646,2485.7682 1429.4606,2508.8302 1354.5256,2454.2182 C1266.6116,2487.7482 972.5686,2491.4462 892.2126,2443.6662 Z M1107.9996,2295.9722 C1102.0846,2302.0762 1093.1656,2304.7912 1086.8206,2310.6162 C1068.8836,2325.7992 1054.4546,2347.1592 1029.6646,2351.1832 C997.0966,2357.2652 967.7366,2341.1812 938.6046,2328.4442 C934.9776,2328.2702 931.1936,2326.7362 927.4756,2325.6002 C927.3436,2325.8702 927.2126,2326.1422 927.0626,2326.3902 C926.8816,2326.3192 926.6886,2326.2592 926.4726,2326.2242 C926.1486,2326.1712 925.8416,2326.1362 925.5246,2326.0892 C924.7766,2325.4912 923.9886,2324.9892 923.1726,2324.5642 C922.6796,2324.4892 922.1896,2324.4292 921.7026,2324.3992 C915.6986,2324.0322 909.1816,2325.4282 905.3286,2330.4082 C904.9986,2330.8342 904.6996,2331.2802 904.4106,2331.7352 C902.5436,2338.3552 902.3046,2346.3662 903.2056,2351.9682 C903.4976,2353.7972 902.7356,2355.5972 901.4456,2356.6352 C900.2946,2384.3462 897.1766,2412.1742 894.9996,2439.5172 C905.8956,2443.4352 917.2016,2446.4192 928.5176,2448.3072 C1006.6046,2457.9132 1085.5256,2462.3762 1164.2126,2459.9612 C1211.0546,2458.2672 1257.8306,2454.0792 1304.1866,2447.1162 C1319.1716,2445.7042 1334.5096,2439.9032 1349.4846,2442.2452 C1350.1226,2441.0412 1351.1176,2440.0102 1352.4996,2439.3072 C1314.1156,2386.7122 1248.5076,2372.4932 1191.3106,2349.4342 C1181.8636,2355.4772 1176.0476,2368.0622 1165.5256,2371.8102 C1161.4406,2372.4242 1155.7606,2370.0142 1156.3596,2364.8282 C1158.0576,2354.2132 1169.5176,2349.3712 1177.2346,2343.2102 C1168.9536,2339.3392 1160.8306,2335.1342 1152.9066,2330.4572 C1145.1226,2337.4772 1135.9106,2342.8182 1128.6226,2350.3062 C1132.7656,2360.4272 1115.4946,2359.5512 1115.3016,2348.7792 C1116.4966,2336.8642 1135.3636,2331.8192 1143.7906,2324.8712 C1130.6286,2316.8562 1118.8726,2306.7462 1107.9996,2295.9722 Z M180.6476,2400.1042 C180.1886,2401.0112 179.4396,2401.8352 178.3306,2402.4762 C176.410825,2403.58672 177.333419,2409.46273 177.429872,2411.44365 L177.4356,2411.5882 C177.5406,2415.1442 177.7626,2418.6902 178.0706,2422.2302 C181.3106,2425.1552 185.4536,2427.3782 190.0566,2428.7152 C330.2416,2451.0962 473.1166,2452.9132 614.6546,2444.7872 C614.0036,2441.0242 611.2526,2437.9242 608.8176,2434.7832 C519.3396,2442.3952 427.7096,2434.4312 338.0816,2427.0172 C285.6836,2420.1252 230.7836,2417.2722 180.6476,2400.1042 Z M384.7406,2262.3742 C361.6366,2270.3312 340.1386,2281.3712 319.6606,2294.5982 C312.0506,2299.5512 304.7876,2305.2312 296.0396,2308.0722 C265.7496,2317.1932 220.3366,2273.3782 219.6086,2272.8872 C209.0896,2265.8012 197.9356,2272.4072 192.2126,2282.2282 C191.6836,2283.1362 182.9106,2333.3652 183.1756,2357.9702 C181.6016,2366.3332 185.8016,2380.0062 183.5666,2389.1262 C185.3236,2391.2422 187.8286,2392.2372 189.5156,2394.4512 C190.1266,2395.2522 189.9536,2396.1582 189.4256,2396.8432 C271.2216,2403.5772 352.5416,2416.3572 434.7266,2419.0552 C490.9746,2422.0312 547.3296,2421.3472 603.5866,2420.6652 C590.7876,2383.0652 547.1916,2373.1342 513.8916,2360.7572 C488.7316,2351.7142 465.5676,2338.2382 445.1856,2320.9182 C436.3466,2327.1262 429.3766,2335.8262 423.1146,2344.5662 C420.2696,2348.1192 414.4266,2350.8022 411.3796,2345.8792 C408.2416,2340.7712 414.3676,2334.3162 421.9316,2328.6602 C425.9096,2322.7662 430.9266,2317.7442 436.7036,2313.6062 C430.3166,2307.9102 424.1666,2301.9752 418.4056,2295.6662 C406.4586,2303.7652 397.6816,2315.4152 389.0876,2326.7222 C384.9576,2331.2292 377.2336,2325.2692 380.6216,2320.1892 C383.3366,2316.6862 386.3926,2313.4562 389.6646,2310.4292 C394.5966,2301.1192 401.6976,2292.5232 410.3126,2286.5702 L409.655545,2285.73551 C402.459402,2276.49495 396.238188,2265.40923 384.7406,2262.3742 Z M181.1766,2394.2042 C180.9786,2394.4472 180.7706,2394.6842 180.5486,2394.9102 C180.7466,2395.3152 180.8986,2395.7382 181.0106,2396.1712 L183.1096,2396.3382 L183.1096,2396.3382 C182.3806,2395.7332 181.7386,2394.9972 181.1766,2394.2042 Z M1052.4736,2224.1192 C1009.6186,2232.2152 965.3476,2235.3282 922.0916,2228.6422 C927.1016,2256.5932 930.2386,2284.7192 928.5956,2313.1042 C993.2706,2331.7842 1020.1426,2362.9322 1073.9536,2300.6822 C1071.3536,2296.7222 1069.8536,2291.8582 1068.1076,2287.1682 C1060.6716,2266.8142 1054.5256,2245.7612 1052.4736,2224.1192 Z M265.3436,2132.4432 C264.7326,2133.7972 263.6306,2134.9092 262.0426,2135.4002 C261.4766,2137.9032 260.8916,2140.4042 260.2676,2142.8992 C259.2176,2155.7772 254.3596,2168.5442 249.3356,2180.4252 C248.9906,2181.2452 248.6516,2182.0652 248.3106,2182.8862 C244.9966,2192.7672 241.5226,2202.6282 238.0956,2212.5012 C235.4996,2222.7562 233.2126,2233.0962 230.8226,2243.4012 C230.3616,2250.3922 229.3696,2257.3232 227.8446,2264.1732 C227.7736,2264.4932 227.6786,2264.7872 227.5736,2265.0682 C229.9686,2266.1372 232.2806,2267.3752 234.4606,2268.6262 C300.0766,2317.9472 288.7446,2284.9722 351.7456,2257.3592 C351.38335,2254.70653 352.710961,2252.31194 353.793894,2249.56636 L353.9336,2249.2062 C353.9996,2249.0332 354.0646,2248.8582 354.1306,2248.6842 C354.0266,2247.6372 354.0876,2246.5132 354.3646,2245.3172 C360.7456,2219.2062 369.6306,2193.5472 377.9466,2167.9982 C379.2776,2164.1502 380.8186,2160.3912 382.3936,2156.6372 C342.4476,2156.1232 302.9356,2145.4822 265.3436,2132.4432 Z M513.0726,1074.3312 C875.4986,1526.4722 796.1006,1579.7912 874.1376,2101.0502 C881.7176,2141.6272 897.1226,2180.1402 907.3166,2219.9452 L908.723959,2219.8079 C910.117975,2219.67445 911.4421,2219.5912 912.4276,2219.9062 L912.4666,2219.9222 L912.4666,2219.9222 L916.485169,2219.87124 C963.374709,2219.2268 1010.4681,2216.77464 1056.2656,2206.0802 C1072.4616,2203.2322 1088.2446,2195.7692 1104.4516,2194.2052 C1104.5176,2192.0992 1105.5156,2190.1342 1106.8736,2188.9972 C981.8706,1893.1882 1068.9646,1555.2772 960.5136,1254.4412 C950.2206,1224.3362 937.9626,1194.9002 925.2846,1165.7302 C785.8946,1249.1082 630.1146,1154.6862 513.0726,1074.3312 Z M248.0626,2145.1292 C247.289457,2148.54149 246.447988,2151.90749 245.680513,2155.15919 L244.5496,2160.0092 C246.1586,2155.1052 247.4276,2150.1332 248.0626,2145.1292 Z M561.7106,1154.4012 C561.9516,1161.8762 560.1486,1169.4132 557.7066,1176.4432 C549.8806,1198.9702 539.8566,1220.9172 530.8826,1243.0112 C524.7926,1258.0022 518.7576,1273.0182 512.6576,1288.0082 C422.3106,1529.4832 311.4086,1853.1582 201.9906,2081.9972 C243.2166,2105.8692 288.4196,2122.7582 335.1836,2131.9082 C346.0426,2135.5422 377.0956,2135.7032 388.0866,2141.4632 L390.5896,2139.0052 L390.5896,2139.0052 C391.0226,2128.7032 402.6956,2121.3592 407.3686,2112.3252 C428.4646,2082.5912 445.2806,2050.0782 460.5356,2017.0352 L463.028286,2009.78413 C503.583151,1891.63123 556.509892,1728.98329 612.270163,1591.48367 L613.9956,1587.2392 C637.1036,1530.5332 652.2926,1478.2592 680.1816,1435.3612 C681.7016,1433.0522 683.2396,1430.7412 684.7876,1428.4302 C685.9276,1426.1382 687.0786,1423.8482 688.2486,1421.5652 C693.2486,1411.8112 698.6406,1402.2702 703.7286,1392.5632 C705.8976,1388.4252 708.0486,1383.7582 709.1876,1378.9772 C664.8866,1301.1202 612.0956,1228.3502 561.7106,1154.4012 Z M628.0606,38.7052 C614.1576,42.0892 599.9106,43.4712 585.9276,46.2782 C489.5586,57.7752 415.6746,126.1402 352.0316,194.0202 C231.4726,320.6972 161.3296,476.5662 166.5066,652.7332 C209.5596,660.5792 252.1686,672.0642 296.0336,674.5732 C289.6586,664.9132 300.3346,652.8302 304.0096,643.5812 C367.4566,520.9512 416.4456,385.5772 456.2266,256.4722 L455.145486,262.107294 C442.654574,326.903454 428.104882,391.424313 405.8966,453.6662 C412.3296,447.3392 518.0076,363.2592 509.7476,391.0612 C477.4606,416.3062 440.9936,436.3112 407.1626,459.4782 C447.3876,593.8992 389.2346,730.0982 378.1856,864.5742 C375.4096,894.4752 375.6506,924.5842 371.9196,954.3722 C370.5006,957.7402 371.9946,964.5922 369.9056,967.7972 C371.4526,975.7032 374.7066,982.9072 381.4216,989.0782 C384.2486,991.6762 387.3346,993.9262 390.5786,995.9342 C398.6776,997.1562 406.8126,1000.2772 413.4086,1003.1662 C428.0856,1009.5962 441.0026,1019.0762 454.1216,1028.1322 L454.4726,1028.3702 L454.4726,1028.3702 C475.6256,1039.2432 496.7566,1051.5942 517.9656,1064.4752 L518.9126,1064.9712 C526.8016,1069.1132 534.8676,1072.8492 541.7416,1078.5932 C542.0546,1078.8552 542.2636,1079.1552 542.4006,1079.4692 L555.283011,1087.42801 C658.469286,1151.13152 764.86144,1214.13152 885.8416,1168.6592 C919.8326,1154.9632 969.2476,1127.2132 962.9016,1084.3042 C961.6506,1080.1882 959.7476,1076.3232 957.5956,1072.5602 C956.9976,1071.7522 956.3826,1070.9572 955.7636,1070.1752 C951.0756,1064.2492 945.8286,1058.8102 941.7576,1052.4082 C940.1016,1049.8042 938.6166,1047.1222 937.3176,1044.3622 C936.3996,1044.0832 935.5836,1043.4372 935.0696,1042.3132 C929.2466,1029.6092 923.5426,1016.8832 918.2306,1003.9532 C853.8286,779.3562 931.9996,538.0382 954.1146,311.5072 C955.6476,298.5352 957.9046,285.4312 957.8986,272.3652 C957.8986,271.7522 958.7866,271.7722 958.8356,272.3652 C966.6356,330.1832 960.7186,388.5392 953.3026,446.0962 C943.8076,518.1002 931.3326,589.8052 922.7616,661.9392 C945.5466,734.6492 1009.3566,787.1882 1076.3596,818.6932 C1087.7596,824.1112 1099.4156,828.9392 1111.3006,833.1912 L1112.098,833.467759 C1125.15707,838.038439 1139.89572,845.10518 1152.4946,835.8432 C1176.6726,819.4292 1193.7416,794.3822 1209.4106,770.2612 C1203.0716,769.5742 1196.7246,768.9792 1190.3726,768.5422 C1174.7766,786.3872 1155.6676,801.5362 1135.5016,813.9162 C1127.2836,818.6282 1117.9476,816.6352 1114.1486,807.4122 C1110.56294,798.710169 1114.95345,788.544629 1118.13245,780.153911 L1118.5916,778.9292 C1134.6856,735.5142 1162.6306,695.7272 1200.3616,668.5392 C1171.8946,662.8462 1142.3266,663.0192 1115.0186,651.7672 C1116.5076,653.3322 1114.5566,655.0832 1113.6086,656.4102 C1113.9456,658.9832 1112.0766,660.8642 1109.7796,661.5532 C1087.4976,690.6752 1070.6106,725.1632 1067.0846,762.0972 C1068.0226,774.6772 1056.7696,789.2052 1045.9336,775.9972 C1037.4586,739.2292 1070.7966,681.7692 1100.1116,659.0812 C1070.7146,638.8972 1079.2836,609.7692 1060.8276,609.6352 C1056.0586,618.7922 1049.8356,627.5592 1041.9926,634.3612 C1038.4476,637.2442 1034.1426,639.4182 1030.3376,641.9762 C1026.3356,644.6672 1022.1696,638.7472 1025.3386,635.4972 L1026.17457,634.491919 C1038.21181,620.089592 1052.50542,605.932086 1054.9916,586.4482 C1058.5856,562.4522 1047.8046,538.1432 1039.5406,516.2242 C1023.6976,474.2032 1013.1896,430.4812 1008.0706,385.8642 C1002.2716,345.8882 1009.3236,304.4222 995.6426,265.7382 C992.9236,254.9652 989.0126,245.1532 984.2186,236.0472 C984.1046,235.9522 983.9916,235.8552 983.8886,235.7362 C978.1976,229.1512 973.6516,221.8262 968.3456,214.9292 C962.7966,207.7142 956.7806,200.8482 950.4086,194.3512 C939.7596,183.4952 928.0026,174.4372 915.7466,165.7152 C915.5196,165.6332 915.2906,165.5272 915.0606,165.3912 C912.7646,164.0342 910.5596,162.3862 908.4316,160.5752 L908.2246,160.4312 C901.0976,155.4762 893.8246,150.0982 888.2616,143.3712 C882.8016,136.7662 878.9156,129.0642 874.4576,121.7892 C868.3636,114.3532 862.5546,106.3862 855.2056,100.1902 C851.0486,97.8162 846.7226,95.5792 843.0126,92.6102 C842.4056,92.3562 841.7886,92.1152 841.1606,91.8872 C842.7416,98.3352 845.1336,104.2682 847.2886,110.8182 C850.4106,109.5002 854.6836,110.9612 855.2086,115.7722 L855.402321,117.568152 C858.537245,147.030616 860.1241,182.6828 842.8026,208.1922 C804.6606,263.5112 747.6896,216.2812 718.8766,177.3832 C693.0196,146.3602 671.2816,111.8522 655.2286,74.7662 L654.962813,74.2759636 C651.973537,68.6006816 645.495272,51.2943194 643.6646,42.9782 C639.0356,40.5402 633.4036,39.3592 628.0606,38.7052 Z M505.9456,1069.7512 C505.8296,1069.8972 505.6976,1070.0232 505.5536,1070.1332 C510.9636,1077.8192 516.1176,1085.7672 521.4296,1093.4792 C517.0746,1086.3592 512.9806,1079.1842 509.3556,1071.9302 C508.2216,1071.1982 507.0816,1070.4762 505.9456,1069.7512 Z M203.1936,771.1802 C223.8676,883.4452 253.4126,1001.5602 335.7366,1085.4982 C310.1156,1049.4022 290.1916,1007.2632 284.3946,963.1262 C284.1546,951.2812 288.4676,938.7682 301.5716,937.0142 C303.808052,936.7142 305.506938,938.71805 306.305734,940.499853 L306.3826,940.6772 C311.5376,952.9852 318.2406,964.6902 326.1776,975.4152 L326.955785,976.430006 C332.945203,984.176512 358.36725,1015.75475 361.9136,1000.6602 C359.3176,924.3572 280.4746,892.8982 267.5626,787.8092 C245.4706,785.4692 224.5066,777.0762 203.1936,771.1802 Z M372.6866,993.8652 C372.7716,995.0632 372.8126,996.2492 372.7946,997.4172 C373.9656,996.9332 375.1696,996.5452 376.4006,996.2442 C375.1506,995.4712 373.9146,994.6752 372.6866,993.8652 Z M371.5176,985.6432 C371.9506,987.8362 372.3166,990.0482 372.5416,992.2382 C374.7916,992.9542 377.0176,993.7372 379.2316,994.5512 C377.8896,993.3462 376.6126,992.0692 375.4156,990.7102 C374.0206,989.1252 372.7126,987.4242 371.5176,985.6432 Z M401.9866,464.8002 C385.8376,509.8772 367.7496,554.2602 347.5546,597.6762 C333.9946,623.0822 324.9476,652.6862 306.1836,674.7332 C306.0006,674.9102 305.8166,675.0732 305.6286,675.2262 L305.939357,675.237948 C311.530772,675.485656 341.91134,678.47644 326.3166,685.3482 C320.2616,709.2112 312.3286,732.5292 305.6956,756.2352 L305.547712,756.922274 C303.120855,768.38773 300.05224,791.48388 283.7666,783.7752 C281.9996,785.1262 279.8786,786.0772 277.5976,786.7132 C284.9176,850.9622 325.5486,892.7882 357.6676,945.2452 C350.487727,917.560643 352.586,888.649929 355.085959,860.383033 L355.7056,853.4272 C368.9766,723.8212 417.6786,596.3732 401.9866,464.8002 Z M536.8658,876.7753 C510.6888,844.1393 381.9348,521.0313 472.9238,716.7823 C505.2628,784.9293 531.8818,857.8833 585.2328,913.0993 C588.9218,917.0643 584.0618,924.0303 579.2678,920.8293 C562.0468,909.3303 548.1088,894.0773 536.8658,876.7753 Z M443.6805,486.2512 C443.5725,485.7272 444.2435,485.4382 444.5385,485.8882 C479.5215,554.9582 504.4995,629.1842 544.0265,696.1642 C567.8865,737.6382 596.5175,776.2982 629.3035,811.1612 C631.7665,813.7792 628.0605,817.3972 625.3925,815.0722 C531.8005,728.7202 486.2975,603.1932 443.6805,486.2512 Z M1133.4926,770.6142 L1133.4356,770.6232 L1133.4356,770.6232 L1132.57523,772.849325 C1132.28285,773.59995 1131.9856,774.3582 1131.6856,775.1212 C1131.8286,775.0582 1131.9726,775.0002 1132.1166,774.9402 C1132.4236,774.6312 1132.7306,774.3182 1133.0376,773.9892 C1132.9686,772.8532 1133.1096,771.7142 1133.4926,770.6142 Z M153.2016,642.9782 C148.4496,644.8432 142.6116,645.1952 137.3586,645.6502 C143.2396,673.3592 148.3166,701.2792 153.6396,729.0622 C156.1006,737.5902 161.8866,740.5842 169.8946,743.2882 L176.330764,745.345893 C206.377307,754.974338 236.5936,764.864 267.5756,770.7692 C269.7536,769.3512 272.8476,769.4202 274.2936,771.6922 C275.8006,771.8332 277.3476,771.9162 278.8766,772.0612 C287.1546,741.4902 301.3196,711.8662 320.2746,686.5072 C267.2936,688.2152 213.9296,674.2422 163.5276,658.6192 C161.4866,659.6102 158.7986,658.9902 157.9376,656.6452 L157.161367,656.423076 C148.699881,653.911914 137.48056,647.74607 155.2626,650.8782 C154.1886,648.3742 153.5926,645.6822 153.2016,642.9782 Z M1371.4546,620.3562 C1336.3356,614.5512 1309.4976,643.0062 1279.5256,656.0682 C1261.5806,663.7662 1213.7596,687.6422 1196.3746,679.7002 C1172.5396,702.6442 1152.4156,729.4512 1138.3436,759.5292 C1142.1796,759.3002 1146.0166,759.1302 1149.8536,759.0082 C1156.8026,756.7772 1164.2206,756.6632 1171.4356,758.8102 C1243.7066,759.6062 1316.0256,773.6502 1388.0056,755.8512 L1389.66193,755.542064 C1404.44811,752.736571 1454.9304,742.06548 1457.8056,731.6082 C1457.0506,727.0562 1443.4766,731.8652 1440.8676,732.3802 C1420.1216,736.4672 1399.0426,738.4162 1378.0206,740.4632 C1372.1736,741.0292 1372.2476,731.9332 1378.0206,731.3552 C1403.3246,728.8372 1427.2996,719.3382 1450.5186,709.4552 C1452.9866,708.3602 1459.5256,706.0932 1464.0496,703.1522 C1442.5966,706.8002 1420.4906,707.4332 1398.7836,706.6592 C1391.3106,705.6922 1390.7836,694.3402 1398.7836,694.5642 C1413.4376,696.1842 1427.4376,688.9502 1439.4006,681.3142 L1442.00412,679.624028 C1461.94483,666.624886 1460.5516,666.06152 1435.3516,670.8932 C1398.3206,677.6362 1360.8436,677.3862 1323.4476,674.8132 C1318.1106,674.7232 1314.4256,667.5412 1318.8416,663.6942 C1336.0606,648.8252 1354.5206,635.5652 1371.4546,620.3562 Z M1201.7026,674.5102 L1201.2956,674.896647 C1200.43631,675.721251 1199.73142,676.450709 1199.33702,676.839071 L1199.1776,676.9932 C1198.6486,677.4902 1198.1356,678.0042 1197.6116,678.5062 C1199.9076,679.2772 1202.4406,679.3212 1205.0536,678.9162 C1203.4766,677.9302 1202.3046,676.3192 1201.7026,674.5102 Z M541.920039,555.597108 L541.834874,555.4892 L542.032015,555.702107 C564.622251,580.147582 587.519656,619.792733 606.2353,651.0562 C608.70245,676.6815 553.36628,570.362202 541.920039,555.597108 Z M1110.3846,650.0712 C1110.60327,650.342533 1110.81438,650.621867 1111.01882,650.907126 L1111.3206,651.3392 L1111.8066,651.0392 C1111.9856,650.9322 1112.1736,650.8662 1112.3656,650.8172 C1111.7036,650.5742 1111.0446,650.3192 1110.3846,650.0712 Z M1007.027,566.6181 C1027.353,569.8091 985.789,595.0631 980.303,598.6811 C976.79,600.0161 943.389,627.5931 945.415,618.6421 C961.052,598.5661 982.629,575.1681 1007.027,566.6181 Z M211.8989,513.6951 C219.4169,501.5861 260.3319,517.5261 273.2649,519.4361 C280.5349,521.3551 287.7259,523.6261 295.0739,525.2371 C300.8159,527.3201 327.5899,525.3021 317.7639,536.6531 C307.5109,542.1641 294.1249,537.9031 283.6249,534.9781 C262.7339,529.2711 241.7709,522.6131 220.3779,519.4461 C219.7359,519.1251 219.6969,519.3421 220.2589,520.0991 C224.8609,530.3251 234.5389,539.9191 245.4399,543.2141 C246.1929,543.4331 245.8759,544.5841 245.1139,544.3901 L244.381445,544.235443 C232.121141,541.499248 205.63376,528.52348 211.8989,513.6951 Z" id="ðŸ–-Ink" fill="#000000"></path>
    </g>
</svg>