<?xml version="1.0" encoding="UTF-8"?>
<svg width="1645px" height="2500px" viewBox="0 0 1645 2500" version="1.1" xmlns="http://www.w3.org/2000/svg" xmlns:xlink="http://www.w3.org/1999/xlink">
    <!-- Generator: Sketch 62 (91390) - https://sketch.com -->
    <title>pose/standing/robot_dance-2</title>
    <desc>Created with Sketch.</desc>
    <g id="pose/standing/robot_dance-2" stroke="none" stroke-width="1" fill="none" fill-rule="evenodd">
        <path d="M354.965535,903.913804 C355.13454,915.405271 356.285995,941.794371 359.169094,952.918661 C327.049996,901.418626 278.922209,845.131094 271.602959,782.054179 C273.884037,781.429782 284.00511,780.496131 285.77217,779.169777 C302.389738,786.892279 299.245835,763.12492 301.701919,752.132185 C308.334146,728.85865 322.268417,705.966037 328.322624,682.538366 C344.237168,675.654285 312.278076,672.737484 307.634917,672.60102 C326.938577,651.10152 335.81788,621.545721 349.56235,596.465753 C369.75804,553.841785 387.845658,510.269439 403.99621,466.01379 C407.526331,493.743521 408.159353,521.773669 406.008279,549.656554 C399.367052,669.089275 354.515519,783.92639 354.965535,903.913804 Z M1469.7148,691.759922 C1459.72246,693.439708 1443.07043,695.030649 1433.09809,695.847471 C1446.18754,688.04152 1484.87409,673.170439 1460.49425,659.805779 C1452.977,657.059804 1444.91044,660.976926 1437.33018,662.188415 C1405.8491,667.371111 1366.97722,667.097638 1335.12913,664.486164 C1346.73853,654.954284 1362.02409,641.226025 1373.35448,631.361329 C1379.37568,626.119728 1385.21392,624.132562 1378.44068,616.305994 C1366.50228,605.183667 1345.15238,613.374467 1331.3489,618.262636 C1293.2716,639.60211 1250.278,662.749984 1209.4106,679.16889 C1208.98259,673.441319 1209.247,666.035921 1203.72682,662.188415 C1187.53326,654.554271 1175.61058,656.785805 1158.37999,654.753568 C1138.29731,651.742518 1120.4467,648.317739 1100.55802,643.004469 C1087.54957,633.079886 1079.61751,603.811992 1058.81679,607.083207 C1077.23942,560.705981 1049.16026,512.32033 1038.6119,467.912508 C1025.44845,422.465988 1018.53221,375.268013 1018.34421,328.014078 C1018.2152,252.35889 974.409705,194.309554 911.113541,155.488913 C886.160689,138.632142 869.404456,97.6305686 838.5114,89.41817 C834.582266,74.3373984 834.343918,67.7129511 830.8938,52.5173139 C829.161741,48.1524216 827.874697,24.4675304 823.518548,25.273553 C818.715384,1.81250244 794.235547,-7.59665808 773.052823,-12.5103526 C745.510882,-18.2202522 707.075568,-25.1367313 682.316722,-9.02511474 C675.145477,-3.05603127 671.995369,6.93923827 671.469351,15.8683195 C668.718257,27.7583804 662.996025,40.0756918 656.325797,50.3919959 C644.942417,46.5445245 651.38464,39.3745577 640.126021,37.7052 C537.323661,22.4623077 423.212252,97.9081213 356.511588,171.508244 C235.606455,295.709359 139.019155,465.263067 154.829695,642.27879 C150.57755,641.650466 131.730905,638.695376 132,644.652679 C132.925946,670.557323 137.690109,692.163513 139.005154,718.04754 C137.698109,752.338354 173.310326,756.469588 199.036206,764.926444 C197.452152,864.413787 233.582386,963.926655 290.132319,1045.70703 C303.870788,1061.79901 324.485493,1117.64098 349.56235,1095.39632 C352.517451,1091.93858 329.599367,1067.98604 325.522227,1062.06801 C311.599752,1044.53481 274.721066,957.722931 300.784683,940.384118 C306.578881,959.123899 362.685258,1049.23364 372.6866,998.088018 C385.970054,1005.8007 407.920344,1011.06376 423.799887,1010.26657 C453.651907,1026.44397 482.6999,1043.91434 511.36788,1062.06801 C524.721336,1088.3035 544.308006,1113.50128 560.717566,1138.69023 C447.152685,1401.11097 336.304787,1833.02789 190.160793,2080.19605 C177.418357,2096.33712 247.517129,2123.77134 259.898552,2129.69429 C236.220743,2168.1556 233.256266,2212.72443 215.24265,2254.13986 C211.811533,2253.58517 208.350414,2254.31461 205.255309,2255.97182 C183.034549,2271.02608 174.649263,2324.91866 173.382219,2351.4909 C174.408254,2363.34463 170.016104,2381.27054 179.602432,2389.99934 C178.262386,2391.45038 177.262352,2393.22245 176.550328,2395.03183 C169.804097,2400.28521 170.635126,2411.89449 174.241249,2419.09273 C186.929682,2445.43818 279.673852,2442.99361 309.770881,2448.62889 C416.380524,2457.66302 505.860197,2459.08559 612.45584,2449.21108 C625.539287,2446.47001 615.644949,2426.04946 609.184728,2420.51039 C612.16883,2418.69414 614.076896,2415.37776 612.770851,2411.11694 C588.538023,2341.78721 500.952961,2346.47804 447.95515,2309.45402 C461.890626,2301.39085 452.896319,2303.96403 444.14102,2307.09977 C434.848702,2301.25831 425.809393,2294.68446 417.436107,2287.42143 C423.867327,2283.44924 420.695218,2280.825 413.737981,2284.15119 C402.772606,2275.35367 394.232314,2261.75633 380.263837,2257.49256 C366.582369,2254.13986 366.582369,2248.28664 366.582369,2244.59718 C374.724647,2211.84478 383.618849,2178.2569 388.190005,2145.04111 C393.066172,2152.23543 435.138712,2094.58861 444.14102,2080.19605 C479.119215,2024.77684 479.024634,1970.1657 503.502471,1909.89759 C553.767189,1778.65237 656.731848,1503.57892 719.523994,1378.05636 C866.443015,1617.55897 794.883569,1941.47939 885.516667,2196.87173 C889.544804,2204.54416 897.119063,2233.32044 907.609422,2225.0187 C911.686561,2225.97395 916.021709,2226.48741 919.904842,2227.0372 C918.783804,2254.95641 916.692732,2282.801 912.055574,2310.42765 C907.736426,2311.56943 904.066301,2313.83729 902.164236,2317.80359 C894.889987,2312.45989 880.962511,2391.29499 879.77047,2399.32576 C879.75247,2409.68428 870.826165,2432.74968 878.978443,2438.90628 C867.233042,2443.71394 865.312976,2461.48571 873.574259,2470.62391 C898.103097,2503.60506 1017.66818,2494.54148 1061.77769,2500.06975 C1117.5576,2498.68547 1350.90808,2519.57825 1367.10964,2466.6419 C1370.33075,2454.55745 1364.80956,2439.30193 1353.57918,2434.65134 C1358.07333,2424.15636 1347.31096,2414.02364 1340.72774,2406.65948 C1301.90441,2366.26116 1242.2082,2359.89731 1190.51843,2342.31502 C1192.4455,2340.33972 1123.04511,2304.7658 1107.9996,2295.9722 C1108.99263,2284.02618 1084.18001,2296.00263 1084.11101,2295.9722 C1072.28061,2275.05488 1063.90034,2242.50991 1055.96807,2219.9452 C1070.60757,2215.40555 1105.8802,2211.37228 1112.41742,2196.87173 C1133.42814,2189.82173 1112.35275,2159.33942 1107.9996,2145.04111 C984.838391,1836.76053 1101.68605,1447.91021 919.904842,1156.94194 C953.225981,1137.85167 991.453512,1096.07215 958.539387,1061.02342 C951.952162,1052.59798 935.839539,1026.36631 936.104548,1030.9462 C929.984149,1005.97034 916.314529,962.948782 912.055574,937.694104 C896.418451,844.969361 906.667588,758.13012 919.904842,664.486164 C938.28247,734.94982 1001.62363,793.655604 1066.05984,825.849384 C1091.2077,836.229502 1124.41483,857.65537 1152.02377,850.895972 C1176.94163,843.521013 1222.19617,792.347903 1227.52936,767.769613 C1300.16884,776.410057 1375.59042,769.474925 1445.00979,746.632381 C1453.92109,743.260046 1464.46645,743.545504 1461.71136,730.8936 C1458.96326,720.156122 1439.36839,722.894662 1430.9431,724.888611 C1443.82154,717.747309 1477.25406,715.877768 1477.00658,697.205729 C1476.56304,693.314043 1473.69094,691.091345 1469.7148,691.759922 Z" id="ðŸŽ¨-Background" fill="#FFFFFF"></path>
        <path d="M1450.5186,709.4552 C1427.2996,719.3382 1403.3246,728.8372 1378.0206,731.3552 C1372.2476,731.9332 1372.1736,741.0292 1378.0206,740.4632 C1399.0426,738.4162 1420.1216,736.4672 1440.8676,732.3802 C1443.4766,731.8652 1457.0506,727.0562 1457.8056,731.6082 C1454.8106,742.5012 1400.1586,753.6262 1388.0056,755.8512 C1316.0256,773.6502 1243.7066,759.6062 1171.4356,758.8102 C1164.2206,756.6632 1156.8026,756.7772 1149.8536,759.0082 C1146.0166,759.1302 1142.1796,759.3002 1138.3436,759.5292 C1152.4156,729.4512 1172.5396,702.6442 1196.3746,679.7002 C1213.7596,687.6422 1261.5806,663.7662 1279.5256,656.0682 C1309.4976,643.0062 1336.3356,614.5512 1371.4546,620.3562 C1354.5206,635.5652 1336.0606,648.8252 1318.8416,663.6942 C1314.4256,667.5412 1318.1106,674.7232 1323.4476,674.8132 C1360.8436,677.3862 1398.3206,677.6362 1435.3516,670.8932 C1461.6016,665.8602 1462.0196,666.6812 1439.4006,681.3142 C1427.4376,688.9502 1413.4376,696.1842 1398.7836,694.5642 C1390.7836,694.3402 1391.3106,705.6922 1398.7836,706.6592 C1420.4906,707.4332 1442.5966,706.8002 1464.0496,703.1522 C1459.5256,706.0932 1452.9866,708.3602 1450.5186,709.4552 M1133.0376,773.9892 C1132.7306,774.3182 1132.4236,774.6312 1132.1166,774.9402 C1131.9726,775.0002 1131.8286,775.0582 1131.6856,775.1212 C1132.2856,773.5952 1132.8746,772.0882 1133.4356,770.6232 C1133.4546,770.6202 1133.4736,770.6172 1133.4926,770.6142 C1133.1096,771.7142 1132.9686,772.8532 1133.0376,773.9892 M960.5136,1254.4412 C1068.9646,1555.2782 981.8706,1893.1882 1106.8736,2188.9972 C1105.5156,2190.1342 1104.5176,2192.0982 1104.4516,2194.2052 C1088.2446,2195.7702 1072.4616,2203.2332 1056.2656,2206.0802 C1009.1596,2217.0802 960.6826,2219.3602 912.4666,2219.9222 C912.4536,2219.9172 912.4416,2219.9112 912.4276,2219.9062 C911.1136,2219.4862 909.1976,2219.7742 907.3166,2219.9462 C897.1226,2180.1392 881.7176,2141.6272 874.1376,2101.0502 C796.1006,1579.7912 875.4986,1526.4722 513.0726,1074.3312 C630.1146,1154.6862 785.8946,1249.1082 925.2846,1165.7302 C937.9626,1194.9002 950.2206,1224.3362 960.5136,1254.4412 M1068.1076,2287.1682 C1069.8536,2291.8582 1071.3536,2296.7212 1073.9536,2300.6822 C1020.1426,2362.9322 993.2706,2331.7842 928.5956,2313.1042 C930.2386,2284.7192 927.1016,2256.5932 922.0916,2228.6422 C965.3476,2235.3292 1009.6186,2232.2152 1052.4736,2224.1192 C1054.5256,2245.7612 1060.6716,2266.8142 1068.1076,2287.1682 M1107.9996,2295.9722 C1118.8726,2306.7472 1130.6286,2316.8562 1143.7906,2324.8712 C1135.3636,2331.8192 1116.4966,2336.8642 1115.3016,2348.7802 C1115.4946,2359.5512 1132.7656,2360.4272 1128.6226,2350.3062 C1135.9106,2342.8192 1145.1226,2337.4772 1152.9066,2330.4572 C1160.8306,2335.1332 1168.9536,2339.3392 1177.2346,2343.2092 C1169.5176,2349.3712 1158.0576,2354.2132 1156.3596,2364.8292 C1155.7606,2370.0142 1161.4406,2372.4242 1165.5256,2371.8112 C1176.0476,2368.0622 1181.8636,2355.4772 1191.3106,2349.4342 C1248.5076,2372.4942 1314.1156,2386.7112 1352.4996,2439.3072 C1351.1176,2440.0102 1350.1226,2441.0412 1349.4846,2442.2462 C1334.5096,2439.9032 1319.1716,2445.7042 1304.1866,2447.1162 C1257.8306,2454.0792 1211.0546,2458.2672 1164.2126,2459.9612 C1085.5256,2462.3752 1006.6046,2457.9132 928.5176,2448.3072 C917.2016,2446.4182 905.8956,2443.4352 894.9996,2439.5172 C897.1766,2412.1732 900.2946,2384.3462 901.4456,2356.6352 C902.7356,2355.5972 903.4976,2353.7972 903.2056,2351.9682 C902.3046,2346.3662 902.5436,2338.3552 904.4106,2331.7352 C904.6996,2331.2802 904.9986,2330.8332 905.3286,2330.4092 C909.1816,2325.4282 915.6986,2324.0322 921.7026,2324.3992 C922.1896,2324.4292 922.6796,2324.4892 923.1726,2324.5642 C923.9886,2324.9892 924.7766,2325.4912 925.5246,2326.0892 C925.8416,2326.1362 926.1486,2326.1702 926.4726,2326.2242 C926.6886,2326.2592 926.8816,2326.3192 927.0626,2326.3902 C927.2126,2326.1412 927.3436,2325.8702 927.4756,2325.6002 C931.1936,2326.7372 934.9776,2328.2702 938.6046,2328.4442 C967.7366,2341.1812 997.0966,2357.2642 1029.6646,2351.1822 C1054.4546,2347.1592 1068.8836,2325.7992 1086.8206,2310.6162 C1093.1656,2304.7912 1102.0846,2302.0762 1107.9996,2295.9722 M1354.5256,2454.2182 C1429.4606,2508.8302 986.3646,2485.7682 962.0396,2483.1742 C939.2276,2481.0792 868.1506,2483.4152 881.2516,2446.1682 C885.1936,2447.4162 889.6446,2446.2782 892.2126,2443.6662 C972.5686,2491.4462 1266.6116,2487.7482 1354.5256,2454.2182 M703.7286,1392.5632 C698.6406,1402.2702 693.2486,1411.8112 688.2486,1421.5652 C687.0786,1423.8482 685.9276,1426.1372 684.7876,1428.4302 C683.2396,1430.7412 681.7016,1433.0512 680.1816,1435.3612 C652.2926,1478.2592 637.1036,1530.5332 613.9956,1587.2402 C556.4516,1728.4502 501.8146,1897.1502 460.5356,2017.0362 C445.2806,2050.0782 428.4646,2082.5912 407.3686,2112.3252 C402.6956,2121.3592 391.0226,2128.7032 390.5896,2139.0052 C390.4636,2139.1292 390.3366,2139.2532 390.2106,2139.3772 C389.5026,2140.0732 388.7966,2140.7702 388.0866,2141.4632 C377.0956,2135.7032 346.0426,2135.5422 335.1836,2131.9082 C288.4196,2122.7582 243.2166,2105.8692 201.9906,2081.9972 C311.4086,1853.1582 422.3106,1529.4832 512.6576,1288.0082 C518.7576,1273.0182 524.7926,1258.0022 530.8826,1243.0102 C539.8566,1220.9172 549.8806,1198.9692 557.7066,1176.4442 C560.1486,1169.4132 561.9516,1161.8762 561.7106,1154.4012 C612.0956,1228.3502 664.8866,1301.1202 709.1876,1378.9772 C708.0486,1383.7582 705.8976,1388.4252 703.7286,1392.5632 M377.9466,2167.9982 C369.6306,2193.5472 360.7456,2219.2052 354.3646,2245.3172 C354.0876,2246.5132 354.0266,2247.6372 354.1306,2248.6842 C354.0646,2248.8582 353.9996,2249.0332 353.9336,2249.2062 C352.8296,2252.1042 351.3676,2254.5912 351.7456,2257.3592 C288.7446,2284.9722 300.0766,2317.9472 234.4606,2268.6262 C232.2806,2267.3752 229.9686,2266.1372 227.5736,2265.0692 C227.6786,2264.7872 227.7736,2264.4932 227.8446,2264.1722 C229.3696,2257.3232 230.3616,2250.3922 230.8226,2243.4012 C233.2126,2233.0962 235.4996,2222.7562 238.0956,2212.5002 C241.5226,2202.6282 244.9966,2192.7662 248.3106,2182.8852 C248.6516,2182.0652 248.9906,2181.2452 249.3356,2180.4242 C254.3596,2168.5432 259.2176,2155.7772 260.2676,2142.8992 C260.8916,2140.4042 261.4766,2137.9032 262.0426,2135.4002 C263.6306,2134.9092 264.7326,2133.7972 265.3436,2132.4442 C302.9356,2145.4822 342.4476,2156.1232 382.3936,2156.6372 C380.8186,2160.3912 379.2776,2164.1512 377.9466,2167.9982 M384.7406,2262.3742 C396.5866,2265.5012 402.8316,2277.1742 410.3126,2286.5702 C401.6976,2292.5242 394.5966,2301.1192 389.6646,2310.4292 C386.3926,2313.4562 383.3366,2316.6862 380.6216,2320.1892 C377.2336,2325.2692 384.9576,2331.2292 389.0876,2326.7222 C397.6816,2315.4152 406.4586,2303.7642 418.4056,2295.6662 C424.1666,2301.9752 430.3166,2307.9102 436.7036,2313.6062 C430.9266,2317.7442 425.9096,2322.7662 421.9316,2328.6612 C414.3676,2334.3162 408.2416,2340.7722 411.3796,2345.8792 C414.4266,2350.8022 420.2696,2348.1192 423.1146,2344.5672 C429.3766,2335.8262 436.3466,2327.1262 445.1856,2320.9182 C465.5676,2338.2382 488.7316,2351.7132 513.8916,2360.7562 C547.1916,2373.1342 590.7876,2383.0652 603.5866,2420.6652 C547.3296,2421.3472 490.9746,2422.0322 434.7266,2419.0552 C352.5416,2416.3572 271.2216,2403.5772 189.4256,2396.8422 C189.9536,2396.1592 190.1266,2395.2522 189.5156,2394.4512 C187.8286,2392.2372 185.3236,2391.2422 183.5666,2389.1252 C185.8016,2380.0062 181.6016,2366.3332 183.1756,2357.9692 C182.9106,2333.3652 191.6836,2283.1362 192.2126,2282.2282 C197.9356,2272.4072 209.0896,2265.8012 219.6086,2272.8872 C220.3366,2273.3782 265.7496,2317.1932 296.0396,2308.0722 C304.7876,2305.2312 312.0506,2299.5512 319.6606,2294.5982 C340.1386,2281.3712 361.6366,2270.3302 384.7406,2262.3742 M614.6546,2444.7882 C473.1166,2452.9132 330.2416,2451.0962 190.0566,2428.7152 C185.4536,2427.3772 181.3106,2425.1552 178.0706,2422.2312 C177.7626,2418.6902 177.5406,2415.1442 177.4356,2411.5882 C177.3826,2409.7672 176.3616,2403.6162 178.3306,2402.4762 C179.4396,2401.8342 180.1886,2401.0102 180.6476,2400.1042 C230.7836,2417.2722 285.6836,2420.1252 338.0816,2427.0172 C427.7096,2434.4312 519.3396,2442.3952 608.8176,2434.7842 C611.2526,2437.9242 614.0036,2441.0242 614.6546,2444.7882 M181.1766,2394.2042 C181.7386,2394.9972 182.3806,2395.7332 183.1096,2396.3382 C182.4106,2396.2842 181.7106,2396.2252 181.0106,2396.1702 C180.8986,2395.7392 180.7466,2395.3152 180.5486,2394.9112 C180.7706,2394.6842 180.9786,2394.4482 181.1766,2394.2042 M245.3036,2156.7752 C246.1656,2153.0282 247.1606,2149.1102 248.0626,2145.1292 C247.4276,2150.1332 246.1586,2155.1052 244.5496,2160.0082 C244.7986,2158.9302 245.0546,2157.8542 245.3036,2156.7752 M505.5536,1070.1332 C505.6976,1070.0232 505.8296,1069.8972 505.9456,1069.7512 C507.0816,1070.4762 508.2216,1071.1982 509.3556,1071.9302 C512.9806,1079.1842 517.0746,1086.3592 521.4296,1093.4792 C516.1176,1085.7672 510.9636,1077.8192 505.5536,1070.1332 M372.5416,992.2382 C372.3166,990.0482 371.9506,987.8362 371.5176,985.6432 C372.7126,987.4242 374.0206,989.1252 375.4156,990.7102 C376.6126,992.0692 377.8896,993.3462 379.2316,994.5512 C377.0176,993.7372 374.7916,992.9542 372.5416,992.2382 M372.7946,997.4172 C372.8126,996.2492 372.7716,995.0632 372.6866,993.8652 C373.9146,994.6752 375.1506,995.4712 376.4006,996.2442 C375.1696,996.5452 373.9656,996.9332 372.7946,997.4172 M355.7056,853.4272 C352.9936,883.8892 349.8976,915.2852 357.6676,945.2452 C325.5486,892.7882 284.9176,850.9622 277.5976,786.7132 C279.8786,786.0772 281.9996,785.1262 283.7666,783.7752 C300.3846,791.6412 303.2406,767.4322 305.6956,756.2352 C312.3286,732.5292 320.2616,709.2112 326.3166,685.3482 C342.2296,678.3362 310.2716,675.3652 305.6286,675.2262 C305.8166,675.0732 306.0006,674.9102 306.1836,674.7332 C324.9476,652.6862 333.9946,623.0822 347.5546,597.6762 C367.7496,554.2602 385.8376,509.8772 401.9866,464.8002 C417.6786,596.3732 368.9766,723.8212 355.7056,853.4272 M326.1776,975.4152 C318.2406,964.6902 311.5376,952.9852 306.3826,940.6772 C305.6196,938.8542 303.8826,936.7042 301.5716,937.0142 C288.4676,938.7682 284.1546,951.2812 284.3946,963.1262 C290.1916,1007.2632 310.1156,1049.4022 335.7366,1085.4982 C253.4126,1001.5602 223.8676,883.4452 203.1936,771.1802 C224.5066,777.0762 245.4706,785.4692 267.5626,787.8092 C280.4746,892.8982 359.3176,924.3572 361.9136,1000.6602 C358.1806,1016.5492 330.2086,980.7232 326.1776,975.4152 M1112.3656,650.8172 C1112.1736,650.8662 1111.9856,650.9322 1111.8066,651.0392 C1111.6426,651.1362 1111.4836,651.2412 1111.3206,651.3392 C1111.0236,650.9032 1110.7126,650.4782 1110.3846,650.0712 C1111.0446,650.3192 1111.7036,650.5742 1112.3656,650.8172 M1205.0536,678.9162 C1202.4406,679.3212 1199.9076,679.2772 1197.6116,678.5062 C1198.1356,678.0042 1198.6486,677.4902 1199.1776,676.9932 C1199.5636,676.6302 1200.5216,675.6192 1201.7026,674.5102 C1202.3046,676.3192 1203.4766,677.9302 1205.0536,678.9162 M1479.95453,695.1952 C1479.5166,691.2312 1476.6446,688.9672 1472.6696,689.6472 C1462.6766,691.3592 1452.7206,692.5992 1442.7476,693.4312 C1455.8366,685.4792 1484.0446,669.5892 1459.6666,655.9762 C1452.1486,653.1792 1443.2116,656.1312 1435.6326,657.3652 C1404.1526,662.6442 1372.2036,664.8532 1340.3556,662.1932 C1351.9636,652.4832 1363.9826,643.2672 1375.3126,633.2202 C1381.3336,627.8812 1388.1716,620.7642 1381.3986,612.7922 C1369.4606,601.4622 1343.1096,609.8062 1329.3086,614.7852 C1291.2316,636.5212 1254.5296,659.6262 1213.6646,676.3512 C1213.2346,670.5172 1215.2096,663.4462 1209.6896,659.5272 C1193.4976,651.7502 1173.5766,654.0242 1156.3446,651.9542 C1136.2626,648.8872 1118.4146,644.3802 1098.5256,638.9682 C1085.5176,628.8582 1083.5856,602.1022 1062.7846,605.4352 C1081.2066,558.1982 1047.1286,511.9662 1036.5816,466.7342 C1023.4176,420.4422 1016.5016,372.3682 1016.3146,324.2352 C1016.1916,247.1892 972.3766,188.0382 909.0866,148.5052 C908.0226,147.6322 906.9706,146.7402 905.9156,145.8522 C903.1786,142.9702 900.5016,140.0132 897.8866,136.9632 C892.3756,130.5362 887.0426,123.9412 881.4486,117.5822 C878.9036,113.6132 876.2086,109.7522 873.0576,106.2252 C870.2696,102.7782 867.1426,99.6662 863.1346,97.2262 C862.8226,97.0362 862.4946,96.8702 862.1766,96.6872 C855.4976,92.1222 847.9436,88.9372 839.9566,87.3552 C836.1776,72.7952 832.1526,58.3022 828.8706,43.6202 C827.3666,39.9302 825.4166,13.1642 821.3736,16.1392 C816.2956,28.9972 820.9296,145.3532 845.6996,130.1532 C848.1386,160.4162 848.6156,203.9002 815.2556,217.2772 C756.7986,235.4912 681.5926,104.7272 657.3946,60.5032 C664.0746,63.0822 669.7426,47.5382 672.5806,31.5462 C673.7686,27.7602 674.7406,23.8992 675.5356,20.0142 C676.3846,15.8622 677.5966,11.4962 676.6286,7.3152 C676.3116,5.9462 675.2576,5.0372 674.0276,4.6532 C673.5806,2.1272 672.8266,0.4462 671.7216,-0.0018 C670.8346,1.9722 670.1216,4.0262 669.4986,6.1232 C669.4486,6.2042 669.3916,6.2762 669.3456,6.3632 C667.6126,9.6912 667.4316,13.5052 666.7106,17.1692 C666.0726,19.7382 665.3736,22.2802 664.4806,24.7322 C662.2146,30.9722 659.0046,36.5332 655.8766,42.1932 C649.8536,35.6672 640.3596,32.3692 631.3936,31.3512 C622.7426,30.3682 613.9026,30.3082 605.2056,30.0322 C596.8496,29.7662 587.8636,29.4282 579.7326,31.5412 C579.3296,31.6462 579.2556,32.0412 579.4126,32.3342 C399.7616,42.0352 217.2386,310.7412 172.9146,459.8272 C156.0316,518.0922 146.5656,579.6422 152.8306,640.2662 C148.5776,639.6262 129.7316,636.6162 129.999707,642.6842 C130.9256,669.0692 135.6896,695.1522 137.0046,721.5172 C135.6976,756.4452 171.3096,760.6532 197.0336,769.2672 C195.4496,870.6022 231.5806,971.9652 288.1266,1055.2652 C301.8646,1071.6562 328.1886,1121.4082 353.2656,1098.7502 C356.2196,1095.2282 355.5476,1091.0392 351.9266,1088.3592 C346.0136,1083.9812 341.8166,1076.8952 337.7406,1070.8662 C323.8176,1053.0072 280.7156,965.6462 298.7796,947.9852 C307.8696,967.4052 340.8516,1025.6072 366.7286,1012.7562 C370.6196,1009.3212 372.2896,1004.6892 372.6976,999.5742 C373.7186,999.8302 374.7456,1000.0652 375.7776,1000.2732 C384.8086,1008.2822 411.3186,1020.1192 420.9146,1019.2872 C424.1176,1020.8642 427.3166,1022.4462 430.5136,1024.0342 C439.3706,1029.0252 448.1586,1034.1292 456.8906,1039.3262 C463.8046,1043.9132 470.9076,1048.1532 478.1266,1052.2032 C482.3066,1054.7852 486.4716,1057.3952 490.6286,1060.0182 C493.8516,1068.3922 499.4986,1076.4172 503.9396,1083.6642 C506.7106,1088.1872 509.8166,1093.7992 513.5326,1098.7042 C517.6246,1105.3252 522.1906,1111.6272 526.8746,1117.5282 C533.0686,1125.3292 540.8106,1132.2032 546.3046,1140.5092 C552.4446,1149.7912 551.5766,1159.9392 548.3446,1170.1382 C544.9906,1180.7272 540.1926,1190.9212 535.9366,1201.1692 C531.3336,1212.2522 526.7306,1223.3362 522.1276,1234.4202 C513.1776,1255.9732 504.2276,1277.5242 495.2776,1299.0772 C490.1676,1311.3792 485.1446,1323.7262 480.1986,1336.0952 C478.5056,1340.3292 476.9636,1344.6032 475.5056,1348.9022 C382.1776,1568.1542 282.6286,1869.2382 180.9296,2080.7272 C170.8836,2093.8022 219.5416,2113.9552 246.4216,2124.8042 C246.5416,2125.1742 246.6466,2125.5432 246.7556,2125.9132 C242.7336,2134.5772 240.7346,2144.7942 238.4106,2153.8602 C235.4926,2165.2332 232.5096,2176.5882 229.4606,2187.9262 C226.4096,2199.2782 223.3636,2210.6882 220.4436,2222.1292 C216.5086,2232.1982 212.5476,2242.2192 208.3776,2252.0612 C208.2146,2252.4772 208.0446,2252.8952 207.8776,2253.3112 C202.5136,2253.6162 197.8226,2255.8852 194.2526,2259.4752 C193.8356,2259.6052 193.4316,2259.8722 193.0976,2260.3052 C172.6536,2287.6972 165.8676,2323.5902 164.1526,2357.0642 C165.1086,2367.0902 161.2656,2386.9982 169.0786,2394.8952 C167.1496,2397.1532 166.0646,2400.0362 165.5136,2403.2022 C160.7656,2409.0852 161.7656,2419.3232 165.0106,2425.9212 C177.4266,2462.2892 458.0476,2463.6472 505.5126,2463.1802 C544.2216,2462.4752 582.6686,2460.1922 621.2096,2456.5982 C627.1846,2455.3292 628.3656,2450.3182 627.2796,2444.7072 C628.4626,2438.0582 626.0396,2429.3912 620.7876,2424.5702 C621.9146,2422.7612 622.3276,2420.4612 621.5256,2417.7972 C597.2926,2347.1792 507.7116,2351.9572 454.7146,2314.2452 C455.4396,2313.8182 456.0866,2313.4272 456.6906,2313.0572 C457.8526,2312.6542 459.0226,2312.2772 460.2036,2311.9382 C465.7676,2310.3402 463.3496,2301.5282 457.8106,2303.2602 C453.5196,2304.6002 449.3946,2306.2732 445.4936,2308.2682 C438.1076,2303.2472 430.9346,2297.7562 424.1976,2291.8032 C426.1946,2290.5462 428.2196,2289.3432 430.2546,2288.1532 C433.1856,2287.6102 436.2166,2287.3252 439.3646,2287.3072 C443.3746,2287.2862 444.4826,2283.3092 442.9306,2280.6972 C443.2476,2280.5022 443.5656,2280.3212 443.8816,2280.1232 C443.4196,2280.0462 442.9326,2280.0182 442.4316,2280.0142 C441.7226,2279.2112 440.7026,2278.6262 439.3646,2278.4952 C430.6256,2277.6352 422.4476,2279.6762 415.1516,2283.6112 C406.5186,2275.1252 398.6516,2264.9322 387.0256,2261.3182 C396.3656,2257.9082 400.7406,2247.5692 388.9246,2244.5772 C383.7196,2244.1102 378.3776,2246.0522 373.3446,2248.1832 C380.5926,2218.4852 386.0446,2188.1162 390.3806,2157.9362 C391.6166,2158.1492 392.8406,2158.2842 394.0406,2158.3152 C398.9326,2158.4402 402.2226,2154.7072 404.5926,2150.2762 C404.8566,2150.2372 405.1186,2150.1972 405.3696,2150.1572 C414.2496,2146.4172 418.3656,2136.1762 424.4996,2129.2162 C443.6876,2102.7432 459.8296,2074.0882 473.5626,2044.4412 C524.0376,1899.4072 599.3026,1658.1352 660.2706,1521.1632 C679.7926,1477.3032 697.2216,1437.3462 717.5036,1393.7902 C864.4186,1637.7432 792.8616,1937.1242 883.4906,2197.2622 C887.4246,2204.8952 894.7436,2233.0142 904.8576,2226.4432 C904.9186,2226.4872 904.9756,2226.5342 905.0466,2226.5742 C906.9406,2227.6422 908.8396,2228.9462 910.9026,2229.6532 C911.8736,2229.9862 912.7406,2229.6512 913.3496,2229.0282 C914.2636,2232.7092 914.0576,2236.9892 914.2336,2240.5902 C914.4726,2245.4862 914.6016,2250.3832 914.6586,2255.2842 C914.7676,2264.9872 914.5256,2274.6882 913.8886,2284.3722 C912.9846,2292.6072 911.9316,2300.8302 910.6486,2309.0332 C905.8616,2309.9182 901.4496,2312.3662 898.2656,2316.3302 C893.5926,2322.1532 891.9406,2329.5982 890.8246,2336.8182 C890.5526,2338.5712 890.3276,2340.3092 890.2126,2342.0062 C884.2366,2364.9262 878.4926,2398.3552 877.7466,2403.4792 C877.7266,2414.0302 868.8016,2437.5252 876.9536,2443.7942 C865.2076,2448.6922 863.2896,2466.7932 871.5486,2476.1022 C896.0776,2509.6962 1015.6386,2500.4642 1059.7466,2506.0952 C1115.5236,2504.6862 1363.8666,2525.9652 1380.0666,2472.0452 C1383.2896,2459.7372 1377.7666,2444.1982 1366.5376,2439.4602 C1371.0296,2428.7722 1360.2696,2418.4502 1353.6856,2410.9502 C1314.8646,2369.8002 1258.0136,2355.7772 1206.3266,2337.8682 C1208.2526,2335.8562 1219.9276,2328.5552 1218.4006,2326.6642 C1209.9066,2327.0372 1201.6686,2329.7472 1193.9496,2333.4612 C1183.7876,2329.7292 1173.6896,2325.7452 1163.8436,2321.1902 C1191.8836,2298.1072 1175.4946,2305.2202 1156.0816,2317.4502 C1153.9446,2316.3272 1151.8006,2315.2092 1149.6546,2314.0942 C1149.8666,2313.1542 1149.6496,2312.1332 1148.7906,2311.3302 C1146.0726,2308.7842 1142.5326,2307.7662 1139.2016,2306.2222 C1135.6226,2304.5632 1132.1476,2302.6632 1128.8046,2300.5712 C1122.6226,2296.7042 1117.4236,2290.5612 1110.9606,2287.3462 C1109.9726,2286.8552 1108.9606,2286.5692 1107.9446,2286.4412 C1103.7686,2282.6632 1093.6646,2286.2452 1088.9526,2289.7122 C1088.8756,2289.6782 1088.8076,2289.6482 1088.7386,2289.6182 C1076.9086,2268.3112 1068.0896,2245.5802 1060.1586,2222.5962 C1074.7966,2217.9712 1107.7386,2216.2282 1114.2756,2201.4582 C1135.2866,2194.2782 1120.0336,2162.4162 1115.6806,2147.8522 C992.5236,1833.8432 1109.9276,1460.3522 928.1526,1163.9772 C960.9106,1144.8612 997.5366,1099.1682 967.4866,1063.7082 C966.6446,1062.0612 965.7236,1060.4532 964.7906,1058.9052 C960.2766,1051.4082 955.4146,1044.1632 950.9786,1036.6232 C950.7516,1035.6662 950.5506,1034.6962 950.4136,1033.6992 C950.1506,1031.8772 949.0116,1030.9772 947.6656,1030.7612 C943.2106,1022.5722 939.2506,1014.1682 935.4976,1005.6322 C912.3146,896.1402 906.0726,783.9482 921.5156,672.6642 C939.8916,744.4362 999.5936,798.5302 1064.0276,831.3222 C1089.1746,841.8952 1122.3806,863.7202 1149.9886,856.8342 C1174.9056,849.3222 1220.1606,797.1982 1225.4926,772.1632 C1298.1286,780.9642 1373.5476,773.9002 1442.9646,750.6322 C1451.8756,747.1982 1469.2406,741.9912 1466.4846,729.1032 C1463.7366,718.1672 1450.7166,720.4822 1442.2906,722.5132 C1455.1676,715.2392 1480.2076,714.2142 1479.95453,695.1952" id="ðŸ–-Ink" fill="#000000"></path>
    </g>
</svg>