<?xml version="1.0" encoding="UTF-8"?>
<svg width="1645px" height="2500px" viewBox="0 0 1645 2500" version="1.1" xmlns="http://www.w3.org/2000/svg" xmlns:xlink="http://www.w3.org/1999/xlink">
    <!-- Generator: Sketch 62 (91390) - https://sketch.com -->
    <title>pose/standing/shirt-2</title>
    <desc>Created with Sketch.</desc>
    <g id="pose/standing/shirt-2" stroke="none" stroke-width="1" fill="none" fill-rule="evenodd">
        <path d="M988.869391,1550.83855 C985.711332,1578.54229 975.535402,1635.84509 970.538981,1663.99269 C969.086838,1672.17342 968.069763,1677.90657 967.77704,1679.78718 C939.503999,1827.5909 927.931796,1977.77953 922.565156,2127.94523 C920.987691,2147.48487 921.770285,2166.97364 925.167691,2186.28159 C925.342338,2187.27413 925.523642,2188.26476 925.711761,2189.25292 C926.661672,2189.05865 927.625489,2188.88181 928.603556,2188.72285 C968.366988,2182.26035 995.150264,2211.29953 1021.03437,2238.67967 C1031.15409,2249.38428 1041.13412,2259.92592 1051.60491,2268.33828 C1076.74129,2290.76787 1103.94863,2310.72566 1132.4559,2328.64268 C1144.10982,2335.50449 1157.33081,2343.61503 1166.25629,2354.36961 C1172.33371,2361.69248 1176.38847,2370.2676 1176.28246,2380.57084 L1176.24609,2384.10572 L1179.73981,2383.56661 C1180.78645,2383.4051 1181.65718,2383.46266 1182.36314,2383.79978 C1183.11213,2384.15745 1183.62808,2384.80827 1184.04294,2385.56906 C1185.90219,2388.97865 1185.89548,2394.39301 1185.99921,2398.49516 C1186.02575,2399.54498 1186.05091,2400.52268 1186.09542,2401.38903 C1186.40986,2413.69885 1180.84372,2421.82254 1172.46451,2427.37882 C1159.41978,2436.02881 1139.95901,2438.75281 1124.18286,2441.05514 C1121.26389,2441.48113 1118.46538,2441.88967 1115.82917,2442.31225 C1018.79003,2452.71411 920.544884,2426.44566 830.757576,2390.86273 C830.50538,2390.76278 830.253186,2390.66274 830.000036,2390.56314 C829.756028,2390.60642 829.509371,2390.64457 829.260042,2390.67745 C822.10594,2391.62097 815.95155,2387.80671 811.084191,2382.29069 C804.357375,2374.6674 799.978273,2363.64835 798.931054,2355.09704 C798.016619,2350.95737 798.592887,2347.10558 799.102196,2343.28957 C799.779426,2338.2154 800.349841,2333.20101 798.769351,2328.28456 C786.38358,2300.12192 784.756335,2269.49436 786.529078,2239.48964 C786.042077,2202.34402 794.574125,2191.86417 801.5169,2183.55735 C807.34507,2176.58412 812.053164,2170.92361 810.5389,2155.08964 C810.349354,2152.75234 809.61027,2137.7078 809.93153,2130.23623 L812.255112,2129.90415 C808.571127,2076.78318 795.2093,2024.17342 781.841043,1971.60577 C760.068004,1885.9882 738.19955,1800.46863 759.177778,1712.95462 C765.799034,1685.97537 778.896232,1662.09081 792.036346,1638.05863 C800.374312,1622.80918 808.737337,1607.50337 815.556182,1591.3483 C815.678542,1591.05841 815.800359,1590.76835 815.920711,1590.4773 C815.854858,1590.19114 815.793884,1589.90325 815.738014,1589.61357 C814.446938,1582.91941 816.043569,1576.10391 817.561373,1569.23916 C818.948078,1562.96736 820.30565,1556.65312 819.98154,1550.34703 C819.865475,1538.48799 817.529885,1527.13894 815.076188,1515.64536 C814.9506,1515.05708 814.824884,1514.46928 814.696848,1513.88162 C814.122918,1513.71977 813.549465,1513.55587 812.976474,1513.39001 C801.746948,1510.13935 790.772059,1506.15341 780.231863,1500.94241 L777.409182,1499.5469 L776.151846,1502.43378 C775.753041,1503.34945 775.168183,1504.05101 774.464899,1504.53241 C773.690116,1505.06274 772.784282,1505.32656 771.874451,1505.36284 C770.884849,1505.40229 769.884579,1505.1748 769.01886,1504.69455 C768.336744,1504.31616 767.738397,1503.77681 767.312177,1503.07952 C766.109972,1498.1597 767.451263,1492.96434 768.652164,1487.81898 C769.444624,1484.42361 770.221147,1481.04032 770.479237,1477.74245 C770.869801,1475.85532 771.20326,1473.65312 771.557096,1471.30183 C772.544398,1464.74108 773.575787,1456.8184 777.122807,1452.10541 C778.129712,1450.76751 779.361664,1449.72242 780.948255,1449.20541 C782.469599,1448.70967 784.274396,1448.69965 786.416937,1449.19469 C787.677693,1449.48599 788.756638,1449.88315 789.666394,1450.38173 C789.805362,1449.11724 789.941781,1447.85245 790.075644,1446.58738 C795.74289,1393.0294 796.823752,1339.01603 793.677174,1285.25641 C793.433269,1281.08925 793.163958,1276.92354 792.867381,1272.76168 C791.18117,1276.59214 789.52846,1280.42818 787.915979,1284.27089 C778.256422,1307.29062 769.778807,1331.17306 761.305829,1355.04727 C749.448096,1388.45865 737.602638,1421.85534 722.486464,1452.81547 C722.241048,1453.31812 721.994594,1453.82048 721.748431,1454.32261 C722.04096,1454.64067 722.279964,1455.0183 722.478253,1455.43098 C722.836203,1456.17594 723.022095,1456.95314 722.876145,1457.73121 C722.73531,1458.48202 722.293375,1459.19628 721.593196,1459.88801 C715.980567,1465.32781 713.057662,1472.60843 710.230042,1479.90612 C710.087202,1480.27477 709.944408,1480.6433 709.801257,1481.01144 C707.674796,1487.72306 704.188158,1493.80952 699.454395,1498.47371 C695.24959,1502.61672 690.054427,1505.63119 684.005452,1506.77383 C683.370798,1506.89372 682.737377,1506.99099 682.105823,1507.06647 C681.949231,1507.72951 681.794552,1508.38581 681.641899,1509.03522 C680.888568,1512.24 680.104626,1515.6171 679.28597,1519.14375 C669.705555,1560.41487 655.379717,1622.31543 629.556211,1667.87513 C613.028832,1697.03393 591.809348,1719.58421 563.756337,1724.87467 C561.713658,1725.25989 559.671392,1725.54669 557.63202,1725.73936 C559.335763,1726.59964 560.762114,1727.76433 561.751525,1729.38553 C564.980068,1734.67566 561.758353,1741.88085 559.321254,1748.48757 C557.882271,1752.3885 556.511185,1756.17877 555.97098,1759.53339 C553.350761,1767.02559 551.157608,1774.7195 548.963864,1782.42205 C544.94161,1796.54477 540.931552,1810.70415 534.118227,1823.63417 C533.862478,1824.11952 533.603067,1824.60259 533.341461,1825.08251 C533.614998,1825.40554 533.826864,1825.74811 533.988073,1826.14987 C534.260029,1826.82765 534.311351,1827.48332 534.235456,1828.29106 C534.167616,1829.01306 534.022544,1829.59676 533.711838,1830.15208 C534.370959,1830.41552 535.019266,1830.73959 535.653125,1831.12859 C538.688827,1832.99161 540.546607,1835.82458 541.468655,1839.05655 C542.586839,1842.97602 542.364926,1847.46399 541.168727,1851.71446 C539.921557,1856.14605 537.605754,1860.34078 534.497348,1863.38622 C531.890584,1865.94018 528.714837,1867.68772 525.137262,1867.89681 C524.895977,1867.91091 524.655691,1867.91785 524.416646,1867.91795 C524.224098,1868.04914 524.03026,1868.17026 523.835909,1868.28014 C522.254072,1869.17439 520.051171,1869.6553 517.989633,1869.69218 L517.28032,1875.59306 C517.728759,1876.09031 517.795117,1876.35018 517.763348,1876.61695 C514.728212,1913.12519 506.049843,1948.72387 497.418466,1984.18107 C495.816138,1990.76334 494.215019,1997.34071 492.650637,2003.91655 C489.607053,2014.39647 487.356854,2025.19329 485.108112,2035.99814 C481.416839,2053.73411 477.744419,2071.4984 470.377124,2087.8493 C470.19456,2088.25448 470.009843,2088.65853 469.824172,2089.06267 C470.00524,2089.44955 470.178439,2089.84075 470.343403,2090.23635 C474.020637,2099.05453 473.269433,2109.24576 471.443177,2118.42969 C468.470213,2121.82869 462.886189,2121.54093 458.24605,2121.68013 C456.464534,2121.73358 454.752199,2121.78806 453.212842,2121.9477 C452.229604,2122.04967 451.186099,2122.20811 450.103377,2122.39171 C450.261694,2123.37784 450.411498,2124.36535 450.552215,2125.35431 C452.803695,2141.17767 452.71754,2157.29287 452.642434,2173.34837 C452.599986,2182.42255 452.55867,2191.47821 452.924793,2200.45397 C452.96801,2201.51348 453.016977,2202.57365 453.072377,2203.63325 C454.040018,2203.4869 455.043971,2203.3841 456.085779,2203.32724 C466.239848,2202.77309 473.294109,2206.94904 478.427768,2213.49009 C486.361852,2223.59931 489.942365,2238.98942 493.089885,2252.10576 C493.947255,2255.67859 494.767259,2259.09339 495.618121,2262.21146 C502.086956,2283.88154 510.365601,2304.75981 518.644493,2325.62836 C529.679641,2353.44458 540.720647,2381.2422 547.314481,2410.75582 L548.320148,2415.25713 L552.027234,2412.51293 C552.359664,2412.26684 552.750429,2412.0932 553.183522,2412.07678 C553.612888,2412.06049 554.063101,2412.19964 554.527634,2412.47146 C567.776977,2420.42829 567.921643,2436.83835 568.479126,2450.65943 C568.528311,2451.87884 568.576894,2453.08275 568.631995,2454.2656 C568.501736,2457.18349 568.71558,2460.32851 568.940448,2463.52132 C569.479387,2471.17352 570.599637,2479.53858 564.125101,2484.4345 C518.381827,2515.61111 456.527637,2514.71468 403.656295,2506.52785 C382.578707,2502.6838 362.001985,2496.26299 342.464997,2487.47476 C335.080031,2484.96905 329.556338,2482.31998 326.177816,2477.96896 C323.308541,2474.27378 322.121787,2469.36431 322.587331,2462.54606 C321.285641,2450.15078 322.401996,2438.35108 323.499561,2426.53642 C324.450803,2416.29683 325.39297,2406.04576 324.886428,2395.72761 C326.436874,2356.09566 335.504709,2316.92049 344.418671,2278.33193 C344.775884,2276.78555 345.13288,2275.24012 345.48924,2273.69585 C346.01037,2272.06221 346.535776,2270.39289 347.069775,2268.69625 C353.935992,2246.88064 362.038038,2220.14785 381.75805,2207.92917 C382.304489,2207.80561 383.186028,2207.77885 384.16262,2207.6976 C386.76485,2207.48108 389.839213,2207.12857 391.667678,2206.24617 C391.716983,2206.22238 391.765645,2206.19822 391.813668,2206.17372 L390.690656,2209.96894 L396.56063,2207.45432 C397.916087,2206.87366 399.334083,2206.43785 400.787952,2206.16536 C401.267488,2206.07548 401.74982,2206.00358 402.235189,2205.94664 C402.471946,2205.47399 402.705616,2204.99936 402.936108,2204.5227 C410.919981,2188.01205 414.628669,2170.02274 418.305904,2152.03168 C420.578074,2140.91497 422.844653,2129.80069 426.177507,2119.06085 C426.464128,2118.13724 426.758817,2117.21581 427.060696,2116.29602 C426.15756,2116.01822 425.266376,2115.70959 424.390823,2115.37227 C415.111993,2111.79746 406.693691,2104.65534 404.08538,2094.99785 C404.713973,2092.26928 406.014589,2089.28567 407.980821,2087.05223 C409.43807,2085.39695 411.283962,2084.13985 413.57094,2083.99576 L417.691684,2083.73614 L416.171589,2079.89723 C414.664583,2076.09137 414.448135,2071.75761 414.909268,2067.67542 C422.677147,2019.79626 433.024856,1972.32711 444.172307,1925.11006 C448.414598,1907.54929 452.953748,1890.05007 458.078456,1872.72635 C458.829522,1870.6403 459.423985,1868.28755 460.028652,1865.86932 C461.28146,1860.85899 462.425036,1855.37595 466.073917,1852.22251 C466.940927,1851.47323 467.917579,1850.88295 468.971008,1850.41047 C468.032378,1849.56697 467.114505,1848.69954 466.218266,1847.81614 C458.428354,1840.13779 451.821478,1830.80783 451.632814,1820.32671 C451.267539,1815.92097 453.352013,1811.38262 456.571974,1808.56312 C457.630614,1807.63614 458.820337,1806.89332 460.103281,1806.43989 L465.04046,1809.47695 C466.222688,1810.20419 467.353058,1811.03294 468.484394,1811.85849 C469.437699,1812.55413 470.391124,1813.24853 471.367824,1813.89424 L483.169682,1821.69667 L475.550038,1809.77598 C469.556586,1800.39942 472.529109,1788.98147 474.941202,1778.49089 C475.592459,1775.65847 476.230229,1772.8793 476.714747,1770.20008 C477.350566,1767.34192 477.975447,1764.47128 478.601628,1761.59462 C482.387539,1744.20224 486.207622,1726.58234 492.86173,1710.20176 C493.132621,1709.5349 493.408312,1708.86984 493.6849,1708.20259 C493.138315,1707.74467 492.593032,1707.27961 492.049071,1706.80735 C466.141351,1684.31434 456.003202,1656.55527 454.692918,1626.78481 C452.804413,1583.87677 469.057429,1536.84569 483.453217,1494.97217 C487.112884,1484.32717 490.658729,1474.01223 493.772391,1464.17717 C493.98581,1463.50305 494.198865,1462.82592 494.410739,1462.14594 C493.827076,1461.69158 493.244956,1461.25412 492.664125,1460.83631 C489.136948,1458.29914 484.907249,1455.94744 480.543809,1453.53089 C469.713475,1447.53285 457.412174,1441.29772 455.777846,1429.10908 C455.95869,1422.5595 458.524387,1416.24016 460.978767,1410.02496 C461.975799,1407.50019 462.964773,1404.99238 463.810577,1402.49658 C464.465556,1399.56249 466.466091,1395.75284 469.013,1394.02673 C469.564637,1393.65287 470.145305,1393.35065 470.767086,1393.41957 C471.319528,1393.48081 471.828433,1393.84866 472.352513,1394.4029 L475.875844,1398.12894 L477.397233,1393.23173 C478.175203,1390.72752 478.95639,1388.22101 479.738332,1385.71208 C494.652185,1337.85966 509.78361,1289.12546 508.421211,1238.58186 C508.401254,1237.84148 508.377784,1237.10167 508.350368,1236.37036 C507.614752,1236.13041 506.866515,1235.91904 506.103792,1235.74113 C500.912076,1234.5301 495.636504,1235.00606 490.429799,1235.52917 C483.887177,1236.1865 477.382862,1237.08912 471.512536,1232.6966 C418.035039,1191.78807 423.854913,1087.51547 428.433847,1026.64674 C428.493387,1025.85528 428.553816,1025.05652 428.614157,1024.25714 C427.872473,1024.05153 427.132139,1023.82362 426.394156,1023.57671 C423.910868,1022.74587 421.535767,1021.72724 419.37524,1020.44292 L417.602184,1019.38894 L415.983278,1020.66712 C415.199365,1020.70046 414.74015,1020.23549 414.229789,1019.69345 C412.141075,1017.47506 410.075421,1013.44191 408.019383,1008.49529 C400.741487,990.985417 394.229623,962.325228 392.307017,953.882749 C392.258721,953.670671 392.213299,953.471218 392.163687,953.252913 C353.247563,776.877239 368.136143,595.009244 382.721423,416.304142 C383.763637,403.534487 384.804537,390.780925 385.824971,378.048406 C388.965135,354.509261 390.168053,330.41204 391.369983,306.263807 C393.829313,256.852852 396.235887,207.208809 415.729947,161.806296 C428.748536,128.639499 465.448162,120.938495 496.615479,113.962301 C497.471005,113.770809 498.322856,113.580138 499.170484,113.389833 C515.402703,108.554517 531.723355,104.822237 548.023009,101.092594 C573.001687,95.37704 597.92919,89.6615412 621.722355,80.2837355 C623.010474,79.7760381 624.293699,79.2582249 625.572198,78.7301643 C624.659275,77.795469 623.817785,76.7994387 623.059159,75.7429237 C618.881233,69.9244557 617.244826,62.310935 617.674299,54.7568451 C618.119793,46.9209469 620.79342,39.1052647 625.377605,33.3145041 C627.175621,31.9929833 629.288865,31.8537057 631.431251,32.2035112 C635.631697,32.8893536 640.013509,35.3789943 643.577698,37.3443486 C643.930157,37.5387006 644.275104,37.7289046 644.611681,37.9131666 L647.287524,39.3780799 L648.707488,36.6781157 C654.313075,26.0194795 658.203017,14.2723748 662.00635,2.74295782 C664.202637,-3.91486482 666.372016,-10.4971037 668.852505,-16.7362344 C676.448112,-32.7929652 689.478457,-40.4916988 704.511374,-43.4554543 C727.16869,-47.9223679 754.267844,-41.8904533 775.22782,-36.6595389 C775.979921,-36.4671893 776.736746,-36.2751436 777.497177,-36.0821846 C788.070182,-33.3992908 799.409358,-30.6066013 808.199855,-24.0059893 C822.834748,-12.3161941 825.943778,5.85992056 829.250984,23.6911644 C830.925112,32.7174536 832.605294,41.6994273 835.554527,49.89455 C835.885559,50.8144005 836.235231,51.7317027 836.603005,52.6455101 C837.436158,52.2692965 838.252301,51.9847227 839.046061,51.80321 C850.636936,49.152672 876.077485,64.2196917 884.84572,72.2456224 C887.137634,73.7641924 888.18712,75.2769099 888.732335,76.9803709 C889.640284,79.8171509 889.348635,83.0669599 889.138802,86.2745678 C889.043656,87.7290263 888.950262,89.1788324 888.932535,90.5941272 C888.922167,91.421933 888.937381,92.26219 888.964488,93.108717 C889.765278,93.266022 890.564006,93.4220794 891.360581,93.5767191 C896.523191,94.5789407 901.791986,95.5597907 907.126319,96.5528099 C945.302935,103.659623 986.931796,111.29927 1016.63003,132.316498 C1037.39542,147.012014 1052.19813,168.341378 1055.65925,200.760178 C1066.63389,247.615114 1072.45685,294.953759 1077.85219,342.316616 C1078.57636,348.573466 1079.29251,354.835473 1080.009,361.100483 C1088.69757,437.07315 1097.45589,513.481494 1121.06473,586.518427 C1123.38206,592.194717 1125.62975,597.659276 1127.87938,603.128557 C1163.17998,688.951103 1199.00563,775.93167 1207.47959,869.252996 C1212.07701,913.849713 1211.37641,958.90446 1203.74593,1003.11183 C1203.30066,1005.49477 1201.41313,1007.16472 1199.25992,1008.04245 C1196.89719,1009.0056 1194.06278,1009.09184 1191.94308,1007.75448 L1180.64703,1000.62759 L1187.81024,1011.90064 C1202.88685,1035.62734 1190.25969,1077.35502 1181.71527,1106.8182 C1180.44959,1111.18255 1179.25831,1115.29094 1178.23294,1119.05223 C1171.67139,1140.80928 1161.05655,1164.50165 1144.38452,1177.07024 C1138.07478,1181.82698 1130.88513,1184.95053 1122.69903,1185.64577 C1115.17993,1186.28436 1106.84631,1184.87918 1097.61109,1180.93299 C1096.4533,1180.43828 1095.33417,1179.92619 1094.24971,1179.40714 C1093.9982,1180.63382 1093.74624,1181.86047 1093.49386,1183.0871 C1075.35742,1271.23216 1055.11814,1358.59996 1031.09211,1445.36208 L1027.74426,1457.45172 L1036.19947,1448.18473 C1037.54932,1446.70527 1039.095,1445.83533 1040.70894,1445.51506 C1042.51644,1445.15638 1044.38003,1445.47514 1046.09226,1446.24866 C1048.04869,1447.1325 1049.81486,1448.61051 1051.13143,1450.46374 C1052.33459,1452.15736 1053.16329,1454.17035 1053.39595,1456.3545 C1052.70485,1468.20763 1048.87802,1479.60209 1045.09635,1490.97384 C1043.07887,1497.04057 1041.0663,1503.10028 1039.49553,1509.21102 C1037.73965,1515.51649 1034.03454,1519.39138 1029.28263,1521.8348 C1022.01333,1525.57264 1012.50923,1526.17725 1003.54426,1526.83715 C998.865729,1527.18153 994.316544,1527.52165 990.232907,1528.21958 C989.621757,1528.32403 989.003433,1528.4395 988.378779,1528.565 C988.201792,1529.15752 988.027362,1529.75079 987.85591,1530.34494 C986.649781,1534.52466 985.591624,1538.74598 984.534095,1542.96737 C983.6878,1546.34557 982.841784,1549.72379 981.917081,1553.07979 L987.680165,1554.74741 C988.102526,1553.35482 988.498224,1552.05239 988.869391,1550.83855 L988.869391,1550.83855 Z M541.337207,1025.87535 C541.536769,1000.56107 550.559169,976.691403 559.500362,952.859393 C563.226415,942.927909 566.94794,933.003662 570.057319,922.991457 C570.241976,922.39686 570.424679,921.801296 570.605542,921.20482 C570.136815,920.7341 569.663657,920.284577 569.18534,919.859426 C566.904566,917.832165 564.087224,915.986379 561.213566,914.119428 C557.202782,911.513712 553.020061,908.89728 550.53173,905.361139 C549.000839,903.185607 548.207286,900.627494 548.737715,897.137507 C550.181816,871.048796 551.961366,844.969071 554.09235,818.93027 C554.591431,813.370787 555.095451,807.811517 555.5998,802.248607 C564.490561,704.184589 573.446794,604.99607 555.837821,507.416704 C555.061843,502.973599 554.157673,498.575989 553.252811,494.177252 C552.644705,491.22111 552.036391,488.264435 551.46886,485.297976 C551.386845,484.862048 551.295754,484.283389 551.189045,483.609939 C550.681461,480.406538 549.833971,475.308385 548.121805,471.589178 C546.574758,468.228647 544.310206,466.078901 541.597229,465.606222 C540.639971,465.43944 539.664639,465.48803 538.689285,465.736712 C538.513766,466.431069 538.339807,467.142192 538.167012,467.853821 C508.676648,589.30518 516.077217,713.203757 523.507859,836.863719 C526.926481,893.75605 530.344033,950.596331 530.132321,1007.12046 C530.130241,1007.67591 530.12781,1008.23138 530.125031,1008.78688 C530.476871,1008.89556 530.814303,1009.07958 531.117399,1009.35435 C531.883155,1010.04853 532.09396,1011.01748 531.940734,1011.9208 C531.754621,1013.018 531.06736,1014.0618 530.012491,1014.6183 C529.644215,1014.81258 529.25221,1014.93636 528.854925,1014.99535 C528.737214,1015.52608 528.616183,1016.05621 528.491816,1016.58557 C527.924233,1019.00146 527.28732,1021.40075 526.577109,1023.78539 C526.402807,1024.37063 526.224326,1024.95419 526.0417,1025.53614 C526.489205,1025.9635 526.937215,1026.39015 527.385671,1026.81634 C530.398172,1029.67922 533.430776,1032.52099 536.493486,1035.33266 L541.957557,1040.34885 L541.517004,1032.94452 C541.376029,1030.57516 541.318734,1028.21845 541.337207,1025.87535 Z" id="ðŸŽ¨-Background" fill="#FFFFFF"></path>
        <path d="M1184.9123,1040.4466 C1173.7143,1078.0996 1163.4373,1133.8546 1134.9223,1161.5766 C1124.8893,1169.6826 1113.0983,1164.7346 1101.5823,1163.7466 C1109.0043,1120.1886 1114.1253,1076.2706 1118.2623,1032.2866 C1141.7223,1027.7866 1164.3423,1019.6056 1185.2923,1008.1456 C1190.7323,1017.2656 1187.3323,1031.1356 1184.9123,1040.4466 M1091.4023,1152.2256 C1080.5933,1214.4506 1065.8553,1275.8926 1051.5933,1337.2466 C1044.0403,1374.6476 1027.9493,1413.2166 1024.4823,1450.1266 C951.6983,1479.1726 872.9513,1467.8836 797.6723,1456.0266 C798.8313,1455.0496 799.7173,1453.5496 799.8423,1451.7166 C801.7123,1450.8666 803.2423,1449.1756 803.5223,1446.6456 C807.7593,1391.2046 815.5083,1330.8996 802.4123,1277.2566 C811.0643,1269.4556 818.8023,1260.3906 826.0123,1251.2466 C832.5723,1242.5866 818.9223,1231.1356 811.2523,1237.4356 C821.8693,1210.9136 832.8253,1184.5306 844.3123,1158.3666 C847.3823,1151.3556 837.0423,1145.2466 833.9423,1152.3056 C791.1633,1250.2086 755.0743,1350.4096 717.7623,1450.5466 C715.6853,1446.4206 707.3353,1446.9146 710.3623,1452.7766 C633.9213,1459.1666 554.1323,1439.6626 483.8023,1407.9356 C500.6093,1353.9586 519.7553,1298.9706 518.6323,1241.8556 C535.0943,1242.6206 557.3383,1233.2496 566.0523,1219.0766 C574.7623,1225.8456 585.4423,1217.5366 590.0323,1209.6456 C600.6383,1188.9516 594.7683,1163.6886 588.6323,1142.4756 C610.2853,1145.8806 637.3963,1125.8006 622.5813,1103.3656 C599.6903,1083.2836 573.5653,1066.1776 551.1223,1045.0156 C549.2033,1005.3356 564.5783,968.3036 578.5423,931.0766 C649.1013,980.8046 718.2793,1034.3126 792.3703,1078.2086 C805.1103,1079.5066 815.3993,1069.8666 824.9623,1062.8266 C852.2523,1042.5766 879.7923,1022.5956 906.6823,1001.7966 C909.6323,1002.8856 913.0223,1002.6166 915.5323,1000.9356 C932.7043,1019.3276 950.8533,1036.3126 967.8423,1054.7966 C978.0473,1064.2276 985.4183,1078.9506 999.6623,1082.5666 C1006.3223,1083.7866 1010.5623,1081.0266 1014.8323,1076.4066 C1040.7443,1048.9866 1068.6223,1023.5246 1095.4723,997.0466 C1098.9253,1001.5386 1105.5823,1000.0226 1108.9023,995.7166 C1106.2053,1048.1226 1099.3333,1100.3666 1091.4023,1152.2256 M1043.4123,1456.4066 C1042.5923,1457.1056 1043.5623,1456.5066 1044.3423,1457.6756 C1045.1303,1465.1976 1040.7123,1472.8426 1039.2333,1480.2256 C1034.3223,1491.0846 1034.7973,1516.2016 1020.3033,1516.5866 C940.2403,1530.5166 859.3443,1518.6486 781.0023,1500.7366 C782.0213,1484.8436 786.9453,1468.4646 783.7323,1452.7256 C785.0423,1451.5466 786.4323,1450.7256 787.9823,1450.4066 C787.5463,1452.6326 787.8463,1455.3616 789.5523,1456.4666 C856.5833,1485.9076 953.6923,1491.9916 1023.2623,1464.6266 C1030.5793,1466.9416 1036.0453,1457.5146 1030.3123,1452.3156 C1031.2823,1452.1856 1032.2123,1451.8456 1033.0023,1451.2466 C1031.8623,1456.2166 1039.1423,1460.0556 1043.4123,1456.4066 M820.5123,1519.8366 C822.5523,1520.3766 824.6023,1520.8766 826.6523,1521.3666 C825.0793,1525.1236 827.3493,1530.5516 826.7323,1534.7766 C825.2923,1529.5366 823.2623,1524.4756 820.5123,1519.8366 M700.8923,1476.7256 C697.7043,1485.8726 692.6423,1496.0436 681.9523,1497.4966 C679.4523,1496.4866 676.5723,1496.6666 674.6923,1498.3856 C605.0103,1497.4446 519.7493,1476.4376 466.6903,1430.5586 C466.0523,1424.2806 469.0383,1417.9646 469.6623,1411.7166 C470.5383,1409.2436 471.5423,1393.6546 474.8623,1396.5466 C472.3313,1402.7476 470.1453,1411.8436 479.8023,1410.9256 C548.1213,1450.3376 628.8543,1465.3486 707.1323,1462.8856 C704.6423,1467.2566 702.7623,1471.9966 700.8923,1476.7256 M556.1323,1737.2566 C550.1383,1758.7376 543.7253,1780.1146 536.8723,1801.3366 C530.2793,1832.8086 514.4083,1837.0346 490.8213,1816.4146 C473.7533,1806.0796 480.9513,1787.5206 483.5333,1771.5256 C486.7223,1751.8666 490.8623,1732.3456 493.8423,1712.6566 C512.6423,1726.5866 536.3123,1733.4256 559.5723,1730.3766 C557.7123,1732.1756 556.9023,1734.4966 556.1323,1737.2566 M524.7123,1838.0366 C524.5023,1837.9756 524.2823,1837.9066 524.0723,1837.8366 C524.3123,1837.7566 524.5423,1837.6666 524.7723,1837.5866 C524.7523,1837.7366 524.7323,1837.8856 524.7123,1838.0366 M512.4223,1878.5466 C504.9853,1944.7116 483.5003,2008.2776 468.7843,2073.0366 C467.1223,2086.4546 456.8703,2091.3546 444.5113,2087.1046 C439.4323,2085.7866 431.6623,2083.9066 427.9423,2079.9166 C423.7023,2075.3556 426.5823,2066.4666 427.5223,2061.1456 C433.3623,2028.2466 439.9223,1995.4866 446.6423,1962.7466 C454.6443,1927.1786 461.1483,1890.9036 469.8923,1855.7366 C482.5643,1866.4856 498.7053,1874.0406 515.6323,1874.3556 C513.9923,1874.9566 512.6223,1876.3556 512.4223,1878.5466 M465.8623,2115.0156 C464.8623,2115.2366 463.8623,2115.4166 462.8523,2115.5766 C464.3723,2110.7566 465.8263,2104.0506 463.1223,2099.5556 C463.7423,2099.3366 464.3423,2099.0956 464.9223,2098.8266 C465.8123,2104.2566 466.4323,2109.4666 465.8623,2115.0156 M457.2423,2251.4356 C473.3573,2261.8956 482.7643,2279.5046 491.0123,2296.3056 C496.3123,2307.0866 500.6323,2320.0956 508.7423,2329.2866 C512.1023,2338.3366 515.4823,2347.3766 518.7023,2356.4756 C528.3383,2386.4186 540.3623,2418.1856 539.2023,2449.7656 C539.2123,2449.7366 539.2123,2449.6966 539.2323,2449.6456 C539.1233,2450.4386 538.8553,2451.2016 538.6723,2451.9756 C539.4023,2451.4686 540.2463,2450.9786 539.1023,2451.8156 C538.9973,2451.7286 538.6763,2452.0206 538.6623,2451.9966 C538.6623,2452.0156 538.6523,2452.0366 538.6523,2452.0556 C538.7223,2451.9966 538.7923,2451.9466 538.8823,2451.8856 C538.8063,2451.9406 538.7113,2452.0366 538.6323,2452.1056 C538.6323,2452.1266 538.6223,2452.1566 538.6123,2452.1856 C538.5523,2452.2396 538.1093,2452.5666 538.2023,2452.4466 C537.1523,2452.9256 536.2923,2453.5866 535.4923,2454.3856 C473.7453,2467.7746 405.5753,2470.1556 348.4823,2439.4866 C326.5443,2394.8376 349.0493,2320.2296 358.0523,2272.1456 C386.7953,2255.7606 424.4323,2234.9666 457.2423,2251.4356 M482.1023,2233.7066 C484.4323,2243.9866 486.0023,2254.3666 488.1523,2264.6456 C481.8383,2257.8226 478.5863,2249.2576 473.0743,2242.0456 C469.6793,2234.9256 466.0373,2224.6856 457.5923,2223.3666 C457.3613,2217.5886 457.2023,2211.8066 457.1223,2206.0266 C471.4823,2207.8056 479.0523,2220.1756 482.1023,2233.7066 M560.3323,2459.1566 C560.1623,2456.3366 558.6823,2453.5366 556.2623,2451.9966 C556.8173,2442.0466 555.1173,2432.3846 553.5623,2422.5766 C564.0153,2433.7416 559.5643,2451.6266 561.2733,2465.6256 C561.1373,2471.1956 563.8383,2478.2906 557.3623,2481.1656 C537.1423,2495.1456 512.6323,2501.6666 488.4723,2504.4756 C435.7633,2510.5136 380.9663,2500.8206 333.8723,2476.3156 C327.5703,2467.7786 329.7773,2447.0196 328.9323,2436.0866 C331.9123,2445.8426 337.1403,2454.5226 347.4833,2457.5746 C411.5523,2488.4216 486.9553,2484.7106 554.3523,2467.3466 C558.7683,2466.1586 560.5443,2462.7176 560.3323,2459.1566 M391.1823,2243.2866 C391.5523,2242.8366 391.9023,2242.3856 392.2623,2241.9256 C394.5123,2241.8156 396.7623,2241.6166 399.0123,2241.3666 C395.6463,2242.7106 392.3333,2244.1706 389.1023,2245.8056 C389.8023,2244.9756 390.5023,2244.1356 391.1823,2243.2866 M418.4723,2192.0466 C423.9653,2168.8706 425.9413,2145.0326 428.7323,2121.4066 C436.8153,2124.2746 444.9173,2126.2496 453.4123,2126.4756 C443.0043,2158.0146 443.5403,2192.5446 443.8223,2225.4756 C431.0493,2227.6446 417.2933,2228.8566 404.7723,2224.5866 C411.0523,2214.5266 415.5623,2203.5866 418.4723,2192.0466 M504.6423,1218.8856 C497.6323,1218.1856 490.6623,1218.6756 483.7223,1219.6756 C442.6463,1191.7606 436.1703,1077.2766 429.7223,1028.9466 C459.1163,1036.4576 490.2493,1034.4336 518.7823,1024.5466 C519.3203,1029.8146 525.3333,1032.5286 528.9923,1028.9756 C548.3413,1063.4196 577.2943,1091.0006 607.1623,1115.6566 C606.8123,1114.5066 606.5623,1116.6166 607.0023,1115.8156 C603.1983,1124.5356 589.2293,1120.0126 582.6223,1126.0876 C578.3823,1129.2466 577.4923,1134.7766 580.1923,1138.4666 C573.0453,1158.2166 584.4073,1182.3296 573.7123,1201.0656 C571.3093,1203.8556 568.1823,1205.8636 566.1123,1208.9966 C551.8783,1199.2426 538.9073,1219.8726 524.4923,1220.7766 C524.5923,1220.7766 524.6923,1220.7766 524.8023,1220.7656 C522.5833,1221.0126 519.0223,1220.8906 517.0723,1220.6166 C512.9373,1219.9746 508.8133,1219.3016 504.6423,1218.8856 M531.1223,528.7766 C534.1423,509.0866 537.6623,489.5156 542.2323,470.1356 C547.7423,471.0956 548.9723,483.7166 549.6723,487.4356 C573.2613,594.1746 563.0473,704.0206 552.9413,811.7566 C550.4923,840.6456 548.4723,869.5866 546.8923,898.5466 C544.8523,911.8646 560.1683,916.3836 568.3423,923.6756 C556.9723,960.2866 537.3523,995.7066 539.6723,1034.6966 C536.6223,1031.8956 533.6023,1029.0656 530.6023,1026.2166 C531.3623,1023.7656 532.0123,1021.3156 532.5623,1018.8456 C536.2963,1016.9036 537.4813,1011.5356 534.2823,1008.7066 C535.5113,849.0566 505.5533,688.0446 531.1223,528.7766 M829.2423,218.0056 C834.9123,207.9186 849.9263,221.0196 840.4923,228.3456 C833.9283,233.6616 824.8303,224.9316 829.2423,218.0056 M852.0123,324.2466 C856.6083,315.7986 871.5353,319.9916 868.7423,330.0056 C868.7823,329.5766 868.8123,329.2366 868.8423,328.9756 C869.2393,337.1326 853.4293,343.7506 852.3323,333.3266 C850.6123,330.6166 850.2023,327.0656 852.0123,324.2466 M873.0923,439.0056 C884.4723,434.5256 888.6663,451.3446 879.0223,455.8266 C868.6513,459.5096 862.9393,442.7176 873.0923,439.0056 M886.3723,562.2166 C889.1823,552.7006 903.5443,555.2146 903.4423,564.9966 C903.0793,578.2046 883.5283,574.2176 886.3723,562.2166 M909.9123,681.7366 C913.9053,669.7826 929.2463,675.9696 927.9613,687.5466 C929.6353,694.2326 916.6753,707.7256 914.0523,696.7966 C910.5523,692.5766 908.9023,687.1566 909.9123,681.7366 M934.0123,819.5866 C934.0423,819.5466 934.0723,819.5066 934.1023,819.4666 C942.6373,823.4826 935.2503,841.7716 927.0223,835.0566 C919.0393,830.1826 924.5643,814.7306 934.0123,819.5866 M945.2423,931.4966 C955.1993,941.2856 939.8023,956.7776 929.9813,946.7556 C920.0143,936.9866 935.4023,921.4916 945.2423,931.4966 M1187.2223,1007.0956 C1187.3523,1007.3856 1187.4923,1007.6756 1187.6523,1007.9466 C1187.3923,1007.7256 1187.1323,1007.5066 1186.8723,1007.2866 C1186.9823,1007.2256 1187.1023,1007.1666 1187.2223,1007.0956 M813.9923,2173.2166 C814.3683,2180.4646 814.9063,2187.7766 816.6523,2194.7966 C821.8353,2223.3326 858.4903,2257.5886 888.6523,2237.0866 C902.4923,2227.3456 908.5523,2208.4966 925.0523,2202.3856 C942.3423,2195.9756 961.2723,2202.2866 975.8223,2212.1966 C992.6623,2223.6666 1005.7823,2240.0066 1020.1223,2254.2766 C1050.6213,2284.6376 1084.4433,2311.6686 1120.6523,2334.9166 C1139.6023,2346.6846 1179.2833,2364.3286 1163.5743,2391.8776 C1151.5543,2409.3186 1121.3063,2401.0036 1116.1023,2410.8456 C1049.0063,2413.6076 983.3543,2395.2556 919.5723,2376.4676 C887.1933,2365.8846 853.3133,2359.7136 821.9223,2346.2666 C791.8393,2319.9176 791.7383,2261.9386 795.8813,2224.7776 C797.2323,2216.6536 800.5873,2178.0136 813.2423,2184.8946 C817.0003,2185.3056 811.5423,2181.1486 810.2023,2181.6566 C811.9653,2179.1536 813.4123,2176.2636 813.9923,2173.2166 M1179.0923,2390.0366 C1179.5223,2390.2466 1179.9723,2390.3456 1180.4323,2390.3556 C1181.7523,2393.7366 1181.1023,2407.5066 1180.8523,2409.8766 C1176.7853,2430.5956 1144.1603,2434.0366 1126.8633,2437.1676 C1066.0913,2446.7456 1004.2813,2440.0506 944.9923,2424.7756 C916.0523,2417.6056 887.2723,2409.3156 859.1823,2399.3266 C834.2113,2391.7286 803.3743,2379.1156 806.4423,2347.4566 C820.3913,2366.2356 864.8183,2371.7816 887.1713,2379.5486 C957.3233,2400.8576 1028.4973,2423.7816 1102.5323,2424.5156 C1113.7483,2424.0336 1129.2483,2427.1676 1137.6623,2418.7166 C1155.5023,2416.1666 1174.0123,2406.2866 1179.0923,2390.0366 M1195.2323,779.5866 C1178.9823,715.5506 1152.8353,654.6036 1127.3823,593.8456 C1099.8743,513.1746 1091.8113,427.7306 1081.9823,343.5456 C1076.5763,296.0496 1070.7313,248.6176 1059.7923,202.0156 C1050.4953,115.1436 962.2693,105.6716 893.0823,92.2066 C893.1803,84.7886 895.4603,76.3506 888.0213,71.6066 C881.1923,64.6696 844.7333,43.1106 837.5323,52.2366 C834.7043,45.3586 833.3213,37.7266 831.9823,30.3856 C831.0823,27.4886 830.7113,17.4966 827.5633,17.5756 C826.8903,37.1336 818.5913,65.7666 835.2423,80.4566 C825.2483,95.6896 816.9153,114.1466 803.7423,126.2766 C803.7523,126.2656 803.7623,126.2556 803.7723,126.2466 C803.1123,126.6756 802.4423,127.0656 801.7523,127.4356 C801.9123,127.3056 800.9623,127.6566 800.1823,127.9066 C798.3923,128.2476 795.4313,127.5916 793.6023,126.7656 L793.6223,126.7656 C748.2613,100.9856 703.8823,73.3756 659.9723,45.0956 C666.2493,35.8106 674.3713,-9.6964 666.5833,-16.0044 C661.1373,1.9486 655.4673,19.9616 647.2023,36.8556 C640.0423,32.9476 628.4563,25.9196 622.4223,35.1056 C614.8123,47.8686 612.6393,66.3756 621.7723,79.0656 C582.5193,94.5336 540.1903,99.9496 499.6623,112.0376 C482.0023,116.5656 463.3023,119.9356 446.7323,127.7866 C397.3553,155.1826 397.3153,222.6806 391.8993,272.3946 C378.0033,514.3816 333.9263,764.5396 402.9503,1001.9266 C405.6023,1009.2166 409.5223,1016.2166 412.5723,1023.3856 C413.7823,1026.2256 416.9223,1026.1356 418.9923,1024.5956 C421.3323,1025.9866 423.9023,1027.0956 426.5923,1027.9966 C422.0743,1089.7156 415.9483,1202.4646 475.5193,1239.2676 C485.9343,1243.0086 495.7623,1237.6836 506.5723,1240.2366 C508.0123,1293.0866 491.2323,1343.8456 475.6823,1393.9166 C464.2443,1385.0536 459.8603,1411.7256 456.4023,1418.5946 C444.7863,1443.2026 475.7983,1454.2116 492.0623,1464.8456 C467.8153,1541.1986 417.6113,1646.9376 491.2323,1710.6456 C483.4213,1729.8786 479.4123,1750.9076 474.9223,1771.1856 C472.5113,1784.4246 466.1823,1800.6826 474.1723,1812.9656 C472.0103,1811.5366 469.9683,1809.8516 467.7623,1808.4966 C477.3643,1808.3536 463.1633,1801.3446 457.4333,1806.5776 C441.4333,1818.4936 453.2853,1840.3286 465.2623,1851.5266 C460.6023,1855.0066 458.9923,1864.6266 457.6123,1869.1966 C451.9523,1887.9566 446.9923,1906.9466 442.4023,1925.9966 C431.2313,1973.3126 420.8643,2020.8836 413.0813,2068.8666 C412.5523,2073.5656 412.8623,2078.3456 414.5323,2082.5766 C408.5093,2082.8406 404.8913,2088.5926 402.9733,2093.6166 C400.2553,2104.8686 414.6673,2115.9356 424.4623,2119.7466 C414.1393,2154.0076 413.2123,2192.1346 391.3423,2221.8766 C388.9923,2219.5956 384.9723,2219.1856 382.9623,2222.9756 C380.7673,2229.2596 367.2753,2246.3406 372.3323,2251.4566 C372.5023,2252.6856 373.1323,2253.8956 374.0723,2254.6666 C369.2423,2257.9266 364.6323,2261.3936 360.0423,2265.0266 C366.1803,2247.4536 371.2753,2226.9436 384.4713,2213.4046 C387.9523,2211.4166 392.4023,2212.0866 395.1823,2208.7766 C397.2123,2206.3556 397.3123,2203.4666 395.2823,2201.0956 C394.3223,2199.9666 392.1123,2201.1666 392.7023,2202.5956 C394.3823,2206.6356 384.0423,2205.9256 381.6623,2206.7466 C358.4463,2221.1716 350.1143,2253.9566 342.5903,2278.8146 C333.5543,2322.4786 320.9053,2366.9826 323.7003,2411.8956 C320.6963,2427.6036 316.3713,2470.7746 325.4803,2482.6466 C373.5543,2511.2926 433.1973,2519.7036 488.4723,2514.1876 C513.1123,2510.6186 577.8043,2502.8066 573.1833,2468.6076 C571.6343,2449.2966 576.0973,2423.5056 557.1933,2411.4556 C555.0223,2410.1856 552.9323,2410.5366 551.3923,2411.6756 C539.8363,2359.9526 514.7283,2313.4596 499.6623,2262.9966 C493.3443,2239.8426 488.7723,2200.1756 457.0723,2201.9066 C456.0533,2176.9556 458.2113,2151.3756 454.7623,2126.6666 C454.7623,2126.6756 454.7623,2126.6756 454.7523,2126.6756 C454.7323,2126.6166 454.7023,2126.5556 454.6723,2126.5066 C461.1843,2125.7166 472.1333,2127.4556 475.5833,2120.6476 C477.3493,2111.0676 478.2153,2099.8156 474.2623,2090.6566 C486.1423,2064.4086 488.6343,2033.9586 496.7043,2006.2466 C506.7323,1964.0766 518.2923,1921.8766 521.8923,1878.5466 C522.0823,1876.2366 520.8423,1874.8056 519.1923,1874.2656 C521.7643,1874.2196 524.4953,1873.5786 526.4623,1872.4656 C544.2133,1871.4446 554.3433,1839.9096 538.3723,1830.1456 C538.5123,1828.7866 538.3323,1827.5956 537.9223,1826.6056 C548.7233,1805.9706 552.4543,1783.4226 560.0443,1761.8376 C561.4783,1752.2316 570.9243,1738.0346 565.4623,1729.3956 C647.4403,1708.1016 666.9993,1582.3876 685.7123,1511.2966 C712.7393,1506.0166 710.1793,1480.2836 724.8503,1463.5946 C727.4223,1461.1056 727.5423,1458.1166 726.3323,1455.7066 C752.2743,1402.5736 768.6323,1342.2936 791.8323,1287.0066 C794.9653,1340.6006 793.9063,1394.4526 788.2423,1447.8456 C771.1093,1443.8726 771.0423,1467.5366 768.6523,1478.8956 C767.4123,1485.9566 766.1723,1493.0066 764.9323,1500.0656 C763.1123,1510.4566 776.4723,1513.4256 780.0523,1505.2066 C790.7523,1510.4966 801.8923,1514.5466 813.2923,1517.8456 C815.7023,1529.1666 818.0423,1540.3266 818.1323,1552.0156 C818.8463,1565.3986 811.4433,1578.8046 813.9423,1591.7566 C797.4383,1631.1226 771.5533,1664.8956 759.6223,1705.9166 C720.1893,1849.4626 800.6493,1989.2496 810.4123,2131.6856 C806.2983,2113.7266 808.6963,2157.5906 808.8633,2161.2166 C809.3053,2190.4576 783.7053,2176.9076 784.6853,2240.8866 C782.8773,2271.3396 784.6103,2302.5266 797.0633,2330.7756 C799.8223,2339.4666 795.0883,2348.1196 797.1033,2357.0366 C799.0803,2373.1916 812.3023,2397.6686 830.8023,2395.2256 C936.3593,2435.1936 1058.6463,2471.4406 1169.6723,2434.2216 C1177.3923,2430.3766 1185.4423,2425.4066 1188.2123,2416.7766 C1190.5783,2409.0756 1193.7703,2379.9196 1180.4323,2382.1756 C1180.7183,2355.6546 1155.5213,2339.6346 1135.2023,2327.6766 C1106.7953,2309.8236 1079.6843,2289.9336 1054.6423,2267.5766 C1016.6753,2237.0996 985.3873,2178.2306 929.2723,2187.3366 C921.9643,2147.2826 929.6193,2106.4346 929.5613,2066.0066 C933.2173,1887.7156 968.2883,1712.9236 994.8273,1537.2766 C995.0623,1535.7566 992.9823,1535.1166 992.4723,1536.6356 C935.3233,1701.4696 920.8193,1878.3216 910.0783,2051.4556 C906.5283,2097.9996 910.5363,2144.3256 920.0723,2189.9756 C894.9673,2196.8806 891.0823,2235.9786 861.7633,2232.2176 C846.1883,2228.9496 832.2383,2216.6546 825.9823,2202.1756 C832.6443,2191.3426 827.9313,2176.1986 827.6643,2163.8866 C826.6323,2151.9466 825.4223,2140.0156 824.0123,2128.1056 C814.2923,1991.2986 739.3343,1858.9466 768.8983,1720.6166 C783.0303,1652.5786 850.1043,1595.5036 828.9723,1521.9166 C889.2013,1535.7696 951.9663,1538.5176 1013.2223,1530.3666 C1035.4553,1529.6756 1042.5583,1520.2856 1047.2213,1499.5646 C1050.5783,1485.7596 1057.4413,1472.1986 1057.5533,1457.8666 C1056.5623,1446.7256 1043.1523,1438.9466 1035.1323,1447.7366 C1059.1743,1360.9206 1079.4383,1273.4546 1097.5823,1185.2656 C1156.1943,1210.4106 1179.2813,1138.0586 1190.0613,1094.4856 C1195.2593,1068.3896 1206.4463,1036.2746 1191.4923,1011.8666 C1235.2263,1029.3006 1206.1513,803.2686 1195.2323,779.5866" id="ðŸ–-Ink" fill="#000000"></path>
    </g>
</svg>