<?xml version="1.0" encoding="UTF-8"?>
<svg width="1645px" height="2500px" viewBox="0 0 1645 2500" version="1.1" xmlns="http://www.w3.org/2000/svg" xmlns:xlink="http://www.w3.org/1999/xlink">
    <!-- Generator: Sketch 62 (91390) - https://sketch.com -->
    <title>pose/standing/shirt-3</title>
    <desc>Created with Sketch.</desc>
    <g id="pose/standing/shirt-3" stroke="none" stroke-width="1" fill="none" fill-rule="evenodd">
        <path d="M526.1928,1015.0625 C525.2588,1019.6945 523.8508,1024.7085 522.3848,1029.2045 C529.6888,1036.2345 540.0268,1045.6565 547.4448,1052.4645 C540.1068,1007.1395 562.4328,965.3065 576.0978,922.4345 C570.9438,915.8245 552.9938,909.0605 553.5718,901.7325 C554.9568,874.5855 557.0008,844.2865 559.9478,810.3015 C569.9248,704.1675 579.8518,593.4865 556.3038,487.0305 C554.6948,475.4595 552.2538,463.2915 536.7338,463.0225 C490.8948,645.4595 528.0388,829.1435 527.0278,1012.7315 L528.3618,1013.9265 L526.1928,1015.0625 Z M457.5498,2509.83951 C419.8848,2509.83951 385.2608,2503.0055 351.7408,2489.1445 C342.0678,2485.7415 330.0518,2481.5145 328.3758,2474.6665 C325.6198,2455.9275 327.5278,2437.5065 329.5468,2418.0095 C332.7398,2384.5645 332.4218,2358.5645 341.4478,2322.5505 C351.1078,2289.1045 359.3408,2262.9655 349.9138,2228.3805 C349.1578,2218.0855 357.2098,2207.6115 362.5288,2197.9825 C370.0588,2183.9265 373.8798,2169.2965 379.8608,2154.8835 C368.1108,2152.8295 355.9098,2150.0145 344.6288,2146.5225 L342.7348,2153.3415 C342.3188,2154.8405 341.1718,2155.6005 339.3278,2155.6005 C338.1868,2155.6005 335.2678,2155.0515 334.8418,2152.6115 C336.6118,2126.2775 339.1758,2100.0745 341.8688,2073.3185 C369.8308,1815.5885 412.1718,1603.1275 483.2758,1391.2345 C500.3538,1341.6085 517.7988,1289.9495 517.9228,1236.0315 C508.2138,1233.9495 497.4008,1232.7545 487.5048,1234.1235 C416.9958,1217.7845 430.9338,1068.6335 433.7388,1023.9955 C428.7658,1022.5015 423.2008,1020.3885 419.0748,1017.5575 L417.4058,1018.3735 C347.3918,844.6115 376.1438,557.3225 392.1588,364.1865 C402.6668,294.7635 387.8868,169.3595 449.4418,135.0535 C499.1418,117.4535 548.6218,107.5615 600.5568,95.9545 C610.1748,90.4335 622.0448,87.2825 632.7768,83.7095 L627.2328,75.9155 C619.9618,65.6705 620.9288,45.5765 630.4398,38.5155 C636.2848,38.8395 644.4978,44.7105 650.0838,47.4675 C658.1188,30.8535 665.5568,13.4755 670.8948,-6.4875 L672.8138,-5.8005 C678.4308,-62.2665 751.6478,-72.1215 792.9298,-53.2525 C837.9948,-28.5145 814.5238,27.4475 835.0128,67.8455 L842.4388,57.9465 C853.9068,57.7345 878.1638,72.7685 884.0048,78.4115 C888.1868,80.3605 885.1618,93.4795 885.7708,98.7565 C946.2258,112.4445 1028.9768,116.2025 1048.1938,184.0565 C1080.1638,311.6495 1075.6688,442.4555 1111.9438,569.5955 C1149.9188,672.6545 1205.6938,798.7605 1206.1628,893.1435 C1207.2458,910.8325 1209.6268,1010.8775 1194.9848,1006.8555 L1185.3208,1016.4975 C1198.4868,1037.5105 1188.0338,1068.9605 1182.9908,1093.8415 C1170.5648,1146.6345 1146.2828,1203.5195 1094.4178,1178.2195 C1038.6348,1486.2295 898.4328,1796.9435 946.2598,2114.6355 C946.8328,2116.4935 945.6718,2118.5315 943.6808,2117.7195 L941.3258,2116.6335 C935.2428,2118.5135 927.5238,2119.1695 921.1708,2120.5945 C926.5768,2140.8515 929.4758,2160.8495 932.2818,2183.2575 C935.6848,2185.2865 934.0968,2190.6545 934.2698,2193.8995 C985.0218,2191.4685 1013.4858,2244.6105 1049.8828,2273.8375 C1073.9148,2295.2765 1101.2838,2315.6895 1131.2348,2334.5125 C1155.9848,2348.5745 1176.8678,2364.6745 1173.1078,2391.2365 C1173.4648,2391.1915 1181.1018,2390.0105 1181.4758,2389.9785 C1192.9888,2428.2855 1155.1858,2436.2065 1116.2538,2440.8235 C1021.1158,2450.3895 939.7888,2429.2485 829.6418,2389.1945 C816.1328,2390.7955 805.6048,2370.7115 803.8078,2357.0935 C802.0288,2347.9675 807.0858,2338.6865 803.2258,2328.8645 C789.9438,2300.6425 783.0298,2225.9345 801.7558,2192.4185 C808.3288,2184.8225 816.7588,2177.8105 815.6658,2164.6985 C815.3598,2151.5645 814.1238,2138.4405 815.2358,2125.5385 C792.7278,2123.3625 770.4468,2118.5125 750.8108,2110.6465 C747.3348,2111.9855 743.3868,2110.3385 743.1438,2105.9835 C739.3758,2045.9315 734.8658,1980.3095 733.8908,1918.8305 C729.3658,1785.0305 759.9648,1654.4695 783.3828,1524.7015 C785.0078,1483.0725 792.6928,1442.8555 795.1148,1401.2065 C797.7208,1361.7075 798.1808,1323.0385 800.4478,1283.5985 L786.9338,1280.6645 C674.7378,1569.9125 586.8768,1859.3955 525.3808,2142.6555 C526.7718,2143.8455 530.7248,2145.1835 530.5568,2147.5985 C530.5108,2148.8885 530.5418,2148.9715 529.6598,2149.1005 C514.8028,2152.0875 500.0998,2154.2785 485.3758,2155.9815 C489.5268,2191.3295 467.3828,2232.1815 486.9808,2265.2885 C492.1858,2273.2675 492.4098,2274.9345 489.2208,2280.4225 C517.7728,2333.5645 535.4678,2377.7845 546.9358,2425.2905 L554.3248,2419.0415 C565.0368,2426.8215 565.2588,2441.5205 565.4928,2457.0515 C564.7308,2466.1005 569.1488,2475.5825 562.3808,2483.1985 C546.0878,2502.2395 489.3038,2509.7325 457.5498,2509.83951 L457.5498,2509.83951 Z" id="ðŸŽ¨-Background" fill="#FFFFFF"></path>
        <path d="M666.2276,-14.9977 C674.0156,-8.6887 665.8926,36.8183 659.6166,46.1033 C702.061,73.4406333 744.950196,100.15002 788.734028,125.188153 L793.2666,127.7723 L793.1266,127.7323 C794.9456,128.5483 798.0216,129.2723 799.8266,128.9133 L801.064529,128.502909 C801.319563,128.421757 801.467711,128.384522 801.3966,128.4423 C802.1266,128.0533 802.8366,127.6433 803.5266,127.1733 C816.0106,115.7833 825.1056,96.4773 834.8866,81.4633 C818.2356,66.7723 826.5336,38.1413 827.2066,18.5823 C830.3546,18.5043 830.7256,28.4953 831.6266,31.3933 L832.133524,34.1574426 C833.333928,40.6295031 834.7021,47.224925 837.1766,53.2423 C844.3776,44.1173 880.8356,65.6763 887.6656,72.6133 C895.1056,77.3573 892.8236,85.7953 892.7266,93.2133 C961.9136,106.6783 1050.1396,116.1503 1059.4366,203.0223 C1070.3756,249.6243 1076.2196,297.0573 1081.6256,344.5533 L1082.50602,352.133099 C1091.95594,433.859645 1100.34381,516.60146 1127.0256,594.8533 L1137.21901,619.173105 C1159.27596,671.917749 1180.7924,725.095433 1194.8766,780.5933 C1205.7956,804.2763 1234.8706,1030.3083 1191.1366,1012.8723 C1206.0906,1037.2803 1194.8966,1069.3963 1189.7056,1095.4913 C1178.9436,1138.3193 1157.4646,1208.3123 1099.6766,1187.6733 C1056.1016,1420.6383 969.7896,1645.0853 947.9676,1882.1023 C940.8816,1959.1403 941.0306,2037.1023 953.0656,2113.6623 C954.6906,2120.9363 947.7396,2127.3633 940.6366,2124.1733 C937.0696,2125.1933 933.2946,2125.4983 929.6366,2126.1923 C933.849564,2143.14348 936.317206,2160.84504 938.55843,2178.16992 L938.8066,2180.0933 L938.8166,2180.1033 C940.5656,2182.0433 941.4236,2184.5033 941.3466,2187.2823 C967.7476,2187.3763 989.8376,2204.4263 1007.4276,2222.5423 C1037.9296,2254.4743 1070.1356,2284.9183 1106.6376,2309.9813 C1132.7666,2331.2273 1178.6056,2343.6823 1180.0766,2383.1833 C1193.4146,2380.9263 1190.2226,2410.0823 1187.8566,2417.7823 C1185.0866,2426.4133 1177.0366,2431.3833 1169.3156,2435.2293 C1058.2916,2472.4483 936.0026,2436.2003 830.4466,2396.2323 C811.9466,2398.6823 798.7256,2374.1883 796.7476,2358.0423 C794.7326,2349.1303 799.4656,2340.4673 796.7066,2331.7823 L795.796986,2329.39601 C792.47526,2320.66655 789.334683,2312.13238 787.4436,2302.8823 L787.167098,2300.95411 C782.666037,2269.0013 779.04186,2214.89082 796.1556,2188.1623 C816.1166,2171.0463 805.7846,2154.6433 807.7866,2131.8433 C788.0766,2129.5933 768.5866,2125.1333 750.1466,2118.0323 C742.876023,2119.58217 736.532218,2113.69058 736.052319,2106.63766 L735.341534,2095.35527 C731.620898,2036.64718 727.746129,1977.87624 726.7786,1919.0433 C722.2256,1785.5543 752.4646,1654.9183 776.2746,1524.5323 C778.6166,1474.2693 788.2086,1424.6323 789.5566,1374.2433 C790.5666,1343.8823 791.8236,1313.6013 793.3466,1283.2923 C685.3636,1561.6353 596.7406,1847.7473 533.1366,2139.5223 C538.9866,2143.4933 539.6266,2154.3223 530.9166,2156.0623 C518.1766,2158.6033 505.3466,2160.6833 492.4666,2162.2533 C494.5276,2193.5843 475.8966,2235.9623 493.1566,2262.5223 L493.845019,2263.58348 C497.120685,2268.67574 500.325584,2274.48925 496.9766,2280.4023 C519.4076,2322.5153 538.8516,2366.4583 550.8166,2412.8433 C564.4846,2407.2323 572.2726,2435.0213 571.8686,2445.0623 C570.9906,2458.2223 578.0826,2480.4083 566.7376,2489.4073 C507.1486,2527.8273 426.2556,2521.8703 361.3056,2500.5943 C349.2586,2495.4263 335.4526,2491.9103 325.1266,2483.6523 C320.4466,2478.9023 320.7666,2471.0933 320.3856,2464.9233 L320.268982,2461.73038 C319.656486,2443.97063 319.716223,2425.87481 324.5766,2408.3833 C323.2766,2383.0423 327.0566,2357.3623 332.0366,2332.5723 C335.2256,2312.5613 344.4086,2293.5503 345.6446,2273.3533 C352.1636,2255.2803 340.4066,2238.3833 343.5666,2220.3223 C346.145205,2209.31537 354.228558,2199.80531 358.908245,2189.5557 L359.2366,2188.8223 C363.4716,2179.5013 366.5056,2169.8433 370.1766,2160.2823 C363.1466,2158.9423 356.2066,2157.2923 349.3666,2155.3123 C346.0946,2167.1723 327.1566,2163.8223 327.7166,2151.7323 C343.2706,1956.7593 374.1796,1762.8703 422.0236,1573.1853 C444.3446,1460.9983 501.9886,1356.3983 510.6766,1241.9133 C503.760254,1240.61522 495.881445,1240.28238 489.104422,1241.06413 L488.2966,1241.1633 C483.9666,1241.7023 479.8066,1242.4623 475.1636,1240.2733 C415.5936,1203.4743 421.7166,1090.7163 426.2366,1029.0033 C423.5466,1028.1033 420.9766,1026.9933 418.6366,1025.6033 C416.5666,1027.1433 413.4266,1027.2323 412.2166,1024.3933 C409.1666,1017.2233 405.2466,1010.2233 402.5946,1002.9333 C333.5716,765.5463 377.6466,515.3873 391.5436,273.4013 C396.9586,223.6873 396.9996,156.1893 446.3766,128.7923 C462.9466,120.9423 481.6466,117.5723 499.3066,113.0443 C539.8336,100.9553 582.1636,95.5393 621.4166,80.0723 C612.2836,67.3823 614.4556,48.8753 622.0656,36.1123 C628.1006,26.9253 639.6856,33.9543 646.8466,37.8623 C655.1116,20.9673 660.7816,2.9553 666.2276,-14.9977 Z M553.3166,2423.6833 L553.681729,2425.38298 C555.6157,2434.47759 557.286012,2444.03054 556.3166,2453.2823 C581.9886,2478.3123 463.6896,2481.4813 450.6356,2481.4243 C420.7646,2481.1173 332.9406,2471.1593 328.5966,2435.1433 L328.646462,2436.00457 C329.227624,2447.4609 327.285375,2468.85445 333.5166,2477.3233 C380.6106,2501.8273 435.4066,2511.5213 488.1176,2505.4833 L490.011584,2505.23141 C511.024325,2502.34405 550.93124,2493.84244 561.2986,2476.3223 C559.0066,2460.0113 564.6346,2436.6443 553.3166,2423.6833 Z M468.1266,2261.8823 C439.2956,2230.4943 391.9386,2253.4383 361.5366,2270.9423 C360.3886,2284.6883 350.7546,2289.7433 350.3646,2304.1633 C343.8866,2348.2023 328.9606,2397.9883 347.9766,2440.5133 C404.6646,2470.8653 472.0776,2468.8103 533.4066,2455.7433 C535.0126,2453.6533 537.0406,2453.0263 539.9366,2452.2323 C541.7606,2439.3283 538.0736,2426.3583 535.6366,2413.8323 C529.5046,2387.5063 521.5716,2361.6583 514.5166,2335.5723 C501.8736,2327.4053 497.2526,2310.2503 490.6566,2297.3123 C488.8666,2293.6833 487.0366,2290.0533 485.1166,2286.4523 C474.8236,2283.0803 472.1296,2270.7883 468.1266,2261.8823 Z M806.0966,2348.4623 C802.9966,2380.1163 833.8686,2392.7373 858.8266,2400.3333 C886.9166,2410.3223 915.6966,2418.6123 944.6366,2425.7813 C1003.9246,2441.0583 1065.7346,2447.7523 1126.5076,2438.1743 L1127.56346,2437.98593 C1145.09814,2434.89879 1176.50996,2431.1889 1180.4966,2410.8833 L1180.53905,2410.41753 C1180.80956,2407.0926 1181.32713,2394.56535 1180.0766,2391.3623 C1179.6166,2391.3533 1179.1666,2391.2533 1178.7366,2391.0423 C1173.6566,2407.2923 1155.1466,2417.1733 1137.3066,2419.7233 C1128.8926,2428.1743 1113.3926,2425.0403 1102.1766,2425.5223 C1028.1416,2424.7883 956.9666,2401.8643 886.8146,2380.5553 C864.4926,2372.7953 819.9966,2367.2343 806.0966,2348.4623 Z M812.4566,2185.5223 C799.6076,2180.9943 797.1666,2216.9933 795.5246,2225.7833 C791.3846,2262.9533 791.4796,2320.9123 821.5656,2347.2733 C852.9576,2360.7203 886.8366,2366.8923 919.2166,2377.4733 L926.879688,2379.72455 C988.255298,2397.6966 1051.32772,2414.5029 1115.7466,2411.8533 C1120.6076,2402.1303 1151.4526,2410.2123 1163.2176,2392.8843 C1178.9966,2365.3693 1139.1516,2347.6443 1120.2966,2335.9233 C1084.0876,2312.6753 1050.2656,2285.6453 1019.7666,2255.2823 C1005.4266,2241.0133 992.3066,2224.6733 975.4666,2213.2023 L974.588392,2212.61209 C960.160056,2203.04499 941.6408,2197.11052 924.6966,2203.3933 C908.1966,2209.5033 902.1366,2228.3533 888.2976,2238.0923 C857.45712,2258.08634 825.873724,2226.48694 815.853616,2197.88796 L815.5566,2197.0223 C815.1966,2196.1333 816.1766,2195.5933 816.9166,2195.8333 C816.8466,2195.5533 816.7966,2195.2633 816.7366,2194.9823 C812.8466,2193.9653 812.4776,2189.1193 812.4566,2185.5223 Z M373.8166,2160.9523 C377.8456,2183.7283 366.4946,2204.1633 358.0246,2224.3123 C355.7446,2237.6693 364.1246,2250.4723 362.1866,2264.0623 C389.9126,2242.2923 431.8746,2222.9893 465.3266,2242.8723 C465.5066,2223.6703 472.1136,2205.0343 477.8566,2186.8833 L480.18796,2179.67988 C482.0046,2174.08499 483.8526,2168.5146 485.8966,2163.0133 C448.6486,2166.9033 410.9376,2167.2923 373.8166,2160.9523 Z M919.3766,2127.7533 C886.7756,2132.2503 853.8186,2134.8353 820.9966,2133.0223 L824.7266,2189.6333 L824.7266,2189.6333 C824.8766,2191.9523 823.8966,2193.5623 822.4466,2194.4823 C827.2856,2212.8743 842.5186,2229.2443 861.4066,2233.2243 C890.5786,2236.9973 894.5026,2198.3043 919.2766,2191.1523 C914.5326,2180.4953 917.9316,2166.4853 917.4666,2154.8833 C917.7266,2145.7533 918.1966,2136.7123 919.3766,2127.7533 Z M812.0266,2178.9823 C811.3966,2180.2823 810.6566,2181.4933 809.8466,2182.6633 C810.7066,2182.7433 811.5366,2183.0033 812.3166,2183.4733 C812.2266,2181.9823 812.1266,2180.4823 812.0266,2178.9823 Z M518.4266,1025.5533 C489.8946,1035.4403 458.7596,1037.4643 429.3666,1029.9523 C435.8146,1078.2833 442.2906,1192.7673 483.3666,1220.6833 C490.3066,1219.6833 497.2766,1219.1923 504.2866,1219.8933 C508.4566,1220.3083 512.5816,1220.9813 516.7166,1221.6223 C518.269267,1221.83858 521.364159,1222.00045 523.340068,1221.86107 L523.6766,1221.8333 C523.153152,1221.87123 522.744805,1221.86312 523.294178,1221.826 L524.1366,1221.7823 L524.568619,1221.74934 C538.811127,1220.46974 551.66395,1200.34684 565.7566,1210.0033 C567.8256,1206.8703 570.9536,1204.8613 573.3566,1202.0723 C584.0516,1183.3363 572.6896,1159.2233 579.8366,1139.4733 C577.1366,1135.7823 578.0266,1130.2533 582.2666,1127.0933 C588.8736,1121.0203 602.8426,1125.5423 606.6466,1116.8223 C606.385859,1117.29637 606.367423,1116.74891 606.468513,1116.46345 L606.493013,1116.4043 L605.822284,1115.8494 C576.631417,1091.67195 548.407106,1064.65527 529.277947,1031.11534 L528.6366,1029.9823 C524.9776,1033.5343 518.9636,1030.8213 518.4266,1025.5533 Z M1184.9366,1009.1523 C1164.8366,1020.1523 1143.1966,1028.1223 1120.7466,1032.7323 C1116.1356,1076.8963 1110.8356,1121.0803 1103.6066,1164.8833 L1105.31951,1165.18973 C1115.34475,1167.02464 1125.90552,1169.49816 1134.5666,1162.5833 C1163.0816,1134.8613 1173.3586,1079.1053 1184.5566,1041.4523 L1184.99842,1039.73822 C1187.35106,1030.504 1190.05182,1017.72782 1184.9366,1009.1523 Z M892.6666,96.3033 C889.6716,111.2943 906.1876,274.5113 876.0656,246.5933 C855.6806,214.5673 832.3606,184.5973 811.5166,152.9023 C808.6456,164.2333 817.0476,177.6963 813.0766,187.3033 C866.1226,453.2093 904.6066,723.2143 918.8666,994.0933 C942.3116,1010.5633 962.8706,1030.5313 983.0256,1050.7643 C989.3066,1056.1073 993.8666,1064.8413 1001.6666,1067.9133 C1033.3306,1032.0973 1069.9076,1001.0493 1103.1966,966.7923 C1102.8866,964.4423 1102.5366,962.1033 1102.1366,959.7633 C1100.4766,950.0323 1112.9866,945.1033 1117.8166,951.0723 C1127.9146,925.4283 1128.8576,895.2853 1126.3566,867.7723 C1121.4466,821.5223 1104.1966,777.3333 1091.8726,732.7633 C1056.3546,596.4133 1031.7736,453.3743 1043.4066,312.2233 C1043.5766,310.9123 1045.3166,310.8933 1045.4706,312.2223 C1055.1226,461.3443 1070.1636,610.8813 1114.9866,754.2133 L1116.05328,757.755794 C1133.56601,815.688068 1155.22766,877.09722 1140.2366,937.8533 C1141.4806,946.0323 1137.5566,954.1823 1131.6266,960.0623 C1128.9866,966.4523 1126.0466,972.7823 1122.5566,978.7433 C1123.7596,992.5793 1123.1776,1006.4453 1121.9566,1020.2123 C1144.9956,1015.2823 1166.4866,1005.8463 1187.0366,994.4733 C1188.2566,987.5323 1189.3266,980.5723 1190.1566,973.5833 C1206.1076,843.9543 1157.4536,717.8893 1108.7766,600.2133 C1062.3936,463.0763 1071.4506,314.2493 1032.6866,175.5213 C1008.1626,121.4243 941.1766,117.1723 892.6666,96.3033 Z M629.7466,86.2533 L628.151366,86.8107331 C616.983827,90.7461781 605.786055,95.3063455 593.8466,95.6433 C556.37535,108.115956 517.953423,117.692474 479.861811,128.102183 L476.1766,129.1123 C459.9166,133.5833 443.4966,138.6923 432.5266,152.3533 C422.0066,165.4523 417.6066,182.3223 414.1686,198.4323 C398.0586,339.2013 388.9306,481.3933 380.7456,623.0033 C376.7326,740.9113 379.0196,860.7903 409.1466,975.5223 C413.3996,991.2423 418.5746,1007.0133 420.4066,1023.1633 C422.5966,1023.1923 424.7966,1023.3433 427.0066,1023.5623 C427.0396,1022.5073 428.6436,1022.6803 428.5266,1023.7123 C457.7996,1028.3333 488.2256,1025.6003 515.6966,1014.2433 C508.9106,807.6933 464.8066,583.5163 564.7066,391.9023 C565.1166,391.1733 566.3566,391.6733 566.0766,392.4823 L563.61398,399.588895 C555.690517,422.489229 547.948225,445.424519 542.3766,469.0423 C550.3166,467.8623 556.1066,486.4633 557.6076,491.0223 C600.9066,622.5193 574.2386,762.8363 568.7266,897.8833 C643.2746,952.1023 718.5526,1005.4313 796.0266,1055.4023 C831.2146,1032.5303 862.7326,1002.5343 898.8866,981.7923 C888.5536,702.7943 831.6416,426.7513 800.7066,151.2023 C789.2316,165.4653 777.5476,179.5633 765.8766,193.6633 C750.8666,212.0933 736.3566,231.0033 721.5566,249.6123 C718.4966,253.4733 711.8266,251.9733 709.6466,248.0823 C680.4976,195.3923 661.9636,137.2003 629.7466,86.2533 Z M541.8766,471.1433 C498.8706,648.2353 534.6026,830.6053 533.9266,1009.7123 C537.1256,1012.5433 535.9396,1017.9093 532.2066,1019.8533 C531.6566,1022.3223 531.0066,1024.7723 530.2466,1027.2233 C533.2466,1030.0723 536.2666,1032.9023 539.3166,1035.7023 C536.9966,996.7123 556.6166,961.2923 567.9866,924.6833 C559.8116,917.3903 544.4966,912.8713 546.5366,899.5533 C548.1166,870.5933 550.1366,841.6523 552.5846,812.7633 L554.097078,796.58772 C563.62759,694.050372 571.72615,589.8434 549.3166,488.4423 L549.182652,487.672613 C548.451788,483.236431 547.052661,472.045118 541.8766,471.1433 Z M1186.8666,1008.1033 L1186.5166,1008.2923 L1187.2966,1008.9523 C1187.1366,1008.6833 1186.9966,1008.3933 1186.8666,1008.1033 Z M929.6266,947.7632 C919.6566,937.9942 935.0456,922.5002 944.8866,932.5032 C954.8446,942.2912 939.4466,957.7832 929.6266,947.7632 Z M923.0565,831.5738 C920.854204,825.796361 926.979324,816.629174 933.456084,820.469851 L933.6565,820.5928 L933.7465,820.4728 C939.8765,824.0928 937.6165,831.5928 934.0165,836.0628 C930.0275,840.1728 925.0605,835.2918 923.0565,831.5738 Z M913.6963,697.8027 C896.3573,675.0867 932.7863,665.7677 926.8163,693.7327 C925.5433,698.9627 915.0553,706.5917 913.6963,697.8027 Z M888.0562,571.2337 C878.8542,559.9857 898.6382,550.3047 902.7762,563.7327 C905.1472,572.6907 893.9722,578.2137 888.0562,571.2337 Z M980.1266,292.2026 C985.5756,293.0486 1013.1236,287.4206 1006.0366,298.8926 C1017.1206,354.2806 1048.2926,421.8566 1003.7866,470.2546 L1003.38969,470.644588 C996.825949,477.202952 986.32862,492.78948 976.2846,486.3646 C953.9896,467.5566 925.2636,454.1166 908.2246,430.0436 C901.0626,411.1596 907.1616,390.0576 905.2666,370.3026 C904.4566,345.3126 900.2966,320.5526 899.404849,295.6026 C899.3666,294.3926 900.6766,294.0026 901.4966,294.5126 C927.6416,292.4336 953.9246,292.8946 980.1266,292.2026 Z M902.3866,296.2626 C914.2146,334.7696 914.4816,375.9406 914.1666,415.8526 C914.3506,419.9676 915.0786,423.9706 917.2246,427.1146 C934.1336,447.0546 958.2256,459.5506 978.2966,476.1126 C986.4226,470.8036 992.8566,464.0186 998.6166,456.3226 C1033.8866,410.1636 1001.9266,352.0626 1001.9666,300.6636 L997.445985,300.672352 C965.786858,300.71421 933.829327,300.298418 902.3866,296.2626 Z M875.771745,439.271883 L876.0765,439.2728 C888.2075,439.3038 885.4255,459.8628 873.9765,457.0438 C864.32499,454.75888 865.800555,439.396486 875.771745,439.271883 L875.771745,439.271883 Z M851.9762,334.3335 C843.5712,320.0105 871.3062,314.4705 868.3862,331.0125 L868.44956,330.333828 C868.4622,330.20346 868.4742,330.0865 868.4862,329.9825 L868.2762,331.5325 L868.2762,331.5325 C867.2672,338.8485 852.8242,344.0915 851.9762,334.3335 Z M833.3563,215.7132 C841.0643,213.6732 846.7513,224.5012 840.1373,229.3522 C830.3093,236.7692 821.8463,218.2932 833.3563,215.7132 Z M644.3666,47.9433 L643.426227,47.0735273 C633.368041,37.8361262 625.82663,33.21654 623.5966,52.0423 C622.0436,61.2233 623.3766,72.8023 632.1766,78.2323 C674.3096,119.8963 690.2786,179.3793 717.4266,230.6223 C741.9406,200.9283 764.7566,170.0173 788.4666,139.7233 C755.8026,119.8173 722.8166,100.0643 690.5966,79.2923 C675.1966,69.0533 658.6266,59.7323 644.3666,47.9433 Z M856.4666,72.5033 C843.7946,93.1903 832.0946,115.5653 815.9366,133.8723 C813.8766,135.9423 811.7366,137.5833 809.5266,138.8333 C812.6896,137.9193 816.8736,140.2853 816.4766,143.7533 C839.9976,167.2033 859.2256,194.4813 877.5966,222.0833 C881.1096,176.4233 874.4146,130.5733 877.0066,84.8433 C871.0366,79.3533 863.9266,75.5933 856.4666,72.5033 Z" id="ðŸ–-Ink" fill="#000000"></path>
    </g>
</svg>