<?xml version="1.0" encoding="UTF-8"?>
<svg width="1645px" height="2500px" viewBox="0 0 1645 2500" version="1.1" xmlns="http://www.w3.org/2000/svg" xmlns:xlink="http://www.w3.org/1999/xlink">
    <!-- Generator: Sketch 62 (91390) - https://sketch.com -->
    <title>pose/standing/shirt-4</title>
    <desc>Created with Sketch.</desc>
    <g id="pose/standing/shirt-4" stroke="none" stroke-width="1" fill="none" fill-rule="evenodd">
        <path d="M526.1928,1015.0625 C525.2588,1019.6945 523.8508,1024.7085 522.3848,1029.2045 C529.6888,1036.2345 540.0268,1045.6565 547.4448,1052.4645 C540.1068,1007.1395 562.4328,965.3065 576.0978,922.4345 C570.9438,915.8245 552.9938,909.0605 553.5718,901.7325 C554.9568,874.5855 557.0008,844.2865 559.9478,810.3015 C569.9248,704.1675 579.8518,593.4865 556.3038,487.0305 C554.6948,475.4595 552.2538,463.2915 536.7338,463.0225 C490.8948,645.4595 528.0388,829.1435 527.0278,1012.7315 L528.3618,1013.9265 L526.1928,1015.0625 Z M457.5498,2509.83951 C419.8848,2509.83951 385.2608,2503.0055 351.7408,2489.1445 C342.0678,2485.7415 330.0518,2481.5145 328.3758,2474.6665 C325.6198,2455.9275 327.5278,2437.5065 329.5468,2418.0095 C332.7398,2384.5645 332.4218,2358.5645 341.4478,2322.5505 C351.1078,2289.1045 359.3408,2262.9655 349.9138,2228.3805 C349.1578,2218.0855 357.2098,2207.6115 362.5288,2197.9825 C370.0588,2183.9265 373.8798,2169.2965 379.8608,2154.8835 C368.1108,2152.8295 355.9098,2150.0145 344.6288,2146.5225 L342.7348,2153.3415 C342.3188,2154.8405 341.1718,2155.6005 339.3278,2155.6005 C338.1868,2155.6005 335.2678,2155.0515 334.8418,2152.6115 C336.6118,2126.2775 339.1758,2100.0745 341.8688,2073.3185 C369.8308,1815.5885 412.1718,1603.1275 483.2758,1391.2345 C500.3538,1341.6085 517.7988,1289.9495 517.9228,1236.0315 C508.2138,1233.9495 497.4008,1232.7545 487.5048,1234.1235 C416.9958,1217.7845 430.9338,1068.6335 433.7388,1023.9955 C428.7658,1022.5015 423.2008,1020.3885 419.0748,1017.5575 L417.4058,1018.3735 C347.3918,844.6115 376.1438,557.3225 392.1588,364.1865 C402.6668,294.7635 387.8868,169.3595 449.4418,135.0535 C499.1418,117.4535 548.6218,107.5615 600.5568,95.9545 C610.1748,90.4335 622.0448,87.2825 632.7768,83.7095 L627.2328,75.9155 C619.9618,65.6705 620.9288,45.5765 630.4398,38.5155 C636.2848,38.8395 644.4978,44.7105 650.0838,47.4675 C658.1188,30.8535 665.5568,13.4755 670.8948,-6.4875 L672.8138,-5.8005 C678.4308,-62.2665 751.6478,-72.1215 792.9298,-53.2525 C837.9948,-28.5145 814.5238,27.4475 835.0128,67.8455 L842.4388,57.9465 C853.9068,57.7345 878.1638,72.7685 884.0048,78.4115 C888.1868,80.3605 885.1618,93.4795 885.7708,98.7565 C946.2258,112.4445 1028.9768,116.2025 1048.1938,184.0565 C1080.1638,311.6495 1075.6688,442.4555 1111.9438,569.5955 C1149.9188,672.6545 1205.6938,798.7605 1206.1628,893.1435 C1207.2458,910.8325 1209.6268,1010.8775 1194.9848,1006.8555 L1185.3208,1016.4975 C1198.4868,1037.5105 1188.0338,1068.9605 1182.9908,1093.8415 C1170.5648,1146.6345 1146.2828,1203.5195 1094.4178,1178.2195 C1038.6348,1486.2295 898.4328,1796.9435 946.2598,2114.6355 C946.8328,2116.4935 945.6718,2118.5315 943.6808,2117.7195 L941.3258,2116.6335 C935.2428,2118.5135 927.5238,2119.1695 921.1708,2120.5945 C926.5768,2140.8515 929.4758,2160.8495 932.2818,2183.2575 C935.6848,2185.2865 934.0968,2190.6545 934.2698,2193.8995 C985.0218,2191.4685 1013.4858,2244.6105 1049.8828,2273.8375 C1073.9148,2295.2765 1101.2838,2315.6895 1131.2348,2334.5125 C1155.9848,2348.5745 1176.8678,2364.6745 1173.1078,2391.2365 C1173.4648,2391.1915 1181.1018,2390.0105 1181.4758,2389.9785 C1192.9888,2428.2855 1155.1858,2436.2065 1116.2538,2440.8235 C1021.1158,2450.3895 939.7888,2429.2485 829.6418,2389.1945 C816.1328,2390.7955 805.6048,2370.7115 803.8078,2357.0935 C802.0288,2347.9675 807.0858,2338.6865 803.2258,2328.8645 C789.9438,2300.6425 783.0298,2225.9345 801.7558,2192.4185 C808.3288,2184.8225 816.7588,2177.8105 815.6658,2164.6985 C815.3598,2151.5645 814.1238,2138.4405 815.2358,2125.5385 C792.7278,2123.3625 770.4468,2118.5125 750.8108,2110.6465 C747.3348,2111.9855 743.3868,2110.3385 743.1438,2105.9835 C739.3758,2045.9315 734.8658,1980.3095 733.8908,1918.8305 C729.3658,1785.0305 759.9648,1654.4695 783.3828,1524.7015 C785.0078,1483.0725 792.6928,1442.8555 795.1148,1401.2065 C797.7208,1361.7075 798.1808,1323.0385 800.4478,1283.5985 L786.9338,1280.6645 C674.7378,1569.9125 586.8768,1859.3955 525.3808,2142.6555 C526.7718,2143.8455 530.7248,2145.1835 530.5568,2147.5985 C530.5108,2148.8885 530.5418,2148.9715 529.6598,2149.1005 C514.8028,2152.0875 500.0998,2154.2785 485.3758,2155.9815 C489.5268,2191.3295 467.3828,2232.1815 486.9808,2265.2885 C492.1858,2273.2675 492.4098,2274.9345 489.2208,2280.4225 C517.7728,2333.5645 535.4678,2377.7845 546.9358,2425.2905 L554.3248,2419.0415 C565.0368,2426.8215 565.2588,2441.5205 565.4928,2457.0515 C564.7308,2466.1005 569.1488,2475.5825 562.3808,2483.1985 C546.0878,2502.2395 489.3038,2509.7325 457.5498,2509.83951 L457.5498,2509.83951 Z" id="ðŸŽ¨-Background" fill="#FFFFFF"></path>
        <path d="M1184.5565,1041.4534 C1173.3585,1079.1054 1163.0815,1134.8614 1134.5665,1162.5834 C1125.3655,1169.9064 1114.1465,1166.7044 1103.6065,1164.8834 C1110.8355,1121.0804 1116.1365,1076.8964 1120.7465,1032.7324 C1143.1965,1028.1234 1164.8365,1020.1524 1184.9365,1009.1524 C1190.3765,1018.2724 1186.9765,1032.1424 1184.5565,1041.4534 L1184.5565,1041.4534 Z M1098.1665,1074.2324 C1060.2665,1420.5874 884.7285,1752.6074 933.9665,2106.7134 C874.9225,2116.7934 814.8635,2120.9914 755.0965,2115.7834 C762.2935,2006.4034 739.0365,1886.6514 755.7575,1773.8634 C766.4465,1668.1234 794.2965,1564.8624 803.8865,1459.0034 C808.1515,1400.4924 813.4665,1339.3894 799.5765,1281.9134 C799.4665,1281.6234 799.3465,1281.3334 799.2265,1281.0434 C808.7395,1272.2194 817.7295,1262.5754 825.6565,1252.2534 C832.4165,1243.3224 817.6965,1231.4234 810.1965,1239.0834 C820.5425,1211.7524 830.4855,1184.2944 840.1265,1156.7134 C690.9995,1457.6594 595.4755,1808.1754 515.0465,2140.8124 C460.9515,2153.1294 405.2685,2152.8334 350.1465,2151.3524 C365.2455,1901.0034 415.3985,1654.3414 483.4285,1413.3334 C498.6495,1357.6074 517.4315,1300.9314 514.0765,1242.4024 C531.8345,1245.1694 556.1265,1235.2714 565.6965,1220.0834 C574.4065,1226.8524 585.0865,1218.5434 589.6765,1210.6524 C600.2775,1189.9604 594.4225,1164.6894 588.2765,1143.4824 C609.9295,1146.8874 637.0405,1126.8074 622.2255,1104.3724 C599.3345,1084.2904 573.2095,1067.1844 550.7665,1046.0224 C548.8465,1006.3424 564.2225,969.3104 578.1865,932.0834 C648.7455,981.8114 717.9225,1035.3194 792.0145,1079.2154 C804.7545,1080.5124 815.0445,1070.8734 824.6065,1063.8334 C851.8965,1043.5834 879.4365,1023.6024 906.3265,1002.8034 C909.2765,1003.8924 912.6665,1003.6234 915.1765,1001.9424 C932.3485,1020.3344 950.4975,1037.3194 967.4865,1055.8034 C977.6915,1065.2344 985.0635,1079.9574 999.3055,1083.5734 C1005.9665,1084.7934 1010.2065,1082.0334 1014.4765,1077.4134 C1040.3885,1049.9934 1068.2665,1024.5314 1095.1165,998.0534 C1097.2365,1000.6924 1101.6965,1001.8834 1104.9665,999.7834 C1104.6265,1024.6424 1101.0765,1049.5224 1098.1665,1074.2324 L1098.1665,1074.2324 Z M919.2765,2191.1524 C894.5035,2198.3044 890.5785,2236.9974 861.4075,2233.2244 C842.5185,2229.2444 827.2855,2212.8754 822.4465,2194.4824 C823.8965,2193.5624 824.8765,2191.9534 824.7265,2189.6334 C823.4865,2170.7634 822.2365,2151.8924 820.9965,2133.0224 C853.8185,2134.8354 886.7755,2132.2514 919.3765,2127.7534 C918.1965,2136.7134 917.7265,2145.7534 917.4665,2154.8834 C917.9325,2166.4864 914.5325,2180.4954 919.2765,2191.1524 L919.2765,2191.1524 Z M809.8465,2182.6634 C810.6565,2181.4934 811.3965,2180.2834 812.0265,2178.9824 C812.1265,2180.4824 812.2265,2181.9824 812.3165,2183.4734 C811.5365,2183.0034 810.7065,2182.7434 809.8465,2182.6634 L809.8465,2182.6634 Z M975.4665,2213.2034 C992.3065,2224.6734 1005.4265,2241.0134 1019.7665,2255.2834 C1050.2655,2285.6444 1084.0875,2312.6754 1120.2965,2335.9234 C1139.1515,2347.6434 1178.9965,2365.3694 1163.2175,2392.8844 C1151.4525,2410.2124 1120.6075,2402.1304 1115.7465,2411.8524 C1048.6435,2414.6134 983.0015,2396.2624 919.2165,2377.4744 C886.8365,2366.8914 852.9575,2360.7214 821.5665,2347.2734 C791.4795,2320.9124 791.3845,2262.9534 795.5245,2225.7844 C797.1675,2216.9934 799.6085,2180.9934 812.4565,2185.5224 C812.4775,2189.1204 812.8475,2193.9654 816.7365,2194.9824 C816.7965,2195.2634 816.8465,2195.5534 816.9165,2195.8334 C816.1765,2195.5934 815.1965,2196.1334 815.5565,2197.0224 C825.2355,2225.8434 857.1455,2258.2884 888.2975,2238.0934 C902.1365,2228.3524 908.1965,2209.5034 924.6965,2203.3924 C941.9865,2196.9824 960.9165,2203.2934 975.4665,2213.2034 L975.4665,2213.2034 Z M1178.7365,2391.0434 C1179.1665,2391.2534 1179.6165,2391.3524 1180.0765,2391.3624 C1181.3965,2394.7434 1180.7465,2408.5134 1180.4965,2410.8834 C1176.4285,2431.6024 1143.8045,2435.0434 1126.5075,2438.1744 C1065.7345,2447.7524 1003.9245,2441.0574 944.6365,2425.7824 C915.6965,2418.6124 886.9165,2410.3224 858.8265,2400.3334 C833.8685,2392.7384 802.9965,2380.1164 806.0965,2348.4634 C819.9975,2367.2354 864.4925,2372.7954 886.8155,2380.5554 C956.9675,2401.8644 1028.1415,2424.7884 1102.1765,2425.5224 C1113.3925,2425.0404 1128.8925,2428.1744 1137.3065,2419.7234 C1155.1465,2417.1734 1173.6565,2407.2934 1178.7365,2391.0434 L1178.7365,2391.0434 Z M477.8565,2186.8834 C472.1135,2205.0344 465.5065,2223.6704 465.3265,2242.8734 C431.8745,2222.9904 389.9125,2242.2924 362.1865,2264.0624 C364.1245,2250.4724 355.7445,2237.6694 358.0245,2224.3124 C366.4945,2204.1644 377.8455,2183.7274 373.8165,2160.9534 C410.9375,2167.2934 448.6485,2166.9034 485.8965,2163.0134 C482.9765,2170.8734 480.4565,2178.8734 477.8565,2186.8834 L477.8565,2186.8834 Z M490.6565,2297.3124 C497.2525,2310.2504 501.8735,2327.4064 514.5165,2335.5724 C521.5715,2361.6584 529.5045,2387.5064 535.6365,2413.8334 C538.0735,2426.3584 541.7605,2439.3284 539.9365,2452.2324 C537.0405,2453.0274 535.0125,2453.6534 533.4065,2455.7434 C472.0785,2468.8104 404.6645,2470.8654 347.9765,2440.5134 C328.9605,2397.9884 343.8865,2348.2024 350.3635,2304.1634 C350.7545,2289.7434 360.3885,2284.6884 361.5365,2270.9424 C391.9395,2253.4384 439.2955,2230.4944 468.1265,2261.8824 C472.1295,2270.7884 474.8235,2283.0804 485.1165,2286.4534 C487.0365,2290.0534 488.8665,2293.6824 490.6565,2297.3124 L490.6565,2297.3124 Z M540.9065,2452.2724 C540.8965,2452.2934 540.8865,2452.3124 540.8565,2452.3434 C540.7665,2452.3334 540.7665,2452.3034 540.9065,2452.2724 L540.9065,2452.2724 Z M559.9765,2460.1924 C559.8265,2457.5224 558.4965,2454.8624 556.3165,2453.2834 C557.3465,2443.4534 555.3965,2433.2834 553.3165,2423.6824 C563.6165,2434.8974 559.2205,2452.6554 560.9175,2466.6324 C560.7815,2472.2024 563.4825,2479.2974 557.0065,2482.1724 C536.7865,2496.1524 512.2765,2502.6734 488.1165,2505.4824 C435.4065,2511.5204 380.6105,2501.8274 333.5165,2477.3224 C327.1225,2468.6354 329.3345,2446.3564 328.5965,2435.1424 C332.9405,2471.1584 420.7655,2481.1174 450.6365,2481.4244 C467.2515,2481.5304 559.8015,2478.0924 559.9765,2460.1924 L559.9765,2460.1924 Z M504.2865,1219.8924 C497.2765,1219.1924 490.3065,1219.6824 483.3665,1220.6824 C442.2905,1192.7674 435.8145,1078.2834 429.3665,1029.9534 C458.7595,1037.4644 489.8935,1035.4404 518.4265,1025.5534 C518.9645,1030.8214 524.9775,1033.5354 528.6365,1029.9824 C547.9855,1064.4264 576.9385,1092.0074 606.8065,1116.6634 C606.4565,1115.5134 606.2065,1117.6234 606.6465,1116.8224 C602.8425,1125.5424 588.8735,1121.0194 582.2665,1127.0944 C578.0265,1130.2534 577.1365,1135.7834 579.8365,1139.4734 C572.6895,1159.2234 584.0515,1183.3374 573.3565,1202.0724 C570.9535,1204.8624 567.8255,1206.8704 565.7565,1210.0034 C551.5215,1200.2494 538.5515,1220.8784 524.1365,1221.7834 C524.2365,1221.7834 524.3365,1221.7834 524.4465,1221.7724 C522.2275,1222.0194 518.6665,1221.8974 516.7165,1221.6234 C512.5815,1220.9814 508.4565,1220.3084 504.2865,1219.8924 L504.2865,1219.8924 Z M530.7665,529.7834 C533.7865,510.0934 537.3065,490.5224 541.8765,471.1424 C547.3865,472.1024 548.6165,484.7234 549.3165,488.4424 C572.9055,595.1804 562.6915,705.0274 552.5855,812.7634 C550.1365,841.6524 548.1165,870.5934 546.5365,899.5534 C544.4965,912.8714 559.8125,917.3904 567.9865,924.6824 C556.6165,961.2934 536.9965,996.7134 539.3165,1035.7034 C536.2665,1032.9024 533.2465,1030.0724 530.2465,1027.2234 C531.0065,1024.7724 531.6565,1022.3224 532.2065,1019.8524 C535.9395,1017.9104 537.1255,1012.5424 533.9265,1009.7134 C535.1555,850.0634 505.1975,689.0514 530.7665,529.7834 L530.7665,529.7834 Z M824.3025,228.2734 C829.9725,218.1824 844.9805,231.2964 835.5515,238.6134 C828.9875,243.9294 819.8905,235.1994 824.3025,228.2734 L824.3025,228.2734 Z M852.0535,345.6564 C858.1085,337.7804 870.2545,346.9004 864.9635,355.0424 C858.7795,367.8834 846.4015,355.1994 852.0535,345.6564 L852.0535,345.6564 Z M871.4925,448.5334 C883.6215,448.5674 880.8425,469.1234 869.3915,466.3044 C859.6425,463.9964 861.2485,448.3434 871.4925,448.5334 L871.4925,448.5334 Z M881.4325,572.4834 C884.2415,562.9684 898.6045,565.4814 898.5025,575.2644 C898.1385,588.4724 878.5875,584.4844 881.4325,572.4834 L881.4325,572.4834 Z M904.9725,692.0044 C908.9645,680.0504 924.3075,686.2364 923.0215,697.8134 C924.6945,704.5004 911.7355,717.9934 909.1125,707.0634 C905.6125,702.8444 903.9625,697.4244 904.9725,692.0044 L904.9725,692.0044 Z M929.0725,829.8534 C929.1025,829.8134 929.1325,829.7734 929.1625,829.7334 C937.6965,833.7504 930.3105,852.0394 922.0825,845.3244 C914.0995,840.4504 919.6245,824.9984 929.0725,829.8534 L929.0725,829.8534 Z M940.3025,941.7644 C950.2585,951.5534 934.8615,967.0454 925.0415,957.0224 C915.0735,947.2544 930.4615,931.7604 940.3025,941.7644 L940.3025,941.7644 Z M1186.8665,1008.1024 C1186.9965,1008.3924 1187.1365,1008.6824 1187.2965,1008.9534 C1187.0365,1008.7324 1186.7765,1008.5134 1186.5165,1008.2934 C1186.6265,1008.2324 1186.7465,1008.1734 1186.8665,1008.1024 L1186.8665,1008.1024 Z M1194.8765,780.5934 C1178.6255,716.5574 1152.4795,655.6104 1127.0255,594.8524 C1099.5195,514.1814 1091.4545,428.7374 1081.6265,344.5534 C1076.2205,297.0574 1070.3755,249.6244 1059.4365,203.0224 C1050.1395,116.1504 961.9135,106.6794 892.7265,93.2134 C892.8235,85.7954 895.1045,77.3574 887.6655,72.6134 C880.8365,65.6764 844.3775,44.1174 837.1765,53.2434 C834.3485,46.3654 832.9655,38.7334 831.6265,31.3924 C830.7265,28.4954 830.3545,18.5034 827.2075,18.5824 C826.5335,38.1414 818.2355,66.7734 834.8865,81.4634 C824.8925,96.6964 816.5595,115.1534 803.3865,127.2834 C803.3965,127.2724 803.4065,127.2634 803.4165,127.2534 C802.7565,127.6824 802.0865,128.0724 801.3965,128.4424 C801.5565,128.3124 800.6065,128.6634 799.8265,128.9134 C798.0365,129.2544 795.0755,128.5994 793.2465,127.7724 L793.2665,127.7724 C747.9095,101.9924 703.5245,74.3834 659.6165,46.1024 C665.8925,36.8184 674.0155,-8.6906 666.2275,-14.9976 C660.7815,2.9554 655.1115,20.9684 646.8465,37.8624 C639.6865,33.9544 628.1005,26.9264 622.0665,36.1124 C614.4565,48.8764 612.2835,67.3824 621.4165,80.0724 C582.1645,95.5404 539.8335,100.9564 499.3065,113.0444 C481.6465,117.5724 462.9465,120.9424 446.3765,128.7934 C396.9995,156.1894 396.9585,223.6874 391.5435,273.4014 C377.6465,515.3884 333.5715,765.5464 402.5945,1002.9334 C405.2465,1010.2234 409.1665,1017.2234 412.2165,1024.3924 C413.4265,1027.2324 416.5665,1027.1424 418.6365,1025.6024 C420.9765,1026.9934 423.5465,1028.1024 426.2365,1029.0034 C421.7165,1090.7164 415.5935,1203.4744 475.1635,1240.2744 C479.8065,1242.4634 483.9665,1241.7034 488.2965,1241.1634 C495.2495,1240.2574 503.4835,1240.5634 510.6765,1241.9134 C501.9885,1356.3984 444.3445,1460.9994 422.0235,1573.1844 C374.1795,1762.8704 343.2705,1956.7594 327.7165,2151.7324 C327.1575,2163.8234 346.0945,2167.1724 349.3665,2155.3124 C356.2065,2157.2934 363.1465,2158.9424 370.1765,2160.2834 C366.5055,2169.8434 363.4715,2179.5024 359.2365,2188.8224 C354.6165,2199.3524 346.2065,2209.0534 343.5665,2220.3224 C340.4065,2238.3834 352.1635,2255.2804 345.6445,2273.3524 C344.4085,2293.5504 335.2255,2312.5604 332.0365,2332.5724 C327.0565,2357.3624 323.2765,2383.0434 324.5765,2408.3834 C319.4245,2426.9244 319.6665,2446.1434 320.3855,2464.9234 C320.7665,2471.0934 320.4465,2478.9024 325.1265,2483.6524 C335.4525,2491.9114 349.2585,2495.4264 361.3055,2500.5944 C426.2565,2521.8694 507.1495,2527.8274 566.7375,2489.4064 C578.0825,2480.4084 570.9905,2458.2224 571.8685,2445.0624 C572.2725,2435.0224 564.4835,2407.2314 550.8165,2412.8434 C538.8515,2366.4584 519.4075,2322.5164 496.9765,2280.4024 C500.5605,2274.0744 496.6385,2267.8604 493.1565,2262.5224 C475.8965,2235.9624 494.5275,2193.5844 492.4665,2162.2534 C505.3465,2160.6824 518.1765,2158.6024 530.9165,2156.0624 C539.6265,2154.3224 538.9865,2143.4934 533.1365,2139.5224 C596.7415,1847.7474 685.3635,1561.6354 793.3465,1283.2934 C791.8245,1313.6014 790.5675,1343.8834 789.5575,1374.2434 C788.2085,1424.6314 778.6165,1474.2684 776.2745,1524.5334 C752.4635,1654.9194 722.2255,1785.5544 726.7785,1919.0434 C727.8065,1981.5534 732.1165,2043.9934 736.0365,2106.3624 C736.3675,2113.5374 742.7815,2119.6004 750.1465,2118.0334 C768.5865,2125.1334 788.0765,2129.5934 807.7865,2131.8434 C805.7845,2154.6424 816.1165,2171.0464 796.1555,2188.1624 C778.6925,2215.4354 782.8225,2271.2224 787.4435,2302.8824 C789.5065,2312.9734 793.0565,2322.2134 796.7065,2331.7834 C799.4655,2340.4674 794.7325,2349.1304 796.7475,2358.0434 C798.7255,2374.1874 811.9465,2398.6824 830.4465,2396.2324 C936.0025,2436.2004 1058.2905,2472.4474 1169.3165,2435.2284 C1177.0365,2431.3834 1185.0865,2426.4134 1187.8565,2417.7834 C1190.2225,2410.0824 1193.4145,2380.9264 1180.0765,2383.1824 C1178.6055,2343.6824 1132.7665,2331.2264 1106.6375,2309.9814 C1070.1365,2284.9194 1037.9305,2254.4744 1007.4275,2222.5424 C989.8375,2204.4264 967.7475,2187.3764 941.3465,2187.2834 C941.4235,2184.5034 940.5665,2182.0434 938.8165,2180.1024 L938.8065,2180.0934 C936.4975,2162.1574 934.0055,2143.7704 929.6365,2126.1924 C933.2945,2125.4984 937.0695,2125.1944 940.6365,2124.1734 C947.7395,2127.3634 954.6905,2120.9354 953.0655,2113.6624 C941.0305,2037.1014 940.8815,1959.1404 947.9675,1882.1024 C969.7895,1645.0854 1056.1015,1420.6384 1099.6765,1187.6734 C1157.4645,1208.3124 1178.9435,1138.3204 1189.7055,1095.4924 C1194.8965,1069.3964 1206.0905,1037.2814 1191.1365,1012.8734 C1234.8705,1030.3074 1205.7955,804.2754 1194.8765,780.5934 L1194.8765,780.5934 Z" id="ðŸ–-Ink" fill="#000000"></path>
    </g>
</svg>