<?xml version="1.0" encoding="UTF-8"?>
<svg width="1645px" height="2500px" viewBox="0 0 1645 2500" version="1.1" xmlns="http://www.w3.org/2000/svg" xmlns:xlink="http://www.w3.org/1999/xlink">
    <!-- Generator: Sketch 62 (91390) - https://sketch.com -->
    <title>pose/standing/shirt-1</title>
    <desc>Created with Sketch.</desc>
    <g id="pose/standing/shirt-1" stroke="none" stroke-width="1" fill="none" fill-rule="evenodd">
        <path d="M988.869391,1551.85278 C985.711332,1579.55652 975.535402,1636.85933 970.538981,1665.00693 C969.086838,1673.18765 968.069763,1678.9208 967.77704,1680.80141 C939.503999,1828.60513 927.931796,1978.79377 922.565156,2128.95947 C920.987691,2148.4991 921.770285,2167.98788 925.167691,2187.29583 C925.342338,2188.28837 925.523642,2189.279 925.711761,2190.26715 C926.661672,2190.07289 927.625489,2189.89604 928.603556,2189.73708 C968.366988,2183.27459 995.150264,2212.31377 1021.03437,2239.6939 C1031.15409,2250.39851 1041.13412,2260.94015 1051.60491,2269.35252 C1076.74129,2291.78211 1103.94863,2311.7399 1132.4559,2329.65692 C1144.10982,2336.51872 1157.33081,2344.62926 1166.25629,2355.38385 C1172.33371,2362.70672 1176.38847,2371.28184 1176.28246,2381.58507 L1176.24609,2385.11996 L1179.73981,2384.58084 C1180.78645,2384.41934 1181.65718,2384.4769 1182.36314,2384.81402 C1183.11213,2385.17169 1183.62808,2385.82251 1184.04294,2386.5833 C1185.90219,2389.99289 1185.89548,2395.40724 1185.99921,2399.5094 C1186.02575,2400.55921 1186.05091,2401.53692 1186.09542,2402.40326 C1186.40986,2414.71308 1180.84372,2422.83678 1172.46451,2428.39305 C1159.41978,2437.04305 1139.95901,2439.76704 1124.18286,2442.06938 C1121.26389,2442.49537 1118.46538,2442.9039 1115.82917,2443.32649 C1018.79003,2453.72834 920.544884,2427.4599 830.757576,2391.87696 C830.50538,2391.77702 830.253186,2391.67697 830.000036,2391.57737 C829.756028,2391.62066 829.509371,2391.65881 829.260042,2391.69169 C822.10594,2392.63521 815.95155,2388.82095 811.084191,2383.30493 C804.357375,2375.68164 799.978273,2364.66259 798.931054,2356.11127 C798.016619,2351.9716 798.592887,2348.11981 799.102196,2344.3038 C799.779426,2339.22964 800.349841,2334.21524 798.769351,2329.2988 C786.38358,2301.13616 784.756335,2270.5086 786.529078,2240.50387 C786.042077,2203.35825 794.574125,2192.8784 801.5169,2184.57159 C807.34507,2177.59836 812.053164,2171.93785 810.5389,2156.10388 C810.349354,2153.76658 809.61027,2138.72203 809.93153,2131.25047 L812.255112,2130.91838 C808.571127,2077.79742 795.2093,2025.18765 781.841043,1972.62 C760.068004,1887.00244 738.19955,1801.48287 759.177778,1713.96885 C765.799034,1686.98961 778.896232,1663.10505 792.036346,1639.07287 C800.374312,1623.82341 808.737337,1608.5176 815.556182,1592.36254 C815.678542,1592.07264 815.800359,1591.78259 815.920711,1591.49154 C815.854858,1591.20537 815.793884,1590.91749 815.738014,1590.62781 C814.446938,1583.93364 816.043569,1577.11814 817.561373,1570.2534 C818.948078,1563.98159 820.30565,1557.66736 819.98154,1551.36126 C819.865475,1539.50223 817.529885,1528.15318 815.076188,1516.6596 C814.9506,1516.07132 814.824884,1515.48351 814.696848,1514.89586 C814.122918,1514.734 813.549465,1514.57011 812.976474,1514.40424 C801.746948,1511.15359 790.772059,1507.16764 780.231863,1501.95665 L777.409182,1500.56114 L776.151846,1503.44802 C775.753041,1504.36369 775.168183,1505.06524 774.464899,1505.54664 C773.690116,1506.07698 772.784282,1506.3408 771.874451,1506.37707 C770.884849,1506.41652 769.884579,1506.18903 769.01886,1505.70879 C768.336744,1505.3304 767.738397,1504.79105 767.312177,1504.09376 C766.109972,1499.17394 767.451263,1493.97858 768.652164,1488.83321 C769.444624,1485.43784 770.221147,1482.05455 770.479237,1478.75669 C770.869801,1476.86956 771.20326,1474.66735 771.557096,1472.31607 C772.544398,1465.75532 773.575787,1457.83264 777.122807,1453.11964 C778.129712,1451.78175 779.361664,1450.73665 780.948255,1450.21965 C782.469599,1449.72391 784.274396,1449.71389 786.416937,1450.20893 C787.677693,1450.50023 788.756638,1450.89738 789.666394,1451.39597 C789.805362,1450.13148 789.941781,1448.86669 790.075644,1447.60162 C795.74289,1394.04364 796.823752,1340.03027 793.677174,1286.27064 C793.433269,1282.10349 793.163958,1277.93778 792.867381,1273.77592 C791.18117,1277.60637 789.52846,1281.44242 787.915979,1285.28513 C778.256422,1308.30485 769.778807,1332.1873 761.305829,1356.0615 C749.448096,1389.47289 737.602638,1422.86957 722.486464,1453.8297 C722.241048,1454.33235 721.994594,1454.83472 721.748431,1455.33685 C722.04096,1455.6549 722.279964,1456.03254 722.478253,1456.44522 C722.836203,1457.19018 723.022095,1457.96738 722.876145,1458.74545 C722.73531,1459.49625 722.293375,1460.21052 721.593196,1460.90224 C715.980567,1466.34205 713.057662,1473.62266 710.230042,1480.92036 C710.087202,1481.28901 709.944408,1481.65754 709.801257,1482.02567 C707.674796,1488.7373 704.188158,1494.82375 699.454395,1499.48795 C695.24959,1503.63096 690.054427,1506.64543 684.005452,1507.78807 C683.370798,1507.90795 682.737377,1508.00523 682.105823,1508.0807 C681.949231,1508.74374 681.794552,1509.40005 681.641899,1510.04945 C680.888568,1513.25424 680.104626,1516.63133 679.28597,1520.15799 C669.705555,1561.42911 655.379717,1623.32967 629.556211,1668.88937 C613.028832,1698.04816 591.809348,1720.59845 563.756337,1725.8889 C561.713658,1726.27413 559.671392,1726.56093 557.63202,1726.75359 C559.335763,1727.61387 560.762114,1728.77856 561.751525,1730.39976 C564.980068,1735.6899 561.758353,1742.89508 559.321254,1749.5018 C557.882271,1753.40273 556.511185,1757.19301 555.97098,1760.54763 C553.350761,1768.03983 551.157608,1775.73373 548.963864,1783.43628 C544.94161,1797.559 540.931552,1811.71839 534.118227,1824.6484 C533.862478,1825.13375 533.603067,1825.61682 533.341461,1826.09675 C533.614998,1826.41978 533.826864,1826.76235 533.988073,1827.16411 C534.260029,1827.84188 534.311351,1828.49755 534.235456,1829.30529 C534.167616,1830.0273 534.022544,1830.611 533.711838,1831.16631 C534.370959,1831.42976 535.019266,1831.75382 535.653125,1832.14283 C538.688827,1834.00585 540.546607,1836.83881 541.468655,1840.07078 C542.586839,1843.99025 542.364926,1848.47823 541.168727,1852.7287 C539.921557,1857.16029 537.605754,1861.35502 534.497348,1864.40046 C531.890584,1866.95441 528.714837,1868.70195 525.137262,1868.91105 C524.895977,1868.92515 524.655691,1868.93209 524.416646,1868.93219 C524.224098,1869.06338 524.03026,1869.1845 523.835909,1869.29437 C522.254072,1870.18863 520.051171,1870.66953 517.989633,1870.70642 L517.28032,1876.60729 C517.728759,1877.10454 517.795117,1877.36441 517.763348,1877.63119 C514.728212,1914.13943 506.049843,1949.73811 497.418466,1985.19531 C495.816138,1991.77758 494.215019,1998.35494 492.650637,2004.93079 C489.607053,2015.4107 487.356854,2026.20753 485.108112,2037.01237 C481.416839,2054.74835 477.744419,2072.51264 470.377124,2088.86354 C470.19456,2089.26872 470.009843,2089.67277 469.824172,2090.07691 C470.00524,2090.46379 470.178439,2090.85499 470.343403,2091.25058 C474.020637,2100.06877 473.269433,2110.25999 471.443177,2119.44393 C468.470213,2122.84292 462.886189,2122.55517 458.24605,2122.69437 C456.464534,2122.74781 454.752199,2122.8023 453.212842,2122.96194 C452.229604,2123.06391 451.186099,2123.22234 450.103377,2123.40594 C450.261694,2124.39208 450.411498,2125.37958 450.552215,2126.36854 C452.803695,2142.1919 452.71754,2158.30711 452.642434,2174.36261 C452.599986,2183.43679 452.55867,2192.49245 452.924793,2201.4682 C452.96801,2202.52772 453.016977,2203.58788 453.072377,2204.64748 C454.040018,2204.50114 455.043971,2204.39833 456.085779,2204.34148 C466.239848,2203.78733 473.294109,2207.96328 478.427768,2214.50433 C486.361852,2224.61355 489.942365,2240.00365 493.089885,2253.12 C493.947255,2256.69283 494.767259,2260.10762 495.618121,2263.2257 C502.086956,2284.89577 510.365601,2305.77404 518.644493,2326.64259 C529.679641,2354.45882 540.720647,2382.25643 547.314481,2411.77006 L548.320148,2416.27137 L552.027234,2413.52716 C552.359664,2413.28108 552.750429,2413.10744 553.183522,2413.09101 C553.612888,2413.07473 554.063101,2413.21388 554.527634,2413.4857 C567.776977,2421.44252 567.921643,2437.85259 568.479126,2451.67367 C568.528311,2452.89307 568.576894,2454.09698 568.631995,2455.27983 C568.501736,2458.19773 568.71558,2461.34274 568.940448,2464.53556 C569.479387,2472.18775 570.599637,2480.55282 564.125101,2485.44873 C518.381827,2516.62534 456.527637,2515.72891 403.656295,2507.54209 C382.578707,2503.69803 362.001985,2497.27723 342.464997,2488.48899 C335.080031,2485.98328 329.556338,2483.33422 326.177816,2478.9832 C323.308541,2475.28801 322.121787,2470.37854 322.587331,2463.5603 C321.285641,2451.16502 322.401996,2439.36531 323.499561,2427.55065 C324.450803,2417.31106 325.39297,2407.06 324.886428,2396.74185 C326.436874,2357.10989 335.504709,2317.93473 344.418671,2279.34617 C344.775884,2277.79979 345.13288,2276.25435 345.48924,2274.71009 C346.01037,2273.07644 346.535776,2271.40713 347.069775,2269.71049 C353.935992,2247.89487 362.038038,2221.16209 381.75805,2208.94341 C382.304489,2208.81985 383.186028,2208.79309 384.16262,2208.71183 C386.76485,2208.49532 389.839213,2208.1428 391.667678,2207.26041 C391.716983,2207.23661 391.765645,2207.21246 391.813668,2207.18795 L390.690656,2210.98318 L396.56063,2208.46855 C397.916087,2207.88789 399.334083,2207.45208 400.787952,2207.17959 C401.267488,2207.08972 401.74982,2207.01781 402.235189,2206.96088 C402.471946,2206.48822 402.705616,2206.01359 402.936108,2205.53694 C410.919981,2189.02629 414.628669,2171.03698 418.305904,2153.04591 C420.578074,2141.9292 422.844653,2130.81492 426.177507,2120.07509 C426.464128,2119.15148 426.758817,2118.23005 427.060696,2117.31026 C426.15756,2117.03246 425.266376,2116.72383 424.390823,2116.38651 C415.111993,2112.8117 406.693691,2105.66958 404.08538,2096.01209 C404.713973,2093.28352 406.014589,2090.2999 407.980821,2088.06647 C409.43807,2086.41118 411.283962,2085.15409 413.57094,2085.01 L417.691684,2084.75037 L416.171589,2080.91146 C414.664583,2077.1056 414.448135,2072.77185 414.909268,2068.68966 C422.677147,2020.8105 433.024856,1973.34135 444.172307,1926.12429 C448.414598,1908.56353 452.953748,1891.0643 458.078456,1873.74058 C458.829522,1871.65453 459.423985,1869.30179 460.028652,1866.88355 C461.28146,1861.87323 462.425036,1856.39018 466.073917,1853.23675 C466.940927,1852.48746 467.917579,1851.89719 468.971008,1851.4247 C468.032378,1850.58121 467.114505,1849.71378 466.218266,1848.83037 C458.428354,1841.15202 451.821478,1831.82207 451.632814,1821.34094 C451.267539,1816.93521 453.352013,1812.39686 456.571974,1809.57736 C457.630614,1808.65038 458.820337,1807.90756 460.103281,1807.45413 L465.04046,1810.49119 C466.222688,1811.21843 467.353058,1812.04718 468.484394,1812.87273 C469.437699,1813.56837 470.391124,1814.26276 471.367824,1814.90848 L483.169682,1822.71091 L475.550038,1810.79022 C469.556586,1801.41366 472.529109,1789.9957 474.941202,1779.50513 C475.592459,1776.67271 476.230229,1773.89353 476.714747,1771.21432 C477.350566,1768.35616 477.975447,1765.48552 478.601628,1762.60886 C482.387539,1745.21648 486.207622,1727.59658 492.86173,1711.21599 C493.132621,1710.54913 493.408312,1709.88408 493.6849,1709.21682 C493.138315,1708.75891 492.593032,1708.29385 492.049071,1707.82159 C466.141351,1685.32858 456.003202,1657.56951 454.692918,1627.79904 C452.804413,1584.891 469.057429,1537.85993 483.453217,1495.9864 C487.112884,1485.34141 490.658729,1475.02647 493.772391,1465.19141 C493.98581,1464.51729 494.198865,1463.84015 494.410739,1463.16018 C493.827076,1462.70582 493.244956,1462.26835 492.664125,1461.85055 C489.136948,1459.31338 484.907249,1456.96168 480.543809,1454.54512 C469.713475,1448.54709 457.412174,1442.31196 455.777846,1430.12332 C455.95869,1423.57373 458.524387,1417.2544 460.978767,1411.0392 C461.975799,1408.51442 462.964773,1406.00662 463.810577,1403.51082 C464.465556,1400.57673 466.466091,1396.76708 469.013,1395.04097 C469.564637,1394.66711 470.145305,1394.36488 470.767086,1394.4338 C471.319528,1394.49504 471.828433,1394.8629 472.352513,1395.41713 L475.875844,1399.14318 L477.397233,1394.24597 C478.175203,1391.74176 478.95639,1389.23525 479.738332,1386.72632 C494.652185,1338.8739 509.78361,1290.1397 508.421211,1239.5961 C508.401254,1238.85572 508.377784,1238.11591 508.350368,1237.38459 C507.614752,1237.14465 506.866515,1236.93328 506.103792,1236.75537 C500.912076,1235.54434 495.636504,1236.02029 490.429799,1236.54341 C483.887177,1237.20074 477.382862,1238.10335 471.512536,1233.71084 C418.035039,1192.80231 423.854913,1088.5297 428.433847,1027.66098 C428.493387,1026.86951 428.553816,1026.07076 428.614157,1025.27137 C427.872473,1025.06577 427.132139,1024.83785 426.394156,1024.59095 C423.910868,1023.76011 421.535767,1022.74147 419.37524,1021.45716 L417.602184,1020.40317 L415.983278,1021.68136 C415.199365,1021.7147 414.74015,1021.24973 414.229789,1020.70768 C412.141075,1018.4893 410.075421,1014.45615 408.019383,1009.50953 C400.741487,991.999653 394.229623,963.339464 392.307017,954.896985 C392.258721,954.684907 392.213299,954.485454 392.163687,954.267149 C353.247563,777.891475 368.136143,596.02348 382.721423,417.318378 C383.763637,404.548723 384.804537,391.795161 385.824971,379.062642 C388.965135,355.523497 390.168053,331.426276 391.369983,307.278043 C393.829313,257.867088 396.235887,208.223045 415.729947,162.820532 C428.748536,129.653736 465.448162,121.952731 496.615479,114.976537 C497.471005,114.785045 498.322856,114.594374 499.170484,114.404069 C515.402703,109.568753 531.723355,105.836473 548.023009,102.10683 C573.001687,96.391276 597.92919,90.6757773 621.722355,81.2979715 C623.010474,80.7902742 624.293699,80.272461 625.572198,79.7444003 C624.659275,78.8097051 623.817785,77.8136748 623.059159,76.7571598 C618.881233,70.9386918 617.244826,63.325171 617.674299,55.7710811 C618.119793,47.9351829 620.79342,40.1195007 625.377605,34.3287401 C627.175621,33.0072194 629.288865,32.8679417 631.431251,33.2177472 C635.631697,33.9035896 640.013509,36.3932303 643.577698,38.3585846 C643.930157,38.5529367 644.275104,38.7431406 644.611681,38.9274026 L647.287524,40.3923159 L648.707488,37.6923518 C654.313075,27.0337156 658.203017,15.2866109 662.00635,3.75719386 C664.202637,-2.90062878 666.372016,-9.4828677 668.852505,-15.7219984 C676.448112,-31.7787292 689.478457,-39.4774627 704.511374,-42.4412182 C727.16869,-46.9081318 754.267844,-40.8762173 775.22782,-35.6453029 C775.979921,-35.4529532 776.736746,-35.2609075 777.497177,-35.0679485 C788.070182,-32.3850547 799.409358,-29.5923653 808.199855,-22.9917532 C822.834748,-11.3019581 825.943778,6.8741566 829.250984,24.7054004 C830.925112,33.7316896 832.605294,42.7136633 835.554527,50.908786 C835.885559,51.8286365 836.235231,52.7459388 836.603005,53.6597461 C837.436158,53.2835326 838.252301,52.9989587 839.046061,52.817446 C850.636936,50.166908 876.077485,65.2339277 884.84572,73.2598584 C887.137634,74.7784285 888.18712,76.2911459 888.732335,77.994607 C889.640284,80.8313869 889.348635,84.081196 889.138802,87.2888038 C889.043656,88.7432624 888.950262,90.1930684 888.932535,91.6083632 C888.922167,92.436169 888.937381,93.276426 888.964488,94.122953 C889.765278,94.280258 890.564006,94.4363154 891.360581,94.5909551 C896.523191,95.5931768 901.791986,96.5740267 907.126319,97.567046 C945.302935,104.673859 986.931796,112.313506 1016.63003,133.330734 C1037.39542,148.02625 1052.19813,169.355614 1055.65925,201.774414 C1066.63389,248.629351 1072.45685,295.967995 1077.85219,343.330852 C1078.57636,349.587702 1079.29251,355.849709 1080.009,362.114719 C1088.69757,438.087386 1097.45589,514.49573 1121.06473,587.532663 C1123.38206,593.208953 1125.62975,598.673512 1127.87938,604.142793 C1163.17998,689.965339 1199.00563,776.945906 1207.47959,870.267232 C1212.07701,914.863949 1211.37641,959.918696 1203.74593,1004.12606 C1203.30066,1006.509 1201.41313,1008.17895 1199.25992,1009.05669 C1196.89719,1010.01983 1194.06278,1010.10607 1191.94308,1008.76871 L1180.64703,1001.64182 L1187.81024,1012.91488 C1202.88685,1036.64157 1190.25969,1078.36926 1181.71527,1107.83243 C1180.44959,1112.19678 1179.25831,1116.30518 1178.23294,1120.06647 C1171.67139,1141.82351 1161.05655,1165.51589 1144.38452,1178.08448 C1138.07478,1182.84122 1130.88513,1185.96477 1122.69903,1186.66001 C1115.17993,1187.2986 1106.84631,1185.89341 1097.61109,1181.94723 C1096.4533,1181.45251 1095.33417,1180.94043 1094.24971,1180.42138 C1093.9982,1181.64805 1093.74624,1182.8747 1093.49386,1184.10133 C1075.35742,1272.2464 1055.11814,1359.6142 1031.09211,1446.37631 L1027.74426,1458.46596 L1036.19947,1449.19897 C1037.54932,1447.71951 1039.095,1446.84957 1040.70894,1446.5293 C1042.51644,1446.17062 1044.38003,1446.48937 1046.09226,1447.2629 C1048.04869,1448.14674 1049.81486,1449.62474 1051.13143,1451.47798 C1052.33459,1453.1716 1053.16329,1455.18459 1053.39595,1457.36874 C1052.70485,1469.22186 1048.87802,1480.61632 1045.09635,1491.98808 C1043.07887,1498.0548 1041.0663,1504.11452 1039.49553,1510.22525 C1037.73965,1516.53072 1034.03454,1520.40562 1029.28263,1522.84903 C1022.01333,1526.58687 1012.50923,1527.19149 1003.54426,1527.85138 C998.865729,1528.19576 994.316544,1528.53589 990.232907,1529.23381 C989.621757,1529.33826 989.003433,1529.45373 988.378779,1529.57924 C988.201792,1530.17175 988.027362,1530.76502 987.85591,1531.35917 C986.649781,1535.5389 985.591624,1539.76021 984.534095,1543.98161 C983.6878,1547.35981 982.841784,1550.73802 981.917081,1554.09402 L987.680165,1555.76164 C988.102526,1554.36905 988.498224,1553.06663 988.869391,1551.85278 L988.869391,1551.85278 Z M541.337207,1026.88959 C541.536769,1001.57531 550.559169,977.705639 559.500362,953.87363 C563.226415,943.942145 566.94794,934.017898 570.057319,924.005693 C570.241976,923.411096 570.424679,922.815532 570.605542,922.219056 C570.136815,921.748336 569.663657,921.298813 569.18534,920.873662 C566.904566,918.846401 564.087224,917.000615 561.213566,915.133664 C557.202782,912.527948 553.020061,909.911516 550.53173,906.375375 C549.000839,904.199843 548.207286,901.64173 548.737715,898.151743 C550.181816,872.063032 551.961366,845.983307 554.09235,819.944506 C554.591431,814.385023 555.095451,808.825753 555.5998,803.262843 C564.490561,705.198825 573.446794,606.010306 555.837821,508.43094 C555.061843,503.987835 554.157673,499.590225 553.252811,495.191488 C552.644705,492.235346 552.036391,489.278671 551.46886,486.312212 C551.386845,485.876284 551.295754,485.297625 551.189045,484.624175 C550.681461,481.420774 549.833971,476.322621 548.121805,472.603414 C546.574758,469.242883 544.310206,467.093137 541.597229,466.620458 C540.639971,466.453677 539.664639,466.502266 538.689285,466.750948 C538.513766,467.445305 538.339807,468.156428 538.167012,468.868057 C508.676648,590.319416 516.077217,714.217993 523.507859,837.877956 C526.926481,894.770286 530.344033,951.610567 530.132321,1008.1347 C530.130241,1008.69014 530.12781,1009.24561 530.125031,1009.80111 C530.476871,1009.90979 530.814303,1010.09382 531.117399,1010.36859 C531.883155,1011.06277 532.09396,1012.03172 531.940734,1012.93504 C531.754621,1014.03224 531.06736,1015.07604 530.012491,1015.63254 C529.644215,1015.82682 529.25221,1015.95059 528.854925,1016.00958 C528.737214,1016.54031 528.616183,1017.07044 528.491816,1017.59981 C527.924233,1020.0157 527.28732,1022.41499 526.577109,1024.79962 C526.402807,1025.38486 526.224326,1025.96843 526.0417,1026.55037 C526.489205,1026.97774 526.937215,1027.40439 527.385671,1027.83057 C530.398172,1030.69345 533.430776,1033.53523 536.493486,1036.34689 L541.957557,1041.36309 L541.517004,1033.95875 C541.376029,1031.5894 541.318734,1029.23269 541.337207,1026.88959 Z" id="ðŸŽ¨-Background" fill="#FFFFFF"></path>
        <path d="M666.5834,-16.0046 C674.3714,-9.6946 666.2494,35.8094 659.9724,45.0964 C702.418733,72.4327667 745.303321,99.14399 789.089554,124.181343 L793.6224,126.7654 L793.6024,126.7654 C795.4304,127.5924 798.3924,128.2474 800.1824,127.9064 L801.510737,127.467735 C801.708974,127.407033 801.814622,127.384844 801.7524,127.4354 C802.4424,127.0654 803.1124,126.6764 803.7724,126.2464 L804.443503,125.619684 C817.213537,113.489179 825.426864,95.4164 835.2424,80.4564 C818.5914,65.7664 826.8894,37.1334 827.5634,17.5754 C830.7114,17.4964 831.0814,27.4884 831.9824,30.3864 L832.318877,32.2268774 C833.561935,38.9931569 834.940067,45.9314833 837.5324,52.2354 C844.7334,43.1104 881.1924,64.6694 888.0214,71.6064 C895.4614,76.3504 893.1794,84.7884 893.0824,92.2064 C962.2694,105.6714 1050.4954,115.1434 1059.7924,202.0154 C1070.7314,248.6174 1076.5754,296.0504 1081.9824,343.5464 L1082.57019,348.598904 C1092.1417,431.146251 1100.42456,514.78784 1127.3824,593.8464 L1136.55716,615.732137 C1158.96816,669.275162 1180.9324,723.23472 1195.2324,779.5864 C1206.1514,803.2684 1235.2264,1029.3014 1191.4924,1011.8664 C1206.4464,1036.2744 1195.2594,1068.3894 1190.0614,1094.4854 C1179.2814,1138.0574 1156.1944,1210.4104 1097.5824,1185.2654 C1079.4384,1273.4544 1059.1744,1360.9204 1035.1324,1447.7364 C1043.1524,1438.9464 1056.5624,1446.7254 1057.5534,1457.8664 C1057.4414,1472.1984 1050.5784,1485.7604 1047.2214,1499.5644 L1046.93859,1500.79409 C1042.26823,1520.65756 1035.01074,1529.6902 1013.2224,1530.3664 C951.9664,1538.5174 889.2014,1535.7684 828.9724,1521.9164 C850.1044,1595.5024 783.0304,1652.5784 768.8984,1720.6164 C739.3344,1858.9464 814.2924,1991.2994 824.0124,2128.1054 C825.4224,2140.0154 826.6324,2151.9464 827.6634,2163.8864 C827.9314,2176.1984 832.6454,2191.3434 825.9824,2202.1764 C832.2384,2216.6544 846.1874,2228.9494 861.7634,2232.2174 C891.0824,2235.9774 894.9674,2196.8804 920.0724,2189.9754 C910.5364,2144.3244 906.5284,2097.9994 910.0774,2051.4554 L910.726745,2041.06297 C921.416618,1871.25121 936.46638,1698.17372 992.4724,1536.6364 C992.9824,1535.1164 995.0624,1535.7564 994.8264,1537.2764 C968.2884,1712.9234 933.2174,1887.7154 929.5614,2066.0064 C929.6194,2106.4344 921.9644,2147.2814 929.2724,2187.3364 C985.3874,2178.2304 1016.6754,2237.0994 1054.6424,2267.5754 C1079.6844,2289.9334 1106.7954,2309.8234 1135.2024,2327.6764 L1137.04346,2328.76376 C1157.01029,2340.60499 1180.70982,2356.44909 1180.4324,2382.1764 C1193.7704,2379.9194 1190.5784,2409.0754 1188.2124,2416.7754 C1185.4424,2425.4064 1177.3924,2430.3764 1169.6724,2434.2224 C1058.6464,2471.4414 936.3594,2435.1934 830.8024,2395.2254 C812.3024,2397.6674 799.0804,2373.1914 797.1034,2357.0364 C795.0884,2348.1184 799.8224,2339.4664 797.0634,2330.7754 C784.6104,2302.5264 782.8774,2271.3384 784.6854,2240.8874 C783.7054,2176.9074 809.3044,2190.4574 808.8624,2161.2154 L808.606805,2155.94182 C808.044109,2143.80213 807.03892,2116.9582 810.4124,2131.6854 C800.6494,1989.2494 720.1894,1849.4624 759.6224,1705.9164 C771.5524,1664.8954 797.4384,1631.1224 813.9424,1591.7564 C811.4434,1578.8044 818.8464,1565.3974 818.1324,1552.0154 C818.0424,1540.3264 815.7024,1529.1664 813.2924,1517.8464 C801.8924,1514.5464 790.7524,1510.4964 780.0524,1505.2064 C776.4724,1513.4264 763.1124,1510.4564 764.9324,1500.0654 L768.6524,1478.8954 L768.6524,1478.8954 L768.793168,1478.19936 C771.051906,1466.59993 771.45206,1443.95188 788.2424,1447.8464 C793.9064,1394.4524 794.9654,1340.6004 791.8324,1287.0064 C768.6324,1342.2934 752.2744,1402.5734 726.3324,1455.7064 C727.5424,1458.1164 727.4224,1461.1054 724.8504,1463.5954 C710.1794,1480.2834 712.7394,1506.0164 685.7124,1511.2964 C666.9984,1582.3884 647.4414,1708.0994 565.4624,1729.3954 C570.9244,1738.0334 561.4784,1752.2324 560.0444,1761.8364 C552.4534,1783.4224 548.7224,1805.9714 537.9224,1826.6054 C538.3324,1827.5964 538.5124,1828.7864 538.3724,1830.1454 C554.3434,1839.9084 544.2134,1871.4444 526.4624,1872.4664 C524.4954,1873.5784 521.7644,1874.2204 519.1924,1874.2654 C520.8424,1874.8054 522.0824,1876.2364 521.8924,1878.5464 C518.2924,1921.8764 506.7324,1964.0764 496.7044,2006.2464 C488.6344,2033.9584 486.1424,2064.4074 474.2624,2090.6564 C478.2154,2099.8154 477.3484,2111.0674 475.5834,2120.6474 C472.1334,2127.4544 461.1844,2125.7164 454.6724,2126.5064 C454.7024,2126.5554 454.7324,2126.6164 454.7524,2126.6764 C454.7624,2126.6764 454.7624,2126.6764 454.7624,2126.6664 C458.2104,2151.3744 456.0534,2176.9554 457.0724,2201.9064 C488.7724,2200.1764 493.3444,2239.8424 499.6624,2262.9954 C514.7284,2313.4584 539.8364,2359.9514 551.3924,2411.6764 C552.9324,2410.5364 555.0224,2410.1854 557.1934,2411.4554 C576.0974,2423.5054 571.6344,2449.2964 573.1834,2468.6074 C577.8044,2502.8064 513.1124,2510.6184 488.4714,2514.1874 C433.1974,2519.7044 373.5544,2511.2914 325.4804,2482.6464 C316.3724,2470.7734 320.6964,2427.6024 323.7004,2411.8954 C320.9044,2366.9824 333.5544,2322.4784 342.5904,2278.8144 L343.498059,2275.79507 C350.804774,2251.3629 359.37504,2220.59344 381.6624,2206.7464 C384.0074,2205.93846 394.080004,2206.61585 392.768783,2202.77157 L392.7024,2202.5964 C392.1124,2201.1664 394.3224,2199.9664 395.2824,2201.0964 C397.3124,2203.4664 397.2124,2206.3554 395.1824,2208.7754 C392.4024,2212.0864 387.9524,2211.4164 384.4704,2213.4044 C371.2754,2226.9434 366.1804,2247.4534 360.0424,2265.0254 C364.6324,2261.3934 369.2414,2257.9274 374.0724,2254.6664 C373.1324,2253.8954 372.5024,2252.6854 372.3324,2251.4564 C367.2754,2246.3394 380.7674,2229.2604 382.9624,2222.9754 C384.9724,2219.1854 388.9924,2219.5964 391.3424,2221.8764 C413.2124,2192.1344 414.1384,2154.0074 424.4624,2119.7464 L423.869334,2119.50909 C414.097772,2115.49265 400.30974,2104.64336 402.9724,2093.6164 C404.8904,2088.5934 408.5094,2082.8404 414.5324,2082.5764 C412.8624,2078.3464 412.5524,2073.5654 413.0814,2068.8654 C420.8644,2020.8844 431.2314,1973.3124 442.4024,1925.9964 C446.705525,1908.13703 451.333845,1890.33038 456.559273,1872.71655 L457.6124,1869.1964 C458.9924,1864.6264 460.6024,1855.0064 465.2624,1851.5254 C453.2844,1840.3294 441.4334,1818.4934 457.4324,1806.5764 C463.1634,1801.3454 477.3634,1808.3534 467.7624,1808.4964 C469.9684,1809.8514 472.0104,1811.5364 474.1724,1812.9664 C466.1814,1800.6824 472.5114,1784.4244 474.9224,1771.1854 L475.576537,1768.21282 C479.812569,1748.86006 483.802424,1728.9402 491.2324,1710.6454 C417.6114,1646.9364 467.8154,1541.1984 492.0624,1464.8464 C475.7984,1454.2114 444.7864,1443.2024 456.4024,1418.5954 C459.8604,1411.7254 464.2444,1385.0534 475.6824,1393.9164 L480.832661,1377.36639 C494.703538,1332.65391 507.854,1287.2729 506.5724,1240.2364 C495.7624,1237.6834 485.9344,1243.0074 475.5194,1239.2664 C415.9484,1202.4644 422.0744,1089.7154 426.5924,1027.9964 C423.9024,1027.0964 421.3324,1025.9864 418.9924,1024.5964 C416.9224,1026.1364 413.7824,1026.2254 412.5724,1023.3864 C409.5224,1016.2164 405.6024,1009.2164 402.9504,1001.9264 C333.9264,764.5404 378.0034,514.3804 391.8994,272.3944 C397.3154,222.6804 397.3554,155.1824 446.7324,127.7864 C463.3024,119.9354 482.0024,116.5654 499.6624,112.0374 C540.1894,99.9484 582.5194,94.5324 621.7724,79.0654 C612.6394,66.3754 614.8114,47.8684 622.4224,35.1054 C628.4564,25.9184 640.0414,32.9474 647.2024,36.8554 C655.4674,19.9604 661.1374,1.9484 666.5834,-16.0046 Z M553.5624,2422.5764 L554.207519,2426.628 C555.542721,2435.056 556.740848,2443.41881 556.2624,2451.9964 C558.6824,2453.5364 560.1624,2456.3364 560.3324,2459.1564 C560.5444,2462.7164 558.7684,2466.1584 554.3524,2467.3474 C486.9544,2484.7104 411.5524,2488.4204 347.4834,2457.5744 C337.1394,2454.5224 331.9124,2445.8424 328.9324,2436.0864 C329.7774,2447.0194 327.5704,2467.7784 333.8724,2476.3164 C380.9664,2500.8204 435.7624,2510.5144 488.4724,2504.4754 C512.6324,2501.6664 537.1424,2495.1454 557.3624,2481.1654 C563.8384,2478.2904 561.1374,2471.1954 561.2734,2465.6254 C559.5644,2451.6264 564.0144,2433.7414 553.5624,2422.5764 Z M457.2424,2251.4354 C424.4324,2234.9664 386.7954,2255.7614 358.0524,2272.1454 C349.0494,2320.2284 326.5444,2394.8364 348.4824,2439.4864 C405.5754,2470.1554 473.7444,2467.7744 535.4924,2454.3864 C536.2924,2453.5864 537.1524,2452.9264 538.2024,2452.4464 C538.1094,2452.5664 538.5514,2452.2394 538.6124,2452.1854 C538.6224,2452.1564 538.6324,2452.1264 538.6324,2452.1054 L538.801141,2451.95229 C538.829511,2451.92751 538.857067,2451.90473 538.8824,2451.8864 C538.7924,2451.9464 538.7224,2451.9964 538.6524,2452.0554 L538.6624,2451.9964 L538.6624,2451.9964 C538.6764,2452.0204 538.9984,2451.7274 539.1024,2451.8154 L539.467523,2451.5411 C540.014998,2451.11339 539.30171,2451.53919 538.6724,2451.9754 C538.8554,2451.2014 539.1234,2450.4384 539.2324,2449.6454 C539.2124,2449.6964 539.2124,2449.7364 539.2024,2449.7654 C540.3624,2418.1844 528.3384,2386.4184 518.7024,2356.4754 C515.4824,2347.3764 512.1024,2338.3364 508.7424,2329.2864 C500.816718,2320.30526 496.510721,2307.67579 491.372301,2297.04385 L491.0124,2296.3054 C482.7634,2279.5044 473.3574,2261.8954 457.2424,2251.4354 Z M806.4424,2347.4564 C803.3744,2379.1154 834.2114,2391.7274 859.1824,2399.3264 C887.2724,2409.3154 916.0524,2417.6054 944.9924,2424.7744 C1004.2804,2440.0514 1066.0914,2446.7454 1126.8634,2437.1674 L1128.46033,2436.88432 C1146.09214,2433.81445 1176.90644,2429.9748 1180.8524,2409.8764 L1180.88009,2409.58576 C1181.14559,2406.55287 1181.70608,2393.61777 1180.4324,2390.3554 C1179.9724,2390.3464 1179.5224,2390.2464 1179.0924,2390.0364 C1174.0124,2406.2864 1155.5024,2416.1664 1137.6624,2418.7164 C1129.2484,2427.1674 1113.7484,2424.0334 1102.5324,2424.5154 C1028.4974,2423.7814 957.3234,2400.8574 887.1714,2379.5484 C864.8184,2371.7814 820.3914,2366.2354 806.4424,2347.4564 Z M813.9924,2173.2164 C813.4124,2176.2644 811.9654,2179.1534 810.2024,2181.6564 C811.5424,2181.1484 817.0004,2185.3054 813.2424,2184.8944 C800.5884,2178.0134 797.2314,2216.6534 795.8804,2224.7764 C791.7384,2261.9384 791.8394,2319.9164 821.9224,2346.2664 C853.3134,2359.7134 887.1934,2365.8854 919.5724,2376.4664 L927.235189,2378.71766 C988.60887,2396.68978 1051.69024,2413.49696 1116.1024,2410.8464 C1121.3054,2401.0034 1151.5544,2409.3184 1163.5744,2391.8774 C1179.2834,2364.3284 1139.6024,2346.6844 1120.6524,2334.9164 C1084.4434,2311.6684 1050.6214,2284.6384 1020.1224,2254.2754 C1005.7824,2240.0064 992.6624,2223.6664 975.8224,2212.1964 L974.944192,2211.60619 C960.515856,2202.03905 941.9966,2196.10362 925.0524,2202.3864 C908.5524,2208.4964 902.4924,2227.3464 888.6524,2237.0864 C858.4904,2257.5884 821.8354,2223.3324 816.6524,2194.7964 C814.9064,2187.7754 814.3684,2180.4644 813.9924,2173.2164 Z M457.1224,2206.0254 C457.2014,2211.8074 457.3614,2217.5874 457.5924,2223.3664 C466.0374,2224.6844 469.6794,2234.9264 473.0744,2242.0454 C478.5864,2249.2574 481.8384,2257.8224 488.1524,2264.6454 C486.0024,2254.3664 484.4324,2243.9864 482.1024,2233.7064 C479.0524,2220.1764 471.4824,2207.8054 457.1224,2206.0254 Z M399.0124,2241.3664 C396.7624,2241.6164 394.5124,2241.8154 392.2624,2241.9264 L391.546844,2242.83603 L391.546844,2242.83603 L391.1824,2243.2864 C390.5024,2244.1364 389.8024,2244.9754 389.1024,2245.8054 C392.3344,2244.1694 395.6464,2242.7104 399.0124,2241.3664 Z M428.7324,2121.4064 C425.9414,2145.0324 423.9654,2168.8704 418.4724,2192.0464 C415.5624,2203.5864 411.0524,2214.5254 404.7724,2224.5864 C417.2934,2228.8564 431.0494,2227.6444 443.8224,2225.4754 L443.751594,2217.00975 C443.52864,2186.67083 443.892888,2155.32205 453.4124,2126.4754 C444.9174,2126.2484 436.8154,2124.2734 428.7324,2121.4064 Z M464.9224,2098.8264 C464.3424,2099.0964 463.7424,2099.3364 463.1224,2099.5554 C465.8264,2104.0514 464.3724,2110.7554 462.8524,2115.5764 C463.8624,2115.4164 464.8624,2115.2364 465.8624,2115.0154 C466.4324,2109.4664 465.8124,2104.2564 464.9224,2098.8264 Z M469.8924,1855.7364 C461.1484,1890.9034 454.6444,1927.1794 446.6424,1962.7464 C440.3704,1993.30373 434.237778,2023.87849 428.699834,2054.56742 L427.5224,2061.1454 C426.5824,2066.4664 423.7024,2075.3554 427.9424,2079.9164 C431.6624,2083.9064 439.4324,2085.7864 444.5124,2087.1044 C456.8704,2091.3544 467.1224,2086.4544 468.7844,2073.0364 C483.31645,2009.08689 504.449333,1946.29976 512.136968,1881.02634 L512.4224,1878.5464 C512.6224,1876.3554 513.9924,1874.9564 515.6324,1874.3554 C498.7054,1874.0394 482.5644,1866.4854 469.8924,1855.7364 Z M524.7124,1838.0364 L524.7724,1837.5864 L524.0724,1837.8364 L524.0724,1837.8364 L524.3924,1837.93978 L524.3924,1837.93978 L524.7124,1838.0364 Z M493.8424,1712.6564 C491.075257,1730.93997 487.30791,1749.07696 484.230544,1767.31477 L483.373172,1772.48809 C480.673186,1788.25947 474.09476,1806.2861 490.8214,1816.4144 C514.4084,1837.0344 530.2804,1832.8084 536.8724,1801.3364 C543.2359,1781.63026 549.21915,1761.79047 554.841366,1741.85786 L556.1324,1737.2564 C556.9024,1734.4964 557.7124,1732.1764 559.5724,1730.3764 C536.3124,1733.4264 512.6424,1726.5864 493.8424,1712.6564 Z M495.9124,1466.9864 C488.9564,1509.3104 474.6314,1549.8844 467.0764,1592.0244 C448.4114,1663.7524 510.9144,1750.3554 586.5454,1707.1474 C631.3684,1673.8984 642.7294,1611.9554 659.8024,1561.9164 C664.3024,1545.6454 667.9324,1529.3154 670.9524,1512.7654 C610.0234,1512.1784 549.3424,1496.2184 495.9124,1466.9864 Z M820.5124,1519.8364 C823.2624,1524.4754 825.2924,1529.5364 826.7324,1534.7754 C827.3484,1530.5524 825.0784,1525.1234 826.6524,1521.3664 C824.6024,1520.8764 822.5524,1520.3764 820.5124,1519.8364 Z M787.9824,1450.4064 C786.4324,1450.7254 785.0424,1451.5464 783.7324,1452.7254 C786.9464,1468.4644 782.0214,1484.8444 781.0024,1500.7364 C859.3434,1518.6484 940.2404,1530.5164 1020.3034,1516.5864 C1034.7974,1516.2014 1034.3224,1491.0834 1039.2334,1480.2254 C1040.7124,1472.8434 1045.1304,1465.1974 1044.3424,1457.6764 C1043.61811,1456.58997 1042.73,1457.02885 1043.26336,1456.53744 L1043.40526,1456.4114 L1043.24882,1456.54138 C1039.01444,1459.91423 1032.05798,1456.24985 1032.96313,1451.43458 L1033.0024,1451.2464 C1032.2124,1451.8464 1031.2824,1452.1854 1030.3124,1452.3154 C1036.0454,1457.5144 1030.5784,1466.9404 1023.2624,1464.6264 C953.6924,1491.9904 856.5844,1485.9074 789.5524,1456.4664 C787.8464,1455.3614 787.5464,1452.6314 787.9824,1450.4064 Z M474.8624,1396.5464 C471.5424,1393.6554 470.5384,1409.2424 469.6614,1411.7164 C469.0384,1417.9644 466.0524,1424.2804 466.6904,1430.5584 C519.7494,1476.4374 605.0114,1497.4444 674.6924,1498.3864 C676.5724,1496.6664 679.4524,1496.4864 681.9524,1497.4964 C692.6424,1496.0434 697.7034,1485.8724 700.8924,1476.7254 L701.642356,1474.83412 C703.274578,1470.73898 704.9744,1466.67373 707.1324,1462.8864 C628.8544,1465.3484 548.1204,1450.3374 479.8024,1410.9264 C470.1444,1411.8444 472.3314,1402.7474 474.8624,1396.5464 Z M518.7824,1024.5464 C490.2494,1034.4334 459.1164,1036.4574 429.7224,1028.9464 C436.1704,1077.2764 442.6464,1191.7614 483.7224,1219.6764 C490.6624,1218.6764 497.6324,1218.1854 504.6424,1218.8864 C508.8124,1219.3014 512.9374,1219.9744 517.0724,1220.6164 C518.626011,1220.83173 521.720064,1220.99355 523.695876,1220.85417 L524.0324,1220.8264 C523.366193,1220.87468 522.886431,1220.84837 524.330264,1220.7826 L524.4924,1220.7754 L524.92442,1220.74244 C539.166946,1219.46282 552.02074,1199.33895 566.1124,1208.9964 C568.1814,1205.8634 571.3094,1203.8544 573.7124,1201.0654 C584.4074,1182.3294 573.0454,1158.2164 580.1924,1138.4664 C577.4924,1134.7754 578.3824,1129.2464 582.6224,1126.0864 C589.2294,1120.0134 603.1984,1124.5354 607.0024,1115.8154 C606.741659,1116.29007 606.723223,1115.74249 606.824313,1115.45684 L606.849259,1115.3974 L606.178116,1114.8425 C576.988185,1090.66505 548.762927,1063.64837 529.633747,1030.10844 L528.9924,1028.9754 C525.3334,1032.5274 519.3204,1029.8144 518.7824,1024.5464 Z M1185.2924,1008.1454 C1164.3424,1019.6054 1141.7224,1027.7864 1118.2624,1032.2864 C1114.1254,1076.2704 1109.0044,1120.1884 1101.5824,1163.7464 C1113.0984,1164.7334 1124.8884,1169.6824 1134.9224,1161.5764 C1163.4374,1133.8544 1173.7144,1078.0984 1184.9124,1040.4464 L1185.35422,1038.73215 C1187.70686,1029.4971 1190.40762,1016.72092 1185.2924,1008.1454 Z M893.0224,95.2964 C890.0284,110.2864 906.5434,273.5034 876.4224,245.5864 C856.0364,213.5594 832.7174,183.5904 811.8724,151.8954 C809.0014,163.2264 817.4034,176.6894 813.4324,186.2964 C866.4784,452.2024 904.9634,722.2074 919.2224,993.0864 C942.6674,1009.5564 963.2254,1029.5244 983.3814,1049.7574 C989.6624,1055.1004 994.2224,1063.8344 1002.0224,1066.9064 C1034.5034,1030.1624 1072.1634,998.4444 1106.1224,963.1164 C1105.8824,961.3954 1105.6324,959.6764 1105.3824,957.9564 C1104.4224,951.3264 1113.1824,948.0254 1116.1024,952.4264 C1128.1884,936.5504 1129.1994,887.3874 1126.7124,866.7654 C1121.8024,820.5154 1104.5524,776.3264 1092.2284,731.7564 C1056.7104,595.4064 1032.1304,452.3674 1043.7624,311.2164 C1043.9324,309.9064 1045.6724,309.8864 1045.8264,311.2154 C1055.4784,460.3374 1070.5194,609.8744 1115.3424,753.2064 L1116.40902,756.748837 C1133.92085,814.680208 1155.58346,876.09032 1140.5924,936.8464 C1141.8374,945.0244 1137.9124,953.1754 1131.9824,959.0554 C1128.6824,967.0554 1124.9124,974.9564 1120.1724,982.1454 C1121.2564,994.6464 1120.7604,1007.3054 1119.4024,1019.8464 C1143.5054,1015.0144 1165.9834,1005.3474 1187.3924,993.4664 C1188.6124,986.5254 1189.6824,979.5654 1190.5124,972.5764 C1206.4644,842.9474 1157.8094,716.8824 1109.1324,599.2064 C1062.7484,462.0694 1071.8064,313.2424 1033.0424,174.5144 C1008.5184,120.4174 941.5334,116.1654 893.0224,95.2964 Z M630.1024,85.2464 C618.4054,89.2954 606.7104,94.2834 594.2024,94.6364 C556.73115,107.109056 518.309223,116.685574 480.217611,127.095283 L476.5324,128.1054 C460.2724,132.5764 443.8524,137.6854 432.8824,151.3464 C422.3624,164.4454 417.9624,181.3154 414.5254,197.4254 C398.4144,338.1944 389.2864,480.3864 381.1014,621.9964 C377.0884,739.9044 379.3754,859.7834 409.5024,974.5154 C413.7564,990.2354 418.9304,1006.0064 420.7624,1022.1564 C422.9524,1022.1854 425.1524,1022.3364 427.3624,1022.5554 C427.3964,1021.5004 428.9984,1021.6734 428.8824,1022.7064 C458.1554,1027.3264 488.5814,1024.5944 516.0524,1013.2364 C509.2664,806.6864 465.1624,582.5094 565.0624,390.8954 C565.4724,390.1664 566.7124,390.6664 566.4324,391.4754 L563.96978,398.581996 C556.046317,421.482337 548.304025,444.417713 542.7324,468.0364 C550.6724,466.8554 556.4624,485.4564 557.9634,490.0154 C601.2624,621.5134 574.5954,761.8294 569.0824,896.8764 C583.9324,907.6164 598.7124,918.4464 613.6124,929.1054 C673.6824,972.0764 734.2824,1014.4064 796.3824,1054.3954 C831.5704,1031.5234 863.0894,1001.5274 899.2424,980.7864 C888.9094,701.7874 831.9974,425.7444 801.0624,150.1954 C789.5874,164.4584 777.9034,178.5564 766.2324,192.6564 C751.2224,211.0864 736.7124,229.9964 721.9124,248.6054 C718.8524,252.4664 712.1824,250.9664 710.0024,247.0754 C680.8534,194.3864 662.3204,136.1934 630.1024,85.2464 Z M542.2324,470.1364 C499.2274,647.2284 534.9584,829.5984 534.2824,1008.7064 C537.4814,1011.5364 536.2954,1016.9034 532.5624,1018.8464 C532.0124,1021.3154 531.3624,1023.7654 530.6024,1026.2164 C533.6024,1029.0654 536.6224,1031.8954 539.6724,1034.6964 C537.3524,995.7064 556.9724,960.2864 568.3424,923.6764 C562.6384,919.3714 556.6184,915.4714 551.0624,910.9964 C547.114218,907.546627 546.642462,903.791235 546.875064,898.890202 L546.8924,898.5464 C552.2724,783.1214 573.0184,667.7184 559.9224,552.1054 C557.8764,530.3474 554.1664,508.8034 549.6724,487.4354 L549.573308,486.875023 C548.851739,482.593218 547.491945,471.052764 542.2324,470.1364 Z M1187.2224,1007.0964 L1186.8724,1007.2864 L1187.6524,1007.9464 C1187.4924,1007.6764 1187.3524,1007.3864 1187.2224,1007.0964 Z M929.9834,946.7563 C920.0124,936.9873 935.4014,921.4933 945.2424,931.4963 C955.2004,941.2843 939.8034,956.7763 929.9834,946.7563 Z M923.4133,830.5669 C921.211004,824.789461 927.335144,815.622274 933.811885,819.462951 L934.0123,819.5859 L934.1023,819.4659 C940.2323,823.0859 937.9723,830.5859 934.3723,835.0559 C930.3833,839.1659 925.4163,834.2849 923.4133,830.5669 Z M914.0525,696.7958 C896.7135,674.0798 933.1415,664.7608 927.1725,692.7258 C925.8995,697.9558 915.4115,705.5848 914.0525,696.7958 Z M888.4125,570.2268 C879.2105,558.9778 898.9935,549.2978 903.1325,562.7258 C905.5035,571.6838 894.3285,577.2068 888.4125,570.2268 Z M980.4834,291.1956 C985.9294,292.0436 1013.4884,286.4096 1006.3924,297.8856 C1017.4764,353.2736 1048.6484,420.8496 1004.1424,469.2476 L1003.74549,469.637588 C997.181749,476.195952 986.68442,491.78248 976.6404,485.3576 C954.3454,466.5496 925.6194,453.1096 908.5804,429.0366 C901.4184,410.1526 907.5174,389.0506 905.6224,369.2956 C904.8124,344.3056 900.6524,319.5456 899.760649,294.5956 C899.7224,293.3856 901.0324,292.9966 901.8524,293.5056 C927.9974,291.4266 954.2804,291.8876 980.4834,291.1956 Z M902.7424,295.2556 C914.5714,333.7626 914.8374,374.9336 914.5224,414.8456 C914.7074,418.9606 915.4344,422.9636 917.5804,426.1076 C934.4894,446.0476 958.5814,458.5436 978.6524,475.1056 C986.7794,469.7966 993.2124,463.0116 998.9724,455.3156 C1034.2424,409.1566 1002.2824,351.0556 1002.3224,299.6566 L997.801904,299.665352 C966.143483,299.70721 934.184173,299.291418 902.7424,295.2556 Z M876.127545,438.264883 L876.4323,438.2658 C888.5633,438.2968 885.7813,458.8558 874.3333,456.0368 C864.6808,453.75188 866.156355,438.389486 876.127545,438.264883 L876.127545,438.264883 Z M852.3325,333.3266 C843.9265,319.0046 871.6625,313.4636 868.7425,330.0056 L868.80586,329.326928 C868.8185,329.19656 868.8305,329.0796 868.8425,328.9756 L868.6325,330.5256 L868.6325,330.5256 C867.6235,337.8416 853.1785,343.0836 852.3325,333.3266 Z M833.373273,214.788427 L833.7126,214.7063 C841.4206,212.6643 847.1126,223.4863 840.4926,228.3453 C830.76288,235.68912 822.371977,217.653251 833.373273,214.788427 L833.373273,214.788427 Z M644.7224,46.9364 L643.782109,46.0666273 C633.724723,36.8292271 626.18146,32.20967 623.9524,51.0364 C622.4004,60.2164 623.7324,71.7954 632.5334,77.2254 C674.6674,118.8874 690.6334,178.3754 717.7824,229.6164 C742.2964,199.9214 765.1124,169.0104 788.8224,138.7164 C756.1584,118.8104 723.1724,99.0574 690.9524,78.2864 C675.5524,68.0464 658.9824,58.7254 644.7224,46.9364 Z M856.8224,71.4964 C844.1504,92.1834 832.4514,114.5584 816.2924,132.8664 C814.2324,134.9354 812.0924,136.5764 809.8824,137.8264 C813.0404,136.9134 817.2264,139.2784 816.8324,142.7464 C840.3534,166.1964 859.5814,193.4744 877.9524,221.0764 C881.4654,175.4164 874.7704,129.5664 877.3624,83.8364 C871.3924,78.3464 864.2824,74.5864 856.8224,71.4964 Z" id="ðŸ–-Ink" fill="#000000"></path>
    </g>
</svg>