<?xml version="1.0" encoding="UTF-8"?>
<svg width="1645px" height="2500px" viewBox="0 0 1645 2500" version="1.1" xmlns="http://www.w3.org/2000/svg" xmlns:xlink="http://www.w3.org/1999/xlink">
    <!-- Generator: Sketch 62 (91390) - https://sketch.com -->
    <title>pose/standing/walking-3</title>
    <desc>Created with Sketch.</desc>
    <g id="pose/standing/walking-3" stroke="none" stroke-width="1" fill="none" fill-rule="evenodd">
        <path d="M1212.2357,2373.58532 C1219.2727,2340.82632 1187.0867,2329.7518 1166.7957,2322.4638 C1152.26173,2313.03627 1098.40935,2280.38782 1056.7407,2240.0839 C1022.6436,2207.10355 999.432131,2164.83502 989.769919,2160.80587 C983.139681,2156.9608 979.480275,2153.60961 978.7917,2150.75231 C972.739579,2125.63853 977.78714,2102.23281 978.7917,2087.0078 C998.1897,2081.9148 1013.7337,2075.5618 1025.3587,2066.6778 C1028.7487,2067.8078 1033.8307,2069.2538 1035.3457,2064.2958 C1045.8517,1994.1998 1050.3867,1924.9328 1058.9347,1854.7828 C1091.2907,1587.6018 1094.9407,1275.4658 1039.2757,1031.4358 C1038.6907,1019.3398 1039.7457,1008.4158 1040.8247,998.0228 C1048.3517,997.2098 1052.9027,989.9238 1059.0487,985.5688 C1068.5877,977.9878 1079.8827,972.1618 1079.4167,958.9118 C1081.6827,957.1958 1081.4187,956.2308 1080.3017,954.0448 C1087.5777,922.7548 1055.1227,889.7828 1045.9437,863.9868 C1062.6287,700.7928 1039.9267,546.5778 1052.5917,383.3448 C1068.5887,376.6508 1057.8337,334.8128 1056.7407,317.5558 C1047.8787,206.3818 990.0877,96.4638 886.0177,60.1448 C880.0687,58.9388 871.1267,52.1388 866.2037,56.7048 C856.6897,52.9358 844.0317,60.3668 836.6687,51.8118 L836.7427,51.7558 C830.5427,43.1588 827.7637,32.2298 825.7257,21.8958 C826.0667,24.8078 826.6357,27.6958 827.3367,30.5188 C809.3957,-20.0452 804.8757,-33.5652 747.1187,-35.9462 C721.1017,-36.2942 686.8057,-35.5132 671.6357,-10.6992 C665.4197,0.8358 667.3187,14.0808 663.4607,26.2228 C656.3787,48.5038 625.8087,37.7368 609.7597,49.3068 C481.3117,90.5048 375.9527,174.5968 341.3217,309.5698 C334.2417,325.8378 326.2117,342.0288 320.2927,358.8178 C319.3767,361.3098 316.8567,369.7428 322.9087,373.6238 L325.8357,375.5008 C287.2817,555.7018 284.7237,707.5458 414.2507,827.6788 C423.9707,879.2998 398.9657,949.7948 408.5777,999.9148 C403.1007,1007.6858 410.0457,1013.9448 417.0477,1014.4438 C417.7227,1014.8188 420.4507,1016.0128 421.1947,1016.3538 C410.0517,1173.6638 456.8357,1385.6698 477.4577,1469.3468 C480.2647,1519.5868 463.1177,1560.8578 427.8437,1588.2378 C388.8707,1612.2418 311.8207,1720.6548 326.1047,1834.3748 C309.4117,1837.6498 292.8397,1839.4458 276.8247,1845.7198 C206.7507,1833.3518 207.4457,1968.4408 202.9807,2015.9398 C195.4187,2095.4698 190.7187,2210.7408 266.2717,2261.6488 C286.1757,2276.0888 326.5337,2292.9928 347.2147,2269.8818 C353.9917,2261.7408 355.6887,2253.8768 353.0227,2245.5628 C387.1727,2197.3138 377.9697,2134.2028 381.1067,2077.6128 C391.0097,2077.0158 401.3707,2081.6608 410.9497,2079.9688 C420.7817,2071.3048 384.9137,2073.6658 381.1937,2073.1578 C381.5747,2064.4308 382.2767,2055.2418 383.1827,2046.4438 C388.8087,2047.5708 396.0157,2050.2708 401.4257,2050.4778 C404.6277,2051.2568 406.8907,2046.8478 404.9577,2044.5628 C400.7357,2040.5358 389.9707,2041.1598 383.9127,2040.5878 C384.9357,2033.2228 386.1867,2025.4798 387.5767,2018.3568 C394.9877,2018.0898 402.6407,2022.8118 409.6577,2021.8458 C404.3467,2018.3018 394.3777,2019.3808 387.9037,2017.0398 C392.1137,1994.0988 400.6917,1972.3218 408.6667,1950.8638 C428.2347,1958.9358 445.1157,1959.2538 464.2187,1956.8338 C472.0327,1958.0358 475.8427,1956.4368 477.1077,1946.6628 L476.6087,1946.0458 C491.7497,1855.4438 540.6077,1769.0708 631.3607,1671.1208 C649.2867,1651.0588 669.5437,1627.4378 683.0407,1601.0278 C710.1617,1546.0658 714.7937,1485.4168 735.6907,1428.3378 C755.2007,1370.9658 781.8777,1316.0868 806.9247,1261.6998 C810.5977,1289.5738 815.5317,1318.1678 820.6607,1345.4988 C843.2347,1442.3518 841.0467,1545.6878 824.4337,1643.0778 C799.8537,1779.4808 811.7017,1916.5308 806.2347,2053.8988 C806.3097,2061.8218 807.2917,2069.0188 806.1297,2077.2678 C805.9757,2077.9028 806.2757,2078.6548 807.0277,2078.6348 L808.4467,2078.6738 C820.2607,2087.3248 836.5767,2088.8878 850.4587,2093.5808 C856.2887,2098.1948 854.6467,2105.5028 855.1807,2111.2048 C856.7057,2135.7758 858.6557,2160.4408 856.2357,2185.7668 C845.5237,2206.2918 832.2207,2202.0518 829.4997,2230.9848 C827.1177,2264.0168 822.9037,2299.1428 838.9897,2328.5558 L832.9037,2329.6058 C823.8717,2348.5588 829.3857,2360.8648 850.6137,2368.8808 C955.4117,2409.9708 1102.8777,2447.2768 1212.2357,2416.2618 C1214.22355,2418.23282 1217.11434,2416.18791 1219.37454,2413.09017 C1221.54641,2410.11351 1223.13601,2406.16469 1222.7827,2403.8728 C1220.9127,2393.8128 1223.4837,2375.44432 1212.2357,2373.58532 Z" id="ðŸŽ¨-Background" fill="#FFFFFF"></path>
        <path d="M1216.7295,2406.4866 C1122.5585,2448.7746 951.5585,2395.4176 859.0285,2364.5456 C834.0795,2355.5446 825.7685,2353.7806 832.7585,2325.0166 C845.8385,2350.2586 873.9685,2356.3556 900.9185,2361.4166 C992.2085,2382.2276 1085.2785,2420.6496 1182.9095,2401.9026 C1197.2395,2399.6466 1211.4185,2391.8876 1215.5885,2377.5696 C1218.1595,2383.6376 1216.5695,2391.8556 1217.5985,2398.5286 C1217.7895,2401.1886 1217.8485,2404.0656 1216.7295,2406.4866 M835.8585,2249.1966 C837.5585,2232.2436 840.2785,2214.3346 849.9285,2199.3546 C848.8785,2223.5826 863.4285,2264.7636 895.3085,2251.0446 C904.3385,2246.2586 909.3995,2236.6216 915.2085,2228.8826 C934.5185,2203.4226 959.2785,2181.3146 987.2495,2165.2496 C1002.8085,2167.9246 1009.4995,2196.3786 1019.5285,2208.2876 C1008.3485,2213.2716 988.0885,2224.6236 986.0395,2236.3656 C999.9995,2231.6696 1012.8485,2222.9246 1027.4895,2219.8506 C1032.1785,2226.3236 1037.1495,2232.6006 1042.3695,2238.6646 C1035.5485,2241.6686 1008.0485,2255.5686 1008.2295,2262.5076 C1023.0985,2260.0916 1037.5085,2252.8116 1052.4585,2249.8206 C1059.1085,2256.4156 1065.1595,2263.5136 1071.7785,2270.1306 C1061.7785,2274.2496 1051.2185,2278.8486 1045.7585,2288.4486 C1045.4995,2288.8826 1046.1385,2289.3676 1046.4895,2288.9486 C1053.9795,2279.9176 1066.8695,2278.2596 1078.0395,2276.2276 C1095.1785,2292.3666 1114.3695,2306.6036 1135.8485,2317.2546 C1157.3385,2329.0056 1189.9995,2331.6936 1198.5485,2357.1836 C1205.3885,2382.6686 1184.0585,2385.3896 1164.3785,2387.1896 C1144.4685,2390.0216 1124.4185,2390.4516 1104.6385,2388.7976 C1042.8085,2386.2206 984.3585,2368.0176 925.9285,2352.1146 C854.4895,2338.9646 831.3085,2328.3166 835.8585,2249.1966 M972.2295,2157.0836 C944.8585,2177.3256 918.1385,2199.8816 899.1285,2228.1146 C886.5485,2251.0856 869.8085,2237.1036 865.6495,2218.7016 C862.2785,2177.6166 865.1785,2142.1376 861.2295,2100.8076 C899.0795,2105.9676 937.9585,2102.7876 974.9285,2093.6576 C970.4795,2112.1076 968.4385,2119.1116 968.2985,2138.0396 C968.5395,2144.2766 968.4485,2151.8906 972.2295,2157.0836 M835.6095,954.7216 C831.9695,956.0496 830.4165,950.2496 834.0145,948.9366 C836.4855,948.0346 838.9835,947.2296 841.4935,946.4676 C841.8055,945.7956 842.3655,945.2186 843.2295,944.9036 C872.6905,934.1706 905.6025,935.2146 936.3755,937.7806 C952.9155,939.1606 969.4195,941.0136 985.7625,943.9246 C1001.4085,946.7106 1016.9335,950.1306 1032.5865,952.8656 C1035.7825,953.2686 1038.9775,953.6536 1042.1705,954.0126 C1045.9715,954.4406 1046.0015,960.4446 1042.1705,960.0126 C1041.4665,959.9336 1040.7645,959.8406 1040.0605,959.7586 C1039.5945,959.9256 1039.0735,959.9976 1038.4935,959.9056 C1036.0575,959.5206 1033.6255,959.1116 1031.1975,958.6876 C1020.5135,957.3196 1009.8565,955.7476 999.2005,954.1856 C971.1675,950.0756 943.0455,945.9726 914.6985,944.9066 C888.0565,943.9046 860.8535,945.5096 835.6095,954.7216 M1037.4285,385.0176 C1030.9185,474.7776 1032.5985,554.9576 1033.9995,644.8576 C1034.8085,705.3276 1035.1885,765.8176 1033.0885,826.2676 C979.8585,688.6876 996.1495,539.3976 988.5885,394.7876 C1004.3195,389.5476 1021.2185,387.2576 1037.4285,385.0176 M765.7295,1048.6776 C770.7085,1058.1876 779.0695,1065.8376 788.9795,1070.6176 C787.7585,1073.0176 787.3385,1075.7176 787.2085,1078.2476 C769.3585,1081.8976 774.3785,1090.3676 762.3195,1094.4076 C754.4285,1096.5876 746.8385,1097.5176 740.0185,1102.2976 C716.8085,1123.9176 711.0485,1122.3276 686.1385,1103.3076 C686.4795,1101.5876 652.5795,1068.4776 642.0795,1049.9676 C633.3295,1034.5276 624.1685,1018.9776 610.7585,1007.0376 C545.0885,939.7976 475.1285,876.3376 411.5585,807.2376 C284.1595,680.2876 308.4685,536.3376 337.7295,377.7676 C384.9585,383.4076 432.4485,394.7376 474.9795,415.5376 C459.9795,485.5276 459.0185,548.9676 452.5585,619.9876 C450.6085,628.7676 452.8085,645.6776 465.2495,641.7776 C579.5985,732.5676 592.8885,919.1376 742.9485,973.0876 C804.1085,997.9476 778.2985,1018.1276 798.5085,1065.0676 C787.3885,1063.0276 777.4685,1053.7076 772.6885,1044.7876 C770.3195,1040.3576 763.4185,1044.2576 765.7295,1048.6776 M483.4525,992.2686 C479.7725,992.6986 476.0825,993.0166 472.3895,993.3166 C471.9615,993.6636 471.4305,993.9156 470.7805,993.9966 C465.0265,994.7146 459.1595,995.6546 453.3455,996.9286 C444.7195,999.9856 436.0025,1002.7786 427.3255,1005.6866 C426.5655,1006.0606 425.8095,1006.4396 425.0625,1006.8356 C424.3465,1007.2146 423.6535,1007.2746 423.0275,1007.1346 C422.7745,1007.2206 422.5195,1007.3036 422.2665,1007.3906 C422.2015,1007.4126 422.1355,1007.4356 422.0715,1007.4576 C421.8415,1007.4496 421.6105,1007.4426 421.3755,1007.4326 C421.0345,1007.4186 420.4475,1007.3916 419.7525,1007.3466 C419.7375,1007.0816 419.7425,1006.8216 419.7345,1006.5586 C417.2855,1006.6296 415.0905,1003.5686 417.3955,1001.5476 C425.8445,994.1386 437.1955,991.4296 448.0445,989.7916 C459.7885,988.0176 471.6675,987.6466 483.4525,986.2686 C487.2865,985.8206 487.2415,991.8256 483.4525,992.2686 M375.5585,2012.0676 C365.0395,2011.2576 320.0485,2009.7076 314.6495,2016.7676 C320.7295,2019.3376 329.0885,2017.9176 335.6285,2018.2076 C348.3295,2018.7276 360.9995,2019.8476 373.5695,2021.6276 C372.6285,2026.5276 371.7785,2031.4176 371.0795,2036.3276 C358.3995,2037.5376 333.7085,2038.0876 325.6595,2046.9576 C340.0185,2049.2476 354.9685,2047.1876 369.3785,2050.0476 C368.6785,2056.7676 368.1685,2063.4976 367.7895,2070.2276 C362.0485,2070.8376 328.2895,2076.4276 328.3195,2081.7376 C340.9585,2083.4176 354.3485,2081.2076 367.2295,2082.4576 C364.4385,2122.7876 373.8995,2244.5776 318.7785,2252.0276 C270.5885,2249.4876 249.4485,2171.3876 242.8995,2133.9176 C228.3785,2046.6176 230.8695,1953.5376 259.6495,1869.3876 C269.9285,1845.9876 297.9095,1841.9276 321.5695,1840.7176 C322.4685,1844.6776 323.3585,1848.5676 324.3585,1852.4876 C314.0985,1875.7476 310.8295,1901.9376 310.5485,1927.1076 C312.7185,1963.2876 357.3585,1990.1876 389.7785,1966.2876 C383.7185,1981.0876 379.0395,1996.4876 375.5585,2012.0676 M311.7895,2272.3376 C216.3385,2251.8176 200.6785,2141.2776 207.2395,2059.9976 C212.5885,2003.4176 206.1595,1884.1276 258.3885,1850.8876 C190.8885,1912.5076 196.7495,2332.0076 346.3385,2258.7876 C342.6085,2270.6076 323.4285,2274.0176 311.7895,2272.3376 M330.4895,1877.9376 C330.6595,1876.4776 330.8485,1875.0276 331.0485,1873.5676 C341.6385,1902.3376 359.7785,1929.6776 386.7895,1946.3376 C376.4485,1959.2376 356.3085,1963.0776 342.7185,1952.5176 C319.0185,1934.7476 328.8995,1902.5976 330.4895,1877.9376 M655.8485,39.9976 C655.6595,40.3276 655.4585,40.6576 655.2585,40.9776 C653.9385,41.0676 652.6085,41.1876 651.2585,41.3376 C652.7895,40.8776 654.3195,40.4476 655.8485,39.9976 M1225.9995,2388.9776 C1225.7395,2381.8216 1225.6385,2372.5776 1217.2585,2370.0376 C1221.0585,2339.1986 1195.4585,2321.6436 1168.5795,2313.0986 C1145.6595,2299.0766 1119.6685,2289.2826 1098.6085,2272.3786 C1108.3885,2270.5416 1118.1685,2268.3246 1126.8585,2264.0686 C1133.4185,2260.8586 1130.2585,2250.1716 1123.1495,2251.1616 C1110.5585,2252.8226 1099.2495,2259.2236 1087.4185,2263.6726 C1080.6985,2258.1516 1074.1885,2252.3886 1068.0395,2246.2856 C1075.6985,2244.8056 1085.4385,2245.3506 1089.8995,2237.7466 C1091.2895,2235.3696 1090.6685,2232.9036 1088.9895,2231.0666 C1081.2295,2223.2126 1065.8485,2231.0556 1056.2085,2233.3446 C1051.5795,2228.0086 1047.1085,2222.5646 1042.7185,2217.0556 C1049.9995,2216.3856 1068.9385,2217.7166 1065.2295,2205.6996 C1058.1195,2196.3006 1042.8295,2201.9396 1032.5485,2203.8736 C1019.5085,2187.8396 1015.3085,2163.2396 994.9285,2154.4176 C994.1985,2150.5286 989.1195,2150.8266 985.7295,2151.9826 C980.7395,2128.1566 981.1195,2116.0476 982.5795,2091.6276 C997.7085,2087.4376 1012.7185,2081.9376 1025.2985,2072.9176 C1031.0795,2074.6176 1038.0885,2072.6576 1039.2895,2065.8676 C1049.7495,1996.3276 1054.3995,1925.9276 1062.9095,1856.1376 C1093.9385,1599.1276 1100.6985,1285.4276 1043.2585,1031.5176 C1042.8085,1021.8976 1043.4895,1012.2676 1044.4585,1002.7176 C1051.3085,1000.8876 1055.3885,994.1976 1061.0585,990.3276 C1071.5985,981.7376 1082.3195,976.9276 1083.2895,961.9376 C1085.4185,959.9076 1085.6685,956.8376 1084.4995,954.1776 C1087.2295,938.7876 1083.2085,923.5076 1075.0185,910.2076 C1066.0395,895.0576 1057.5585,879.7676 1050.0695,863.8676 C1066.4485,703.6076 1044.2295,548.2876 1056.3785,387.2276 C1071.9585,378.9776 1062.1785,333.1376 1060.7295,317.8576 C1051.6285,217.5076 1004.7785,106.7076 905.1685,64.9676 C898.1785,59.0676 888.4185,57.0676 879.8785,53.8176 C874.1085,50.9776 864.7185,48.5176 860.7685,55.1276 C856.5795,53.1776 843.0885,51.6876 838.4685,48.3076 C837.6085,47.6776 837.0585,46.9876 836.9285,46.2176 C836.5885,46.2276 836.1885,46.1576 835.7585,46.0676 C831.4995,40.0476 827.4385,-1.8824 822.1885,1.1076 C816.4585,15.5076 820.4285,31.7776 825.9095,46.3176 C829.6885,59.1776 834.8695,92.2576 854.9485,83.7976 C858.4095,82.0776 856.2685,77.6076 853.1685,77.2476 C843.6495,74.5276 841.5285,60.5376 837.8485,52.3376 C842.2085,55.9576 862.0695,61.3876 864.2395,62.5376 C907.3195,161.4176 646.8485,156.2276 626.3695,88.0576 C611.7685,64.5076 624.3695,51.7476 650.3995,47.9676 C631.2685,69.2276 655.4895,73.9476 664.6985,53.0976 C673.5085,38.1676 677.5185,20.0276 674.5085,2.8476 C676.0585,-3.1824 677.3695,-11.2424 668.3485,-9.6224 C668.0395,-10.4224 667.5485,-9.7924 667.7395,-9.2224 C664.4485,-3.9824 666.7395,3.5476 665.5695,9.5976 C664.5795,19.4976 661.7685,29.1976 656.9995,37.9576 C648.1495,39.6476 639.3385,41.4576 630.5695,43.4376 C625.3085,32.7476 591.1885,54.0676 582.0285,56.5776 C460.3385,92.5276 367.7985,188.2676 335.4995,309.0276 C328.2895,325.1076 320.5085,341.2676 314.6085,357.8476 C311.9685,365.0276 311.9685,373.9376 319.2185,378.5876 C283.8885,540.6576 275.2685,709.5176 408.7395,831.0776 C411.7685,844.2376 409.7495,858.1976 409.6595,871.5976 C410.5335,895.4266 394.8365,964.3996 402.3245,999.9416 C401.5115,1001.4946 400.9365,1003.1606 400.7115,1004.9396 C399.6635,1013.2016 406.3845,1018.5216 413.7995,1019.8756 C414.0245,1019.9166 414.2565,1019.9556 414.4855,1019.9956 C414.6535,1020.0786 414.8165,1020.1706 414.9895,1020.2476 C406.1385,1155.7476 439.3295,1340.1176 471.4995,1470.8376 C473.8785,1515.7676 460.3295,1556.6376 423.8585,1584.9876 C354.5185,1636.8276 325.3085,1723.3576 317.1985,1805.8176 C316.0485,1814.2676 317.1785,1822.8676 319.0795,1831.1676 C304.0485,1833.9676 289.9795,1835.7876 275.3885,1841.2976 C194.9185,1825.8776 200.6595,1998.7676 194.4995,2050.0676 C189.6785,2125.9076 192.6885,2216.8176 262.3785,2266.4776 C285.8085,2283.1576 327.1685,2299.1776 349.9995,2273.9176 C356.4585,2266.1876 359.9795,2257.1476 357.4385,2247.2676 C390.1685,2199.3376 382.4385,2138.0776 384.8885,2083.5376 C393.4585,2083.8376 402.7985,2087.6576 411.2395,2085.5576 C417.7395,2083.8376 418.5695,2075.4976 413.0695,2072.1776 C405.1285,2067.6776 394.3385,2069.3876 385.4585,2069.0876 C385.7295,2063.8676 386.1195,2058.6476 386.6195,2053.4276 C395.0485,2055.4876 407.1285,2060.4376 409.6385,2048.6576 C410.6495,2037.9276 397.0985,2037.1076 388.6595,2036.6476 C389.2495,2032.5976 389.9095,2028.5676 390.6595,2024.5476 C397.1195,2025.1976 403.9385,2029.3176 410.2895,2027.3476 C413.8885,2025.9276 415.1385,2022.2876 412.5085,2019.3376 C407.6195,2014.5476 399.2585,2015.5076 392.7895,2014.0176 C396.7185,1994.7676 403.8195,1976.3576 410.6595,1957.9476 C423.0395,1962.2476 436.4485,1965.0876 449.6595,1964.0076 C456.5085,1962.5676 463.9895,1962.1576 470.9095,1963.0876 C478.6085,1961.0476 480.3885,1952.8176 481.3995,1946.0976 C481.2495,1945.8576 481.0985,1945.6276 480.9285,1945.4176 C498.7185,1841.8176 562.5395,1752.3176 634.0985,1675.2076 C653.8085,1653.1476 673.1385,1630.2076 686.5285,1604.0076 C713.7295,1549.2476 718.6085,1487.6376 739.4185,1430.7476 C756.9485,1379.0876 780.3785,1329.5476 803.3485,1279.9376 C812.5585,1345.2776 829.7585,1409.5476 831.7295,1475.8076 C834.7295,1559.6376 816.2585,1642.2476 808.3785,1725.4076 C794.2085,1834.8576 807.0795,1944.9876 800.2395,2054.5176 C800.2895,2062.2676 801.2895,2069.5676 800.1885,2077.3176 C799.5795,2081.6076 802.6595,2084.2976 805.8995,2084.3876 C817.7985,2092.1976 832.7495,2094.9676 846.4285,2098.3076 C850.2185,2101.2076 848.5795,2108.3476 849.2495,2112.7176 C850.7185,2137.2676 852.6595,2155.7946 850.2685,2180.5456 C836.8885,2200.3306 827.2495,2197.1696 823.5285,2227.2436 C821.4795,2258.6356 816.9685,2292.5836 830.6885,2321.0806 C824.5485,2322.4776 822.2185,2341.2156 823.1385,2346.1746 C824.6985,2360.1586 837.0285,2364.5826 848.9485,2369.4086 C936.0585,2402.0486 1121.1495,2455.7816 1210.6595,2418.8296 C1217.0695,2422.4576 1224.2185,2415.3456 1226.2895,2409.6216 C1229.0285,2402.6516 1226.5085,2395.8996 1225.9995,2388.9776" id="ðŸ–-Ink" fill="#000000"></path>
    </g>
</svg>