<?xml version="1.0" encoding="UTF-8"?>
<svg width="1534px" height="1856px" viewBox="0 0 1534 1856" version="1.1" xmlns="http://www.w3.org/2000/svg" xmlns:xlink="http://www.w3.org/1999/xlink">
    <!-- Generator: Sketch 62 (91390) - https://sketch.com -->
    <title>pose/sitting/bike</title>
    <desc>Created with Sketch.</desc>
    <g id="pose/sitting/bike" stroke="none" stroke-width="1" fill="none" fill-rule="evenodd">
        <path d="M2382.92677,2109.20573 C2332.70877,2753.66173 1456.11077,2846.19073 1281.11877,2225.23873 L1281.00977,2225.27873 C1280.39477,2222.86473 1279.07377,2218.02973 1278.36977,2215.64473 L1278.48177,2215.61973 C1262.95277,2154.79473 1257.16577,2088.95773 1261.57477,2025.21273 L1261.58477,2025.21473 C1269.97577,1893.67873 1325.95377,1762.19773 1415.79277,1666.11373 L1415.80177,1666.12573 C1440.83977,1638.97573 1468.35777,1614.52173 1497.73277,1592.87873 C1553.23777,1760.51273 1633.73077,1910.41773 1735.74077,2035.09773 L1731.79277,2039.97373 C1736.71177,2042.69873 1741.59677,2045.42073 1746.47877,2048.15973 C1748.16777,2050.20873 1750.00577,2052.50373 1751.67277,2054.61673 C1744.86277,2072.02773 1759.32077,2088.92373 1776.41577,2092.25473 C1771.20977,2104.50373 1783.96177,2109.34673 1791.61477,2111.55373 C1816.83277,2117.33073 1846.45977,2118.58773 1865.55377,2104.44073 C1890.20677,2081.85273 1881.55177,2037.28073 1854.90577,2020.34673 C1855.01377,2020.06073 1855.10677,2019.76973 1855.20077,2019.47973 C1851.63077,2019.10073 1848.40277,2017.77773 1845.75077,2015.60973 C1832.42177,2010.45173 1816.86577,2010.50473 1803.80977,2016.27773 C1715.16677,1872.05473 1626.26777,1715.31173 1577.07277,1544.44173 C1597.85377,1534.04773 1619.45777,1524.84573 1641.39377,1517.13773 L1641.37977,1517.10873 C1641.96977,1516.90873 1643.74277,1516.30973 1644.29977,1516.10173 L1644.30277,1516.11473 C1664.66177,1509.10073 1685.62077,1503.22673 1706.71077,1498.67873 L1706.70777,1498.66073 C1708.56677,1498.27873 1712.44577,1497.46373 1714.31877,1497.06473 L1714.32177,1497.08973 C1751.91177,1489.50773 1791.07577,1485.93273 1830.07977,1486.48773 L1830.08077,1486.48073 C1831.54277,1486.50673 1837.09377,1486.61873 1838.89377,1486.65473 L1838.89077,1486.68973 C1852.14177,1487.05673 1865.77577,1488.03573 1879.08677,1489.31673 C1878.95677,1489.80873 1878.74877,1490.44973 1878.48977,1491.19173 C1879.57777,1491.24873 1880.63877,1491.41273 1881.67677,1491.66673 C1881.82977,1491.00073 1881.98677,1490.33473 1882.13577,1489.66873 C1892.64077,1490.85773 1903.25177,1492.29273 1913.68577,1494.06573 L1913.68677,1494.06073 L1921.15777,1495.35573 L1921.15277,1495.38173 C2055.07577,1519.04873 2181.26277,1598.60373 2263.45977,1707.59873 L2263.45477,1707.60173 C2298.14477,1752.85573 2326.02777,1803.27873 2346.39877,1857.59573 L2346.40577,1857.59273 L2349.67777,1866.47973 L2349.65677,1866.48573 C2377.02677,1942.85173 2388.48477,2026.69773 2382.79377,2109.21273 L2382.92677,2109.20573 Z M1425.36177,1263.20573 C1224.01677,1455.14373 1000.67377,1633.70473 830.203767,1855.51173 L798.325767,1836.23973 L801.544767,1835.62273 C790.889767,1834.56373 781.039767,1824.58973 773.149767,1818.09973 C790.143767,1819.29473 795.555767,1822.45373 805.679767,1803.03173 C841.154767,1739.20273 871.750767,1674.08173 910.004767,1611.07973 C941.300767,1555.53773 972.622767,1500.51973 1003.90177,1444.40773 C1020.42777,1420.23473 1048.04577,1355.88373 1002.52877,1323.52673 C1121.78177,1269.05673 1259.17777,1203.62473 1386.54077,1124.25373 C1396.84377,1170.91273 1412.92177,1216.04473 1427.69777,1261.02473 L1425.36177,1263.20573 Z M741.145767,925.640729 C724.078767,909.933729 705.291767,894.771729 696.723767,871.995729 C723.087767,876.337729 749.169767,878.843729 778.283767,879.321729 C779.947767,879.321729 781.479767,877.759729 781.499767,876.020729 C782.092767,842.424729 782.044767,805.445729 779.006767,769.542729 C793.320767,776.643729 804.816767,768.538729 817.777767,761.580729 C831.353767,771.733729 845.372767,768.723729 861.964767,761.582729 C862.120767,761.535729 929.000767,736.735729 929.151767,736.712729 C944.065767,732.040729 950.466767,727.590729 954.219767,718.101729 C956.149767,718.615729 960.040767,719.634729 961.969767,720.129729 C977.983767,743.908729 1210.40077,817.738729 1231.05977,790.357729 C1252.67277,799.540729 1278.51577,792.109729 1301.39477,790.469729 C1319.27677,791.975729 1337.45877,796.000729 1355.31477,793.734729 C1358.84277,812.263729 1362.41077,830.796729 1365.98977,849.312729 C1318.00077,919.315729 1310.85877,951.022729 1324.53477,1035.12973 C1327.48877,1052.53173 1333.22077,1058.37573 1354.62177,1060.90673 C1227.45377,1130.59973 1099.57377,1197.38773 973.999767,1271.90873 C991.764767,1229.78373 1009.42377,1186.85173 1026.14277,1144.74973 C1032.07577,1131.82173 1040.01677,1112.82373 1040.64977,1095.13173 C1045.56377,1029.43473 840.726767,969.188729 760.480767,947.441729 C758.211767,938.092729 747.909767,932.580729 741.145767,925.640729 L741.145767,925.640729 Z M1394.40377,1046.06573 C1395.32577,1044.46773 1398.94877,1036.84173 1399.82877,1035.07773 C1401.87877,1038.95773 1405.89877,1046.14773 1408.46677,1049.64773 C1403.45677,1051.44573 1391.19477,1058.15873 1386.33677,1060.72573 L1394.40377,1046.06573 Z M681.052767,1380.56573 C678.892767,1389.31973 676.931767,1397.63373 675.036767,1405.62673 C627.593767,1430.38073 580.411767,1453.00873 532.810767,1477.26473 L534.316767,1480.04573 C507.379767,1495.82273 478.071767,1505.37073 451.612767,1521.75473 C430.929767,1432.45173 415.160767,1341.98873 403.440767,1250.81373 C414.361767,1250.40973 425.218767,1249.38473 436.254767,1247.13173 C447.269767,1247.40573 457.588767,1246.18773 466.356767,1243.28973 C527.574767,1288.51473 592.355767,1330.37473 658.931767,1367.80273 C666.331767,1372.73573 674.041767,1374.33773 682.402767,1375.10173 L681.052767,1380.56573 Z M673.363767,2057.68173 C665.938767,2056.94873 659.211767,2064.73873 652.059767,2067.29873 C629.864767,2078.79073 608.184767,2090.48773 586.843767,2102.39873 C579.452767,2059.39073 560.965767,2019.59273 559.702767,1975.12373 L558.990767,1976.46773 C556.305767,1971.24773 550.844767,1961.93973 547.702767,1956.92873 C552.959767,1958.15573 562.898767,1960.43873 568.081767,1961.61673 L567.499767,1962.42373 C574.216767,1961.26573 583.379767,1965.53073 589.732767,1966.35473 C612.774767,1970.71573 636.311767,1975.19073 659.679767,1978.58973 C653.669767,1987.97073 653.993767,1988.47573 665.121767,1988.49673 C658.756767,2001.27273 657.279767,2016.74073 657.888767,2030.19973 C658.069767,2032.64373 659.057767,2032.15573 660.301767,2033.11373 C662.766767,2040.13573 667.598767,2044.97473 675.811767,2048.04973 L673.363767,2057.68173 Z M470.369767,1568.84673 L468.284767,1562.32373 L470.873767,1561.44773 C470.462767,1560.42873 468.842767,1559.84573 467.575767,1560.10573 L467.339767,1559.36273 C531.198767,1532.07273 593.698767,1501.38873 656.685767,1472.31773 C619.698767,1579.19573 546.194767,1671.59173 527.737767,1784.94473 L518.003767,1785.58073 C496.322767,1712.29373 478.590767,1637.22973 461.442767,1564.63773 L464.492767,1563.60573 C464.071767,1566.80073 467.240767,1569.59473 470.369767,1568.84673 L470.369767,1568.84673 Z M516.337767,2098.14573 C509.404767,2100.50473 501.019767,2101.34773 493.298767,2100.55373 C459.720767,2094.07673 425.511767,2088.78673 392.140767,2083.55273 C411.120767,1901.29273 350.407767,1715.60073 226.634767,1581.88773 C272.661767,1539.97473 321.492767,1495.83673 373.662767,1448.95373 C422.412767,1685.76473 477.828767,1919.53473 520.676767,2096.68473 L516.337767,2098.14573 Z M309.757767,2026.34373 C309.454767,2040.86773 308.542767,2055.55773 307.218767,2070.01873 C168.924767,2048.39673 20.3037673,2025.91173 -129.034233,2008.01373 L-122.379233,2000.82873 C-114.009233,1990.52973 -128.090233,1973.61173 -136.420233,1968.88873 C-152.056233,1959.56473 -169.579233,1963.08773 -186.880233,1971.33273 L-192.613233,1963.29873 C-160.669233,1934.34873 -128.670233,1905.64573 -96.8662327,1876.54173 C-59.9112327,1892.30873 -22.5042327,1905.93273 14.7757673,1920.37773 L13.3167673,1929.35573 C21.6467673,1929.39473 30.0377673,1928.30173 38.0097673,1929.11373 C130.109767,1963.49973 227.300767,1996.58873 309.839767,2022.59373 L309.757767,2026.34373 Z M300.670767,2117.51473 C295.043767,2149.01073 286.690767,2180.08373 276.030767,2210.08773 L275.953767,2210.04673 C159.634767,2578.60373 -344.839233,2703.93673 -606.656233,2410.88973 C-900.728233,2122.63573 -757.240233,1550.31073 -345.249233,1463.63873 C-321.666233,1506.10173 -301.855233,1548.92073 -280.700233,1591.91973 C-270.527233,1616.77873 -252.164233,1638.85873 -248.001233,1666.09373 C-245.254233,1676.09673 -242.684233,1686.09673 -240.211233,1696.09573 C-239.807233,1696.28373 -239.403233,1696.46973 -238.994233,1696.64773 C-239.024233,1696.51673 -239.055233,1696.38773 -239.085233,1696.25673 L-229.978233,1692.47973 C-211.769233,1723.82073 -188.488233,1778.76073 -167.757233,1812.18073 C-140.904233,1852.65173 -142.203233,1849.70873 -122.209233,1852.02373 C-145.972233,1875.63673 -170.102233,1899.63073 -193.866233,1923.21173 C-214.944233,1943.71373 -234.855233,1969.77773 -266.572233,1975.61973 C-276.887233,1976.57173 -285.638233,1979.87773 -291.768233,1986.84073 C-293.200233,1991.16873 -295.342233,1995.23173 -297.774233,1999.11073 C-308.655233,2040.08473 -252.616233,2071.93973 -223.373233,2037.23773 C-47.3282327,2064.25673 125.447767,2084.64473 301.572767,2112.48673 L300.670767,2117.51473 Z M-76.4632327,1389.77973 C-5.9642327,1388.79373 79.3117673,1397.38073 172.595767,1392.16373 C178.151767,1390.67573 184.527767,1389.57373 188.786767,1386.47673 C213.650767,1399.13573 238.917767,1412.18973 264.482767,1424.00773 C262.513767,1435.10373 274.509767,1441.71373 278.327767,1451.41973 C247.134767,1480.80573 215.034767,1509.54473 185.432767,1540.98773 C110.702767,1473.11373 19.5697673,1424.10673 -77.7812327,1399.62773 L-76.4632327,1389.77973 Z M2456.18377,1976.46073 C2420.59677,1684.92473 2163.83377,1425.75673 1868.63477,1410.54473 L1867.14377,1400.89573 C1881.22277,1395.41273 1893.58177,1384.11573 1903.88377,1367.31173 C1810.55777,1357.95673 1714.22477,1368.97873 1628.38677,1400.61673 C1612.45277,1406.79873 1595.15877,1412.94173 1577.48677,1410.62873 C1574.92377,1405.54973 1571.81677,1400.24973 1568.39977,1394.91473 C1568.25577,1394.89173 1568.11277,1394.85673 1567.96877,1394.80673 C1562.74977,1392.95973 1557.74677,1390.42073 1555.20777,1385.23873 C1552.86177,1380.44773 1552.93877,1374.68173 1551.96377,1369.52773 C1551.78677,1368.59273 1552.00977,1367.79173 1552.45277,1367.17273 C1544.27377,1353.08273 1536.67077,1338.83173 1519.12177,1337.25273 L1524.89577,1331.08373 C1527.31677,1328.27273 1525.87077,1323.28973 1521.71777,1322.43473 C1498.25877,1237.56173 1469.57877,1156.24873 1447.29077,1070.83973 L1440.14377,1072.89973 C1439.22777,1070.57273 1433.57377,1056.47673 1432.53177,1053.86873 L1445.17777,1062.66173 L1443.66977,1056.80673 C1554.52577,1099.90873 1662.16877,1118.90273 1765.56777,1100.84473 L1765.61977,1100.54173 C1777.83577,1096.83473 1789.30377,1091.55973 1798.79377,1084.83073 C1804.78777,1085.27473 1806.38677,1081.69973 1809.30477,1071.89173 C1815.39577,1051.77573 1822.24277,1031.50373 1828.73677,1011.87473 C1865.99177,890.020729 1917.30177,772.987729 1951.07377,651.773729 C1951.95777,651.044729 1955.04677,648.097729 1954.43077,647.936729 C1821.40177,570.244729 1501.21477,593.834729 1327.60477,619.887729 C1330.61777,666.780729 1339.58877,712.692729 1348.25677,757.318729 C1285.20877,712.532729 1224.98077,659.831729 1149.28277,637.352729 L1167.09977,633.718729 C1170.01477,633.238729 1171.86777,627.593729 1168.81077,626.405729 C1168.81077,626.405729 1165.30477,625.148729 1165.30477,625.148729 C1171.82677,574.514729 1114.84577,568.562729 1082.95077,593.483729 C1075.97277,599.259729 1068.18977,619.154729 1081.11077,623.522729 L1080.53577,633.223729 C1069.91377,634.823729 1056.29377,640.821729 1044.93277,646.641729 C1047.48477,631.172729 1041.78077,609.986729 1023.75077,624.571729 C765.297767,506.214729 877.419767,384.644729 856.429767,192.747729 C855.090767,135.131729 848.159767,131.509729 793.407767,105.693729 C761.816767,86.3917288 727.853767,72.8757288 695.139767,55.9037288 L697.464767,53.5797288 C694.444767,47.5417288 687.908767,34.4757288 684.308767,27.2787288 L682.968767,27.6747288 C677.986767,15.6367288 674.150767,3.4347288 671.890767,-9.2372712 C670.576767,-23.9582712 663.695767,-32.8822712 647.304767,-35.6952712 C606.084767,-44.3792712 564.856767,-37.7302712 548.337767,5.8407288 L548.131767,5.8757288 C544.123767,17.3877288 536.389767,29.1427288 526.756767,34.7537288 L532.718767,40.0867288 C532.470767,40.5457288 532.221767,41.0037288 531.968767,41.4597288 L522.611767,38.6667288 C522.634767,38.1607288 522.690767,37.4557288 522.733767,36.9427288 C517.477767,39.3357288 511.247767,41.1337288 504.874767,41.1277288 C305.276767,7.2177288 245.508767,163.473729 275.178767,335.801729 C263.421767,380.272729 253.034767,424.817729 242.310767,469.079729 C211.019767,616.824729 117.062767,708.652729 85.0617673,851.470729 C76.6217673,886.179729 41.5877673,950.009729 72.3457673,972.269729 C67.0727673,1013.06073 84.1837673,1056.88373 114.702767,1087.55673 C68.5937673,1088.85073 4.3417673,1164.09773 58.7227673,1201.11873 C78.5087673,1209.79773 102.274767,1208.79573 123.858767,1212.54073 L122.194767,1218.08673 C123.079767,1223.00873 131.354767,1222.69173 135.345767,1222.20573 C135.335767,1234.01473 133.835767,1246.90173 138.655767,1257.36073 C139.186767,1263.32573 141.632767,1265.27373 142.848767,1264.86473 C150.811767,1265.12273 158.890767,1264.13473 166.936767,1264.60273 C179.115767,1284.23773 197.341767,1296.63673 216.188767,1286.60973 C227.655767,1280.63473 227.458767,1264.67273 238.310767,1256.58373 C266.716767,1238.73673 298.990767,1241.67073 329.014767,1242.14773 C341.455767,1283.93073 347.063767,1326.33873 356.849767,1368.51573 C344.019767,1384.63873 329.337767,1400.99773 312.491767,1418.12773 L310.292767,1417.61373 L308.063767,1418.30373 C295.260767,1406.84273 281.045767,1387.28573 262.876767,1394.40973 C111.189767,1257.00473 -132.884233,1278.13173 -320.425233,1279.47773 C-405.252233,1280.48173 -492.841233,1281.40773 -578.863233,1285.32573 C-603.403233,1285.89373 -619.234233,1287.71073 -620.079233,1306.17873 C-636.301233,1306.88573 -648.347233,1310.87573 -663.606233,1312.05973 C-673.137233,1312.56373 -678.103233,1313.32873 -678.429233,1316.04473 C-676.585233,1342.40473 -675.548233,1369.98373 -666.364233,1394.60473 C-656.750233,1418.96873 -627.424233,1418.94873 -605.034233,1409.95373 C-596.634233,1406.34973 -603.876233,1395.93573 -604.122233,1389.56473 C-609.229233,1368.69573 -612.418233,1347.34273 -613.380233,1325.40173 C-602.795233,1326.23073 -593.534233,1326.72673 -581.339233,1326.88973 L-581.132233,1332.54473 C-559.685233,1333.38173 -468.530233,1334.98973 -446.301233,1331.88473 C-455.419233,1342.91773 -458.950233,1354.24473 -450.195233,1366.66973 C-427.069233,1392.45173 -384.431233,1380.71573 -354.062233,1384.60173 L-353.592233,1394.46973 C-831.938233,1483.57573 -1014.06123,2133.08373 -667.104233,2467.46873 C-327.817233,2836.38773 320.881767,2616.71073 386.457767,2125.74373 C414.687767,2130.48873 443.057767,2134.23973 471.214767,2140.22473 C454.586767,2155.37173 430.711767,2163.03673 414.394767,2177.53373 C386.088767,2205.11873 377.698767,2223.23673 390.673767,2237.46273 L390.914767,2237.26173 C401.307767,2243.05073 413.989767,2242.56073 425.582767,2238.62273 C432.927767,2239.62273 440.551767,2240.77773 447.853767,2240.77873 C459.727767,2240.53273 470.950767,2237.55373 474.087767,2228.16373 C474.433767,2224.59373 467.604767,2218.51573 464.277767,2215.53773 C482.583767,2202.74773 500.989767,2188.05373 521.996767,2174.19573 C527.141767,2171.62573 529.564767,2169.08073 531.363767,2164.55973 C621.696767,2196.90373 716.271767,2127.75573 773.862767,2076.42173 C773.793767,2076.71573 773.729767,2077.02173 773.660767,2077.31773 C780.655767,2070.42773 788.008767,2063.72173 795.983767,2062.53573 C798.303767,2060.18773 800.895767,2057.97173 803.812767,2055.91473 L846.386767,2057.42573 C857.861767,2057.83373 873.151767,2060.34573 883.572767,2056.47473 C907.708767,2044.85473 897.386767,2009.23173 885.114767,1992.81773 C904.453767,1991.66473 924.086767,1991.98873 943.297767,1989.39673 C992.530767,1983.62873 978.535767,1934.31173 939.063767,1923.15273 C928.122767,1909.03973 879.521767,1894.07873 878.188767,1876.34673 C1061.46777,1681.48373 1259.50377,1495.78373 1443.04977,1311.65673 C1449.08777,1331.49773 1450.35277,1352.67473 1450.54277,1372.72173 C1450.57277,1420.93573 1463.36277,1468.67373 1474.97777,1514.72273 C1050.79477,1782.87773 1106.89777,2483.88773 1573.43977,2674.47773 C2030.53577,2884.03073 2527.07477,2454.93873 2456.18377,1976.46073 L2456.18377,1976.46073 Z" id="ðŸŽ¨-Background" fill="#FFFFFF"></path>
        <path d="M1864.9285,1401.2288 C1882.4065,1394.4218 1895.1305,1380.4288 1904.4685,1365.0208 C1906.5585,1361.7828 1903.7385,1358.3488 1900.3885,1358.0138 C1814.9485,1349.5298 1726.3485,1357.5908 1644.6385,1384.1438 C1622.3115,1389.8818 1600.5975,1403.6848 1576.6155,1401.5618 C1573.1625,1394.9838 1569.1985,1388.6398 1565.0285,1382.5098 C1649.8565,1304.7618 1745.5215,1217.6998 1765.9985,1100.0478 C1776.7155,1096.5948 1787.0525,1091.8358 1796.3285,1085.4918 C1806.4895,1085.4128 1808.4825,1073.9578 1810.9085,1066.1438 C1817.5945,1044.6098 1824.7695,1023.2248 1831.8785,1001.8258 C1865.0645,900.8608 1901.1305,800.8808 1937.0385,700.8318 C1942.6575,684.1438 1948.9455,667.3628 1951.6985,650.0188 C1966.2975,637.2448 1933.6325,629.6808 1925.3095,625.3738 C1859.3045,598.5718 1787.8465,589.1038 1716.8485,588.2118 C1585.1505,586.4498 1451.8035,587.3298 1321.9185,610.7788 C1320.0535,603.4018 1317.1875,604.5208 1318.3285,611.6548 C1317.6485,611.9498 1317.7685,612.9438 1318.4185,613.1708 C1320.9485,656.2778 1328.6885,699.0898 1336.9285,741.6168 C1281.9555,702.2498 1229.0055,656.9338 1164.0685,634.2908 C1171.9605,632.6818 1174.3835,620.2118 1166.4685,617.3728 C1169.3705,563.8638 1110.2185,559.0678 1075.7875,585.2588 C1065.2545,594.1368 1058.6195,618.7788 1075.6185,623.9768 C1065.1385,625.8668 1055.7285,629.5278 1046.3585,634.0948 C1047.2565,617.6368 1035.8105,602.8748 1019.2385,614.4798 C771.6265,496.6858 876.2565,400.0728 857.3815,187.9788 C855.9435,127.7338 847.0885,123.1478 791.5165,96.8478 C762.1455,78.7988 730.2245,65.8338 699.5185,50.2398 C699.5185,50.2398 682.2475,15.7098 682.2475,15.7098 C686.3035,29.7798 683.6785,46.1778 693.5085,58.2298 C693.1785,74.4118 689.4495,82.2878 675.1675,91.1858 C628.4535,125.1008 517.7845,102.2568 523.6185,33.8678 C535.3395,26.2198 539.6205,11.4888 542.4075,-1.4642 C542.7385,-2.7242 540.7485,-3.6792 540.1785,-2.3902 C533.9625,16.3128 522.6785,30.4298 501.5375,31.8488 C334.6515,8.5088 264.3765,95.0028 260.0005,239.0748 C258.1085,279.7378 260.6885,290.8198 266.0585,331.1518 C254.4485,375.1348 244.1085,419.4628 233.3985,463.6728 C212.8805,556.3348 184.7485,597.1098 140.9255,681.8458 C115.0485,734.8018 88.7315,788.1618 76.1695,845.9708 C68.4585,877.9178 32.4175,945.4018 63.0665,970.1328 C59.0095,1009.8718 74.0095,1050.1258 100.8085,1079.7738 C50.8605,1087.9248 -2.7885,1167.4008 52.3575,1201.2258 C71.4445,1209.7458 92.9615,1209.3378 113.3745,1212.3238 C111.4335,1218.7978 120.4725,1223.5448 126.2285,1223.1968 C126.0585,1233.6308 125.4665,1244.4998 129.7725,1254.4108 C130.5705,1259.9718 132.4665,1265.1938 138.6205,1265.5348 C145.8005,1265.8188 152.8935,1264.9558 160.1215,1265.1898 C171.6235,1283.0698 192.5095,1298.4428 214.2895,1286.8068 C227.3325,1280.6628 226.9835,1264.5608 237.4185,1256.1498 C261.1005,1240.8048 293.7945,1241.9368 321.1985,1242.7158 C332.6225,1282.1058 338.2475,1322.9828 347.4055,1362.9458 C334.6775,1378.7968 321.0295,1393.7888 306.8555,1408.2908 C306.3575,1408.1748 305.8385,1408.1838 305.3255,1408.3428 C293.2745,1397.0948 278.9325,1379.1418 260.0885,1384.5278 C118.7975,1260.9438 -82.2285,1266.7178 -259.8915,1269.3578 C-363.3265,1270.7658 -466.8155,1271.1688 -570.1715,1275.3908 C-589.4565,1277.3598 -624.7105,1272.1228 -628.4715,1297.2208 C-637.9215,1298.0608 -647.2275,1299.2898 -656.5915,1301.2658 C-665.1075,1304.4158 -687.0265,1299.9448 -687.4715,1311.7258 C-685.5855,1338.5878 -684.5655,1366.6918 -675.0335,1392.1458 C-662.9085,1420.2928 -632.8355,1419.8638 -607.6715,1410.4298 C-601.9415,1408.7688 -599.1115,1403.2368 -600.2915,1397.6368 C-603.4315,1382.6968 -607.3115,1368.0718 -609.4415,1352.9158 C-610.6815,1344.1458 -611.5315,1335.3178 -612.0715,1326.4798 C-603.2215,1327.1298 -594.3415,1327.4348 -585.4415,1327.5628 C-671.9005,1335.1638 -472.4045,1334.8618 -460.5115,1333.6358 C-466.8515,1342.9558 -464.7515,1356.4488 -458.1615,1365.4348 C-435.2205,1392.6728 -390.6045,1381.7748 -358.6315,1385.2468 C-849.6425,1486.4668 -1021.7445,2120.9998 -674.6715,2466.6838 C-316.9615,2837.9908 306.1705,2622.7428 386.5585,2127.1758 C409.5125,2131.0088 432.6395,2134.0828 455.4495,2138.6478 C440.3985,2150.2798 420.5695,2156.6678 406.9085,2169.5948 C391.5905,2184.2488 363.9385,2213.2798 381.1985,2234.3768 C374.9705,2240.1648 363.5295,2253.8728 374.1015,2260.3138 C374.6545,2260.5168 375.2255,2260.1178 375.5095,2259.6778 C458.3375,2282.1918 546.6925,2286.7828 632.1385,2280.7888 C709.7525,2280.7728 761.4885,2231.4298 771.4655,2156.7478 C779.8545,2123.5258 770.6835,2079.8178 801.3785,2056.6488 C814.9785,2057.1318 828.5785,2057.6138 842.1785,2058.0958 C854.5885,2058.5388 869.4285,2061.1768 881.3885,2056.7968 C905.6935,2046.3988 901.3115,2011.6498 889.8085,1993.0808 C906.5235,1992.2818 923.3805,1992.3228 939.9785,1990.0198 C994.8885,1982.1308 981.5575,1929.0918 938.0485,1914.5618 C928.9405,1902.8818 882.7235,1886.0398 879.1525,1872.2498 C879.2655,1869.7758 882.5375,1867.3998 884.2305,1865.6788 L890.3855,1859.4208 C1070.9145,1677.1988 1253.6325,1497.0638 1436.3585,1316.9728 C1443.1035,1342.9278 1440.3915,1369.8108 1442.7385,1396.2398 C1446.4185,1434.0238 1455.8815,1471.4278 1465.2285,1508.1908 C1039.8815,1790.4878 1094.3065,2471.7818 1567.4285,2674.7478 C2116.7055,2910.4948 2631.6065,2325.9838 2410.9685,1805.2288 C2322.8815,1584.0738 2106.6655,1416.9278 1864.9285,1401.2288 Z M2372.9385,2306.2688 C2219.9305,2702.2518 1688.7105,2820.3788 1392.6265,2504.4548 C1128.6415,2242.3018 1167.8105,1761.7958 1476.5885,1549.6848 C1479.2185,1558.7488 1481.9485,1567.7928 1484.7785,1576.8088 C1120.1475,1835.4928 1177.5685,2435.9668 1593.3685,2612.2518 C2086.4765,2823.7508 2547.8635,2298.6658 2349.8805,1831.5008 C2236.0815,1533.1538 1864.9535,1375.1778 1573.1585,1523.6228 C1570.5095,1514.8508 1567.9675,1506.0538 1565.4185,1497.2468 C2083.5365,1254.4148 2583.3555,1809.6878 2372.9385,2306.2688 M1880.8385,2070.3488 C1889.1985,2077.3168 1897.5985,2084.2268 1906.0385,2091.0958 C1896.0585,2090.1508 1886.0785,2089.2068 1876.0885,2088.3008 C1878.6725,2082.5888 1880.2265,2076.5288 1880.8385,2070.3488 Z M1860.5385,2081.5488 C1860.9585,2080.8898 1861.3585,2080.2208 1861.7385,2079.5408 C1861.3985,2080.3388 1861.0385,2081.1158 1860.6485,2081.8938 C1860.6085,2081.7758 1860.5785,2081.6668 1860.5385,2081.5488 M1857.0185,2086.6278 C1857.8085,2085.6238 1858.5485,2084.5898 1859.2485,2083.5468 C1859.2985,2083.7438 1859.3485,2083.9308 1859.3985,2084.1278 C1858.8685,2085.0138 1858.2785,2085.8698 1857.6385,2086.6868 C1857.4285,2086.6668 1857.2185,2086.6468 1857.0185,2086.6278 M1826.5785,2074.0888 C1826.4885,2074.0888 1826.4285,2073.7938 1826.4785,2072.8888 C1826.7085,2072.9668 1826.8285,2072.9968 1826.8085,2072.9968 C1827.0185,2073.0358 1826.7385,2074.0888 1826.5785,2074.0888 M1826.8585,2055.5178 C1824.2885,2044.6718 1813.1885,2037.2708 1809.9585,2028.4918 C1809.7905,2028.1358 1810.3655,2027.1258 1810.5385,2026.9268 C1827.6395,2020.9308 1850.8995,2034.4348 1849.5285,2053.5298 C1838.8435,2048.9308 1833.9315,2061.5108 1827.0685,2066.9238 C1827.4685,2063.0858 1827.7785,2059.4438 1826.8585,2055.5178 M1803.3585,2086.1548 C1803.0885,2086.8838 1802.9585,2087.6708 1802.9585,2088.4378 C1799.4965,2089.4988 1794.7475,2090.8918 1793.2685,2094.0388 C1791.9255,2093.6738 1790.5505,2093.3038 1789.2285,2092.8868 C1794.4685,2091.8138 1799.3385,2089.6288 1803.3585,2086.1548 M1783.6985,2023.7578 C1783.6425,2019.6948 1790.3605,2019.1178 1793.4685,2017.5378 C1791.8715,2020.3058 1790.6765,2024.0838 1790.6185,2027.3798 C1788.2385,2026.3658 1785.7785,2025.5488 1783.2885,2024.9778 C1783.8615,2024.9188 1784.8615,2023.5758 1783.6985,2023.7578 M1769.8885,2054.5138 C1766.6345,2049.2228 1762.8085,2044.3268 1760.0785,2038.6088 C1760.3685,2038.3328 1760.6685,2038.0578 1760.9685,2037.8018 C1806.7425,2031.9228 1811.4375,2077.5568 1783.5585,2081.1748 C1783.0895,2073.7518 1782.2435,2073.8498 1782.8185,2081.2248 C1772.1375,2081.4068 1760.5325,2077.7348 1755.1285,2068.4108 C1755.6815,2068.1858 1755.2875,2067.4458 1754.8085,2067.8398 C1754.1885,2066.6878 1753.6685,2065.4478 1753.2585,2064.1488 C1760.3375,2074.0968 1776.0135,2064.9658 1769.8885,2054.5138 M1411.8885,1669.0758 C1435.9635,1642.5268 1462.8415,1617.9828 1491.1685,1596.7088 C1544.0765,1754.1218 1622.0385,1904.4598 1727.8385,2033.9348 C1723.9035,2031.9088 1720.0205,2029.8048 1716.1485,2027.6748 C1707.0885,2015.5198 1696.7385,2004.1718 1686.9685,1992.5688 C1595.5975,1884.5318 1505.3835,1775.1808 1411.8885,1669.0758 M1280.4185,2214.3848 C1264.5125,2154.0418 1258.3615,2089.7908 1262.1985,2026.7298 C1410.5275,2051.4218 1563.1045,2037.4758 1710.4685,2068.6268 C1567.1295,2117.1318 1422.6275,2162.7808 1280.4185,2214.3848 M1325.2885,2201.4528 C1444.0265,2163.5918 1562.2355,2124.1258 1680.5585,2085.0428 C1694.2785,2080.4958 1708.3085,2076.5098 1721.6385,2070.9298 C1725.9185,2071.7668 1730.2085,2072.5338 1734.5185,2073.1838 C1738.9185,2073.8428 1740.7685,2067.9678 1736.3885,2066.5108 C1581.5605,2027.9298 1419.5785,2045.8798 1262.2485,2025.9328 C1269.9255,1894.9788 1322.9165,1766.7168 1411.5085,1669.4898 C1505.1225,1786.8808 1602.4265,1901.7368 1697.9785,2017.7248 C1574.4015,1950.3358 1445.6285,1892.0908 1312.4685,1845.5408 C1455.3815,1902.1508 1602.6255,1971.1848 1739.1785,2047.7328 C1740.1575,2048.9268 1741.1435,2050.1428 1742.1285,2051.3838 C1740.0085,2058.7948 1740.9085,2066.0288 1743.9185,2072.3368 C1619.5175,2151.2568 1488.5775,2224.0138 1366.1465,2306.0798 C1364.7585,2307.8238 1365.9985,2310.3828 1368.3785,2309.8608 C1493.5125,2237.7518 1615.0425,2157.6308 1737.3385,2080.3978 C1717.9485,2104.4318 1699.6885,2129.3998 1682.2185,2154.8908 C1658.8085,2173.2168 1635.3885,2191.5618 1611.9685,2209.8968 C1534.5965,2270.6248 1457.2885,2331.4628 1380.4885,2392.8968 C1476.9285,2322.3808 1574.8405,2244.6838 1671.2485,2171.1298 C1600.0625,2277.6118 1539.6145,2390.9538 1491.9185,2509.4748 C1489.7485,2514.7888 1498.4085,2516.9938 1500.5885,2511.8268 C1552.9745,2388.1478 1616.8975,2269.2788 1690.6885,2156.6918 C1713.7265,2135.9538 1744.3205,2119.7178 1764.3405,2097.0618 C1763.8885,2095.0128 1761.4785,2093.2018 1759.4385,2094.6978 C1740.0185,2108.9098 1721.2085,2124.0168 1702.3485,2139.0058 C1716.5585,2117.6398 1731.0885,2096.4888 1745.4685,2075.2208 C1749.9765,2082.6858 1757.6625,2088.6068 1766.4685,2091.3318 C1764.0285,2101.9048 1774.6495,2108.4548 1784.2385,2111.4288 C1793.7535,2284.7148 1803.8385,2458.2068 1818.3365,2631.1098 C1819.1885,2635.2138 1825.1785,2633.9738 1825.4285,2630.1648 C1815.1365,2457.4098 1801.8035,2284.5558 1786.4985,2112.1078 C1811.6835,2117.7128 1842.6685,2120.0428 1864.4685,2104.1558 C1908.9355,2270.8008 1941.3325,2440.1628 1965.8955,2610.6588 C1966.3685,2613.2568 1970.7685,2612.6758 1970.5885,2610.0388 C1953.0375,2438.0328 1917.3625,2267.3348 1867.0785,2101.7348 C1870.1285,2098.6248 1872.6685,2095.0328 1874.7085,2091.1748 C1887.2885,2093.1138 1899.9185,2094.8458 1912.5685,2096.4008 C2026.6905,2186.8838 2143.7305,2275.0788 2266.1065,2354.2898 C2268.4185,2355.4388 2271.1085,2352.4768 2269.0085,2350.5868 C2152.1715,2266.5398 2033.3465,2184.7728 1919.0485,2097.1878 C2069.8285,2113.8508 2221.9365,2117.9298 2373.3785,2110.1688 C2313.6365,2746.8898 1457.5885,2836.2998 1280.5885,2215.0048 C1295.6885,2211.5108 1310.5485,2206.1768 1325.2885,2201.4528 M1878.1185,2002.1648 C2009.4415,1911.2138 2133.6465,1809.0248 2253.2085,1703.4048 C2289.4155,1750.0058 2318.5005,1802.7828 2339.0585,1858.7188 C2183.0625,1899.8058 2029.2255,1949.4008 1879.1785,2008.1378 C1875.3685,2009.8608 1878.0585,2016.0708 1882.0285,2014.8018 C2032.4535,1957.6228 2185.0335,1905.7148 2339.3085,1859.4078 C2367.7415,1936.6778 2379.4555,2020.8558 2373.8185,2103.8998 C2238.1335,2110.1558 2101.9815,2108.2548 1966.6185,2096.6658 C1948.2485,2095.1218 1929.9085,2093.3698 1911.5585,2091.6268 C1901.3685,2084.0488 1891.1685,2076.4998 1880.9585,2068.9718 C1882.5435,2048.3498 1873.5015,2026.6278 1856.5685,2014.0238 C1858.0035,2008.5518 1857.7255,2002.5208 1858.3385,1996.8798 C1861.7185,1990.1378 1864.8385,1983.2588 1868.1485,1976.6838 C1936.3225,1839.0038 2015.9725,1707.3918 2095.7495,1576.0218 C2004.9945,1694.8448 1929.3145,1831.7368 1860.7085,1966.1238 C1872.3065,1808.6308 1893.2005,1652.0808 1913.9285,1495.5638 C2047.7735,1519.1238 2169.7535,1595.4448 2252.4985,1702.4788 C2135.3825,1798.2008 2017.0285,1892.5378 1894.7785,1981.8708 C1891.6725,1984.5788 1864.3195,2002.1938 1878.1185,2002.1648 M1668.9385,1568.7678 C1661.3455,1550.7618 1653.2825,1533.1188 1644.4185,1515.6608 C1664.6285,1508.7908 1685.1585,1503.1618 1705.9685,1498.7628 C1724.1115,1651.4268 1749.2425,1803.6248 1780.5155,1954.1568 C1781.2685,1956.6358 1785.5885,1956.3108 1785.3085,1953.5168 C1756.8925,1802.2678 1730.9575,1650.5138 1708.3185,1498.2698 C1747.7475,1490.0878 1788.5265,1486.3978 1829.3285,1487.2178 C1812.0645,1653.1428 1803.7385,1820.5128 1806.3245,1987.2838 C1806.4885,1990.1278 1810.6785,1990.1378 1810.8285,1987.2838 C1812.5715,1820.4608 1818.4335,1653.7088 1830.6885,1487.2568 C1843.2485,1487.5328 1855.7385,1488.2508 1868.1585,1489.3828 C1864.6345,1499.1588 1854.6425,1525.6638 1873.5175,1524.5488 C1875.2585,1524.2628 1876.1885,1522.4518 1876.3285,1520.9158 C1877.0745,1510.8048 1879.7105,1500.5848 1881.9685,1490.8298 C1891.7785,1491.9808 1901.5285,1493.3988 1911.2285,1495.0818 C1880.8755,1648.3348 1865.2655,1804.1818 1852.0665,1959.6378 C1850.8535,1979.1648 1851.4165,1988.1878 1841.6685,2006.0228 C1829.1285,2001.3838 1814.5345,2001.1968 1801.8985,2005.8458 C1712.0665,1859.4828 1627.3115,1708.2688 1579.0185,1542.7458 C1597.7165,1533.5338 1617.1685,1525.3128 1636.7785,1518.3278 C1641.5735,1537.1608 1647.4595,1555.5658 1654.2185,1573.7868 C1656.9685,1581.2868 1660.2685,1589.1498 1665.8385,1595.0748 C1682.0015,1602.6988 1672.0955,1575.0418 1668.9385,1568.7678 M1464.5785,1418.5608 C1459.5175,1391.9548 1460.8435,1364.8678 1458.1085,1338.0838 C1472.3315,1336.4428 1486.6015,1333.4338 1501.0185,1333.2128 C1507.8055,1332.9548 1514.8525,1333.8528 1521.4685,1332.1888 C1537.8685,1343.6778 1543.3745,1363.4788 1552.5785,1380.1878 C1560.3425,1394.1508 1565.3855,1409.4388 1569.6785,1424.7318 C1571.5985,1431.5618 1575.2485,1440.7638 1584.4985,1438.0278 C1590.0385,1436.3938 1594.2885,1428.8848 1589.0885,1424.4658 C1585.1935,1421.5788 1584.4585,1415.7438 1581.8385,1411.6618 C1609.1845,1404.1328 1636.1015,1395.2848 1662.9385,1386.1858 C1737.0595,1366.2738 1814.8445,1359.5758 1891.3585,1366.4478 C1880.3215,1378.3138 1862.8365,1380.8018 1849.0685,1388.8848 C1845.7775,1389.7568 1842.9365,1390.0878 1839.6185,1391.6928 C1835.9775,1395.1888 1831.5305,1397.3608 1826.8125,1399.5758 C1732.2725,1398.2498 1639.6805,1417.9948 1554.2685,1457.7708 C1544.2885,1421.6118 1534.9885,1385.2558 1526.9785,1348.6738 C1526.6685,1347.2268 1524.4085,1347.5818 1524.4085,1349.0188 C1533.4095,1544.1868 1668.6265,1857.3948 1791.9385,2010.7468 C1788.5635,2013.6038 1777.6265,2019.1748 1781.0385,2024.4958 C1772.9285,2022.6678 1751.3405,2021.7848 1754.2385,2034.6128 C1754.1985,2034.6128 1754.1685,2034.6128 1754.1385,2034.6228 C1608.9805,1856.2618 1506.0355,1643.8368 1464.5785,1418.5608 M1452.0985,1305.8908 C1443.4105,1274.6638 1431.8855,1244.2388 1426.9995,1212.0778 C1418.1675,1161.6908 1403.3005,1112.6938 1388.3245,1063.9028 C1389.1885,1063.7028 1389.9045,1063.1088 1390.0995,1061.9858 C1391.4165,1054.4278 1397.6155,1050.9818 1405.0095,1049.4918 C1417.7795,1046.1368 1425.5425,1050.5838 1436.3945,1056.3208 C1436.3345,1056.8518 1436.3075,1057.3818 1436.3465,1057.9038 C1457.6235,1142.9968 1486.9885,1228.0748 1509.9385,1313.4398 C1491.4065,1315.0048 1472.5885,1319.6708 1457.0485,1330.0138 C1455.8385,1321.9428 1454.2085,1313.9028 1452.0985,1305.8908 M1214.5485,1520.4538 C1108.2425,1626.5408 1003.9985,1734.6508 896.6535,1839.5888 C889.2015,1849.1978 871.3685,1860.1848 869.6225,1871.6138 C863.9355,1868.1758 858.2515,1864.7378 852.5655,1861.2998 C856.0815,1859.2478 853.6895,1854.8888 850.2445,1854.0298 C862.2415,1853.5358 839.2795,1850.7838 836.5285,1850.8258 C836.9685,1850.4228 837.3785,1849.9698 837.7585,1849.4778 C1009.9355,1634.3058 1231.9465,1460.9618 1418.8385,1258.2068 C1423.5875,1273.6048 1428.5635,1288.8748 1433.1085,1304.3158 C1359.7685,1375.8668 1286.8785,1447.8998 1214.5485,1520.4538 M930.2785,1919.6998 C930.7155,1922.4528 933.5355,1923.7798 935.6795,1925.3548 C926.6115,1928.7648 917.1595,1928.9158 907.5085,1928.4388 C886.9965,1927.6348 866.4945,1926.7298 845.9885,1925.7228 C735.9135,1921.1788 626.2425,1909.6778 516.3785,1902.7228 C515.6665,1877.1718 515.4235,1851.2068 523.1085,1826.4088 C523.6485,1826.5758 524.1985,1826.7038 524.7485,1826.7828 C530.5095,1849.1198 562.7725,1874.3888 587.4975,1871.0518 C616.6205,1865.2998 633.7565,1837.3288 658.0895,1822.5518 C670.4425,1813.9388 683.9425,1806.3258 698.8785,1803.2008 C702.7485,1804.3668 706.9185,1804.5368 710.3485,1802.1388 C735.5495,1799.8638 758.7235,1815.7298 779.4585,1828.2288 C766.7615,1831.0358 742.2415,1836.0468 736.6775,1848.5408 C734.5985,1857.1438 744.6185,1858.8178 750.8185,1858.5128 C754.7985,1858.3158 755.8085,1852.6568 751.7785,1851.5348 C751.2995,1851.4088 750.4235,1851.0028 749.5295,1850.6228 C749.7295,1850.2948 749.9725,1849.9698 750.2535,1849.6478 C754.7095,1850.6158 759.9225,1847.0688 764.0375,1845.5788 C773.6965,1842.0598 783.5665,1839.0618 793.6135,1836.8248 C801.8415,1841.8158 810.0675,1846.8088 818.2985,1851.8008 C807.6985,1854.2108 788.1375,1860.8518 787.7175,1873.6288 C787.9125,1879.0898 794.3155,1880.1208 797.0485,1877.1528 C798.3985,1876.4938 798.9185,1874.9488 798.6885,1873.5408 C807.0265,1861.3138 824.2515,1866.0338 837.1455,1863.2368 C868.1835,1882.0708 899.2255,1900.8878 930.2785,1919.6998 M515.7355,1907.4808 C515.8735,1906.7398 515.9995,1905.9988 516.0985,1905.2618 C518.5795,1906.0948 521.3605,1906.5658 524.1765,1906.9108 C521.3355,1906.8908 518.4955,1906.9848 515.7355,1907.4808 M942.7845,1930.1138 C974.1475,1948.6778 971.2305,1976.1538 932.7775,1977.5888 C886.4715,1981.4968 839.4655,1981.0078 793.0785,1979.2238 C703.2955,1975.5288 614.1595,1962.2308 526.9585,1940.7318 C513.4875,1939.0008 510.6055,1929.2268 510.691569,1917.2758 C514.1645,1912.0608 522.5495,1912.8388 528.9125,1912.8708 C644.6175,1915.2828 759.8055,1932.7868 875.7485,1935.4228 C885.4155,1934.4918 922.9645,1941.4248 925.6155,1933.1938 C930.8715,1932.7108 937.8075,1933.1128 942.7845,1930.1138 M866.4885,2021.7988 C866.4485,2024.8988 866.4585,2027.9898 866.4685,2031.0898 C852.8285,2031.6708 839.2085,2031.7988 825.5985,2031.5028 C826.5765,2028.1708 825.9125,2024.4278 823.9785,2021.3858 C824.5125,2017.6888 823.0135,2013.8738 820.3485,2011.4258 C820.4485,2009.5458 820.0385,2007.6168 819.2185,2005.8548 C835.1975,2007.0348 851.1485,2008.6348 867.0885,2010.2648 C867.1485,2014.0928 866.5385,2018.6598 866.4885,2021.7988 M768.2485,2066.2548 C700.6435,2123.9398 608.6975,2190.8278 516.0875,2148.9248 C500.9985,2142.1158 486.3585,2134.6948 470.1985,2130.5418 C240.1535,2091.2758 8.5405,2057.4598 -224.0815,2036.6898 C-210.0495,2023.6998 -212.2265,2003.9768 -209.3015,1986.8798 C-209.2815,1986.8708 -209.2615,1986.8608 -209.2415,1986.8408 C-210.1435,1993.1358 -205.1615,1997.5448 -199.2515,1998.1198 C-32.8545,2015.0678 132.4135,2043.6748 297.8785,2068.2728 C297.8585,2068.5478 297.8285,2068.8328 297.7985,2069.1088 C337.9115,2073.4338 377.6095,2081.6168 417.5085,2087.6998 C442.9785,2091.9228 468.3985,2096.7158 493.9485,2100.3768 C495.7695,2100.6398 497.2345,2099.8628 498.1515,2098.7098 C503.0085,2098.9248 507.7805,2098.5608 512.4795,2097.4028 C527.7775,2150.9378 594.4435,2162.7008 586.8545,2093.3208 C608.2155,2085.6148 629.4675,2077.5948 650.5885,2069.2668 C658.4285,2065.5288 683.9295,2061.6028 672.0885,2049.1298 C706.3625,2056.6468 740.3845,2053.0708 774.9185,2055.7048 C772.2985,2058.9618 770.0985,2062.5048 768.2485,2066.2548 M755.5285,2130.5418 C749.1855,2198.3228 722.2695,2258.8008 644.7155,2262.5378 C555.5115,2270.9948 465.6035,2264.3888 376.4785,2257.8958 C376.7795,2257.0788 376.5745,2256.4428 375.7245,2257.2188 C375.8795,2249.5838 381.9435,2243.5518 387.6395,2238.8118 C398.3385,2243.8298 411.0455,2242.8648 421.9885,2239.4028 C439.2095,2241.7638 459.2375,2244.8418 471.9885,2230.9988 C478.3055,2224.3278 473.8025,2216.9978 468.1085,2211.6978 C484.0065,2200.2058 499.8945,2188.6648 515.7485,2177.1138 C520.3885,2173.7478 527.2485,2171.4548 529.8785,2166.2678 C616.0575,2193.2148 698.9335,2138.9888 761.5685,2085.6928 C758.1485,2100.5338 757.3185,2116.5078 755.5285,2130.5418 M386.1685,2218.4008 C389.8845,2199.8718 403.4845,2184.0918 416.9855,2171.3008 C434.3535,2164.1878 449.3665,2153.1358 465.2225,2143.4288 C476.6045,2139.5498 504.0595,2157.2468 516.6885,2161.3178 C487.5325,2185.5708 455.1555,2205.7498 420.9405,2222.4078 C416.7245,2224.5058 412.3415,2226.6468 407.7625,2227.9968 C405.6685,2226.8908 402.1505,2227.5458 400.8725,2229.3068 C393.3275,2229.9848 385.0755,2227.6378 386.1685,2218.4008 M308.2885,2247.2568 C158.6795,2629.6858 -357.2905,2741.4828 -644.4035,2438.0318 C-964.3125,2119.4958 -813.9565,1533.6268 -364.0715,1428.8748 C-363.1115,1434.9478 -361.5415,1440.8728 -359.5215,1446.6888 C-784.4455,1549.8498 -919.9405,2115.0478 -621.6425,2416.5978 C-302.5335,2752.0138 237.9555,2555.1388 311.4785,2115.3558 C322.6885,2117.0878 333.8885,2118.8308 345.0885,2120.5918 C337.4785,2163.9748 325.1985,2206.3248 308.2885,2247.2568 M-230.8615,1413.2958 C-89.3195,1412.7848 48.7865,1466.7268 153.2555,1560.6388 C152.0355,1562.6398 149.7975,1564.5358 149.4265,1566.8458 C145.4585,1570.7828 141.4875,1574.7208 137.5285,1578.6588 C9.5145,1455.9458 -180.4885,1402.8538 -353.8615,1445.3018 C-356.4015,1439.6818 -358.5415,1433.9148 -360.0815,1427.9308 C-317.9815,1418.1968 -274.7915,1413.2958 -230.8615,1413.2958 M-364.7915,1372.8648 C-391.3965,1370.1338 -439.9265,1380.3248 -455.8525,1355.2008 C-459.9715,1348.6348 -461.2015,1340.3768 -457.7015,1333.5858 C-294.9585,1332.9608 -131.7445,1323.0748 30.8485,1329.8218 C80.5175,1332.5438 125.9105,1356.0238 167.9265,1380.5058 C167.3335,1380.9438 166.8455,1381.4568 166.4665,1382.0228 C33.8785,1379.3248 -98.4685,1379.2128 -230.8615,1371.9578 C-275.6705,1373.6528 -320.0085,1374.4738 -364.7915,1372.8648 M-528.7915,1314.4928 C-556.7185,1315.2018 -584.6795,1316.7818 -612.4315,1319.7688 C-612.5445,1310.6028 -611.3415,1296.4528 -624.2115,1296.7188 C-619.1975,1279.6878 -567.9125,1287.8158 -552.2725,1285.3788 C-457.4805,1283.5208 -362.6565,1282.2408 -267.8515,1281.5228 C-87.4635,1276.1568 110.9345,1277.1458 256.3885,1393.9858 C256.9385,1394.2908 257.6085,1394.3308 258.2485,1393.8878 C270.8785,1386.2948 286.7235,1408.8578 295.2445,1416.2258 C288.4745,1422.3058 280.9715,1427.4878 273.9525,1433.2358 C270.8815,1429.6368 267.5445,1426.1808 265.1275,1422.0868 C268.3325,1419.1118 269.0385,1413.7088 263.9685,1410.9728 C237.1285,1396.4658 209.4485,1383.3468 182.1585,1369.6758 C162.3315,1360.9468 145.2655,1347.4758 125.3385,1338.9498 C113.4585,1333.7048 101.1885,1329.4428 88.6685,1326.0568 C67.4785,1318.5868 45.7885,1313.7348 23.0385,1311.7268 C-160.7535,1305.9038 -344.9665,1310.1978 -528.7915,1314.4928 M-631.8115,1395.8068 C-628.7835,1394.6048 -626.1975,1392.0188 -624.9915,1388.1988 C-624.5215,1390.1378 -624.0315,1392.0568 -623.5015,1393.9658 C-626.2215,1394.7628 -629.0215,1395.4228 -631.8115,1395.8068 M255.5225,1426.2558 C257.2285,1433.9868 264.3665,1439.3108 268.0615,1446.0938 C238.7475,1473.6488 208.8145,1500.5858 181.1225,1529.7018 C106.6725,1463.0858 16.4595,1414.8798 -80.5915,1390.4528 C1.7065,1392.0738 84.0005,1393.6488 166.2985,1395.2068 C169.0485,1395.2558 170.9095,1393.9428 171.9065,1392.1338 C176.3125,1390.9868 181.5945,1389.8828 184.9565,1387.8638 C208.2865,1399.7458 231.5925,1411.7558 255.3155,1422.8038 C255.2585,1424.1568 255.3425,1425.3918 255.5225,1426.2558 M-256.9315,1662.8068 C-234.8875,1742.8878 -222.8425,1826.3318 -193.4145,1904.1408 C-193.2675,1904.4998 -192.6235,1904.4818 -192.6715,1904.0408 C-193.0515,1899.8978 -192.7015,1895.7738 -193.1915,1891.6208 C-204.7835,1824.0358 -222.9785,1757.6638 -238.2415,1690.8168 C-218.8475,1721.6418 -168.1495,1848.9278 -137.3715,1851.7118 C-158.7045,1872.9138 -180.0375,1894.1198 -201.3815,1915.2998 C-221.6955,1935.0468 -241.5905,1960.9608 -271.2815,1966.3398 C-281.6455,1967.7608 -292.6105,1970.2558 -299.2215,1978.9968 C-304.1915,1972.0088 -302.4915,1962.5208 -297.8715,1955.0908 C-276.3945,1923.4028 -230.4845,1936.8628 -203.1415,1913.5878 C-198.1715,1908.7258 -206.3715,1901.0488 -212.1215,1905.6848 C-222.7515,1914.2478 -236.6615,1916.5398 -249.8315,1918.8328 C-293.7105,1770.4108 -336.3665,1621.3728 -383.7315,1473.9708 C-373.1815,1470.6438 -362.5315,1467.6818 -351.8115,1465.0738 C-329.2725,1505.9318 -309.9415,1547.7278 -289.3625,1589.4758 C-279.3075,1614.2298 -260.7965,1636.5858 -256.9315,1662.8068 M-44.0215,2174.3578 C-50.5675,2167.4468 -73.0065,2178.1718 -60.8225,2185.3628 C-50.3615,2187.0538 -39.3815,2186.9458 -28.8015,2187.4088 C69.5445,2190.5528 167.7145,2200.2258 265.4685,2209.0408 C138.1175,2573.8638 -336.4215,2692.8588 -607.0735,2403.1148 C-885.6935,2121.0898 -774.4835,1594.8548 -385.4215,1474.5018 C-344.8445,1623.6608 -299.1925,1771.5918 -255.3015,1919.8178 C-266.7415,1921.9728 -278.0015,1924.8758 -288.2115,1930.6538 C-309.0085,1941.0538 -325.0815,1971.4708 -305.4215,1989.9708 C-321.4345,2036.6848 -260.9925,2074.7068 -225.6115,2038.2448 C-53.4155,2064.6358 119.6295,2085.2018 291.7185,2112.3048 C286.4585,2141.6338 278.9485,2170.4508 269.1885,2198.6088 C259.8845,2193.6728 248.4595,2194.7458 238.2385,2192.7218 C227.4085,2191.3548 216.5685,2190.0758 205.7085,2188.9538 C122.8415,2180.5078 39.6455,2175.0488 -43.6915,2175.1548 C-43.6315,2174.8898 -43.7215,2174.5748 -44.0215,2174.3578 M330.4895,1398.1058 C337.2105,1391.7988 344.6795,1385.7728 350.7065,1378.8008 C355.1865,1400.3178 359.6835,1421.8348 364.2185,1443.3528 C174.7135,1618.5738 -19.5445,1789.0708 -207.9115,1965.3358 C-209.1675,1963.0708 -212.5135,1962.3378 -215.0215,1962.1178 C-214.4415,1962.1178 -217.2815,1962.5608 -217.7315,1962.6008 C-217.4615,1962.5508 -217.1915,1962.5118 -216.9115,1962.4628 C-221.8835,1962.5408 -226.5525,1966.3878 -227.5215,1971.0448 C-230.1115,1977.7508 -225.9825,1986.1688 -218.9515,1988.1598 C-219.3715,1990.6788 -219.6215,1993.2278 -219.8215,1995.7678 C-223.1405,1992.1498 -228.3075,1991.1148 -232.4015,1988.4258 C-238.7705,1983.9028 -246.7865,1978.2718 -254.7025,1979.3388 C-270.7805,1974.5208 -282.9635,1989.2038 -266.3615,1989.7818 C-261.8295,1989.0768 -257.5325,1987.9018 -253.3235,1988.1808 C-245.6345,1998.4358 -237.5845,2020.7598 -221.4015,2012.1638 C-223.0875,2020.8718 -229.0225,2033.2408 -238.1005,2035.6188 C-239.0365,2036.0038 -237.8305,2036.4228 -237.3315,2036.3848 C-271.1945,2060.7178 -314.3435,2021.1038 -293.6305,1986.1318 C-287.3575,1975.9338 -274.5335,1975.8078 -263.9505,1973.5158 C-257.9215,1971.9698 -252.0915,1969.4988 -246.6815,1966.4578 C-186.2135,1920.5778 -137.7225,1860.2688 -82.3585,1808.5088 C55.6175,1672.0638 191.3135,1533.3448 330.4895,1398.1058 M-166.9315,1938.9898 C-144.5915,1918.6958 -122.2415,1898.3818 -99.9015,1878.0678 C-64.1095,1893.2408 -27.3705,1906.6428 8.9385,1920.7128 C-49.8195,1923.5098 -109.2885,1926.4718 -166.9315,1938.9898 M-138.0615,1960.1688 C-155.0535,1949.7188 -176.0605,1954.1118 -193.1215,1962.5208 C-185.9915,1955.4448 -178.0115,1948.9988 -170.6615,1942.3748 C-112.1075,1939.0888 -53.7685,1931.3518 4.9485,1930.1718 C14.0385,1929.8658 23.1385,1929.6298 32.2285,1929.4728 C47.4385,1935.1608 62.6785,1940.7908 77.9385,1946.3318 C151.7225,1972.8608 225.9325,1998.3238 300.7285,2021.9078 C300.4485,2034.6628 299.7585,2047.3288 298.6685,2059.9268 C158.4865,2038.0378 18.1465,2016.9598 -122.7415,1999.9008 C-111.6055,1987.8808 -126.4875,1966.4668 -138.0615,1960.1688 M353.9085,2037.8218 C353.5185,2048.0668 352.8685,2058.2638 351.9785,2068.4108 C340.8085,2066.6088 329.6385,2064.8278 318.4685,2063.0658 C319.4985,2051.4628 320.2085,2039.7998 320.5785,2028.0788 C331.6485,2031.4638 342.7485,2034.7408 353.9085,2037.8218 M320.8385,2015.9428 C323.0305,1873.2518 273.1205,1731.2178 180.0185,1623.1148 C186.2785,1617.3958 192.5485,1611.6878 198.8185,1605.9698 C302.1275,1719.7418 357.8065,1872.3058 354.2685,2025.6378 C343.0885,2022.5378 331.9485,2019.2898 320.8385,2015.9428 M347.1985,1763.9908 C318.7785,1695.1768 279.2885,1632.6908 229.6585,1577.9008 C275.1395,1536.5048 320.7675,1495.2818 366.4985,1454.1688 C410.4005,1666.6758 459.7625,1878.3048 510.7115,2089.0818 C504.1245,2091.2998 497.1225,2091.8568 490.2155,2091.3168 C458.1605,2085.1328 425.8205,2080.0748 393.5285,2075.0138 C403.4605,1969.3078 387.6685,1861.4198 347.1985,1763.9908 M523.6625,2097.9548 C523.1385,2096.4778 522.6735,2094.9148 522.2955,2093.3738 C522.7385,2094.9048 523.1945,2096.4328 523.6625,2097.9548 M667.3195,2013.9138 C675.1135,1993.2588 698.0965,1984.5078 711.6715,2005.2688 C729.8995,2043.9128 658.7545,2050.1008 667.3195,2013.9138 M653.7385,1988.9568 C649.0235,2000.5108 648.6375,2013.5568 648.8585,2025.9718 C648.9185,2029.0328 650.3285,2031.1198 652.2785,2032.2508 C655.6285,2040.5378 662.1785,2045.4488 670.0185,2048.4018 C660.9205,2047.1438 653.9775,2055.2518 645.9485,2058.4198 C625.9405,2068.7838 606.1045,2079.4128 586.4165,2090.3508 C578.5385,2049.5298 561.0675,2010.4048 560.6275,1968.2768 C559.4015,1956.8958 579.6015,1967.1838 585.8285,1967.0278 C606.2985,1971.2018 626.8885,1974.8828 647.5485,1978.0718 C644.9035,1982.4978 648.5015,1988.8018 653.7385,1988.9568 M554.0965,1960.1508 C554.5905,1960.2648 555.0875,1960.3698 555.5815,1960.4828 C555.3305,1960.8308 555.1005,1961.1908 554.9005,1961.5688 C554.6395,1961.0918 554.3785,1960.6138 554.0965,1960.1508 M337.9585,1238.1398 C355.0885,1240.1768 372.2285,1242.1748 389.3785,1244.0048 C406.5385,1411.8598 442.6555,1577.7058 490.5795,1739.8098 C493.4385,1749.6018 496.3585,1759.3848 499.2685,1769.1778 C503.4345,1778.5388 502.9285,1798.2338 516.4485,1798.0738 C515.8585,1804.0868 515.4585,1810.1298 515.2585,1816.1928 C510.5485,1825.9558 506.8085,1836.1418 504.6185,1846.5248 C501.1895,1863.9468 500.1495,1881.8188 499.0975,1899.5238 C496.4565,1943.4708 503.6155,1950.2528 546.8555,1958.5028 C558.2405,2003.8448 563.6695,2051.4618 573.2305,2097.5518 C574.8375,2106.0878 577.1275,2114.4148 574.7335,2122.7718 C568.6685,2134.8828 556.0625,2133.6508 545.8705,2125.9308 C535.9705,2116.3718 533.2085,2102.8578 529.2885,2090.3578 C489.1495,1957.8318 462.2595,1821.9198 435.0585,1686.3878 C406.9285,1536.0398 366.7225,1388.3448 337.9585,1238.1398 M465.4185,1559.8408 C465.4785,1559.7328 465.3485,1559.5758 465.2285,1559.6538 C524.9585,1534.1628 584.4785,1505.1428 643.7585,1477.6318 C606.0205,1579.6748 536.0385,1670.8098 518.7685,1779.8368 C497.2165,1706.9808 479.7325,1633.0478 462.2785,1559.1618 C462.8985,1560.5498 464.5585,1561.5048 465.4185,1559.8408 M455.5685,1520.6118 C525.4755,1483.1838 596.5615,1447.1298 664.6285,1406.4058 C660.1135,1425.1558 655.3935,1443.8308 649.2385,1462.1018 C612.4105,1479.6948 575.9115,1497.9588 539.2685,1515.9658 C515.8355,1527.5728 492.2865,1539.0258 469.5785,1551.9768 C467.4785,1553.2338 462.1875,1555.0608 462.0385,1558.1388 C459.1385,1545.6878 456.3085,1533.2188 453.5485,1520.7388 C454.2185,1520.8568 454.9085,1520.8278 455.5685,1520.6118 M410.2985,1278.6388 C407.6305,1269.6918 407.6015,1260.4848 405.5605,1251.1868 C414.6465,1250.7328 423.7325,1249.5728 432.6685,1247.8138 C442.2985,1247.9818 452.2485,1247.1938 461.3685,1244.4678 C522.4635,1289.4688 585.9505,1330.4518 652.2195,1367.6958 C658.4485,1371.6548 664.8985,1374.1348 672.1685,1375.0398 C670.2885,1382.6578 668.4785,1390.2858 666.6685,1397.9228 C596.6655,1434.3778 524.1955,1467.7488 455.5875,1506.1428 C479.8485,1495.0518 503.8185,1483.2708 527.7485,1471.4118 C503.0775,1485.9518 475.7175,1495.1528 451.0885,1509.5788 C435.5325,1433.0358 415.5555,1356.5138 410.2985,1278.6388 M692.6785,1795.1208 C661.1635,1805.0538 634.0705,1825.3498 608.7965,1845.8148 C585.2575,1867.8778 552.6015,1852.7778 535.2505,1830.6458 C536.8195,1828.2908 531.8355,1828.2738 530.9335,1825.6428 C576.8095,1765.6668 623.5005,1759.0828 695.8985,1759.11965 C691.2565,1770.4268 690.4545,1783.1198 692.6785,1795.1208 M236.1685,1234.8028 C222.7125,1240.3798 214.5375,1252.1838 209.6295,1265.2058 C203.5985,1277.8418 188.3785,1271.2478 181.4085,1263.2068 C172.1675,1249.6038 161.2155,1241.0658 143.8385,1246.3678 C138.7775,1237.5998 137.8435,1227.3398 135.5865,1217.7668 C170.0225,1225.7658 204.7725,1230.8328 240.0485,1233.1098 C238.7485,1233.6418 237.4485,1234.2028 236.1685,1234.8028 M78.8085,897.0198 C81.4685,888.6738 85.0585,880.6038 89.5885,872.9768 C90.3785,871.6478 88.8185,870.0538 87.5685,870.5058 C110.9715,763.8698 171.4665,682.0288 207.5115,579.7388 C236.0265,490.8398 256.9935,438.1278 268.0985,345.5398 C290.5285,456.9628 301.1675,542.0828 405.6965,610.7698 C475.0565,655.6128 556.1675,681.6758 637.4085,696.1468 C621.6125,713.8578 619.0715,738.2318 617.5485,760.7988 C614.6245,800.6488 609.1045,841.5698 616.1385,881.1848 C579.1165,886.2228 541.6285,883.4868 504.7885,878.2318 C358.1775,850.4428 201.1745,870.3898 73.9185,950.0288 C71.8085,932.2248 73.3785,914.0568 78.8085,897.0198 M292.8585,147.6798 C317.6225,50.2778 385.4195,36.7248 490.7295,44.1958 C500.8185,43.4148 510.7685,41.3568 519.1985,36.6728 C492.5715,259.0638 627.7475,337.9758 662.5485,551.4918 C528.5335,493.9278 442.4555,426.2928 435.9105,284.1648 C434.4885,261.7558 435.5885,239.3758 435.4785,216.9658 C435.4685,216.0998 434.2685,215.9918 433.9985,216.7688 C379.9485,413.0168 532.8475,553.0998 728.8485,595.2878 C719.1185,618.1448 711.4365,630.9378 701.7085,653.7978 C701.6865,653.8308 701.6705,653.8638 701.6685,653.8958 C701.6465,653.9288 701.6275,653.9828 701.6185,654.0048 C697.3535,663.8788 692.9335,674.0178 686.8285,682.9498 C686.0485,684.0908 683.5685,686.2668 686.1185,684.0318 C685.4485,684.6128 684.8385,685.4488 684.2285,686.1278 C673.5755,686.9098 645.6185,670.5298 637.9885,676.6698 C536.5845,656.1718 419.0795,635.0188 357.1565,547.1058 C291.6735,419.1588 258.5775,287.7328 292.8585,147.6798 M536.1085,88.3128 C578.9705,131.3208 672.7395,135.8148 705.9385,79.8298 C703.8955,272.2438 694.4685,346.0048 677.6085,537.6838 C638.8165,341.1708 533.1715,278.5868 526.0485,75.3708 C528.9285,80.0168 532.3385,84.3858 536.1085,88.3128 M720.2025,66.8638 C741.7185,76.0368 761.6935,88.2958 780.3385,102.1918 C800.2775,117.2188 829.3345,117.1918 834.7485,144.1058 C840.5695,204.8438 838.2845,227.1398 837.0205,288.1328 C821.5005,477.8938 817.8075,537.6568 1012.2885,635.3148 C1012.7885,637.7258 1013.5685,640.1178 1014.5185,642.4398 C989.0595,651.5228 959.3115,647.7788 935.6585,661.7008 C925.2255,647.8028 912.8745,632.9488 895.0285,628.6318 C887.6585,626.8708 880.4685,627.6478 873.0985,628.9178 C868.9625,629.2568 864.4465,631.4688 860.8785,628.7008 C834.2925,613.3768 807.5405,608.1728 787.0295,585.6288 C771.7735,571.8578 779.6735,540.0798 776.6865,520.5978 C769.7585,392.3298 779.0335,333.0518 787.2305,205.0868 C787.5685,195.4418 788.2685,185.7868 787.0185,176.1908 C786.9385,175.5708 786.1585,175.4428 785.9185,176.0438 C754.7615,306.1528 758.1595,373.9418 757.8735,507.0248 C757.4005,545.1398 762.9675,571.9938 768.8305,609.5188 C769.3685,614.4798 777.0785,614.7258 776.8885,609.5188 C776.5135,599.4128 777.0585,600.0808 777.5165,589.9278 C785.3855,595.5998 789.5445,592.6628 795.0375,600.3178 C803.7345,611.1568 814.5835,620.1598 825.3985,628.8778 C797.3605,624.1228 770.8815,611.2568 742.8945,605.0518 C744.4965,600.8708 746.0995,596.6888 747.8485,592.5618 C747.7885,592.7288 747.7385,592.8368 747.7185,592.9058 C748.5915,590.7468 749.7585,599.1988 750.8985,597.1378 C757.1885,592.7978 757.0585,580.2198 747.8585,578.4488 C731.2995,575.2768 714.9835,570.9918 699.0385,565.6928 C711.8135,358.8608 733.9695,269.0178 710.8635,62.0548 C713.9895,63.7348 717.1395,65.3178 720.2025,66.8638 M1025.8985,652.9418 C1034.1905,649.8538 1030.0935,642.2848 1027.3385,636.4168 C1029.1735,635.2158 1030.7885,633.2208 1031.4685,631.0338 C1032.1835,649.7758 1037.9775,668.2188 1048.9085,683.6388 C1016.2705,687.3328 983.4865,690.1688 950.9285,694.2968 C950.4985,693.2638 950.0585,692.2498 949.5985,691.2558 C961.7615,685.1848 944.6645,673.5418 940.2385,667.5178 C968.5555,661.1098 998.4765,663.0118 1025.8985,652.9418 M1075.8185,637.4898 C1165.2115,633.8068 1238.5235,690.8708 1305.9575,741.2838 C1317.0975,747.9698 1326.3705,760.9288 1340.4985,759.9428 C1341.7185,766.2218 1342.9385,772.4908 1344.1385,778.7498 C1314.4055,777.8788 1282.2025,775.5568 1257.6685,757.1768 C1205.7905,704.2488 1136.7585,659.5828 1058.6185,672.3298 C1052.3055,662.0448 1047.9175,650.3728 1046.7685,638.3948 C1056.3285,637.3318 1066.2785,637.3418 1075.8185,637.4898 M1094.1085,598.5848 C1107.2175,592.9698 1133.8435,584.8308 1141.5185,601.4688 C1141.4585,601.4688 1142.3085,603.6728 1142.2985,603.6438 C1143.6965,607.8058 1143.8475,612.0458 1143.3085,617.0088 C1126.7575,617.3238 1110.1245,616.0508 1093.7885,613.4858 C1093.8285,609.6668 1091.1585,605.7598 1087.3185,604.4598 C1088.9885,602.0298 1091.2685,600.2188 1094.1085,598.5848 M1250.1235,772.1438 C1250.2675,772.0168 1250.3985,771.8868 1250.5205,771.7548 C1257.6435,776.7938 1265.3375,780.8268 1273.4815,784.0098 C1261.4185,785.2858 1249.0545,786.8678 1237.1475,784.2688 C1241.5475,780.2228 1245.8045,775.9838 1250.1235,772.1438 M792.7385,747.2068 C790.8285,748.2208 788.9385,749.1258 787.0685,749.8348 C786.6685,749.6088 786.2785,749.3728 785.8985,749.1258 C780.0275,744.5468 772.2655,738.9068 772.7485,730.6918 C779.5685,735.9878 786.1285,741.6168 792.7385,747.2068 M883.6785,640.3728 C910.9335,640.9138 921.8905,670.1158 938.4485,686.9158 C929.9345,694.3278 948.1925,708.1128 937.2575,716.9428 C909.1425,729.4738 878.8815,737.8018 850.0295,748.8618 C842.4185,751.5668 835.1685,754.4208 827.4485,752.2468 C827.6115,752.0028 827.7525,751.7448 827.9045,751.4948 C825.6965,750.1108 821.0115,749.9768 820.9505,746.7958 C816.6505,744.5538 812.0155,742.5398 808.6595,738.7638 C808.3185,738.9038 807.9785,739.0468 807.6385,739.1958 C779.7125,716.1868 745.7425,686.5568 706.5985,692.7908 C720.7995,668.1928 729.5325,640.8688 739.4215,614.3398 C772.5005,619.8088 800.9745,639.3178 835.0185,642.0838 C851.6125,642.7638 868.7585,635.5838 885.3635,641.3058 C884.8125,640.9818 884.2505,640.6718 883.6785,640.3728 M684.4485,708.3218 C693.1685,707.9378 699.1685,703.1548 703.8085,696.9248 C725.1115,702.9488 745.9605,711.0808 763.9185,724.1478 C748.7195,731.7088 754.7735,748.7108 763.2395,758.8988 C765.9155,793.5198 767.3885,828.2938 766.1785,863.0168 C736.7795,860.9218 707.6085,856.3748 678.8385,850.1138 C669.8075,803.2808 675.7385,755.1568 678.0085,707.9478 C680.1385,708.2628 682.2885,708.4198 684.4485,708.3218 M637.5085,851.2648 C636.1475,823.5908 638.3675,795.9388 639.5585,768.3078 C640.4715,745.5418 639.6235,721.5848 649.6485,700.4878 C657.5025,702.6158 664.8255,704.6188 672.5485,706.8358 C656.2575,745.7878 654.4305,789.8478 656.4765,831.5218 C656.4595,865.4598 664.2775,868.9628 696.6785,873.3408 C693.1665,895.4078 707.8225,915.0938 723.0885,929.7248 C679.2925,919.1918 636.5285,903.2628 591.3485,899.3128 C599.8495,897.9658 631.1895,897.4578 632.9185,888.4088 C644.9965,881.7828 636.8205,862.4558 637.5085,851.2648 M1356.6485,843.8538 C1309.6435,910.9668 1301.4425,951.1248 1315.5815,1031.6678 C1317.2295,1043.2048 1323.2595,1056.3788 1336.0185,1058.8498 C1217.1825,1123.8288 1097.0705,1186.8558 980.4185,1255.6188 C996.2315,1217.9798 1011.6815,1180.2008 1026.7585,1142.2698 C1041.5515,1110.1308 1054.1885,1069.8018 1018.9555,1045.7898 C941.1575,993.9208 850.8255,961.7798 760.2485,938.9168 C756.9525,929.8148 747.2525,924.5468 740.6395,917.7658 C726.7285,904.2588 709.8795,892.1378 701.2685,874.0488 C725.3645,877.7618 749.7455,879.5708 774.1185,879.9938 C778.6685,880.0728 782.4185,876.1648 782.4685,871.7758 C783.0065,838.5738 783.0225,805.3438 780.5185,772.2058 C792.2925,775.9158 803.3625,768.2708 813.4085,763.0618 C827.7865,772.7918 845.0985,768.4248 859.8185,761.8898 C882.0685,753.6538 904.3085,745.4158 926.5485,737.1778 C939.9745,733.1798 956.1615,725.5228 954.6885,709.2568 C982.2235,706.3128 1009.6285,702.4818 1037.1585,699.4248 C1051.1315,699.3238 1072.4825,695.6978 1061.6785,677.4178 C1132.7925,682.0158 1195.1145,714.1238 1242.5985,765.5918 C1235.6385,771.7898 1228.7665,778.1038 1221.6915,784.1728 C1213.6985,790.7478 1202.8015,783.8518 1193.6615,783.1018 C1128.1935,768.8958 1061.7975,757.5178 998.8785,734.1378 C985.8195,728.3548 973.2555,721.5108 961.2625,713.7778 C955.8645,710.2958 950.8485,718.8148 956.2155,722.2758 C989.8055,745.5688 1029.6885,755.0398 1067.9695,767.7548 C1096.1385,776.6258 1208.7515,810.7728 1228.2695,791.7988 C1250.4075,799.8198 1274.5855,792.8318 1297.3415,791.1588 C1313.5605,792.5048 1330.9035,796.2088 1347.2185,794.7828 C1350.3385,811.1498 1353.4885,827.4978 1356.6485,843.8538 M946.1305,1339.5258 C945.3915,1339.9278 944.6425,1340.3138 943.9085,1340.7218 C944.0035,1340.5038 944.0975,1340.2858 944.1925,1340.0688 C944.8285,1339.8768 945.4865,1339.7058 946.1305,1339.5258 M1370.3285,1085.6298 C1372.5055,1096.4228 1373.8335,1107.2628 1376.7185,1117.9308 C1366.4305,1115.0018 1339.0315,1136.7858 1327.8185,1141.6278 C1313.7085,1149.5628 1299.5585,1157.4158 1285.3685,1165.2108 C1217.3495,1202.7098 1148.7295,1239.1338 1079.0225,1273.5128 C1077.2215,1267.5258 1041.4275,1294.1438 1033.9695,1295.6838 C1006.3915,1312.7048 975.8395,1324.5558 945.7385,1336.5078 C956.7885,1315.5968 962.2385,1289.4848 976.1745,1271.1668 C1021.4035,1243.9078 1067.7875,1218.5568 1113.8885,1192.7778 C1191.2045,1149.4558 1271.2005,1109.7758 1344.0395,1059.2748 C1352.6765,1057.1978 1361.0665,1058.2648 1369.5485,1060.1488 C1367.1105,1068.3678 1368.6545,1077.4548 1370.3285,1085.6298 M827.6355,1857.4718 C826.5095,1857.6078 825.3835,1857.7418 824.2585,1857.8818 C825.1925,1857.6178 826.1325,1857.3658 827.0785,1857.1348 C827.2645,1857.2478 827.4495,1857.3598 827.6355,1857.4718 M823.9285,1841.3488 C823.4585,1841.9778 823.1385,1842.6668 822.9585,1843.3948 C817.9815,1840.3848 813.0045,1837.3788 808.0275,1834.3708 C810.1105,1833.9708 812.1915,1833.5558 814.2705,1833.1008 C818.3255,1832.2118 817.5295,1825.3448 813.2705,1825.8318 C802.5275,1828.0178 792.6035,1826.8788 784.0785,1819.7548 C797.2895,1820.6138 803.3835,1804.6118 809.5185,1795.3778 C842.8135,1733.1798 873.8295,1669.8318 910.2905,1609.2778 C941.6115,1553.6938 973.1785,1498.2418 1004.2385,1442.5158 C1026.7925,1406.2808 1044.3035,1353.8498 1007.4885,1320.5848 C1134.2935,1262.5578 1260.9045,1201.0608 1379.2085,1127.8518 C1389.1965,1171.1178 1404.0435,1213.0478 1417.9185,1255.2248 C1214.8165,1444.8618 1000.4885,1626.7238 823.9285,1841.3488 M1377.8885,953.2568 C1381.6715,972.7548 1385.4845,992.2668 1389.2485,1011.7768 C1384.5735,1022.2068 1383.7895,1036.0298 1373.9995,1043.3398 C1370.3085,1045.2388 1365.5685,1042.5918 1361.8085,1041.9518 C1353.4395,1039.2848 1343.4005,1046.3388 1336.2185,1041.1758 C1331.0785,1035.8788 1330.8985,1025.5058 1329.9285,1018.7348 C1326.8585,997.3088 1324.0885,975.5678 1324.7085,953.8868 C1324.3315,917.3528 1343.0445,886.1828 1358.6685,854.2968 C1365.0485,887.2868 1371.4785,920.2668 1377.8885,953.2568 M1396.0685,1041.6268 C1396.3425,1042.1248 1396.6445,1042.6118 1396.9625,1043.0928 C1396.2155,1043.4148 1395.4785,1043.7668 1394.7535,1044.1498 C1395.2115,1043.3188 1395.6535,1042.4798 1396.0685,1041.6268 M1440.2485,1063.7168 C1440.4065,1064.7238 1440.5745,1065.7288 1440.7615,1066.7298 C1440.2915,1065.5438 1439.8205,1064.3568 1439.3455,1063.1718 C1439.6255,1063.3678 1439.9265,1063.5488 1440.2485,1063.7168 M1479.7885,1073.1408 C1568.5195,1100.0658 1666.5495,1119.1228 1758.9185,1102.0858 C1720.9335,1209.0058 1640.6055,1292.6678 1557.0895,1367.5508 C1548.1105,1354.4258 1541.1585,1334.4258 1524.5155,1330.1728 C1528.5905,1325.8198 1527.6435,1317.1068 1521.8785,1314.5128 C1498.3205,1229.6008 1468.9425,1146.2208 1446.9925,1060.9818 C1457.7445,1065.4868 1468.7235,1069.4818 1479.7885,1073.1408 M1778.9265,656.5678 C1780.1425,652.9738 1785.9345,654.5238 1784.7155,658.1388 C1758.6385,747.1888 1734.0325,837.2078 1715.4865,928.0568 C1716.3535,934.3008 1706.4475,934.9558 1710.1715,922.6358 C1729.7485,833.2638 1752.3075,744.1688 1778.9265,656.5678 Z M-643.8715,1395.4028 C-647.1615,1394.5768 -649.8315,1392.8838 -652.0115,1390.6588 C-650.5115,1390.7378 -648.9815,1390.5708 -647.5315,1390.1468 C-645.7395,1392.9698 -642.9495,1395.1898 -640.0315,1396.0528 C-641.3315,1395.9348 -642.6115,1395.7278 -643.8715,1395.4028 M-663.5315,1313.3218 C-665.7815,1317.5638 -665.9815,1323.9408 -666.5015,1328.4978 C-666.7215,1330.4568 -666.9015,1332.4248 -667.0315,1334.3938 C-668.0415,1328.2708 -669.1415,1322.1598 -670.5715,1316.1268 C-668.2215,1315.1628 -665.8815,1314.2268 -663.5315,1313.3218 Z M166.405568,1085.90805 C292.565444,1104.89111 344.927389,1107.40264 382.534528,1110.76845 C305.09773,1116.55528 128.939214,1095.25582 130.085932,1085.04802 C130.085932,1081.26292 161.5692,1085.18033 166.405568,1085.90805 Z" id="ðŸ–-Ink" fill="#000000"></path>
    </g>
</svg>