<?xml version="1.0" encoding="UTF-8"?>
<svg width="1534px" height="1856px" viewBox="0 0 1534 1856" version="1.1" xmlns="http://www.w3.org/2000/svg" xmlns:xlink="http://www.w3.org/1999/xlink">
    <!-- Generator: Sketch 62 (91390) - https://sketch.com -->
    <title>pose/sitting/closed_legs-1</title>
    <desc>Created with Sketch.</desc>
    <g id="pose/sitting/closed_legs-1" stroke="none" stroke-width="1" fill="none" fill-rule="evenodd">
        <path d="M1508.3616,1440.94804 C1478.6816,1398.70604 1416.11866,1391.71303 1375.92766,1362.11203 C1354.75466,1345.87603 1332.34974,1335.12981 1315.89574,1313.26881 C1342.09374,1282.48381 1309.69474,1210.31781 1303.02874,1168.64281 C1276.60974,1059.53181 1252.17474,948.676812 1220.75274,839.694812 C1275.20574,856.649812 1261.01974,755.130812 1253.24274,731.655812 C1252.70474,728.428812 1248.70874,727.784812 1246.25974,726.767812 C1246.94474,722.158812 1248.83174,721.147812 1243.11074,719.874812 C1241.19774,692.253812 1249.01074,661.324812 1234.88974,636.924812 C1218.97374,610.292812 1180.92774,588.004812 1149.49374,587.636812 C1127.41174,499.926812 1123.36574,458.557812 1018.74874,495.737812 C1021.06274,487.194812 1021.78174,479.359812 1017.75074,470.729812 C1002.01874,423.182812 982.248743,371.167812 965.056743,322.983812 C945.242743,267.534812 924.753743,210.197812 898.253743,156.920812 C879.797743,123.088812 822.056743,114.043812 782.918743,119.644812 C773.582743,103.169812 750.048743,57.5998116 720.278743,68.1358116 C720.054743,54.3918116 719.841743,40.6478116 719.663743,26.9028116 C719.509743,14.9548116 720.766743,2.7038116 716.173743,-8.6401884 C711.307743,-20.6571884 701.400743,-26.9991884 689.764743,-31.5991884 C654.544743,-43.2351884 614.081743,-61.9291884 576.915743,-50.3621884 C544.443743,-35.5391884 548.225743,20.1988116 532.511743,50.4978116 C510.489743,17.8388116 472.934743,39.7368116 464.989743,74.7628116 C374.524743,110.829812 296.767743,69.8568116 290.978743,211.437812 C295.966743,237.246812 300.207743,261.455812 297.843743,287.517812 L295.106743,287.797812 C271.952743,413.246812 263.048743,547.721812 268.645743,687.521812 C267.524743,742.565812 247.469743,793.940812 228.075743,843.612812 C213.810743,880.136812 199.080743,917.903812 192.097743,956.652812 C184.354743,988.925812 155.891743,1144.12181 219.182743,1092.59781 C221.607743,1269.15981 378.913743,1291.76481 520.568743,1252.76581 C670.949743,1221.49681 840.239743,1230.48681 934.093743,1079.21481 C965.932743,1133.71081 976.917743,1167.35681 984.909743,1224.34381 C993.680743,1266.08981 1006.4166,1313.5016 1029.8276,1341.1146 C1009.66958,1377.40704 999.796665,1421.61735 1000.7696,1450.4316 C1001.15178,1461.75005 995.976425,1466.99123 1003.4146,1474.02681 C1039.09652,1507.77745 1118.70777,1508.15617 1179.24441,1523.18217 C1220.75274,1528.46613 1370.84393,1548.6802 1393.78174,1535.50381 C1409.77874,1539.97781 1391.17536,1498.33907 1407.17136,1497.45007 C1412.6443,1497.4907 1413.37683,1490.51925 1418.9966,1490.77541 C1454.87408,1492.41076 1532.22592,1502.95894 1513.5243,1474.02681 L1508.3616,1440.94804 Z" id="ðŸŽ¨-Background" fill="#FFFFFF"></path>
        <path d="M1499.4546,1481.8336 C1473.0026,1487.5496 1445.7966,1485.9536 1418.9966,1488.1876 C1419.8626,1485.9426 1420.5886,1483.6456 1421.1566,1481.3106 C1448.8496,1477.9566 1477.8926,1476.3646 1504.2946,1467.2096 C1504.9176,1470.1876 1505.3846,1473.1986 1505.5696,1476.2386 C1505.5946,1476.6456 1505.5396,1481.1936 1506.1886,1480.3536 C1505.3846,1481.3956 1500.6546,1481.6076 1499.4546,1481.8336 M1365.8156,1413.1636 C1317.6756,1397.3206 1266.6216,1383.7166 1229.5146,1346.9626 C1229.5886,1346.7596 1229.6596,1346.5546 1229.7296,1346.3496 C1237.3676,1344.1856 1245.7686,1339.5656 1253.1186,1344.5896 C1276.6576,1343.7766 1301.2416,1335.5236 1317.7266,1318.0806 C1318.8516,1318.3196 1319.9416,1318.6566 1321.0026,1319.0736 C1352.7216,1373.0606 1420.2986,1383.3436 1469.7896,1414.6246 C1489.8516,1426.3076 1527.2186,1457.7716 1479.4136,1458.4766 C1460.5426,1461.3396 1441.5626,1463.4576 1422.5326,1464.9206 C1421.0646,1434.5226 1390.9706,1421.2056 1365.8156,1413.1636 M1399.4676,1491.0226 C1389.8946,1504.0836 1372.6116,1509.2446 1356.9756,1507.9676 C1345.4756,1506.4046 1335.3276,1502.3576 1323.3676,1503.2296 C1232.6936,1499.7836 1143.5296,1480.9896 1055.1096,1461.8036 C975.9156,1446.9366 1036.4216,1388.4406 1029.8276,1341.1146 C1041.0046,1347.9336 1053.6756,1352.9146 1066.7236,1356.5666 C1083.5316,1403.3696 1129.4666,1391.1446 1161.9936,1368.7226 C1174.5436,1368.3166 1189.8246,1370.2436 1200.0886,1361.9036 C1200.6876,1362.3956 1201.3186,1362.8116 1201.9716,1363.1676 C1210.1166,1358.3666 1217.5706,1353.3416 1226.1126,1349.6386 C1254.9816,1398.4726 1316.3026,1409.6206 1365.5056,1428.4726 C1395.6076,1436.5896 1420.2566,1459.8656 1399.4676,1491.0226 M1397.8226,1532.8566 C1372.3766,1540.4686 1345.4476,1539.1486 1319.1926,1537.0056 C1232.9416,1529.5256 1147.2626,1514.8156 1063.5866,1492.5626 C1043.7416,1487.2826 1005.2416,1481.1526 1003.4146,1456.2306 C1021.0796,1479.4126 1052.6166,1482.1436 1079.1086,1488.1216 C1166.0706,1505.1776 1255.1456,1527.2046 1344.0836,1522.9576 C1362.8666,1528.3056 1383.3386,1524.0836 1399.2306,1513.6706 C1398.7256,1520.0636 1398.2676,1526.4596 1397.8226,1532.8566 M927.5706,718.7606 C940.4506,684.5706 954.4196,650.8406 967.9306,616.8606 C992.9996,630.9206 1021.2996,636.0606 1050.2006,639.3406 C1050.8796,639.6806 1051.6006,639.9806 1052.3796,640.2206 C1053.7496,640.5006 1054.8996,640.3706 1055.8206,639.9506 C1094.3606,644.0306 1133.6696,645.6306 1167.5706,661.4006 C1180.6896,667.5006 1192.9996,675.7206 1204.1406,687.0406 C1216.3296,698.7206 1226.1496,712.8206 1232.7406,728.3806 C1234.7996,733.1806 1235.8906,738.1706 1239.1406,742.1206 C1240.1206,747.4306 1241.2296,752.7006 1241.9796,758.0606 C1243.8796,779.0106 1246.4706,801.0806 1238.3906,821.1806 C1233.3796,833.4906 1223.1106,823.5906 1216.2996,818.7706 C1205.2206,811.0306 1195.0196,802.1506 1184.8506,793.2706 C1153.6106,763.8806 1117.1006,738.8906 1073.2806,734.7606 C1025.9706,728.1806 974.7096,719.9606 927.5706,718.7606 M908.6106,718.8306 C906.0106,725.4706 903.4596,732.1306 900.9506,738.8006 C888.5196,736.6706 862.0606,731.6506 851.2296,725.9306 C855.0896,726.0606 858.9106,724.0506 859.8906,719.4406 C860.3206,717.4006 860.9996,715.4906 861.5306,713.5006 C868.0606,692.2106 873.6296,670.4906 882.8506,650.0806 C891.8706,628.5306 902.6006,607.5906 910.7996,585.7206 C924.7006,584.8406 946.6606,602.1006 956.5896,609.1406 C938.8796,644.8706 923.1496,681.5206 908.6696,718.6706 C908.3996,718.6706 908.1206,718.6706 907.8506,718.6806 C908.1006,718.7306 908.3606,718.7806 908.6106,718.8306 M826.7206,716.3106 C755.4196,711.8506 683.1606,716.5506 612.6806,703.9006 C599.3206,701.6306 586.8706,697.5306 575.3096,691.9406 C541.6696,675.6806 515.5306,646.8106 496.2806,613.7606 C426.7406,509.0106 350.2206,404.9606 315.9906,282.2306 C295.7096,222.8306 291.7606,134.0406 362.6496,108.4806 C394.0896,96.7406 432.0596,97.4606 459.1206,76.1606 C456.0596,87.4206 454.3396,99.2006 452.7606,109.6306 C450.1006,126.6406 447.4796,144.2406 449.6406,161.4406 C449.6606,161.5906 449.6806,161.7406 449.7096,161.8806 C446.1606,171.5606 457.3296,180.7006 468.2896,179.7506 C491.4106,179.2206 502.7496,151.4206 525.9196,150.5706 C534.3796,150.2606 539.4306,155.3106 544.6106,161.3206 C557.1496,175.8906 569.4306,190.7406 584.5796,202.6806 C585.6606,203.5306 587.1006,202.5006 586.4906,201.2006 C578.8396,184.8506 568.1106,170.3706 557.4706,155.8406 C535.4106,120.5906 505.7206,136.8106 480.6206,158.2406 C475.7296,161.7906 470.7606,164.6706 465.7296,163.4106 C466.0596,162.2006 466.1496,160.8006 465.9396,159.2406 C464.0706,145.4406 465.8996,130.8906 467.7996,117.2006 C472.1406,91.6506 470.8506,58.3306 495.4796,42.8606 C506.2296,36.7806 519.2296,36.0106 529.6896,42.9106 C527.7696,47.6206 525.4796,52.9206 525.1496,57.9006 C523.0496,56.4206 521.6296,56.8806 521.2496,60.0906 C529.3996,84.1306 542.7406,106.2206 554.0596,128.8906 C562.8996,145.9006 571.7896,162.8906 580.8606,179.7806 C583.5396,185.0106 585.7996,190.5506 591.0196,193.4506 C591.0306,193.5006 591.0396,193.5506 591.0496,193.6006 C594.5796,205.2506 594.5796,217.7706 597.2996,229.6206 C598.9706,236.8606 600.8906,244.1406 602.9396,251.3806 C604.8796,258.1706 606.9306,264.9306 609.0106,271.5806 C633.7696,357.3906 657.2206,443.6006 681.3606,529.6006 C652.7806,514.8206 638.2896,487.1906 625.2096,458.9506 C590.7096,386.1806 554.5706,306.7506 515.9596,239.6106 C551.8706,315.9406 601.1296,494.7506 662.4706,539.2006 C671.8296,545.4006 682.0306,550.0706 692.6806,553.7706 C697.1296,557.8006 701.7906,558.6706 704.9196,557.6006 C724.2006,563.0106 744.3906,566.1206 763.3396,570.0906 C796.2006,576.9906 829.0706,583.8406 861.9506,590.6606 C873.0706,592.9606 884.2406,596.0406 895.6006,596.5806 C896.1696,596.6106 896.7206,596.5906 897.2296,596.5206 C872.2006,625.3006 855.3506,664.5906 845.7206,701.4206 C837.8796,699.1606 828.9906,707.5306 826.7206,716.3106 M544.5106,719.4806 C488.8996,802.9506 401.7496,854.7306 329.9796,922.1106 C286.9796,967.4206 252.6896,1020.0306 213.4706,1068.5106 C212.2606,1070.0106 211.0396,1071.5106 209.8206,1073.0006 C206.7996,1076.7206 202.6006,1080.8106 200.1696,1084.4206 C200.1006,1084.5306 200.0306,1084.6306 199.9706,1084.7106 C194.2896,1072.8406 197.3996,1057.6606 197.1896,1044.1306 C198.0596,1020.9506 201.0896,997.9706 205.6406,975.2506 C220.4996,884.0306 271.6606,802.8406 282.7896,711.1006 C282.4196,613.5306 277.5706,515.6806 285.7896,418.1406 C288.7896,373.6206 291.9396,329.0806 296.3996,284.6706 C327.2006,399.1206 417.1406,522.5806 468.2006,601.6206 C488.7996,631.8306 507.2406,664.7906 536.2496,687.9006 C543.2606,693.4406 550.6606,698.2006 558.3606,702.3006 C553.1496,707.4706 548.6896,713.3606 544.5106,719.4806 M726.6606,273.1306 C734.3206,271.1206 751.2296,269.1106 760.0196,263.3306 C764.5676,278.9256 769.4866,294.4006 774.6766,309.7856 C762.0806,306.0626 748.4476,307.8076 735.4726,309.2246 C718.5666,311.0706 701.6836,313.0786 684.8076,315.1816 C669.3496,317.1066 653.9006,319.1056 638.4586,321.1606 C632.9506,301.4046 627.4036,281.6606 621.7696,261.9406 C653.9796,276.8706 692.1806,278.9506 726.6606,273.1306 M744.1896,124.5106 C744.1606,123.2006 743.8506,121.8306 743.1696,120.4206 C743.0706,120.2206 742.9796,120.0206 742.8796,119.8206 C740.2496,110.4306 737.5806,101.0506 734.8606,91.6806 C734.4506,90.1006 731.9506,90.4106 731.9996,92.0706 C731.9796,93.2306 731.9706,94.3806 731.9596,95.5406 C731.7806,95.0606 731.6106,94.5806 731.4396,94.0906 C728.0706,84.3206 725.6006,74.2606 723.9706,64.0406 C752.8306,69.9906 776.6006,132.9906 790.0306,178.0306 C778.9906,174.5906 764.5106,173.8106 760.2206,182.9606 C754.8996,163.4706 749.6206,143.9706 744.1896,124.5106 M699.4136,497.5626 C706.6066,497.0916 713.8016,496.6436 720.9926,496.1446 C735.7076,495.1236 750.4186,494.0596 765.1316,493.0176 C768.6606,492.7676 772.1896,492.5096 775.7186,492.2496 C785.7106,491.6996 795.7036,491.1456 805.6966,490.6126 C816.7446,490.0246 827.9216,489.0216 839.0526,488.6126 C841.1476,488.5666 843.2436,488.5326 845.3386,488.5106 C845.7516,489.3506 846.1786,490.1756 846.6406,490.9606 C831.9706,495.0206 818.5706,499.7206 807.8306,504.4606 C783.4306,515.1506 759.9706,529.2206 739.9306,546.9106 C736.2206,546.1406 732.5106,545.3606 728.7996,544.5706 C718.6206,542.3706 708.3106,540.0206 698.3796,536.6706 C695.8396,530.4406 695.0106,523.1206 692.8506,516.9806 C691.1376,510.8276 689.4246,504.6726 687.7116,498.5186 C691.6246,498.4526 695.6266,497.8096 699.4136,497.5626 M675.1336,447.2386 C675.2656,447.2246 675.3966,447.2086 675.5276,447.1936 C675.5436,447.1936 675.5606,447.1926 675.5766,447.1926 C677.1826,447.1416 678.7876,447.0796 680.3926,447.0046 C683.6016,446.8556 686.8096,446.6636 690.0146,446.4356 C696.4326,445.9786 702.8376,445.3686 709.2336,444.6706 C722.0466,443.2706 734.8186,441.5206 747.6036,439.8926 C755.1366,438.9326 762.6436,438.1066 770.1446,437.4036 C787.6826,436.2396 805.2736,435.3476 822.7926,435.1006 C828.3996,448.4506 834.0906,461.7606 839.8306,475.0406 C840.3716,476.2796 840.8976,477.6276 841.4316,479.0266 C815.6776,478.5356 789.8136,480.9786 764.1506,482.5146 C749.7646,483.3756 735.3766,484.2126 720.9926,485.0976 C713.7976,485.5396 706.6056,486.0296 699.4136,486.4996 C694.6116,486.8126 689.4506,486.6056 684.6486,487.5126 C683.6326,483.8616 682.6166,480.2106 681.6006,476.5606 C678.9386,467.1006 676.3066,457.6316 673.6686,448.1646 C674.1836,447.9166 674.6776,447.6106 675.1336,447.2386 M653.2176,374.3936 C649.0896,359.4586 644.9586,344.5236 640.8056,329.5956 C641.5856,329.4876 642.3656,329.3796 643.1446,329.2716 C646.0606,328.8696 648.9776,328.4706 651.8946,328.0726 C658.3206,327.1976 664.7476,326.3336 671.1766,325.4816 C676.1596,324.8216 681.1436,324.1726 686.1286,323.5256 C691.6326,323.0606 697.1386,322.6176 702.6466,322.2106 C727.5536,320.3736 752.6566,318.6696 777.6466,318.5286 C782.8936,333.7326 788.4186,348.8436 794.1456,363.8806 C772.8926,365.1746 751.6616,366.8876 730.4376,368.5926 C718.2286,369.5736 706.0226,370.5916 693.8206,371.6456 C687.8836,372.1586 681.9486,372.6806 676.0136,373.2106 C672.7166,373.5046 669.4196,373.8026 666.1226,374.1026 C664.2186,374.2756 661.7326,374.9226 659.5906,374.9366 C659.3126,374.7166 659.0226,374.5036 658.7146,374.2906 C657.1526,373.2136 654.8506,373.4026 653.2176,374.3936 M658.1876,386.9986 C672.2046,385.2896 686.1906,383.4496 700.1976,381.7456 C707.9666,380.9906 715.7366,380.2456 723.5086,379.5206 C748.2046,377.2156 772.9286,375.2186 797.6256,372.9446 C804.3266,390.2576 811.2866,407.4736 818.4106,424.6176 C788.1676,422.6226 757.3716,427.7026 727.4676,431.2186 C711.5046,433.0956 695.4986,434.7886 679.4296,435.3876 C676.8856,435.4816 673.3296,435.3496 670.2786,436.0256 C666.1266,421.0836 661.9906,406.1366 657.8596,391.1876 C657.9206,389.7976 658.0286,388.4026 658.1876,386.9986 M906.4796,586.7406 C905.4196,587.7506 904.3796,588.7906 903.3506,589.8606 C903.3706,589.5206 903.3796,589.1906 903.3706,588.8506 C903.3906,588.8406 903.4106,588.8306 903.4196,588.8206 C904.3396,587.9206 905.3606,587.2306 906.4796,586.7406 M887.7696,158.9506 C918.8606,234.3706 945.7096,311.9206 974.8306,388.2606 C984.1696,414.1806 993.3706,440.1506 1002.0706,466.3006 C1005.3706,474.9406 1006.5806,484.6406 1013.3606,491.4306 C1013.6406,491.7106 1013.9506,491.9706 1014.2806,492.1906 C1005.1716,496.0156 996.9426,500.2676 990.3146,504.5666 C993.3626,514.9026 997.0426,525.0476 1001.4386,534.8366 C1003.0096,538.3336 997.8376,541.3816 996.2586,537.8646 C990.6706,525.4226 986.1616,512.4786 982.6286,499.2766 C978.2286,493.3436 973.1376,488.0216 966.5406,484.7006 C953.8106,480.0706 937.7606,478.4706 920.4596,478.9906 C920.1806,478.4906 919.8106,478.0106 919.3606,477.5606 C913.6296,472.0406 911.3606,463.2606 908.5106,455.9506 C900.2206,434.6206 893.1696,412.7906 887.3796,390.6406 C881.6806,368.7106 878.1496,346.2606 872.2296,324.3806 C871.0306,320.5506 867.2996,302.0506 863.8206,303.0706 C863.8906,303.4906 863.9506,303.9006 864.0106,304.3206 C863.8306,304.2006 863.6296,304.1506 863.4306,304.1606 C862.0306,349.4206 873.8606,395.0106 887.4106,438.0206 C891.1606,452.3506 899.6806,465.7606 902.4106,480.2206 C890.5406,481.4506 878.4396,483.4706 866.7096,486.0206 C866.5406,485.0706 866.2996,484.1306 866.0196,483.1806 C865.8606,481.8606 865.4596,480.8206 864.8796,480.0306 C863.3996,476.4106 861.4396,472.8806 859.9906,469.6206 C857.0106,462.8806 854.0496,456.1406 851.1206,449.3706 C835.1696,412.3506 820.0706,374.9306 806.7496,336.8706 C790.3206,290.7206 776.8906,243.6806 763.9306,196.5106 C772.6106,201.1606 789.2996,191.8706 799.5306,213.1006 C801.7406,218.4506 806.6496,222.2706 812.7406,220.6006 C818.0806,219.1306 822.1206,212.9006 820.2406,207.3906 C819.9706,206.4906 819.6806,205.6006 819.3506,204.7306 C809.3796,175.1606 801.3106,144.8106 786.9306,116.9806 C823.8396,120.7106 867.4996,123.3606 887.7696,158.9506 M1231.5706,653.2406 C1234.7606,668.3306 1232.7096,684.2006 1231.8506,699.5606 C1217.2606,680.1706 1198.7696,663.6206 1177.1406,652.6006 C1175.7006,642.9006 1169.5896,634.4506 1166.7696,625.0306 C1161.5606,611.7406 1157.3396,598.1606 1153.5406,584.4506 C1188.8106,591.8006 1223.1406,617.4206 1231.5706,653.2406 M1103.6936,768.8326 C1115.6686,833.4556 1134.6896,896.4546 1148.6216,960.6406 C1149.4396,964.4116 1143.6546,966.0076 1142.8356,962.2356 C1128.9036,898.0496 1109.8836,835.0506 1097.9076,770.4276 C1097.2076,766.6466 1102.9906,765.0416 1103.6936,768.8326 M1097.5476,1362.9626 C1107.1056,1364.3016 1116.6436,1365.4716 1126.2586,1366.4916 C1107.1176,1374.4996 1089.2686,1372.5426 1073.6956,1358.3896 C1081.6676,1360.3296 1089.7016,1361.8126 1097.5476,1362.9626 M1519.2846,1458.1876 C1518.7456,1455.6236 1517.3296,1453.9606 1515.5446,1453.0606 C1515.8166,1399.2786 1402.7716,1381.7976 1368.5166,1347.5496 C1352.8456,1336.4716 1341.4446,1318.1716 1323.2446,1311.3126 C1333.5426,1295.3766 1330.7756,1274.8676 1328.4906,1256.9606 C1323.4926,1224.2896 1310.9336,1187.7766 1307.6496,1167.5806 C1282.8706,1063.7706 1258.8396,959.7106 1230.7996,856.7206 C1230.2296,854.7506 1229.1696,850.8506 1227.8396,846.5406 C1230.8606,847.2706 1233.7496,847.5106 1236.4596,847.1606 C1275.7896,838.4406 1266.9596,758.8806 1257.7206,730.0506 C1256.7296,726.6506 1254.4196,724.5006 1251.7096,723.4906 C1252.0596,721.7306 1251.7406,719.8606 1250.4906,718.0706 C1249.8206,717.1106 1248.7896,716.4206 1247.6696,716.0706 C1246.4796,688.7106 1253.3096,659.3006 1238.9106,634.3006 C1222.7296,606.9606 1184.1296,584.3406 1153.0706,582.7506 C1148.6206,566.6306 1144.7206,550.3506 1140.4196,534.2006 C1135.7006,517.2906 1128.9796,499.1206 1114.8506,487.7806 C1096.5706,471.5206 1057.5496,476.4806 1025.1806,487.9706 C1026.9506,479.5006 1022.9196,471.8406 1020.4506,463.9006 C1012.3996,440.1406 1004.1106,416.4606 995.6496,392.8506 C965.2806,313.2506 940.3396,230.7406 902.3506,154.4206 C886.6206,128.5506 856.3706,116.8906 827.3306,114.4906 C813.7096,113.1206 799.2206,112.5906 785.4706,114.2006 C785.0306,113.3606 784.5806,112.5306 784.1206,111.7006 C772.8506,92.1706 749.9796,55.8106 723.6606,62.0506 C720.8796,43.4806 720.8396,24.4506 723.1296,5.8706 C723.2906,4.5506 721.1296,3.9806 720.5896,5.1806 C703.1496,44.3006 706.3906,92.4406 727.6696,129.4806 C729.2296,132.0506 731.3506,133.3806 733.5496,133.7606 C736.9396,172.6506 745.4106,211.0306 755.8606,248.7006 C754.2906,248.7606 752.7806,249.0906 751.5196,249.6506 C718.1806,261.8606 681.5196,263.8506 646.8206,256.7206 C637.0496,254.6606 627.5896,251.8906 618.0796,249.0706 C616.2806,242.8306 614.4796,236.6106 612.6696,230.3806 C608.1296,210.7006 606.9706,191.7906 595.4506,175.9406 C594.7696,174.7706 594.0706,173.6106 593.3996,172.4506 C584.1496,155.6706 574.7496,138.9806 565.2806,122.3306 C562.9796,119.6006 547.6006,89.2906 535.6296,70.9606 C537.1296,70.9206 538.6806,70.5406 540.1896,69.7806 C548.6296,65.5706 548.5396,53.3606 550.0796,45.1706 C554.7996,19.7206 560.2606,-5.7694 561.7606,-31.6594 C561.8396,-32.9794 559.8206,-33.5394 559.2296,-32.3394 C547.7206,-9.5194 539.7406,14.9006 531.2206,38.9506 C531.0496,39.4306 530.8706,39.9206 530.6806,40.4206 C522.7806,30.4606 508.9106,28.0906 496.8296,30.7706 C476.6406,36.0406 466.4596,52.4506 460.5896,71.1106 C402.5396,98.8206 333.4596,70.5206 298.2296,143.8306 C282.3606,182.1406 282.6606,225.5806 292.9396,270.7906 C266.1696,407.8406 257.7896,548.0406 263.3606,687.4906 C261.3796,781.8206 203.5196,863.6606 186.9396,955.4606 C178.6696,991.6406 173.4796,1028.7306 174.1206,1065.9006 C172.8506,1085.5406 181.5106,1114.5406 206.6696,1106.9006 C209.5396,1105.8706 212.1406,1104.2906 214.5396,1102.3806 C225.0496,1261.4206 347.6106,1292.1806 488.8706,1264.7906 C494.5896,1264.8906 500.2096,1263.5706 506.2206,1261.8806 C509.1406,1261.0106 512.0396,1260.1006 514.9396,1259.1406 C517.1206,1258.6206 519.3096,1258.0906 521.4996,1257.5406 C523.1226,1257.2096 524.7496,1256.8956 526.3756,1256.5746 C566.6516,1229.9436 608.4866,1205.6856 648.2796,1178.3036 C651.0846,1176.3726 654.5206,1180.8586 651.9146,1183.0156 C625.3326,1204.9996 599.3116,1227.9446 571.6526,1248.6096 C650.4546,1236.0816 730.6426,1238.2166 804.2206,1205.7506 C855.8506,1183.1606 904.4396,1137.8906 933.7006,1089.0506 C934.1426,1089.8266 934.5736,1090.6056 935.0116,1091.3826 C933.5896,1087.3416 932.1696,1083.3006 930.7646,1079.2546 C905.8216,1007.4236 883.2536,934.7496 855.9886,863.7396 C854.6006,860.1256 860.4036,858.5766 861.7736,862.1446 C869.4176,882.0536 876.7046,902.0966 883.7656,922.2196 C909.0366,994.2356 931.6256,1067.1856 958.5416,1138.6246 C958.6966,1139.0346 958.7486,1139.4156 958.7356,1139.7686 C964.3566,1153.6316 968.9546,1167.7546 972.1406,1182.2306 C975.4436,1197.3786 980.2736,1229.7326 985.0526,1256.9606 C989.2376,1279.4166 992.2856,1305.4636 1007.8796,1322.7006 C1007.8616,1322.7366 1007.8446,1322.7716 1007.8256,1322.8086 L1007.8266,1322.8086 C1007.2766,1323.8806 1006.7506,1324.9426 1006.2376,1325.9996 C1007.3426,1327.1006 1008.7456,1327.8216 1010.0436,1328.6446 C1010.2446,1327.7006 1010.4396,1326.7616 1010.6606,1325.8006 C1014.4536,1329.8256 1018.6626,1333.4426 1023.1836,1336.7076 C1018.0856,1374.4206 980.1006,1410.9546 999.7696,1450.4316 C990.3946,1472.0116 1013.4046,1489.5696 1032.3416,1494.0226 C1061.3726,1503.3066 1091.3316,1510.2876 1121.0636,1516.9146 C1179.9266,1527.8886 1364.1536,1568.4556 1408.2516,1536.8776 C1407.6196,1530.1376 1415.9076,1508.2386 1406.1256,1507.9156 C1410.4626,1503.6346 1414.0576,1498.6296 1416.7806,1493.1966 C1443.7696,1501.9806 1473.7636,1498.8346 1501.2436,1495.5936 C1523.4676,1496.0736 1522.6526,1474.4226 1519.2846,1458.1876" id="ðŸ–-Ink" fill="#000000"></path>
    </g>
</svg>