<?xml version="1.0" encoding="UTF-8"?>
<svg width="1534px" height="1856px" viewBox="0 0 1534 1856" version="1.1" xmlns="http://www.w3.org/2000/svg" xmlns:xlink="http://www.w3.org/1999/xlink">
    <!-- Generator: Sketch 62 (91390) - https://sketch.com -->
    <title>pose/sitting/closed_legs-2</title>
    <desc>Created with Sketch.</desc>
    <g id="pose/sitting/closed_legs-2" stroke="none" stroke-width="1" fill="none" fill-rule="evenodd">
        <path d="M1508.3616,1440.94804 C1478.6816,1398.70604 1416.11866,1391.71303 1375.92766,1362.11203 C1354.75466,1345.87603 1332.34974,1335.12981 1315.89574,1313.26881 C1342.09374,1282.48381 1309.69474,1210.31781 1303.02874,1168.64281 C1276.60974,1059.53181 1252.17474,948.676812 1220.75274,839.694812 C1275.20574,856.649812 1261.01974,755.130812 1253.24274,731.655812 C1252.70474,728.428812 1248.70874,727.784812 1246.25974,726.767812 C1246.94474,722.158812 1248.83174,721.147812 1243.11074,719.874812 C1241.19774,692.253812 1249.01074,661.324812 1234.88974,636.924812 C1218.97374,610.292812 1180.92774,588.004812 1149.49374,587.636812 C1127.41174,499.926812 1123.36574,458.557812 1018.74874,495.737812 C1021.06274,487.194812 1021.78174,479.359812 1017.75074,470.729812 C1002.01874,423.182812 982.248743,371.167812 965.056743,322.983812 C945.242743,267.534812 924.753743,210.197812 898.253743,156.920812 C879.797743,123.088812 822.056743,114.043812 782.918743,119.644812 C773.582743,103.169812 750.048743,57.5998116 720.278743,68.1358116 C720.054743,54.3918116 719.841743,40.6478116 719.663743,26.9028116 C719.509743,14.9548116 720.766743,2.7038116 716.173743,-8.6401884 C711.307743,-20.6571884 701.400743,-26.9991884 689.764743,-31.5991884 C654.544743,-43.2351884 614.081743,-61.9291884 576.915743,-50.3621884 C544.443743,-35.5391884 548.225743,20.1988116 532.511743,50.4978116 C510.489743,17.8388116 472.934743,39.7368116 464.989743,74.7628116 C374.524743,110.829812 296.767743,69.8568116 290.978743,211.437812 C295.966743,237.246812 300.207743,261.455812 297.843743,287.517812 L295.106743,287.797812 C271.952743,413.246812 263.048743,547.721812 268.645743,687.521812 C267.524743,742.565812 247.469743,793.940812 228.075743,843.612812 C213.810743,880.136812 199.080743,917.903812 192.097743,956.652812 C184.354743,988.925812 155.891743,1144.12181 219.182743,1092.59781 C221.607743,1269.15981 378.913743,1291.76481 520.568743,1252.76581 C670.949743,1221.49681 840.239743,1230.48681 934.093743,1079.21481 C965.932743,1133.71081 976.917743,1167.35681 984.909743,1224.34381 C993.680743,1266.08981 1006.4166,1313.5016 1029.8276,1341.1146 C1009.66958,1377.40704 999.796665,1421.61735 1000.7696,1450.4316 C1001.15178,1461.75005 995.976425,1466.99123 1003.4146,1474.02681 C1039.09652,1507.77745 1118.70777,1508.15617 1179.24441,1523.18217 C1220.75274,1528.46613 1370.84393,1548.6802 1393.78174,1535.50381 C1409.77874,1539.97781 1391.17536,1498.33907 1407.17136,1497.45007 C1412.6443,1497.4907 1413.37683,1490.51925 1418.9966,1490.77541 C1454.87408,1492.41076 1532.22592,1502.95894 1513.5243,1474.02681 L1508.3616,1440.94804 Z" id="ðŸŽ¨-Background" fill="#FFFFFF"></path>
        <path d="M1499.4545,1481.8336 C1473.0025,1487.5496 1445.7965,1485.9536 1418.9965,1488.1876 C1419.8625,1485.9426 1420.5885,1483.6456 1421.1565,1481.3106 C1448.8495,1477.9566 1477.8925,1476.3646 1504.2945,1467.2096 C1504.9175,1470.1876 1505.3845,1473.1986 1505.5695,1476.2386 C1505.5945,1476.6456 1505.5395,1481.1936 1506.1885,1480.3536 C1505.3845,1481.3956 1500.6545,1481.6076 1499.4545,1481.8336 M1365.8155,1413.1636 C1317.4965,1397.2776 1266.2375,1383.5806 1229.0975,1346.5706 C1263.4575,1334.1016 1288.1905,1349.9946 1317.7255,1318.0796 C1318.8505,1318.3196 1319.9415,1318.6566 1321.0025,1319.0736 C1352.7215,1373.0606 1420.2985,1383.3436 1469.7895,1414.6246 C1489.8515,1426.3076 1527.2185,1457.7716 1479.4135,1458.4766 C1460.5425,1461.3396 1441.5625,1463.4576 1422.5325,1464.9206 C1421.0645,1434.5226 1390.9705,1421.2056 1365.8155,1413.1636 M1399.4675,1491.0226 C1389.8945,1504.0836 1372.6115,1509.2446 1356.9755,1507.9676 C1345.4755,1506.4046 1335.3275,1502.3576 1323.3665,1503.2296 C1232.6935,1499.7836 1143.5295,1480.9896 1055.1095,1461.8036 C975.9075,1446.9346 1036.4335,1388.4286 1029.8255,1341.1006 C1041.0015,1347.9206 1053.6745,1352.8996 1066.7185,1356.5566 C1083.5265,1403.3686 1129.4585,1391.1486 1161.9935,1368.7226 C1193.8215,1371.2536 1199.3345,1360.5126 1225.3585,1348.0756 C1253.3375,1398.2346 1315.9725,1409.4166 1365.5055,1428.4726 C1395.6075,1436.5896 1420.2565,1459.8656 1399.4675,1491.0226 M1397.8225,1532.8566 C1372.3765,1540.4686 1345.4475,1539.1486 1319.1925,1537.0056 C1232.9415,1529.5256 1147.2625,1514.8156 1063.5865,1492.5626 C1043.7415,1487.2826 1005.2415,1481.1526 1003.4145,1456.2306 C1021.0795,1479.4126 1052.6155,1482.1436 1079.1085,1488.1216 C1166.0705,1505.1776 1255.1465,1527.2046 1344.0835,1522.9576 C1362.8665,1528.3056 1383.3385,1524.0836 1399.2305,1513.6706 C1398.7255,1520.0636 1398.2675,1526.4596 1397.8225,1532.8566 M1126.2585,1366.4916 C1107.1025,1374.5086 1089.2375,1372.5336 1073.6625,1358.3606 C1091.4505,1362.7076 1108.4555,1364.4956 1126.2585,1366.4916 M1014.3295,1294.2706 C1005.7405,1272.8306 996.9795,1208.5306 992.6895,1186.1106 C984.2095,1143.4706 964.7095,1104.3506 941.8605,1066.4106 C895.0375,988.6756 834.1425,915.9156 824.9845,828.0596 C825.1565,822.9116 825.3495,817.7656 825.4475,812.6176 C825.6525,801.9096 826.6265,790.3016 824.6065,779.7876 C824.5385,779.4386 824.0775,779.5156 823.9735,779.7876 C819.9585,790.3166 818.7335,802.8206 817.1855,813.9936 C815.7525,824.3326 814.5755,834.6316 814.4935,845.0806 C814.4155,855.0096 815.0585,865.1136 817.3395,874.8036 C817.4315,875.1926 817.5265,875.5816 817.6215,875.9706 C816.2745,879.8336 814.8055,883.6546 813.1895,887.4156 C809.3665,896.3126 805.1035,905.0576 800.8255,913.7436 C792.1365,931.3816 783.3925,948.9926 774.5975,966.5786 C765.6345,984.4986 756.7115,1002.4396 747.5545,1020.2616 C744.7035,1025.8116 742.0255,1031.4526 739.4195,1037.1326 C716.7685,1071.4856 692.1355,1104.5216 665.5195,1135.9006 C642.3995,1160.9106 621.8095,1190.8306 590.4705,1205.9906 C559.3605,1221.8206 525.4105,1231.7506 493.5105,1245.6106 C368.0195,1267.5906 253.5495,1267.7106 221.9905,1094.9406 C225.1605,1091.1606 228.0495,1087.1206 230.9105,1083.5906 C246.4505,1064.3806 261.3505,1044.6606 276.2805,1024.9806 C304.4505,987.8506 332.8795,950.4506 367.2405,918.7406 C436.4195,860.0106 512.7005,807.6106 563.5395,730.6006 C568.3395,724.2606 572.2695,717.3706 574.8995,709.9506 C608.9705,723.5406 647.3505,726.7706 683.7405,728.2006 C732.6405,730.1206 781.5595,732.1406 830.4795,733.4506 C844.1895,753.0706 886.6895,754.8006 906.8795,758.0906 C911.0195,758.5406 914.4795,754.9006 915.7095,751.3706 C919.1105,741.6006 922.6405,731.8906 926.2695,722.2206 C969.3895,730.3176 1012.7115,737.2666 1055.9295,744.8966 C1058.8395,747.3246 1059.9975,750.6526 1061.1115,754.8266 C1062.8245,761.2496 1064.4735,767.6876 1066.2115,774.1026 C1069.5115,786.2786 1073.2175,798.3696 1076.6335,810.5246 C1078.5365,817.2966 1080.2015,824.4006 1082.4345,831.2586 C1119.8855,990.2856 1172.6865,1166.6466 1210.6205,1316.1306 C1211.8665,1321.6606 1212.9585,1328.8736 1212.0175,1334.8696 C1205.3385,1340.0656 1198.3035,1344.2896 1190.7525,1347.8186 C1137.4515,1344.0866 1041.1235,1351.7526 1014.3295,1294.2706 M641.9795,1218.7806 C626.5105,1220.7706 610.7695,1223.3606 594.8995,1226.2406 C608.7805,1220.0206 621.8205,1212.2306 632.3705,1200.9906 C707.8395,1124.7006 769.0795,1033.3406 808.6205,933.4606 C814.0155,920.0326 819.4785,906.4526 824.1235,892.6696 C824.9675,893.9456 825.9095,895.1566 826.9665,896.2876 C845.2685,956.6596 886.8825,1011.7256 921.6695,1068.7006 C867.2405,1169.1106 747.4995,1202.6806 641.9795,1218.7806 M213.5245,1103.1356 C213.8635,1102.8846 214.2085,1102.6446 214.5395,1102.3806 C214.5715,1102.8546 214.6165,1103.3136 214.6495,1103.7856 C214.2745,1103.5676 213.8975,1103.3536 213.5245,1103.1356 M481.9135,179.5856 C486.6685,193.8476 491.5205,208.0916 499.0415,221.1426 C511.3515,213.1486 521.5735,202.1426 534.3705,194.9736 C547.5835,187.5716 560.9955,189.5706 573.8465,196.8016 C577.2155,198.6966 574.1875,203.8776 570.8185,201.9816 C564.3275,198.3296 557.1815,195.3936 549.5835,196.0776 C543.6425,196.6116 538.2945,199.3556 533.4085,202.6226 C521.6605,210.4796 511.7305,220.6036 499.5425,227.9016 C498.1255,228.7506 496.2775,228.1956 495.4385,226.8256 C486.7375,212.6336 481.3665,196.8916 476.1275,181.1816 C474.9015,177.5036 480.6985,175.9406 481.9135,179.5856 M601.4945,523.3926 C604.6985,525.5226 601.6905,530.7176 598.4665,528.5736 C562.2155,504.4626 560.0745,456.5316 538.6385,422.0896 C536.5895,418.7986 541.7825,415.7896 543.8185,419.0616 C564.4775,452.2546 566.6835,500.2396 601.4945,523.3926 M726.6605,273.1306 C734.3205,271.1206 751.2295,269.1106 760.0195,263.3306 C781.1495,335.7906 809.9105,405.8106 839.8295,475.0406 C841.8905,479.7606 843.7295,486.0106 846.6405,490.9606 C831.9705,495.0206 818.5705,499.7206 807.8295,504.4606 C794.4485,510.3236 781.3535,517.2106 768.9455,525.1466 C758.0525,531.5176 747.6485,538.6176 737.8215,546.4676 C734.8135,545.8396 731.8075,545.2106 728.7995,544.5706 C718.6205,542.3706 708.3095,540.0206 698.3795,536.6706 C695.8395,530.4406 695.0105,523.1206 692.8505,516.9806 C689.1005,503.5106 685.3505,490.0306 681.6005,476.5606 C661.4905,405.0706 642.1695,333.3506 621.7695,261.9406 C653.9795,276.8706 692.1805,278.9506 726.6605,273.1306 M766.4315,212.4176 C769.1925,200.7646 774.8225,186.3856 789.0595,186.8126 C799.9685,187.1416 810.4095,193.5416 820.2905,198.3516 C819.8285,194.8266 817.3415,191.8196 815.1175,188.8096 C812.8185,185.6986 818.0285,182.7096 820.2985,185.7816 C824.3755,191.2996 827.8105,196.6316 825.7845,203.6456 C825.1975,205.6786 823.1415,206.2026 821.3775,205.4376 C811.7565,201.2676 802.0455,194.7886 791.5595,193.0696 C778.8315,190.9836 774.6095,203.9146 772.2165,214.0136 C771.3255,217.7746 765.5415,216.1726 766.4315,212.4176 M952.6005,495.5906 C965.7205,498.3706 971.9705,510.1506 978.5595,520.6706 C994.9505,546.8206 1010.6695,573.3906 1025.7605,600.3106 C1029.8505,607.6006 1033.8905,614.9206 1037.8795,622.2706 C1038.9595,624.0806 1039.9105,626.0406 1040.8905,627.9706 C1016.5795,625.8006 992.5705,622.2206 969.6805,613.2806 C974.4795,602.4106 966.3295,600.5506 957.1895,594.2306 C947.3995,588.1006 937.0495,582.4706 925.8095,579.5006 C919.3795,577.8006 904.5895,577.4306 902.8505,585.9706 C902.0395,583.6606 900.3295,581.6306 897.7495,580.6506 C879.4795,574.6406 860.0705,572.4206 841.3605,567.9606 C809.7325,561.2946 778.0565,554.8876 746.4165,548.2676 C754.9365,542.8346 763.6285,537.6736 772.4775,532.8286 C800.2425,518.8756 829.7515,507.9136 860.0595,501.2706 C890.4195,494.6006 921.5895,492.2706 952.6005,495.5906 M882.8085,281.5376 C891.4475,326.5856 898.5865,371.9636 910.4565,416.3216 C911.4575,420.0626 905.6675,421.6436 904.6705,417.9166 C892.8005,373.5586 885.6625,328.1816 877.0225,283.1326 C876.2985,279.3536 882.0815,277.7496 882.8085,281.5376 M1105.2205,496.1306 C1131.9995,520.7106 1130.2405,561.9006 1141.7495,594.2606 C1146.6205,611.1006 1152.1695,627.7606 1158.9905,643.9206 C1159.1405,644.2806 1159.2895,644.6406 1159.4395,645.0006 C1127.2605,633.4006 1092.9705,631.8006 1058.8505,629.3806 C1058.5895,628.2306 1058.2095,627.1706 1057.7205,626.3006 C1052.2405,615.7606 1046.2895,605.4306 1040.5495,595.0206 C1025.2895,567.8206 1009.2995,541.0406 992.6695,514.6506 C991.6295,513.0106 990.5895,511.3206 989.5305,509.6306 C1024.6805,498.1306 1074.2995,476.5506 1105.2205,496.1306 M1231.5705,653.2406 C1234.7605,668.3306 1232.7095,684.2006 1231.8505,699.5606 C1217.2605,680.1706 1198.7695,663.6206 1177.1405,652.6006 C1175.7005,642.9006 1169.5895,634.4506 1166.7695,625.0306 C1161.5595,611.7406 1157.3395,598.1606 1153.5395,584.4506 C1188.8095,591.8006 1223.1405,617.4206 1231.5705,653.2406 M903.3505,589.8606 C903.3705,589.5206 903.3795,589.1906 903.3705,588.8506 C903.3905,588.8406 903.4105,588.8306 903.4195,588.8206 C904.3395,587.9206 905.3605,587.2306 906.4795,586.7406 C905.4195,587.7506 904.3795,588.7906 903.3505,589.8606 M908.6105,718.8306 C906.0105,725.4706 903.4595,732.1306 900.9505,738.8006 C888.5195,736.6706 862.0595,731.6506 851.2295,725.9306 C855.0895,726.0606 858.9105,724.0506 859.8905,719.4406 C860.3205,717.4006 860.9995,715.4906 861.5305,713.5006 C868.0595,692.2106 873.6295,670.4906 882.8505,650.0806 C891.8705,628.5306 902.6005,607.5906 910.7995,585.7206 C924.7005,584.8406 946.6605,602.1006 956.5895,609.1406 C938.8795,644.8706 923.1495,681.5206 908.6695,718.6706 C908.3995,718.6706 908.1205,718.6706 907.8505,718.6806 C908.1005,718.7306 908.3605,718.7806 908.6105,718.8306 M1239.1405,742.1206 C1240.1205,747.4306 1241.2295,752.7006 1241.9795,758.0606 C1243.8795,779.0106 1246.4705,801.0806 1238.3905,821.1806 C1233.3795,833.4906 1223.1105,823.5906 1216.2995,818.7706 C1205.2205,811.0306 1195.0195,802.1506 1184.8505,793.2706 C1153.6105,763.8806 1117.1005,738.8906 1073.2805,734.7606 C1025.9705,728.1806 974.7095,719.9606 927.5705,718.7606 C940.4505,684.5706 954.4195,650.8406 967.9305,616.8606 C992.9995,630.9206 1021.2995,636.0606 1050.2005,639.3406 C1050.8795,639.6806 1051.6005,639.9806 1052.3795,640.2206 C1053.7495,640.5006 1054.8995,640.3706 1055.8205,639.9506 C1094.3605,644.0306 1133.6695,645.6306 1167.5705,661.4006 C1180.6895,667.5006 1192.9995,675.7206 1204.1405,687.0406 C1216.3295,698.7206 1226.1495,712.8206 1232.7405,728.3806 C1234.7995,733.1806 1235.8905,738.1706 1239.1405,742.1206 M1293.3505,1194.2106 C1299.4195,1225.7306 1324.6205,1295.9606 1286.7495,1313.4406 C1269.8385,1322.8146 1248.5445,1317.4056 1231.7895,1325.9906 C1231.3605,1320.6106 1230.3505,1315.2806 1229.1405,1310.3406 C1180.3145,1150.7526 1135.1775,941.8346 1078.3115,782.3666 C1076.5225,775.8906 1074.7065,769.4226 1072.7685,762.9886 C1071.1495,757.6126 1069.8725,751.8766 1067.4955,746.9416 C1083.3145,749.8466 1099.0465,753.2616 1113.4195,760.7206 C1143.7605,773.0606 1186.2495,826.6506 1217.9705,842.7406 C1219.2295,854.5806 1222.7095,866.3706 1224.4905,878.0606 C1246.9995,983.5306 1270.4905,1088.8006 1293.3505,1194.2106 M1519.2845,1458.1876 C1518.7455,1455.6236 1517.3295,1453.9606 1515.5445,1453.0606 C1515.8165,1399.2786 1402.7725,1381.7976 1368.5165,1347.5496 C1352.8445,1336.4716 1341.4445,1318.1716 1323.2435,1311.3126 C1323.5715,1310.8536 1323.9125,1310.4076 1324.2295,1309.9406 C1343.5305,1278.1206 1313.0495,1200.7906 1307.6495,1167.5806 C1282.8705,1063.7706 1258.8395,959.7106 1230.7995,856.7206 C1230.2295,854.7506 1229.1695,850.8506 1227.8395,846.5406 C1230.8605,847.2706 1233.7495,847.5106 1236.4595,847.1606 C1275.7895,838.4406 1266.9595,758.8806 1257.7205,730.0506 C1256.7295,726.6506 1254.4195,724.5006 1251.7095,723.4906 C1252.0595,721.7306 1251.7405,719.8606 1250.4905,718.0706 C1249.8205,717.1106 1248.7895,716.4206 1247.6695,716.0706 C1246.4795,688.7106 1253.3095,659.3006 1238.9105,634.3006 C1222.7295,606.9606 1184.1295,584.3406 1153.0705,582.7506 C1148.6205,566.6306 1144.7205,550.3506 1140.4195,534.2006 C1135.7005,517.2906 1128.9795,499.1206 1114.8505,487.7806 C1096.5705,471.5206 1057.5495,476.4806 1025.1805,487.9706 C1026.9505,479.5006 1022.9195,471.8406 1020.4505,463.9006 C1012.3995,440.1406 1004.1105,416.4606 995.6495,392.8506 C965.2805,313.2506 940.3395,230.7406 902.3505,154.4206 C886.6205,128.5506 856.3705,116.8906 827.3295,114.4906 C813.7095,113.1206 799.2205,112.5906 785.4705,114.2006 C785.0305,113.3606 784.5795,112.5306 784.1205,111.7006 C772.8505,92.1706 749.9795,55.8106 723.6605,62.0506 C720.8795,43.4806 720.8395,24.4506 723.1295,5.8706 C723.2895,4.5506 721.1295,3.9806 720.5895,5.1806 C703.1495,44.3006 706.3905,92.4406 727.6695,129.4806 C729.2295,132.0506 731.3505,133.3806 733.5495,133.7606 C736.9395,172.6506 745.4105,211.0306 755.8605,248.7006 C754.2895,248.7606 752.7805,249.0906 751.5195,249.6506 C718.1805,261.8606 681.5195,263.8506 646.8205,256.7206 C637.0495,254.6606 627.5895,251.8906 618.0795,249.0706 C616.2805,242.8306 614.4795,236.6106 612.6695,230.3806 C608.1295,210.7006 606.9705,191.7906 595.4505,175.9406 C594.7695,174.7706 594.0705,173.6106 593.3995,172.4506 C584.1495,155.6706 574.7495,138.9806 565.2805,122.3306 C562.9795,119.6006 547.6005,89.2906 535.6295,70.9606 C537.1295,70.9206 538.6805,70.5406 540.1895,69.7806 C548.6295,65.5706 548.5395,53.3606 550.0795,45.1706 C554.7995,19.7206 560.2605,-5.7694 561.7605,-31.6594 C561.8395,-32.9794 559.8205,-33.5394 559.2295,-32.3394 C547.7205,-9.5194 539.7405,14.9006 531.2205,38.9506 C531.0495,39.4306 530.8705,39.9206 530.6805,40.4206 C522.7805,30.4606 508.9105,28.0906 496.8295,30.7706 C476.6405,36.0406 466.4595,52.4506 460.5895,71.1106 C402.5395,98.8206 333.4595,70.5206 298.2295,143.8306 C289.4045,165.1356 285.5855,188.0276 285.6975,211.9286 C286.9485,217.3606 287.8995,222.8706 288.7585,228.3306 C290.8365,241.5416 292.2115,254.8596 294.5515,268.0286 C297.1095,282.4196 301.1935,296.5746 305.6955,310.4656 C315.6285,341.1146 328.8065,370.5456 341.6435,400.0536 C343.1695,403.5626 337.9985,406.6126 336.4625,403.0816 C329.3925,386.8306 322.2245,370.6196 315.5205,354.2126 C305.8155,330.4616 296.6635,305.9466 291.0305,280.7856 C265.7805,414.6536 257.9255,551.4286 263.3605,687.4906 C261.3795,781.8206 203.5195,863.6606 186.9395,955.4606 C178.6695,991.6406 173.4795,1028.7306 174.1205,1065.9006 C172.9775,1083.5726 179.8815,1108.8066 199.6035,1108.1246 C203.0595,1109.5226 206.5055,1110.7816 209.9895,1111.9846 C210.9695,1112.3546 211.9075,1112.6736 212.7735,1112.9376 C213.7515,1113.2366 214.6515,1113.1736 215.4365,1112.8806 C230.5845,1262.7506 350.7835,1291.5646 488.8705,1264.7906 C494.5895,1264.8906 500.2095,1263.5706 506.2205,1261.8806 C509.1405,1261.0106 512.0395,1260.1006 514.9395,1259.1406 C517.1205,1258.6206 519.3095,1258.0906 521.4995,1257.5406 C615.9505,1238.3106 714.9505,1235.1406 804.2205,1195.7506 C855.8505,1173.1606 904.4395,1137.8906 933.7005,1089.0506 C950.7605,1119.0206 964.9905,1149.7406 972.1405,1182.2306 C977.2495,1205.6606 986.0105,1270.2606 992.5895,1293.3706 C995.6605,1304.8706 1000.9595,1314.5506 1007.8795,1322.7006 C1007.8615,1322.7366 1007.8445,1322.7716 1007.8255,1322.8086 C1013.7585,1326.1346 1019.0315,1330.5306 1023.2525,1335.8166 C1018.7565,1373.9446 979.8975,1410.6166 999.7685,1450.4316 C990.3935,1472.0116 1013.4045,1489.5696 1032.3415,1494.0226 C1061.3725,1503.3066 1091.3305,1510.2876 1121.0635,1516.9146 C1179.9255,1527.8886 1364.1535,1568.4556 1408.2515,1536.8776 C1407.6195,1530.1376 1415.9065,1508.2386 1406.1255,1507.9156 C1410.4625,1503.6346 1414.0575,1498.6296 1416.7805,1493.1966 C1443.7695,1501.9806 1473.7635,1498.8346 1501.2435,1495.5936 C1523.4675,1496.0736 1522.6525,1474.4226 1519.2845,1458.1876" id="ðŸ–-Ink" fill="#000000"></path>
    </g>
</svg>