<?xml version="1.0" encoding="UTF-8"?>
<svg width="1534px" height="1856px" viewBox="0 0 1534 1856" version="1.1" xmlns="http://www.w3.org/2000/svg" xmlns:xlink="http://www.w3.org/1999/xlink">
    <!-- Generator: Sketch 62 (91390) - https://sketch.com -->
    <title>pose/sitting/crossed_legs</title>
    <desc>Created with Sketch.</desc>
    <g id="pose/sitting/crossed_legs" stroke="none" stroke-width="1" fill="none" fill-rule="evenodd">
        <path d="M1677.94359,728.296212 C1670.31005,726.102973 1660.77304,725.539174 1652.42169,725.138526 C1622.90384,723.401696 1592.80554,737.476012 1563.86297,743.819264 C1551.19342,746.951135 1537.77819,750.639576 1524.22043,753.38732 C1512.184,755.020891 1499.74064,756.246585 1487.23015,757.026197 C1477.11786,757.328748 1465.351,756.5543 1461.8983,767.185933 C1441.5725,771.127361 1423.57983,772.766094 1404.20422,769.416345 C1406.01887,763.242439 1407.05272,756.788699 1405.17609,750.138766 C1406.12319,748.563021 1407.41214,746.431738 1408.10103,744.995393 L1405.77203,744.995393 C1371.76349,731.381616 1334.98805,722.0841 1300.80084,707.978806 C1256.17909,691.896086 1190.46107,660.822102 1138.90294,639.603238 C1142.39799,620.460929 1143.69314,601.011938 1142.21105,582.104029 L1144.28288,580.429154 C1144.9635,576.713865 1146.02111,572.267497 1147.93801,568.900193 C1150.37029,562.446453 1150.42709,553.637356 1151.39278,546.343081 C1153.40677,532.075669 1154.75149,510.593492 1151.08603,493.653716 C1149.48517,470.681499 1134.00017,452.972437 1117.30368,438.766981 C1096.80334,418.491911 1076.27717,398.710424 1056.26431,377.652645 C945.502126,264.732847 936.742821,122.509972 763.350729,79.2854036 L763.266038,78.6142147 C761.899624,77.0900994 761.340871,75.8809267 759.784419,78.2899788 C754.059525,76.0957072 746.920707,76.2795097 742.126379,72.5704163 C733.61495,64.8063089 727.576081,55.8433549 723.627629,45.2065588 C720.585988,25.0998029 722.738375,-5.88950757 705.123714,-18.754651 C685.559098,-30.4746428 581.608327,-38.8190704 572.643492,-13.1951412 C567.081783,-7.97122594 564.551386,-1.33471605 562.813159,6.79080071 C557.021132,17.7466697 553.367032,29.8951898 547.53266,41.0193723 C535.128551,65.9700473 527.088085,60.4404829 505.188275,66.1424913 C502.810734,60.8442289 495.594455,61.9119356 490.335361,62.6812214 C426.647853,71.6317843 348.999783,96.0578993 321.7314,155.921759 L324.052135,155.625403 C276.983654,244.06126 307.508503,356.527747 315.926979,450.245344 C322.736329,533.55022 314.948903,617.251613 296.442923,694.955675 C273.728221,777.389037 272.424808,869.596976 317.492727,944.213569 C322.073262,952.75419 327.650463,964.824233 337.519011,959.46608 C342.926831,963.555169 349.001849,966.379326 357.392438,968.838975 C359.705944,970.516948 362.101042,973.335941 364.522994,974.539951 C364.636603,974.703102 368.53548,972.455135 368.739978,972.395244 C376.109113,982.912259 780.667939,1018.05261 822.650839,1023.50783 C859.639045,1027.96762 908.512887,1039.35615 938.655594,1012.67484 C963.565028,1005.55714 989.630182,987.028196 1009.53666,968.630391 C1021.61646,1143.82413 1028.29671,1502.62006 1039.07517,1505.11998 C1043.79204,1506.71845 1050.15934,1508.63392 1055.49796,1510.16423 C1055.52998,1522.75057 1056.46674,1537.05206 1055.47731,1549.42568 C1053.82274,1563.4019 1049.62951,1579.90283 1047.73223,1594.5936 C1039.57815,1594.04839 1037.17996,1602.2276 1036.2308,1607.78401 C1029.19216,1653.68198 1029.40079,1690.68618 1029.90584,1741.1348 C1112.67564,1789.88997 1209.68176,1816.70242 1302.81586,1848.21216 C1311.73628,1854.91579 1331.06645,1847.66488 1341.36671,1845.85267 C1377.1269,1838.81138 1417.76095,1817.98387 1408.73414,1779.79632 C1402.12516,1751.04362 1374.37548,1734.49933 1351.01631,1717.5833 C1325.46033,1699.06778 1298.51935,1680.56671 1275.01661,1658.52074 C1256.16154,1640.75695 1242.08014,1626.97692 1226.35553,1606.93109 C1219.38093,1597.60879 1211.94363,1582.29226 1202.56153,1575.42032 C1212.47346,1563.66212 1192.44614,1574.68304 1184.86425,1575.36249 C1180.40352,1554.36667 1174.88106,1534.20828 1168.25865,1514.06745 L1174.69618,1514.35864 C1195.83171,1494.61949 1207.68016,1399.8569 1209.15193,1371.74441 C1219.74654,1188.47678 1219.49454,977.246392 1176.9942,822.903909 C1209.2769,842.784526 1244.67767,859.389741 1276.78272,879.051447 C1297.02693,890.911872 1317.56756,907.379752 1340.26057,913.130292 C1341.73853,917.376337 1347.14945,919.026429 1350.10226,914.869188 C1354.16433,915.369998 1359.3976,913.684797 1359.84481,911.833348 C1363.99879,903.338161 1370.01804,894.183144 1369.29403,884.951714 C1369.293,884.951714 1363.71993,872.021517 1363.71993,872.021517 C1376.20667,877.098804 1389.78302,887.780001 1403.11253,888.758905 C1430.03595,978.666214 1483.08237,928.301228 1534.12719,893.310598 C1564.93296,871.78402 1598.63062,848.012572 1631.05068,825.061007 C1658.55662,803.179215 1712.2568,782.415726 1685.93241,739.073441" id="ðŸŽ¨-Background" fill="#FFFFFF"></path>
        <path d="M520.831659,60.6507776 C546.83334,54.3309423 551.276201,-8.01457954 566.976926,0.863751506 C576.052585,8.75812518 561.206574,23.6517088 558.579464,32.5620468 L557.426859,34.8252303 C552.10004,45.2032629 546.076008,55.5466836 535.57754,61.5304541 C528.829635,68.6360099 508.65921,61.6595146 511.624902,72.9765732 C521.9816,107.083654 576.945493,130.700696 609.338948,141.320828 C659.688624,160.23697 741.140393,153.8366 752.970131,90.42762 C725.352958,85.3705127 704.93479,35.5294062 721.955779,14.7785401 C722.535911,34.9357278 728.042004,55.7382181 743.861439,69.3948857 L744.734363,70.1964108 C747.517906,72.7369902 751.122682,75.7703493 754.715688,75.2057064 C758.21919,70.3251539 765.020773,73.1015038 767.023364,78.2525671 C924.26597,105.439939 959.295826,275.06779 1058.32085,374.912103 C1078.10108,395.741438 1098.77937,415.684901 1119.19135,435.881323 C1140.03791,452.424816 1154.78998,475.488447 1155.81812,502.568441 C1157.68135,517.630319 1156.75851,532.70562 1154.76521,547.791246 L1154.62686,549.154164 C1153.70316,558.503181 1153.15464,568.545353 1148.70582,576.845349 C1147.93782,579.657836 1148.24853,583.212679 1145.81549,585.198146 C1146.87872,602.409656 1145.8671,619.930912 1142.95612,637.090798 L1150.5429,640.47736 C1234.02623,677.666363 1318.47331,712.719441 1405.52261,740.597332 C1412.96214,739.245811 1412.35516,747.898028 1408.7536,751.83076 C1409.70328,756.456289 1409.80651,761.267665 1408.69166,765.841569 C1424.63187,768.132652 1440.82292,766.227718 1456.55771,763.322308 C1461.53529,752.358359 1474.76064,752.943778 1484.98624,752.636097 C1497.69031,751.83902 1510.37166,750.599006 1522.98386,748.836556 C1554.05911,741.8931 1584.57488,732.756648 1615.35078,724.728051 C1635.94546,718.932718 1658.15461,719.207359 1678.81433,724.542204 C1682.32402,728.475969 1685.56533,732.678179 1688.30083,737.138511 C1707.18608,766.425955 1688.57747,793.264348 1662.21553,808.648362 C1619.92164,838.632733 1577.61639,868.578903 1535.1336,898.287601 L1532.04725,900.489603 C1481.50294,936.67185 1424.64046,982.472517 1397.64644,894.406493 C1388.57388,893.342002 1380.62339,887.251378 1372.17019,883.658334 C1374.44426,894.226841 1367.65403,904.901695 1362.97272,913.961743 C1360.95671,919.122099 1355.44649,920.824665 1350.35846,920.776138 C1346.00231,925.050622 1337.82679,923.367673 1334.97774,918.298176 C1311.87156,911.68305 1292.78191,896.237088 1272.32968,884.237557 C1243.24979,866.572786 1212.74434,851.512973 1183.24535,834.594688 C1232.24999,1037.52015 1220.26438,1248.8965 1207.2238,1455.45837 L1207.13137,1457.32471 C1205.5153,1487.48118 1198.60085,1501.74812 1173.59163,1520.23333 C1177.94778,1533.52553 1181.8456,1546.87039 1184.81749,1560.54357 C1185.8673,1563.71536 1190.69726,1560.73045 1190.73649,1565.08547 C1199.62118,1563.00605 1217.67856,1565.23105 1211.37866,1577.52381 C1229.2172,1592.49586 1241.29468,1612.77901 1256.93141,1629.84907 C1284.47116,1662.86378 1320.47031,1687.43587 1355.76752,1711.64763 C1436.90961,1752.99965 1441.55996,1824.66127 1346.62373,1849.1425 L1345.67199,1849.36528 C1332.59858,1852.51203 1316.85382,1859.70578 1304.18016,1853.6493 C1285.22161,1849.99843 1266.40655,1842.60791 1247.85781,1836.97778 C1173.17046,1812.26011 1100.12132,1783.31545 1029.34109,1750.05087 C1026.77488,1748.8439 1025.32248,1746.082 1025.25539,1743.31908 C1026.04507,1720.49498 1019.84839,1595.42192 1043.51096,1592.7292 C1048.79512,1567.17728 1049.62506,1540.79938 1048.66506,1514.72089 C1040.98915,1512.30591 1033.22756,1509.97663 1025.27707,1508.46714 C1017.5578,1506.03564 1005.48651,1505.49049 1000.31797,1499.2357 C998.459897,1498.56458 997.097309,1496.90228 997.37602,1494.27977 C1001.55669,1455.08668 1004.72573,1415.79033 1007.038,1376.44236 C1014.9565,1244.48366 1012.26848,1112.113 1003.2496,980.298848 C984.66473,996.372561 963.486815,1010.44635 939.909921,1017.93289 C926.896177,1030.9742 906.030007,1033.7712 888.265787,1035.3509 C865.4218,1036.76541 842.980395,1032.20183 820.435765,1029.36249 C782.153839,1024.54263 744.138131,1028.80938 706.134711,1033.53625 L693.147375,1035.1568 C600.105353,1045.3629 499.553615,1047.4733 412.836271,1007.70098 C396.508962,1009.15162 376.239439,991.503366 366.054097,979.710332 C361.556526,982.487715 357.137406,977.062011 353.553388,974.207192 C347.638519,972.41067 340.928808,969.829459 335.561039,966.060892 C321.943421,970.517094 314.597835,952.835803 309.425164,943.221311 C227.326165,802.612459 318.756824,662.64891 311.879886,513.543747 C316.044036,396.645894 262.730732,274.858195 314.257188,162.741776 C324.680983,115.297065 385.645422,82.5074342 431.533656,70.449052 C446.320828,68.0072271 502.3015,47.7643432 508.466177,64.7869091 C511.383353,60.9553604 516.364023,60.6683299 520.831659,60.6507776 Z M1201.84068,1583 C1194.1472,1583.82619 1186.64458,1584.30022 1179.04085,1585.69441 C1151.28363,1590.24981 1124.80678,1600.9975 1100.95356,1615.93087 C1093.22913,1620.74755 1086.33419,1626.81798 1077.46971,1629.50206 C1059.25274,1636.11777 1041.34942,1619.6921 1042.68446,1601.93316 C1037.60637,1646.56184 1038.47713,1692.4835 1041.11316,1737.33835 C1112.36638,1769.57625 1185.21565,1798.32041 1259.38862,1823.29198 C1276.09206,1830.29187 1295.87,1832.53394 1311.20952,1842 C1337.36758,1840.34969 1363.69793,1831.16453 1385.66827,1816.80226 C1422.11148,1791.51261 1397.9178,1751.40112 1367.70717,1733.75269 C1301.20293,1703.73723 1244.59488,1642.9958 1201.84068,1583 Z M1056.13257,1517 C1054.74124,1530.23 1064.79196,1550.83783 1063.37373,1577.20571 C1062.28342,1585.43952 1059.71591,1594.06459 1060.60761,1602.33049 C1064.6999,1632.99072 1097.89647,1594.02732 1111.61432,1589.75775 C1131.08787,1579.04499 1152.25067,1571.75203 1174,1567.76399 C1173.86759,1560.69253 1169.1867,1557.86995 1168.57224,1550.88337 C1167.68985,1540.58877 1167.73433,1530.69888 1167.26986,1520.30491 C1138.98176,1533.17057 1086.13786,1524.07353 1056.13257,1517 Z M1208.54805,1581 C1208.05491,1581.32959 1207.53432,1581.60863 1207,1581.85925 C1210.93136,1586.62092 1214.33685,1591.90488 1219,1596 L1217.01473,1592.91721 C1214.35907,1588.80333 1211.64245,1584.70656 1208.54805,1581 Z M329.976319,484 C328.551139,489.793359 325.9552,495.241015 322.066463,499.874464 C342.148272,662.715939 238.828882,798.468765 333.821618,949.874186 C335.022369,950.433502 336.117627,951.129035 337.17255,952 C337.731039,951.628499 338.289528,951.236358 338.837674,950.844218 C383.361641,872.048757 446.741843,804.079469 497.241639,728.676023 C506.934522,709.749056 522.890753,690.698254 529,668.830233 C427.51535,628.753481 386.977338,570.277087 329.976319,484 Z M1665.53976,731 C1661.23671,732.539865 1656.44866,731.268701 1651.85667,731.186024 C1635.55357,730.837746 1619.62092,735.092528 1604.02776,739.39175 C1558.67544,751.797485 1513.08371,762.780136 1466.61899,770.127051 C1465.67995,771.098509 1464.78219,772.090637 1463.96698,773.134439 C1464.77187,774.498615 1464.8957,776.203835 1463.72758,777.897687 C1456.71784,791.289349 1462.38404,807.685299 1457.29158,822.019482 C1449.91344,851.039228 1430.28759,883.771187 1401,894.070716 C1410.76907,903.379151 1417.76746,915.360131 1427.82959,924.343024 C1452.55822,941.294979 1479.79232,916.029818 1499.98055,902.483136 C1538.41703,875.32673 1576.95464,848.360483 1615.59751,821.502749 C1632.90982,807.153063 1671.207,789.066362 1679.49115,770.054708 C1684.79825,755.478693 1675.13856,741.27886 1665.53976,731 Z M1400.64969,768 C1384.10529,801.746093 1374.5542,837.623952 1365,873.85573 C1374.93719,876.589056 1384.0908,880.872194 1393.85927,883.751007 C1407.61711,886.846506 1427.04122,860.256174 1433.93929,849.700524 C1441.05059,837.896356 1446.02954,824.926217 1448.3389,811.336979 C1450.28804,798.028399 1448.21158,784.206998 1454,771.879691 C1436.07682,773.711195 1417.89486,774.095037 1400.64969,768 Z M417.064748,698.372566 C432.60132,694.019644 397.257872,729.171095 395.222174,732.922722 C372.241342,760.059569 351.18606,788.720587 330.291818,817.470403 L323.957707,826.196668 C323.349247,827.080825 319.154577,833.280813 322.18775,832.492454 C322.465392,832.420009 322.594889,832.784304 322.374226,832.936439 C303.051152,836.354818 407.747156,700.762223 417.064748,698.372566 Z M795.827088,681.779547 C797.083957,677.994033 791.11898,676.374617 789.862111,680.139502 L785.901607,692.067805 C770.955846,737.138781 756.101781,782.271432 738.237755,826.289215 C736.743935,829.981896 742.719215,831.590998 744.202732,827.939576 C763.632693,780.03787 779.508393,730.815876 795.827088,681.779547 Z M969.559519,666 C964.111564,691.857011 950.345212,715.169746 942,739.886007 C957.673445,736.43078 969.747238,721.823609 978.883548,709.259896 L979.157746,708.841629 C983.467791,702.206575 988.477723,691.84121 998.265977,696.523062 C1013.1246,705.155462 1002.48036,735.771267 1002.2029,750.282603 C1000.3185,770.174117 993.852534,788.781643 989.44528,808.104328 C1000.77233,800.36227 1004.02748,785.097648 1009.54764,773.201691 L1030.79487,722.222408 L1030.79487,722.222408 C1046.41469,700.818137 1039.16071,764.915535 1038.35414,770.965532 C1037.08344,784.252647 1031.48592,797.620141 1033.68285,811 C1042.49117,801.519508 1048.0402,789.607064 1052.70222,777.519437 C1059.17025,760.708052 1065.07306,743.680264 1071.2265,726.757587 C1073.35432,721.336188 1081.42105,723.238469 1080.25142,729.210149 C1079.85453,748.415976 1079.53949,767.621144 1079.23291,786.826708 L1079.0034,801.230972 C1078.96215,803.961765 1077.61099,811.937744 1082.32767,809.73353 C1107.09617,783.732251 1113.44662,731.742058 1110.22446,696.811598 C1061.53529,697.987385 1011.86008,691.671523 969.559519,666 Z M1402.83,763 C1402.63,763.634615 1402.4,764.269231 1402.17,764.903846 C1402.31,764.932692 1402.46,764.961538 1402.6,765 C1402.69,764.326923 1402.77,763.663462 1402.83,763 Z M322.231911,763 C316.831229,759.010036 407.606893,642.440248 401.725943,676.09098 C376.400886,706.059787 346.868069,732.321775 322.231911,763 Z M1123.90635,505.411265 C1039.01251,485.466251 964.253583,559.978262 879,548.721029 C879.987234,575.408398 881.35799,602.276569 880.819405,628.976336 C994.034964,638.316037 981.153372,686.509515 1111.48271,681.657829 C1128.32461,670.375801 1135.24144,601.231019 1133.819,580.3572 C1134.90754,555.677247 1113.67323,544.59875 1092.52162,540.269839 C1084.87805,544.884933 1071.16532,531.115073 1082.51489,526.270619 C1097.45262,521.776405 1111.42895,514.70964 1123.90635,505.411265 Z M497.618545,68 C467.416783,70.9773083 437.502943,79.2108139 409.744896,91.932978 C307.135685,121.5606 292.340269,241.695917 304.678554,332.733874 C309.790955,401.96506 329.530561,469.67458 371.032442,525.972116 C481.521809,694.505714 664.523887,667.819294 837.865652,645.527652 C844.114257,641.179297 854.702314,644.26699 860.723884,638.522828 C860.09438,638.306184 859.526794,638.007009 859.041766,637.635619 C861.935422,635.377362 864.173775,631.415871 864.841462,627.205755 L866.090151,627.329552 L866.090151,627.329552 C867.315105,601.191963 866.335761,575.567098 866.731007,549.634805 C809.773246,534.011674 748.68862,526.026793 690.964102,510.46556 C684.402809,515.042939 676.837405,509.775394 670.427812,507.288114 C653.812707,500.219328 637.049877,493.504791 620.163673,487.112046 L615.939566,485.520545 C604.931839,481.393991 593.932266,477.161472 583.027822,472.750532 L578.943285,471.087924 C572.696744,468.532556 556.921984,459.074496 550.107857,464.979594 L550.657758,466.164961 C554.698187,474.983458 568.617659,507.61081 551.506182,501.158119 C537.61168,491.39882 530.407467,423.346797 516.645056,422.745351 C511.912422,435.414902 508.521354,448.565196 507.746342,462.108544 C507.467708,465.156004 503.462616,467.725815 501.056052,464.878493 C484.733313,443.378118 509.389245,419.958896 510.047644,397.264916 C511.60283,370.876639 499.930168,346.186438 494.114992,320.928837 L493.757325,319.186911 C490.347704,302.800938 485.041589,282.933845 486.449487,268.237908 L489.835749,280.994906 C493.233428,293.759545 496.713246,306.526649 500.706212,319.112121 C510.61523,350.546142 528.50657,382.931333 518.564529,416.565838 C538.509497,417.230213 541.881989,448.71891 549.374123,463.099949 C561.495694,447.366432 646.794567,485.091383 666.258636,491.142974 L670.012651,486.882723 C730.972893,417.743731 774.979694,370.952877 869.462643,425.643224 C853.140937,372.977054 851.56408,317.038528 848.779813,262.349316 C849.734389,251.945244 843.722107,224.500569 852.200808,218.8214 C853.671372,219.03598 855.10272,219.480617 856.453574,220.072777 L856.451939,225.463518 C856.492541,235.905933 856.979576,253.221802 861.357517,257.155017 L863.366142,277.832123 C868.627532,331.597644 874.593714,385.32253 890.644949,437.134643 C929.175776,458.681442 964.33411,485.660848 997.408889,514.767492 L1001.17643,513.392219 C1042.04406,498.425976 1091.21663,479.241973 1133,497.920838 C1132.30135,487.37543 1128.23228,477.282913 1122.55642,468.364399 C1113.09012,466.015359 1106.89518,456.030131 1100.1213,449.382253 C1078.64385,426.304504 1056.59571,403.754953 1035.61258,380.211934 C946.077452,283.865166 907.985214,125.658267 767.381803,88.2881997 C758.08681,166.141819 658.512636,178.564808 598.508487,151.920685 L596.231112,151.048095 C558.930253,136.647597 516.777087,114.913444 503.677267,75.3174108 L503.132868,74.1712151 C501.785881,71.3787558 500.179593,68.5321691 497.618545,68 Z M519.749207,511.042274 C519.858499,510.921883 520.069933,511.083434 519.976984,511.217202 C502.494363,533.161367 488.269049,563.091495 505.6434,589.304925 C508.854744,595.206162 501.349351,600.875877 496.544592,596.377149 C472.429892,568.983472 499.184963,531.854554 519.749207,511.042274 Z M1127.97375,516 C1118.36019,522.865401 1108.05266,528.567866 1097.13281,533.066591 C1097.16751,534.324398 1096.55416,535.669935 1096,536.65741 C1110.37441,537.799943 1125.3438,541.514197 1135.43395,552 C1135.92381,548.164353 1136.40347,544.318504 1136.77086,540.472655 C1137.69956,530.577501 1136.00545,521.722868 1127.97375,516 Z M466.92622,418.994283 L467.037727,418.465547 C467.115678,417.86571 468.026483,417.824271 468,418.465547 C467.665443,426.310044 461.959581,431.889873 457.126572,437.475918 C449.955011,445.762782 442.782425,454.047574 435.607787,462.33133 C423.612449,476.767815 405.940993,491.280964 409.914481,512.19548 C409.989355,519.62351 400.682327,521.215823 396.906796,515.753061 C381.889802,487.105935 429.160357,462.732257 445.09431,444.25024 C452.576419,436.251161 464.367159,430.365243 466.92622,418.994283 L466.92622,418.994283 Z M692,505 C692.224,505.356436 692.384,505.742574 692.469333,506.138614 C694.986667,506.405941 697.493333,506.693069 700,507 L692,505 L692,505 Z M316,438 C316.448615,440.993242 316.868673,443.993389 317.270688,446.996989 L317.666885,450 L317.728623,449.738011 C317.93375,448.958443 318.320941,448.28123 318.826998,447.739994 L319,447.564664 C317.957846,444.39213 316.958154,441.204249 316,438 Z M1006.13321,407.015431 C1012.15705,406.37279 984.863295,426.002831 983.355554,428.432055 C981.154904,430.345742 978.583414,426.945439 980.931384,425.287994 C989.4109,419.302891 997.768497,413.160178 1006.13321,407.015431 Z M953.033212,349.269215 C957.22455,347.552243 960.070814,354.534047 956.095556,356.478853 C941.615072,363.565337 926.303351,368.577704 912.961167,377.900459 C912.375992,378.30892 911.641939,377.356529 912.197131,376.918306 L913.800334,375.650145 C926.089466,365.887281 938.365424,355.276562 953.033212,349.269215 Z M321,261 C325.046926,280.063779 346.943447,286.324983 363.936823,291.403261 L369.246408,293.426045 C384.25267,299.170991 399.798645,305.633663 410.594589,317.773161 C414.82617,331.466043 384.632574,307.613491 380.417498,306.405662 C359.799117,293.616577 322.54429,291.44373 321,261 Z M768,83 C768.113744,83.9693878 768.170616,84.9591837 768.199052,85.9489796 C769.469194,85.9489796 770.729858,85.9591837 772,86 C770.521327,85.1326531 769.165877,84.1428571 768,83 Z" id="ðŸ–-Ink" fill="#000000"></path>
    </g>
</svg>