<?xml version="1.0" encoding="UTF-8"?>
<svg width="1534px" height="1856px" viewBox="0 0 1534 1856" version="1.1" xmlns="http://www.w3.org/2000/svg" xmlns:xlink="http://www.w3.org/1999/xlink">
    <!-- Generator: Sketch 62 (91390) - https://sketch.com -->
    <title>pose/sitting/hands_back-2</title>
    <desc>Created with Sketch.</desc>
    <g id="pose/sitting/hands_back-2" stroke="none" stroke-width="1" fill="none" fill-rule="evenodd">
        <path d="M354.4453,827.7949 C334.5983,877.3709 310.8413,933.6459 288.9853,981.9379 C290.7353,997.2389 297.3043,1012.8859 292.1643,1028.2089 C314.8173,1013.4739 340.2863,1004.2229 366.2833,997.2299 L367.7453,1007.0219 C370.6393,1006.9279 375.8533,1006.8779 378.7843,1006.8379 C378.3273,1002.9429 377.7093,995.9989 377.4293,992.0749 L377.4203,992.0779 C373.7943,949.8809 380.5683,906.6799 388.8413,865.4419 C390.8593,850.5629 385.9343,827.4479 367.1813,827.0669 C364.3933,827.4909 359.8023,819.9509 358.1113,818.4899 L354.4453,827.7949 Z M616.7183,1398.1119 C522.2343,1403.4089 468.2093,1326.0989 422.5293,1253.7689 C417.7203,1256.9549 412.3923,1260.5179 407.5363,1263.3979 C400.0643,1275.4039 384.8553,1279.0439 371.7253,1280.3749 C324.9273,1282.7679 314.9033,1240.7429 303.2853,1204.5919 C301.0723,1206.1439 296.1233,1214.0469 292.4013,1212.3129 C271.3863,1207.6549 250.9263,1202.0859 228.6463,1203.4769 C203.0753,1198.0179 70.5653,1256.3819 82.7953,1205.4829 C88.7683,1183.3479 121.6433,1172.8599 138.5753,1157.5799 C163.1973,1129.5669 157.2013,1093.5259 168.9633,1060.1679 C178.7423,1026.7029 190.1683,995.1759 211.3133,964.4139 C213.2223,849.4309 217.5283,708.7029 247.2933,606.4439 C266.2713,534.6789 289.7823,460.4839 280.7453,385.1779 L275.6123,385.0409 C273.3673,383.7679 269.9163,382.8079 267.1613,383.2309 C264.8373,380.6619 260.5293,381.4429 257.3713,380.4029 C251.6793,327.2139 249.4843,281.6899 256.7073,233.4369 C263.4163,153.7629 313.6943,121.1729 387.1293,103.8199 C467.8313,77.3489 522.5893,50.3699 564.4023,-15.4531 C572.3103,-28.8111 577.1163,-44.6271 587.6523,-55.8901 C613.8153,-89.0041 689.0583,-83.5451 708.4903,-48.6781 C716.9763,-28.2811 717.7063,-4.4751 724.1613,16.7299 C749.5383,106.7939 866.2553,96.1859 928.0473,145.4299 C955.2483,165.6019 964.0133,196.7459 967.5393,228.4469 C971.9833,268.3119 980.4713,306.6979 979.3823,346.3199 C982.2213,346.8579 988.7193,344.8359 989.8203,348.9049 C987.2353,357.4639 954.1003,357.4339 944.8593,358.9479 C957.0143,423.3129 945.9913,487.9459 955.7603,552.5159 C970.8193,625.0619 1000.4493,692.4359 1023.7193,762.5209 C1032.6753,785.6829 1038.6723,810.5119 1051.9943,831.6049 L1051.7543,831.7889 C1053.8613,835.2869 1056.1713,838.6899 1058.5703,841.9679 C1061.0383,842.8579 1063.6123,844.3079 1066.0493,845.1989 L1066.5913,844.2849 L1067.9073,846.0519 L1071.7733,844.4189 C1077.4523,847.2579 1083.6203,850.5459 1089.6783,854.0029 C1164.1343,899.1869 1212.8583,945.0359 1271.2343,1001.8109 L1263.4893,1008.0929 C1266.3083,1012.0169 1269.7233,1017.2099 1272.4623,1021.3459 C1274.7483,1019.3269 1279.6283,1015.9299 1282.4403,1014.7629 C1332.2143,1073.9329 1338.3003,1176.4989 1314.0583,1238.8499 C1306.3473,1257.5339 1294.1483,1272.8729 1279.4153,1285.7949 C1273.3313,1294.9409 1262.3963,1307.5729 1248.4233,1313.6389 C1248.4233,1313.6389 1246.6613,1316.1329 1246.6023,1316.2169 C1245.8563,1316.3179 1241.2803,1317.3679 1241.0123,1318.4339 C1203.8183,1324.7049 1166.5213,1341.0749 1127.9793,1341.3119 C1065.1173,1340.7639 1011.1013,1289.7259 960.6823,1256.0199 C928.7893,1233.2739 891.6263,1217.6489 857.1863,1202.4419 C859.7543,1215.5519 859.0243,1220.0489 844.7703,1225.0059 C832.0733,1230.0589 816.7993,1226.1079 804.9873,1220.5559 C805.2953,1242.2859 807.0273,1263.9859 806.4293,1287.1609 C806.4253,1315.2149 807.3613,1349.7089 777.1323,1362.6599 C725.6573,1382.9369 667.4953,1397.5019 616.7183,1398.1119 L616.7183,1398.1119 Z" id="ðŸŽ¨-Background" fill="#FFFFFF"></path>
        <path d="M1272.2627,1013.2508 C1270.4727,1010.5508 1268.6427,1007.8808 1266.7627,1005.2408 C1268.9827,1007.6508 1271.1727,1010.1008 1273.3027,1012.5808 C1272.9327,1012.7708 1272.5827,1013.0008 1272.2627,1013.2508 M1065.1327,839.6808 C1064.7827,839.4208 1064.3927,839.1908 1063.9427,839.0108 C1062.9027,838.5808 1061.8627,838.1308 1060.8227,837.7008 C1058.8527,834.9708 1057.0027,832.1708 1055.2727,829.3108 C1058.8927,833.0908 1062.5627,836.7608 1066.5227,840.2008 C1066.0627,840.0308 1065.5927,839.8608 1065.1327,839.6808 M1031.0427,825.0908 C1014.1627,816.1008 997.1527,807.3508 980.1027,798.7708 C978.6327,798.0308 977.2027,798.0508 975.9927,798.5408 C968.6627,794.7708 961.2927,791.0508 953.8427,787.5208 C949.3127,785.3808 944.7427,783.3608 940.1927,781.3208 C939.8427,780.8008 939.5227,780.2608 939.2527,779.6808 C936.5227,773.8508 939.1127,766.6108 940.8727,760.8808 C941.3227,759.4408 941.1327,758.1908 940.5627,757.2108 C941.5227,748.8408 941.1627,740.4208 939.5127,732.8308 C935.5927,714.7508 925.9027,698.2708 916.6827,682.4608 C907.2127,666.2308 898.9127,649.9308 893.5427,631.8608 C882.7527,595.5908 881.9227,557.6208 882.7027,520.0908 C883.5627,478.4008 885.9727,436.7208 887.6427,395.0608 C888.1427,382.6408 888.6327,370.2208 889.0327,357.7908 C890.0027,358.3708 890.7827,358.9708 892.2327,359.4008 C894.5927,360.0908 897.0027,360.6608 899.3927,361.2208 C904.1627,362.3408 909.0027,363.1208 913.8527,363.7908 C922.9727,365.0508 932.0627,365.6208 941.2627,365.4908 C942.3927,365.4708 943.5227,365.4408 944.6427,365.4008 C939.3227,392.3908 939.6627,420.9708 939.1727,448.2508 C938.5927,479.8008 937.0527,511.6608 940.5627,543.1008 C943.9927,573.8308 953.0727,603.1708 962.9827,632.3408 C973.1827,662.3608 983.6827,692.2908 993.5927,722.4008 C999.1827,739.3908 1004.7927,756.3808 1010.4127,773.3608 C1013.1127,781.5408 1015.8227,789.7208 1018.5227,797.8908 C1021.4827,806.8408 1022.9627,817.3708 1030.4627,823.6308 C1031.2927,824.3208 1032.2227,824.8508 1033.2227,825.2208 C1033.3927,825.5708 1033.5527,825.9108 1033.7327,826.2608 C1032.8327,825.8708 1031.9427,825.4808 1031.0427,825.0908 M919.3427,757.8508 C918.1627,763.3808 916.1627,768.8508 913.4327,773.1008 C913.4327,773.5808 913.3327,774.0908 913.0927,774.6108 C910.3727,780.5408 903.8727,783.9908 898.2527,786.6608 C891.4827,789.8808 884.4927,792.6508 877.6627,795.7508 C867.4427,800.3808 856.9627,803.9808 846.2227,806.5508 C846.0227,806.6308 845.8227,806.7208 845.6127,806.8008 C828.1227,813.8208 810.2127,819.7508 792.0527,824.8008 C755.2527,835.0508 717.4827,841.6008 679.5427,845.8808 C642.7927,850.0208 605.7727,852.3908 568.8127,853.5108 C535.2627,854.5408 501.1827,853.8008 468.1027,847.6708 C444.4127,843.2808 421.1327,836.0208 399.7827,824.9908 C398.0627,822.2908 395.6527,819.9808 393.6327,817.4508 C393.8827,813.3808 391.4227,808.8408 387.7027,807.4008 C386.2627,804.1908 385.1327,800.8508 384.3327,797.4208 C385.2027,789.0208 386.3727,780.6608 388.0827,772.2608 C391.4527,755.8008 395.8527,739.5708 400.2727,723.3708 C409.4927,689.5608 416.8627,655.8608 418.0927,620.7108 C419.3427,585.1108 415.7627,549.6308 410.8627,514.4208 C405.8927,478.6708 399.9227,443.0508 393.5127,407.5408 C389.8727,387.3508 386.3627,367.1208 382.5127,346.9608 C378.6227,326.5708 375.5527,305.7808 370.4827,285.6408 C370.3227,284.9908 369.2627,285.1108 369.2927,285.8108 C369.9927,303.9108 372.4927,322.0508 374.2427,340.0808 C375.4727,352.7308 376.8027,365.3608 378.1527,377.9908 C375.4127,377.3608 372.4527,377.7308 369.2527,377.7908 C364.0027,377.9008 358.7527,377.8408 353.5027,377.8708 C343.0127,377.9108 332.5127,377.9608 322.0127,378.0108 C303.9627,378.0908 285.8427,378.3608 267.8227,379.6608 C266.7127,379.3908 265.5927,379.1208 264.4627,378.7808 C260.1527,377.4808 258.7727,374.4008 258.4927,370.0908 C257.7627,359.2708 259.3127,348.0508 259.5027,337.1908 C259.7027,325.6508 259.6327,314.1108 259.2727,302.5808 C259.0427,295.0308 259.7827,285.7708 255.4227,279.2108 C255.8427,273.2308 256.3527,267.2508 256.9827,261.2908 C259.3427,238.9108 263.3727,216.4308 270.3027,194.9808 C275.3127,179.4808 283.5327,165.2608 295.3527,153.9608 C318.5427,131.8208 350.6127,123.0608 380.5727,114.2808 C416.7827,103.6608 452.8627,90.5808 485.5127,71.4208 C485.1127,72.2908 485.3627,73.4308 486.5427,73.6708 C488.4427,74.0608 489.8427,75.0908 490.8827,76.5008 C491.3427,78.8408 492.0227,81.1508 492.9427,83.4108 C493.1327,83.8708 493.3727,84.2808 493.6427,84.6408 C494.1027,88.0108 494.1527,91.4608 494.3927,93.8908 C495.1927,102.1308 496.6827,110.1808 498.9427,118.1408 C503.4927,134.1508 510.6227,149.5408 520.0427,163.2708 C538.9627,190.8108 567.2127,211.8408 599.6627,220.3408 C632.4227,228.9108 668.7527,225.3208 698.2027,208.1608 C725.4427,192.2908 746.5527,166.0208 752.7327,134.7808 C756.0227,118.1808 755.4927,101.2808 752.3927,84.7008 C751.8927,82.0408 751.3427,79.3108 750.7227,76.5608 C771.4927,94.4108 798.1327,105.3608 823.8327,113.8108 C851.3027,122.8408 879.4627,130.2608 904.4927,145.2308 C916.0227,152.1208 926.9627,160.7008 934.9727,171.6108 C944.9127,185.1508 949.2027,200.9108 951.8927,217.2908 C955.5027,239.2908 958.1327,261.4908 960.6127,283.6408 C961.8527,294.7808 963.0027,305.9408 964.0527,317.1008 C964.6027,323.0108 965.1327,328.9208 965.6227,334.8408 C965.9827,339.0208 966.3827,342.3508 967.7427,345.5208 C959.8827,347.6208 951.9227,349.2008 943.9027,350.6208 C934.4327,352.3108 924.7927,353.2908 915.1927,353.8808 C910.2427,354.1808 905.2827,354.2808 900.3227,354.3608 C897.8527,354.4008 895.3827,354.3408 892.9127,354.3608 C891.5027,354.3708 890.3527,354.7508 889.1227,355.0008 C890.2227,319.8308 890.5827,284.6308 888.4527,249.5108 C888.4027,248.6208 886.9627,248.3008 886.8027,249.2908 C879.7627,290.5908 876.0427,332.5008 873.1827,374.2708 C870.3727,415.2308 867.4227,456.1908 864.9427,497.1808 C862.6727,534.8408 861.8227,572.8708 868.2527,610.2008 C871.3927,628.4208 876.5727,646.0908 883.9227,663.0608 C891.1627,679.7908 901.3927,694.9108 909.7227,711.0808 C917.3427,725.8908 922.7527,742.0308 919.3427,757.8508 M867.1507,1137.8038 C852.2927,1133.4928 838.2697,1127.3058 824.4277,1120.4338 C811.0747,1113.8038 796.9147,1106.7428 785.5987,1096.9538 C785.3547,1096.7428 785.6137,1096.2968 785.9187,1096.4058 C799.8717,1101.3888 813.0957,1108.7828 826.6887,1114.7398 C840.8097,1120.9278 855.2527,1126.3438 869.4267,1132.4068 C872.5647,1133.7488 870.2717,1138.7088 867.1507,1137.8038 M837.4027,1210.7908 C833.7527,1213.2508 829.7427,1215.4808 825.5827,1216.9318 C819.9327,1218.9208 814.2127,1219.4318 808.5227,1218.8518 C807.6727,1208.6018 806.6327,1198.3518 805.3827,1188.1308 C818.1927,1194.5908 831.5927,1199.9608 844.9727,1205.3408 C842.3227,1206.9318 840.0427,1209.0008 837.4027,1210.7908 M784.9267,1157.9788 C784.5437,1162.1198 779.0247,1162.0278 778.5517,1157.9788 C776.4077,1139.6528 775.3347,1121.1758 773.4937,1102.8138 C770.2307,1070.2528 764.8327,1038.2048 757.4097,1006.3398 C755.5357,998.2928 753.5807,990.2708 751.4187,982.2958 C750.2977,978.1608 746.4867,970.8988 749.0507,966.6698 C752.2047,961.4668 756.5657,968.8288 753.1987,969.2478 C752.8557,969.2898 752.8587,968.7998 753.1237,968.6948 C750.5057,969.7358 752.3247,972.0918 753.0117,973.9558 C753.6727,975.7488 754.3517,977.5358 755.0087,979.3308 C756.3217,982.9178 757.6027,986.5168 758.8477,990.1278 C761.5447,997.9468 764.0747,1005.8078 766.3127,1013.7698 C770.6877,1029.3408 774.5337,1045.0968 777.4927,1060.9998 C783.3927,1092.7078 787.9067,1125.6888 784.9267,1157.9788 M408.0427,1252.3408 C405.9327,1251.2508 403.3927,1250.8608 401.1527,1251.3108 C393.7727,1252.7808 390.8427,1257.0508 384.5127,1260.2608 C380.7927,1262.1508 374.3627,1263.7208 370.4627,1263.9608 C363.9727,1264.3518 360.2227,1263.9008 354.2727,1262.0108 C349.9427,1260.6308 345.2227,1258.0708 342.0027,1255.1018 C333.4327,1247.2108 329.2027,1236.2908 325.4527,1225.2008 C321.3227,1212.9708 317.7727,1200.3208 311.4127,1189.0108 C308.2127,1183.3308 304.1527,1177.8408 299.3127,1173.4508 C294.7127,1169.2808 287.3027,1166.2508 284.1727,1160.7208 C280.9427,1155.0208 280.6727,1146.7608 279.7127,1140.3508 C278.7527,1133.9208 278.0527,1127.4508 277.5927,1120.9708 C275.8027,1095.7508 277.4827,1068.0908 291.5227,1046.2308 C309.1527,1018.8008 341.0727,1010.8408 370.6627,1003.1608 C371.1127,1007.8808 371.6527,1012.5908 372.3027,1017.2908 C373.0927,1023.0508 374.0527,1028.7908 375.1627,1034.5008 C369.8327,1038.7608 365.1427,1044.2008 361.8727,1048.1808 C353.9227,1057.8708 347.9927,1068.9208 343.9027,1080.7608 C339.9627,1092.1708 338.0227,1104.2708 338.3727,1116.3408 C338.5527,1122.3408 339.4727,1128.1908 341.1627,1133.9508 C341.6327,1135.5408 342.1927,1137.2608 342.8627,1138.9908 C340.7727,1142.6208 340.3827,1147.3108 342.8127,1150.8608 C364.5227,1182.5708 386.2327,1214.2718 407.9427,1245.9808 C408.9427,1247.4408 409.9427,1248.9108 410.9427,1250.3808 C409.9627,1251.0008 409.0027,1251.6608 408.0427,1252.3408 M370.5127,1001.5508 C369.0027,1001.5708 367.4927,1001.6108 365.9727,1001.6508 C367.4527,1001.2408 368.9327,1000.8308 370.4127,1000.4208 C370.4427,1000.8008 370.4727,1001.1708 370.5127,1001.5508 M369.6427,990.2608 C356.1927,993.9408 342.7627,997.7308 329.7327,1002.7208 C322.1127,1005.6408 313.1227,1008.7808 305.5027,1013.3908 C303.2527,1014.4608 301.0627,1015.6208 298.9227,1016.8908 C299.2227,1015.3108 299.2127,1013.6408 298.8327,1011.9608 C297.0727,1004.0908 295.7627,996.1308 294.2927,988.2008 C294.1327,987.3508 293.9427,985.6308 293.6227,983.6508 C295.0627,981.0408 296.1427,978.2008 297.3627,975.3708 C299.5827,970.2408 301.8027,965.1008 304.0327,959.9708 C308.2127,950.3008 312.3927,940.6308 316.5727,930.9708 C325.1427,911.1608 333.6727,891.3008 341.8927,871.3408 C347.4627,857.8008 353.0427,844.2508 358.4127,830.6208 C359.9027,832.3708 362.2127,833.5708 365.3527,833.6908 C380.5027,834.2308 382.5127,854.2708 381.2627,865.4008 C380.3127,873.8708 378.0427,882.2008 376.4527,890.5708 C374.8327,899.1208 373.4927,907.7108 372.3327,916.3308 C369.0627,940.8408 368.1227,965.6208 369.6427,990.2608 M242.8227,1189.4108 C224.4727,1188.3408 205.9927,1190.1018 188.0727,1194.1408 C170.7527,1198.0408 153.9227,1203.8708 136.5827,1207.7508 C128.1327,1209.6408 119.5827,1210.9408 110.9027,1211.1408 C106.7327,1211.2308 102.5227,1211.1208 98.3727,1210.6508 C97.8527,1210.5908 97.1927,1210.4108 96.5227,1210.2408 C97.7127,1206.5908 99.8427,1203.5218 102.8927,1200.4508 C107.1327,1196.1818 110.7027,1193.8208 115.9727,1190.4408 C126.5827,1183.6408 137.6327,1177.4808 146.4227,1168.2808 C157.6727,1156.4908 163.0027,1141.3708 165.7827,1125.5808 C168.7627,1108.6608 170.6827,1091.5608 173.5427,1074.6208 C175.8927,1060.6308 178.5927,1046.6408 181.9027,1032.8208 C185.7827,1020.6508 190.8427,1008.8708 196.5927,997.4108 C201.0027,988.6308 205.8827,980.1308 210.6427,971.5508 C214.6227,975.2408 220.5627,974.5608 223.9327,969.7908 C225.4927,967.5808 227.3427,965.4408 228.0727,962.7808 C228.7727,960.2508 228.5427,957.3308 228.5627,954.7408 C228.6027,949.8708 228.6427,945.0008 228.6827,940.1208 C228.7727,930.0508 228.8827,919.9708 229.0227,909.9008 C229.2927,890.4008 229.6927,870.9008 230.3527,851.4008 C231.6827,812.1908 233.8127,773.0008 238.2327,734.0008 C246.9027,657.4308 268.9227,583.2708 278.4127,506.8308 C279.5827,497.4308 280.6027,487.9208 281.3527,478.3408 C285.4827,448.9508 286.1927,419.1208 283.4127,389.5108 C315.6427,389.2308 347.8627,390.8508 379.9127,394.3608 C383.7827,430.3708 388.2027,466.2808 392.7727,502.1908 C397.2527,537.3208 401.0927,572.7508 400.6827,608.2108 C400.4827,625.6608 399.2927,643.1508 396.4227,660.3708 C393.6527,677.0108 389.4427,693.3608 384.9627,709.6108 C380.4627,725.9008 375.6227,742.1108 371.6527,758.5408 C365.6327,773.6408 359.0827,788.5208 352.3427,803.3108 C335.3427,840.6208 317.7627,877.6508 301.1127,915.1208 C296.3127,925.9408 291.5627,936.7808 286.7827,947.6108 C284.3927,953.0308 282.0027,958.4508 279.6127,963.8608 C276.9227,969.9608 273.4427,975.9108 273.4727,982.7308 C273.4927,986.8008 275.9127,989.7508 279.0627,991.0608 C277.7227,998.9308 277.2827,1006.9108 277.1927,1014.8908 C277.1427,1019.6508 280.2727,1023.5708 284.4127,1025.1008 C284.4027,1026.1308 284.3727,1027.1508 284.3227,1028.1808 C284.2627,1028.2408 284.2027,1028.3008 284.1427,1028.3508 C262.4127,1050.3308 256.5027,1082.2008 256.6827,1112.0108 C256.7727,1127.6008 258.3627,1143.3208 261.0227,1158.6708 C262.6527,1168.0908 266.7627,1175.8608 274.3027,1181.8208 C279.6327,1186.0308 285.6927,1190.1018 289.1627,1195.2208 C289.8727,1196.2808 290.5427,1197.3518 291.1827,1198.4408 C276.2827,1192.1908 258.4927,1190.3208 242.8227,1189.4108 M490.2327,68.5708 C490.2127,69.2908 490.2127,70.0208 490.2327,70.7408 C489.3227,70.4908 488.3627,70.3508 487.3027,70.3608 C488.2927,69.7808 489.2527,69.1608 490.2327,68.5708 M1329.7827,1128.1708 C1327.3927,1106.1908 1323.7827,1084.0708 1315.9527,1063.3108 C1308.7527,1044.2208 1297.9827,1026.9908 1285.1527,1011.2008 C1272.2427,995.3108 1257.4427,981.0908 1242.2927,967.3608 C1226.3127,952.8808 1210.1127,938.6108 1193.7627,924.5508 C1161.5727,896.8708 1127.9927,870.3708 1091.0227,849.4108 C1091.0127,849.3908 1091.0027,849.3708 1090.9827,849.3508 C1090.9227,849.3208 1090.8627,849.3008 1090.7927,849.2708 C1084.7827,845.8708 1078.6827,842.5908 1072.4827,839.5008 C1070.9727,838.7508 1069.5227,838.8008 1068.2927,839.3208 C1068.2627,839.2808 1068.2427,839.2308 1068.2027,839.2008 C1063.7727,835.0508 1059.1127,831.3508 1054.2927,827.6708 C1050.3027,820.8408 1046.9627,813.6508 1044.4127,806.0808 C1044.1627,805.3408 1043.7627,804.7408 1043.2927,804.2308 C1042.2927,801.4908 1041.1727,798.7708 1040.1827,796.0408 C1037.4827,788.5508 1034.8427,781.0408 1032.1727,773.5408 C1026.8327,758.5408 1021.5027,743.5308 1016.1427,728.5408 C1005.4327,698.5708 995.1427,668.4508 984.7627,638.3608 C975.0127,610.1008 965.0127,581.7208 960.0627,552.1508 C954.9327,521.5508 956.1027,490.0608 955.6927,459.1608 C955.4627,441.3208 955.3527,423.4308 954.4327,405.6208 C953.7327,392.0008 952.8327,378.4208 950.3627,365.0708 C957.3327,364.5608 964.2727,363.6308 971.1527,362.4408 C978.7227,361.1208 994.5327,360.1608 994.2027,349.3408 C994.0727,345.2608 990.9527,342.4208 987.1727,341.3808 C986.2927,341.1308 985.4027,341.0308 984.5027,341.0208 C985.3027,334.2008 983.6327,326.8008 982.9827,320.0608 C982.0027,309.8808 980.9427,299.7008 979.7927,289.5408 C977.4827,269.0608 974.8227,248.6108 971.8627,228.2108 C969.1727,209.6908 966.4227,191.0608 957.7627,174.2108 C951.1827,161.4008 941.4127,150.2508 930.1527,141.3508 C883.3327,104.3408 820.0027,103.4208 770.7827,71.2008 C758.0527,62.8608 746.6627,52.4308 738.4327,39.5508 C733.7327,32.1808 730.5827,24.2408 728.3427,15.8108 C726.8927,10.3708 725.5327,5.0508 723.7927,-0.2992 C722.0827,-5.5292 721.6027,-9.8192 718.3727,-14.4292 C718.0227,-14.9292 717.2727,-14.7492 717.2327,-14.1292 C716.9227,-9.3692 717.7827,-5.1892 718.0227,-0.4492 C718.2627,4.4908 718.1027,9.3608 718.6027,14.3308 C718.7227,15.5808 718.8727,16.8308 719.0227,18.0708 C718.8527,18.3708 718.7127,18.7008 718.6027,19.0608 C716.3127,26.3608 717.5627,34.2708 721.4527,40.5808 C721.4027,41.2408 721.4527,41.9108 721.6327,42.5808 C723.5927,49.8708 727.1527,56.6108 729.8127,63.6808 C732.3327,70.3908 734.4727,77.2508 736.1327,84.2308 C739.2627,97.4008 740.4827,110.9408 739.1727,124.4408 C736.3527,153.3808 719.1827,178.0408 695.1427,193.7508 C668.4527,211.1908 634.6027,215.5308 603.8827,207.9708 C572.5527,200.2608 546.6427,180.2608 528.3427,154.0508 C518.1727,139.4908 510.3927,123.1408 505.5427,106.0608 C503.6827,99.5108 502.5827,92.6308 500.8027,86.0308 C502.5427,85.0808 503.5927,83.2108 502.5827,80.7508 C499.9427,74.3108 499.5227,67.9608 501.4727,61.3608 C519.2427,49.3208 535.7527,35.2408 549.8227,19.0208 C563.8127,2.8908 578.3127,-16.6992 584.3527,-37.4192 C586.7227,-45.5592 574.5127,-50.9992 570.4727,-43.2692 C566.0527,-34.8192 562.4327,-26.1092 557.6027,-17.8492 C552.7527,-9.5292 547.2027,-1.6292 541.0527,5.7808 C528.8127,20.5408 514.5827,33.7208 499.0427,44.9608 C464.3927,70.0208 424.3427,86.1208 383.7327,98.7108 C352.2827,108.4608 319.3827,116.9608 293.2727,138.0808 C264.4827,161.3708 254.5727,197.9908 249.1627,233.1508 C246.8727,248.0208 245.5427,262.9808 244.9427,277.9908 C244.3127,279.1908 244.1627,280.6008 244.8027,281.9208 C243.9127,310.0808 245.5327,338.3608 248.2227,366.4008 C248.2127,369.3708 248.4327,372.3008 249.0927,375.0808 C249.4127,378.1708 249.7427,381.2608 250.0827,384.3408 C250.1627,385.1208 250.5427,385.6508 251.2827,385.9208 C254.1227,386.9408 256.9627,387.5508 259.8327,387.7408 C260.3227,387.9108 260.8227,388.0608 261.3227,388.2008 C262.1227,389.2308 263.3827,389.9208 265.1127,389.8708 C266.1027,389.8408 267.0927,389.8208 268.0727,389.7908 C269.2027,390.1108 270.3027,390.5008 271.3427,391.0508 C272.1227,391.4608 272.8927,391.6408 273.6227,391.6608 C274.8827,405.9708 275.3227,420.3208 274.9527,434.6308 C273.8427,454.7808 271.3527,474.8408 267.4227,494.9308 C260.1327,532.2108 249.5427,568.8308 239.8727,605.5408 C219.9127,681.2508 210.6827,758.7008 207.1127,836.8008 C206.1027,858.8708 205.6227,880.9808 205.2627,903.0708 C205.0827,913.8008 204.9527,924.5208 204.8427,935.2508 C204.7927,940.7708 204.7427,946.2908 204.6927,951.8208 C204.6627,954.4008 204.4827,957.0408 204.6527,959.6108 C204.6927,960.2508 204.7827,960.8408 204.8927,961.4208 C204.8827,961.4408 204.8727,961.4608 204.8627,961.4908 C194.4027,975.7408 186.4327,992.1808 179.4527,1008.3508 C172.3127,1024.8708 166.2427,1041.8508 161.5527,1059.2308 C156.8527,1076.6408 153.4427,1094.2208 150.1627,1111.9408 C147.4227,1126.7108 144.2427,1143.0808 132.8427,1153.8408 C124.2327,1161.9608 112.2327,1167.4318 102.0627,1174.0218 C90.4627,1181.5408 80.0727,1190.7308 75.5027,1204.1708 C72.3227,1213.4908 73.8627,1224.1818 83.2827,1229.0608 C91.3927,1233.2608 102.8927,1232.9408 111.8027,1232.5308 C130.6327,1231.6508 148.9527,1226.5508 166.9927,1221.4318 C186.8227,1215.8008 206.4727,1210.6608 227.1927,1210.1018 C237.5727,1209.8208 248.0627,1210.3108 258.3227,1211.9318 C268.9827,1213.6018 279.2027,1217.1608 289.8127,1218.8608 C293.3427,1219.4408 296.8727,1218.6908 299.2227,1216.2908 C305.9727,1235.3708 309.8427,1256.1608 325.3127,1270.8708 C337.2127,1282.1708 354.1327,1287.9408 370.4627,1286.9908 C379.2727,1286.4708 387.6327,1284.3208 395.5727,1280.4608 C399.3727,1278.6108 402.8027,1276.2208 406.0927,1273.5708 C408.1127,1271.9508 409.5227,1270.2008 410.5027,1268.2608 C413.4627,1266.4608 416.3827,1264.6018 419.2627,1262.6908 C435.5527,1286.9108 451.7427,1311.3308 469.9327,1334.1018 C490.5127,1359.8608 515.3627,1380.9318 546.3327,1392.9508 C575.2027,1404.1508 607.1427,1406.3608 637.7727,1403.7508 C670.0927,1400.9908 701.8527,1393.6408 732.8427,1384.2608 C747.9827,1379.6818 763.7027,1375.4508 778.0627,1368.7208 C793.3927,1361.5408 804.0027,1348.9008 807.6027,1332.2608 C811.1427,1315.9008 810.7227,1298.4108 810.8427,1281.7608 C810.9627,1264.5808 810.5427,1247.3608 809.3827,1230.2208 C809.3727,1230.1708 809.3727,1230.1308 809.3727,1230.0808 C815.0127,1232.3608 821.1427,1233.5708 827.1927,1233.8808 C833.2727,1234.1908 839.5927,1233.4208 845.2927,1231.2408 C852.0927,1228.6508 861.4927,1224.3808 862.7327,1216.2908 C862.9227,1215.1108 862.9327,1213.8608 862.7827,1212.6308 C866.9227,1214.3808 871.0427,1216.1818 875.1027,1218.0708 C887.8227,1223.9708 900.5027,1229.9908 912.9827,1236.3808 C919.2227,1239.5708 925.3527,1243.0808 931.6927,1246.0708 C933.3927,1246.8708 935.1027,1247.7608 936.8327,1248.6608 C943.1427,1252.8708 949.3927,1257.1708 955.6127,1261.5508 C973.2027,1273.9408 990.5827,1286.6208 1008.2527,1298.8808 C1026.4227,1311.4908 1044.9427,1323.9408 1065.0927,1333.1818 C1085.7727,1342.6708 1107.7527,1348.7108 1130.6627,1347.8608 C1155.1127,1346.9608 1178.9427,1340.0508 1202.4827,1333.9808 C1214.2427,1330.9608 1226.0027,1327.9318 1237.7627,1324.9008 C1239.4027,1325.6308 1241.3927,1325.5218 1243.0527,1323.8908 C1243.2127,1323.7308 1243.3727,1323.5708 1243.5327,1323.4108 C1245.2227,1322.9808 1246.9127,1322.5408 1248.6027,1322.1108 C1249.3427,1321.0908 1250.0627,1320.0508 1250.7927,1319.0218 C1263.7227,1312.9208 1274.5527,1301.9508 1282.7727,1289.7808 C1283.3927,1289.2508 1284.0227,1288.7408 1284.6327,1288.2008 C1299.1727,1275.4408 1310.4127,1259.6108 1317.9627,1241.8208 C1333.0527,1206.2608 1333.8927,1166.0508 1329.7827,1128.1708" id="ðŸ–-Ink" fill="#000000"></path>
    </g>
</svg>