<?xml version="1.0" encoding="UTF-8"?>
<svg width="1534px" height="1856px" viewBox="0 0 1534 1856" version="1.1" xmlns="http://www.w3.org/2000/svg" xmlns:xlink="http://www.w3.org/1999/xlink">
    <!-- Generator: Sketch 62 (91390) - https://sketch.com -->
    <title>pose/sitting/hands_back-1</title>
    <desc>Created with Sketch.</desc>
    <g id="pose/sitting/hands_back-1" stroke="none" stroke-width="1" fill="none" fill-rule="evenodd">
        <path d="M354.4453,827.7949 C334.5983,877.3709 310.8413,933.6459 288.9853,981.9379 C290.7353,997.2389 297.3043,1012.8859 292.1643,1028.2089 C314.8173,1013.4739 340.2863,1004.2229 366.2833,997.2299 L367.7453,1007.0219 C370.6393,1006.9279 375.8533,1006.8779 378.7843,1006.8379 C378.3273,1002.9429 377.7093,995.9989 377.4293,992.0749 L377.4203,992.0779 C373.7943,949.8809 380.5683,906.6799 388.8413,865.4419 C390.8593,850.5629 385.9343,827.4479 367.1813,827.0669 C364.3933,827.4909 359.8023,819.9509 358.1113,818.4899 L354.4453,827.7949 Z M616.7183,1398.1119 C522.2343,1403.4089 468.2093,1326.0989 422.5293,1253.7689 C417.7203,1256.9549 412.3923,1260.5179 407.5363,1263.3979 C400.0643,1275.4039 384.8553,1279.0439 371.7253,1280.3749 C324.9273,1282.7679 314.9033,1240.7429 303.2853,1204.5919 C301.0723,1206.1439 296.1233,1214.0469 292.4013,1212.3129 C271.3863,1207.6549 250.9263,1202.0859 228.6463,1203.4769 C203.0753,1198.0179 70.5653,1256.3819 82.7953,1205.4829 C88.7683,1183.3479 121.6433,1172.8599 138.5753,1157.5799 C163.1973,1129.5669 157.2013,1093.5259 168.9633,1060.1679 C178.7423,1026.7029 190.1683,995.1759 211.3133,964.4139 C213.2223,849.4309 217.5283,708.7029 247.2933,606.4439 C266.2713,534.6789 289.7823,460.4839 280.7453,385.1779 L275.6123,385.0409 C273.3673,383.7679 269.9163,382.8079 267.1613,383.2309 C264.8373,380.6619 260.5293,381.4429 257.3713,380.4029 C251.6793,327.2139 249.4843,281.6899 256.7073,233.4369 C263.4163,153.7629 313.6943,121.1729 387.1293,103.8199 C467.8313,77.3489 522.5893,50.3699 564.4023,-15.4531 C572.3103,-28.8111 577.1163,-44.6271 587.6523,-55.8901 C613.8153,-89.0041 689.0583,-83.5451 708.4903,-48.6781 C716.9763,-28.2811 717.7063,-4.4751 724.1613,16.7299 C749.5383,106.7939 866.2553,96.1859 928.0473,145.4299 C955.2483,165.6019 964.0133,196.7459 967.5393,228.4469 C971.9833,268.3119 980.4713,306.6979 979.3823,346.3199 C982.2213,346.8579 988.7193,344.8359 989.8203,348.9049 C987.2353,357.4639 954.1003,357.4339 944.8593,358.9479 C957.0143,423.3129 945.9913,487.9459 955.7603,552.5159 C970.8193,625.0619 1000.4493,692.4359 1023.7193,762.5209 C1032.6753,785.6829 1038.6723,810.5119 1051.9943,831.6049 L1051.7543,831.7889 C1053.8613,835.2869 1056.1713,838.6899 1058.5703,841.9679 C1061.0383,842.8579 1063.6123,844.3079 1066.0493,845.1989 L1066.5913,844.2849 L1067.9073,846.0519 L1071.7733,844.4189 C1077.4523,847.2579 1083.6203,850.5459 1089.6783,854.0029 C1164.1343,899.1869 1212.8583,945.0359 1271.2343,1001.8109 L1263.4893,1008.0929 C1266.3083,1012.0169 1269.7233,1017.2099 1272.4623,1021.3459 C1274.7483,1019.3269 1279.6283,1015.9299 1282.4403,1014.7629 C1332.2143,1073.9329 1338.3003,1176.4989 1314.0583,1238.8499 C1306.3473,1257.5339 1294.1483,1272.8729 1279.4153,1285.7949 C1273.3313,1294.9409 1262.3963,1307.5729 1248.4233,1313.6389 C1248.4233,1313.6389 1246.6613,1316.1329 1246.6023,1316.2169 C1245.8563,1316.3179 1241.2803,1317.3679 1241.0123,1318.4339 C1203.8183,1324.7049 1166.5213,1341.0749 1127.9793,1341.3119 C1065.1173,1340.7639 1011.1013,1289.7259 960.6823,1256.0199 C928.7893,1233.2739 891.6263,1217.6489 857.1863,1202.4419 C859.7543,1215.5519 859.0243,1220.0489 844.7703,1225.0059 C832.0733,1230.0589 816.7993,1226.1079 804.9873,1220.5559 C805.2953,1242.2859 807.0273,1263.9859 806.4293,1287.1609 C806.4253,1315.2149 807.3613,1349.7089 777.1323,1362.6599 C725.6573,1382.9369 667.4953,1397.5019 616.7183,1398.1119 L616.7183,1398.1119 Z" id="ðŸŽ¨-Background" fill="#FFFFFF"></path>
        <path d="M570.4729,-43.2695 C574.5129,-50.9995 586.7229,-45.5595 584.3529,-37.4195 C578.3129,-16.6985 563.8129,2.8905 549.8229,19.0205 C535.7529,35.2415 519.2429,49.3215 501.4729,61.3605 C499.5229,67.9605 499.9429,74.3105 502.5829,80.7505 C503.5929,83.2105 502.5429,85.0805 500.8029,86.0315 C502.5829,92.6305 503.6829,99.5115 505.5429,106.0605 C510.3929,123.1405 518.1729,139.4915 528.3429,154.0515 C546.6429,180.2615 572.5529,200.2615 603.8829,207.9715 C634.6029,215.5315 668.4529,211.1905 695.1429,193.7505 C719.1829,178.0405 736.3529,153.3805 739.1729,124.4405 C740.4829,110.9405 739.2629,97.4005 736.1329,84.2305 C734.4729,77.2505 732.3329,70.3905 729.8129,63.6815 C727.1529,56.6105 723.5929,49.8705 721.6329,42.5805 C721.4529,41.9115 721.4029,41.2415 721.4529,40.5805 C717.5629,34.2705 716.3129,26.3605 718.6029,19.0605 C718.7129,18.7015 718.8529,18.3705 719.0229,18.0715 C718.8729,16.8305 718.7229,15.5805 718.6029,14.3305 C718.1029,9.3605 718.2629,4.4915 718.0229,-0.4485 C717.7829,-5.1895 716.9229,-9.3695 717.2329,-14.1295 C717.2729,-14.7495 718.0229,-14.9285 718.3729,-14.4285 C721.491521,-9.97746552 722.046527,-5.82474257 723.620228,-0.836232994 L723.7929,-0.2985 C725.5329,5.0515 726.8929,10.3705 728.3429,15.8105 C730.5829,24.2415 733.7329,32.1815 738.4329,39.5515 C746.6629,52.4315 758.0529,62.8605 770.7829,71.2015 C820.0029,103.4205 883.3329,104.3405 930.1529,141.3505 C941.4129,150.2505 951.1829,161.4005 957.7629,174.2105 C965.958971,190.157821 968.861296,207.699537 971.429163,225.233415 L971.8629,228.2105 C974.8229,248.6105 977.4829,269.0605 979.7929,289.5405 C980.9429,299.7015 982.0029,309.8805 982.9829,320.0605 C983.6329,326.8015 985.3029,334.2015 984.5029,341.0205 C985.4029,341.0315 986.2929,341.1305 987.1729,341.3805 C990.9529,342.4205 994.0729,345.2615 994.2029,349.3405 C994.5263,359.94508 979.348844,361.079156 971.616793,362.361709 L971.1529,362.4405 C964.2729,363.6305 957.3329,364.5605 950.3629,365.0715 C952.8329,378.4205 953.7329,392.0005 954.4329,405.6205 C955.107567,418.6819 955.346633,431.785784 955.516864,444.88128 L955.714857,460.94478 C956.06023,491.271325 955.031554,522.138962 960.0629,552.1505 C964.406778,578.100561 972.639639,603.132668 981.179753,627.971953 L984.7629,638.3605 C995.1429,668.4515 1005.4329,698.5705 1016.1429,728.5405 C1021.5029,743.5305 1026.8329,758.5405 1032.1729,773.5405 C1034.8429,781.0405 1037.4829,788.5505 1040.1829,796.0405 C1041.1729,798.7705 1042.2929,801.4915 1043.2929,804.2305 C1043.7629,804.7415 1044.1629,805.3405 1044.4129,806.0805 C1046.9629,813.6505 1050.3029,820.8405 1054.2929,827.6705 C1059.1129,831.3505 1063.7729,835.0505 1068.2029,839.2015 C1068.2429,839.2305 1068.2629,839.2805 1068.2929,839.3205 C1069.5229,838.8005 1070.9729,838.7505 1072.4829,839.5005 C1078.6829,842.5905 1084.7829,845.8705 1090.7929,849.2705 C1090.8629,849.3005 1090.9229,849.3205 1090.9829,849.3505 C1091.0029,849.3705 1091.0129,849.3905 1091.0229,849.4115 C1127.9929,870.3705 1161.5729,896.8705 1193.7629,924.5505 C1210.1129,938.6105 1226.3129,952.8805 1242.2929,967.3605 C1257.4429,981.0905 1272.2429,995.3105 1285.1529,1011.2015 C1297.9829,1026.9915 1308.7529,1044.2215 1315.9529,1063.3105 C1323.6231,1083.64683 1327.2438,1105.28821 1329.63502,1126.82462 L1329.7829,1128.1705 C1333.8929,1166.0505 1333.0529,1206.2605 1317.9629,1241.8215 C1310.4129,1259.6115 1299.1729,1275.4415 1284.6329,1288.2015 C1284.0229,1288.7415 1283.3929,1289.2505 1282.7729,1289.7815 C1274.5529,1301.9515 1263.7229,1312.9205 1250.7929,1319.0215 L1249.33734,1321.08528 L1249.33734,1321.08528 L1248.6029,1322.1115 L1243.5329,1323.4115 L1243.0529,1323.8905 L1243.0529,1323.8905 C1241.3929,1325.5215 1239.4029,1325.6305 1237.7629,1324.9015 L1220.1229,1329.44488 L1220.1229,1329.44488 L1202.4829,1333.9815 C1178.9429,1340.0505 1155.1129,1346.9605 1130.6629,1347.8615 C1107.7529,1348.7105 1085.7729,1342.6705 1065.0929,1333.1815 C1044.9429,1323.9415 1026.4229,1311.4915 1008.2529,1298.8805 C990.5829,1286.6205 973.2029,1273.9415 955.6129,1261.5505 C949.3929,1257.1705 943.1429,1252.8705 936.8329,1248.6615 C935.4489,1247.9407 934.0777,1247.22694 932.71418,1246.56118 L931.6929,1246.0715 C925.3529,1243.0805 919.2229,1239.5715 912.9829,1236.3805 C900.5029,1229.9915 887.8229,1223.9705 875.1029,1218.0715 C871.0429,1216.1815 866.9229,1214.3805 862.7829,1212.6305 C862.9329,1213.8615 862.9229,1215.1115 862.7329,1216.2905 C861.4929,1224.3805 852.0929,1228.6515 845.2929,1231.2415 C839.5929,1233.4205 833.2729,1234.1915 827.1929,1233.8805 C821.1429,1233.5715 815.0129,1232.3615 809.3729,1230.0805 C809.3729,1230.1305 809.3729,1230.1705 809.3829,1230.2205 C810.474665,1246.35321 810.910928,1262.55501 810.85843,1278.72835 L810.828387,1284.2642 C810.755,1300.15767 810.9659,1316.71945 807.6029,1332.2605 C804.0029,1348.9015 793.3929,1361.5405 778.0629,1368.7205 C764.629352,1375.01724 750.005626,1379.12528 735.779944,1383.37783 L732.8429,1384.2605 C701.8529,1393.6405 670.0929,1400.9915 637.7729,1403.7505 C607.1429,1406.3615 575.2029,1404.1515 546.3329,1392.9515 C515.3629,1380.9315 490.5129,1359.8615 469.9329,1334.1015 C453.540992,1313.58143 438.773224,1291.72306 424.092825,1269.87803 L419.2629,1262.6915 C416.3829,1264.6015 413.4629,1266.4605 410.5029,1268.2605 C409.5229,1270.2015 408.1129,1271.9515 406.0929,1273.5715 C402.8029,1276.2205 399.3729,1278.6115 395.5729,1280.4605 C387.6329,1284.3215 379.2729,1286.4705 370.4629,1286.9915 C354.1329,1287.9415 337.2129,1282.1705 325.3129,1270.8705 C309.8429,1256.1615 305.9729,1235.3705 299.2229,1216.2905 C296.8729,1218.6915 293.3429,1219.4415 289.8129,1218.8615 C279.2029,1217.1615 268.9829,1213.6015 258.3229,1211.9315 C248.0629,1210.3105 237.5729,1209.8215 227.1929,1210.1015 C207.336233,1210.63817 188.462258,1215.3802 169.470803,1220.73048 L164.531143,1222.12904 C147.286392,1227.00551 129.776991,1231.6915 111.8029,1232.5315 L109.572334,1232.62768 C101.03794,1232.96347 90.7308592,1232.91764 83.2829,1229.0605 C73.8629,1224.1815 72.3229,1213.4915 75.5029,1204.1705 C80.0729,1190.7315 90.4629,1181.5405 102.0629,1174.0215 C112.2329,1167.4315 124.2329,1161.9605 132.8429,1153.8405 C144.086736,1143.2279 147.334234,1127.15794 150.05003,1112.54837 L150.1629,1111.9405 C153.4429,1094.2215 156.8529,1076.6405 161.5529,1059.2305 C166.2429,1041.8505 172.3129,1024.8705 179.4529,1008.3505 C186.4329,992.1815 194.4029,975.7415 204.8629,961.4915 C204.8729,961.4605 204.8829,961.4405 204.8929,961.4205 C204.7829,960.8405 204.6929,960.2505 204.6529,959.6105 C204.4829,957.0405 204.6629,954.4005 204.6929,951.8205 L204.8429,935.2505 L204.8429,935.2505 C204.9529,924.5205 205.0829,913.8005 205.2629,903.0705 C205.6229,880.9805 206.1029,858.8705 207.1129,836.8005 C210.6829,758.7015 219.9129,681.2505 239.8729,605.5405 C249.5429,568.8305 260.1329,532.2105 267.4229,494.9315 C271.3529,474.8405 273.8429,454.7815 274.9529,434.6305 C275.3229,420.3215 274.8829,405.9715 273.6229,391.6615 C272.8929,391.6405 272.1229,391.4605 271.3429,391.0515 C270.3029,390.5005 269.2029,390.1105 268.0729,389.7905 L265.1129,389.8705 L265.1129,389.8705 C263.3829,389.9205 262.1229,389.2305 261.3229,388.2015 C260.8229,388.0605 260.3229,387.9115 259.8329,387.7415 C256.9629,387.5515 254.1229,386.9405 251.2829,385.9205 C250.5429,385.6505 250.1629,385.1205 250.0829,384.3405 C249.7429,381.2615 249.4129,378.1705 249.0929,375.0805 C248.4329,372.3015 248.2129,369.3715 248.2229,366.4005 C245.5329,338.3605 243.9129,310.0805 244.8029,281.9205 C244.1629,280.6015 244.3129,279.1905 244.9429,277.9915 C245.5429,262.9805 246.8729,248.0205 249.1629,233.1505 L249.493015,231.039324 C254.976852,196.531992 265.0587,160.9047 293.2729,138.0805 C319.3829,116.9605 352.2829,108.4605 383.7329,98.7105 L386.532643,97.8365931 C426.181426,85.375535 465.189452,69.444408 499.0429,44.9605 C514.5829,33.7215 528.8129,20.5405 541.0529,5.7815 C547.2029,-1.6295 552.7529,-9.5285 557.6029,-17.8495 C562.4329,-26.1095 566.0529,-34.8185 570.4729,-43.2695 Z M930.7029,786.4315 C928.2429,790.3005 925.3229,793.8105 921.9529,796.8105 C919.4029,798.0705 916.8929,799.4205 914.4029,800.7905 C912.5729,801.4315 910.7629,802.1005 908.9629,802.8005 C905.4529,804.0205 901.9729,805.3505 898.4929,806.7015 C897.6629,806.6105 896.8329,806.4715 896.0429,806.2305 C887.2529,810.0605 878.0429,812.8905 868.5629,814.6505 L868.4029,814.6705 L868.4029,814.6705 C860.6629,818.0505 852.8329,821.2015 845.0329,824.2015 C824.4529,832.1205 803.3329,838.5805 781.9229,843.8405 C743.7229,853.2215 704.6529,858.8705 665.5129,862.5405 C628.2829,866.0205 590.7429,868.3205 553.3429,868.0705 C501.8129,867.7305 446.3529,861.4315 401.7829,834.9515 C401.6549,836.4387 401.4437,837.93358 401.27218,839.388524 L401.1029,840.9405 C402.2229,851.0115 402.3829,861.1305 401.6629,871.4115 C400.5229,887.7615 397.3229,903.8805 395.8929,920.2015 C395.6029,923.5305 394.2229,925.8805 392.3329,927.3705 C389.0729,961.1815 389.7029,995.7615 396.1629,1029.0305 C397.1729,1029.5805 398.0229,1030.3505 398.6729,1031.2415 C398.9729,1033.2705 399.3629,1035.2615 399.8729,1037.2215 C399.8629,1037.2805 399.8529,1037.3505 399.8329,1037.4105 C399.5529,1038.5005 399.1329,1039.5005 398.6229,1040.4315 C404.2629,1064.1505 413.0129,1087.0805 425.6329,1108.4205 C440.801866,1134.04326 460.722083,1156.21739 480.639852,1178.20106 L486.2729,1184.4205 C497.3129,1196.6115 508.2829,1208.8805 518.4729,1221.8005 C523.8829,1228.6615 529.1529,1235.6405 534.0629,1242.8705 L535.799619,1245.42686 C540.121897,1251.81794 544.2129,1258.25756 546.1629,1265.8105 C548.5729,1275.1615 536.5129,1282.8805 529.5529,1275.4815 C523.0329,1268.5405 518.7029,1260.0315 513.3229,1252.2015 C508.3829,1245.0215 503.1129,1238.0905 497.6029,1231.3305 C486.845253,1218.13521 475.378955,1205.52543 463.987691,1192.8734 L459.687353,1188.08821 C438.760222,1164.74521 418.0829,1140.66783 403.0029,1113.0405 C393.2929,1095.2505 385.8429,1076.3705 380.4429,1056.8905 C379.0829,1058.1815 377.7429,1059.4915 376.4629,1060.8605 C369.2229,1068.6005 363.3229,1077.4405 358.9629,1087.1105 C354.6829,1096.6205 351.8829,1107.3205 350.9529,1117.7105 C350.4829,1122.9315 350.1829,1128.1605 350.1329,1133.3905 C355.1229,1132.1505 360.3029,1134.5205 363.2929,1138.8905 L379.0129,1161.8515 L379.0129,1161.8515 L410.17665,1207.36138 L410.17665,1207.36138 L441.3329,1252.8705 C459.5529,1279.4705 476.7829,1307.4815 498.6329,1331.3215 C518.4929,1352.9915 542.4829,1368.7505 571.1229,1375.9515 C598.7829,1382.9015 628.3129,1382.1305 656.4829,1377.8215 C685.944329,1373.32029 714.881636,1365.43706 743.406453,1356.91515 L745.4929,1356.2905 C757.2529,1352.7605 772.7429,1349.9205 780.7129,1339.6015 C789.017558,1328.85082 788.012611,1312.06883 788.405684,1299.186 L788.4229,1298.6515 C790.6729,1232.8615 784.0729,1166.9415 769.5429,1102.7505 C762.2829,1070.6905 753.5529,1038.8605 742.7329,1007.8205 L740.003039,999.988185 C735.449567,986.932167 730.8579,973.873833 725.9329,960.9405 C719.0029,946.4715 711.3729,932.3305 703.0629,918.5705 C699.7229,913.0405 708.3729,908.0205 711.6929,913.5205 C724.0729,934.0305 734.9429,955.3705 744.2729,977.4005 C745.2029,979.2805 746.1229,981.1705 747.0329,983.0605 C749.4429,974.4315 752.9329,966.1405 757.0129,958.1305 C762.0329,948.2705 768.3729,939.1505 775.4029,930.6105 L776.106514,929.760592 C783.287909,921.145821 791.351313,913.377643 802.8929,911.4605 C809.2329,910.4115 813.7629,916.0605 810.9929,922.0005 C806.4629,931.7015 798.7429,938.0705 791.5929,945.7105 C785.0929,952.6605 779.4829,960.2505 774.4929,968.3505 C769.3029,976.7505 764.9529,985.7505 761.0729,994.8205 C759.6629,998.1205 758.3729,1001.4715 756.9029,1004.7305 C773.9329,1044.3405 786.5829,1085.9315 795.4429,1127.8705 C795.5729,1128.4605 795.6829,1129.0605 795.8029,1129.6505 C801.3129,1132.8605 806.5829,1136.9105 811.8529,1140.1905 L815.92858,1142.72282 C821.3673,1146.0953 826.8329,1149.4345 832.4329,1152.5305 C839.4429,1156.4015 846.6029,1160.0405 853.9029,1163.3515 C861.7429,1166.9115 869.6829,1169.2015 876.4029,1174.6815 C880.0529,1177.6615 876.9329,1183.7815 872.6529,1183.7205 C865.343598,1183.61469 858.769693,1180.75279 852.273288,1177.60516 L847.8229,1175.4315 C840.1029,1171.6915 832.5929,1167.5505 825.3429,1162.9605 C817.9029,1158.2505 810.7629,1153.2105 804.0429,1147.5405 L802.177344,1145.96724 C800.919567,1144.90206 799.639567,1143.80383 798.3729,1142.6705 L799.164752,1146.89376 C799.296233,1147.59872 799.426233,1148.3045 799.5529,1149.0115 C800.8029,1149.7015 802.0629,1150.3505 803.3129,1150.9715 C803.5629,1151.7905 803.8229,1152.6105 804.0929,1153.4205 C803.1129,1154.0805 802.4529,1155.2615 802.7829,1156.6405 C803.964438,1161.69896 804.592131,1166.84348 805.287333,1171.96945 L805.4629,1173.2505 L803.1729,1171.5105 C803.6629,1174.8515 804.1129,1178.2015 804.5529,1181.5505 C830.7129,1183.4815 856.6329,1192.8105 881.0029,1201.7415 C894.6829,1206.7505 908.0529,1212.4415 921.2529,1218.5905 L924.439011,1220.07559 C929.748733,1222.56217 935.044567,1225.1205 940.1529,1227.9705 C940.719567,1228.29117 941.281789,1228.61583 941.839567,1228.9448 L942.6729,1229.4415 L944.6529,1228.9115 C947.4429,1229.7815 950.2229,1230.6705 953.0029,1231.5715 C964.1629,1239.2605 975.1729,1247.1705 986.1329,1255.1015 L998.282177,1263.89933 C1011.45335,1273.42079 1024.68231,1282.86891 1038.2329,1291.8305 L1040.27574,1293.17668 C1056.99226,1304.14207 1074.53486,1314.36485 1093.6929,1320.3515 C1114.4629,1326.8515 1135.3529,1326.4815 1156.5529,1322.2505 C1179.6429,1317.6305 1202.4329,1311.2315 1225.2729,1305.5405 C1233.1529,1303.5805 1241.0329,1301.6305 1248.9229,1299.6815 C1251.5629,1297.7605 1254.1129,1295.7105 1256.5529,1293.5405 C1279.5029,1263.6305 1294.8029,1228.1405 1301.4629,1190.8905 C1309.0729,1148.3105 1304.4729,1104.4005 1288.2329,1064.3305 C1272.2129,1024.8105 1245.6929,990.4005 1215.1529,961.0115 C1183.5929,930.6305 1147.6329,905.1815 1110.4529,882.1705 C1083.8629,865.7215 1056.6329,850.2415 1029.0529,835.4315 C1025.2729,834.0115 1021.6129,832.2805 1018.0029,830.4405 C1010.7229,827.2905 1003.4829,824.0805 996.2929,820.7705 C989.3429,817.6815 982.3929,814.5605 975.4729,811.4115 C969.9454,808.89825 964.42915,806.363063 958.919931,803.809734 L953.4129,801.2505 C947.7429,798.6105 941.8329,796.1815 936.9229,792.2105 C935.1129,790.7415 933.6429,789.1615 932.4629,787.4805 C931.8829,787.1305 931.2829,786.7905 930.7029,786.4315 Z M596.1328,1217.1205 C596.5828,1216.3215 597.7228,1217.0215 597.3428,1217.8305 C593.0528,1227.1205 590.4528,1237.6615 588.0628,1247.5905 C585.9063,1256.54995 584.282275,1265.55272 583.507954,1274.73085 L583.274044,1277.69917 C582.600134,1286.03354 581.589146,1295.47492 585.6128,1303.0605 C588.347,1308.21628 593.712696,1314.37856 599.479263,1316.04419 L599.8328,1316.1405 C606.7028,1317.8905 605.7728,1327.0105 599.8328,1329.1615 C588.4828,1333.2505 576.4728,1327.9315 570.2628,1318.0005 C563.7328,1307.5805 563.7928,1294.5005 566.3128,1282.8705 C568.8628,1271.1015 574.0028,1259.5315 578.9128,1248.5715 C583.8628,1237.5405 590.2628,1227.6205 596.1328,1217.1205 Z M370.6629,1003.1605 L366.209002,1004.317 C337.916625,1011.68518 308.2714,1020.172 291.5229,1046.2305 C277.4829,1068.0905 275.8029,1095.7505 277.5929,1120.9715 C278.0069,1126.8035 278.6153,1132.62659 279.43268,1138.42036 L279.7129,1140.3505 C280.6729,1146.7615 280.9429,1155.0205 284.1729,1160.7205 C287.3029,1166.2505 294.7129,1169.2815 299.3129,1173.4515 C304.1529,1177.8405 308.2129,1183.3305 311.4129,1189.0105 C317.7729,1200.3215 321.3229,1212.9705 325.4529,1225.2015 L325.887942,1226.48009 C329.534705,1237.12602 333.762515,1247.514 342.0029,1255.1015 C345.2229,1258.0715 349.9429,1260.6305 354.2729,1262.0105 C360.2229,1263.9015 363.9729,1264.3515 370.4629,1263.9605 C374.3629,1263.7205 380.7929,1262.1515 384.5129,1260.2605 C390.8429,1257.0505 393.7729,1252.7815 401.1529,1251.3105 C403.3929,1250.8615 405.9329,1251.2505 408.0429,1252.3405 C409.0029,1251.6615 409.9629,1251.0005 410.9429,1250.3805 C409.9429,1248.9115 408.9429,1247.4415 407.9429,1245.9815 L342.8129,1150.8605 L342.8129,1150.8605 C340.3829,1147.3105 340.7729,1142.6205 342.8629,1138.9915 C342.1929,1137.2615 341.6329,1135.5405 341.1629,1133.9515 C339.4729,1128.1905 338.5529,1122.3405 338.3729,1116.3405 C338.0229,1104.2705 339.9629,1092.1705 343.9029,1080.7615 C347.9929,1068.9205 353.9229,1057.8705 361.8729,1048.1815 L362.622624,1047.2741 C365.841226,1043.40204 370.227715,1038.44587 375.1629,1034.5005 C374.0529,1028.7905 373.0929,1023.0505 372.3029,1017.2905 C371.6529,1012.5905 371.1129,1007.8805 370.6629,1003.1605 Z M805.3829,1188.1305 C806.6329,1198.3515 807.6729,1208.6015 808.5229,1218.8515 C814.2129,1219.4315 819.9329,1218.9205 825.5829,1216.9315 C829.7429,1215.4815 833.7529,1213.2505 837.4029,1210.7905 C840.0429,1209.0005 842.3229,1206.9315 844.9729,1205.3405 L838.952609,1202.91646 C827.586175,1198.32498 816.2714,1193.6215 805.3829,1188.1305 Z M379.9129,394.3605 C347.8629,390.8505 315.6429,389.2305 283.4129,389.5115 C286.1929,419.1205 285.4829,448.9515 281.3529,478.3405 C280.6029,487.9205 279.5829,497.4315 278.4129,506.8305 C268.9229,583.2705 246.9029,657.4315 238.2329,734.0005 C233.8129,773.0005 231.6829,812.1905 230.3529,851.4005 C229.6929,870.9005 229.2929,890.4005 229.0229,909.9005 C228.8829,919.9715 228.7729,930.0505 228.6829,940.1205 L228.5629,954.7415 L228.5629,954.7415 C228.5429,957.3305 228.7729,960.2505 228.0729,962.7805 C227.424011,965.144944 225.890184,967.098525 224.461707,969.055617 L223.9329,969.7905 C220.5629,974.5605 214.6229,975.2415 210.6429,971.5505 C205.8829,980.1305 201.0029,988.6305 196.5929,997.4105 C190.8429,1008.8705 185.7829,1020.6505 181.9029,1032.8205 C178.5929,1046.6405 175.8929,1060.6305 173.5429,1074.6205 C170.6829,1091.5605 168.7629,1108.6605 165.7829,1125.5805 C163.0029,1141.3705 157.6729,1156.4915 146.4229,1168.2815 C137.6329,1177.4815 126.5829,1183.6405 115.9729,1190.4415 L114.275945,1191.53441 C109.901295,1194.36952 106.661789,1196.65594 102.8929,1200.4515 C99.8429,1203.5215 97.7129,1206.5905 96.5229,1210.2415 L97.3685851,1210.45503 C97.7329,1210.54326 98.0757571,1210.61664 98.3729,1210.6515 C102.5229,1211.1205 106.7329,1211.2315 110.9029,1211.1405 C119.5829,1210.9415 128.1329,1209.6405 136.5829,1207.7505 C153.9229,1203.8705 170.7529,1198.0405 188.0729,1194.1405 C205.9929,1190.1015 224.4729,1188.3405 242.8229,1189.4115 L244.713155,1189.52553 C259.911476,1190.47811 276.8789,1192.4415 291.1829,1198.4415 C290.5429,1197.3515 289.8729,1196.2815 289.1629,1195.2205 C285.6929,1190.1015 279.6329,1186.0315 274.3029,1181.8215 C266.7629,1175.8615 262.6529,1168.0905 261.0229,1158.6705 C258.3629,1143.3205 256.7729,1127.6005 256.6829,1112.0115 C256.5029,1082.2015 262.4129,1050.3305 284.1429,1028.3505 C284.2029,1028.3005 284.2629,1028.2415 284.3229,1028.1815 C284.3729,1027.1505 284.4029,1026.1305 284.4129,1025.1005 C280.2729,1023.5705 277.1429,1019.6505 277.1929,1014.8905 C277.2829,1006.9105 277.7229,998.9315 279.0629,991.0605 C275.9129,989.7505 273.4929,986.8005 273.4729,982.7305 C273.443757,976.105357 276.726908,970.30121 279.380494,964.383014 L279.6129,963.8605 C282.0029,958.4515 284.3929,953.0305 286.7829,947.6105 L296.326604,925.946056 C297.918456,922.336056 299.5129,918.727167 301.1129,915.1205 C317.7629,877.6505 335.3429,840.6205 352.3429,803.3105 C359.0829,788.5205 365.6329,773.6405 371.6529,758.5405 C375.6229,742.1105 380.4629,725.9005 384.9629,709.6105 C389.4429,693.3605 393.6529,677.0115 396.4229,660.3705 C399.2929,643.1505 400.4829,625.6615 400.6829,608.2105 C401.083987,573.52137 397.417848,538.860949 393.064129,504.48201 L392.7729,502.1905 C388.2029,466.2805 383.7829,430.3705 379.9129,394.3605 Z M1146.7927,1072.1607 C1146.0827,1071.6307 1146.7427,1070.4307 1147.5027,1070.9407 C1166.4627,1083.6007 1184.3427,1099.0307 1198.3127,1117.1107 C1213.1927,1136.3507 1224.6427,1157.8807 1232.7527,1180.7907 C1235.7727,1189.3517 1221.4227,1193.4317 1219.1027,1184.5507 C1207.7827,1141.3507 1182.9827,1099.0507 1146.7927,1072.1607 Z M971.3828,929.2508 C971.7528,928.7908 972.4928,929.3908 972.1928,929.8808 C965.564675,940.577675 961.415066,952.329238 956.827102,963.973683 L955.9028,966.3008 C951.1528,978.1508 947.1328,990.4208 943.9428,1002.7808 C937.4528,1027.9108 935.6628,1053.8908 931.2228,1079.4108 C930.3428,1084.4608 922.2028,1084.2808 921.1828,1079.4108 C915.4928,1052.0008 921.0828,1024.1108 930.2628,998.1208 C934.8328,985.1808 940.4628,972.7408 947.3428,960.8608 C953.9828,949.3908 963.1628,939.5708 971.3828,929.2508 Z M517.0527,972.3708 L518.43906,971.620711 C539.783565,960.158695 565.093977,950.578034 589.5327,952.7508 C596.2927,953.3508 598.1827,962.8808 591.1827,964.9008 C568.3627,971.4908 545.1827,975.0908 523.1627,984.4208 C501.1527,993.7408 481.9227,1007.1308 462.7427,1021.1508 C461.9827,1021.7108 460.9427,1020.6208 461.4527,1019.8708 C475.1927,999.7108 495.8227,983.9408 517.0527,972.3708 Z M358.4129,830.6205 C353.0429,844.2505 347.4629,857.8005 341.8929,871.3405 C334.586233,889.082722 327.034628,906.746722 319.427715,924.366212 L304.0329,959.9715 L304.0329,959.9715 C301.8029,965.1005 299.5829,970.2415 297.3629,975.3705 C296.1429,978.2015 295.0629,981.0405 293.6229,983.6505 C293.924076,985.514029 294.110097,987.147247 294.264333,988.042427 L294.2929,988.2015 C295.7629,996.1305 297.0729,1004.0905 298.8329,1011.9605 C299.2129,1013.6405 299.2229,1015.3105 298.9229,1016.8905 C301.0629,1015.6205 303.2529,1014.4605 305.5029,1013.3905 C313.1229,1008.7805 322.1129,1005.6405 329.7329,1002.7215 C342.7629,997.7305 356.1929,993.9405 369.6429,990.2615 C368.1229,965.6205 369.0629,940.8405 372.3329,916.3305 C373.4929,907.7105 374.8329,899.1205 376.4529,890.5705 C378.0429,882.2015 380.3129,873.8705 381.2629,865.4005 C382.5004,854.3818 380.542774,834.630409 365.803468,833.712522 L365.3529,833.6905 C362.2129,833.5705 359.9029,832.3705 358.4129,830.6205 Z M1266.7629,1005.2415 C1268.6429,1007.8805 1270.4729,1010.5505 1272.2629,1013.2505 C1272.5829,1013.0005 1272.9329,1012.7705 1273.3029,1012.5805 C1271.1729,1010.1005 1268.9829,1007.6505 1266.7629,1005.2415 Z M370.4129,1000.4205 L365.9729,1001.6505 L365.9729,1001.6505 C367.4929,1001.6105 369.0029,1001.5705 370.5129,1001.5505 C370.4729,1001.1705 370.4429,1000.8005 370.4129,1000.4205 Z M1055.2729,829.3105 C1056.75576,831.761929 1058.32678,834.17001 1059.98596,836.527188 L1060.8229,837.7015 L1063.9429,839.0115 C1064.3929,839.1905 1064.7829,839.4205 1065.1329,839.6815 C1065.5929,839.8605 1066.0629,840.0305 1066.5229,840.2015 C1062.5629,836.7615 1058.8929,833.0905 1055.2729,829.3105 Z M889.0329,357.7905 C888.6329,370.2215 888.1429,382.6405 887.6429,395.0605 C885.9729,436.7215 883.5629,478.4005 882.7029,520.0905 L882.647549,522.906042 C881.970625,559.517938 883.02265,596.49725 893.5429,631.8605 C898.785043,649.501238 906.819323,665.453353 916.008485,681.301074 L919.251146,686.870137 C927.647876,701.336069 935.955863,716.424574 939.5129,732.8305 C941.1629,740.4205 941.5229,748.8405 940.5629,757.2105 C941.1329,758.1905 941.3229,759.4405 940.8729,760.8805 L940.085728,763.420153 C938.481471,768.650316 936.9129,774.6835 939.2529,779.6815 C939.5229,780.2615 939.8429,780.8005 940.1929,781.3205 L945.65866,783.76786 C948.3925,784.9957 951.1249,786.2365 953.8429,787.5205 C961.2929,791.0505 968.6629,794.7705 975.9929,798.5405 C977.2029,798.0505 978.6329,798.0305 980.1029,798.7705 C997.1529,807.3505 1014.1629,816.1005 1031.0429,825.0905 L1033.7329,826.2615 L1033.7329,826.2615 C1033.5529,825.9115 1033.3929,825.5705 1033.2229,825.2215 C1032.2229,824.8505 1031.2929,824.3205 1030.4629,823.6305 C1023.09683,817.482286 1021.53768,807.21521 1018.6801,798.371442 L1010.4129,773.3605 C1004.7929,756.3805 999.1829,739.3905 993.5929,722.4005 C983.6829,692.2905 973.1829,662.3605 962.9829,632.3405 L961.92451,629.214437 C952.431535,601.073013 943.8704,572.733 940.5629,543.1005 C937.0529,511.6615 938.5929,479.8005 939.1729,448.2505 L939.227109,445.035373 C939.644938,418.7323 939.531527,391.332069 944.6429,365.4005 C943.5229,365.4405 942.3929,365.4715 941.2629,365.4915 C932.0629,365.6215 922.9729,365.0515 913.8529,363.7905 C909.0029,363.1215 904.1629,362.3405 899.3929,361.2215 C897.0029,360.6615 894.5929,360.0905 892.2329,359.4005 C890.7829,358.9715 890.0029,358.3715 889.0329,357.7905 Z M325.6829,547.491 C333.8029,547.379 341.940322,547.728689 350.030124,548.548197 L354.24009,548.999993 C362.47728,549.899843 370.466536,550.988273 376.8029,556.961 C380.5429,560.501 378.7129,567.231 373.7629,568.481 C365.0829,570.681 356.9729,567.631 348.5029,565.831 C340.6629,564.151 332.7429,562.941 324.7429,562.241 C308.3229,560.801 291.9029,560.861 275.4329,560.661 C273.2629,560.641 273.2229,557.901 274.9629,557.161 C290.9129,550.451 308.4429,547.721 325.6829,547.491 Z M490.2329,68.5715 C489.2529,69.1615 488.2929,69.7815 487.3029,70.3605 C488.3629,70.3505 489.3229,70.4915 490.2329,70.7415 C490.2129,70.0205 490.2129,69.2905 490.2329,68.5715 Z" id="ðŸ–-Ink" fill="#000000"></path>
    </g>
</svg>