<?xml version="1.0" encoding="UTF-8"?>
<svg width="1534px" height="1856px" viewBox="0 0 1534 1856" version="1.1" xmlns="http://www.w3.org/2000/svg" xmlns:xlink="http://www.w3.org/1999/xlink">
    <!-- Generator: Sketch 62 (91390) - https://sketch.com -->
    <title>pose/sitting/mid-2</title>
    <desc>Created with Sketch.</desc>
    <g id="pose/sitting/mid-2" stroke="none" stroke-width="1" fill="none" fill-rule="evenodd">
        <path d="M209.845083,315.920067 C198.023083,322.555067 188.211083,327.087067 178.966083,330.183067 L165.370083,334.735067 L178.157083,341.223067 C186.842083,345.630067 195.101083,351.250067 203.405083,358.407067 L209.814083,363.932067 L212.907083,356.056067 C216.969083,345.710067 218.946083,333.941067 218.782083,321.076067 L218.652083,310.978067 L209.845083,315.920067 Z M777.742083,349.336067 C766.678083,369.324067 753.322083,389.002067 740.405083,408.032067 C711.897083,450.032067 682.418083,493.463067 673.341083,545.399067 C672.635083,549.703733 672.130416,559.435067 671.827083,574.593067 L680.277083,571.148067 C708.495083,559.642067 738.434083,551.083067 767.386083,542.807067 C778.577083,539.608067 790.147083,536.301067 801.488083,532.861067 C806.106083,531.624067 810.699083,530.178067 815.143083,528.779067 C825.924083,525.386067 836.109083,522.180067 846.817083,521.634067 L850.077083,521.468067 L851.708083,518.640067 C866.461083,493.060067 855.397083,468.677067 842.728083,445.892067 C835.118083,429.283067 825.330083,413.679067 815.862083,398.584067 C806.049083,382.940067 795.902083,366.764067 788.488083,349.835067 L783.619083,338.720067 L777.742083,349.336067 Z M233.238083,561.232067 C250.010083,578.828067 265.589083,596.707067 279.543083,614.372067 L290.139083,609.497067 C285.017083,583.404067 269.115083,565.022067 240.093083,551.643067 L233.238083,561.232067 Z M794.324083,954.326067 C792.645083,954.326067 791.070083,954.978067 789.890083,956.161067 C788.693083,957.362067 788.036083,958.980067 788.041054,960.714067 L794.324083,960.694067 L794.324083,954.326067 Z M96.4020827,1389.37607 C86.5480827,1372.44407 85.1000827,1345.86107 99.8680827,1331.44907 C94.9010827,1300.32207 104.659083,1265.53807 126.270083,1240.75607 L126.320083,1240.83107 C158.407083,1192.69907 160.765083,1175.55007 137.321083,1121.74707 C95.4230827,1120.14307 52.2660827,1119.66407 11.3570827,1109.86007 L12.8870827,1100.70107 C11.3730827,1100.29807 3.63808267,1098.26507 1.97708267,1097.83507 C2.19908267,1099.54007 3.35208267,1107.31607 3.32408267,1108.87307 C1.41308267,1110.96707 -3.20591733,1112.91207 -4.06491733,1108.79107 C-29.7999173,998.611067 -52.8319173,890.615067 -77.8579173,780.599067 C-104.049917,669.561067 -156.723917,491.964067 -27.7879173,430.769067 L-30.4499173,419.392067 C-37.5699173,419.394067 -40.4309173,411.622067 -43.6949173,400.643067 C-58.2429173,361.363067 -29.9549173,322.850067 -3.50191733,298.555067 C32.6560827,262.296067 66.0130827,222.040067 98.2820827,183.124067 C190.330083,71.0280666 315.575083,-78.5579334 475.672083,-53.1449334 L475.133083,-46.5419334 C500.177083,-43.3879334 526.326083,-36.7549334 551.684083,-41.3749334 C638.261083,-56.3979334 732.451083,-22.4119334 785.699083,47.3690666 L787.655083,34.3630666 C787.839083,33.1360666 788.277083,32.0010666 790.216083,32.0010666 C792.753083,31.9110666 794.094083,33.9900666 795.032083,35.9080666 C886.936083,72.2960666 925.006083,190.737067 954.375083,271.919067 C958.124083,285.641067 957.067083,289.701067 956.740083,290.508067 L951.407083,293.691067 C1006.79508,367.506067 1037.23208,456.291067 1063.34308,540.475067 C1071.97308,562.917067 1072.87308,578.468067 1058.46008,592.041067 C1153.49608,649.247067 1228.07008,738.400067 1185.90608,840.039067 C1130.87708,938.938067 985.163083,1001.68807 875.716083,1058.49307 C832.254083,1082.08107 769.040083,1094.64107 729.047083,1133.27007 C726.375083,1137.22407 722.541083,1141.07907 720.218083,1140.76207 C701.656083,1143.51307 674.030083,1027.37107 678.229083,1018.07007 C658.635083,1025.08907 636.838083,1024.71607 616.344083,1028.37807 C618.180083,1032.41907 624.193083,1037.89107 619.694083,1042.38807 C619.999083,1056.02807 617.905083,1070.77307 614.908083,1084.67607 C639.503083,1080.72707 638.945083,1093.65307 615.282083,1086.81207 C614.639083,1092.83607 612.998083,1108.19407 612.370083,1114.01607 C619.433083,1110.90607 633.491083,1108.72207 638.414083,1113.58707 C636.403083,1120.07107 618.983083,1113.96507 612.273083,1115.88707 C608.348083,1145.04607 607.068083,1173.71307 604.314083,1202.79107 C625.254083,1222.77307 657.962083,1227.49507 676.649083,1249.10707 C692.482083,1265.55607 690.199083,1293.16107 671.624083,1306.39307 C683.001083,1319.75907 673.896083,1341.94607 657.284083,1345.57307 C634.653083,1350.86507 610.997083,1343.54707 588.683083,1337.39907 C551.591083,1325.16207 512.744083,1306.08707 469.932083,1279.08607 C452.995083,1268.51807 440.380083,1251.91307 434.386083,1232.31607 C390.951083,1098.21307 379.344083,1007.09007 399.846083,961.353067 C411.545771,952.499066 424.587409,957.963568 435.389537,953.128119 C440.538054,950.823444 445.177827,947.724624 448.921083,936.733067 C392.570083,931.190067 310.424083,941.490067 265.253083,914.441067 L266.842083,911.054067 C262.671083,908.387067 253.506083,897.229067 250.019083,893.642067 C256.304083,969.375067 261.356083,1047.06807 263.856083,1122.53507 C272.142083,1136.49607 279.178083,1150.94607 286.902083,1167.06807 C292.274083,1172.35307 301.673083,1181.41207 296.158083,1187.40607 C296.157083,1187.40607 342.538083,1296.20207 356.712083,1351.19707 C370.207083,1351.76807 375.678083,1374.66707 375.164083,1389.87707 C373.112083,1417.55707 337.651083,1420.49407 306.564083,1423.20607 C285.293083,1425.44307 263.422083,1426.6008 241.876083,1426.6008 C202.947083,1426.63007 105.611083,1423.94607 96.4020827,1389.37607 Z" id="ðŸŽ¨-Background" fill="#FFFFFF"></path>
        <path d="M648.2431,1012.6638 C632.9331,1016.2738 617.4941,1019.2658 602.0941,1022.4838 C598.1421,1024.2198 578.2701,1024.5018 581.8931,1030.9938 C581.8741,1031.0138 581.8641,1031.0338 581.8441,1031.0438 C585.8901,1034.1598 591.3671,1032.3958 596.2431,1032.8038 C558.3681,1048.3278 532.3931,1016.3378 539.3641,979.8228 C540.3531,973.3038 541.6341,965.8838 544.4441,959.9238 C545.9311,957.2538 556.6101,936.6698 558.4931,943.6938 C557.0151,944.5808 561.1981,944.9468 560.6141,941.7638 C690.6751,940.3188 658.6511,880.4628 670.9931,1007.5638 C663.3441,1008.1438 655.7041,1010.9038 648.2431,1012.6638 M616.6341,1068.1538 C615.9191,1071.3368 615.1291,1074.5858 614.2041,1077.7338 C588.7601,1082.1588 570.0461,1095.0788 610.3341,1092.6438 C609.1741,1097.4038 608.0841,1102.1838 607.0541,1106.9838 C602.0691,1108.8998 583.9571,1114.9798 584.8831,1120.7828 C591.1621,1122.1938 598.0151,1119.5878 604.4641,1119.8638 C600.2741,1147.6468 594.1531,1176.0688 594.7121,1204.2328 C594.6381,1213.5058 608.7871,1215.2578 610.6031,1206.0638 C627.7361,1231.2488 679.4191,1241.0848 674.5151,1277.8928 C671.7811,1285.4138 668.2041,1290.5358 660.5141,1290.8128 C655.0561,1292.2238 648.9641,1298.6748 652.1031,1304.4338 L651.9641,1304.4838 C652.5571,1309.6918 658.5041,1311.5738 662.4041,1313.0728 C666.2841,1316.0938 666.4241,1320.9638 663.3441,1325.5138 C648.2801,1341.3988 605.3211,1325.5708 586.6441,1320.3458 C548.7421,1307.1718 512.9201,1288.0978 478.7431,1267.2248 C462.7221,1257.9908 451.7101,1242.5208 446.4941,1224.9338 C423.0021,1141.2258 392.5211,1052.4028 406.3401,964.8438 C412.3261,956.3178 425.2931,957.8668 433.7331,953.3528 C419.7781,1004.8898 442.9071,1058.4088 452.3201,1109.2238 C471.7461,1200.7178 487.0531,1273.6928 587.7661,1304.2228 C601.3571,1307.0728 630.6541,1317.3828 640.7331,1305.9548 C643.9441,1302.8838 643.6241,1297.7438 640.7331,1294.6138 C635.6361,1287.7908 627.2041,1288.6058 619.5941,1287.8338 C599.8831,1285.3698 580.5941,1279.3778 563.0141,1270.1138 C523.9281,1250.7898 496.7631,1213.5248 489.8551,1170.5618 C478.1281,1122.1908 467.5981,1073.4288 453.8941,1025.5628 C444.5181,993.0028 429.2031,964.6648 463.1151,940.6848 C486.0631,941.3638 509.0341,941.9938 531.9931,942.0738 C526.3401,951.5798 520.0861,963.5638 523.2721,974.8338 C509.2721,1006.6038 527.3491,1048.9408 562.2231,1057.0438 C581.5241,1061.1998 601.5621,1056.2468 619.3741,1048.0838 C619.0941,1054.7938 618.2431,1061.2838 616.6341,1068.1538 M258.9831,912.5538 C258.8841,911.2538 258.7841,909.9438 258.6831,908.6338 C260.4541,910.5838 262.4831,912.3338 264.6631,913.9138 C262.7841,913.4338 260.9031,912.9438 258.9831,912.5538 M262.3531,1127.0838 C264.1911,1133.7118 266.2441,1140.2828 268.4731,1146.7938 C235.3531,1137.2188 191.1921,1129.2668 163.6631,1155.2638 C159.7331,1144.6598 155.0451,1134.6118 148.4731,1125.5338 C181.9891,1121.7228 215.7571,1123.8258 249.2641,1120.4138 C251.7381,1125.0978 257.3971,1127.8828 262.3531,1127.0838 M159.9031,1203.5738 C160.0231,1203.2338 160.1531,1202.8938 160.2731,1202.5638 C162.1611,1202.3278 164.0361,1202.1018 165.9131,1201.8528 C163.9031,1202.4038 161.9031,1202.9738 159.9031,1203.5738 M276.5941,1169.8938 C277.8441,1174.1748 281.1481,1176.8088 284.4831,1177.0938 C287.7821,1180.6988 289.0891,1186.1468 293.4941,1188.6138 C310.1821,1243.8488 332.6241,1297.5058 343.9331,1354.3138 C266.5901,1379.3678 194.0971,1380.8028 116.2641,1355.5438 C118.1341,1353.7038 119.0141,1351.2338 119.0541,1348.4938 C119.1031,1348.5438 119.1631,1348.5838 119.2231,1348.6338 C108.6971,1296.9238 114.6341,1280.6528 141.5141,1236.4438 C177.6301,1234.8888 213.8541,1233.5498 250.0041,1234.6338 C258.4921,1235.6288 274.9671,1228.6428 267.5441,1218.4928 C258.8341,1208.9338 245.1431,1211.5228 233.4441,1212.1438 C206.1451,1213.5158 178.9071,1217.5398 152.8931,1226.1238 C155.6271,1220.3088 156.4761,1213.3968 158.6741,1207.2338 C183.8921,1204.3698 209.3601,1203.7008 234.6541,1205.8038 C244.0841,1206.6938 255.1941,1211.2238 263.3531,1204.6438 C277.9291,1179.2768 174.7371,1193.1818 162.8741,1196.0138 C166.7801,1186.8398 170.9461,1177.3168 169.1631,1167.0228 C195.1661,1146.5358 249.6781,1153.6138 276.5941,1169.8938 M353.1031,1372.2938 C355.1831,1373.7538 357.8441,1373.6838 360.0941,1372.6838 C365.3011,1385.2868 361.6871,1398.1808 347.2721,1401.1428 C321.0051,1407.3028 293.6261,1408.4538 266.7641,1410.0348 C238.1741,1411.1538 209.4831,1410.3238 181.0041,1407.6138 C135.3021,1406.2438 94.6971,1393.3778 96.5631,1339.7238 C98.3921,1346.8878 99.5861,1357.8728 108.7831,1358.3238 C180.5561,1396.2418 273.7441,1399.8508 347.8041,1366.8938 C349.0841,1368.9338 350.7731,1370.6638 353.1031,1372.2938 M10.5141,1104.3438 C10.5041,1104.1938 10.5041,1104.0638 10.4831,1103.9138 C11.2551,1104.1158 12.0291,1104.3438 12.8131,1104.5338 C12.0441,1104.4638 11.2841,1104.3938 10.5141,1104.3438 M214.1241,319.1538 C214.2651,330.2448 212.7391,341.4858 208.6631,351.8638 C200.5541,344.8738 191.7941,338.7338 182.2141,333.8738 C193.3421,330.1468 203.8931,324.8948 214.1241,319.1538 M-16.8469,420.3738 C-15.3479,417.7268 -22.0189,420.9598 -23.0569,421.0938 C-18.7099,417.5998 -19.5959,410.1738 -24.6359,408.1838 C-48.5389,366.4938 -19.5429,328.6348 11.1051,300.9338 C63.4101,249.1818 105.9831,188.9018 154.6141,133.8338 C215.9641,144.0708 275.2241,170.3578 320.9931,212.7038 C274.1191,255.9628 225.2251,301.4298 166.2351,327.2868 C160.7511,324.6268 153.4581,325.3528 151.6341,331.3038 C144.8651,332.5368 138.1161,334.2608 131.3641,335.3638 C131.0231,335.4138 131.0731,335.9138 131.3641,335.9938 C138.0011,338.2818 144.8411,339.8048 151.9331,339.3528 C220.1551,363.1288 245.6751,436.5768 294.2121,484.5468 C333.8411,519.2378 390.6811,544.8378 396.4001,603.8558 C405.9441,622.9348 412.8341,642.8468 410.3031,664.2138 C410.9681,680.9018 405.1451,697.4568 409.9031,713.6438 C399.8961,751.9198 388.4251,791.7408 359.7641,820.6028 C358.9541,820.4038 358.1141,820.4538 357.3341,820.8338 C359.3931,808.0438 361.6031,795.2728 363.7841,782.5038 C372.0441,765.6138 377.3231,747.4438 380.7841,729.0038 C382.1911,719.7128 368.5481,717.8508 367.9731,727.3138 C358.6681,760.4878 347.3931,799.7988 315.0441,819.0938 C320.9291,796.8048 328.0331,774.7678 337.8341,753.8838 C341.5841,746.9338 345.1241,739.8638 348.5941,732.7728 C352.3341,725.0938 341.1631,718.3438 337.0141,726.0038 C321.9041,754.8148 307.6541,787.4448 278.8741,804.6838 C287.9591,774.6318 299.9281,745.1898 311.2721,715.8838 C312.5341,712.8738 309.9131,709.3138 307.0841,708.5038 C303.6341,707.5138 300.9541,709.7238 299.7041,712.6938 C295.1501,723.2558 291.6941,735.4838 284.3441,744.6338 C281.3881,754.7738 260.7581,770.4428 271.2441,747.1938 C281.4391,717.2878 288.3611,685.3888 302.9931,657.4938 C307.0171,606.8978 299.3771,575.2468 250.6221,551.8238 C243.5541,548.2838 234.7841,543.7538 226.3041,542.2338 C202.6031,518.6428 177.2941,496.7238 150.0731,476.8338 C94.9171,435.1368 11.0631,397.8888 -52.1769,444.4138 C-42.0269,434.3838 -30.2459,426.0938 -16.8469,420.3738 M223.6941,60.2338 C289.2171,-3.7152 374.5741,-54.6972 468.6141,-54.7162 C467.7731,-54.4362 467.6241,-53.4162 468.1241,-52.7562 C396.7781,247.6608 739.3271,364.4458 801.5631,34.8238 C866.9011,77.4578 916.4491,188.4458 939.0541,261.7838 C880.4791,266.3268 827.7721,303.3268 793.6431,349.6238 C790.7021,344.6188 790.0651,338.6778 798.0051,340.1338 C799.8201,338.3948 791.5181,339.3868 790.8231,340.8038 C806.6171,307.0818 822.8651,272.1728 832.0821,235.3728 C832.3531,234.4438 831.0441,233.9238 830.5441,234.7238 C816.6941,256.7938 802.1341,278.3838 788.6241,300.6638 C742.9151,390.1558 651.6771,468.7878 655.5541,575.6638 C655.5341,575.6738 655.5231,575.6838 655.5141,575.6938 C657.2851,578.7878 656.5761,583.0878 659.2731,585.7938 C645.2181,648.0308 610.1721,711.6278 553.2561,743.6758 C510.2571,763.4968 463.4591,740.5268 426.3441,718.0638 C424.9741,704.9208 423.5961,691.7868 422.2141,678.6538 C428.9731,676.9548 428.1131,664.5878 428.3131,659.1538 C429.7311,636.2538 423.8131,613.7858 411.6421,594.1638 C406.0281,565.0398 390.2851,539.1518 367.5231,520.2438 C352.3231,507.2538 335.4331,496.4638 319.9541,483.8438 C278.8551,450.4528 256.8361,400.8408 220.5041,363.0738 C224.8821,347.2288 225.8071,331.3678 221.1241,315.0738 C247.0921,298.3098 388.6011,205.9668 362.3361,173.6558 C358.5341,168.0038 350.2841,169.0038 348.1141,175.5138 C345.3751,184.3598 341.3111,192.5348 334.5841,199.0238 C287.0081,155.8608 223.7011,127.2248 158.7431,129.0938 C179.5441,105.3138 201.0341,82.1028 223.6941,60.2338 M474.2541,-49.3262 C514.8441,-29.1462 563.7941,-43.1062 607.0941,-41.3362 C673.6861,-38.6992 738.2991,-5.9392 779.5731,46.4328 C763.4151,117.8138 724.8901,198.9928 646.5131,215.3738 C568.8321,229.3388 500.1771,162.7498 481.6351,91.5238 C469.2001,45.8218 468.9421,-2.4992 474.2541,-49.3262 M1033.2431,460.6028 C1039.2041,476.7038 1044.8441,492.9138 1050.3231,509.1838 C1055.8401,525.7578 1062.3351,542.2118 1066.8531,559.0938 C1064.9771,567.1688 1060.4911,573.6198 1056.0041,580.4038 C1022.4751,630.8558 954.2831,626.1378 904.7141,650.6348 C896.9131,654.3338 887.4831,658.9438 880.6531,665.4438 C871.4591,668.8708 868.8461,679.8028 870.3051,688.6848 C878.3721,733.6338 884.9441,778.1178 886.8921,823.7038 C887.5231,836.2838 887.9241,849.4238 883.9931,861.4338 C869.6841,849.9178 861.3901,783.5178 861.0031,763.9048 C860.8231,758.9738 854.6241,758.6538 852.9031,762.8038 C831.8471,820.4288 842.8061,883.7398 840.1941,943.8438 C810.3761,900.4558 810.2941,845.7278 808.6751,795.0438 C808.3231,786.9338 795.9241,786.8438 795.9931,795.0438 C794.2041,848.3828 801.9101,906.3888 796.0941,958.3138 C773.8651,903.5428 767.6261,842.0548 773.3821,783.3848 C762.7671,814.3308 763.1421,856.7708 766.6741,891.5138 C756.2481,892.6718 763.2191,922.4298 760.0631,930.9538 C701.2781,795.8738 761.9671,716.6938 826.5771,602.6448 C840.0801,569.5848 877.2351,510.3158 866.5971,476.6438 C862.8041,464.8038 856.0631,454.1938 849.7331,443.6028 C831.7451,413.7488 813.1351,384.2768 795.8741,354.0038 C798.9331,351.5838 801.9241,349.0838 804.8741,346.5338 C844.3791,311.2678 880.4181,283.7678 936.0841,279.7938 C979.3701,333.7708 1009.5431,395.8898 1033.2431,460.6028 M795.8641,958.8528 C795.4931,959.9338 794.9241,957.8038 796.0341,958.4538 C795.9831,958.5838 795.9131,958.7138 795.8641,958.8528 M847.6941,870.2138 C847.9541,848.0938 847.6781,825.7458 850.7141,803.8338 C849.5231,825.9538 848.6941,848.0938 847.6941,870.2138 M826.6741,517.6338 C777.4981,532.6308 727.1961,544.5708 679.3531,563.5938 C681.8531,480.9398 746.8491,419.2348 784.3341,350.2438 C799.1131,383.9888 823.3751,413.0258 838.7131,446.6038 C850.4861,467.7558 861.2271,490.4548 847.8531,513.6428 C840.8531,513.3928 833.0541,516.0038 826.6741,517.6338 M285.0441,607.8938 C270.3841,589.5838 255.0441,571.9438 238.9241,555.0938 C263.0131,566.1978 280.3121,581.7488 285.5941,608.6538 C285.4241,608.4038 285.2431,608.1538 285.0441,607.8938 M552.2541,941.9738 C550.4581,943.3108 549.7401,943.9688 548.4331,944.9838 C549.6991,944.0368 550.8041,942.4438 552.2541,941.9738 M1193.0731,722.5438 C1170.1001,663.9888 1121.5031,620.7748 1068.9441,588.6028 C1082.1411,573.2198 1076.6391,553.4798 1070.3121,536.3928 C1043.9581,451.5968 1014.2581,365.8708 961.4741,293.4738 C972.5621,286.8548 949.4711,235.8638 946.1451,223.5838 C917.8411,154.6918 875.4031,55.4188 800.4731,28.9938 C796.5511,22.1398 784.5201,21.7798 783.0631,31.4738 C726.7221,-34.5022 636.7951,-63.3062 551.9931,-49.2832 C526.6041,-44.8442 502.2751,-51.4302 477.2041,-54.4962 C489.5731,-53.9862 501.8741,-52.4962 513.9831,-49.8362 C514.9331,-49.6262 515.2941,-50.9562 514.3841,-51.2762 C437.7541,-80.0602 351.9701,-56.9142 285.8931,-12.9552 C167.7271,66.9348 93.0331,192.4988 -6.2459,292.1638 C-34.5269,318.4738 -61.5659,355.9188 -49.2949,396.4438 C-45.9479,406.8718 -42.8789,423.3958 -29.1069,423.3928 C-163.9429,490.1288 -108.2249,664.8438 -82.3649,779.9318 C-57.4869,889.2888 -34.0729,998.9958 -8.5569,1108.1938 C-6.6069,1116.3138 2.1341,1116.7938 7.1031,1112.6538 C48.5051,1123.2928 92.0661,1124.0338 134.6141,1125.6028 C156.3561,1177.4158 152.4481,1189.4728 122.6241,1235.5738 C123.0841,1235.4938 123.6241,1235.4338 124.2841,1235.4138 C123.5831,1235.4548 122.7951,1235.6738 122.2141,1236.1438 C122.3371,1235.9708 122.4361,1235.8778 122.6241,1235.5738 C120.5041,1235.9438 120.5141,1236.7838 121.0341,1236.9538 C121.3931,1236.6438 121.7641,1236.3638 122.1631,1236.1238 C122.1431,1236.1838 122.1431,1236.2138 122.2041,1236.1538 C121.8931,1236.9038 121.3641,1237.0638 121.0341,1236.9538 C100.8931,1262.0568 90.5391,1295.4758 94.8931,1327.5228 C80.1471,1344.0888 81.8111,1371.7928 92.4721,1390.2538 C105.6951,1415.9728 135.0451,1422.9158 161.5951,1425.2418 C194.1831,1429.5228 227.0841,1431.2638 259.9441,1430.3738 C276.1831,1429.9338 292.3931,1428.8738 308.5541,1427.1738 C336.2161,1424.1758 378.3161,1423.9468 382.4831,1388.4338 C383.4031,1375.2178 377.7931,1347.5688 362.9441,1344.1638 C348.9831,1290.5908 331.8961,1236.1178 300.4031,1189.9638 C309.8471,1181.8698 300.2391,1167.9478 293.1541,1161.4348 C286.3801,1147.3118 279.5531,1133.2068 271.6431,1119.6738 C273.8321,1111.5308 268.3851,1106.4818 269.4651,1098.4138 C269.7181,1037.0578 263.4071,975.9198 259.1531,914.7438 C302.4771,945.1558 388.1531,935.8888 441.3231,940.0538 C433.0821,958.5348 410.2861,940.2678 396.1431,955.9548 C365.5141,1022.0758 407.8021,1163.5648 429.9911,1232.0728 C436.3271,1252.7838 449.6561,1270.6698 468.0741,1282.1628 C505.7671,1305.9348 545.8701,1327.1698 588.2831,1341.1438 C611.2721,1347.5198 636.2221,1355.0708 660.0441,1349.4048 C678.5261,1344.9168 690.6091,1322.6658 680.6141,1305.5838 C699.2191,1288.8408 698.8151,1261.0108 682.5621,1243.2238 C663.9641,1221.3438 632.8641,1216.5138 611.9131,1198.2838 C614.3451,1171.9958 615.6101,1145.8058 618.9331,1119.6338 C626.6451,1119.2538 634.3501,1122.5518 641.5841,1118.9748 C655.3971,1105.6518 631.8161,1100.1218 620.6531,1103.5838 C621.0631,1099.7638 621.4641,1095.9538 621.8741,1092.1338 C646.3261,1097.5948 647.1391,1073.9108 623.6831,1075.9938 C625.8851,1064.8278 627.0781,1053.4668 627.0421,1042.1938 C629.4031,1038.6438 629.2541,1034.3138 627.3131,1030.9838 C642.5941,1028.6588 658.9001,1028.5588 673.7041,1024.1028 C674.0251,1043.3568 703.1851,1181.5178 734.7541,1135.3938 C751.6751,1117.4778 774.7511,1106.8278 797.3441,1097.6438 C824.9731,1086.2438 852.4441,1074.4738 879.5731,1061.9338 C960.2521,1024.5968 1038.3011,981.1168 1110.3441,928.8938 C1183.0371,882.0978 1229.6621,808.9188 1193.0731,722.5438" id="ðŸ–-Ink" fill="#000000"></path>
    </g>
</svg>