<?xml version="1.0" encoding="UTF-8"?>
<svg width="1534px" height="1856px" viewBox="0 0 1534 1856" version="1.1" xmlns="http://www.w3.org/2000/svg" xmlns:xlink="http://www.w3.org/1999/xlink">
    <!-- Generator: Sketch 62 (91390) - https://sketch.com -->
    <title>pose/sitting/mid-1</title>
    <desc>Created with Sketch.</desc>
    <g id="pose/sitting/mid-1" stroke="none" stroke-width="1" fill="none" fill-rule="evenodd">
        <path d="M209.845083,315.920067 C198.023083,322.555067 188.211083,327.087067 178.966083,330.183067 L165.370083,334.735067 L178.157083,341.223067 C186.842083,345.630067 195.101083,351.250067 203.405083,358.407067 L209.814083,363.932067 L212.907083,356.056067 C216.969083,345.710067 218.946083,333.941067 218.782083,321.076067 L218.652083,310.978067 L209.845083,315.920067 Z M777.742083,349.336067 C766.678083,369.324067 753.322083,389.002067 740.405083,408.032067 C711.897083,450.032067 682.418083,493.463067 673.341083,545.399067 C672.635083,549.703733 672.130416,559.435067 671.827083,574.593067 L680.277083,571.148067 C708.495083,559.642067 738.434083,551.083067 767.386083,542.807067 C778.577083,539.608067 790.147083,536.301067 801.488083,532.861067 C806.106083,531.624067 810.699083,530.178067 815.143083,528.779067 C825.924083,525.386067 836.109083,522.180067 846.817083,521.634067 L850.077083,521.468067 L851.708083,518.640067 C866.461083,493.060067 855.397083,468.677067 842.728083,445.892067 C835.118083,429.283067 825.330083,413.679067 815.862083,398.584067 C806.049083,382.940067 795.902083,366.764067 788.488083,349.835067 L783.619083,338.720067 L777.742083,349.336067 Z M233.238083,561.232067 C250.010083,578.828067 265.589083,596.707067 279.543083,614.372067 L290.139083,609.497067 C285.017083,583.404067 269.115083,565.022067 240.093083,551.643067 L233.238083,561.232067 Z M794.324083,954.326067 C792.645083,954.326067 791.070083,954.978067 789.890083,956.161067 C788.693083,957.362067 788.036083,958.980067 788.041054,960.714067 L794.324083,960.694067 L794.324083,954.326067 Z M96.4020827,1389.37607 C86.5480827,1372.44407 85.1000827,1345.86107 99.8680827,1331.44907 C94.9010827,1300.32207 104.659083,1265.53807 126.270083,1240.75607 L126.320083,1240.83107 C158.407083,1192.69907 160.765083,1175.55007 137.321083,1121.74707 C95.4230827,1120.14307 52.2660827,1119.66407 11.3570827,1109.86007 L12.8870827,1100.70107 C11.3730827,1100.29807 3.63808267,1098.26507 1.97708267,1097.83507 C2.19908267,1099.54007 3.35208267,1107.31607 3.32408267,1108.87307 C1.41308267,1110.96707 -3.20591733,1112.91207 -4.06491733,1108.79107 C-29.7999173,998.611067 -52.8319173,890.615067 -77.8579173,780.599067 C-104.049917,669.561067 -156.723917,491.964067 -27.7879173,430.769067 L-30.4499173,419.392067 C-37.5699173,419.394067 -40.4309173,411.622067 -43.6949173,400.643067 C-58.2429173,361.363067 -29.9549173,322.850067 -3.50191733,298.555067 C32.6560827,262.296067 66.0130827,222.040067 98.2820827,183.124067 C190.330083,71.0280666 315.575083,-78.5579334 475.672083,-53.1449334 L475.133083,-46.5419334 C500.177083,-43.3879334 526.326083,-36.7549334 551.684083,-41.3749334 C638.261083,-56.3979334 732.451083,-22.4119334 785.699083,47.3690666 L787.655083,34.3630666 C787.839083,33.1360666 788.277083,32.0010666 790.216083,32.0010666 C792.753083,31.9110666 794.094083,33.9900666 795.032083,35.9080666 C886.936083,72.2960666 925.006083,190.737067 954.375083,271.919067 C958.124083,285.641067 957.067083,289.701067 956.740083,290.508067 L951.407083,293.691067 C1006.79508,367.506067 1037.23208,456.291067 1063.34308,540.475067 C1071.97308,562.917067 1072.87308,578.468067 1058.46008,592.041067 C1153.49608,649.247067 1228.07008,738.400067 1185.90608,840.039067 C1130.87708,938.938067 985.163083,1001.68807 875.716083,1058.49307 C832.254083,1082.08107 769.040083,1094.64107 729.047083,1133.27007 C726.375083,1137.22407 722.541083,1141.07907 720.218083,1140.76207 C701.656083,1143.51307 674.030083,1027.37107 678.229083,1018.07007 C658.635083,1025.08907 636.838083,1024.71607 616.344083,1028.37807 C618.180083,1032.41907 624.193083,1037.89107 619.694083,1042.38807 C619.999083,1056.02807 617.905083,1070.77307 614.908083,1084.67607 C639.503083,1080.72707 638.945083,1093.65307 615.282083,1086.81207 C614.639083,1092.83607 612.998083,1108.19407 612.370083,1114.01607 C619.433083,1110.90607 633.491083,1108.72207 638.414083,1113.58707 C636.403083,1120.07107 618.983083,1113.96507 612.273083,1115.88707 C608.348083,1145.04607 607.068083,1173.71307 604.314083,1202.79107 C625.254083,1222.77307 657.962083,1227.49507 676.649083,1249.10707 C692.482083,1265.55607 690.199083,1293.16107 671.624083,1306.39307 C683.001083,1319.75907 673.896083,1341.94607 657.284083,1345.57307 C634.653083,1350.86507 610.997083,1343.54707 588.683083,1337.39907 C551.591083,1325.16207 512.744083,1306.08707 469.932083,1279.08607 C452.995083,1268.51807 440.380083,1251.91307 434.386083,1232.31607 C390.951083,1098.21307 379.344083,1007.09007 399.846083,961.353067 C411.545771,952.499066 424.587409,957.963568 435.389537,953.128119 C440.538054,950.823444 445.177827,947.724624 448.921083,936.733067 C392.570083,931.190067 310.424083,941.490067 265.253083,914.441067 L266.842083,911.054067 C262.671083,908.387067 253.506083,897.229067 250.019083,893.642067 C256.304083,969.375067 261.356083,1047.06807 263.856083,1122.53507 C272.142083,1136.49607 279.178083,1150.94607 286.902083,1167.06807 C292.274083,1172.35307 301.673083,1181.41207 296.158083,1187.40607 C296.157083,1187.40607 342.538083,1296.20207 356.712083,1351.19707 C370.207083,1351.76807 375.678083,1374.66707 375.164083,1389.87707 C373.112083,1417.55707 337.651083,1420.49407 306.564083,1423.20607 C285.293083,1425.44307 263.422083,1426.6008 241.876083,1426.6008 C202.947083,1426.63007 105.611083,1423.94607 96.4020827,1389.37607 Z" id="ðŸŽ¨-Background" fill="#FFFFFF"></path>
        <path d="M285.8931,-12.9555 C351.9691,-56.9135 437.7541,-80.0595 514.3841,-51.2765 C515.2941,-50.9565 514.9331,-49.6265 513.9831,-49.8365 C501.8741,-52.4965 489.5731,-53.9865 477.2041,-54.4965 C502.2751,-51.4305 526.6041,-44.8445 551.9931,-49.2835 C636.7951,-63.3065 726.7211,-34.5015 783.0631,31.4735 C784.5201,21.7795 796.5511,22.1395 800.4731,28.9935 C875.4031,55.4185 917.8421,154.6915 946.1451,223.5835 C949.4701,235.8635 972.5631,286.8555 961.4731,293.4735 C1014.2581,365.8705 1043.9581,451.5965 1070.3121,536.3935 L1071.06613,538.456221 C1077.04842,555.052652 1081.61318,573.83486 1068.9431,588.6035 C1121.5031,620.7755 1170.1001,663.9885 1193.0731,722.5435 C1229.6621,808.9185 1183.0381,882.0975 1110.3441,928.8945 C1038.3011,981.1165 960.2521,1024.5965 879.5731,1061.9335 C852.4431,1074.4735 824.9731,1086.2435 797.3441,1097.6445 L794.594364,1098.76898 C772.890189,1107.70303 750.989114,1118.20482 734.7541,1135.3945 C703.1851,1181.5175 674.0251,1043.3575 673.7041,1024.1035 C658.8991,1028.5585 642.5951,1028.6585 627.3131,1030.9845 C629.2541,1034.3145 629.4031,1038.6445 627.0421,1042.1945 C627.0781,1053.4665 625.8851,1064.8275 623.6831,1075.9935 C647.1381,1073.9115 646.3261,1097.5945 621.8741,1092.1335 L620.6531,1103.5835 L620.6531,1103.5835 C631.8171,1100.1215 655.3961,1105.6525 641.5841,1118.9745 C634.3511,1122.5515 626.6451,1119.2535 618.9331,1119.6335 C615.6101,1145.8055 614.3451,1171.9955 611.9141,1198.2835 C632.8641,1216.5135 663.9641,1221.3435 682.5621,1243.2235 C698.8151,1261.0115 699.2191,1288.8405 680.6141,1305.5835 C690.6091,1322.6655 678.5261,1344.9165 660.0441,1349.4045 C636.2211,1355.0705 611.2721,1347.5205 588.2831,1341.1445 C546.476,1327.36914 506.913371,1306.5407 469.69099,1283.17977 L468.0741,1282.1625 C449.6561,1270.6695 436.3261,1252.7835 429.9911,1232.0725 L428.636385,1227.87569 C406.139747,1157.93605 366.12668,1020.75308 396.1431,955.9545 C410.2861,940.2685 433.0821,958.5345 441.3231,940.0535 C388.1521,935.8885 302.4771,945.1555 259.1531,914.7435 C263.4071,975.9195 269.7171,1037.0575 269.4651,1098.4135 C268.3851,1106.4825 273.8321,1111.5305 271.6431,1119.6735 C279.5521,1133.2055 286.3801,1147.3125 293.1541,1161.4345 L293.582054,1161.83406 C300.61576,1168.50205 309.65724,1182.03138 300.4031,1189.9635 C331.8971,1236.1175 348.9821,1290.5905 362.9431,1344.1635 C377.7931,1347.5695 383.4031,1375.2175 382.4831,1388.4335 C378.3151,1423.9465 336.2161,1424.1755 308.5531,1427.1735 C292.3931,1428.8735 276.1831,1429.9335 259.9431,1430.3735 C227.0841,1431.2635 194.1831,1429.5235 161.5941,1425.2415 C135.0451,1422.9155 105.6951,1415.9725 92.4721,1390.2535 C81.8111,1371.7925 80.1471,1344.0895 94.8931,1327.5235 C90.58264,1295.79598 100.687491,1262.72474 120.432811,1237.70908 L121.0341,1236.9535 L120.983767,1236.93431 C120.531035,1236.7352 120.571264,1235.98633 122.419137,1235.61212 L122.6241,1235.5735 L123.511045,1234.20061 C152.523695,1189.22736 156.13867,1176.89639 134.6131,1125.6035 L115.052703,1124.90371 C78.8061878,1123.57605 42.1797944,1121.6671 7.1031,1112.6535 C2.1341,1116.7935 -6.6069,1116.3145 -8.5569,1108.1945 C-34.0739,998.9955 -57.4869,889.2885 -82.3659,779.9315 C-108.2239,664.8425 -163.9429,490.1285 -29.1069,423.3935 C-42.8789,423.3965 -45.9479,406.8715 -49.2949,396.4435 C-61.5659,355.9185 -34.5269,318.4745 -6.2459,292.1635 C93.0331,192.4985 167.7271,66.9355 285.8931,-12.9555 Z M96.5631,1339.7235 C94.6971,1393.3775 135.3021,1406.2435 181.0041,1407.6135 C209.4831,1410.3235 238.1741,1411.1535 266.7631,1410.0345 L280.230063,1409.25466 C302.721544,1407.93072 325.382933,1406.276 347.2721,1401.1435 C361.6871,1398.1805 365.3011,1385.2865 360.0941,1372.6835 C357.8441,1373.6835 355.1831,1373.7535 353.1031,1372.2935 C350.7731,1370.6635 349.0841,1368.9335 347.8031,1366.8945 C273.7441,1399.8505 180.5551,1396.2415 108.7831,1358.3235 C99.5861,1357.8725 98.3921,1346.8875 96.5631,1339.7235 Z M276.5941,1169.8945 C249.6771,1153.6135 195.1651,1146.5355 169.1641,1167.0235 C170.9461,1177.3175 166.7801,1186.8395 162.8741,1196.0135 C174.7371,1193.1815 277.9281,1179.2775 263.3531,1204.6445 C255.1931,1211.2235 244.0841,1206.6945 234.6531,1205.8035 C209.3601,1203.7005 183.8921,1204.3695 158.6741,1207.2345 C156.4761,1213.3975 155.6271,1220.3095 152.8931,1226.1235 C178.434118,1217.69557 205.155032,1213.66333 231.954185,1212.22192 L233.4431,1212.1445 C245.1431,1211.5235 258.8341,1208.9335 267.5441,1218.4925 C274.9671,1228.6435 258.4921,1235.6285 250.0041,1234.6335 C213.8541,1233.5495 177.6301,1234.8885 141.5131,1236.4445 L139.925455,1239.06396 C114.403205,1281.31752 108.90762,1297.9577 119.2231,1348.6335 C119.1641,1348.5835 119.1031,1348.5435 119.0531,1348.4935 C119.0131,1351.2345 118.1341,1353.7035 116.2631,1355.5435 C194.0961,1380.8025 266.5901,1379.3675 343.9331,1354.3145 C332.6241,1297.5055 310.1821,1243.8475 293.4941,1188.6135 C289.0891,1186.1475 287.7821,1180.6985 284.4831,1177.0935 C281.1481,1176.8085 277.8441,1174.1745 276.5941,1169.8945 Z M463.1151,940.6845 C429.2031,964.6645 444.5181,993.0025 453.8941,1025.5635 C467.5991,1073.4285 478.1281,1122.1915 489.8551,1170.5625 C496.7631,1213.5255 523.9291,1250.7895 563.0131,1270.1135 C580.5941,1279.3775 599.8831,1285.3695 619.5941,1287.8335 C627.2041,1288.6065 635.6361,1287.7905 640.7331,1294.6135 C643.6241,1297.7435 643.9431,1302.8835 640.7331,1305.9545 C630.6541,1317.3825 601.3571,1307.0725 587.7661,1304.2225 C487.0531,1273.6935 471.7461,1200.7175 452.3201,1109.2235 C442.9071,1058.4085 419.7781,1004.8895 433.7331,953.3535 C425.2931,957.8665 412.3261,956.3185 406.3401,964.8435 C392.5211,1052.4025 423.0021,1141.2265 446.4941,1224.9335 C451.7101,1242.5215 462.7211,1257.9905 478.7431,1267.2245 C512.9201,1288.0975 548.7421,1307.1715 586.6441,1320.3455 L587.793441,1320.67139 C607.028302,1326.19097 648.58138,1341.08178 663.3441,1325.5135 C666.4241,1320.9635 666.2841,1316.0935 662.4041,1313.0725 L660.523599,1312.35747 C656.912827,1310.96157 652.661178,1308.99602 652.003334,1304.77576 L651.9641,1304.4845 L652.1031,1304.4335 C648.9641,1298.6745 655.0561,1292.2235 660.5131,1290.8135 C668.2041,1290.5355 671.7811,1285.4135 674.5151,1277.8935 C679.4191,1241.0845 627.7361,1231.2485 610.6031,1206.0645 C608.7871,1215.2575 594.6381,1213.5055 594.7121,1204.2335 C594.1531,1176.0695 600.2741,1147.6475 604.4641,1119.8635 C598.0151,1119.5875 591.1621,1122.1945 584.8831,1120.7825 C583.9561,1114.9805 602.0691,1108.9005 607.0541,1106.9845 C608.0841,1102.1835 609.1741,1097.4035 610.3341,1092.6445 C570.0461,1095.0785 588.7601,1082.1585 614.2041,1077.7345 C614.9961,1075.03536 615.690386,1072.26274 616.322852,1069.5212 L616.6341,1068.1535 C618.2431,1061.2835 619.0941,1054.7935 619.3741,1048.0835 C601.5621,1056.2465 581.5241,1061.1995 562.2231,1057.0435 C527.3491,1048.9415 509.2721,1006.6045 523.2721,974.8335 C520.0871,963.5645 526.3401,951.5795 531.9931,942.0735 C509.0341,941.9935 486.0631,941.3635 463.1151,940.6845 Z M122.1641,1236.1235 C121.86335,1236.3035 121.580038,1236.50656 121.305725,1236.7272 L121.0341,1236.9535 L121.102456,1236.97198 C121.432793,1237.04042 121.913833,1236.8535 122.2041,1236.1535 C122.1431,1236.2135 122.1431,1236.1835 122.1641,1236.1235 Z M124.2841,1235.4135 C123.7341,1235.43017 123.267433,1235.47461 122.860952,1235.53526 L122.6241,1235.5735 L122.548648,1235.69172 C122.407324,1235.90572 122.319529,1235.99536 122.2141,1236.1445 C122.7951,1235.6735 123.5831,1235.4545 124.2841,1235.4135 Z M165.9141,1201.8535 C164.0361,1202.1025 162.1611,1202.3275 160.2731,1202.5645 L159.9031,1203.5735 L159.9031,1203.5735 C161.9031,1202.9735 163.9031,1202.4035 165.9141,1201.8535 Z M249.2631,1120.4135 C215.7571,1123.8255 181.9891,1121.7225 148.4731,1125.5335 C155.0451,1134.6115 159.7331,1144.6595 163.6641,1155.2635 C191.1921,1129.2665 235.3531,1137.2185 268.4731,1146.7935 C266.2441,1140.2825 264.1911,1133.7115 262.3531,1127.0835 C257.3971,1127.8825 251.7381,1125.0975 249.2631,1120.4135 Z M1066.4931,591.7835 C1020.6931,638.4585 951.4731,651.2895 892.2341,671.8945 C877.8511,680.9035 884.8811,698.7555 886.7141,712.3135 C890.1441,734.5685 892.8671,756.9305 894.8441,779.3635 C902.1621,770.8995 921.3341,769.7935 932.0631,766.3535 L933.492455,766.030854 C947.805057,762.74607 962.679906,757.819952 977.2841,761.0135 C983.1741,762.2935 983.5731,770.4445 978.8931,773.3435 C967.03849,780.706551 952.535007,780.918323 938.946139,782.528903 L935.470736,782.94518 C923.445319,784.376189 911.325671,785.682357 899.2431,785.1735 C897.7231,785.4135 896.1931,784.8335 895.2331,783.8035 C896.7381,807.2555 899.7561,831.0425 898.7331,854.5335 C898.1741,858.7035 896.8341,863.2435 893.8731,866.3335 L893.775273,866.690713 C892.099996,872.623463 886.65002,883.21448 880.3741,875.3735 L879.19521,873.254138 C869.978591,856.620441 861.239508,839.228092 856.7841,820.6535 C855.3011,858.2175 854.1011,895.7625 852.6031,933.3145 L852.554167,934.215854 C852.172073,940.589967 850.926782,948.257136 846.7831,953.1635 C847.1491,956.0785 844.5371,957.7765 842.2041,956.7345 L841.894323,956.877661 C839.658255,957.878849 836.059055,958.8035 834.6931,956.0735 C826.8231,937.6635 818.4431,919.5435 810.7631,901.0835 C811.1691,910.5575 810.7111,920.0515 811.0131,929.5335 C811.1641,940.3535 813.1741,953.0735 808.0131,963.0835 C803.6071,971.8515 792.6311,974.1455 786.7421,966.5145 C782.0231,959.2265 779.3481,950.2185 775.0541,942.4935 C762.9551,1002.2935 732.3181,914.3905 726.6931,896.2735 C709.4031,906.3835 691.1741,914.9235 672.3231,921.7535 C677.5081,929.6085 676.2541,940.2865 677.8841,949.3145 C679.3531,962.7735 680.5131,976.2435 681.6731,989.7345 L682.101472,992.316452 C689.162725,1034.50844 699.44708,1077.63506 722.0841,1114.3635 C741.2481,1095.5955 766.3921,1084.5245 790.9831,1074.5835 C820.5941,1062.3735 849.9641,1049.6035 878.9331,1035.9535 C957.2401,999.1295 1032.6391,955.9585 1102.9231,905.4225 L1105.31206,903.750103 C1144.37096,876.26059 1185.0735,840.21474 1186.0731,788.9235 C1189.4421,704.8395 1119.1401,647.4795 1066.4931,591.7835 Z M203.3831,544.1235 C136.5201,481.3865 34.1481,400.2695 -58.1999,459.8715 C-144.4599,532.8855 -76.1159,707.9535 -58.4959,802.2335 C-36.0909,901.3365 -12.4109,1000.1685 9.5531,1099.3635 C87.8751,1109.7005 167.3751,1115.1155 246.0841,1105.8035 C245.1941,1035.8625 240.4751,966.0105 238.9331,896.0435 C237.4991,859.9955 237.9971,823.8065 232.5951,788.1035 C228.0111,759.0725 233.8981,724.0035 217.7331,698.6445 C211.7501,689.4105 202.0191,681.3265 199.8441,670.1945 C199.7941,669.6735 200.4731,669.5035 200.8031,669.7935 C205.5341,673.9535 209.3341,678.9135 214.3531,682.9035 L218.044208,685.762288 C224.047082,690.436681 230.02649,695.426085 233.7441,702.0735 C234.1261,699.2405 226.9611,673.9915 231.2521,677.0035 L232.060645,679.217352 C237.831051,695.091366 243.032989,711.150411 244.5141,728.1335 C250.1781,786.0205 253.3431,844.1925 258.1931,902.1635 C269.8911,907.4375 280.6391,915.1905 293.4141,917.9935 C314.337252,920.063803 335.289553,918.89285 356.24912,918.616647 L358.2141,918.5935 C419.3691,917.6805 480.3331,921.1145 541.4431,920.1455 C603.9071,922.5695 667.7601,906.2025 721.0731,873.3235 C691.8641,741.3795 792.1531,647.2745 838.5231,534.4845 C785.1081,547.9605 731.9501,562.4345 678.6831,576.6335 C685.8721,594.2125 662.6221,644.0275 653.8721,661.6815 C607.0571,753.9975 512.3811,814.3295 427.2441,726.2235 C427.2841,726.4935 427.3131,726.7635 427.3441,727.0435 C424.4851,724.4335 421.3261,722.1365 418.1431,719.9335 C413.8671,755.0385 402.3011,790.4235 380.4731,818.6135 L378.092035,821.60141 C371.283332,830.093472 361.42571,841.2604 350.5241,834.8435 C342.4971,830.5015 340.9871,822.0505 342.5441,813.5235 C316.3181,842.0715 287.7441,848.5205 305.6641,799.3945 L305.070998,800.009271 C295.03938,810.313526 268.41378,833.08214 265.7031,806.1635 C266.8851,792.7615 275.1391,780.7975 279.3341,768.2435 C274.8531,771.0135 269.8131,772.3835 264.6831,770.4135 C250.9241,765.1335 258.0041,749.3945 261.0731,739.4845 C268.8441,714.4335 276.7731,689.4235 284.8351,664.4635 C282.0411,649.6255 290.8891,634.8615 282.5941,621.9635 C279.0441,623.8235 274.2631,623.4335 270.8341,618.8535 C250.7141,592.0535 227.6241,567.2235 203.3831,544.1235 Z M10.4831,1103.9135 C10.5041,1104.0645 10.5041,1104.1945 10.5131,1104.3435 C11.2841,1104.3945 12.0441,1104.4635 12.8131,1104.5335 C12.0291,1104.3435 11.2551,1104.1155 10.4831,1103.9135 Z M670.9931,1007.5645 C658.6521,880.4625 690.6751,940.3195 560.6141,941.7635 C561.1981,944.9465 557.0151,944.5805 558.4931,943.6945 C556.6101,936.6705 545.9311,957.2535 544.4431,959.9235 C541.6341,965.8835 540.3531,973.3035 539.3641,979.8225 C532.3941,1016.3375 558.3681,1048.3275 596.2431,1032.8035 C591.3681,1032.3965 585.8901,1034.1595 581.8441,1031.0435 C581.8641,1031.0335 581.8741,1031.0135 581.8931,1030.9935 C578.2701,1024.5015 598.1421,1024.2195 602.0941,1022.4845 C617.4941,1019.2655 632.9331,1016.2745 648.2431,1012.6635 C655.7041,1010.9035 663.3441,1008.1445 670.9931,1007.5645 Z M796.0341,958.4535 C794.9241,957.8035 795.4931,959.9335 795.8641,958.8535 C795.9141,958.7135 795.9831,958.5835 796.0341,958.4535 Z M936.0841,279.7935 C880.4181,283.7685 844.3791,311.2685 804.8741,346.5335 C801.9241,349.0835 798.9331,351.5835 795.8741,354.0035 C813.1351,384.2765 831.7451,413.7485 849.7331,443.6035 L853.104209,449.218853 C858.350439,457.97722 863.473276,466.893088 866.5961,476.6445 C877.2351,510.3165 840.0791,569.5845 826.5771,602.6455 C761.9671,716.6945 701.2771,795.8735 760.0631,930.9535 C763.2191,922.4295 756.2481,892.6715 766.6741,891.5135 L766.463969,889.398656 C763.131434,855.061403 762.981544,813.705328 773.3821,783.3845 C767.6261,842.0545 773.8651,903.5425 796.0941,958.3145 C801.9101,906.3885 794.2041,848.3825 795.9931,795.0435 C795.9241,786.8435 808.3231,786.9335 808.6741,795.0435 L809.096925,808.815458 C810.549714,855.487514 813.05963,904.36042 840.1931,943.8435 C842.8061,883.7395 831.8461,820.4285 852.9031,762.8035 C854.6241,758.6535 860.8231,758.9735 861.0031,763.9045 C861.3901,783.5195 869.6841,849.9175 883.9931,861.4335 C887.9241,849.4235 887.5231,836.2835 886.8921,823.7035 C884.9441,778.1165 878.3721,733.6335 870.3051,688.6845 C868.8461,679.8025 871.4591,668.8705 880.6531,665.4445 C887.4831,658.9445 896.9141,654.3335 904.7141,650.6345 C954.2831,626.1375 1022.4751,630.8565 1056.0041,580.4035 L1057.63105,577.947783 C1061.54027,572.031761 1065.20449,566.189712 1066.8531,559.0935 C1062.3351,542.2115 1055.8391,525.7575 1050.3231,509.1835 C1045.392,494.5405 1040.33049,479.9461 1035.02193,465.43675 L1033.2431,460.6035 C1009.5431,395.8895 979.3701,333.7715 936.0841,279.7935 Z M552.2541,941.9735 C550.98535,942.385625 549.980741,943.656016 548.901291,944.60226 L548.667832,944.79927 L549.327099,944.274201 C550.02672,943.710183 550.657518,943.185365 551.627874,942.44536 L552.2541,941.9735 Z M258.6831,908.6335 L258.9831,912.5535 L258.9831,912.5535 C260.9031,912.9445 262.7841,913.4335 264.6641,913.9135 C262.4831,912.3335 260.4541,910.5835 258.6831,908.6335 Z M542.2836,820.0833 C542.0636,819.3143 543.1636,818.8643 543.5746,819.5413 C559.7526,848.0093 591.6006,859.3423 622.2636,863.8533 C627.4836,865.0743 626.8436,872.2843 622.2636,873.8033 C605.1236,879.4843 585.3336,871.8333 571.3036,861.6443 C556.9236,851.2133 547.1146,837.1233 542.2836,820.0833 Z M850.7141,803.8335 C847.6781,825.7455 847.9541,848.0935 847.6931,870.2135 C848.6931,848.0935 849.5231,825.9535 850.7141,803.8335 Z M404.0634,842.4232 C407.2444,843.5232 410.5344,844.2442 413.7734,844.5232 C410.3344,846.1642 406.4034,845.3432 404.0634,842.4232 Z M154.6131,133.8335 C105.9831,188.9015 63.4101,249.1815 11.1051,300.9345 C-19.5429,328.6345 -48.5389,366.4935 -24.6369,408.1835 C-19.5959,410.1735 -18.7099,417.5995 -23.0569,421.0935 C-22.0189,420.9595 -15.3479,417.7265 -16.8469,420.3735 C-30.2459,426.0935 -42.0269,434.3835 -52.1769,444.4135 C11.0631,397.8885 94.9171,435.1365 150.0731,476.8335 C177.2941,496.7235 202.6031,518.6435 226.3031,542.2345 C234.7841,543.7535 243.5531,548.2835 250.6221,551.8235 C299.3781,575.2465 307.0171,606.8985 302.9941,657.4935 C288.3611,685.3885 281.4391,717.2875 271.2441,747.1945 C260.7581,770.4435 281.3871,754.7745 284.3441,744.6335 C291.52317,735.697267 294.98725,723.822625 299.388098,713.433961 L299.7041,712.6945 C300.9541,709.7235 303.6341,707.5135 307.0841,708.5035 C309.853887,709.297245 312.422516,712.723297 311.347416,715.690659 L309.138468,721.380249 C298.442362,748.873012 287.391288,776.50975 278.8741,804.6835 C307.6541,787.4445 321.9041,754.8155 337.0131,726.0035 C341.1641,718.3435 352.3341,725.0935 348.5941,732.7735 C345.1241,739.8635 341.5841,746.9335 337.8341,753.8835 C328.0331,774.7685 320.9281,796.8045 315.0441,819.0935 C347.3931,799.7985 358.6681,760.4875 367.9731,727.3145 C368.5471,717.8505 382.1921,719.7125 380.7841,729.0035 C377.3231,747.4445 372.0441,765.6135 363.7841,782.5035 L361.6001,795.274241 C360.146544,803.789056 358.706767,812.306833 357.3341,820.8335 C358.1131,820.4535 358.9541,820.4035 359.7631,820.6035 C388.4241,791.7405 399.8961,751.9195 409.9031,713.6445 C405.1451,697.4565 410.9681,680.9025 410.3031,664.2135 C412.8341,642.8465 405.9431,622.9345 396.4001,603.8565 C390.6811,544.8375 333.8411,519.2375 294.2121,484.5465 C245.6751,436.5765 220.1551,363.1285 151.9331,339.3535 C144.8401,339.8045 138.0021,338.2815 131.3631,335.9935 C131.0731,335.9135 131.0231,335.4135 131.3631,335.3635 C138.1161,334.2605 144.8651,332.5365 151.6341,331.3035 C153.4581,325.3535 160.7511,324.6265 166.2351,327.2865 C225.2251,301.4295 274.1191,255.9625 320.9941,212.7035 C275.2241,170.3585 215.9641,144.0705 154.6131,133.8335 Z M426.0541,734.0833 C427.0341,735.1733 427.8931,736.3533 428.5341,737.6443 C428.7091,737.9753 428.6891,738.3693 428.7441,738.7343 C427.9031,737.1543 427.0131,735.5933 426.0541,734.0833 Z M238.9241,555.0935 C255.2201,572.1925 270.8671,590.0115 285.5941,608.6535 C280.3121,581.7485 263.0121,566.1975 238.9241,555.0935 Z M784.3341,350.2435 C748.9511,414.1645 693.5481,470.3145 680.5941,544.4335 C679.5541,550.7735 679.4831,557.1945 679.3531,563.5935 C718.8521,547.4875 760.4351,537.4535 801.1831,525.0925 C816.6281,520.9655 831.6271,514.4705 847.8531,513.6435 C861.2271,490.4545 850.4861,467.7555 838.7131,446.6045 C823.3751,413.0265 799.1131,383.9875 784.3341,350.2435 Z M214.1241,319.1535 C203.8931,324.8955 193.3421,330.1475 182.2141,333.8735 C191.7941,338.7335 200.5531,344.8735 208.6641,351.8635 C212.7391,341.4855 214.2651,330.2445 214.1241,319.1535 Z M474.2541,-49.3265 C468.9421,-2.4985 469.2001,45.8215 481.6351,91.5245 C500.1771,162.7495 568.8321,229.3385 646.5131,215.3735 C724.8911,198.9925 763.4151,117.8145 779.5731,46.4335 C738.2991,-5.9385 673.6861,-38.6995 607.0941,-41.3365 C563.7941,-43.1065 514.8441,-29.1465 474.2541,-49.3265 Z" id="ðŸ–-Ink" fill="#000000"></path>
    </g>
</svg>