<?xml version="1.0" encoding="UTF-8"?>
<svg width="1534px" height="1856px" viewBox="0 0 1534 1856" version="1.1" xmlns="http://www.w3.org/2000/svg" xmlns:xlink="http://www.w3.org/1999/xlink">
    <!-- Generator: Sketch 62 (91390) - https://sketch.com -->
    <title>pose/sitting/one_leg_up-1</title>
    <desc>Created with Sketch.</desc>
    <g id="pose/sitting/one_leg_up-1" stroke="none" stroke-width="1" fill="none" fill-rule="evenodd">
        <path d="M822.1619,829.317267 C824.4009,852.677317 819.8229,874.985174 808.9179,893.844835 L805.3699,899.980653 L812.1229,902.342175 C824.4129,906.640597 838.0799,908.730204 853.9059,908.730204 C870.1929,908.730204 887.1299,906.462276 900.7389,904.638673 L909.4519,903.472198 L905.1719,895.9039 C901.7299,889.821283 901.0929,882.450025 900.4179,874.646265 C900.2359,872.549762 900.0489,870.382325 899.8029,868.237547 C886.9079,752.977166 870.6079,636.212386 854.8449,523.292837 C850.6959,493.579241 846.4069,462.85286 842.2459,432.62893 L830.3099,433.089018 C827.0989,489.032548 823.9829,545.921869 820.9699,600.938327 C819.6449,625.13087 818.3189,649.324397 816.9829,673.513984 C812.2199,734.671186 813.8649,784.19122 822.1619,829.317267 M827.0329,1520.4904 C809.5039,1520.4904 791.9409,1518.66483 774.8339,1515.06491 C721.3009,1503.82773 672.6659,1477.31505 631.2819,1453.34713 C629.1689,1452.14913 627.0249,1450.95113 624.8239,1449.71963 C608.6219,1440.65481 588.4589,1429.37626 575.8229,1415.61697 C561.9609,1400.52274 559.5749,1385.48269 568.3159,1368.28408 L569.6989,1365.56296 L568.2539,1362.87238 C559.2029,1346.02647 559.8759,1325.1836 569.8899,1312.18883 L578.3059,1301.26888 L564.4689,1302.73683 C550.5169,1304.21758 536.4549,1306.22345 522.8549,1308.1633 C507.7659,1310.31596 492.1609,1312.54153 476.7929,1314.03115 L472.5219,1314.44592 L471.5399,1318.56109 C470.9929,1320.85168 470.3179,1322.24278 465.5769,1322.24278 C461.4659,1322.24278 455.9409,1321.03887 450.0939,1319.76501 C442.8369,1318.18475 434.6109,1316.39267 426.6789,1316.39267 C423.1899,1316.39267 420.0519,1316.72468 417.0839,1317.41038 L415.3569,1317.80742 L414.1279,1319.0665 C413.3419,1319.87141 412.0039,1320.3709 410.6369,1320.3709 C409.6029,1320.3709 408.6439,1320.08323 408.0029,1319.58176 L406.0649,1318.06554 L403.6059,1318.33548 C360.7629,1323.03981 323.8199,1331.29577 290.6699,1343.57234 L290.5199,1343.62849 L289.8009,1343.93883 C277.8139,1349.11211 265.4209,1354.46174 254.1339,1354.46174 C245.8829,1354.46174 239.1829,1351.65491 233.0469,1345.62845 L231.3129,1343.92701 L228.8669,1343.90336 C204.0489,1343.6748 192.7089,1314.73458 191.1409,1295.33799 L190.9439,1292.89568 L189.0519,1291.30754 C145.7999,1255.01084 120.2659,1205.16077 110.9879,1138.90713 C102.5379,1078.55878 109.0259,1014.9307 116.4869,960.647226 C133.7459,819.970686 151.7469,693.86031 197.5049,574.253232 L199.6429,568.662229 L193.9459,566.614985 C174.1829,559.513672 159.0789,551.040962 147.7699,540.712138 L146.9869,539.994913 L146.0009,539.589996 C129.7929,532.931038 121.8549,508.350327 119.8079,500.976114 L119.6439,500.381054 L119.3579,499.833283 C116.0509,493.489588 115.2879,484.665162 117.2659,475.622022 L117.4779,474.64766 L117.3549,473.657535 C116.2869,465.071528 119.8319,456.095381 123.5849,446.591168 C125.2999,442.249397 127.0719,437.761816 128.3669,433.291969 C132.8189,420.517881 137.2659,407.518183 141.5679,394.94409 C151.2199,366.733907 161.1989,337.563155 171.8299,309.186473 L173.2839,305.305775 L170.0809,302.63096 C164.6129,298.063578 166.4389,292.687348 174.3239,279.832474 C176.1869,276.796091 177.9489,273.923251 179.2889,271.092775 C189.3959,253.628156 200.2279,236.863027 211.4899,221.257478 L211.7219,220.937288 L211.9069,220.590498 C269.6959,112.661967 372.2029,53.2239364 500.5439,53.2239364 L503.1599,53.2288624 L504.6059,52.3589319 C528.6599,37.8942427 545.8309,13.0751139 557.0999,-23.5151705 L557.4599,-24.6816459 L557.3209,-25.8934405 C556.9349,-29.2657761 556.5119,-33.6873484 556.6569,-37.9778893 C557.0239,-48.8436472 561.2829,-58.539974 568.3409,-64.5812132 C581.7319,-76.0430163 602.0609,-77.0026 621.7359,-77.0026 L624.5609,-77.0026 C649.7159,-76.9257545 667.4749,-72.5583681 680.4509,-63.2511948 C695.5269,-52.4376525 703.8589,-34.9818997 705.9239,-9.88691518 C706.5409,-2.37772972 706.5199,5.40140021 706.5009,12.9243784 L706.4959,15.0238371 L706.7489,15.8573153 C708.5569,21.821709 710.6749,27.5526106 713.0429,32.8923882 L715.4789,38.3858569 L721.0189,35.9090671 C724.6019,34.308119 729.1439,33.4844927 734.9079,33.3918841 C736.5699,33.3534613 738.1909,33.3357277 739.8259,33.3357277 C753.2089,33.3357277 767.5249,34.5573743 781.3709,35.7386277 C791.8029,36.6292474 802.5909,37.5504083 813.0329,37.9592658 L813.1759,37.965177 C813.1759,37.965177 814.6179,37.9563102 815.2649,37.9563102 C840.6439,37.9563102 859.0419,41.9473507 873.1629,50.5175952 C888.3679,59.7439823 899.3009,74.5525058 907.5679,97.1204553 C951.9099,226.480017 970.1399,365.817672 986.2199,488.747826 C995.3409,553.03402 998.1149,618.93791 1000.7979,682.671407 C1003.6309,749.942753 1006.5589,819.504687 1016.9279,887.50311 L1017.7469,892.878355 L1023.2529,892.522698 C1047.4839,890.959187 1073.6689,887.590793 1101.3909,884.024373 C1143.5109,878.606764 1187.0649,873.003939 1229.1689,873.003939 C1288.0389,873.003939 1332.6749,884.587907 1365.6059,908.411985 C1388.5639,930.045966 1400.4409,959.336912 1399.9529,993.141054 C1399.2629,1040.90349 1373.9999,1093.70818 1335.5929,1127.667 L1335.4479,1127.8 C1286.9009,1173.66298 1198.2849,1213.44136 1072.0619,1246.03076 C955.9919,1275.99853 835.9319,1292.28486 774.6949,1299.3241 L759.5389,1301.0679 L771.8409,1309.96129 C776.8199,1313.56219 781.3629,1316.73158 785.7299,1319.65269 L788.5469,1321.53541 L791.6329,1320.12066 C800.4329,1316.08529 806.0219,1315.23802 809.1629,1315.23802 C811.9499,1315.23802 815.3119,1315.84293 815.4969,1318.72759 C815.6179,1320.61622 814.2739,1323.42009 811.4369,1323.77477 L796.3729,1325.65452 L808.6729,1334.42673 C816.8889,1340.2867 829.1469,1347.3486 843.3419,1355.52772 C889.7809,1382.28474 959.9609,1422.72124 947.8909,1458.23076 L947.0989,1460.56371 L948.2209,1462.76366 C951.4639,1469.12016 951.7409,1475.0215 949.0649,1480.80364 C943.3349,1493.19547 925.4099,1502.60214 910.1869,1506.42866 L909.9259,1506.49467 L909.6709,1506.58333 C883.1829,1515.81169 855.3789,1520.4904 827.0329,1520.4904" id="Fill-1" fill="#FFFFFF"></path>
        <path d="M776.0743,1292.37047 C777.9043,1290.50777 778.6743,1288.06586 776.9643,1285.1994 C770.3543,1276.75665 756.6433,1282.52995 748.1143,1284.47934 C744.8933,1281.80102 741.6943,1279.11187 738.6143,1276.27496 C739.6843,1269.63581 731.7043,1265.22186 728.4243,1260.09967 C725.2043,1256.32796 722.1743,1252.04305 718.3133,1248.88108 C708.9043,1241.54156 695.8643,1246.50615 684.9443,1246.17222 C676.5343,1235.47373 667.8743,1225.11213 659.8743,1214.06001 C669.0943,1198.56537 669.7443,1180.41113 666.6843,1163.14343 C808.1143,1109.4786 930.5343,1007.872 1083.4943,984.388713 C1088.7543,983.51203 1091.7043,977.119138 1090.3933,972.430361 C1079.7233,946.967147 926.3933,1012.66913 903.4733,1024.56838 C835.8743,1056.93671 772.5533,1097.28384 706.8543,1132.88309 C693.1543,1140.16153 678.0843,1144.07311 663.1043,1147.85565 C640.0843,1072.30329 601.1433,1003.04532 571.2843,930.201812 C573.2233,926.842835 574.8743,923.316401 576.2743,919.691464 C575.2843,959.752931 614.2443,959.191459 619.6243,921.188721 C617.4043,940.997821 632.3843,983.423377 654.0043,955.586223 C659.0743,948.592458 660.8743,939.638469 661.7333,930.605677 C662.8443,936.850814 664.1043,943.066399 665.5043,949.262283 C671.0533,961.535848 686.2043,946.612533 689.7233,940.209791 C691.7543,939.845327 693.6543,938.919392 695.0443,937.786599 C733.2743,943.09595 778.3033,942.790588 806.3543,912.609046 C853.9343,930.861787 906.5943,914.509183 954.7143,907.220892 C1052.6343,895.961915 1150.9443,878.801581 1249.7443,880.112665 C1293.8543,882.673762 1345.8933,889.795582 1373.7943,927.433857 C1409.5843,981.689711 1389.3543,1054.96664 1349.8743,1101.93321 C1254.9043,1222.17573 928.9143,1274.46151 776.0743,1292.37047 M778.7443,1335.68256 C780.4733,1335.2196 782.2143,1334.79504 783.9443,1334.39216 C811.6643,1357.47159 942.2143,1417.40126 932.2843,1453.19751 C928.7743,1457.64988 920.3743,1458.66348 915.0633,1460.10164 C905.8133,1462.60363 896.4733,1464.7717 887.0443,1466.48567 C856.5633,1472.03143 824.9943,1472.99676 794.5533,1466.67184 C783.3543,1464.96871 773.2443,1460.19128 763.0443,1455.57145 C730.0843,1441.0717 693.7843,1425.05401 660.9833,1410.67345 C619.3133,1394.15438 546.2233,1361.59791 576.2843,1306.66336 C604.7643,1338.69579 640.9143,1335.89829 659.1243,1296.08406 C665.4043,1283.99766 670.8843,1267.70514 685.6343,1262.81935 C693.4143,1257.55926 703.3643,1256.46586 709.8643,1262.32684 C710.3343,1261.59791 710.7543,1260.57347 710.9833,1259.66724 C718.3133,1270.09878 724.6343,1281.08195 733.2233,1290.61711 C730.2743,1290.77471 699.5743,1313.49854 708.6343,1313.50937 C719.5343,1307.89466 730.3643,1303.21573 742.1343,1300.19068 C750.6643,1308.77036 760.0443,1316.75015 769.7643,1324.12709 C760.3243,1330.36238 751.8443,1337.99642 745.0243,1346.28058 C744.4343,1347.01049 745.1543,1347.95613 746.0343,1347.56113 C756.6243,1342.8428 767.5143,1338.69579 778.7443,1335.68256 M919.2643,1490.47034 C813.2333,1538.09788 700.9833,1485.06347 610.5633,1428.52233 C589.6943,1416.86934 562.2443,1400.35026 566.4643,1372.91697 C581.8343,1395.40537 607.1743,1408.21086 631.4943,1419.31223 C672.3543,1437.78168 713.4833,1455.66011 754.4443,1473.903 C758.3133,1486.73705 776.8133,1487.22957 787.9943,1490.07731 C837.7643,1499.73067 891.2643,1494.93354 938.1043,1475.68591 C935.3933,1483.71397 926.5243,1487.39702 919.2643,1490.47034 M496.2233,1305.01835 C493.6043,1305.35327 490.9833,1305.65764 488.3643,1305.95414 C488.6343,1302.48681 486.5443,1299.01948 483.1843,1297.94578 C484.6943,1290.59642 485.2543,1283.00178 484.4443,1275.54604 C488.8243,1286.86412 502.9643,1283.42633 511.9443,1280.16488 C524.7743,1276.67784 537.5243,1272.92584 550.2043,1268.9256 C555.2043,1278.21549 560.5043,1287.36648 567.0143,1295.7787 C543.3133,1297.88668 519.8343,1302.07309 496.2233,1305.01835 M485.7943,1269.41812 C485.1643,1270.7489 484.2643,1272.15652 484.2443,1273.75327 C483.6043,1268.24691 482.3543,1262.80852 480.4543,1257.59767 C482.2333,1261.53782 484.0143,1265.47797 485.7943,1269.41812 M470.8343,1239.89655 C459.1743,1224.69841 437.6243,1212.27611 417.7043,1216.51177 C416.4243,1216.78856 416.3933,1218.8463 417.7043,1219.1034 C444.4643,1222.73819 467.9643,1243.96476 468.8933,1271.40888 C471.0043,1283.8302 462.3643,1296.02496 465.2743,1307.94391 C464.6943,1307.98331 464.1143,1308.01287 463.5443,1308.05227 C463.3343,1308.84916 463.1433,1309.55839 462.8933,1310.17995 C465.7843,1310.66163 466.6343,1315.31199 463.2233,1316.13942 C461.2043,1316.63194 459.0943,1316.88805 456.9443,1316.99641 C446.0343,1314.05114 434.5243,1313.37048 424.0943,1309.01662 C413.7743,1304.45688 416.3543,1291.64155 412.7143,1282.76636 C410.0443,1272.53084 406.9733,1262.33669 403.1043,1252.51586 C402.8243,1251.72685 401.7543,1251.90514 401.6643,1252.70204 C398.9343,1272.29541 399.0243,1292.22272 399.6843,1311.97173 C396.1043,1312.33718 392.5443,1312.74104 388.9733,1313.18431 C389.2043,1307.66712 372.6543,1240.45901 363.9343,1257.70701 C368.3243,1276.66898 368.8543,1296.47808 369.3243,1315.99068 C343.4343,1320.25688 317.9243,1326.61037 293.1043,1335.259 C275.6143,1340.5585 254.8133,1356.24029 237.8343,1342.06462 C224.6843,1331.19079 220.2543,1312.21799 221.4943,1296.07421 C238.5943,1200.55515 373.6543,1189.39467 453.3843,1196.45739 C460.9143,1213.83345 468.5843,1231.15041 476.3543,1248.42796 C474.7443,1245.45315 472.9043,1242.59654 470.8343,1239.89655 M198.9043,1294.21249 C197.4443,1272.52197 201.0943,1245.52111 217.1643,1229.35665 C253.9443,1198.26001 305.4443,1188.47761 351.4043,1177.21961 C372.8133,1172.9938 394.5143,1170.18645 416.3043,1168.78769 C424.0343,1168.17697 433.8543,1169.92935 439.3133,1163.6064 C442.1243,1170.26525 444.9733,1176.91425 447.8243,1183.56325 C356.3243,1171.57535 165.4243,1213.22174 218.8843,1338.56774 C207.5633,1326.30402 200.0633,1311.37184 198.9043,1294.21249 M653.4943,1222.51163 C657.7043,1233.03183 662.8543,1243.04966 669.5843,1252.20952 C661.9343,1257.21449 655.6943,1264.61114 651.2943,1272.56137 C623.0943,1346.34067 592.9343,1306.82097 555.4643,1267.23134 C587.1743,1255.26412 629.1743,1246.29929 653.4943,1222.51163 M184.1043,1279.20052 C110.7743,1206.76088 96.5443,1086.08396 123.6343,991.224872 C126.0443,956.04919 138.3443,922.528371 149.3643,889.22426 C184.4543,788.198836 230.6043,691.005206 285.9543,599.239132 C354.6243,618.102596 423.1743,637.467444 492.0043,655.71132 C501.4833,657.770048 510.9733,661.838252 520.7043,662.429274 C524.1843,664.645608 527.6743,667.0885 531.2943,669.234897 C526.0243,695.053709 530.8843,721.413307 532.1143,747.388741 C533.2333,767.838115 531.0243,787.863923 528.3133,808.096589 C525.2843,837.529503 512.8133,933.264293 537.8043,950.789091 C546.2743,954.876996 553.8443,942.770888 557.4943,946.100314 C560.7843,943.805177 563.8543,940.820514 566.3543,937.530489 C576.0043,968.736471 591.7743,997.686717 601.5143,1028.92225 C614.4733,1074.824 657.0343,1149.12635 647.5843,1192.91027 C640.2743,1219.94955 608.2943,1225.78097 585.2143,1234.61774 C558.5443,1243.89679 531.5743,1252.41638 504.1643,1259.33232 C490.7843,1230.9337 477.9943,1202.26813 465.4443,1173.49519 C408.0843,1040.7427 357.2843,905.221266 311.8843,768.084374 C311.0343,765.040609 300.5943,732.06156 298.6843,741.261809 C298.5243,740.316173 297.3343,737.87328 296.8843,739.961559 C304.5843,772.162428 312.3933,804.353447 320.8443,836.37701 C300.0843,833.47115 277.7643,832.338357 258.7643,842.513792 C257.7843,843.035862 258.5043,844.325276 259.4733,844.168655 C281.9733,840.267907 303.6743,847.635986 325.2843,852.925636 C355.6343,956.236347 394.7943,1056.92587 436.2443,1156.35652 C423.4243,1152.26862 408.5443,1156.78994 395.1643,1157.11402 C353.0243,1161.46887 311.3643,1170.68882 271.5543,1185.02997 C221.5143,1201.25452 186.1343,1222.41214 184.1043,1279.20052 M143.7333,525.302232 C131.4143,512.03378 121.7333,495.091139 123.6043,477.114208 C131.0043,467.244134 133.4543,454.369697 137.7643,442.96198 C154.6143,395.227073 170.2543,347.127702 188.5943,299.905999 C227.6043,311.903753 265.9833,326.295148 302.1843,345.197029 C308.8443,348.596392 315.4343,352.122826 321.9443,355.777314 C328.7643,359.599259 336.2043,366.23841 344.3843,364.337288 C335.4443,376.995017 317.0343,390.164966 313.9243,404.791785 C313.2543,409.422445 316.5343,413.717208 321.5743,412.682919 C400.4643,468.72169 481.9343,523.578417 556.5043,585.999245 C612.3443,630.208704 655.2143,666.064062 674.3643,737.794477 C687.2743,784.258686 687.3133,832.821025 685.4143,880.595334 C685.0443,889.88325 685.0343,899.389845 684.2843,908.737849 C685.4043,915.731614 683.2743,929.965403 675.4143,930.221513 C675.5943,931.915777 676.1543,933.481986 677.0443,934.861038 C676.7943,935.194966 676.5343,935.511163 676.2643,935.836225 C675.8743,933.925253 675.4943,932.024131 675.1343,930.113158 C669.0143,903.004932 668.1943,871.552691 669.2143,842.691099 C669.6433,834.416785 656.9543,834.613793 656.2443,842.691099 C654.3343,864.509675 652.4243,886.328251 650.5143,908.136976 C648.2233,922.272262 651.8343,940.761412 640.5343,951.508168 C629.0443,940.889466 632.8443,919.947574 633.4043,906.245705 C634.3033,883.895209 635.2743,861.554563 636.1043,839.204067 C636.3643,832.121649 624.6343,830.29933 623.3033,837.499952 C619.5343,858.028129 615.4543,878.497204 611.0633,898.907177 C608.4143,906.797326 606.5943,942.199566 593.3543,936.052933 C585.4643,930.664779 591.1543,899.074633 590.1143,888.613537 C590.6043,867.908053 590.8933,847.232121 592.4143,826.575889 C593.0343,818.242473 579.4643,816.469406 577.6043,824.605814 C574.5843,837.775763 571.6943,850.945711 569.0743,864.204313 C563.3243,886.554809 565.4143,916.854556 544.6543,931.708919 C536.5243,873.650821 548.2233,815.996588 549.8643,758.145348 C548.8843,739.400088 545.6643,720.841985 542.8243,702.323284 C539.6843,681.844359 537.8543,659.552965 545.2043,639.802967 C543.1943,630.957332 535.2943,654.883888 534.5543,656.873664 C528.6043,645.15172 514.1143,644.245486 502.6543,640.590997 C477.1843,632.346235 451.0943,626.13065 425.3243,618.801972 C356.9833,599.820304 288.5633,581.134146 220.1243,562.48739 C192.7843,554.922304 164.0043,545.968315 143.7333,525.302232 M828.0843,834.121274 C818.6543,783.006704 818.9143,731.214428 822.9443,679.539372 C827.3743,599.396738 831.6743,519.234403 836.2743,439.101619 C856.2443,584.13851 877.5343,729.007945 893.8133,874.507803 C894.9733,884.633987 894.7943,895.351192 899.9043,904.383984 C871.6643,908.166528 841.5633,911.978622 814.1043,902.374508 C826.1543,881.54097 830.4043,857.821271 828.0843,834.121274 M970.7743,474.099994 C992.1243,611.561948 979.9443,751.437244 1000.6543,888.741592 C971.9243,891.962664 943.4143,896.730245 914.9833,901.970643 C918.0943,885.008301 912.1943,867.494338 911.1743,850.413791 C895.7333,728.583394 878.6843,606.833769 856.0943,486.068197 C850.5533,457.167203 844.9543,428.384413 838.5343,399.641025 C839.5043,382.235416 840.3543,364.829807 840.9143,347.413362 C872.2643,327.703751 907.6143,314.946533 944.1743,308.515225 C954.0533,363.559109 963.9243,418.563591 970.7743,474.099994 M723.6243,42.1414398 C722.3743,40.0039089 721.1843,37.8171261 720.0443,35.6007922 C723.9043,35.7485478 727.6643,35.886453 731.4643,36.5168769 C731.2943,42.6339585 731.6343,48.800292 731.7043,54.9666254 C729.8033,50.4551546 726.0843,46.3376987 723.6243,42.1414398 M1368.4443,903.566403 C1277.2543,837.253693 1127.4733,879.501942 1021.8343,886.3184 C1001.6943,754.253465 1009.9143,620.033269 991.1433,487.752611 C973.8543,355.600007 955.6243,221.605384 912.2043,94.9886906 C894.2843,46.0313521 863.2843,31.4931867 812.2443,31.8872016 C786.3443,30.8726132 758.9543,26.7256062 733.7843,27.3156435 C728.2643,27.4052819 722.4943,28.1342095 717.5143,30.3603938 C710.5143,14.5800964 706.7143,-2.36254507 704.7943,-19.4332414 C704.6743,-20.5167824 703.2943,-20.7137899 702.8843,-19.6795007 C696.9643,-4.81528793 696.3343,11.4082763 699.5533,26.9718655 C701.8843,38.1224877 715.7543,82.0058991 731.8643,64.8366991 C733.1433,100.839812 725.2333,143.83669 689.9643,162.522847 C628.3343,189.394665 543.1433,164.926338 507.4443,107.892679 C500.5443,96.4957977 494.5943,84.3690036 486.9543,73.4262243 C540.1843,58.3551537 570.0633,-5.42601106 557.5243,-53.9982 C549.7743,-16.2220198 535.6433,25.9868282 500.4543,47.1454293 C372.3133,46.8597685 265.7743,105.223228 205.5743,217.634699 C193.7943,233.957752 182.9043,250.919109 172.9243,268.177948 C167.5533,279.722585 151.8243,295.778693 165.1743,306.929315 C149.7543,348.084173 136.0743,389.809368 121.6143,431.290273 C117.6433,445.110346 108.5633,459.610095 110.3743,474.139395 C108.4143,483.093384 108.5043,493.682535 112.9943,502.291761 C117.2543,517.638642 126.8133,538.285024 142.6643,544.79612 C156.1143,557.079535 173.1243,565.541006 190.8643,571.914197 C143.5533,695.556078 125.5443,828.900577 109.5143,959.536222 C93.8033,1073.82025 85.6943,1212.83856 184.1343,1295.43295 C186.0443,1319.06498 200.0633,1349.17757 227.7843,1349.43368 C246.9833,1368.28631 270.3843,1357.94342 291.7543,1348.72446 C327.8243,1335.36637 365.6543,1327.95987 403.2443,1323.83158 C407.2743,1326.98468 413.8343,1326.46163 417.4243,1322.78843 C440.1943,1317.53818 471.7543,1338.79528 476.3543,1319.5378 C505.7143,1316.69006 534.7543,1311.35214 564.0843,1308.23844 C551.7233,1324.27583 552.6143,1347.92559 561.9243,1365.2524 C538.2143,1411.8949 593.4443,1438.90462 627.2143,1458.04291 C672.8033,1484.44191 720.4143,1509.49239 772.5533,1520.43517 C818.3933,1530.07869 866.4143,1527.15411 910.6433,1511.74813 C933.8843,1505.90587 966.3443,1486.72818 952.5533,1459.70861 C970.0343,1408.28966 847.2743,1355.009 811.1643,1329.25914 C825.9243,1327.4181 826.4643,1296.78246 788.0743,1314.38606 C783.4343,1311.2822 778.8743,1308.08083 774.3643,1304.82134 C929.6433,1286.97247 1226.1943,1237.86836 1338.5743,1131.72074 C1400.3133,1077.13982 1435.9343,966.736845 1368.4443,903.566403" id="ðŸ–-Ink" fill="#000000"></path>
    </g>
</svg>