<?xml version="1.0" encoding="UTF-8"?>
<svg width="1534px" height="1856px" viewBox="0 0 1534 1856" version="1.1" xmlns="http://www.w3.org/2000/svg" xmlns:xlink="http://www.w3.org/1999/xlink">
    <!-- Generator: Sketch 62 (91390) - https://sketch.com -->
    <title>pose/sitting/one_leg_up-2</title>
    <desc>Created with Sketch.</desc>
    <defs>
        <polygon id="path-1" points="0 0.00167456359 1304.94078 0.00167456359 1304.94078 1579.98975 0 1579.98975"></polygon>
    </defs>
    <g id="pose/sitting/one_leg_up-2" stroke="none" stroke-width="1" fill="none" fill-rule="evenodd">
        <path d="M822.1619,829.317267 C824.4009,852.677317 819.8229,874.985174 808.9179,893.844835 L805.3699,899.980653 L812.1229,902.342175 C824.4129,906.640597 838.0799,908.730204 853.9059,908.730204 C870.1929,908.730204 887.1299,906.462276 900.7389,904.638673 L909.4519,903.472198 L905.1719,895.9039 C901.7299,889.821283 901.0929,882.450025 900.4179,874.646265 C900.2359,872.549762 900.0489,870.382325 899.8029,868.237547 C886.9079,752.977166 870.6079,636.212386 854.8449,523.292837 C850.6959,493.579241 846.4069,462.85286 842.2459,432.62893 L830.3099,433.089018 C827.0989,489.032548 823.9829,545.921869 820.9699,600.938327 C819.6449,625.13087 818.3189,649.324397 816.9829,673.513984 C812.2199,734.671186 813.8649,784.19122 822.1619,829.317267 M827.0329,1520.4904 C809.5039,1520.4904 791.9409,1518.66483 774.8339,1515.06491 C721.3009,1503.82773 672.6659,1477.31505 631.2819,1453.34713 C629.1689,1452.14913 627.0249,1450.95113 624.8239,1449.71963 C608.6219,1440.65481 588.4589,1429.37626 575.8229,1415.61697 C561.9609,1400.52274 559.5749,1385.48269 568.3159,1368.28408 L569.6989,1365.56296 L568.2539,1362.87238 C559.2029,1346.02647 559.8759,1325.1836 569.8899,1312.18883 L578.3059,1301.26888 L564.4689,1302.73683 C550.5169,1304.21758 536.4549,1306.22345 522.8549,1308.1633 C507.7659,1310.31596 492.1609,1312.54153 476.7929,1314.03115 L472.5219,1314.44592 L471.5399,1318.56109 C470.9929,1320.85168 470.3179,1322.24278 465.5769,1322.24278 C461.4659,1322.24278 455.9409,1321.03887 450.0939,1319.76501 C442.8369,1318.18475 434.6109,1316.39267 426.6789,1316.39267 C423.1899,1316.39267 420.0519,1316.72468 417.0839,1317.41038 L415.3569,1317.80742 L414.1279,1319.0665 C413.3419,1319.87141 412.0039,1320.3709 410.6369,1320.3709 C409.6029,1320.3709 408.6439,1320.08323 408.0029,1319.58176 L406.0649,1318.06554 L403.6059,1318.33548 C360.7629,1323.03981 323.8199,1331.29577 290.6699,1343.57234 L290.5199,1343.62849 L289.8009,1343.93883 C277.8139,1349.11211 265.4209,1354.46174 254.1339,1354.46174 C245.8829,1354.46174 239.1829,1351.65491 233.0469,1345.62845 L231.3129,1343.92701 L228.8669,1343.90336 C204.0489,1343.6748 192.7089,1314.73458 191.1409,1295.33799 L190.9439,1292.89568 L189.0519,1291.30754 C145.7999,1255.01084 120.2659,1205.16077 110.9879,1138.90713 C102.5379,1078.55878 109.0259,1014.9307 116.4869,960.647226 C133.7459,819.970686 151.7469,693.86031 197.5049,574.253232 L199.6429,568.662229 L193.9459,566.614985 C174.1829,559.513672 159.0789,551.040962 147.7699,540.712138 L146.9869,539.994913 L146.0009,539.589996 C129.7929,532.931038 121.8549,508.350327 119.8079,500.976114 L119.6439,500.381054 L119.3579,499.833283 C116.0509,493.489588 115.2879,484.665162 117.2659,475.622022 L117.4779,474.64766 L117.3549,473.657535 C116.2869,465.071528 119.8319,456.095381 123.5849,446.591168 C125.2999,442.249397 127.0719,437.761816 128.3669,433.291969 C132.8189,420.517881 137.2659,407.518183 141.5679,394.94409 C151.2199,366.733907 161.1989,337.563155 171.8299,309.186473 L173.2839,305.305775 L170.0809,302.63096 C164.6129,298.063578 166.4389,292.687348 174.3239,279.832474 C176.1869,276.796091 177.9489,273.923251 179.2889,271.092775 C189.3959,253.628156 200.2279,236.863027 211.4899,221.257478 L211.7219,220.937288 L211.9069,220.590498 C269.6959,112.661967 372.2029,53.2239364 500.5439,53.2239364 L503.1599,53.2288624 L504.6059,52.3589319 C528.6599,37.8942427 545.8309,13.0751139 557.0999,-23.5151705 L557.4599,-24.6816459 L557.3209,-25.8934405 C556.9349,-29.2657761 556.5119,-33.6873484 556.6569,-37.9778893 C557.0239,-48.8436472 561.2829,-58.539974 568.3409,-64.5812132 C581.7319,-76.0430163 602.0609,-77.0026 621.7359,-77.0026 L624.5609,-77.0026 C649.7159,-76.9257545 667.4749,-72.5583681 680.4509,-63.2511948 C695.5269,-52.4376525 703.8589,-34.9818997 705.9239,-9.88691518 C706.5409,-2.37772972 706.5199,5.40140021 706.5009,12.9243784 L706.4959,15.0238371 L706.7489,15.8573153 C708.5569,21.821709 710.6749,27.5526106 713.0429,32.8923882 L715.4789,38.3858569 L721.0189,35.9090671 C724.6019,34.308119 729.1439,33.4844927 734.9079,33.3918841 C736.5699,33.3534613 738.1909,33.3357277 739.8259,33.3357277 C753.2089,33.3357277 767.5249,34.5573743 781.3709,35.7386277 C791.8029,36.6292474 802.5909,37.5504083 813.0329,37.9592658 L813.1759,37.965177 C813.1759,37.965177 814.6179,37.9563102 815.2649,37.9563102 C840.6439,37.9563102 859.0419,41.9473507 873.1629,50.5175952 C888.3679,59.7439823 899.3009,74.5525058 907.5679,97.1204553 C951.9099,226.480017 970.1399,365.817672 986.2199,488.747826 C995.3409,553.03402 998.1149,618.93791 1000.7979,682.671407 C1003.6309,749.942753 1006.5589,819.504687 1016.9279,887.50311 L1017.7469,892.878355 L1023.2529,892.522698 C1047.4839,890.959187 1073.6689,887.590793 1101.3909,884.024373 C1143.5109,878.606764 1187.0649,873.003939 1229.1689,873.003939 C1288.0389,873.003939 1332.6749,884.587907 1365.6059,908.411985 C1388.5639,930.045966 1400.4409,959.336912 1399.9529,993.141054 C1399.2629,1040.90349 1373.9999,1093.70818 1335.5929,1127.667 L1335.4479,1127.8 C1286.9009,1173.66298 1198.2849,1213.44136 1072.0619,1246.03076 C955.9919,1275.99853 835.9319,1292.28486 774.6949,1299.3241 L759.5389,1301.0679 L771.8409,1309.96129 C776.8199,1313.56219 781.3629,1316.73158 785.7299,1319.65269 L788.5469,1321.53541 L791.6329,1320.12066 C800.4329,1316.08529 806.0219,1315.23802 809.1629,1315.23802 C811.9499,1315.23802 815.3119,1315.84293 815.4969,1318.72759 C815.6179,1320.61622 814.2739,1323.42009 811.4369,1323.77477 L796.3729,1325.65452 L808.6729,1334.42673 C816.8889,1340.2867 829.1469,1347.3486 843.3419,1355.52772 C889.7809,1382.28474 959.9609,1422.72124 947.8909,1458.23076 L947.0989,1460.56371 L948.2209,1462.76366 C951.4639,1469.12016 951.7409,1475.0215 949.0649,1480.80364 C943.3349,1493.19547 925.4099,1502.60214 910.1869,1506.42866 L909.9259,1506.49467 L909.6709,1506.58333 C883.1829,1515.81169 855.3789,1520.4904 827.0329,1520.4904" id="Fill-1" fill="#FFFFFF"></path>
        <g id="Group-3" transform="translate(100.000000, -54.000000)">
            <mask id="mask-2" fill="white">
                <use xlink:href="#path-1"></use>
            </mask>
            <g id="Clip-2"></g>
            <path d="M814.9835,955.970627 C818.0935,939.008283 812.1945,921.494318 811.1735,904.413769 C795.7335,782.583358 778.6845,660.833719 756.0935,540.068133 C750.5535,511.167136 744.9545,482.384343 738.5345,453.640951 C739.5045,436.23534 740.3545,418.829729 740.9145,401.414268 C772.2645,381.70367 807.6145,368.947435 844.1735,362.515141 C854.0535,417.559031 863.9235,472.56352 870.7745,528.099929 C892.1245,665.561899 879.9445,805.437211 900.6545,942.741575 C871.9235,945.962647 843.4145,950.730228 814.9835,955.970627 M870.1275,1063.06192 C848.5225,1068.80666 826.8975,1074.30317 805.1195,1079.37316 C766.3655,1088.39512 727.6215,1097.45352 688.9665,1106.87934 C669.6725,1111.58388 650.3355,1116.14756 631.0815,1121.00478 C621.9445,1123.31075 612.8665,1125.87185 603.9255,1128.83977 C599.4635,1130.32126 595.1025,1132.02045 590.7425,1133.76594 C586.9225,1135.29373 583.3185,1137.40073 579.1185,1137.10029 C578.8685,1137.08256 578.7125,1136.84024 578.8355,1136.61467 C581.0325,1132.57503 585.5595,1130.66012 589.5565,1128.61813 C593.9635,1126.36634 598.5555,1124.43369 603.1515,1122.58872 C613.3605,1118.49096 623.9935,1115.48167 634.5985,1112.56202 C673.1425,1101.95416 712.0175,1092.4515 750.8525,1082.94293 C789.8725,1073.39004 828.8945,1064.24101 868.4325,1057.00591 C872.4155,1056.27797 874.1385,1061.99513 870.1275,1063.06192 M678.7445,1389.6826 C680.4735,1389.21963 682.2135,1388.79508 683.9445,1388.3922 C711.6645,1411.47162 842.2135,1471.4013 832.2845,1507.19756 C828.7745,1511.64993 820.3745,1512.66353 815.0635,1514.10169 C805.8135,1516.60368 796.4735,1518.77175 787.0445,1520.48571 C756.5635,1526.03148 724.9945,1526.99681 694.5535,1520.67189 C683.3545,1518.96876 673.2445,1514.19133 663.0445,1509.5715 C630.0845,1495.07175 593.7845,1479.05406 560.9835,1464.6735 C519.3135,1448.15442 446.2235,1415.59795 476.2845,1360.6634 C504.7645,1392.69583 540.9145,1389.89931 559.1245,1350.08409 C565.4045,1337.99768 570.8835,1321.70517 585.6335,1316.81938 C593.4145,1311.55928 603.3645,1310.46589 609.8645,1316.32686 C610.3345,1315.59793 610.7545,1314.5735 610.9835,1313.66726 C618.3135,1324.09881 624.6335,1335.08197 633.2235,1344.61714 C630.2745,1344.77474 599.5745,1367.49857 608.6335,1367.50941 C619.5345,1361.89469 630.3645,1357.21576 642.1335,1354.1917 C650.6645,1362.77039 660.0445,1370.75018 669.7645,1378.12712 C660.3245,1384.36241 651.8435,1391.99645 645.0245,1400.2816 C644.4345,1401.01053 645.1545,1401.95616 646.0345,1401.56116 C656.6245,1396.84283 667.5145,1392.69583 678.7445,1389.6826 M819.2645,1544.47039 C713.2335,1592.09793 600.9835,1539.06352 510.5635,1482.52237 C489.6945,1470.86938 462.2445,1454.3503 466.4635,1426.91701 C481.8345,1449.40542 507.1735,1462.2109 531.4945,1473.31227 C572.3545,1491.78172 613.4835,1509.66015 654.4445,1527.90305 C658.3135,1540.7371 676.8135,1541.22962 687.9945,1544.07736 C737.7645,1553.73073 791.2645,1548.93359 838.1045,1529.68596 C835.3935,1537.71402 826.5245,1541.39707 819.2645,1544.47039 M396.2235,1359.01838 C393.6045,1359.3533 390.9835,1359.65767 388.3645,1359.95417 C388.6335,1356.48684 386.5445,1353.0195 383.1845,1351.94581 C384.6945,1344.59645 385.2535,1337.00181 384.4445,1329.54606 C388.8245,1340.86414 402.9635,1337.42636 411.9445,1334.1649 C424.7745,1330.67787 437.5245,1326.92586 450.2045,1322.92563 C455.2045,1332.21551 460.5035,1341.36651 467.0145,1349.77873 C443.3135,1351.88671 419.8345,1356.07312 396.2235,1359.01838 M385.7945,1323.41815 C385.1645,1324.74893 384.2645,1326.15753 384.2445,1327.7533 C383.6045,1322.24694 382.3545,1316.80854 380.4545,1311.5977 C382.2335,1315.53785 384.0145,1319.478 385.7945,1323.41815 M370.8345,1293.89756 C359.1735,1278.69843 337.6245,1266.27711 317.7045,1270.51179 C316.4235,1270.78858 316.3935,1272.84633 317.7045,1273.10342 C344.4635,1276.73821 367.9635,1297.96478 368.8935,1325.40891 C371.0035,1337.83023 362.3645,1350.02499 365.2745,1361.94394 C364.6945,1361.98335 364.1145,1362.0129 363.5445,1362.0523 C363.3345,1362.85018 363.1435,1363.55842 362.8935,1364.17998 C365.7845,1364.66166 366.6335,1369.31202 363.2235,1370.13946 C361.2045,1370.63197 359.0935,1370.88808 356.9445,1370.99644 C346.0345,1368.05118 334.5245,1367.37051 324.0935,1363.01665 C313.7745,1358.45691 316.3545,1345.64157 312.7135,1336.76639 C310.0445,1326.53086 306.9735,1316.33671 303.1045,1306.51589 C302.8245,1305.72687 301.7545,1305.90517 301.6645,1306.70305 C298.9345,1326.29544 299.0245,1346.22275 299.6845,1365.97176 C296.1045,1366.33721 292.5445,1366.74108 288.9735,1367.18434 C289.2045,1361.66715 272.6545,1294.45903 263.9345,1311.70704 C268.3245,1330.66901 268.8545,1350.47811 269.3245,1369.9917 C243.4345,1374.25691 217.9235,1380.6104 193.1045,1389.25903 C175.6145,1394.55853 154.8135,1410.24033 137.8345,1396.06465 C124.6845,1385.19083 120.2545,1366.21802 121.4945,1350.07424 C138.5935,1254.55517 273.6545,1243.39469 353.3835,1250.45741 C360.9145,1267.83347 368.5845,1285.15043 376.3545,1302.42798 C374.7445,1299.45317 372.9045,1296.59656 370.8345,1293.89756 M98.9045,1348.21252 C97.4445,1326.522 101.0935,1299.52212 117.1645,1283.35667 C153.9445,1252.26003 205.4445,1242.47762 251.4045,1231.21963 C272.8135,1226.99382 294.5145,1224.18646 316.3035,1222.78771 C324.0345,1222.17699 333.8545,1223.92937 339.3135,1217.60641 C342.1245,1224.26527 344.9735,1230.91427 347.8245,1237.56327 C256.3245,1225.57537 65.4235,1267.22176 118.8835,1392.56777 C107.5635,1380.30406 100.0635,1365.37187 98.9045,1348.21252 M35.0245,946.711276 C37.5845,928.094069 40.3835,909.496562 43.3435,890.928607 C55.4445,802.117635 80.4545,715.680602 95.3645,627.470502 C121.1735,635.863021 147.6045,642.255914 173.6645,649.811151 C117.1945,743.724617 71.0045,843.449804 35.0245,946.711276 M247.0675,859.323682 C242.1025,835.721201 236.5345,811.669542 234.0035,787.676001 C233.8895,786.597385 235.5485,786.483121 235.8445,787.430727 C239.9915,800.716911 242.8175,814.491675 246.3155,827.962061 C249.8265,841.479729 253.0905,855.05847 256.5475,868.589929 C257.6515,872.911288 258.7585,877.229692 259.8665,881.549081 C260.5305,881.577647 261.1925,881.600303 261.8515,881.615079 C264.3835,881.674181 265.1425,884.852897 263.1055,886.175802 C262.5105,886.561936 261.9145,886.900789 261.3165,887.203196 C271.9025,928.379729 282.7495,969.46367 294.5875,1010.32499 C308.3815,1057.9417 323.9115,1104.98413 336.3235,1152.985 C336.6105,1154.09613 336.0965,1154.87135 335.3445,1155.20725 C341.8005,1177.04848 347.2105,1199.17833 353.1125,1221.18702 C354.3415,1225.76942 347.5735,1228.73931 345.2595,1224.44848 C341.6965,1217.83987 340.9095,1208.80904 339.1655,1201.54735 C337.2005,1193.3676 335.3335,1185.16913 333.4695,1176.96672 C330.5045,1163.9199 327.8445,1150.71449 325.6515,1137.48446 C317.4795,1116.95332 310.1615,1096.17494 303.6855,1075.0055 C289.1825,1027.59368 275.8045,979.857784 263.8965,931.748557 C260.3805,917.547273 256.9345,903.326288 253.6465,889.070827 C238.6765,889.301325 223.0345,872.365577 207.9915,881.381625 C207.2955,881.799281 206.5905,880.849704 207.1385,880.294143 C213.1355,874.217448 221.4245,873.687498 229.4775,875.19165 C234.7105,876.168807 239.7275,878.022647 244.8505,879.41943 C247.1075,880.035079 249.4245,880.486226 251.7665,880.822123 C250.1515,873.665827 248.5775,866.50165 247.0675,859.323682 M569.5845,1306.21053 C561.9345,1311.21452 555.6945,1318.61116 551.2945,1326.5614 C523.0935,1400.3407 492.9345,1360.821 455.4635,1321.23235 C487.1735,1309.26414 529.1735,1300.3003 553.4945,1276.51165 C557.7045,1287.03185 562.8545,1297.04968 569.5845,1306.21053 M559.4955,1126.24518 C557.0465,1114.10656 555.0285,1101.89308 553.1925,1089.65104 C551.4305,1077.91038 548.6775,1065.33342 549.1265,1053.44894 C549.1435,1052.97514 549.8115,1052.89141 549.9555,1053.33862 C553.7675,1065.18566 554.9095,1078.28666 557.3275,1090.48931 C559.6665,1102.28513 562.2365,1114.03662 564.8255,1125.78123 C570.1415,1149.89199 577.6585,1173.63336 582.2085,1197.88892 C582.6965,1200.48745 579.1855,1201.39959 578.2315,1198.9695 C569.1205,1175.77483 564.3995,1150.56477 559.4955,1126.24518 M43.7335,579.302173 C31.4145,566.033719 21.7335,549.091076 23.6045,531.114143 C31.0045,521.244069 33.4545,508.36963 37.7645,496.962897 C54.6145,449.227984 70.2545,401.127622 88.5935,353.905914 C127.6045,365.90367 165.9835,380.295066 202.1845,399.197934 C208.8435,402.596313 215.4345,406.122747 221.9445,409.777236 C228.7645,413.599181 236.2045,420.238333 244.3835,418.337211 C235.4445,430.994941 217.0345,444.164892 213.9235,458.792697 C213.2545,463.422373 216.5345,467.717136 221.5745,466.682847 C300.4635,522.721625 381.9345,577.578358 456.5035,639.999193 C512.3435,684.208657 555.2135,720.064019 574.3645,791.794443 C587.2745,838.258657 587.3135,886.821001 585.4145,934.595315 C585.0445,943.883233 585.0345,953.389829 584.2845,962.737834 C585.4045,969.7316 583.2745,983.96539 575.4145,984.2215 C575.5935,985.915764 576.1545,987.481974 577.0445,988.861026 C576.7945,989.194954 576.5345,989.511151 576.2645,989.836213 C575.8745,987.925241 575.4945,986.024118 575.1335,984.113146 C569.0145,957.004916 568.1945,925.552672 569.2135,896.691076 C569.6435,888.416762 556.9545,888.613769 556.2445,896.691076 C554.3345,918.509655 552.4235,940.328233 550.5145,962.136961 C548.2235,976.272248 551.8345,994.7614 540.5345,1005.50816 C529.0445,994.889455 532.8435,973.94756 533.4045,960.24569 C534.3035,937.895191 535.2745,915.554542 536.1045,893.204044 C536.3645,886.121625 524.6335,884.299305 523.3035,891.499929 C519.5345,912.028108 515.4545,932.497186 511.0635,952.907161 C508.4145,960.79731 506.5935,996.199555 493.3545,990.052921 C485.4635,984.664767 491.1545,953.074617 490.1145,942.61352 C490.6045,921.908034 490.8935,901.232099 492.4145,880.575864 C493.0345,872.242448 479.4635,870.46938 477.6045,878.605789 C474.5845,891.775739 471.6945,904.94569 469.0745,918.204293 C463.3245,940.554792 465.4145,970.854542 444.6545,985.708906 C436.5245,927.650802 448.2235,869.996562 449.8645,812.145315 C448.8835,793.400054 445.6645,774.841949 442.8245,756.323246 C439.6845,735.844318 437.8545,713.552921 445.2045,693.802921 C443.1945,684.957286 435.2945,708.883844 434.5535,710.87362 C428.6045,699.151675 414.1145,698.24544 402.6545,694.590951 C377.1845,686.346188 351.0935,680.130602 325.3245,672.801924 C256.9835,653.820253 188.5635,635.134094 120.1245,616.487335 C92.7845,608.922248 64.0045,599.968258 43.7335,579.302173 M728.0845,888.121251 C718.6545,837.006675 718.9145,785.214393 722.9445,733.53933 C727.3745,653.396687 731.6735,573.234343 736.2745,493.10155 C756.2445,638.138458 777.5345,783.007909 793.8135,928.507784 C794.9735,938.633969 794.7945,949.351176 799.9045,958.383969 C771.6645,962.166512 741.5635,965.978607 714.1045,956.374493 C726.1545,935.540951 730.4045,911.821251 728.0845,888.121251 M115.1435,295.463645 C162.7445,197.738084 259.8035,128.361899 368.6545,113.231724 C368.7745,113.349929 368.9045,113.468133 369.0245,113.596188 C368.6645,113.921251 368.3345,114.275864 368.0345,114.640328 C370.9635,112.483096 374.9835,115.191949 373.6845,118.175627 C375.2945,121.850802 376.4835,125.633345 377.9735,129.337086 C378.6045,129.277984 379.2445,129.218882 379.8835,129.120378 C386.3435,141.945565 389.8435,156.730976 396.5935,169.516762 C433.5345,233.524493 524.6945,259.509779 593.0745,233.671263 C647.3345,210.159405 655.0345,143.206413 650.1735,91.7382082 C649.9235,88.2708766 648.1645,85.8181334 645.8135,84.3701284 C675.4045,89.1081584 704.9945,93.8855898 734.6145,98.3872107 C748.8835,100.554293 763.5445,103.686712 774.5635,113.487834 C817.9345,158.119879 825.6735,278.22549 840.2645,340.667011 C805.3545,344.3215 766.3345,364.219256 741.3135,388.342822 C742.4945,360.91938 740.8035,333.633844 737.6435,306.40741 C737.5935,305.07761 735.3745,304.624493 735.1645,306.082348 C728.9145,333.683096 724.1045,361.520253 722.1245,389.799692 C713.8935,503.602049 709.0045,617.629979 701.9545,731.510153 C699.5445,773.423495 696.5345,815.7013 702.5045,857.466887 C721.7235,943.450802 687.8345,985.649804 596.8745,971.356911 C607.9235,862.392074 599.9145,737.715889 508.6645,662.162535 C505.8835,659.681226 502.5445,659.848682 500.0145,661.326238 C425.8245,598.283844 347.5245,539.890827 264.1845,489.042211 C264.7845,478.532847 238.4945,469.243944 231.1335,461.994069 C258.4635,433.684094 279.2745,399.266887 297.4235,364.652672 C299.0245,360.889829 319.8935,323.024991 313.2535,325.408782 C293.4235,354.792448 273.7045,384.363271 250.3545,411.254792 C251.6245,398.853171 219.4945,390.53847 209.6045,384.874505 C171.3935,368.779979 131.4445,356.18135 90.2745,349.659418 C97.6845,331.210652 105.7845,313.036712 115.1435,295.463645 M623.6245,96.1413254 C622.3745,94.0037943 621.1845,91.8170112 620.0445,89.6006771 C623.9045,89.7484327 627.6645,89.8863379 631.4635,90.5167618 C631.2945,96.6338441 631.6335,102.800178 631.7045,108.966512 C629.8035,104.455041 626.0845,100.337585 623.6245,96.1413254 M1268.4445,957.566388 C1177.2545,891.25367 1027.4735,933.501924 921.8345,940.318383 C901.6945,808.254418 909.9145,674.033221 891.1435,541.752547 C873.8545,409.599929 855.6245,275.605291 812.2045,148.988582 C794.2845,100.032223 763.2845,85.4930711 712.2445,85.887086 C686.3435,84.8724975 658.9545,80.72549 633.7845,81.3165125 C628.2645,81.4051658 622.4945,82.1340935 617.5145,84.3602781 C610.5145,68.5799788 606.7135,51.6373354 604.7945,34.5666372 C604.6735,33.483096 603.2945,33.2860885 602.8835,34.3203778 C596.9635,49.1845923 596.3345,65.4081584 599.5535,80.9717494 C601.8835,92.1223728 615.7545,136.005789 631.8645,118.836587 C633.1435,154.839704 625.2335,197.836587 589.9635,216.522747 C528.3345,243.394567 443.1435,218.926238 407.4445,161.892572 C400.5445,150.49569 394.5935,138.368894 386.9545,127.426113 C440.1845,112.355041 470.0635,48.5738691 457.5245,0.00167456359 C449.7745,37.7778591 435.6435,79.986712 400.4545,101.145315 C272.3135,100.859655 165.7745,159.223121 105.5745,271.63559 C93.7945,287.95766 82.9045,304.920004 72.9235,322.177859 C67.5535,333.722498 51.8245,349.778607 65.1735,360.929231 C49.7545,402.084094 36.0745,443.810278 21.6145,485.290203 C17.6435,499.110278 8.5635,513.610029 10.3745,528.13933 C8.4145,537.09332 8.5045,547.682473 12.9945,556.2917 C17.2545,571.638582 26.8135,592.284966 42.6645,598.796064 C56.1145,611.07948 73.1245,619.540951 90.8645,625.914143 C43.5535,749.556039 25.5445,882.900552 9.5145,1013.53621 C-6.1965,1127.82025 -14.3055,1266.83858 84.1335,1349.43298 C86.0445,1373.06502 100.0635,1403.17761 127.7845,1403.43372 C146.9835,1422.28635 170.3835,1411.94346 191.7545,1402.72449 C227.8245,1389.3664 265.6545,1381.9599 303.2445,1377.8326 C307.2745,1380.98472 313.8345,1380.46166 317.4235,1376.78846 C340.1945,1371.53821 371.7535,1392.79532 376.3545,1373.53783 C405.7135,1370.69108 434.7535,1365.35217 464.0845,1362.23847 C451.7235,1378.27586 452.6145,1401.92563 461.9235,1419.25244 C438.2135,1465.89494 493.4445,1492.90467 527.2135,1512.04394 C572.8035,1538.44196 620.4145,1563.49245 672.5535,1574.43523 C718.3935,1584.07874 766.4145,1581.15417 810.6435,1565.74818 C833.8835,1559.90593 866.3435,1540.72823 852.5535,1513.70866 C870.0345,1462.2897 747.2745,1409.00903 711.1645,1383.25917 C725.9235,1381.41813 726.4635,1350.78347 688.0745,1368.38609 C683.4345,1365.28224 678.8745,1362.08086 674.3645,1358.82138 C829.6435,1340.9725 1126.1945,1291.86838 1238.5745,1185.72075 C1300.3135,1131.13983 1335.9345,1020.73684 1268.4445,957.566388" id="Fill-1" fill="#000000" mask="url(#mask-2)"></path>
        </g>
    </g>
</svg>