<?xml version="1.0" encoding="UTF-8"?>
<svg width="1534px" height="1856px" viewBox="0 0 1534 1856" version="1.1" xmlns="http://www.w3.org/2000/svg" xmlns:xlink="http://www.w3.org/1999/xlink">
    <!-- Generator: Sketch 62 (91390) - https://sketch.com -->
    <title>pose/sitting/wheelchair</title>
    <desc>Created with Sketch.</desc>
    <g id="pose/sitting/wheelchair" stroke="none" stroke-width="1" fill="none" fill-rule="evenodd">
        <path d="M1398.8754,1515.3359 C1377.7604,1511.4779 1370.1584,1536.0289 1369.2494,1551.5509 C1360.7374,1547.7509 1351.8734,1543.4329 1344.1754,1538.4589 C1331.5174,1530.3599 1317.8464,1516.3759 1302.8964,1516.7479 L1302.2134,1512.9519 C1301.4494,1506.2929 1287.8984,1510.7279 1284.2414,1513.0709 C1278.3814,1511.9819 1271.9464,1506.0889 1268.0184,1500.6989 C1283.8334,1494.8489 1290.7674,1494.6179 1288.2684,1474.3139 C1288.2644,1471.1709 1287.4844,1468.2439 1288.3484,1465.4449 C1269.4614,1381.3089 1265.7714,1297.1339 1263.3964,1211.3759 L1273.0964,1209.4229 C1303.8144,1295.3429 1333.0034,1385.5039 1359.1914,1477.3629 C1359.8414,1481.4929 1362.1984,1481.5409 1364.4914,1479.3089 C1372.4384,1479.7299 1380.1194,1479.3869 1388.2154,1478.2169 L1388.1044,1477.8419 C1390.5374,1477.8609 1392.9594,1477.7339 1395.1904,1477.5839 C1397.0984,1489.9059 1399.3054,1502.6059 1398.8754,1515.3359 L1398.8754,1515.3359 Z M1386.1404,1468.4529 C1386.6754,1468.1899 1392.7744,1465.5009 1393.4644,1465.1899 L1393.6134,1466.7049 C1390.9904,1467.7249 1388.3514,1468.7109 1385.6874,1469.6079 L1385.4424,1468.7739 L1386.1404,1468.4529 Z M1125.5754,1652.4639 C1115.2814,1654.9479 1104.3754,1658.0829 1094.2544,1661.0279 L1098.2254,1651.4349 C1075.3994,1590.6149 1057.9554,1526.3809 1045.2604,1463.5919 C1036.2694,1422.7149 1026.9404,1380.4469 1014.4724,1339.9389 C998.7304,1276.3249 964.7584,1210.8699 892.9744,1205.4209 C892.9744,1205.4209 891.7664,1203.3479 891.7684,1203.3479 L890.3534,1202.0279 C886.8494,1157.4159 882.1094,1112.9599 877.5184,1070.2649 C915.9364,1080.8189 949.0174,1077.3859 985.7374,1077.0989 C997.6344,1075.4509 1013.4704,1078.9059 1022.9624,1073.4809 C1022.9624,1073.4789 1029.2344,1067.1099 1029.2344,1067.1099 C1070.9234,1231.9769 1081.7724,1401.8819 1096.6614,1568.8359 C1097.1684,1572.6269 1100.0514,1573.9099 1103.0824,1572.3399 C1106.5834,1576.1789 1113.8714,1574.7019 1118.8594,1575.2599 C1114.6724,1600.2809 1119.6004,1630.1069 1131.7544,1650.9489 L1125.5754,1652.4639 Z M1027.7264,1638.3939 C1002.0414,1616.7679 971.6094,1606.0479 939.8274,1607.2599 C928.6754,1590.7149 912.9124,1570.8829 895.2074,1563.4139 C886.9094,1535.6609 887.9284,1505.2229 889.6834,1479.0869 C893.7854,1452.3839 884.5984,1449.2729 862.8414,1451.2219 C872.1954,1439.9229 871.3594,1437.1949 869.4614,1422.3609 C875.6714,1423.3269 894.4684,1435.6149 897.0444,1426.9279 C900.1644,1410.0059 902.2854,1395.2979 903.5264,1381.9719 C904.1864,1370.5859 896.1314,1358.6159 897.1254,1347.0289 C894.1664,1317.2319 897.2004,1283.8879 883.4844,1256.4389 C939.0604,1263.8729 952.6004,1324.5409 966.9824,1369.2389 C996.5734,1461.3019 1017.2534,1555.3019 1039.2794,1648.1119 L1027.7264,1638.3939 Z M856.5374,1427.6399 C855.2214,1430.5999 855.0294,1433.4249 854.5684,1436.3069 C828.4264,1431.5039 833.0764,1469.9229 830.6334,1490.9449 C825.7204,1489.3109 822.2594,1488.8009 817.1184,1489.8159 C816.3664,1482.8889 820.8754,1479.8109 805.0734,1479.0519 C731.4304,1480.4229 703.4274,1557.4719 678.0934,1616.4229 C666.3314,1644.7729 649.6304,1649.1869 624.8084,1648.6959 C608.1584,1649.0149 591.1314,1653.5279 574.1194,1652.9849 C635.9704,1531.0379 658.4734,1355.8849 633.3574,1203.9569 L633.3734,1203.9569 C631.8464,1194.3359 630.0314,1184.3249 628.1564,1174.6389 C681.1754,1175.1949 742.8534,1176.4689 793.9054,1174.2659 C800.6344,1180.4459 808.9244,1183.2019 817.3834,1183.2649 C817.4224,1190.0089 818.1474,1197.4239 818.7844,1204.1479 C771.0704,1202.9609 718.1264,1203.6939 669.7934,1204.3979 C718.1244,1205.0969 771.3174,1205.9539 818.8524,1204.5829 C818.7734,1217.4689 820.0684,1229.1799 831.5174,1235.4129 C835.8914,1268.0099 830.2404,1302.0639 834.1914,1339.9789 C837.3664,1365.7639 834.7554,1415.1369 858.2884,1423.3319 L856.5374,1427.6399 Z M520.5894,1625.8429 L518.7484,1629.0739 C514.8534,1627.7429 512.4624,1628.0349 508.6674,1630.9859 C481.0574,1645.9159 441.3744,1632.0529 411.1864,1631.0669 C416.9264,1612.2059 417.1484,1582.1339 390.9984,1581.7559 C399.6704,1499.0899 393.8284,1417.0859 395.1664,1334.4879 C442.7844,1325.4109 441.1834,1320.5109 394.9334,1312.0159 C394.6444,1265.8129 394.2964,1219.0709 394.3254,1172.4409 C394.3194,1149.9999 394.1124,1128.1129 392.0624,1106.4089 C396.3694,1097.4989 395.4104,1088.3699 397.6334,1078.9579 C407.0184,1073.7049 423.2784,1079.8189 429.1164,1070.7599 C454.3814,1070.3869 480.1134,1070.1509 505.6314,1068.7939 C507.9464,1068.8649 508.8054,1066.7129 509.8104,1065.1459 C514.2524,1063.9759 521.7444,1066.6499 525.4424,1064.7549 C525.4424,1064.7539 530.4324,1058.3129 530.4324,1058.3129 C551.2164,1100.7529 567.3404,1150.7649 576.8644,1201.4019 C546.8354,1201.7269 512.4574,1201.6379 481.4754,1201.4869 C511.6434,1203.7199 544.2064,1205.0619 577.5714,1205.5329 C603.4574,1334.2939 584.9174,1514.9559 520.5894,1625.8429 L520.5894,1625.8429 Z M479.0464,1686.9129 C416.4894,1765.7289 314.3304,1791.9969 230.4374,1728.6399 C6.5884,1558.3459 16.6314,981.1379 310.6304,901.2939 C302.6514,931.4719 274.9634,1056.7249 325.0134,1060.2959 L324.8584,1059.8899 L327.4084,1058.4809 C337.9164,1062.1169 352.7024,1057.0669 356.1444,1071.6649 C356.2784,1071.6919 361.7964,1072.1739 362.1194,1072.2059 C358.5434,1090.3429 359.5824,1109.1479 358.5124,1127.5729 C354.2874,1125.9609 349.0264,1125.0049 344.4464,1125.3839 C327.1884,1124.5789 327.6224,1105.7179 328.2954,1092.5979 C328.9354,1086.1779 326.9944,1078.8279 327.3154,1072.8029 C327.4864,1068.6179 327.2074,1065.3549 325.6204,1061.8909 C320.3114,1078.8689 315.2924,1101.1279 318.4454,1118.4129 C323.0824,1134.5519 343.6284,1142.2589 358.5004,1134.3529 C357.8524,1192.4459 357.6704,1250.0929 357.3474,1307.6799 C347.5784,1302.5509 338.6654,1305.8019 328.5624,1308.5399 C315.8124,1311.2259 300.6854,1307.4229 287.9004,1310.5079 C286.4264,1304.1919 280.4734,1296.4619 274.2054,1301.5639 C266.2294,1301.6369 261.8454,1309.0349 257.8854,1325.2089 C255.4174,1338.0309 256.8594,1355.1399 269.0384,1361.2989 C275.9174,1365.0099 282.8024,1362.3729 286.1924,1354.7819 C288.1154,1355.5539 291.1814,1357.9039 293.3674,1357.1479 C313.7104,1352.2109 335.6454,1347.2189 357.1654,1342.5649 C358.2864,1423.9139 354.6804,1504.6679 361.3994,1586.2379 C330.6944,1588.8329 272.1954,1580.6079 258.8214,1607.6249 C246.5314,1612.9309 237.7034,1625.1159 237.7374,1637.3859 C237.3344,1657.2719 259.4104,1663.9579 276.6614,1664.1809 C346.4714,1669.4719 415.6224,1678.9019 485.9644,1678.7649 L479.0464,1686.9129 Z M605.5684,1066.7129 C649.9714,1072.7769 694.5634,1072.7329 739.0594,1074.7119 C724.5394,1173.3319 744.8384,1116.0339 789.9794,1171.4659 C738.4004,1171.4049 676.1184,1170.7859 627.6194,1171.9959 C620.0814,1134.8309 609.9074,1099.3479 597.2604,1065.4639 L605.5684,1066.7129 Z M949.3234,566.2759 C968.8984,593.6209 994.6234,617.5019 1023.4854,633.8309 C998.5544,635.6719 973.1734,637.3549 948.5944,640.7999 C945.8464,617.1209 943.0704,593.4349 940.2864,569.7619 L949.3234,566.2759 Z M1797.2954,1601.1279 C1794.9774,1577.8439 1768.6384,1569.2589 1749.3744,1575.6819 C1738.5604,1546.9369 1701.5874,1550.4279 1677.7954,1537.7579 C1630.0324,1514.6279 1581.1524,1469.3819 1525.8674,1487.1869 C1520.9134,1473.5679 1515.3624,1460.4959 1509.3904,1449.0799 C1511.7274,1450.2669 1514.7264,1450.1419 1516.8344,1448.0439 L1516.8514,1448.0599 C1518.9074,1445.7049 1520.9004,1443.0699 1521.1674,1440.1659 C1528.3414,1432.1119 1531.3474,1419.3789 1533.1964,1409.8889 C1524.4374,1379.9289 1513.8034,1351.2279 1504.3304,1321.5829 C1467.5694,1208.5489 1441.7064,1103.5329 1413.9684,995.4339 C1383.1224,915.0499 1374.8444,704.1279 1263.1194,703.7229 C1262.7584,698.1039 1262.5644,691.6289 1260.7754,686.5169 C1257.5824,690.8969 1256.2564,697.3649 1255.8214,702.9239 C1208.0014,702.1639 1166.6684,711.0519 1135.1254,724.7429 C1074.7214,722.0629 1021.7824,725.6659 952.2954,733.8759 C960.7124,719.3509 955.0894,702.9859 954.2944,686.9689 C1055.0424,691.7369 1157.4434,682.4429 1257.7174,676.8869 C1273.8964,675.4739 1291.0684,676.3639 1306.6864,672.2959 C1323.6294,668.3369 1339.7164,647.1139 1322.4374,630.9579 C1310.7464,623.6959 1296.2154,627.6299 1283.4014,626.9859 C1218.4614,626.9819 1152.0064,628.2569 1089.4904,630.5489 C1166.4644,591.3829 1205.2984,509.5889 1251.3304,439.8249 C1274.7094,401.7119 1292.1684,369.6419 1306.2934,338.8609 C1308.7124,333.7409 1309.3884,328.1959 1307.9364,325.3779 C1307.3944,322.5579 1298.6664,322.2459 1296.3044,321.5499 C1360.3184,221.4869 1458.6324,265.5439 1511.2004,207.5649 C1501.2384,208.0159 1491.2864,208.4829 1481.3344,208.9609 L1479.0424,199.4079 C1497.8294,190.9449 1515.6244,177.8039 1535.0684,158.0229 C1535.0594,157.9819 1535.0434,157.9369 1535.0234,157.8929 C1502.7874,167.9769 1472.7384,175.3189 1443.1714,180.3369 L1439.6064,171.2179 C1466.1754,153.9129 1489.8094,130.3779 1507.9644,103.1459 C1474.0994,118.1129 1442.2434,139.3739 1407.0994,152.9969 L1401.8114,144.7139 C1421.8464,125.5519 1466.7524,96.8279 1453.9784,70.0059 C1404.0574,94.0339 1358.5084,125.1359 1310.4274,152.2849 C1310.3854,130.2569 1325.8774,95.6149 1316.4734,77.2489 C1306.5444,64.9959 1301.8574,75.4209 1296.8424,85.2239 C1296.8424,85.2239 1275.9624,120.3289 1270.8504,128.9189 C1251.6804,163.0439 1224.7484,196.7729 1225.3674,237.1169 C1208.7014,229.1119 1195.5984,258.1759 1184.7694,274.0459 C1154.3344,325.7759 1051.3364,406.9869 1028.5944,418.0509 C935.9924,334.1279 949.7924,192.0109 851.3594,112.7469 C819.7924,80.5349 796.4614,76.8029 759.2444,64.9639 C750.3974,62.8389 740.3914,55.3399 732.4744,62.5349 C720.7284,52.7929 709.2954,21.3359 704.4484,7.8969 C701.4504,-5.1041 696.4504,-37.1041 689.4504,-43.1041 C682.4504,-49.1041 568.4504,-54.1041 558.4504,-51.1041 C548.4504,-48.1041 552.4504,-24.1041 552.4504,-24.1041 C552.4504,-24.1041 541.9224,19.4119 541.9224,19.4119 L541.0164,19.1579 C540.8524,19.2209 539.4454,20.3079 539.2684,20.4299 C531.7734,20.3749 524.5724,16.8319 517.3764,16.8359 C509.7914,16.9969 503.6514,22.1719 497.8344,26.6029 C487.4424,34.4599 476.6974,42.5849 464.0644,47.4889 C317.5554,94.2949 298.1984,164.7459 254.3644,300.1049 C218.2924,301.1269 187.9224,296.6199 156.5264,294.8699 C145.4764,296.2739 149.0684,317.7409 149.4054,330.0089 C148.3624,360.1899 170.9214,357.0799 193.2964,356.8099 C208.0944,356.9869 222.9874,358.4609 237.6264,356.7259 C221.8594,429.5179 190.1444,543.3219 224.8504,611.2379 C252.9524,664.4519 276.8024,674.5579 299.5434,676.1109 C305.3694,727.0509 299.5684,772.6689 300.6234,821.9299 C-34.6656,912.2929 -50.0946,1436.8089 99.7764,1692.1979 C220.1154,1900.8829 446.4394,1889.4499 558.6184,1681.7549 C585.7464,1696.5469 639.5324,1695.5259 675.3514,1692.2859 C703.5394,1690.6279 712.7884,1678.6719 722.8574,1652.5009 C734.1074,1627.0489 744.8034,1601.9289 756.2544,1576.4919 C767.1854,1549.5789 789.0264,1518.6519 828.4364,1519.8599 C828.2544,1535.7169 825.3104,1553.5859 836.0384,1566.1769 C796.0624,1579.7659 820.0894,1643.0899 831.7064,1672.6719 C776.8074,1747.5659 795.3044,1878.8329 872.0984,1933.1589 C998.9334,2018.3019 1121.3624,1857.2699 1084.3134,1733.8989 C1090.3854,1736.7709 1101.6584,1740.7479 1106.5084,1734.4779 C1108.4844,1733.0169 1105.7544,1726.5309 1105.2684,1724.4179 C1190.3334,1719.4219 1273.7864,1709.4179 1358.1324,1701.5039 C1355.2664,1779.8569 1432.9704,1857.0829 1510.9394,1855.3429 C1612.6864,1860.0629 1673.6494,1725.9789 1642.8714,1639.1529 C1681.7834,1638.0679 1721.2784,1634.8019 1761.8474,1629.2999 C1784.0304,1627.0869 1798.1664,1621.8329 1797.2954,1601.1279 L1797.2954,1601.1279 Z" id="ðŸŽ¨-Background" fill="#FFFFFF"></path>
        <path d="M548.8321,-20.102 C546.4211,-19.312 546.6911,-24.482 550.0611,-23.961 C552.855837,-23.5252105 553.892358,-19.7686454 554.401003,-17.3847936 L554.4811,-17.001 C559.1531,4.883 553.7701,28.001 542.7921,47.209 C540.0371,51.701 537.1811,57.866 531.7211,59.069 C534.3111,77.579 537.8611,95.938 542.2611,114.098 C557.9511,119.598 572.7211,127.749 588.3811,133.39 C618.5181,144.107 650.7691,146.973 682.4811,149.249 C704.2971,150.438 726.7381,149.476 747.4611,141.998 C756.2261,139.606 763.6561,131.775 772.8511,131.799 C766.6811,114.949 759.8511,98.348 752.2711,82.049 C728.6991,82.042 710.8921,59.168 703.8911,38.839 C701.3411,30.739 700.6011,22.249 698.9811,13.949 L698.379973,10.8493757 C697.85267,8.08784298 697.372009,5.309 697.1611,2.509 C697.0911,1.469 698.6311,-7.661 698.2711,-8.961 C698.2321,-8.582 697.7391,-8.883 697.5111,-8.902 C696.8911,-9.67 697.4311,-11.211 698.6611,-11.152 C700.6511,-11.211 701.6411,-6.881 702.0911,-5.701 C711.6531,13.925 715.2961,38.047 732.3641,52.782 C740.8861,47.404 751.3791,54.446 760.0421,56.605 L762.548896,57.3985986 C803.04436,70.1580104 821.78684,73.25042 854.3101,105.66 C909.8701,149.009 926.2421,204.335 948.1111,268.069 L949.403587,271.531307 C970.427537,327.643008 987.40098,362.4491 1029.2411,408.416 C1044.42473,401.33156 1138.75536,325.879264 1171.13889,281.551632 L1172.1011,280.218 C1181.4281,267.512 1202.6601,223.043 1220.0421,227.268 C1221.6031,188.172 1247.6031,155.81 1265.9411,122.879 L1291.9711,79.119 L1291.9711,79.119 C1294.4811,74.898 1296.8811,69.079 1300.4411,65.648 C1306.4911,59.819 1316.5421,65.179 1320.1621,71.089 C1330.1211,87.87 1317.5871,119.944 1315.7411,139.549 C1360.3711,113.697 1403.8151,85.418 1449.9411,62.259 C1453.8211,60.389 1458.6611,61.819 1459.8931,66.309 C1467.6871,98.543 1425.1831,125.523 1404.6611,144.808 C1438.23501,131.314848 1469.72938,112.107483 1502.22332,96.0263472 L1504.3911,94.959 C1508.8011,92.669 1514.7711,97.539 1511.6511,102.219 C1493.2611,129.848 1469.4911,153.799 1441.7611,171.859 C1472.7011,166.609 1503.1411,158.909 1533.1911,149.499 C1538.0821,147.969 1541.5711,154.459 1538.1011,157.938 L1536.46403,159.593014 C1520.03719,176.084661 1501.90916,190.785129 1480.5211,200.419 C1490.5111,199.938 1500.5021,199.469 1510.5021,199.018 C1515.4611,198.799 1517.1111,204.879 1514.2921,208.169 C1503.1811,221.098 1488.2311,229.489 1472.2731,235.002 C1405.4981,252.961 1349.4381,251.422 1304.3911,314.478 C1315.66306,316.50758 1314.0186,329.087154 1310.4612,336.972235 L1310.2411,337.449 C1294.1561,372.501 1275.1211,406.125 1254.9641,438.981 C1211.7941,503.122 1176.3351,580.211 1108.0011,621.348 C1152.1231,619.846 1196.2661,618.981 1240.4211,618.619 C1252.6531,618.515 1264.88574,618.4558 1277.118,618.4414 L1286.2921,618.439 C1298.4211,618.439 1314.4311,615.889 1324.8911,623.428 C1344.9881,639.596 1329.3091,669.402 1307.0511,673.659 C1293.0291,677.427 1277.8771,676.859 1263.4911,677.959 C1266.2331,683.256 1266.9091,689.783 1267.2611,695.459 C1317.8061,698.61 1347.3101,738.273 1361.0921,783.619 C1388.7281,870.451 1409.8971,959.221 1432.8121,1047.389 L1435.40848,1057.6147 C1457.5206,1144.5239 1480.76902,1231.18332 1508.5111,1316.489 C1517.9511,1346.029 1528.7311,1375.169 1537.4211,1404.939 C1538.1961,1407.588 1537.6221,1410.008 1536.2971,1411.935 C1534.6571,1423.559 1527.2351,1443.072 1514.7421,1446.154 C1519.8661,1456.23 1524.4741,1467.145 1528.3911,1477.639 C1584.7521,1462.639 1632.0841,1506.931 1679.4611,1529.738 C1703.3191,1542.23 1738.1031,1538.731 1751.5211,1566.299 C1773.1541,1560.885 1799.5081,1572.93 1801.7011,1597.129 C1803.6111,1622.044 1782.4201,1629.248 1761.6311,1630.738 C1724.2451,1635.821 1686.6421,1639.15 1648.9311,1640.389 C1670.2301,1712.22 1634.9291,1816.792 1562.1331,1846.326 C1466.3781,1886.741 1355.1421,1804.014 1352.6911,1703.439 C1272.2711,1711.058 1191.8391,1720.556 1111.2411,1725.478 C1114.5771,1736.962 1099.3611,1741.724 1090.6211,1738.359 C1111.9241,1835.144 1049.0231,1958.023 944.3051,1957.63089 C809.3671,1956.722 754.8251,1768.928 825.5011,1668.439 L824.825726,1666.69834 C813.583149,1637.6299 792.43324,1577.8166 828.1611,1560.598 C820.6201,1549.073 822.5111,1534.575 822.7611,1521.549 C789.6621,1523.048 772.5581,1546.849 760.2611,1574.949 C748.9261,1600.108 738.1251,1625.508 726.9501,1650.748 C716.4241,1678.107 706.0371,1691.908 675.0711,1693.73 L671.898245,1693.96347 C637.341707,1696.47108 591.40757,1698.53743 560.2211,1684.648 C486.2141,1820.076 330.9311,1900.407 196.5291,1803.324 C-79.3709,1612.832 -69.2059,898.952 295.0911,814.398 C295.2391,800.791 295.4331,787.189 295.6711,773.579 C294.8911,764.909 295.0611,756.259 295.8421,747.469 L296.010541,743.873667 C297.009991,721.68913 297.243254,699.269051 294.5081,677.218 C250.3011,673.629 223.5251,617.046 219.0661,608.483 C184.9871,543.046 216.5091,421.962 230.6911,358.699 C216.933636,359.7925 204.358937,358.115986 190.910115,358.272798 L186.245616,358.352026 C161.251106,358.740962 144.46374,357.69268 143.8311,326.509 C143.8621,313.846 138.2331,290.37 154.8811,286.438 C162.4011,284.929 171.2811,287.598 178.8111,288.34 C202.5831,290.265 226.3861,291.727 250.2311,291.579 C270.9181,232.268 287.1121,168.801 326.5111,118.589 C359.9781,76.105 413.5081,59.375 461.6311,39.299 C474.6921,34.24 485.7211,25.477 496.9721,17.007 L497.748594,16.4037251 C503.335658,12.1094193 509.410656,8.48493333 516.6681,8.29 C523.7231,8.101 530.2851,11.301 537.1891,11.768 C538.4051,10.861 539.9901,10.292 541.3651,10.677 C545.0411,0.502 547.7611,-10.072 549.1011,-20.791 L548.987281,-21.2844665 C548.780692,-22.1010612 548.7011,-21.8948571 548.7611,-20.652 C549.0821,-20.652 549.1311,-20.201 548.8321,-20.102 Z M944.3011,1618.629 C929.1011,1618.629 914.5111,1621.859 900.9411,1627.759 C897.7891,1645.269 912.1861,1669.829 917.0241,1687.465 C917.2201,1694.751 918.5441,1702.178 920.2471,1709.382 C921.4541,1730.409 930.3481,1749.689 934.4731,1769.59 C935.2391,1773.371 941.0241,1771.771 940.2581,1767.995 C936.6421,1750.15 931.8091,1732.59 927.6491,1714.871 C929.6031,1716.049 932.9121,1714.46 932.1941,1711.547 C930.6511,1705.279 930.6531,1698.94 930.9001,1692.581 C1033.8201,1705.59 1027.8011,1876.764 922.8041,1879.127 C854.6661,1880.833 816.6951,1787.368 855.2111,1731.409 C848.8881,1717.809 842.0391,1704.45 835.5611,1690.818 C780.3881,1783.156 838.1691,1940.515 944.3011,1937.629 C1115.4491,1932.791 1115.5261,1623.508 944.3011,1618.629 Z M1562.2211,1638.749 C1582.5361,1676.643 1580.3681,1727.558 1554.6021,1762.487 C1525.4581,1802.191 1461.8551,1797.543 1433.3011,1759.439 C1422.0151,1745.857 1413.3201,1729.221 1412.8111,1711.259 C1412.7711,1707.299 1415.3321,1700.289 1411.8811,1697.179 L1389.81396,1699.54212 C1378.77982,1700.71944 1367.7451,1701.8856 1356.7111,1703.019 C1388.6861,1788.515 1467.2691,1865.936 1563.2141,1823.12 C1622.6731,1790.303 1644.7041,1711.92 1636.0311,1647.959 C1635.5421,1644.898 1636.6511,1642.389 1638.4511,1640.699 C1613.0411,1641.285 1587.5251,1641.412 1562.2211,1638.749 Z M519.9041,989.91 C350.3171,721.549 126.9241,895.295 69.7401,1141.599 C26.7961,1311.189 42.0371,1518.229 131.7021,1668.346 C237.0001,1847.118 414.7091,1846.908 519.9011,1668.348 C599.51456,1535.08238 620.454761,1356.89402 594.090466,1199.92305 C594.099267,1201.33037 593.607592,1202.73968 592.5915,1203.8693 C623.5785,1392.2993 588.7105,1625.4563 439.3625,1739.9453 C329.1125,1821.3533 200.1985,1754.7913 138.3075,1643.2683 C18.5195,1441.0663 27.7455,1070.2973 224.2415,918.3083 C280.3325,878.3063 346.2085,870.7113 406.9615,899.3083 C407.5815,895.5313 409.9215,899.6963 410.8315,901.1893 C515.3585,956.7143 567.0225,1075.9713 590.9115,1194.6783 C592.353243,1195.47995 593.315514,1196.70666 593.775384,1198.06633 C590.504866,1178.88133 586.526271,1160.01886 581.8611,1141.599 C567.2521,1084.639 546.4011,1033.609 519.9041,989.91 Z M904.1161,1779.732 C895.0741,1773.956 899.3771,1791.279 902.5191,1794.499 C904.7781,1797.685 909.2561,1794.991 907.7001,1791.471 C905.7711,1788.65 909.2021,1780.064 904.1161,1779.732 Z M303.0515,904.9093 C49.3525,976.2153 32.7425,1444.8623 155.4725,1632.9963 C211.9715,1734.3243 326.7535,1798.1313 427.8215,1723.6193 C444.3815,1711.9093 460.0315,1697.3593 474.6615,1680.1293 C409.6835,1679.5973 344.8315,1670.8873 279.9915,1665.9883 L278.520708,1665.85669 C268.701684,1665.00225 258.629167,1664.53735 249.5825,1660.2983 C222.1565,1646.8553 229.6305,1612.3523 254.5515,1600.3083 C268.2025,1573.3943 328.4805,1579.3963 355.4415,1577.9683 C349.3895,1500.5923 352.5365,1422.7613 351.6615,1345.2093 C332.3815,1349.4093 313.1615,1353.8083 293.9715,1358.4593 C291.6915,1359.0183 289.3815,1358.6893 287.4315,1357.7183 C282.7495,1365.1163 273.5645,1365.9473 266.2015,1362.2093 C251.3115,1354.6783 249.6115,1335.0893 252.4215,1320.6183 L252.715853,1319.3673 C255.170246,1309.13915 260.07838,1293.89842 272.0515,1293.1093 C279.6025,1288.4043 287.8165,1293.9603 290.5715,1301.3483 C303.2135,1299.2363 314.6745,1302.5683 327.0015,1300.0893 C335.1705,1298.4363 343.4105,1294.2533 351.8115,1297.1383 C352.1025,1244.0203 352.2865,1190.8953 352.8515,1137.7793 C337.0065,1143.0903 317.6705,1132.1113 313.0715,1116.2583 C309.9615,1105.7093 312.7115,1093.6093 314.1715,1083.0183 L314.446812,1081.03611 C315.385054,1074.39599 316.556955,1067.45466 318.8115,1061.0183 C283.1305,1056.0893 290.4305,981.2853 293.1405,954.8583 C296.4625,937.5253 298.5345,922.4693 303.0515,904.9093 Z M892.2321,1206.50109 C876.3861,1206.354 865.0631,1223.516 874.2111,1237.18 C892.6201,1257.974 919.2271,1239.229 947.7541,1295.288 C995.0871,1407.474 1016.9241,1528.828 1046.3811,1646.558 C1061.1941,1661.967 1070.1941,1681.557 1081.0711,1699.859 C1085.0851,1706.743 1086.3111,1716.453 1093.6011,1720.808 C1095.0111,1721.469 1096.1411,1721.579 1097.2511,1721.409 C1082.1251,1713.02 1085.2941,1671.594 1088.4111,1656.529 L1088.2762,1656.53489 C1086.90202,1656.62746 1081.87785,1657.72554 1084.1811,1655.348 L1086.6311,1654.55975 L1086.6311,1654.55975 L1089.0811,1653.779 L1089.2511,1653.169 C1046.6921,1554.318 1037.4411,1443.953 1006.9421,1341.009 L1004.22164,1331.87423 C993.684135,1296.6866 981.51938,1259.8884 954.8541,1233.765 C953.8371,1233.706 952.7981,1233.331 951.8441,1232.527 L950.885035,1231.68975 C935.146586,1218.06677 915.80562,1207.07056 894.2711,1209.058 C893.4111,1209.119 893.2711,1207.799 894.0711,1207.589 C894.5751,1207.455 895.0821,1207.355 895.5881,1207.24 C894.4651,1207.016 893.3461,1206.767 892.2321,1206.50109 Z M816.5411,1485.869 C812.0011,1487.679 807.3811,1486.409 802.2511,1486.529 C796.8811,1486.659 791.6611,1487.549 786.5031,1489.021 C701.7361,1513.555 714.2341,1641.004 652.5111,1655.789 C637.0841,1658.788 621.5541,1656.476 606.0821,1654.399 C596.2101,1654.752 587.1401,1654.449 577.6911,1652.409 C573.2521,1661.329 568.6011,1670.029 563.7611,1678.529 C575.0091,1676.769 586.4661,1677.227 597.8321,1677.028 C624.5621,1677.448 651.2901,1676.354 677.8311,1673.019 C687.2811,1671.949 696.0011,1669.318 701.5931,1661.119 C714.2131,1639.78 722.8511,1616.059 734.2021,1594 L735.694914,1590.63061 C751.940363,1554.07366 773.43276,1510.20567 819.1411,1510.098 C819.4011,1507.459 821.4611,1505.339 823.8011,1504.689 C824.0611,1500.889 824.3211,1497.089 824.6011,1493.279 C821.9601,1490.744 820.0141,1487.473 816.5411,1485.869 Z M252.3515,1610.2793 C247.4035,1618.6003 247.9155,1633.2013 256.7815,1638.9683 C262.7915,1642.3883 271.3615,1642.0083 278.0215,1642.4883 L289.49286,1643.33212 C293.31622,1643.61371 297.13894,1643.89904 300.96038,1644.19841 L306.6915,1644.6593 C361.3705,1649.0213 415.9945,1653.7823 470.6015,1658.7493 L470.848991,1658.65761 C471.608675,1658.38277 472.8015,1657.9993 472.8015,1657.9993 L473.650158,1657.60805 C474.863297,1657.0256 473.394033,1657.55595 473.250322,1657.62468 L473.2415,1657.6293 C479.3315,1653.7093 485.8915,1658.1993 487.3315,1664.1483 C492.7915,1656.8293 498.0815,1649.1193 503.2015,1640.9993 C496.0055,1643.1063 488.3615,1643.4203 480.9215,1642.9493 C475.8055,1648.7643 466.6175,1646.6303 459.7815,1646.4993 C411.4745,1642.6363 363.2965,1637.0613 315.1415,1631.6593 C302.9115,1630.2283 290.6715,1628.7893 278.4415,1627.3483 L275.680736,1627.09808 C264.867622,1626.07401 251.86206,1623.9965 252.3515,1610.2793 Z M1303.9311,1515.558 C1298.8611,1521.079 1289.1511,1522.579 1282.6811,1525.799 C1275.2111,1529.529 1268.0821,1534.049 1261.6801,1539.417 C1232.6941,1566.28 1203.1901,1609.006 1157.8111,1590.129 C1148.2771,1586.438 1139.3901,1580.561 1133.4301,1572.136 C1130.7781,1573.445 1127.7041,1570.939 1125.0171,1570.596 C1127.3421,1583.129 1128.3211,1595.033 1131.8511,1607.269 C1133.3811,1612.629 1135.1111,1617.939 1137.2411,1623.089 C1139.4341,1628.361 1143.3891,1633.694 1143.2411,1639.598 C1177.6221,1632.253 1212.3791,1627.529 1247.2311,1623.258 C1260.3171,1622.779 1282.4191,1615.75 1293.2511,1622.43 C1306.0861,1630.423 1300.3291,1645.209 1307.1711,1650.7 C1317.6171,1655.804 1331.1141,1651.954 1342.4211,1651.648 C1391.6791,1647.46 1441.3941,1644.686 1490.5711,1640.558 C1520.1061,1635.139 1500.7831,1626.074 1513.5021,1618.818 C1513.4541,1573.39 1458.8641,1578.181 1426.8421,1574.166 C1417.1861,1578.021 1407.4231,1581.582 1397.5431,1584.824 C1392.6691,1586.424 1389.3031,1579.898 1392.6781,1576.468 L1399.5411,1569.493 L1399.5411,1569.493 C1394.8581,1568.434 1390.2061,1567.246 1385.6031,1565.878 C1379.1231,1568.82012 1372.31269,1571.01284 1365.96723,1574.2628 L1364.7831,1574.885 C1360.4541,1577.22 1355.3521,1572.465 1357.9421,1568.044 C1359.9491,1564.62 1361.5391,1561.11 1362.7761,1557.453 C1356.71516,1554.70987 1350.83089,1551.57739 1345.23368,1548.00694 L1344.1181,1547.287 L1325.9361,1557.445 C1322.3771,1559.433 1317.0221,1556.078 1318.5911,1551.8 C1320.4541,1545.896 1325.9621,1543.395 1330.1511,1539.437 C1329.6821,1538.425 1329.4061,1537.084 1329.6321,1536.056 C1321.4481,1528.894 1314.3071,1519.75 1303.9311,1515.558 Z M1546.2311,1652.459 L1545.6511,1652.549 C1545.6911,1652.619 1545.7211,1652.679 1545.7611,1652.738 L1546.0111,1652.709 L1545.7711,1652.749 C1545.9311,1652.988 1546.1511,1653.169 1546.4311,1653.238 C1546.37443,1653.06533 1546.32399,1652.894 1546.28362,1652.72074 L1546.2311,1652.459 Z M882.6811,1073.308 L884.144346,1086.97906 C888.026014,1123.4116 891.719544,1159.67156 894.6111,1196.148 C894.9941,1196.506 895.3081,1196.923 895.5691,1197.372 L904.173593,1198.92747 C919.191595,1201.67033 931.635022,1204.51173 945.2521,1214.829 C990.6241,1239.106 1005.8281,1292.567 1019.7411,1338.43 C1050.2431,1438.996 1060.7391,1545.197 1101.9711,1642.449 C1103.1811,1645.259 1103.1111,1647.769 1102.2711,1649.799 C1109.4111,1647.738 1116.5911,1645.829 1123.8111,1644.058 C1114.1091,1625.372 1109.9211,1597.39 1112.6241,1576.498 L1111.56777,1576.46598 C1108.19861,1576.38231 1104.13071,1576.37074 1101.4391,1574.287 C1096.12741,1575.78128 1091.62774,1570.71644 1091.12405,1565.90776 L1091.1031,1565.679 C1076.4091,1400.927 1065.7421,1234.496 1025.9511,1073.439 C1020.77552,1078.69416 1011.42826,1077.48524 1004.47146,1077.79017 L1004.1011,1077.808 C997.8311,1078.109 991.5511,1078.348 985.2711,1078.55 L982.546826,1078.58468 C949.373511,1079.06228 915.203087,1081.45967 882.6811,1073.308 Z M638.6511,1205.469 C661.5671,1349.643 641.2971,1522.711 581.6511,1644.269 C596.0741,1643.973 610.1071,1640.1 624.5011,1640.148 C650.1151,1640.568 662.6141,1635.335 672.9131,1610.93 C697.6531,1554.506 722.3661,1482.041 792.1421,1471.328 L795.407824,1471.01593 C805.15296,1470.10008 821.53576,1469.10413 821.5411,1480.659 C822.8041,1480.514 824.2471,1480.648 825.5411,1480.999 C825.7511,1478.299 825.9611,1475.598 826.1811,1472.909 L826.364325,1467.58844 C826.97232,1450.78663 828.7698,1427.5309 849.7011,1427.719 C849.9811,1425.869 850.5911,1424.029 851.3311,1422.209 C830.2571,1411.806 830.9961,1358.38 828.6311,1336.859 C826.7031,1306.239 826.8551,1275.51 827.5511,1244.849 C827.6311,1241.808 828.2111,1237.759 827.0311,1235.279 C816.1641,1228.16 813.7821,1218.871 813.4211,1206.159 C755.2391,1207.631 696.8761,1206.064 638.6511,1205.469 Z M891.6011,1260.169 C896.6831,1271.645 897.0311,1284.888 898.5011,1297.249 C899.7211,1311.959 900.5811,1326.669 901.4411,1341.398 L901.629964,1344.77266 C901.926087,1349.91406 902.348243,1354.90864 904.2211,1359.829 L904.653737,1360.97754 C906.857914,1366.88269 908.541706,1372.36961 907.9311,1378.889 C906.5111,1394.129 904.1111,1409.549 901.3321,1424.589 C897.4441,1437.34 882.9661,1429.212 874.7311,1426.239 L874.820041,1427.08606 C875.371032,1432.59301 875.350685,1438.09895 872.2811,1442.349 C895.0191,1441.615 896.6421,1457.976 894.0611,1476.238 L893.909708,1478.6461 C892.325757,1504.3723 891.797948,1531.33658 898.8011,1556.219 C910.6181,1561.318 919.1971,1570.904 927.4211,1580.398 C932.2611,1586.029 938.3111,1592.009 942.1211,1598.659 C974.2011,1598.085 1004.7841,1609.492 1030.3711,1631.019 L1027.34794,1618.18421 C1007.55695,1534.03225 988.179761,1449.66677 961.6821,1367.318 C948.2711,1328.358 937.8111,1271.496 891.6011,1260.169 Z M398.7715,1194.2393 C398.8415,1230.8693 399.1015,1267.4893 399.3315,1304.1193 C410.3215,1305.6693 420.9315,1308.8483 431.1615,1313.4283 C437.6515,1316.3293 434.6715,1325.1293 429.3715,1327.1383 C419.7115,1330.7983 409.6115,1332.9093 399.5215,1335.0183 C398.4815,1414.6323 403.7575,1494.6393 395.8715,1573.9683 C419.5825,1577.5223 421.3075,1604.2663 416.8215,1623.0483 C443.0765,1625.3663 469.5425,1631.9983 495.8705,1627.3583 C503.6275,1626.9353 508.5675,1618.1833 515.6715,1619.8183 C577.6945,1510.9633 597.9305,1341.3673 572.8315,1206.9193 C514.6985,1205.9793 456.3495,1202.3973 398.7715,1194.2393 Z M382.8715,1338.5293 C377.3715,1339.6893 371.8815,1340.8593 366.3815,1342.0293 C365.5675,1420.7123 368.8805,1499.7373 362.6715,1578.2283 C364.9955,1578.1073 364.5125,1579.6443 362.5315,1579.7793 C362.4115,1581.1193 362.2815,1582.4593 362.1515,1583.7983 C361.7815,1587.7793 356.3415,1587.7693 355.9715,1583.7983 C355.8915,1582.9883 355.8215,1582.1893 355.7515,1581.3793 C345.2715,1583.6783 334.6315,1585.3083 324.0705,1587.0783 C308.5115,1590.9223 271.1185,1588.4203 268.3215,1608.6783 L280.420562,1609.73086 C321.244985,1613.30259 357.111744,1616.65981 397.5915,1620.9393 C399.6115,1608.4993 409.2345,1590.1253 394.0615,1582.2283 C391.8715,1584.3083 387.6515,1583.3793 387.2905,1579.4283 C378.9235,1499.4583 384.0345,1418.8063 382.8715,1338.5293 Z M1585.8341,1500.59 C1537.4771,1481.246 1512.3331,1503.793 1473.5911,1528.558 C1453.5801,1539.879 1426.2831,1544.797 1406.1411,1531.639 C1396.8911,1532.178 1392.5681,1522.007 1393.3321,1513.898 C1393.3211,1513.339 1393.3111,1512.789 1393.3111,1512.238 C1382.0461,1519.025 1389.0211,1537.86 1386.6221,1548.978 C1409.6101,1556.197 1433.5351,1557.965 1457.4111,1559.69 C1488.34959,1560.37904 1525.65873,1575.59316 1529.29137,1610.16543 L1529.3911,1611.219 L1531.7611,1611.148 C1531.7611,1607.65335 1533.96626,1604.05133 1538.34843,1603.69998 L1538.6311,1603.682 C1602.5481,1599.652 1667.1351,1599.864 1730.7311,1593.369 C1738.3721,1591.199 1741.1011,1586.159 1739.0511,1578.679 C1734.1221,1560.669 1708.8811,1559.789 1694.0111,1555.598 C1676.0971,1550.551 1660.0161,1541.707 1644.2461,1532.219 C1637.5231,1534.104 1630.7271,1535.688 1623.8721,1537.019 C1620.5461,1537.666 1616.1931,1534.727 1617.7211,1530.869 L1618.83187,1528.05254 C1619.95326,1525.24772 1621.32599,1522.05389 1623.0701,1519.346 C1617.9341,1516.277 1612.7581,1513.291 1607.4911,1510.494 C1598.5641,1513.655 1590.1071,1517.796 1582.0761,1522.916 C1577.22288,1526.01043 1572.26313,1519.19303 1575.88867,1515.19957 L1576.0171,1515.063 C1580.2081,1510.759 1583.4601,1505.919 1585.8341,1500.59 Z M1264.7111,1506.509 C1221.6101,1527.578 1175.8861,1543.291 1131.7981,1562.338 L1132.68758,1562.66916 C1134.23207,1563.25525 1135.99277,1564.03983 1136.5611,1565.439 C1153.1431,1578.577 1176.4601,1583.932 1196.1421,1574.599 C1224.5341,1559.365 1238.6201,1526.551 1267.6611,1511.728 C1266.4711,1510.079 1265.4711,1508.318 1264.7111,1506.509 Z M854.9611,1448.359 C853.5411,1448.119 849.3511,1446.279 848.2311,1446.768 C845.3731,1453.906 845.2861,1462.35 844.5001,1469.969 C841.8411,1499.688 836.3771,1529.076 833.3511,1558.699 C848.3251,1554.582 863.7221,1552.135 879.1311,1551.799 C877.8781,1542.613 876.8641,1533.481 876.3311,1524.238 C875.3411,1506.254 876.0671,1488.127 878.7611,1470.309 L878.946198,1469.34155 C881.863583,1453.84462 879.54506,1453.14956 864.9411,1447.689 C861.8011,1448.759 858.3011,1448.939 854.9611,1448.359 Z M1183.9811,747.328 C1159.0241,723.482 1121.8161,726.379 1089.7911,726.249 C1021.5111,726.234 953.3801,732.449 886.0411,743.469 C884.1351,746.822 878.7791,747.58 876.1911,745.089 C857.6511,748.189 839.1711,751.589 820.7311,755.219 C825.8311,787.479 829.9021,819.918 834.4511,852.259 L834.743485,854.252047 C836.748774,868.287461 837.733691,883.996545 828.1911,895.579 C827.9211,931.413 826.5551,967.375 826.4211,1003.259 C831.6751,998.256 840.1521,998.829 846.9111,997.589 C860.7551,994.407 873.9351,992.109 887.9711,991.329 C902.1011,989.169 916.2311,987.009 930.3711,984.859 C932.5511,984.518 934.3011,985.459 935.3911,986.869 C953.4811,984.736 971.4971,981.097 989.6571,979.92 L988.580937,976.693468 C983.212952,960.464566 978.3076,942.855562 986.0251,926.724 C987.8571,922.945 993.8431,923.166 995.7391,926.724 C1002.3931,939.207 1002.6781,953.437 1005.2341,967.081 C1006.7011,974.907 1009.7371,983.228 1011.1511,991.48 C1018.6531,1003.892 1022.3991,1018.447 1027.2831,1032.049 C1080.6461,1200.497 1087.0661,1378.852 1107.1611,1553.238 C1138.3311,1540.299 1169.8911,1528.179 1201.1721,1515.53 C1223.6461,1504.538 1274.6381,1495.925 1272.1271,1464.189 C1272.2441,1461.584 1272.0921,1459.004 1271.7951,1456.435 C1272.4071,1455.418 1273.2651,1454.57 1274.2711,1453.919 C1263.9501,1413.311 1259.5801,1371.379 1256.9411,1329.648 C1250.0801,1214.941 1246.6911,1100.021 1243.1931,985.168 L1243.0286,980.304674 C1240.38616,900.642081 1239.53534,810.0578 1183.9811,747.328 Z M1267.8151,1207.56 C1271.9038,1284.09294 1270.09328,1361.70497 1288.38076,1436.63909 L1288.9411,1438.909 C1290.7091,1446.099 1295.4071,1456.224 1292.4231,1463.742 C1292.3151,1472.931 1295.5521,1487.254 1287.6551,1493.748 C1284.2801,1496.211 1279.9361,1497.738 1275.8651,1499.291 C1277.8401,1501.594 1280.6041,1503.18 1283.3321,1504.119 L1283.78829,1503.90026 C1291.35875,1500.34921 1304.6599,1497.93892 1306.5611,1508.519 C1320.8811,1509.648 1334.7311,1523.359 1346.2811,1530.689 C1352.1911,1534.439 1358.3111,1537.738 1364.6011,1540.629 C1366.5981,1525.428 1375.4901,1506.162 1393.3011,1506.648 C1393.3011,1497.452 1391.7361,1488.379 1390.3601,1479.312 C1382.0801,1480.636 1373.8101,1481.188 1365.4371,1480.83 C1359.8801,1484.84 1354.3761,1480.424 1353.6531,1474.412 C1327.9881,1385.111 1299.3051,1295.444 1267.8151,1207.56 Z M1500.6221,1440.099 C1466.4361,1450.828 1428.9121,1451.061 1396.0911,1465.848 C1405.9421,1479.979 1409.7351,1497.057 1412.1411,1513.839 C1414.3911,1515.598 1415.9011,1518.379 1416.0211,1521.389 C1416.0821,1522.444 1415.9851,1523.507 1415.6711,1524.509 C1452.1911,1532.153 1478.9751,1501.189 1508.3511,1485.539 C1504.3461,1470.902 1502.4241,1455.234 1500.6221,1440.099 Z M1412.2411,1515.199 L1412.2521,1515.409 L1412.2521,1515.409 C1412.2011,1517.109 1413.5311,1516.568 1412.2411,1515.199 Z M1388.5911,1469.018 C1388.0331,1469.265 1387.4801,1469.533 1386.9221,1469.785 C1387.4991,1469.699 1388.0761,1469.617 1388.6521,1469.521 C1388.6321,1469.353 1388.6081,1469.185 1388.5911,1469.018 Z M1303.6611,727.589 C1263.8051,700.626 1184.3111,713.223 1137.0811,716.398 C1230.3891,723.469 1245.8321,851.653 1253.2421,925.429 C1259.2011,1004.679 1261.4161,1084.209 1265.7731,1163.568 C1302.9311,1262.832 1333.0851,1364.648 1364.8611,1465.739 C1390.6711,1451.268 1418.8911,1442.068 1448.1111,1437.298 L1452.32573,1436.68704 C1476.7997,1433.10307 1501.68169,1428.62601 1521.8411,1413.349 C1449.6591,1237.047 1419.4451,1046.727 1364.5641,864.797 C1348.4481,819.273 1343.1251,759.544 1303.6611,727.589 Z M1516.9111,1432.838 C1515.5401,1433.653 1514.1291,1434.416 1512.6911,1435.131 C1513.4491,1434.961 1514.2551,1434.933 1515.0671,1435.049 C1515.6921,1434.336 1516.3621,1433.52 1516.9111,1432.838 Z M861.5221,1052.068 C854.9321,1041.031 840.3691,1031.029 827.4521,1035.823 C846.9091,1047.706 842.6821,1082.058 844.1131,1102.149 L844.081264,1103.28282 C843.605769,1122.23817 845.21438,1162.24988 834.7911,1175.768 C835.5201,1184.485 835.5331,1193.517 836.4211,1202.289 C836.6911,1205.499 836.0611,1211.499 837.9511,1214.339 C858.8161,1226.032 848.6971,1254.074 849.9421,1273.539 C848.9961,1310.802 851.6011,1347.996 852.6821,1385.219 C852.6131,1394.844 851.6781,1405.106 854.8811,1414.318 C858.9811,1405.558 870.6611,1406.148 873.2011,1415.018 C875.2471,1412.33 879.3611,1412.119 882.8811,1412.599 C884.1211,1400.789 886.0311,1388.989 886.4411,1377.169 C886.6411,1371.289 883.1811,1366.449 881.9101,1360.829 C879.3551,1339.504 882.2631,1317.714 882.5211,1296.268 L882.583106,1295.62784 C883.404366,1286.75916 884.044271,1264.80949 889.0511,1259.429 C856.6491,1253.604 846.3981,1212.798 878.0211,1197.728 C877.5881,1195.736 878.0031,1193.635 879.3711,1192.129 C876.6781,1159.846 873.1961,1127.603 870.1411,1095.339 C868.8311,1080.808 868.8811,1065.109 861.5221,1052.068 Z M273.9065,1327.1373 C276.3545,1323.8203 271.0715,1320.2403 268.9205,1323.7593 C266.7005,1327.5163 265.4095,1332.1113 266.3145,1336.4393 C266.8155,1338.8363 270.7415,1339.5043 271.7975,1337.1553 C272.7055,1335.2253 273.0265,1333.1563 273.4775,1331.0903 C274.6885,1330.1523 274.7025,1328.3823 273.9065,1327.1373 Z M292.3515,1307.6483 C292.4515,1308.2183 292.5415,1308.7983 292.6215,1309.3793 C293.5215,1309.0483 294.4515,1308.7793 295.4115,1308.5393 C294.3915,1308.2583 293.3715,1307.9593 292.3515,1307.6483 Z M370.9315,1070.0293 C368.4715,1071.5683 365.5615,1072.5393 362.5115,1072.9893 C368.0765,1149.2503 364.9235,1226.0483 366.2615,1302.4993 C371.7465,1303.7593 377.4675,1302.7063 383.0315,1303.1383 C384.3925,1236.4143 381.8465,1169.7423 386.1215,1103.0683 C382.3885,1093.5263 380.0035,1081.9423 382.7715,1071.7793 C378.7715,1071.3883 374.8115,1070.8183 370.9315,1070.0293 Z M791.6211,1175.789 C742.2871,1177.722 692.6151,1176.869 643.2111,1176.259 C640.0911,1176.169 636.8811,1176.148 633.6311,1176.129 C634.9011,1182.799 636.0911,1189.518 637.1911,1196.268 C695.6701,1195.593 754.2771,1194.216 812.7211,1195.478 L812.472506,1192.74405 C812.22735,1189.98587 812.0061,1187.164 811.9311,1184.359 C804.6701,1183.806 797.5711,1180.695 791.6211,1175.789 Z M528.8215,1064.2683 C525.2305,1068.9043 517.3635,1065.9293 512.1515,1066.3693 C510.8215,1068.4993 508.5415,1070.0683 505.3215,1070.2393 C480.5315,1071.5583 455.6915,1071.8183 430.8615,1072.1783 C423.6175,1080.5783 410.7445,1075.7323 401.4215,1079.1383 C400.2785,1084.9473 400.2195,1090.9753 398.9015,1096.8083 C398.3415,1099.1893 397.5115,1101.4393 396.5815,1103.6483 C398.6015,1125.7183 398.7515,1148.0893 398.7515,1170.2183 C411.0225,1166.6373 424.2955,1167.2433 436.9715,1166.4283 C464.4605,1165.7263 491.9565,1166.0033 519.4515,1165.9493 C531.5985,1165.7283 545.3325,1166.4623 557.1815,1166.3083 C560.2155,1165.2123 564.5085,1166.9553 565.1315,1170.4583 C567.4045,1179.3903 557.2925,1180.0563 551.2515,1179.6093 C543.9615,1179.4493 536.6715,1179.2893 529.3915,1179.1383 C499.5705,1178.3993 469.7445,1177.8533 439.9515,1176.5093 C426.2865,1175.3843 411.9335,1175.7483 398.7515,1171.6483 L398.757758,1188.31463 C398.760806,1189.97669 398.7652,1191.50343 398.7715,1192.7793 C455.9065,1192.5533 513.0735,1193.4293 570.2215,1192.9093 C561.4585,1148.3853 547.1185,1102.9713 528.8215,1064.2683 Z M1266.7211,1183.648 C1266.4891,1186.575 1267.5291,1189.036 1268.9011,1191.558 C1268.1691,1188.924 1267.4331,1186.289 1266.7211,1183.648 Z M604.2521,1068.109 C615.2111,1098.329 624.1811,1130.228 631.0911,1163.359 C680.2811,1162.288 729.3851,1162.815 778.5711,1162.898 C760.4481,1141.599 741.2161,1147.449 732.1901,1133.909 C725.6521,1123.412 731.1121,1089.024 732.8211,1075.929 C694.5251,1074.304 656.0541,1074.112 617.9311,1069.768 C613.6111,1069.199 608.9111,1068.808 604.2521,1068.109 Z M333.4515,1056.5983 C332.5415,1057.3593 331.5515,1058.0393 330.5015,1058.6193 C333.1325,1065.5303 330.4365,1072.4913 332.7605,1079.5323 C332.8585,1087.8463 332.4365,1096.2173 332.8515,1104.1193 C332.8185,1111.6443 337.4925,1116.3633 344.2315,1116.8483 C346.6715,1116.9893 349.9015,1116.4193 353.2315,1117.4093 C353.8935,1102.6833 353.3185,1087.7183 355.7315,1073.1593 C354.1885,1073.0213 352.6715,1072.7603 351.2185,1072.3883 C350.9965,1065.4553 344.2265,1058.7763 337.2785,1062.3183 C335.8905,1060.4693 334.6255,1058.5213 333.4515,1056.5983 Z M781.2821,1051.366 C779.1871,1051.614 777.1551,1052.081 775.2031,1052.879 C775.6601,1071.678 802.7971,1058.477 806.5091,1081.545 C807.1261,1086.98 806.4561,1092.444 806.2751,1097.89 C806.1881,1100.676 803.9991,1105.051 807.0341,1106.68 C808.5951,1108.948 812.8731,1108.504 812.4941,1105.242 C812.4241,1104.642 812.3761,1104.03 812.3351,1103.415 C813.6711,1101.047 814.4841,1098.562 814.9201,1095.999 C816.5301,1095.166 816.0481,1093.027 815.3331,1091.521 C814.9161,1088.254 816.2781,1082.499 812.7051,1080.76 C812.3381,1059.067 804.2871,1055.622 784.1501,1053.858 C782.7821,1053.714 781.9151,1054.39 781.5261,1055.33 C780.9941,1054.169 781.0091,1052.777 781.2821,1051.366 Z M763.4311,765.898 C749.0201,770.489 732.9261,771.445 717.9611,774.309 C621.3141,787.843 528.4551,827.721 429.9011,826.648 C426.5311,826.489 423.3711,825.989 420.4111,825.179 C420.4211,826.719 420.6311,828.299 420.9611,829.829 C422.8111,831.409 423.9611,833.898 424.3211,836.419 C498.2961,873.932 554.1381,950.167 589.1611,1030.419 C632.5561,1024.51 675.9131,1017.806 719.4011,1012.379 L727.293693,1011.35648 L727.293693,1011.35648 L743.0811,1009.329 C750.7711,1008.357 759.3381,1005.916 766.9811,1007.549 C770.4671,972.655 770.4761,938.627 773.1011,903.518 C765.4211,897.369 767.2311,884.239 766.9221,875.169 C765.1691,838.762 765.0161,802.298 763.4311,765.898 Z M813.3011,905.478 C810.6811,906.169 807.9811,906.419 805.4511,906.049 C798.6981,909.348 788.7011,907.639 781.2211,906.869 C782.0911,914.969 782.8411,923.089 783.1611,931.228 C784.4211,962.969 783.9211,995.369 781.0711,1027.089 C791.3161,1027.81 801.5641,1029.066 811.7911,1029.898 C811.8871,988.502 813.8161,946.928 813.3011,905.478 Z M422.9015,931.2683 C431.0515,965.2463 467.9855,1017.2323 505.1115,1020.3393 C482.5115,983.7583 456.5315,954.9283 427.8215,934.6383 C426.1815,933.4783 424.5515,932.3693 422.9015,931.2683 Z M754.4911,674.749 C753.3111,674.779 752.1311,674.789 750.9511,674.768 C758.0551,685.096 756.7901,701.185 748.2011,710.279 C778.1791,728.861 777.2371,770.428 778.2411,801.619 C779.4351,831.799 781.0381,861.914 782.3011,892.058 C782.3011,891.509 784.1011,892.279 784.7411,892.389 C788.7981,892.916 792.9051,893.096 797.0011,892.919 C803.1891,890.453 811.3451,890.404 815.6111,884.429 C820.6711,877.648 819.5111,867.509 818.6411,859.659 C816.5311,840.659 813.6811,821.728 811.2831,802.767 C804.6721,762.257 805.5031,683.451 754.4911,674.749 Z M743.3211,714.639 C719.2461,729.754 687.5741,723.866 660.3811,725.539 C640.5111,725.829 620.6311,725.919 600.7521,725.848 C533.7961,725.469 466.8801,722.799 399.9811,720.039 L400.12973,722.819281 C401.36051,745.062928 403.6369,767.32744 410.1121,788.698 C413.7901,803.338 419.2851,808.765 434.6811,807.469 C516.9541,806.249 595.0121,776.896 675.2011,762.147 C703.8671,757.37 733.0051,753.294 761.7811,749.909 L761.464362,748.114355 C759.159172,735.316685 755.435033,720.855461 743.3211,714.639 Z M760.8211,68.779 C761.9611,70.922 762.6181,72.851 762.1111,74.848 C858.4741,281.283 833.0261,516.09 883.9011,733.808 C884.8991,734.398 885.4661,735.33 885.9911,736.308 C902.4411,733.009 919.0111,730.148 935.6411,727.669 C933.7381,722.762 936.6701,718.319 940.0211,715.129 C940.0711,714.639 940.7411,713.098 940.7811,713.098 C934.5121,635.88 925.3841,558.668 917.5301,481.529 C912.6251,427.77 903.6781,373.512 906.1011,319.478 C906.1911,318.848 907.0111,319.039 907.1931,319.478 C920.1631,366.176 927.6671,437.052 940.6311,531.308 C1034.2321,641.16 1089.3781,660.378 1179.3921,533.069 L1184.0134,526.268399 C1226.08478,464.265379 1267.13223,401.071753 1299.0611,333.169 C1259.1201,331.885 1237.5591,289.887 1220.4911,259.079 C1217.6051,257.518 1215.6801,255.159 1214.1011,251.989 C1200.5781,268.861 1189.8741,289.673 1176.1801,306.807 C1142.1871,351.513 1064.1001,406.947 1062.3901,408.724 L1062.06338,409.017618 C1056.92968,413.717213 1041.4689,431.474391 1036.6901,430.997 C1015.8651,450.313 969.5611,360.34 963.9911,343.389 C950.4111,310.369 939.4611,300.219 927.6801,266.54 L925.650487,260.4721 C909.424108,211.809027 893.1139,160.54472 852.5011,126.53 L850.908634,124.836841 C824.914903,97.3042912 799.63498,75.8252 760.8211,68.779 Z M1257.4511,678.329 C1245.9111,679.039 1234.3611,679.728 1222.8211,680.419 L1212.14381,681.051803 C1127.90428,686.100679 1043.48763,692.336608 959.0811,688.659 C959.8751,700.537 964.0231,712.844 959.4511,724.389 C1017.6851,717.574 1076.3051,713.378 1134.7911,716.199 C1169.5481,699.764 1211.7321,694.61 1250.8111,694.398 C1251.4701,688.936 1253.7351,682.762 1257.4511,678.329 Z M665.0511,585.02 C608.3671,559.689 552.9291,585.475 532.9811,646.739 C534.3791,647.89 535.3411,649.915 535.5821,651.959 C540.8311,658.972 550.4561,658.754 558.3411,659.749 C574.2011,661.848 589.5821,666.969 603.6011,674.719 C611.3411,678.95 617.9941,685.07 625.9851,688.763 L630.284517,692.804139 C637.460489,699.524833 644.8191,705.994833 654.3291,709.544 C664.1791,710.059 651.4561,690.848 649.3851,687.115 L648.61468,685.874973 C644.465875,679.285071 639.132445,671.78119 644.8101,664.295 C655.1561,669.259 663.4921,676.42 671.8141,684.411 L673.318439,685.871076 C681.416038,693.798377 690.727982,703.747 702.3581,705.043 C704.3181,705.262 705.7451,702.953 705.2521,701.245 C700.0311,683.926 684.7711,671.818 670.5671,661.42 C670.6891,656.484 674.1171,652.708 678.6021,651.631 C698.5381,663.125 712.4561,681.326 731.9481,693.113 C734.0501,694.358 736.2571,692.712 736.4631,690.522 C736.3421,675.193 720.7311,663.446 709.9711,654.366 C707.7331,652.635 705.4431,650.959 703.1111,649.341 C703.6411,646.269 706.4471,643.581 709.9531,643.084 C716.3471,644.902 754.6801,674.696 754.7871,660.925 L754.715142,660.549841 C753.693612,655.705199 748.136983,645.197571 742.7701,646.494 C722.9021,621.932 694.3731,596.396 665.0511,585.02 Z M516.0111,21.969 C495.9811,33.48 476.7651,45.943 456.7111,57.339 C431.1511,71.999 403.6911,83.379 379.1271,99.786 C304.3301,154.961 282.6501,271.254 255.4481,356.069 L251.597342,372.53357 C236.006359,439.321822 212.59718,545.70812 240.8421,600.139 L241.041295,600.568479 C244.568112,608.05684 261.34142,638.4231 269.9811,643.818 C295.3011,659.629 348.2531,665.002 394.2721,661.908 C438.0851,659.871 481.2191,651.48 523.9811,642.659 C524.959367,627.916367 532.163837,615.598617 539.74657,603.59023 L540.5321,602.349 L541.410614,601.046483 C552.13572,585.28025 564.23254,572.498333 581.9511,565.539 C522.7571,547.802 425.3011,570.629 359.3131,524.199 C354.0431,520.491 358.6421,512.638 364.3601,515.564 C367.8001,517.324 371.2941,518.936 374.8311,520.434 C371.713666,509.189921 379.835519,502.493756 384.686826,492.730196 L384.8791,492.338 C426.5491,408.18 459.3341,313.583 488.4021,227.839 C479.9431,287.824 466.2961,347.234 446.9411,404.619 C464.6781,418.247 479.4821,435.426 495.4721,451.008 C512.5991,469.195 533.3791,484.656 546.4511,506.259 C549.3011,511.289 543.6911,516.369 538.8211,513.889 C527.3411,508.049 517.8111,498.789 509.0011,489.579 L505.421394,485.674692 C483.557338,461.779217 461.995066,437.18081 445.3111,409.329 C434.181692,441.598816 420.447669,468.355793 405.761037,498.783909 L403.8811,502.689 C400.6311,509.419 397.6011,516.929 392.2521,521.898 C395.7911,528.998 404.8481,530.646 411.8321,532.719 C468.57791,548.65701 528.829538,535.339035 585.805563,549.850676 L589.564163,550.823732 C593.316911,551.800574 597.112562,552.982846 599.3481,556.414 C649.0431,558.232 697.4371,578.605 736.1711,610.009 L737.169643,610.804422 C753.489356,623.881624 770.2109,641.1406 773.1411,662.779 C773.6911,666.859 772.1811,672.629 767.3111,673.549 C776.7411,674.719 785.2511,679.579 792.2411,686.299 C725.5861,454.839 530.3211,270.545 516.0111,21.969 Z M727.0441,679.9635 C727.9681,681.3635 728.8071,682.8275 729.4191,684.3505 C729.1191,684.1425 728.8301,683.9155 728.5321,683.7045 C728.6151,682.9485 728.0531,682.1055 727.5141,681.4945 L727.5191,681.4895 C727.2611,681.1835 727.0201,680.8605 726.7691,680.5465 C726.8821,680.3625 726.9711,680.1655 727.0441,679.9635 Z M944.6791,565.629 C947.2651,587.631 949.8431,609.625 952.4011,631.629 C970.6271,629.22 988.9861,627.773 1007.3351,626.418 L1006.3181,625.783 L1006.3181,625.783 C997.0411,619.98 988.4841,613.192 980.4581,605.767 C971.6371,597.606 963.2311,588.785 955.4871,579.592 C951.6911,575.087 948.0961,570.424 944.6791,565.629 Z M510.3394,329.9247 C513.1664,355.1317 528.8624,376.5017 543.4464,396.3417 C547.2654,401.5367 538.5834,406.5197 534.8114,401.3887 L533.293784,399.31926 C517.966881,378.361613 503.303677,356.356328 500.3394,329.9247 C499.6224,323.5287 509.6304,323.6007 510.3394,329.9247 Z M1448.5911,79.429 C1403.3841,107.832 1356.0801,132.733 1309.8411,159.398 C1304.1811,162.609 1298.4511,157.329 1299.5111,151.459 C1301.8711,138.435 1304.2119,125.41036 1306.51302,112.381496 L1308.28982,102.281851 C1308.9583,98.6377669 1311.72447,85.486127 1309.0821,80.549 C1297.61937,99.9676667 1285.76997,119.171222 1273.86518,138.329246 L1260.8721,159.219 C1246.9611,181.598 1231.3911,204.308 1225.8611,230.369 C1229.2351,233.575 1230.9751,238.229 1231.3911,242.799 C1235.2781,244.357 1237.9361,248.691 1236.8721,253.268 C1253.5221,273.197 1264.8921,301.831 1291.5311,310.209 C1321.7441,266.68 1371.4001,241.213 1423.3211,234.879 L1432.53622,233.265448 C1455.04728,229.284575 1478.50791,224.421308 1496.4411,210.409 C1478.6411,211.268 1460.8411,212.089 1443.0311,212.859 C1437.0711,213.119 1435.8111,203.719 1441.6221,202.469 C1467.4911,196.898 1493.7711,185.049 1514.4511,167.529 C1479.9411,179.709 1443.7311,186.938 1407.2311,189.779 C1399.7221,189.866 1398.4151,179.008 1405.4911,176.889 C1437.65988,163.630053 1466.4979,142.53864 1488.61744,115.765392 L1489.3211,114.909 L1442.9711,139.359 C1423.6411,149.558 1402.9611,162.159 1380.3911,162.129 C1373.8321,162.119 1372.3721,153.909 1377.2421,150.5 L1383.59036,145.776586 C1404.99402,129.81316 1445.5311,98.7097 1448.5911,79.429 Z" id="ðŸ–-Ink" fill="#000000"></path>
    </g>
</svg>