<?xml version="1.0" encoding="UTF-8"?>
<svg width="473px" height="567px" viewBox="0 0 473 567" version="1.1" xmlns="http://www.w3.org/2000/svg" xmlns:xlink="http://www.w3.org/1999/xlink">
    <!-- Generator: Sketch 62 (91390) - https://sketch.com -->
    <title>head/mono/Bangs 2</title>
    <desc>Created with Sketch.</desc>
    <g id="head/mono/Bangs-2" stroke="none" stroke-width="1" fill="none" fill-rule="evenodd">
        <path d="M389.5309,161.6855 C329.3989,121.8825 208.9309,126.2055 142.7369,150.5915 C78.1489,171.0745 55.5359,228.1495 44.8119,289.8125 C31.7769,359.1155 33.5289,459.0185 127.2629,457.8095 C140.4409,464.1825 155.0399,466.9465 168.6749,472.2245 C187.3369,478.6765 205.6349,486.1665 224.5719,491.8175 C261.8699,503.8295 303.3739,502.7845 338.7549,485.2075 C358.302308,475.76506 366.393069,461.060213 379.176408,445.391243 C416.366531,399.806056 435.079833,334.567807 433.4039,276.6045 C430.4629,235.7895 423.7119,188.5415 389.5309,161.6855 Z" id="ðŸŽ¨-Background" fill="#FFFFFF"></path>
        <path d="M465.6238,329.6952 C459.4538,291.3952 457.7438,252.4452 449.6638,214.4452 C442.0638,178.6862 427.8538,144.8952 403.0238,117.6352 C380.8038,93.2452 352.0738,75.3352 321.2338,63.9852 C261.1538,41.8752 192.0538,46.8752 133.9338,72.6862 C79.5338,96.8352 36.1438,141.5152 10.8538,195.1352 C-5.5762,229.9752 -13.8362,267.0152 -17.5062,305.2452 C-21.5762,347.7152 -22.0162,390.6252 -23.6762,433.2452 C-23.8762,438.5052 -24.1662,443.7652 -24.2362,449.0262 C-24.3162,454.7852 -21.9862,459.8352 -20.0862,465.1952 C-19.9562,465.5752 -19.7662,465.9362 -19.5362,466.2762 C-20.9662,466.4552 -22.3962,466.6652 -23.8262,466.8952 C-25.4262,467.1452 -25.3562,469.7452 -23.8262,470.0552 C-10.8762,472.6952 2.4338,473.0652 15.6038,473.7152 C29.2538,474.3952 42.9238,474.7662 56.5938,475.2252 C69.9238,475.6752 83.2538,476.1252 96.5838,476.5752 C103.5838,476.8152 110.5838,477.0552 117.5838,477.2852 C120.9138,477.3952 124.2438,477.5162 127.5838,477.6252 C129.2438,477.6862 130.9138,477.7342 132.5738,477.7952 C133.9238,477.8352 136.1238,478.6952 136.2638,477.7052 C136.5138,477.8562 136.7838,477.9842 137.0738,478.0752 C137.3938,478.2452 137.7038,478.4452 138.0038,478.6652 C139.6338,479.7852 142.1038,479.6452 143.7538,478.6652 C143.9038,478.5752 144.0638,478.4752 144.2238,478.3752 C145.4538,477.6452 146.3138,476.5852 146.7938,475.3852 C153.6338,483.6452 165.7438,474.3652 158.7438,465.6252 C154.9838,460.9252 117.5838,345.6952 133.0638,257.9152 L195.1438,249.6952 C202.710467,248.928533 213.5338,247.781867 227.6138,246.2552 C231.060467,235.008533 233.277133,227.5752 234.2638,223.9552 C234.3738,223.5552 234.4838,223.1452 234.6038,222.7452 C236.0838,225.3562 237.5738,227.9552 239.0738,230.5552 L246.7338,246.1252 C322.107133,244.8652 369.0338,244.2952 387.5138,244.4152 C387.9838,244.4152 390.2138,278.1152 389.2038,292.9552 C387.1638,322.7552 384.9938,352.5352 381.9738,382.2552 C380.04628,401.285639 375.400261,419.948515 368.479319,437.488282 C357.546563,465.1952 325.804325,491.530499 294.8538,491.530499 C275.588137,491.530499 232.0538,475.9272 225.7138,472.7762 C219.3738,469.6252 215.59607,478.2252 221.3738,481.6652 C233.077576,488.633506 265.339302,503.4152 294.8538,503.4152 C337.716649,503.4152 370.0738,462.7452 374.0438,456.9152 C413.0738,454.7762 452.9938,455.7652 491.9738,459.6352 C495.2438,459.9552 498.0638,456.0152 497.0138,453.0052 C483.0138,412.9362 472.3638,371.6062 465.6238,329.6952 Z" id="ðŸ–-Ink" fill="#000000"></path>
    </g>
</svg>