<?xml version="1.0" encoding="UTF-8"?>
<svg width="473px" height="567px" viewBox="0 0 473 567" version="1.1" xmlns="http://www.w3.org/2000/svg" xmlns:xlink="http://www.w3.org/1999/xlink">
    <!-- Generator: Sketch 62 (91390) - https://sketch.com -->
    <title>head/mono/Bangs</title>
    <desc>Created with Sketch.</desc>
    <g id="head/mono/Bangs" stroke="none" stroke-width="1" fill="none" fill-rule="evenodd">
        <path d="M431.617143,424.843986 C427.653143,418.982035 418.108143,376.442123 412.011143,369.899143 C412.471143,344.768912 419.418157,257.761904 399.575257,218.65 C403.749257,214.429198 414.841143,178.074468 412.011143,164.331066 C421.359143,135.549031 361.306143,89.8356357 338.451143,77.4827888 C232.230143,20.524077 78.3081431,83.3968248 30.0011431,188.911954 C0.972143091,252.456885 0.437143091,323.603191 -2.84485691,391.978213 C-3.23285691,406.613929 -4.57785691,421.363641 -4.56285691,435.981667 C-2.46385691,448.826859 7.721,461.907954 -1.25766064e-12,472.589186 C-8.529,478.488481 -25.7668569,492.859796 -18.0918569,501.00953 C-13.5938569,504.754693 -6.40885691,502.581889 -1.52785691,506.182592 C0.957143091,507.573147 2.50714309,510.619593 5.41314309,511.083439 C31.9591431,510.075164 50.6916148,509.988803 77.3196148,508.91272 C88.9766148,508.531423 106.726898,513.461631 120.107143,503.64618 C166.845004,529.641806 147.295259,491.92686 156.746259,465.074896 C185.526259,474.805834 242.856143,505.836673 273.533143,506.839052 C298.462143,509.919893 321.773143,495.402104 346.281143,498.707007 C376.728143,510.018166 412.410143,512.532958 440.299143,493.395381 C447.259143,488.382503 455.002478,494.189347 463.774478,488.776501 C480.823478,480.622836 440.221143,433.888982 431.617143,424.843986 Z" id="ðŸŽ¨-Background" fill="#FFFFFF"></path>
        <path d="M396.8226,215.3125 C396.4446,213.1415 399.4356,211.5225 400.5926,213.7225 C408.9976,229.7035 412.3646,248.2115 415.3416,265.8635 C418.3486,283.7015 420.3356,301.6135 420.4456,319.7215 C420.5296,333.6505 419.2646,347.7405 416.8896,361.6795 L417.1786,362.6715 L417.1786,362.6715 C417.711933,364.4935 418.250156,366.314167 418.794156,368.1335 L419.6146,370.8615 C421.2006,376.0995 422.7026,381.3615 424.3316,386.5865 C427.7326,397.4915 431.3136,408.4275 435.6996,418.9805 C439.9796,429.2785 445.1846,439.2095 451.3716,448.4915 C457.3346,457.4395 466.7976,465.0055 470.9986,474.9435 C472.4626,478.4065 470.2976,482.9845 466.2536,482.4315 C465.9906,482.7485 465.5896,482.9785 465.0456,483.0265 C461.9056,483.3005 458.9626,483.0395 455.8296,482.7455 C454.0806,482.5815 454.0836,480.1905 455.8296,480.0265 C457.1606,479.9015 458.4566,479.7915 459.7516,479.7165 C450.7916,474.4075 444.3996,464.0405 439.2886,455.5535 C432.7206,444.6495 427.7596,432.7355 423.7156,420.6875 C419.5626,408.3175 416.6216,395.6895 414.2586,382.8675 C413.9876,381.3915 413.7296,379.9145 413.4816,378.4355 C410.4956,391.1285 406.6506,403.5895 402.0936,415.5655 L401.455025,417.232433 C390.94979,444.465706 376.72164,471.96086 353.0566,489.9615 C351.9826,490.7775 350.8856,491.5525 349.7796,492.3105 L351.125881,493.082281 C352.46585,493.847375 353.78585,494.58125 355.0766,495.1835 C359.8586,497.4145 365.0496,499.1155 370.1846,500.3205 C380.7906,502.8115 391.9286,502.0975 402.7486,502.4445 C406.2976,502.5585 408.3166,507.8795 404.6886,509.6075 C392.7376,515.2985 379.8296,514.0905 367.4936,510.0865 C361.3896,508.1035 355.6616,505.3285 350.3626,501.7055 C348.1716,500.2085 345.6276,498.3605 343.4796,496.2245 C319.8126,509.4665 290.3966,510.9485 264.0546,506.2125 C250.3656,503.7505 237.1006,499.2555 225.4296,491.5665 C214.2036,484.1725 206.2016,474.8105 200.4886,462.6815 C199.9816,461.6065 201.3906,460.2675 202.2556,461.3185 C220.2006,483.1135 251.0826,492.2075 278.2506,493.9375 C292.7466,494.8615 307.5756,494.0935 321.5126,489.7565 C334.7336,485.6405 346.0776,478.0965 355.5496,468.0635 C374.7486,447.7265 386.2526,420.0605 394.5146,393.7315 C403.5026,365.0885 407.7826,334.9525 408.6656,304.9765 C409.1126,289.7895 408.5496,274.4745 406.1646,259.4555 C403.7986,244.5605 399.4076,230.1445 396.8226,215.3125 Z M127.7717,86.2818 C129.0427,85.6358 129.9377,87.3168 128.8597,88.1438 C106.4827,105.3048 86.4427,127.0648 70.2227,150.0958 C40.3097,192.5728 21.1257,241.7268 12.2917,292.8028 C7.0757,322.9658 5.7137,353.5858 6.2347,384.1508 C6.4411,396.2924 7.13454,408.39688 7.905932,420.5052 L8.77677612,433.92717 C9.18117059,440.18044 9.51890069,446.380496 9.25782111,452.664174 L9.1867,454.1158 C8.7727,461.4278 9.4917,468.7988 7.6577,475.9318 C6.7167,479.5898 1.5577,480.1658 -0.3103,476.9728 C-0.6763,476.3478 -1.0183,475.7028 -1.3503,475.0518 C-5.7283,482.1918 -11.3983,488.5748 -17.6893,494.2768 C-14.6823,493.6368 -11.6463,493.2288 -8.5293,493.6018 C-3.5883,494.1938 0.8437,496.1018 3.9797,499.4458 C7.0927,498.0428 10.2937,497.0768 13.9747,497.0568 C16.6857,497.0428 18.7187,500.2478 17.1717,502.6288 C14.0857,507.3808 9.7797,510.0448 4.8867,512.6778 C1.41905294,514.544467 -2.71948993,512.948042 -3.99993146,509.257721 L-4.0733,509.0338 C-5.5143,504.3658 -13.1783,505.1198 -16.7943,505.8418 L-17.858457,506.059087 C-24.5893875,507.459612 -31.1622,509.2525 -38.0193,507.4038 C-42.4423,506.2108 -43.5983,499.5528 -39.3343,497.3428 C-25.8643,490.3628 -14.5563,480.9868 -2.9353,471.5728 C-5.5013,465.2818 -6.9583,458.2528 -8.6383,451.8558 C-11.0033,442.8518 -11.6943,433.1638 -12.5483,423.9148 C-14.1713,406.3298 -14.7903,388.5538 -14.6163,370.8998 C-14.0273,311.2718 -3.8293,251.4588 22.2197,197.4638 C33.6317,173.8108 48.6237,151.9238 66.3447,132.5508 C83.9607,113.2918 104.5357,98.0838 127.7717,86.2818 Z M106.9166,378.2956 C106.2256,377.3376 107.5746,376.0706 108.5206,376.6916 C129.0016,390.1446 143.2146,410.5726 152.3856,433.0136 C161.4636,455.2306 167.0376,482.4436 158.0846,505.6116 C156.6596,509.3016 149.8346,510.6716 149.1356,505.6116 C146.0146,483.0156 145.5296,460.3876 138.6666,438.4196 C131.8626,416.6426 120.2206,396.7006 106.9166,378.2956 Z M91.0362,451.6525 C91.1482,451.2535 91.8002,451.3225 91.7722,451.7525 C91.2592,459.7205 90.9112,467.7855 89.9092,475.7095 C89.4222,479.5605 88.7782,483.3865 88.2302,487.2285 C87.6682,491.1685 87.7532,495.1465 85.4622,498.5115 C82.4262,502.9725 74.3602,501.7175 74.6312,495.5785 C74.8182,491.3435 76.7642,488.6255 78.5872,484.9085 C79.7565333,482.525167 80.7756444,480.061833 81.7580148,477.587241 L83.2182,473.8755 C86.1202,466.5145 88.8972,459.2775 91.0362,451.6525 Z M54.3614,430.5451 C54.4854,429.9181 55.4964,430.0691 55.4664,430.6941 C54.9194,441.9721 53.6474,453.1231 51.6554,464.2361 C50.74715,469.301475 49.6880719,474.338522 48.5679352,479.361309 L48.0844,481.5131 C46.8864,486.8031 46.1134,493.0221 43.4294,497.7481 C40.7474,502.4711 34.3794,499.0411 35.2044,494.2801 C36.1684,488.7221 39.5794,483.1311 41.5624,477.7931 C43.3924,472.8651 44.9924,467.8501 46.4874,462.8111 C49.6344,452.2041 52.2154,441.3981 54.3614,430.5451 Z M122.657681,461.8551 L122.8961,461.6105 C123.8281,460.5975 125.2181,461.2725 125.6631,462.3415 C127.4851,466.7225 126.5731,471.8885 126.4431,476.5395 L126.418944,477.553759 C126.321989,482.265242 126.3895,486.678167 124.2531,491.0275 C121.6591,496.3085 114.8241,493.0285 114.2951,488.3305 C113.7171,483.2035 116.1421,478.1845 117.7081,473.3825 C118.7031,470.3305 119.4281,467.1565 120.9411,464.3865 C119.6471,464.6095 118.3551,465.0565 117.1721,465.3795 C116.6421,465.5225 116.4421,464.7445 116.9481,464.5645 C118.90415,463.87195 121.111997,463.351777 122.657681,461.8551 L122.657681,461.8551 Z M395.3165,477.4021 C394.6915,476.7031 395.4705,475.7721 396.2815,476.1501 C406.0215,480.6991 415.1315,483.6581 425.8785,484.6271 C430.5355,485.0471 430.5645,492.3631 425.8785,491.9391 C414.6625,490.9291 402.9075,485.9001 395.3165,477.4021 Z M52.6412,323.7087 C61.2162,304.4197 88.3442,287.3087 106.5352,305.2467 C106.8762,305.5817 106.5292,306.3127 106.0342,306.1077 C94.7192,301.4187 80.8672,307.3827 73.0362,315.9127 C66.8232,322.6787 63.0902,331.3667 62.3492,340.5237 C61.6082,349.6887 63.7992,359.2547 69.8862,366.3437 C73.0792,370.0627 77.3912,373.5827 82.4652,374.0297 C87.5882,374.4807 91.8582,370.8727 96.7012,369.8927 C100.3522,369.1547 103.1082,371.4457 103.4662,375.0447 C104.2552,382.9877 96.3472,388.3187 89.4922,389.6137 C82.1182,391.0057 74.5922,389.4847 68.2382,385.4887 C47.7162,372.5827 43.2892,344.7477 52.6412,323.7087 Z M245.1865,134.6464 C248.9155,131.0824 255.2585,134.6254 253.8825,139.7094 C250.9565,150.5294 244.7375,159.6744 237.8475,168.3544 C231.2185,176.7054 224.1165,184.7304 216.5045,192.1994 C208.9425,199.6194 200.7265,206.4854 192.0915,212.6184 L189.490857,214.460488 C183.370984,218.774525 176.888875,223.137275 170.0385,226.2444 C168.3845,240.4944 165.1485,254.5544 160.2525,268.0154 C155.5375,280.9774 149.5375,293.5044 142.2675,305.2274 L141.223628,306.906358 C134.54305,317.612813 126.50985,329.5783 115.1735,335.4474 C114.8335,335.6244 114.4925,335.7324 114.1565,335.7954 C116.6925,337.4864 118.8355,339.6134 120.1095,342.6694 C121.5055,346.0154 118.5875,349.1724 115.7905,350.2774 C109.8755,352.6144 104.1055,348.6584 98.7885,344.4384 C98.5635,344.9444 98.3515,345.4554 98.1695,345.9704 C96.9805,349.3404 96.6305,352.7844 93.5645,355.0204 C92.1075,356.0834 90.3125,355.1324 89.3955,353.9284 C86.3895,349.9784 89.5015,344.5974 92.1445,341.3694 C92.5105,340.9234 92.8885,340.4994 93.2775,340.0924 C92.1605,339.2714 91.0705,338.5434 90.0145,337.9844 C83.8055,334.6964 74.6015,334.1134 71.0265,341.3924 C70.7525,341.9514 69.8914991,341.6624 69.8914991,341.0844 C69.9005,332.1434 79.0595,327.2874 87.0075,326.6274 C92.8145588,326.145518 98.4311678,328.182002 103.658071,330.553376 L104.6335,331.0014 C106.5785,331.9044 108.5825,332.7564 110.5005,333.7094 C110.1885,332.8864 110.1935,331.9184 110.6845,330.9584 C116.6955,319.2194 127.0175,309.6734 134.4615,298.8014 C141.8435,288.0154 148.1815,276.4724 153.2405,264.4194 C158.1505,252.7204 161.9975,240.6544 164.6875,228.3474 C163.8015,228.5304 162.8025,227.7414 162.8655,226.8164 C163.0155,224.5784 164.1105,222.5624 166.0335,221.7034 C168.1515,210.1274 169.2325,198.3554 169.1695,186.4884 C169.1645,185.5684 170.4975,185.6014 170.5755,186.4884 C171.5115,197.0394 171.5875,207.6934 170.8005,218.2854 C175.8025,213.6834 181.0775,209.3084 185.8935,204.5844 C193.1405,197.4764 200.1515,190.1784 206.9145,182.6094 C213.8145,174.8874 220.3365,166.8814 226.3005,158.4104 L229.421637,153.967988 C234.220399,147.157667 239.149821,140.418579 245.1865,134.6464 Z M235.777,58.6204 C276.933,56.0514 320.887,61.1094 357.855,80.4284 C378.158,91.0374 393.851,107.0724 405.064,127.0274 C411.759,138.9434 416.838,152.1384 418.762,165.7044 C420.738,179.6434 418.418,192.0724 409.518,203.1524 C405.983,207.5524 400.029,202.6374 400.9,198.1354 C406.228,170.5914 397.586,143.3774 382.259,120.5744 C360.018,87.4844 321.177,72.7854 283.36,66.2284 C264.78,63.0084 245.935,61.6624 227.085,62.3174 C212.714,62.8174 197.972,64.1564 184.334,68.9914 C183.759,69.1954 183.53,68.2994 184.084,68.0884 C200.352,61.8754 218.512,59.6984 235.777,58.6204 Z M296.815,120.9033 C298.934,119.5603 301.526,120.9383 302.254,123.1173 C304.822,130.7993 299.44,140.9483 295.84,147.5963 C291.766,155.1193 286.527,162.1533 281.117,168.7603 C270.294,181.9743 256.069,193.0003 240.459,199.9303 C239.503,200.3553 238.389,199.2013 239.266,198.3853 C251.344,187.1383 262.295,175.0803 271.775,161.5533 C276.433,154.9063 280.318,147.8943 284.028,140.6913 C287.348,134.2453 290.47,124.9253 296.815,120.9033 Z M366.0327,129.9528 C367.3867,125.2248 375.0987,126.0298 374.7797,131.1368 C373.9547,144.3298 367.7307,157.5728 360.9677,168.7538 C354.0037,180.2668 345.1847,190.5268 335.0757,199.3878 C334.5777,199.8248 333.8957,199.1518 334.3467,198.6588 C343.0687,189.1108 350.1137,178.2348 355.3307,166.3988 C360.5417,154.5798 362.5087,142.2478 366.0327,129.9528 Z M327.7033,127.8167 C329.1783,123.7057 336.2383,124.0107 335.8053,128.9137 C334.6153,142.3917 326.7053,156.5167 319.3793,167.6487 C311.6053,179.4597 301.6823,189.8647 290.5923,198.6037 C290.1773,198.9307 289.5903,198.3887 289.9953,198.0067 C299.9563,188.6217 308.0343,177.7807 314.4293,165.6887 C317.6933,159.5187 320.4313,153.0937 322.5933,146.4567 C324.5933,140.3167 325.5323,133.8687 327.7033,127.8167 Z" id="ðŸ–-Ink" fill="#000000"></path>
    </g>
</svg>