<?xml version="1.0" encoding="UTF-8"?>
<svg width="473px" height="567px" viewBox="0 0 473 567" version="1.1" xmlns="http://www.w3.org/2000/svg" xmlns:xlink="http://www.w3.org/1999/xlink">
    <!-- Generator: Sketch 62 (91390) - https://sketch.com -->
    <title>head/mono/Bantu Knots</title>
    <desc>Created with Sketch.</desc>
    <g id="head/mono/Bantu-Knots" stroke="none" stroke-width="1" fill="none" fill-rule="evenodd">
        <path d="M412.458,250.2315 C411.315,228.3485 410.312,205.7375 406.116,184.1895 C404.059,173.6265 399.945,163.8745 393.29,155.3955 C387.202,147.6365 379.54,141.6185 371.768,135.6415 C356.148,123.6285 341.129,110.3285 323.645,101.0365 C306.868,92.1205 288.731,86.7385 269.936,84.3215 C233.738,79.6665 195.718,87.4145 164.284,106.0035 C133.794,124.0355 109.283,152.0185 94.116,183.9215 C86.578,199.7755 80.916,216.5075 77.866,233.8105 C74.231,254.4365 74.56,275.1205 74.691,295.9775 C74.736,302.9875 74.673,309.9935 74.324,316.9865 C73.755,320.3805 73.441,323.8175 73.445,327.5015 C66.544,336.5825 63.736,348.7195 68.061,359.8985 C74.96,377.7365 94.535,385.8485 112.307,382.7365 C113.102,387.3735 115.019,391.9425 117.406,396.3895 C121.487,403.9895 126.049,411.4335 130.891,418.5705 C140.908,433.3375 152.339,446.7245 165.978,458.2735 C193.015,481.1675 227.265,496.1685 262.784,498.3395 C295.121,500.3155 329.225,491.1195 355.596,472.1505 C369.283,462.3055 381.128,450.2405 389.929,435.7925 C400.21,418.9145 405.789,399.4845 408.684,380.0615 C415.038,337.4205 414.699,293.1885 412.458,250.2315 L412.458,250.2315 Z" id="ðŸŽ¨-Background" fill="#FFFFFF"></path>
        <path d="M157.4668,24.0907 C156.2448,10.3187 168.9378,-0.0433 180.7158,3.8137 C182.8768,4.0827 184.9788,4.7647 186.8568,5.9117 C192.2778,9.2227 193.4628,14.5627 192.0468,19.1787 C194.5918,21.0997 196.5968,23.7037 197.6048,26.8447 C198.6438,30.0807 198.5358,33.2197 197.5578,35.9547 C201.2528,38.3957 204.0458,42.0787 204.6948,46.6417 C205.0028,48.8087 204.8788,50.9577 204.3648,52.9327 C209.9588,54.8317 214.5238,59.0857 214.4548,65.5227 C217.7038,65.7307 220.9568,65.7767 224.2678,65.5927 C224.7398,64.2597 225.3188,62.9597 226.1778,61.7627 C227.911974,59.3513087 230.376265,57.6947378 233.104216,56.6617142 L233.4778,56.5247 L233.4718,55.7927 C231.3828,53.4777 230.4048,50.5577 232.6298,47.3777 C233.0118,46.8327 233.4768,46.3827 233.9958,45.9967 C234.1798,44.6167 234.4778,43.2507 234.8438,41.9077 C232.9998,39.3377 233.1998,35.0737 236.2928,33.7977 C235.8618,31.2917 235.8368,28.6927 236.3018,26.0737 C238.2098,15.3437 248.5658,8.0357 259.2378,8.4457 C260.5738,8.4967 261.8738,8.6977 263.1298,9.0177 C265.7278,9.2897 268.3128,9.8707 270.8548,10.7347 C273.7888,11.7327 274.5438,14.1827 273.8978,16.2537 C277.8818,21.5807 279.0128,28.8177 275.0008,35.3217 C274.8478,35.5687 274.6798,35.8037 274.5148,36.0407 C275.3198,36.6457 276.0198,37.4437 276.5398,38.4687 C277.8458,41.0487 277.5238,44.3227 275.5308,46.4757 C275.0008,47.0497 274.3148,47.4807 273.5638,47.7577 L273.5508,47.9697 L273.5508,47.9697 C273.2908,51.4247 272.7418,54.8887 271.7048,58.1517 C275.9288,62.0747 278.7338,67.4137 279.2308,73.1667 C280.8048,73.3127 282.3778,73.4837 283.9488,73.6617 C284.1808,72.0847 285.1378,70.6647 286.5898,69.5647 C287.8048,68.6447 289.1018,67.9087 290.4338,67.3577 C291.0758,64.0507 292.6468,60.8827 295.2988,58.3687 C296.2828,57.4367 297.3578,56.6147 298.5028,55.9077 C298.4388,52.3227 299.2378,48.7407 301.2238,45.3487 C302.8758,42.5277 305.2808,40.4817 308.0228,39.1797 C310.0228,35.1597 313.7258,31.8797 319.1148,30.0157 C323.142117,28.6235049 327.40358,30.2780676 330.465433,32.879825 L331.1498,33.4797 L331.1498,33.4797 C333.9588,35.9587 334.9738,40.5137 333.9378,44.0277 C333.4508,45.6787 332.6378,47.6077 331.4578,49.1747 C332.7048,54.6717 330.2238,59.2577 326.4228,61.8347 C327.7218,63.6827 328.8138,65.7327 329.7358,67.9217 C331.3298,71.7067 329.5378,76.4197 326.6638,79.4017 C327.9218,81.4077 328.7388,83.7477 329.0388,86.0977 C330.3208,86.1727 331.5948,86.4007 332.8508,86.7577 C333.5318,84.4457 334.8128,82.2967 336.7728,80.5417 C337.6318,78.8647 338.6518,77.3037 339.7928,75.9387 C341.5908,73.7847 343.9208,72.2327 346.4638,71.6007 C346.8028,70.8017 347.2828,70.0367 347.8848,69.3377 C347.2778,62.3297 351.9218,55.0937 359.0748,55.0877 C359.5798,53.4537 360.1968,51.8377 360.9358,50.2527 C362.3848,47.1437 365.4558,45.2817 368.7868,44.6697 C370.7428,39.9037 374.5858,36.4377 381.1808,35.8597 C395.9138,34.5697 405.1818,52.4337 401.5838,65.2597 C400.5138,69.0697 398.0088,72.5757 394.6838,74.7287 C393.8138,75.2917 392.9368,75.7007 392.0498,76.0387 C391.1628,77.2777 389.9688,78.3787 388.4338,79.2757 C388.0938,79.4747 387.7438,79.6537 387.3838,79.8137 C387.4188,85.5377 383.4678,90.1927 378.5638,91.6737 C378.8788,95.2827 377.9558,98.9007 375.2148,101.6967 L375.019911,101.884441 L375.019911,101.884441 L374.6208,102.2417 L374.5888,102.3997 C375.5638,104.9117 375.4618,107.6787 374.0618,109.9557 C374.1848,112.0477 374.5548,114.0927 375.2578,116.0367 C377.9658,118.2277 380.3558,120.7447 382.4928,123.4767 C383.9198,122.1847 386.0738,121.6017 387.9368,122.3077 C388.4538,122.1317 388.9858,122.0177 389.4968,121.9667 C390.3468,121.8807 391.1798,121.8837 391.9978,121.9437 C392.3758,121.3947 392.8088,120.8727 393.3038,120.3837 C396.7828,116.9447 401.8318,117.0157 405.8398,119.1517 C406.5568,118.6287 407.3658,118.1667 408.2818,117.7797 C418.4988,113.4727 425.1958,126.4377 426.1918,134.5187 C426.7348,138.9277 422.9408,141.6467 419.0468,141.8757 C418.2558,144.5487 415.7158,146.4727 412.8788,147.1257 C413.3828,150.4277 411.1928,153.7977 408.2108,155.0537 C406.8798,155.6147 405.5918,155.7677 404.3798,155.6047 L404.4378,156.3867 L404.4378,156.3867 C404.6728,159.4877 403.1048,161.4617 400.9578,162.3367 C400.5798,163.8727 399.5308,164.9867 398.2178,165.5577 C403.2358,177.1817 407.1968,189.3597 410.3918,201.3707 C415.6658,221.1987 419.2118,241.3877 421.5898,261.7597 C425.7728,297.5727 425.9368,334.1217 421.7488,369.9497 C419.6178,388.1817 416.0758,406.0017 408.8318,422.9347 C402.7898,437.0587 394.3848,449.3157 384.7118,461.1757 C365.4938,484.7317 337.9858,502.0847 307.6688,506.3957 C291.7548,508.6587 275.4328,507.9227 259.9028,503.5867 C244.4398,499.2697 227.9528,491.8667 218.2118,478.7197 C215.5738,475.1607 216.8578,469.3867 219.7948,466.4497 C223.1458,463.0987 227.9718,462.8827 232.0638,464.8667 C239.3248,468.3877 245.8518,473.2007 253.2338,476.5607 C259.8948,479.5937 267.0978,481.5357 274.2698,482.9077 C288.4768,485.6267 303.9248,484.9317 318.0888,481.1407 C343.7748,474.2677 366.4058,457.6797 380.7728,435.3117 C397.7448,408.8867 403.8038,377.9177 406.5778,347.0567 C409.6128,313.2787 409.2958,279.0367 405.2698,245.3547 C403.2738,228.6517 400.2018,212.0987 396.5648,195.6817 C393.9758,183.9927 391.0548,172.3817 388.3058,160.7327 C385.8128,158.3537 383.4028,155.8967 381.0808,153.3507 L381.0098,153.3457 L381.0098,153.3457 C380.7158,153.4187 380.4098,153.4737 380.0818,153.4987 C366.2868,154.5507 351.3358,153.1657 339.5668,145.2157 C334.7838,141.9847 330.7378,137.8947 327.7268,133.1857 C323.4978,130.2547 319.6448,126.5567 316.7508,122.2837 C314.6988,120.0317 312.7538,117.6787 310.9048,115.2397 C306.3018,109.1617 303.8558,102.7827 301.1108,95.7697 C301.0468,95.6087 301.0048,95.4507 300.9728,95.2957 C300.4478,94.4367 300.0748,93.4957 299.8948,92.5457 C293.7708,91.8187 287.6218,91.3367 281.5328,91.0467 C279.3768,90.9447 277.2148,90.8637 275.0518,90.7937 C275.6198,92.9067 275.9618,95.0987 276.0358,97.3497 C277.7818,97.4277 279.5618,97.6307 281.3838,97.9217 C289.9298,99.2827 295.4108,103.6587 300.6008,110.5157 C305.6528,117.1897 309.6798,125.2167 312.6718,133.0237 C314.5058,137.8037 312.0588,143.0877 308.0368,146.1647 C297.5948,147.0517 287.3348,149.2957 277.7248,153.7417 C277.3868,153.8987 277.1418,154.1737 276.9798,154.4977 C269.3058,156.7837 261.5748,158.8747 253.8488,160.6497 C246.3898,162.3637 238.8578,163.0767 231.3578,161.1857 C228.1338,160.3727 224.9808,159.1687 221.8798,157.8187 C220.2138,158.0207 218.4098,157.7027 216.5748,156.6507 C213.7968,155.0597 211.0018,153.3197 208.2498,151.4477 C203.3868,149.1157 198.6038,146.6107 194.0358,143.7477 L194.0108,143.7127 L194.0108,143.7127 C190.3678,139.2937 185.1708,134.7917 179.3528,131.3827 C178.7088,130.3997 178.1408,129.3657 177.6878,128.2607 C175.1848,122.1717 176.2298,114.8067 181.5098,110.6187 C181.5868,109.1737 182.2158,107.7587 183.6108,106.6237 C184.7148,105.7247 185.8518,104.8707 187.0178,104.0567 C186.7738,103.8757 186.5278,103.7007 186.2848,103.5157 C185.8048,103.1527 185.3438,102.7617 184.8938,102.3587 C181.3688,104.2907 177.8128,106.1817 174.1758,107.8657 C174.0838,107.9327 173.9968,108.0037 173.8998,108.0667 C167.0608,112.5557 160.5878,117.7117 153.6638,122.0377 C152.0058,123.0727 150.3548,124.0767 148.7158,125.0837 C148.1008,125.9227 147.4998,126.7737 146.9198,127.6407 C146.6718,128.9747 146.2948,130.3067 145.8268,131.6037 C146.7328,132.3247 147.4698,133.2747 147.9708,134.4007 C150.1228,135.2197 152.1478,136.2587 154.0368,137.4977 L155.7118,138.2407 L155.7118,138.2407 C157.8648,136.5147 160.1398,134.9547 162.5838,133.6577 C170.2548,134.1557 178.5448,139.5907 184.3728,145.1317 C184.7808,145.5917 185.1798,146.0557 185.5608,146.5267 C185.9298,146.8247 186.3018,147.1417 186.6728,147.4527 C187.2758,148.1017 187.8388,148.7437 188.3548,149.3687 C188.9338,150.0717 189.5878,150.4587 190.2518,150.6207 C193.8218,153.9727 197.1668,157.7447 199.4548,161.6637 C203.1288,167.9557 200.5538,175.7987 197.8648,181.9727 C197.4248,182.9807 196.9618,183.9727 196.4758,184.9537 C191.3338,191.8807 186.4588,199.0017 181.5868,206.1247 C178.3038,209.2977 175.0438,212.4907 171.9248,215.8107 C171.4138,216.1527 170.8768,216.4807 170.2868,216.7847 C161.210278,221.456004 152.431922,216.197509 143.784232,212.922845 L142.818531,212.565526 C133.907123,209.343204 122.814434,207.225668 122.2518,195.6217 C122.1748,194.0407 122.2358,192.4207 122.3928,190.7827 C124.5868,184.9687 127.1008,179.2617 129.9038,173.7027 C129.3388,173.0917 128.8318,172.4147 128.4048,171.6597 C127.5018,170.5157 126.7468,169.2817 126.1718,167.9797 C122.0328,175.9057 118.0908,184.4067 112.7708,191.3607 C109.8388,195.1937 106.1868,196.5747 102.3108,196.5657 C100.6758,197.3907 98.8458,197.6677 97.0838,197.4597 L97.2698991,199.581059 C97.4318816,201.349965 97.6192286,203.117414 97.8928,204.8517 C101.6398,204.7907 105.5558,205.8177 109.0468,207.1987 C119.2928,211.2497 129.1658,216.8597 139.0498,221.7227 C143.8228,224.0707 150.3808,226.0387 154.2798,229.7057 C157.2678,232.5187 156.9258,236.0027 155.7908,239.6267 C155.5958,240.2447 155.3838,240.8577 155.1818,241.4727 L155.1688,241.6737 L155.1688,241.6737 C151.9818,245.6887 149.7988,250.4797 148.2148,255.4257 C145.6268,259.8257 143.8218,264.7637 142.5918,269.6027 C141.594467,273.534283 140.886189,277.546533 140.425373,281.596316 L140.3058,282.7017 L140.2398,282.8317 L140.2058,283.7867 L140.2058,283.7867 C139.5498,290.9177 139.6278,298.1387 140.2218,305.2117 C140.3878,307.1807 140.5938,309.1527 140.8508,311.1177 C139.7368,314.6027 134.4478,315.0877 131.7068,312.9497 C128.6888,310.5967 125.5198,308.4577 122.2288,306.5277 C117.7428,308.5717 112.5548,308.9207 107.5418,307.2457 C107.1838,307.1267 106.8438,306.9827 106.4998,306.8467 C102.7428,307.3127 99.0228,308.1887 95.4628,309.2257 L94.3950231,309.541507 C88.7157135,311.250306 83.3025647,313.387994 79.0268,317.7287 C71.4298,325.4397 68.9828,337.9027 70.5328,348.3367 C72.0398,358.4877 77.9298,370.0887 88.5428,373.0397 C92.8858,374.2477 97.5668,374.2127 101.7898,372.5247 C103.3938,371.8837 104.7688,370.9547 106.1228,369.9357 C107.7848,368.6837 109.0978,367.2747 111.0698,366.4827 C112.8708,365.7597 115.9818,365.8157 116.8608,365.7737 C119.6058,365.6407 121.9288,367.7897 122.7368,370.2477 C125.2008,377.7487 121.5008,383.2587 115.5558,386.9457 C118.0568,390.7317 120.4008,394.6867 122.8768,398.2637 C127.5028,404.9477 132.3878,411.4077 137.4508,417.7637 C142.6478,424.2907 148.1878,430.5017 154.2268,436.2637 C156.9528,438.8647 159.7638,441.3767 162.6548,443.7917 L164.251889,445.113491 C166.950715,447.36733 169.311567,449.662491 169.2178,453.5957 C169.1668,455.7987 167.7038,457.8447 165.5368,458.4317 C157.871216,460.507349 149.836577,450.457324 144.843678,445.30141 L144.4508,444.8997 C138.4078,438.7867 132.7868,432.2187 127.7038,425.2847 C122.4648,418.1377 118.1738,410.2427 114.7148,402.0997 C113.1088,398.3157 111.3638,393.9907 110.1288,389.6137 C103.4678,392.1967 95.7328,393.1197 90.4378,392.5127 C85.5508,391.9537 81.0898,390.5497 77.0608,388.5027 C76.2368,390.3487 75.1288,392.0657 73.7828,393.4937 C68.7908,398.7907 61.5258,400.3027 54.4888,400.2377 C45.4768,400.1557 37.3898,394.4727 37.0628,384.8847 C36.8508,378.6697 40.0708,373.3357 44.7698,369.6997 C46.5128,365.3977 49.8218,361.8527 54.6168,360.7017 C51.4438,350.8927 50.8848,340.0847 53.2688,330.1817 C55.629263,320.377681 61.0164331,311.090958 68.9831044,304.972619 L69.4368,304.6297 L69.2448,304.7317 C67.3628,305.7687 65.5268,306.8877 63.6648,307.9597 L62.8283561,308.436607 C54.558495,313.106107 44.9803738,317.117044 35.3508,314.6197 C20.0678,310.6557 18.7458,291.5947 31.8948,284.0717 C36.4388,281.4717 41.6898,280.4907 46.8738,279.8407 C47.6928,278.7727 48.6668,277.8187 49.7418,277.0467 C49.9018,273.5437 51.6638,270.0417 54.7808,267.8417 C57.9588,265.5977 61.5288,265.3757 64.8528,266.4057 C66.0918,265.4757 67.4348,264.6617 68.9118,264.0257 C70.1938,263.4717 71.4938,263.0697 72.7968,262.7917 C72.7738,261.7457 72.7618,260.6997 72.7458,259.6527 C72.5368,258.6777 72.4108,257.6557 72.2798,256.5927 C72.0448,256.5527 71.8068,256.5147 71.5758,256.4647 C68.1898,255.7247 65.1308,254.2057 62.4678,252.1577 C58.2088,254.8487 53.0388,255.8667 46.8918,254.0467 C41.1848,252.3567 35.8058,247.0467 33.1468,240.9457 C29.5018,240.2127 25.9628,239.1477 22.8638,237.1277 C17.1258,238.4917 10.9418,236.2857 8.6158,230.3457 C6.8908,225.9417 8.9648,220.6177 12.6628,217.8877 C13.7398,217.0927 14.9048,217.2417 15.8308,217.8567 C16.0498,217.1417 16.3068,216.4337 16.6228,215.7417 C16.7498,215.4627 16.8878,215.1907 17.0278,214.9197 C16.8898,209.0857 19.0068,203.4457 24.3028,200.3157 C28.2338,197.9927 32.9218,197.7397 37.1468,199.0817 C39.4678,196.9187 42.4078,195.2667 46.0588,194.3597 C52.4788,192.7637 59.2378,194.5837 63.8078,199.3987 C64.7968,199.1077 65.8208,198.9007 66.8688,198.7697 C67.2498,196.0837 68.1638,193.5007 70.0698,191.4847 C71.4378,190.0377 73.0778,188.8857 74.8518,188.0777 C75.6608,185.0347 76.9878,182.3107 79.2098,180.0307 C78.1238,179.1137 77.1368,178.0817 76.2948,176.9337 C75.3608,176.7777 74.4338,176.5767 73.5298,176.2867 C68.6998,174.7357 65.3698,171.6917 63.1108,167.8977 C58.9278,168.9687 54.4988,168.5767 50.1458,165.8457 C46.9978,163.8707 44.6248,160.7127 43.3728,157.1847 L39.7978,155.9317 L39.7978,155.9317 C36.4288,154.7397 34.0108,152.5137 32.6308,149.8647 C30.8758,150.4957 28.9418,150.4727 27.3668,149.2567 C18.1378,142.1327 24.4408,130.3287 34.3198,127.9847 C38.3388,127.0317 41.8478,127.5747 44.9678,129.0277 C47.1878,126.8887 49.9728,125.2827 53.1598,124.5587 C56.8768,123.7147 60.7938,124.3337 64.2238,125.9737 L65.1098,125.9617 L65.1098,125.9617 C68.5638,123.3967 72.9968,122.2477 78.4138,123.4867 C84.5468,124.8897 88.7278,128.3227 91.5618,132.7937 C92.4728,131.9707 93.4988,131.2457 94.6168,130.6367 C97.7888,128.9107 101.1768,128.4847 104.4218,129.0247 C105.5138,127.4687 106.6338,125.9337 107.7878,124.4257 C105.0468,122.2847 103.1728,118.9637 103.0738,115.2787 C102.2458,114.7627 101.4438,114.1757 100.6768,113.6357 C96.9238,110.9927 93.7418,107.6787 92.2948,103.2237 C91.5728,101.0017 91.3098,98.6857 91.3938,96.3637 C90.9898,96.2757 90.5878,96.1817 90.1888,96.0677 C74.2388,91.4797 67.6268,69.4967 80.2328,57.6987 C86.8528,51.5027 96.9158,55.0117 103.4638,59.5867 C107.9288,62.7067 111.4758,66.5857 114.6898,70.8717 C114.8408,70.9027 114.9878,70.9127 115.1398,70.9497 C119.7558,72.0407 123.4268,75.0017 126.1388,78.7877 C130.9288,77.9557 136.0278,78.8807 140.5718,82.2057 C143.8848,84.6297 145.9658,87.6297 147.0458,90.8897 C151.3498,88.6437 155.7798,86.6747 160.3058,84.9357 C160.6028,84.2227 160.9128,83.5087 161.2718,82.7997 C161.9698,81.4227 162.8798,80.2257 163.9378,79.2137 C162.7858,77.9257 161.7658,76.4867 160.9448,74.8857 C157.0478,67.2917 158.4558,59.6057 162.7628,53.7907 C160.8798,49.5507 160.2998,44.7427 161.4148,40.1687 C161.6218,39.3197 161.8828,38.5037 162.1878,37.7187 C159.5748,33.6457 157.8998,28.9577 157.4668,24.0907 Z M87.5293,331.2809 C90.2943,330.6079 90.9453,329.7259 94.0543,329.9799 C96.4613,330.1769 98.9223,330.5889 101.2573,331.1929 C106.8263,332.6349 112.0233,335.5489 116.5993,338.9799 C123.08974,343.84674 115.319725,352.891746 110.150141,347.701555 L109.9943,347.5399 C106.5203,343.8159 102.6213,340.9069 98.2553,338.3129 C96.0423,336.9989 93.7583,336.0499 91.4453,334.9449 C89.8463,334.1819 88.9223,332.9329 87.4183,332.1379 C87.0633,331.9499 87.1463,331.3749 87.5293,331.2809 Z M102.4128,257.9837 C100.8848,257.4447 99.1308,258.5957 98.7218,260.0787 C98.28305,261.676521 99.2139645,263.121848 100.655564,263.707232 L100.8178,263.7687 C102.775,264.459367 104.562333,265.607367 106.083862,267.012693 L106.4058,267.3177 C109.1768,270.0097 113.4238,265.7717 110.6488,263.0747 C108.2948,260.7877 105.5048,259.0737 102.4128,257.9837 Z M174.1898,148.7707 C172.611462,145.316669 167.572124,148.216528 168.939953,151.637961 L169.0088,151.7987 C170.430925,154.909356 169.848464,158.519282 168.297847,161.449311 L168.1448,161.7307 C166.2588,165.1047 171.4398,168.1337 173.3258,164.7587 C176.1238,159.7507 176.5878,154.0167 174.1898,148.7707 Z M217.76156,105.769545 L217.6918,105.4237 C216.9818,101.6327 211.1978,103.2377 211.9068,107.0177 C213.0848,113.3027 217.6498,117.4317 223.5048,119.4817 C227.157673,120.7597 228.7268,114.9657 225.1008,113.6957 C221.219689,112.337506 218.625017,109.763763 217.76156,105.769545 L217.76156,105.769545 Z M312.3108,99.6987 L311.2918,99.6547 L311.2918,99.6547 L312.0678,100.6787 L312.0678,100.6787 C312.1428,100.3497 312.2218,100.0227 312.3108,99.6987 Z" id="ðŸ–-Ink" fill="#000000"></path>
    </g>
</svg>