<?xml version="1.0" encoding="UTF-8"?>
<svg width="473px" height="567px" viewBox="0 0 473 567" version="1.1" xmlns="http://www.w3.org/2000/svg" xmlns:xlink="http://www.w3.org/1999/xlink">
    <!-- Generator: Sketch 62 (91390) - https://sketch.com -->
    <title>head/mono/Bear</title>
    <desc>Created with Sketch.</desc>
    <g id="head/mono/Bear" stroke="none" stroke-width="1" fill="none" fill-rule="evenodd">
        <path d="M403.3322,205.3824 C421.4592,193.7564 446.1932,164.0914 432.1362,141.5964 C426.4272,132.7994 418.6422,129.4924 410.0962,129.2274 C408.0592,126.6714 404.6742,125.9224 401.5152,125.9044 L401.5332,125.7694 C389.9852,125.9814 378.6362,130.0264 369.3482,136.7804 C363.3602,131.5194 355.9232,128.5274 348.7192,125.2924 C351.7402,110.0974 356.3502,95.2754 361.5852,80.7094 C364.4102,72.3224 355.4612,63.4874 347.0232,66.0214 C349.0992,56.9294 344.3292,46.3694 333.9392,46.4864 C328.3842,46.4864 322.0982,49.4644 316.7262,50.8064 C312.7472,51.8004 308.8282,52.8204 304.9882,54.1174 C304.9702,54.0134 304.9602,53.9084 304.9492,53.8024 C315.0132,46.7564 314.6622,30.5344 299.8732,32.1074 C293.5642,32.6644 287.1502,36.9584 281.3162,39.5804 C271.6992,40.1594 262.4632,43.2154 253.1152,45.4084 C227.5362,51.7534 200.1702,58.1294 179.0972,74.2294 C142.5982,88.2954 97.2022,110.0404 92.6802,153.0234 C28.3952,128.1514 -20.1678,207.5734 38.1302,238.8264 C49.5702,244.1594 62.7942,246.9204 75.3092,244.3554 C72.3522,255.2914 69.5262,266.2644 66.8812,277.2814 C44.6182,328.4324 26.6182,382.4894 33.0932,438.6314 C33.1882,448.8164 46.2682,454.6914 53.4982,447.0834 C59.4792,439.8674 66.7362,448.3024 64.7862,455.2694 C62.9382,463.0084 68.3872,470.1134 76.3132,470.4004 C85.7982,470.8974 93.3322,464.5364 100.0442,458.6614 C99.9152,458.7884 100.2212,458.5954 100.6672,458.2944 C117.2292,497.3574 132.7472,466.9844 153.1602,484.5604 C157.9302,488.9664 161.2772,494.1864 167.3882,497.0524 C181.7202,504.3134 193.0362,491.3704 206.7262,489.8764 C219.3812,488.9444 231.8942,493.3254 244.0292,496.2734 C258.2002,499.7144 272.4882,501.5164 287.0452,499.9024 C305.6582,497.8364 342.793934,489.426337 353.78455,482.501428 C367.25055,491.539428 381.1072,480.8194 388.5092,468.4764 C393.6862,473.4604 403.4812,474.2244 407.6412,466.5384 C411.7792,457.9674 419.5132,444.8674 428.4072,446.8084 C429.2012,447.0514 429.6662,447.2034 430.1512,447.5554 C438.4642,454.6224 449.1962,449.2574 450.4122,438.9864 C458.2922,372.4394 442.2182,305.6814 420.8452,243.0554 C416.1792,229.9594 412.3082,216.3464 403.3322,205.3824 Z" id="ðŸŽ¨-Background" fill="#FFFFFF"></path>
        <path d="M395.9843,203.5419 C395.6483,202.6199 397.0603,202.0899 397.5263,202.8919 C412.8013,229.1499 425.0113,257.0419 435.4543,285.5339 C444.6973,310.7539 452.8943,336.4609 458.7353,362.6949 L459.132346,364.500681 C464.626022,389.817059 467.334742,416.598249 460.1293,441.8549 L459.781092,443.056444 C458.122136,448.67414 455.930233,454.380167 450.8053,457.7159 C446.5013,460.5189 441.6313,460.8689 436.6753,460.0899 C432.4993,459.4329 428.5213,457.6129 424.3363,457.1089 C421.181416,456.729784 420.357706,458.244502 419.437901,460.793814 L418.673891,462.952231 C415.394667,472.09944 411.390377,480.611977 400.6923,482.5389 C394.9313,483.5779 388.6723,482.4999 383.6813,479.4719 C383.6233,479.6659 383.5653,479.8589 383.5173,480.0449 L383.281151,480.945884 C382.237024,484.857079 380.893514,488.832757 378.1273,491.8729 C374.2633,496.1149 368.7213,497.6189 363.1363,496.4929 C360.5983,495.9819 358.2143,494.8289 355.8053,493.8679 C355.2163,497.4159 351.1413,500.3069 347.4133,499.4329 C345.3963,498.9609 343.8413,498.0429 342.6833,496.8609 C336.9243,501.3039 329.1563,503.5769 322.4283,505.2989 C312.6853,507.7919 302.3173,508.8159 292.2703,508.5159 C282.0723,508.2109 271.6973,506.2479 262.1053,502.7929 L260.606094,502.24665 C252.331044,499.194382 243.620014,495.330957 236.9163,489.6229 C235.5843,488.9679 236.3633,486.5489 237.9513,487.0619 C247.0573,490.0059 255.5513,493.4649 265.1083,494.8809 C274.1263,496.2169 283.1833,496.4379 292.2703,495.8879 C301.4843,495.3309 310.4243,493.4509 319.2173,490.6709 C326.8693,488.2519 334.4063,483.8839 342.5323,483.3129 C342.9563,482.7259 343.4163,482.1589 343.9473,481.6419 C350.9763,474.8149 358.0973,478.2299 366.0073,480.7159 C366.2673,480.7989 366.3403,480.9369 366.3413,481.0719 L366.437893,480.934567 L366.437893,480.934567 L366.500271,480.851012 L366.45367,480.908502 C366.124733,481.279863 366.783104,479.900293 366.900219,479.618232 L366.9123,479.5879 C367.8213,477.1069 368.1733,474.4409 368.9423,471.9179 C370.7763,465.8919 374.2053,460.3789 380.7733,458.9369 C384.0153,458.2239 388.4333,459.3099 389.9343,462.6649 C391.1703,465.4239 393.1943,466.8219 396.3093,466.7489 C399.5623,466.6739 400.7593,464.7769 401.8923,461.9189 C403.7353,457.2689 404.7303,452.4309 407.7583,448.3289 C411.1633,443.7149 416.2523,441.0209 422.0023,440.7999 C426.4333,440.6309 430.7733,441.9229 434.9873,443.1189 L435.375189,443.23555 C437.299358,443.839247 440.737633,445.1993 442.2403,444.1969 C444.493321,442.693581 445.657211,433.927468 446.30948,430.648814 L446.3513,430.4429 C447.5123,424.8559 448.1863,419.2259 448.4603,413.5269 C449.6033,389.6909 444.6893,365.9779 439.2543,342.9069 C428.0443,295.3289 412.7003,249.4309 395.9843,203.5419 Z M76.5754,261.7149 C76.8784,261.2609 77.5404,261.6539 77.3034,262.1409 C76.2044,264.4019 75.8034,266.7769 75.0614,269.1319 C74.2404,271.7389 72.8454,274.2669 71.8104,276.7969 C70.1344,280.8939 68.5114,285.0149 66.8744,289.1279 C63.5834,297.3979 60.5234,305.7929 57.6234,314.2089 C51.8004,331.1159 47.0414,348.4969 43.5604,366.0369 C40.1394,383.2699 37.2754,401.2889 37.3844,418.9039 C37.4334,426.9149 38.3084,435.1639 41.4874,442.6029 C41.9857333,443.7704 42.5708722,444.913594 43.191312,446.02496 L43.5674,446.6879 C43.6204,446.7819 43.6759556,446.874567 43.7326963,446.966604 L44.0764,447.5169 C45.0802095,446.044519 47.9733615,444.095948 49.1674744,443.063692 L49.3334,442.9159 L54.9354,437.7339 C57.3744,435.4759 60.8934,434.9329 63.8424,436.5839 C72.8064857,441.6002 72.5157704,450.915974 74.4345478,459.708941 L74.5194,460.0909 C75.3544,463.7859 76.7984,466.8569 81.2244,466.1319 C85.842166,465.37456 88.5101017,460.68089 90.0181333,456.643874 L90.2124,456.1099 C92.8774,448.5949 102.4604,448.8949 105.2194,456.1099 L106.253609,458.841553 C108.39324,464.442837 111.308327,471.200209 116.8304,473.4169 C121.4734,475.2809 126.7934,472.4929 131.0164,470.7629 C133.3384,469.8119 136.0484,471.7959 136.6674,473.9719 C136.8354,474.5639 136.9484,475.1299 137.0364,475.6869 C141.4514,475.2589 145.6774,476.3129 150.0194,478.3179 C155.7034,480.9399 162.8494,486.6009 163.9174,493.1619 C165.1824,500.9189 156.1984,504.5809 151.5624,498.3709 C148.6434,494.4599 147.5864,489.7109 144.0964,485.9939 C142.0464,483.8119 139.4974,481.9169 136.8224,480.3059 C134.4314,488.7569 121.0114,491.1929 113.0124,488.6909 C105.3324,486.2909 100.2414,480.6309 96.4394,474.0109 C89.3314,480.9599 79.4684,484.3229 69.5844,478.2609 C63.8614,474.7509 61.1934,468.6119 60.1594,462.2349 C59.8484,460.3179 59.8304,457.1669 59.2804,454.3989 L58.747234,454.942213 C53.9196347,459.823727 48.3070786,464.414829 41.9804,463.3599 C33.6874,461.9779 29.7504,452.7479 27.1644,445.7179 C21.7864,431.1069 22.7774,414.8589 24.5994,399.6889 C26.5954,383.0799 29.9354,366.6279 34.3554,350.4969 C38.6664,334.7619 44.2474,319.4919 50.8134,304.5609 C54.1604,296.9519 58.0204,289.5299 62.1694,282.3259 C64.2534,278.7099 66.5224,275.1929 68.8024,271.6979 C71.1554,268.0899 74.2144,265.2479 76.5754,261.7149 Z M26.8932,158.8984 C39.0712,147.5974 55.3532,142.4454 71.7732,144.7694 C79.5232,145.8644 86.9032,148.6664 93.4462,152.9894 C100.0832,157.3744 104.3832,162.8024 108.3552,169.5914 C108.6322,170.0644 108.0032,170.5134 107.6192,170.1584 C97.0312,160.4024 80.9982,155.1954 66.7492,155.7454 C41.3562,156.7244 20.3042,179.1904 21.8822,204.7954 C22.6592,217.4054 29.7472,230.1414 40.7072,236.6304 C52.3222,243.5074 65.5432,241.2244 77.9902,238.1964 C82.4852,237.1034 84.7492,242.1544 82.1862,245.4044 C69.5622,261.4204 43.6042,257.2324 29.0302,246.2164 C0.8682,224.9314 1.8312,182.1554 26.8932,158.8984 Z M67.7847,184.1167 L68.8649919,183.931332 C77.95018,182.431231 97.29226,180.70062 100.1377,191.7867 C101.5877,197.4327 95.9797,200.4727 91.0717,200.2227 C87.0247,200.0167 83.1027,198.7497 79.1077,197.8897 C77.9607,201.8547 77.5707,205.9957 77.0117,210.0777 C76.5237,213.6517 70.7747,212.6817 70.8427,209.2437 C70.9387,204.4627 73.1597,200.3977 76.6557,197.4307 C75.8397,197.3047 75.0197,197.1987 74.1917,197.1427 C64.2597,196.4757 54.4467,198.3197 45.1687,201.7257 L46.1497,202.2767 L46.1497,202.2767 C46.6177,202.4387 46.4177,203.0637 45.9497,202.9997 L41.3347,203.2317 L41.3347,203.2317 C39.4037,203.6837 38.2637,201.4777 39.4807,200.0457 C46.6307,191.6247 56.9457,186.0497 67.7847,184.1167 Z M399.0461,124.7682 C412.9181,123.1062 426.6981,128.2182 434.1441,140.4222 C441.0531,151.7432 441.6521,166.0762 436.7521,178.2422 C433.9671,185.1542 429.7611,191.3532 424.5551,196.6832 C421.9811,199.3182 419.0311,202.0372 415.7691,203.7802 C411.9701,205.8102 409.1421,205.6332 405.1341,204.8882 C402.5531,204.4082 400.7721,201.0952 401.5971,198.6602 L402.211539,196.813852 C402.882051,194.831286 403.509544,193.361978 405.3451,191.4922 C406.9471,189.8612 408.8641,188.5402 410.6251,187.0862 C414.4121,183.9572 417.9311,180.4652 420.5631,176.2922 C425.3741,168.6612 427.0421,159.8902 424.3261,151.1872 C421.4111,141.8412 413.6931,135.7882 404.0221,134.6602 C398.530709,134.021243 392.958803,134.599149 387.542675,135.557269 L384.24105,136.153934 C379.634483,137.006687 375.876752,137.997483 372.6991,142.2222 C372.4311,142.5772 371.9121,142.5452 371.7571,142.0992 C370.1641,137.5102 375.0291,133.4152 378.4741,131.2452 C384.4591,127.4802 392.0931,125.6012 399.0461,124.7682 Z M338.59,119.1809 C337.911,118.3159 338.494,116.5619 339.82,117.0659 C355.272,122.9329 368.286,137.2179 377.194,150.7139 C379.89,154.7969 382.307,159.0369 384.49,163.3959 C387.605607,159.610114 392.260111,156.871336 396.61361,155.009205 L397.096,154.8059 C402.118,152.7199 412.979,149.1499 416.055,155.8339 C417.044,157.9849 416.648,160.1919 414.914,161.8589 C412.233,164.4349 407.951,163.4589 404.606,163.4289 C397.846,163.3709 392.478,165.5069 386.496,167.5809 C387.585,169.9549 388.615,172.3579 389.574,174.7939 C390.881,178.1069 391.845,181.5979 393.43,184.7929 C394.935,187.8299 397.299,190.5429 399.317,193.2359 C402.042,196.8699 398.399,203.0119 393.958,202.5759 C384.766,201.6719 381.103,194.0759 378.572,186.0249 L377.192171,181.621456 C375.123983,175.044288 372.995,168.597536 369.89,162.3409 C365.896,154.2969 361.131,146.4389 355.65,139.3179 C350.275,132.3359 344.006,126.1029 338.59,119.1809 Z M314.6644,24.3784 C320.3744,22.2504 325.1754,29.5794 322.3324,34.3524 C319.8334,38.5444 318.3474,42.8734 317.7654,47.4154 L342.9394,41.4174 L342.9394,41.4174 C347.9444,40.2254 352.6794,44.6484 351.2964,49.7754 L347.4114,64.1804 L347.4114,64.1804 C352.4314,62.5014 357.6824,61.5064 363.0794,61.1554 C367.7044,60.8554 370.2584,65.6294 369.4984,69.5814 C367.911558,77.8149789 365.705436,85.8977767 362.766098,93.7490177 L360.618256,99.4003271 C358.09259,105.980301 355.145127,112.620218 349.0554,116.3274 C346.1134,118.1184 342.2984,115.8024 342.2844,112.4434 C342.2494,104.3104 347.2694,97.3614 350.0594,89.8624 C351.7534,85.3104 353.1904,80.6794 354.4104,75.9894 C349.684686,77.3255905 345.238337,79.4445474 341.03939,82.2391549 L340.4114,82.6634 C335.446506,86.0668824 329.210067,80.5363456 330.4451,75.2278783 L330.4924,75.0384 L335.2364,57.2504 L312.6714,62.6954 L312.6714,62.6954 C308.0204,63.8184 304.4494,60.5684 304.0084,56.0964 C303.5404,51.3424 303.8414,46.6114 304.8304,42.0294 C289.916114,46.7255905 274.69616,50.3796041 259.429687,53.7930821 L257.1394,54.3034 C223.6344,61.7434 189.3994,68.3124 158.6604,84.2364 C145.0854,91.2674 132.6384,99.5914 121.3174,109.8864 C115.7234,114.9734 110.6064,120.5714 106.1264,126.6644 C104.025067,129.523067 102.059635,132.481289 100.258899,135.537662 L98.8170146,138.025776 C98.1244165,139.226888 97.4507636,140.463582 97.0384,141.7574 L96.8346589,142.404991 C96.501272,143.498767 96.1405176,144.936988 96.4444,145.8964 C96.8814,147.2784 99.3834,149.5504 101.1514,148.9284 C101.3924,148.8434 101.5144,149.1574 101.3784,149.3204 C99.8204,151.1964 97.6264,151.5344 95.3944,150.5914 C91.8644,149.0984 90.9844,145.6904 91.3744,142.1344 C92.3414,133.3334 98.4654,123.6284 103.3074,116.4444 C123.2464,86.8574 156.0564,69.1534 189.1524,58.0614 C230.3024,44.2694 273.9214,39.5604 314.6644,24.3784 Z" id="ðŸ–-Ink" fill="#000000"></path>
    </g>
</svg>