<?xml version="1.0" encoding="UTF-8"?>
<svg width="473px" height="567px" viewBox="0 0 473 567" version="1.1" xmlns="http://www.w3.org/2000/svg" xmlns:xlink="http://www.w3.org/1999/xlink">
    <!-- Generator: Sketch 62 (91390) - https://sketch.com -->
    <title>head/mono/Bun</title>
    <desc>Created with Sketch.</desc>
    <g id="head/mono/Bun" stroke="none" stroke-width="1" fill="none" fill-rule="evenodd">
        <path d="M120.4319,26.5199191 C183.446324,23.0799421 239.27554,5.37473001 283.6318,44.9997826 C331.469886,9.27495986 359.379886,-1.784301 367.3618,11.822 C375.384449,25.4977403 364.258564,43.8564114 367.2418,60.7319165 C386.69384,93.892526 385.594059,150.020553 386.69384,163.174008 C389.465854,196.327487 406.926226,321.084154 406.926226,350.709536 C406.926226,365.83145 394.458487,405.436158 386.69384,427.476308 C369.41148,476.532731 336.422265,501.533909 282.321276,501.533909 C228.220287,501.533909 139.916772,456.316062 111.596364,416.1693 C109.114385,412.650868 93.0642939,422.915625 76.2765664,405.109924 C58.089672,385.820213 48.0005996,349.028234 48.0005996,327.096436 C48.0005996,299.265802 30.0141676,279.965538 32.1062727,244.341459 C36.7785376,164.78277 53.0035244,30.2008552 120.4319,26.5199191 Z" id="ðŸŽ¨-Background" fill="#FFFFFF"></path>
        <path d="M113.3918,-65.978 C114.2118,-66.028 115.0418,-65.988 115.8718,-65.907 C116.7818,-65.867 117.6918,-65.778 118.6018,-65.597 C123.2318,-64.708 127.3618,-62.258 130.5618,-58.808 C130.6518,-58.718 130.7218,-58.617 130.8018,-58.528 C132.3018,-57.398 133.6918,-56.117 134.9418,-54.758 C135.1618,-54.968 135.3718,-55.177 135.6018,-55.387 C136.2618,-55.968 136.9518,-56.518 137.6718,-57.037 C140.684843,-59.6205652 144.219399,-61.4987164 148.021673,-62.5673103 L148.5418,-62.708 C148.6418,-62.738 148.7418,-62.758 148.8418,-62.778 C151.5418,-63.677 154.3818,-64.137 157.2418,-64.128 C160.6618,-64.238 164.0918,-63.677 167.2918,-62.358 C171.0818,-60.787 174.3818,-58.308 177.1518,-55.327 C178.9718,-53.847 180.5618,-52.218 182.2418,-50.427 C185.7118,-46.718 188.4518,-42.378 190.1818,-37.597 C190.4218,-36.927 190.6318,-36.238 190.8218,-35.548 C195.0518,-36.037 199.3018,-36.387 203.5518,-36.558 C208.3218,-36.847 213.0918,-36.948 217.8718,-36.787 C231.0418,-36.358 243.9218,-34.037 256.3918,-29.787 C258.8918,-29.048 261.3218,-28.108 263.6618,-26.948 C267.3318,-25.488 270.8018,-23.628 274.0718,-21.378 L276.8574,-19.726 C278.2566,-18.8944 279.6558,-18.052 281.0118,-17.188 C284.2418,-15.117 287.3018,-12.798 290.2018,-10.298 C293.2618,-7.827 296.1518,-5.137 298.9018,-2.318 C299.6488,-1.555 300.3698,-0.782 301.0808,-0.00399999999 C307.4198,3.417 313.0508,7.797 318.3028,13.021 C322.4678,10.625 326.7808,8.453 331.2318,6.522 C335.8218,4.532 341.6518,2.482 346.4618,1.133 C350.7818,-0.077 355.0518,-0.907 359.3818,-1.518 C361.3518,-1.858 363.3318,-2.128 365.3218,-2.358 L365.2418,-2.327 L365.2418,-2.327 C366.6418,-2.478 368.0318,-2.608 369.4418,-2.728 L369.4018,-2.738 L369.4018,-2.738 C370.0018,-2.787 370.6118,-2.838 371.2118,-2.878 L372.6718,-2.997 L372.6718,-2.997 C373.1118,-3.037 373.7518,-2.008 373.7918,-1.648 L373.8418,-1.278 L373.8418,-1.278 C374.1718,-0.907 374.4718,-0.497 374.6818,-0.247 C374.9418,-0.268 375.2018,-0.287 375.4618,-0.298 C376.2418,-0.367 377.1418,1.022 377.6018,1.552 L378.017676,2.04067091 C378.491504,2.61040237 378.964877,3.26661538 379.0418,3.982 C379.5518,8.133 380.0318,12.292 380.4718,16.452 C380.6418,19.602 380.4718,22.722 379.9518,25.812 C379.5618,28.812 379.1618,31.812 378.7618,34.802 C378.1218,36.903 377.4918,39.003 376.8618,41.102 C376.6118,41.903 376.3318,42.692 376.0618,43.482 C374.4628,48.758 372.5878,53.894 370.3548,58.871 C371.9838,60.673 373.5028,62.541 374.9158,64.47 C375.2538,64.817 375.5938,65.162 375.9118,65.522 C376.0018,65.383 376.1318,65.253 376.2718,65.182 C376.7518,64.972 377.1018,65.222 377.4018,65.633 C380.5518,68.642 382.8418,72.153 384.2618,76.162 L385.146244,78.2528148 C385.292911,78.6024444 385.438467,78.9523333 385.5818,79.302 C386.7118,82.343 387.5818,85.463 388.3018,88.622 C388.9458,91.108 389.4078,93.628 389.7058,96.175 C391.8658,103.428 393.5738,110.848 395.1848,118.168 C395.4388,119.32 395.3188,120.348 394.9498,121.224 L395.8918,122.142 L395.8918,122.142 L397.501198,123.744801 C400.205133,126.440611 402.963467,129.2745 404.9718,132.482 C407.0518,135.812 408.5818,139.372 410.2818,142.903 L410.64805,143.653 L410.64805,143.653 L411.396644,145.157066 C412.206019,146.79925 412.5943,147.706625 413.3118,149.692 C414.5018,153.003 415.1418,156.332 415.4418,159.843 C415.8818,164.952 415.8218,170.522 413.5818,175.272 C413.5718,175.312 413.5518,175.343 413.5318,175.372 C412.5118,179.963 409.9918,184.222 406.1618,186.942 C405.3418,187.713 404.4618,188.403 403.5218,188.952 C401.2658,190.2768 399.19412,190.395226 396.731682,189.78238 L396.4218,189.702 C396.1118,189.622 395.8318,189.552 395.5618,189.492 C395.9618,189.822 396.1618,190.213 395.5618,190.492 C394.9818,190.772 394.4618,190.932 393.9718,190.992 C394.1818,191.262 394.2018,191.552 393.7618,191.792 C392.8018,192.302 392.0218,192.463 391.2218,192.322 L391.390029,193.712207 C392.701942,204.232368 393.875473,206.312857 394.9018,217.613 C395.5818,229.182 396.6618,240.722 398.1518,252.213 L398.66536,256.38832 C400.310303,269.621887 402.159895,282.952476 404.9918,295.972 C406.4218,301.662 407.6518,307.392 408.6918,313.162 C410.1618,317.552 411.1918,322.042 411.7618,326.622 C412.5918,331.282 413.1618,335.982 413.4918,340.722 C414.6418,343.753 415.2018,346.832 415.1718,349.972 C415.3218,354.192 415.1818,358.403 414.7318,362.593 C414.4818,366.952 413.8818,371.272 412.9318,375.552 C412.0818,381.423 410.5318,387.093 408.3118,392.593 C406.5318,398.732 404.3518,404.753 401.8718,410.642 C398.0218,419.762 393.3718,428.232 388.0818,436.582 C383.1218,444.412 377.8018,451.952 371.7218,458.963 C363.8618,468.022 354.9018,476.322 345.0818,483.322 C339.4818,487.463 333.5718,491.182 327.3918,494.363 C319.8318,498.262 312.1518,501.772 303.9618,504.142 C298.8518,505.622 293.6518,506.642 288.3918,507.423 C278.0618,508.952 267.3618,508.722 256.9718,506.932 C250.2718,506.032 243.6818,504.472 237.4518,502.242 C232.3318,500.403 227.4518,498.292 222.5718,495.912 C220.0618,494.702 217.6418,493.302 215.3218,491.732 C211.4218,489.202 207.7718,486.343 204.3718,483.182 C203.2618,482.232 202.1818,481.262 201.1218,480.242 C200.6118,479.792 200.8918,479.122 201.4818,478.963 L201.6618,478.942 L201.6618,478.942 C201.4318,478.732 201.1918,478.522 200.9618,478.302 C200.9118,478.262 200.8718,478.213 200.8318,478.162 C200.7218,478.062 200.6018,477.963 200.5018,477.863 C200.1118,477.522 200.5018,476.762 200.8418,476.582 C200.9718,476.512 201.1418,476.503 201.3318,476.522 C201.2918,476.482 201.2618,476.452 201.2218,476.423 C201.1818,476.392 201.1718,476.312 201.1818,476.232 L201.0318,476.113 L201.0318,476.113 C200.5218,475.662 200.7818,475.003 201.3818,474.832 C201.675133,474.743111 202.158096,474.788543 202.662129,474.898063 L202.8518,474.942 L202.5118,474.622 C201.9118,474.102 202.1018,473.522 202.8418,473.343 C203.3938,473.375 203.9394,473.45116 204.4786,473.582744 L204.8818,473.692 C205.0818,473.742 205.2718,473.802 205.4718,473.863 C205.1318,473.552 204.7918,473.253 204.4618,472.942 C204.1318,472.653 204.4818,471.822 204.7818,471.653 C205.1918,471.423 205.9918,471.742 206.3618,472.012 C207.2718,472.113 208.4718,472.512 208.9118,472.892 C210.1218,474.052 211.3718,475.162 212.6418,476.242 C213.4118,476.482 214.1418,476.802 214.7018,477.282 C216.1418,478.662 217.6418,479.963 219.1718,481.222 L220.334763,482.023481 C220.529578,482.155333 220.725133,482.285333 220.9218,482.412 C223.1218,483.702 225.3218,484.982 227.5118,486.272 C235.5418,488.992 243.5718,491.713 251.5918,494.423 L252.6518,494.742 L252.6518,494.742 L260.4418,495.702 L260.4418,495.702 C265.5618,496.242 270.6918,496.213 275.8118,495.622 C279.6518,495.673 283.4618,495.292 287.2118,494.512 C293.5818,493.432 299.8318,491.843 305.9118,489.622 C312.9118,487.072 319.5818,483.713 326.0918,480.093 C328.4318,478.782 330.7318,477.392 332.9918,475.923 C333.7218,475.403 334.4518,474.872 335.1818,474.332 C339.9918,470.722 344.5918,466.872 349.0218,462.802 C351.1018,460.892 353.1018,458.903 355.0318,456.843 C355.3118,456.542 355.5818,456.253 355.8518,455.952 C357.7018,453.932 359.4918,451.843 361.2018,449.682 L362.8318,447.843 L362.8318,447.843 C369.4118,439.653 375.2618,430.843 380.5218,421.772 C385.7418,412.782 390.0418,403.322 393.4618,393.532 C394.5618,390.042 395.5218,386.503 396.3218,382.923 C397.8018,378.622 398.7718,374.213 399.2218,369.713 C399.3718,368.832 399.4918,367.952 399.6118,367.072 L399.680689,365.684815 C399.690689,365.453222 399.698467,365.222 399.7018,364.992 C399.9018,363.593 400.0718,362.192 400.2018,360.792 C400.2818,359.383 400.3318,357.972 400.3418,356.562 L400.2318,347.912 L400.2318,347.912 C400.2018,347.642 400.1718,347.363 400.1518,347.082 L399.9318,345.173 C399.4518,341.232 399.0818,337.282 398.6018,333.343 C398.6018,333.322 398.6018,333.292 398.5918,333.262 C398.4118,331.792 398.2218,330.312 398.0018,328.832 C397.8918,327.952 397.7518,327.072 397.6218,326.192 L397.3718,324.653 L397.3718,324.653 C396.90805,321.9755 396.344769,319.320203 395.661859,316.688449 L395.3618,315.562 L393.6218,306.812 L391.6618,298.202 C390.3918,292.432 389.3318,286.622 388.4918,280.762 C386.9718,271.423 385.6718,262.072 384.5418,252.682 C384.4818,252.232 384.4218,251.772 384.3718,251.322 C383.2218,242.613 382.3918,233.872 381.8518,225.102 C381.1218,216.463 380.7018,207.802 380.5918,199.133 C380.5818,198.742 380.8418,198.423 381.1518,198.242 L381.124055,196.575193 C381.087139,195.100597 381.060638,196.86955 381.047893,195.188455 L381.028866,190.564654 C381.030007,190.179299 381.033736,189.911085 381.0418,189.892 C375.698642,190.261474 372.105623,189.958715 366.94669,189.686896 L366.0718,189.642 C361.3418,189.423 356.6418,188.903 351.9718,188.122 C351.9518,188.363 351.7918,188.532 351.5218,188.582 C351.0418,188.602 350.5918,188.602 350.1318,188.613 L350.3018,189.262 L350.3018,189.262 C350.3118,189.593 350.1618,189.802 349.8418,189.892 L348.5078,189.95192 C346.727,190.0268 344.9398,190.062 343.1718,189.822 C341.5818,189.613 340.0318,189.242 338.4918,188.802 C337.5418,188.642 336.5718,188.423 335.5818,188.142 C333.0418,187.412 330.5218,186.432 327.9718,185.653 C325.3718,185.102 322.7318,184.923 319.9718,185.582 C317.0518,186.272 314.5818,187.522 311.5218,186.762 C310.9118,186.613 310.3218,186.383 309.7318,186.142 L309.185874,186.103926 C309.092911,186.095778 308.998467,186.085667 308.9018,186.072 C305.7118,185.613 302.8718,183.593 299.8318,182.512 C298.770262,182.253538 297.717244,182.318864 296.688477,182.748089 L296.4318,182.863 L295.4218,183.613 C295.015133,184.092333 294.612911,184.576556 294.215133,185.062407 L293.6218,185.792 C292.5318,187.142 291.3718,188.352 289.9618,189.232 C288.2618,190.802 286.2418,191.722 283.8318,191.782 C282.4618,191.822 281.1018,191.532 279.7818,191.113 C274.8018,192.653 269.4718,192.963 264.5018,191.463 C262.5318,191.162 260.6018,190.633 258.7518,189.802 C257.8818,189.412 257.0118,188.952 256.1718,188.442 C252.6618,189.923 249.3418,191.892 245.9518,193.593 L245.188252,193.976381 C241.724428,195.701872 237.891455,197.384379 233.9718,197.133 C229.0318,196.812 224.1818,196.153 219.3418,195.322 C219.3018,195.322 219.2518,195.312 219.2118,195.302 L218.54555,195.191125 L218.54555,195.191125 L216.124393,194.766296 L216.124393,194.766296 L214.1718,194.403 L214.1718,194.403 L213.173988,194.785279 C205.158664,197.81793 196.3762,200.1836 188.3218,198.062 C184.8118,197.633 181.5218,196.452 178.5518,194.442 C178.4518,194.372 178.3518,194.302 178.2518,194.222 C177.7818,193.982 177.3418,193.713 176.9518,193.423 L176.86805,193.3575 L176.86805,193.3575 L176.7918,193.292 L176.7518,193.272 C172.3618,191.253 169.8418,186.952 170.2818,182.133 C170.0118,180.602 170.0218,179.102 170.3218,177.503 C168.8918,179.192 167.4318,180.863 165.9518,182.522 C160.538229,189.040571 155.236749,195.689342 150.327591,202.610828 L149.2018,204.213 C146.5018,208.022 143.9918,211.963 141.6718,216.022 C139.3218,220.032 136.9118,224.003 134.4218,227.923 C131.1843,231.500875 128.053988,235.1645 125.037562,238.917895 L123.7518,240.532 L119.4118,246.242 C116.3418,249.883 113.7918,253.863 111.7818,258.182 C110.1318,261.253 108.6118,264.383 107.2418,267.593 C106.8018,268.562 106.3818,269.542 105.9718,270.522 C104.5618,274.352 103.3718,278.253 102.4418,282.282 C101.6948,285.198 101.1584,288.1545 100.83989,291.152229 L100.7418,292.153 C100.6218,293.332 100.5318,294.512 100.4818,295.692 C100.7718,295.863 101.0118,296.032 101.1918,296.202 L101.9218,296.463 L101.9218,296.463 L102.512051,296.637877 C103.432192,296.92357 105.02111,297.513724 104.6418,298.242 L102.7118,301.923 L102.7118,301.923 C102.9118,302.133 103.0018,302.352 102.8718,302.593 C101.5818,305.062 100.2818,307.532 98.9818,310.003 C98.9418,310.093 98.8718,310.162 98.8018,310.213 C99.9118,310.722 100.9918,311.282 102.0218,311.892 C104.0318,313.093 105.5118,314.482 106.8818,316.102 C108.3218,316.963 109.6818,317.903 110.9618,318.982 C112.5418,320.642 113.9218,322.463 115.0918,324.432 C116.1718,326.292 117.0518,328.232 117.7318,330.262 C118.0318,331.332 118.1718,332.442 118.1618,333.572 C116.9518,342.113 107.1818,336.262 106.9918,335.512 C105.6518,330.352 104.1118,327.093 100.6518,323.253 L100.5618,323.192 L100.5618,323.192 C98.5618,322.312 96.5818,321.442 94.5118,320.762 C94.2018,320.822 93.8818,320.863 93.5618,320.912 C93.9218,321.423 93.7418,321.923 93.0118,322.012 C89.8618,322.633 86.6818,322.802 83.4818,322.532 L78.6218,321.843 L78.6218,321.843 C76.6058,322.6161 74.6789,323.60871 72.86297,324.790941 L72.2618,325.192 L72.1518,325.272 C67.4618,329.042 63.8418,334.052 61.3618,339.512 C61.1418,339.998667 60.9306889,340.489778 60.7284667,340.985333 L60.4318,341.732 L60.4118,341.772 C57.1718,354.503 60.0618,368.482 65.9818,380.032 C69.2118,385.202 72.5818,390.272 76.1018,395.242 L79.5218,399.713 L79.5218,399.713 C81.5418,401.613 83.5218,403.562 85.4518,405.562 C85.7518,405.863 86.0718,406.162 86.3918,406.452 C87.4118,407.122 88.4518,407.713 89.5118,408.213 C89.9218,408.352 90.3418,408.482 90.7618,408.593 C92.8018,409.572 94.9418,410.093 97.1918,410.153 C100.163675,410.349875 103.047659,410.000949 105.835513,409.11611 L106.3918,408.932 L106.8018,408.782 C108.3218,407.812 109.7318,406.602 111.0718,405.182 C111.3718,404.872 111.9318,404.872 112.5718,405.042 C112.9218,404.682 113.2718,404.302 113.6018,403.892 C113.8318,403.642 114.1918,403.633 114.4718,403.822 C115.4218,403.713 117.9918,405.173 117.3218,405.942 C117.2118,406.122 117.0718,406.282 116.9518,406.452 C117.4018,406.682 117.8518,406.942 118.2518,407.213 C120.3518,407.795361 123.453729,409.891013 123.201716,410.521607 L123.1718,410.572 C122.6858,411.4909 122.054,412.26238 121.2764,412.874047 L121.0118,413.072 L120.4218,413.482 C121.2518,414.003 121.9518,414.602 121.6018,415.022 C121.4418,415.332 121.2718,415.633 121.0718,415.903 C122.7718,418.003 124.4618,420.122 126.1418,422.242 C127.8218,425.883 129.9018,429.282 132.3818,432.432 C134.4518,435.852 136.9418,438.923 139.8518,441.662 C140.0918,441.903 140.3418,442.133 140.5818,442.363 C142.72555,443.94675 144.968831,445.430203 147.304945,446.855564 L148.3118,447.463 C148.8418,447.782 149.7318,448.182 149.3118,448.952 C149.2618,449.052 149.2018,449.133 149.1318,449.192 C150.6018,450.153 152.1218,451.062 153.6918,451.903 L153.840624,451.994567 C154.43412,452.373486 155.2382,453.0608 154.3918,453.622 C153.6718,454.102 151.7618,452.802 150.8618,452.202 C150.6918,452.202 150.4918,452.153 150.2918,452.093 C150.5918,452.252333 150.887356,452.425444 151.187356,452.594556 L151.6418,452.843 C151.9918,453.052 153.7118,454.192 152.5118,454.673 C151.9218,454.722 151.3818,454.572 150.8818,454.232 C150.2918,453.942 149.7118,453.633 149.1418,453.312 C149.3418,453.622 149.3418,453.932 148.8418,454.133 C148.6718,454.142 148.5018,454.133 148.3318,454.113 C149.5118,454.863 150.7218,455.562 151.9718,456.222 L152.173831,456.348617 C152.702113,456.690906 153.5443,457.342125 152.9318,457.903 C152.2418,458.522 150.3418,457.202 149.8518,456.903 L148.3918,456.032 L148.3918,456.032 C148.2818,456.082 148.1618,456.102 148.0318,456.113 C148.4718,456.383 148.8818,456.673 149.3318,456.932 L149.944004,457.265427 C150.710991,457.689407 151.794393,458.385704 151.4018,459.082 C151.009207,459.770889 149.842952,459.203811 149.089846,458.757385 L148.279578,458.255407 C148.244022,458.233556 148.208467,458.212333 148.1718,458.192 L148.140689,458.312222 C148.134022,458.332111 148.125133,458.352 148.1118,458.372 C147.7368,459.0245 146.793675,458.597 146.14305,458.220547 L145.6218,457.903 C144.735133,457.369 143.857356,456.839889 142.985504,456.306778 L141.6818,455.503 L141.6618,455.503 C137.1518,452.792 132.9818,450.093 129.0518,446.613 C126.7018,444.532 124.5118,442.332 122.4318,439.982 C118.2518,435.272 115.1418,429.883 112.1418,424.383 C112.0918,424.292 112.1618,424.062 112.2818,423.812 C111.9518,423.133 111.6318,422.442 111.3118,421.732 C108.2318,422.593 104.7918,422.843 101.6218,422.633 C99.9218,422.522 98.2418,422.222 96.5718,421.772 C91.2418,421.032 86.1018,418.602 81.6618,415.692 C81.3818,415.512 81.1318,415.312 80.8718,415.133 C79.0418,414.102 77.3018,412.903 75.6518,411.532 C72.4318,408.872 69.3618,405.912 66.5718,402.822 C64.5518,400.423 62.6418,397.932 60.8518,395.352 C59.0318,392.802 57.1918,390.253 55.3518,387.702 C50.2418,379.702 46.9718,370.492 45.7018,361.082 C45.0818,357.613 44.7618,354.102 44.8318,350.602 C44.8818,348.072 45.1618,345.512 45.6518,342.963 C45.3618,342.682 45.0718,342.403 44.7818,342.113 C44.6218,342.392 44.4618,342.593 44.3618,342.492 L42.0698466,340.19719 C40.4440449,338.558122 39.3532286,337.352 37.4818,334.702 C34.5018,330.472 32.2818,325.822 30.6318,320.923 C29.4418,317.423 28.6518,313.442 28.3418,309.593 C28.2418,308.952 28.1418,308.302 28.0618,307.642 C27.4218,302.432 28.0118,297.442 28.8018,292.302 C28.8518,291.963 29.0218,291.753 29.2518,291.642 C29.3098,291.235 29.3788,290.817 29.4468,290.4 C22.8228,283.388 18.0558,274.937 18.4448,264.731 C18.5668,261.515 19.2268,258.345 20.4868,255.385 L20.6398,255.051 L20.6398,255.051 C15.1108,254.201 10.7248,250.317 7.4298,245.503 C7.1378,245.272 6.8548,245.039 6.5828,244.807 C0.6908,239.775 -3.3942,232.65 -6.1912,225.124 C-8.1942,220.754 -9.5212,216.084 -10.0842,211.24 C-10.1242,210.894 -10.1482,210.551 -10.1792,210.207 C-11.5472,202.548 -11.8952,194.812 -11.2632,187.191 C-12.6362,182.474 -13.7532,177.674 -14.5182,172.762 C-14.8782,170.423 -15.1282,168.082 -15.3182,165.742 L-15.3382,165.613 L-15.3682,165.192 L-15.4526444,164.14237 C-15.4659778,163.968667 -15.4782,163.795333 -15.4882,163.622 C-17.1782,142.202 -12.3882,121.122 -4.4682,101.282 C-3.7782,99.49775 -3.0657,97.718 -2.3307,95.9524531 L-1.5512,94.108 L-1.5512,94.108 C6.3988,81.288 18.3368,70.919 28.4478,59.968 C31.9368,56.19 26.2938,50.518 22.7918,54.311 C16.0738,61.587 8.8668,68.556 2.3598,76.035 C1.2108,76.119 0.0598,76.15 -1.0882,76.093 C-3.0882,75.992 -5.0282,75.673 -6.9082,75.162 C-11.5982,74.472 -15.8682,72.582 -19.7482,69.802 C-24.9382,67.383 -29.3682,62.822 -29.8082,56.872 C-29.8582,56.272 -29.8482,55.682 -29.8082,55.093 C-30.2882,52.182 -29.8582,49.133 -28.6382,46.322 C-28.4282,45.552 -28.1582,44.792 -27.8182,44.042 C-26.8282,41.812 -25.1982,39.673 -23.2082,38.222 C-23.1582,38.192 -23.1182,38.173 -23.0782,38.142 C-22.8682,37.923 -22.6682,37.702 -22.4382,37.503 C-22.0982,37.192 -21.7382,36.903 -21.3582,36.633 C-22.7082,34.412 -23.9282,32.133 -24.9682,29.702 C-26.0982,27.062 -26.6782,24.383 -26.9982,21.552 C-27.1282,20.432 -27.1782,19.322 -27.1982,18.213 C-27.2582,17.702 -27.2982,17.182 -27.3382,16.662 C-27.5882,12.702 -27.1282,8.593 -25.6482,4.892 C-25.5382,4.613 -25.3982,4.332 -25.2682,4.042 C-24.9882,3.202 -24.6782,2.363 -24.2982,1.542 C-22.8182,-1.608 -20.7182,-4.278 -18.1282,-6.468 C-16.7282,-7.878 -15.1582,-9.128 -13.4482,-10.188 C-12.4382,-10.818 -11.2882,-11.378 -10.0782,-11.838 C-7.9182,-12.978 -5.1482,-14.018 -2.8982,-14.097 C-2.6282,-14.108 -2.3882,-14.077 -2.1282,-14.077 C-1.9182,-19.818 -1.1782,-26.068 1.0918,-31.268 C2.4118,-35.037 4.3918,-38.387 7.3718,-40.798 C9.10013333,-42.6018889 11.2298556,-44.0668272 13.8873298,-45.0243306 L14.3618,-45.188 L14.5418,-45.238 C16.9318,-46.398 19.5118,-46.858 22.1618,-46.847 C25.2518,-47.008 28.4018,-46.427 31.0918,-45.008 C31.6518,-44.708 32.2518,-44.338 32.8218,-43.938 C33.2518,-44.798 33.7318,-45.668 34.2818,-46.537 C36.2118,-49.628 38.5418,-52.318 41.2418,-54.768 C41.5618,-55.058 41.9118,-55.318 42.2518,-55.597 C43.5618,-56.787 44.9518,-57.887 46.3918,-58.887 C49.5018,-61.048 52.9118,-62.657 56.4918,-63.698 C60.6249818,-65.2252727 64.9859529,-65.9343489 69.3485806,-65.7851561 L70.2518,-65.747 L70.2518,-65.747 C70.4518,-65.728 70.6518,-65.718 70.8418,-65.708 C75.1718,-65.427 79.4418,-64.367 83.5218,-62.768 C87.7518,-61.097 91.3318,-58.568 94.6618,-55.668 C95.4418,-56.747 96.3318,-57.768 97.4218,-58.728 C97.7318,-58.997 98.0618,-59.238 98.3718,-59.488 C98.6118,-59.728 98.8618,-59.958 99.1218,-60.188 C100.3118,-61.238 101.5718,-62.148 102.9518,-62.958 C104.5018,-63.867 106.1718,-64.497 107.9018,-64.887 C109.6618,-65.488 111.5118,-65.858 113.3918,-65.978 Z M92.8419,346.272158 C93.0189492,346.262364 102.280653,349.735463 106.895113,351.980969 L107.1219,352.0922 C112.4419,354.7322 115.0019,356.6322 119.7819,360.0222 C120.1019,360.2522 120.4319,360.6022 120.4319,360.9422 C120.4319,365.879621 119.232153,371.916807 115.0819,369.2422 C114.4819,368.855533 113.877456,368.477756 113.268567,368.105904 L112.3519,367.5522 L112.3219,367.5622 C112.3319,367.5622 112.3419,367.5522 112.3519,367.5422 C103.3119,362.0322 93.7619,357.7122 83.6819,354.6222 C82.9919,354.3722 88.1018,346.652 89.5118,347.082 C88.7018,346.762 92.7071864,346.279684 92.8419,346.272158 Z M187.8248,128.187 C181.8138,128.83 175.8028,129.463 169.7918,130.082 C165.9618,130.522 162.1218,130.912 158.2818,131.242 C152.5118,131.673 146.7418,131.742 140.9918,130.952 C138.9518,130.673 136.9518,130.272 134.9718,129.782 C133.6218,130.772 132.2218,131.702 130.7918,132.593 L114.9118,144.742 L114.9118,144.742 C104.2618,153.113 93.8418,161.982 84.4618,171.772 C68.0798,188.876 54.7368,208.886 46.3478,231.051 C45.5868,231.5 44.9988,232.283 44.8028,233.484 C43.3208,242.569 38.9868,250.855 37.4208,259.903 C35.8788,268.815 37.9298,276.391 43.5278,283.455 C44.7228,284.964 47.1708,284.884 48.6728,283.865 C49.0218,284.551 50.5338,284.522 51.0648,281.492 C53.5538,278.797 55.6828,275.972 57.1248,272.474 C58.1868,269.898 56.4018,268.112 54.2358,267.761 C55.1358,264.521 56.1508,261.31 57.2918,258.133 C60.6718,248.692 64.9718,239.673 70.3818,231.213 C75.1418,223.772 80.6518,217.292 86.5718,210.792 C86.6418,210.702 86.7618,210.673 86.8918,210.653 L88.1218,209.292 L88.1218,209.292 C88.2918,209.102 88.6418,209.122 89.0318,209.222 C89.4018,208.832 89.7618,208.432 90.1418,208.042 C90.5118,207.642 90.9218,207.762 91.1518,208.082 C91.7818,207.942 92.9318,208.622 93.2818,208.843 C93.8818,209.242 94.0718,209.692 93.5618,210.262 C93.4718,210.363 93.3818,210.463 93.2918,210.552 C93.9818,210.843 94.6618,211.232 95.1918,211.613 C97.0418,212.022 99.6418,213.742 99.1918,214.253 C98.2418,215.242 97.3218,216.253 96.4118,217.282 C97.2118,217.843 97.7318,218.392 97.5218,218.633 C93.6218,222.742 90.0218,227.093 86.7218,231.702 C84.2118,235.142 81.9418,238.722 79.9118,242.452 C76.8918,247.732 74.3318,253.162 72.0618,258.742 C71.7418,259.593 71.4318,260.442 71.1318,261.292 C67.8118,270.582 65.3318,280.222 64.2818,290.042 L64.2379185,290.704409 C64.0423333,294.241867 63.9658,303.713333 63.6018,305.972 C65.8118,307.062 68.1118,307.992 70.5018,308.753 C70.9518,308.883 71.4118,309.003 71.8718,309.113 C72.1318,309.003 72.4018,308.912 72.6718,308.832 C74.8718,307.942 77.1718,307.302 79.5218,306.992 C81.10555,306.782875 82.6816438,306.710031 84.2567805,306.755381 L84.9318,306.782 C85.6318,306.802 86.3218,306.852 87.0218,306.923 C86.9818,306.522 86.9618,306.133 86.9318,305.732 C86.7318,305.602 86.5818,305.423 86.5718,305.182 C86.1018,300.682 86.0918,296.182 86.5418,291.682 C86.8418,289.332 87.1918,286.992 87.5718,284.653 C87.9618,282.732 88.4118,280.843 88.9018,278.952 C90.2018,273.653 91.9318,268.482 94.0318,263.423 C100.0118,248.992 108.5818,235.982 117.2018,223.042 C123.4918,213.593 129.4418,203.932 135.9518,194.642 C141.4918,186.732 147.3118,178.942 153.5218,171.542 C159.7218,164.153 166.2718,157.042 173.3418,150.463 C174.4818,149.412 175.6318,148.392 176.8018,147.383 C183.5018,141.383 190.7818,136.452 198.3618,131.613 C198.6518,131.423 199.1718,131.633 199.6018,131.992 L200.824763,131.240148 C201.029578,131.115333 201.235133,130.992 201.4418,130.872 C201.6318,130.753 201.8418,130.952 201.9518,131.122 C202.4718,130.852 202.9918,130.593 203.5118,130.332 C203.8908,130.026 204.2818,129.736 204.6638,129.434 C199.0428,129.151 193.4298,128.731 187.8248,128.187 Z M258.3218,61.522 C253.7818,60.613 249.2218,60.482 244.6418,61.162 C242.7228,61.443 240.8128,61.781 238.9188,62.19 C243.2198,65.94 246.6788,70.739 248.9238,76.262 C251.3498,82.232 241.6728,84.805 239.2808,78.921 C236.9738,73.245 232.6068,68.891 227.3318,66.281 C226.1918,66.918 225.0868,67.608 224.0318,68.372 C222.6518,69.492 221.3518,70.702 220.1318,72.032 C217.4718,74.923 215.0318,78.782 213.4318,82.602 C212.8118,84.682 212.3518,86.822 212.0618,89.022 C212.0018,89.522 211.9418,90.032 211.8918,90.542 C210.9058,100.891 213.8648,110.96 218.9558,119.87 L219.1558,119.873 L219.1558,119.873 C223.6998,117.409 228.4568,115.333 233.3518,113.642 C237.2718,111.003 241.3418,108.562 245.5318,106.352 C254.439207,101.652741 263.847356,98.0300741 273.541936,95.5527574 L274.6618,95.272 C276.945133,94.6886667 279.2493,94.1747778 281.562726,93.725125 L282.9518,93.463 L282.9718,93.463 L282.8218,91.972 L282.8218,91.972 C282.0418,86.122 279.7518,80.692 276.7918,75.673 C274.5718,71.883 271.2218,68.003 267.5018,64.903 L267.4818,64.892 C265.792911,63.932 264.017109,63.1379259 262.189509,62.4816845 L261.5018,62.242 L258.3218,61.522 Z M136.4218,52.633 C126.9818,51.742 117.5418,51.832 108.1018,52.602 C101.9318,53.213 95.8018,54.062 89.7018,55.142 C85.5718,55.852 81.5218,56.852 77.5418,58.093 L79.8182815,62.6966528 C83.6229111,70.3636667 87.5201333,77.9803333 92.1118,85.222 C94.4818,88.952 97.0518,92.503 99.8518,95.912 C101.7418,98.352 103.8218,100.613 106.1018,102.692 C106.7018,103.423 107.3418,104.113 107.9918,104.782 C110.0718,106.562 112.3118,108.122 114.7618,109.412 C116.726244,110.843111 118.777602,112.093284 120.915874,113.189207 L121.7218,113.593 L129.2218,116.472 C129.6218,116.585333 130.026244,116.698667 130.43217,116.80637 L131.0418,116.963 L132.1818,117.202 L133.037356,116.737556 C133.180689,116.660889 133.325133,116.585333 133.4718,116.512 C133.7118,116.383 133.8818,116.633 133.9318,116.812 C133.9518,116.883 133.9218,116.982 133.8718,117.082 L134.9648,116.491 L134.9648,116.491 C136.8438,117.254 138.8378,117.864 140.9768,118.266 C141.9448,118.447 142.9148,118.586 143.8858,118.705 L144.015874,118.791889 C144.037578,118.807111 144.059467,118.823667 144.0818,118.843 L145.1438,118.843 L145.1438,118.843 C152.6198,119.564 160.2018,118.611 167.6658,117.27 C178.2278,116.208 188.7878,115.037 199.3418,113.942 C199.5418,113.923 199.6218,114.012 199.6218,114.153 L200.2718,114.093 L200.2718,114.093 C201.2118,113.992 202.3118,115.562 201.6018,116.133 C202.1718,116.472 202.7218,116.963 203.1318,117.343 L203.3718,117.322 C201.9218,114.482 200.8018,111.512 200.0018,108.423 L198.9818,103.242 L198.9818,103.242 C198.7018,101.312 198.5418,99.253 198.5118,97.222 C198.4418,96.292 198.3918,95.423 198.3918,94.662 C198.3918,93.942 198.4018,93.222 198.4318,92.503 C196.4418,91.682 194.4218,90.963 192.3618,90.352 C186.5118,89.633 180.6718,88.912 174.8218,88.202 C171.3118,88.332 167.8018,88.582 164.3018,88.972 C160.3318,89.322 156.3718,89.772 152.4218,90.312 C152.0518,90.352 151.3918,89.852 150.9918,89.272 L149.3018,89.503 L149.3018,89.503 C148.4218,89.613 147.5018,87.852 148.6618,87.492 C149.0818,87.3253333 149.5018,87.1675556 149.9218,87.0157037 L150.5518,86.792 L150.1918,86.832 C150.0718,86.843 149.9218,86.812 149.7518,86.753 C148.8218,86.872 147.8918,86.992 146.9718,87.102 C145.805014,87.2476071 146.070193,85.7092615 146.88863,85.3472386 L147.2818,85.202 C146.5906,84.77096 145.982344,83.5915808 146.83722,83.2059572 L146.9518,83.162 C147.3518,83.003 147.7418,82.872 148.1418,82.722 C148.1118,82.593 148.1118,82.472 148.1518,82.363 L146.5018,82.572 L146.5018,82.572 C146.351212,82.5917647 147.06872,81.5388097 147.412103,81.3306599 L147.4718,81.302 L148.2618,81.062 C148.3818,80.722 149.0218,79.972 149.2418,79.903 C152.1418,78.992 154.8418,78.173 157.6618,77.542 C157.8018,77.372 157.9618,77.242 158.1418,77.202 C159.9018,76.782 161.6818,76.452 163.4618,76.173 C163.5818,75.992 163.7018,75.863 163.8418,75.852 C168.2518,75.292 172.6718,75.162 177.1118,75.463 C177.9618,75.542 178.8118,75.633 179.6618,75.742 C181.2918,75.923 182.9218,76.153 184.5418,76.463 C188.599657,77.1594286 192.562667,78.218 196.422824,79.6459202 L197.3118,79.982 C198.2818,80.343 199.2418,80.722 200.1918,81.133 C200.6718,79.423 201.2718,77.742 201.9818,76.093 C202.0918,75.772 202.2118,75.463 202.3418,75.153 L201.3718,74.572 L201.3718,74.572 C201.1618,74.972 200.7318,75.282 200.4518,75.113 C193.5018,70.423 186.1518,66.512 178.4018,63.392 C174.0618,61.472 169.6218,59.843 165.0718,58.482 C162.8018,57.753 160.5118,57.093 158.2118,56.463 C157.0618,56.222 155.9118,55.982 154.7418,55.782 C148.7318,54.162 142.6218,53.113 136.4218,52.633 Z M365.4348,68.506 C364.5908,69.964 363.7128,71.408 362.7818,72.832 C358.2608,79.751 352.8408,86.244 346.6948,91.905 C348.2978,91.901 349.8968,91.962 351.4758,92.11 C354.1988,92.367 356.8658,92.819 359.4658,93.452 C359.6768,93.283 359.9128,93.198 360.1018,93.332 L360.7798,93.801 L360.7798,93.801 C366.3568,95.306 371.5928,97.672 376.3358,100.842 L376.250763,100.216 C376.236244,100.111667 376.220467,100.007333 376.2018,99.903 C376.2818,98.673 376.3018,97.442 376.2618,96.222 C375.2818,89.012 372.8318,82.372 370.0318,75.653 C369.9788,75.523 370.0168,75.354 370.0978,75.182 C368.6848,72.874 367.1378,70.642 365.4348,68.506 Z M366.7218,11.822 C364.6318,12.202 362.5618,12.692 360.5018,13.302 C356.6318,13.883 352.8818,14.903 349.2618,16.352 C344.2718,18.122 339.4318,20.182 334.6118,22.363 C325.2518,26.602 316.4718,31.963 308.4818,38.423 C307.9718,38.812 307.4818,39.213 306.9918,39.613 C305.2018,41.162 303.4618,42.782 301.8118,44.492 C300.0818,46.372 298.3418,48.253 296.6118,50.142 C294.4918,52.363 292.0518,54.372 290.1318,56.772 C289.7418,57.262 289.4018,57.802 289.0918,58.343 L290.2218,58.732 L290.2218,58.732 C291.1718,59.052 291.0118,60.832 290.0718,60.572 C289.7518,60.482 289.4518,60.372 289.1518,60.253 C289.2818,60.423 289.3718,60.593 289.3918,60.742 C289.4518,61.222 289.0818,61.883 288.4918,61.713 C288.2218,61.642 287.9518,61.542 287.6818,61.432 C287.6018,61.742 287.5418,62.052 287.5418,62.352 C287.5918,62.372 287.6418,62.392 287.7018,62.403 C288.3618,62.633 289.6018,63.662 289.7818,64.363 C289.9218,64.903 289.4618,65.482 288.8718,65.322 C288.4318,65.202 288.0018,65.022 287.5818,64.822 C287.8618,65.093 288.0818,65.383 288.1018,65.633 C288.1418,66.093 287.7418,66.742 287.1918,66.593 C286.1718,66.312 285.3518,65.883 284.6718,65.343 C284.4918,65.582 284.2318,65.772 284.0218,65.713 L283.6318,65.593 L283.6318,65.593 C283.738467,65.6923333 283.836244,65.797 283.931059,65.8998889 L284.0718,66.052 C286.8318,69.032 289.2418,72.332 291.1718,75.883 C291.2618,75.782 291.3718,75.692 291.5118,75.582 C292.4118,74.822 293.3418,74.082 294.2718,73.363 L294.55305,73.117125 L294.55305,73.117125 L294.8418,72.872 L292.7518,73.562 L292.798039,73.5078542 C292.945721,73.3188178 293.405605,72.6882901 293.619872,72.4782198 L293.6718,72.432 C296.5418,69.863 299.6718,67.682 303.0518,65.903 C305.2418,64.482 307.5418,63.282 309.9518,62.292 C315.7018,59.622 321.5618,57.593 327.5818,55.713 C328.4818,55.423 329.3818,55.113 330.2818,54.832 C330.5418,54.742 330.5918,54.852 330.5518,55.032 L331.0218,54.892 L331.0218,54.892 C331.8618,54.622 333.2918,56.102 332.7218,56.792 C333.0658,57.072 333.4034,57.384 333.69876,57.6768 L333.9118,57.892 L334.1518,57.822 C334.8662,57.6016 336.07156,58.715456 336.837251,59.5042387 L337.4018,60.102 C337.8318,60.562 338.6718,61.512 337.6418,61.883 L336.3518,62.322 L336.3518,62.322 C336.3918,62.582 336.2818,62.802 335.8818,62.952 C335.4318,63.102 334.9918,63.262 334.5518,63.423 C334.818467,63.6556667 335.080689,63.8976667 335.338467,64.1427778 L335.7218,64.512 C336.174393,64.9742222 337.248275,65.992823 336.300304,66.4426813 L336.1818,66.492 L334.9518,66.932 C335.1118,67.292 335.0718,67.633 334.5318,67.832 C327.3518,70.272 320.3418,73.133 313.4918,76.383 C308.3618,79.222 302.9418,81.343 297.2318,82.732 C296.7618,82.883 295.7418,82.173 295.3218,81.463 L294.469207,81.7138889 C294.327356,81.7553333 294.185133,81.7953333 294.0418,81.832 L293.9018,81.863 L293.9018,81.863 C294.9718,84.713 295.7618,87.802 296.2018,90.792 C296.2518,91.062 296.2918,91.343 296.3218,91.613 C297.4418,91.522 298.5518,91.442 299.6718,91.383 C307.4218,90.972 315.2618,91.222 323.0318,92.142 C326.1718,90.272 329.1918,88.222 332.0818,86.003 C332.9618,85.322 333.8318,84.622 334.6918,83.912 C339.8518,79.432 344.5218,74.403 348.6618,68.972 C352.4918,63.942 355.8218,58.542 358.6218,52.883 C361.1018,47.572 363.1518,42.052 364.7018,36.352 C366.1218,31.142 366.6118,26.072 366.9718,20.682 C367.0918,19.802 367.1718,18.923 367.2418,18.042 L367.233652,17.664963 L367.233652,17.664963 L367.2218,17.482 C367.1218,15.593 366.9318,13.702 366.7218,11.822 Z M293.4518,78.792 C293.2218,78.872 292.9818,78.952 292.7418,79.022 C292.8818,79.332 293.0118,79.633 293.1418,79.942 L293.1568,79.935875 L293.1568,79.935875 L294.1018,79.192 L294.1018,79.192 C293.9018,79.102 293.6718,78.963 293.4518,78.792 Z M365.3218,-2.3577 C367.1218,-3.0277 368.4818,-3.1577 369.4018,-2.7377 C368.0418,-2.6377 366.6818,-2.5077 365.3218,-2.3577 Z" id="ðŸ–-Ink" fill="#000000"></path>
    </g>
</svg>