<?xml version="1.0" encoding="UTF-8"?>
<svg width="473px" height="567px" viewBox="0 0 473 567" version="1.1" xmlns="http://www.w3.org/2000/svg" xmlns:xlink="http://www.w3.org/1999/xlink">
    <!-- Generator: Sketch 62 (91390) - https://sketch.com -->
    <title>head/mono/Buns</title>
    <desc>Created with Sketch.</desc>
    <g id="head/mono/Buns" stroke="none" stroke-width="1" fill="none" fill-rule="evenodd">
        <path d="M397.205781,173.681216 C364.231818,126.975942 281.369965,121.71466 229.000856,122.010652 C125.580187,121.149305 103.925089,240.024377 98.524138,323.324087 C87.4929219,325.20041 76.7654464,329.046256 69.4867346,337.715031 C60.6229392,348.271394 57.5613945,366.390402 65.8710141,378.196281 C71.3906452,386.035458 80.1055876,388.655345 89.2218297,389.091652 C119.411838,386.210595 125.60332,413.121281 140.47253,433.299942 C178.628187,484.845555 244.727982,501.566539 305.353406,501.822587 C325.945412,502.370531 350.751567,503.916039 363.939141,484.541369 C405.590833,412.344942 406.498031,316.594111 409.065746,234.778458 C409.418769,213.832676 409.329256,191.658885 397.205781,173.681216 L397.205781,173.681216 Z" id="ðŸŽ¨-Background" fill="#FFFFFF"></path>
        <path d="M214.6197,-22.1853 C218.3477,-27.8193 226.5277,-30.0033 232.1987,-25.8243 C236.9207,-28.7463 242.8607,-28.1303 247.1047,-24.5773 C252.2367,-27.6103 258.6097,-26.3863 262.6347,-22.1573 C269.0837,-25.6813 277.5957,-23.0783 281.0487,-16.4013 C287.5567,-17.1233 293.6897,-12.8633 295.4247,-6.6973 C295.7317,-6.4483 296.0347,-6.1913 296.3377,-5.9353 C300.2367,-5.7483 303.9417,-4.2203 306.1267,-0.5943 C307.2187,1.2167 307.7227,3.3447 307.6487,5.4297 C309.9797,6.6897 311.8627,8.7567 312.6697,11.4357 C313.4257,13.9477 313.1407,16.4327 312.1467,18.5977 C315.3927,22.0507 316.2507,27.4327 313.9507,31.7697 C314.9027,33.4017 315.3977,35.3307 315.3197,37.3357 C315.2047,40.3047 313.8277,42.6977 311.9547,44.7407 C314.3097,48.9907 313.3917,54.4427 309.5637,57.4227 C307.3647,65.2187 301.7987,70.4057 293.2707,73.5877 C288.9877,75.1857 284.5067,76.4167 279.9397,77.3207 C298.2147,79.7797 316.1937,84.1017 333.4637,90.5457 C334.4037,90.8967 335.2007,90.7597 335.8097,90.3507 C336.1867,90.5507 336.5717,90.7347 336.9477,90.9397 C341.7077,93.5497 346.3677,96.3797 350.9077,99.4097 C350.9077,98.9097 350.9177,98.4097 350.9377,97.8997 C350.8497,93.7847 351.2827,89.7317 352.3757,85.8247 C350.9457,83.8757 349.8757,81.6537 349.2937,79.3637 C347.8407,73.6497 350.6047,65.5187 355.5697,63.5667 C357.3097,58.7407 361.2667,55.2487 366.1167,53.8747 C366.5017,53.5277 366.9107,53.1907 367.3677,52.8777 C368.3887,52.1757 369.5057,51.6967 370.6537,51.4187 C371.2507,48.8037 372.7097,46.3967 375.1297,44.7077 C378.5447,42.3227 382.5837,42.0637 386.1317,43.3647 C386.8067,43.1377 387.4917,42.9407 388.1827,42.7697 C393.8947,37.9077 402.7977,38.2657 407.8237,43.9547 C411.2737,42.3777 415.3397,42.3077 418.8717,44.4297 C421.6977,46.1277 423.4567,48.8657 424.1447,51.8707 C429.4947,52.0347 434.3887,55.5847 435.9317,60.8827 C440.8617,61.4407 444.8947,65.2987 445.7507,70.1547 C448.8957,70.5927 451.8007,72.0707 453.5677,75.0097 C454.3847,76.3687 454.8277,77.8557 454.9427,79.3447 C456.5327,80.1077 457.9587,81.2627 459.0357,82.7717 C460.9217,85.4157 461.2857,88.5027 460.5927,91.4077 C460.7517,91.7297 460.9247,92.0437 461.0777,92.3697 C461.5907,93.4617 462.0027,94.6327 462.3697,95.8217 C464.0277,98.2127 464.7937,101.1357 464.6417,104.0717 C464.9937,105.3137 465.3347,106.5587 465.6177,107.8097 C466.7377,112.7197 467.1577,117.9497 466.3877,122.9497 C466.0077,125.3697 465.4577,127.7497 464.6777,130.0597 C464.5977,130.4997 464.4677,130.9097 464.3177,131.2997 C463.8877,133.1197 463.3377,134.9097 462.6377,136.6597 C460.9577,138.8897 459.1977,141.0597 457.3477,143.1597 C455.7877,145.4997 454.0077,147.6597 451.9977,149.6397 C450.5477,151.0697 448.9577,152.3997 447.2677,153.5997 C443.9127,156.2887 440.1587,158.3857 436.1537,159.7497 C435.4387,159.5997 434.7197,159.4827 433.9997,159.3677 C429.4517,161.8717 422.2957,162.1547 417.9197,162.1377 C413.0977,162.1197 408.6817,160.9017 405.0097,158.6007 C405.4357,159.4477 405.8607,160.2957 406.2857,161.1457 C406.1797,161.2067 406.0657,161.2617 405.9737,161.3327 C405.1797,160.0177 404.2937,158.8497 403.2497,158.0097 C401.8247,156.8607 399.5267,156.7577 398.5387,158.6167 L398.5387,158.6167 L398.4867,158.7147 C397.9597,159.7057 398.0337,160.6567 398.4357,161.4327 C398.5827,161.6437 398.7287,161.8567 398.8747,162.0687 C398.9267,162.1287 398.9767,162.1927 399.0337,162.2487 L399.0337,162.2487 L399.0077,162.2517 C400.3727,163.3507 401.7167,166.0427 402.9907,168.6597 C403.8527,170.1887 404.6727,171.7397 405.4417,173.3177 C405.8907,173.9797 406.6877,174.5607 407.5357,174.7297 C407.3697,175.9897 407.9497,177.2927 408.9017,177.9387 C409.1517,177.4347 409.4557,176.9187 409.8467,176.3867 C414.1447,170.5487 422.5887,168.0297 428.9477,170.6977 C430.2157,170.4837 431.4897,170.3067 432.7757,170.2057 C436.9737,169.9287 441.2287,170.2587 445.3747,171.1277 C446.6617,171.8997 447.8917,172.7687 449.0377,173.7597 C450.0077,174.5997 450.9077,175.4797 451.7477,176.3897 C452.3977,176.8767 453.0367,177.3927 453.6637,177.9307 C456.2057,179.2977 458.0727,181.9197 459.6407,184.5297 C460.8847,186.2887 461.9717,188.1577 462.9127,190.1377 C467.2727,197.5977 472.3037,206.8597 468.3727,214.1947 C468.7907,214.9857 469.0997,215.8617 469.2707,216.8147 C469.8137,219.8397 468.6987,222.1527 467.2357,224.3987 C467.4277,225.9647 467.5347,227.4827 467.6177,228.8177 C468.0837,236.3137 466.3657,246.5887 459.7567,249.6487 C459.6537,249.7727 459.5487,249.8957 459.4397,250.0187 C458.9297,250.8487 458.1517,251.5667 457.1287,252.0907 C456.8747,252.2677 456.6177,252.4357 456.3577,252.5797 C456.2407,252.6807 456.1087,252.7627 455.9877,252.8587 C456.1257,252.7137 456.2587,252.5627 456.3957,252.4157 C452.7397,253.8737 449.2087,254.1747 445.4397,253.7317 C443.1097,254.5737 440.7747,255.2027 438.8037,255.6897 C432.6527,257.2087 424.7207,258.4247 418.7257,255.8347 C416.9787,255.0807 415.5297,254.0817 414.4407,252.8907 C414.5307,257.5307 414.6667,262.1697 414.8677,266.8097 C415.2777,278.5397 415.2577,290.2597 415.1677,301.9997 C415.0677,315.2097 414.6977,328.4297 413.9877,341.6297 C413.6577,348.2597 413.1277,354.8797 412.4177,361.4797 C411.8177,367.9097 411.1177,374.3297 410.3077,380.7297 C408.3977,393.8897 405.2477,407.1497 401.4077,419.8697 C399.7377,425.3897 397.9077,430.9797 395.8277,436.4397 C394.9477,438.9497 394.0177,441.4297 393.0077,443.8897 C387.6777,456.7797 381.0377,469.2197 372.0677,479.9597 C367.1677,485.8197 361.7577,491.0897 355.7177,495.5197 C350.8677,499.2997 345.6177,502.4997 339.8477,505.0197 C327.4477,510.4397 313.6077,511.6597 300.1977,511.4597 C294.9777,511.3897 289.4377,510.4497 284.2777,509.5897 C280.3177,508.9397 276.3077,508.0697 272.3377,507.0497 C268.8177,506.2297 265.3377,505.2797 261.9077,504.1697 C257.7777,503.0797 253.8177,501.5097 250.0477,499.4797 L250.0477,499.4797 L243.3677,496.9697 C240.5777,495.9197 237.8677,494.6697 235.2377,493.2397 L235.2377,493.2397 L227.9777,489.8497 C224.9677,488.3997 222.0377,486.8097 219.1777,485.0597 C218.8777,484.8997 218.5377,484.6297 218.4077,484.3297 C217.6677,483.9197 216.9177,483.5297 216.1777,483.1097 C216.0577,483.0497 216.1477,482.6997 216.3077,482.3597 C216.1777,482.0897 216.1977,481.7897 216.5577,481.5197 C216.8277,481.3097 217.2577,481.3697 217.7077,481.5097 C217.6677,481.4797 217.6377,481.4497 217.6077,481.4197 C217.1077,481.1497 216.6177,480.8897 216.1277,480.6197 C215.6277,480.3497 215.5477,479.6497 216.0177,479.2797 C216.1477,479.1797 216.2977,479.1297 216.4477,479.1197 L216.4477,479.1197 L216.4177,479.1097 C216.3277,479.0497 216.3977,478.7697 216.5277,478.4597 C216.2777,478.1397 216.1977,477.7497 216.6377,477.4097 C217.2877,476.8997 218.8077,477.8397 219.3577,478.1497 C219.9877,478.4997 220.6277,478.8297 221.2577,479.1697 C221.2977,479.0797 221.3777,478.9997 221.5077,478.9197 C220.5777,478.4297 219.6577,477.9297 218.7377,477.4297 C218.1677,477.1297 217.4277,476.4997 218.1777,475.9097 C218.7777,475.4297 220.3277,476.2497 221.0677,476.6697 C221.1577,476.5997 221.2577,476.5697 221.3777,476.5497 C221.0577,476.3697 220.7177,476.1997 220.3977,476.0097 C219.4977,475.5097 220.1077,473.9497 221.0377,474.4697 L221.0377,474.4697 L221.3677,474.6697 C222.0377,474.6097 222.9777,475.1597 223.4077,475.3997 C226.5377,477.3697 229.7977,479.0897 233.1777,480.5697 C235.4577,481.6497 237.7477,482.7197 240.0477,483.7597 C242.3077,484.8797 244.6377,485.8497 247.0277,486.6697 C253.0377,489.0097 259.1077,491.1897 265.2377,493.2097 C273.8277,495.5597 282.7177,497.4497 291.6377,498.1897 C292.7977,498.2797 293.9577,498.3597 295.1177,498.3997 C297.6577,498.3797 300.1977,498.3697 302.7277,498.3497 C307.6577,497.8397 312.5877,497.3397 317.5077,496.8397 C319.2277,496.5997 320.9077,496.2997 322.5677,495.9497 C323.4377,495.7397 324.3077,495.5197 325.1677,495.2697 C325.4677,495.2297 325.7677,495.1697 326.0677,495.1197 C328.1777,494.5597 330.2477,493.8897 332.3177,493.1097 C333.6177,492.5797 334.9077,492.0197 336.1877,491.4297 C340.4177,489.4597 344.5777,486.8597 348.4977,483.8797 L348.4977,483.8797 L363.2277,469.2197 L367.7177,463.0997 C373.5177,454.8097 378.1077,445.5697 381.9177,436.1397 L381.9177,436.1397 L387.9777,418.6797 C388.6077,416.5797 389.2077,414.4797 389.7777,412.3697 C390.9277,407.6497 392.0777,402.9297 393.2277,398.2197 C393.6077,396.4897 393.9777,394.7697 394.3377,393.0497 C396.5477,382.3397 397.7677,371.4697 398.8177,360.5997 C400.7377,340.8197 401.2577,320.9797 401.3977,301.1197 C401.4877,289.2497 401.3877,277.3797 401.1477,265.5197 C401.0077,258.6397 400.9077,251.7597 400.8077,244.8797 C400.6777,237.5797 400.5377,230.2697 400.3477,222.9697 C400.3377,222.8097 400.3977,222.6697 400.4777,222.5497 C400.4577,221.6897 400.4477,220.8297 400.4377,219.9597 C400.4277,219.3897 400.6477,219.1397 400.9677,219.0897 C400.9077,213.8797 400.8677,208.6797 400.8577,203.4797 C400.8577,203.1397 401.0177,202.9197 401.2277,202.7897 L401.2277,202.7897 L401.2277,201.4697 C400.3577,197.8497 399.1777,194.2997 397.6477,190.9197 C397.1277,189.6997 396.5477,188.5097 395.9077,187.3497 C395.1177,185.6097 394.0877,184.0297 392.8277,182.5797 C391.7777,180.8097 390.4877,179.2397 388.9877,177.8397 L388.9877,177.8397 L387.1477,176.5197 C386.6377,176.2497 385.8877,175.7797 385.2277,175.2397 L385.2277,175.2397 L381.6677,173.0397 C380.9777,172.6797 381.4277,171.7797 381.9177,171.5397 L381.9177,171.5397 L381.9177,171.5097 C381.8077,171.4597 381.6877,171.3997 381.5577,171.2897 C380.1177,169.9297 378.6177,168.6497 377.0577,167.4497 C376.7777,167.5597 376.4477,167.5197 376.1977,167.3097 C375.2777,166.4497 374.3377,165.6197 373.3777,164.8197 C371.2277,163.4097 368.9777,162.1197 366.6277,160.9797 C362.8577,159.1997 358.9977,157.6697 355.0377,156.3697 C354.1837,156.0887 353.3237,155.8377 352.4687,155.5847 C351.2507,155.5267 350.0347,155.4607 348.8177,155.4077 C303.5047,153.4197 258.0727,154.2547 212.8627,157.9017 C201.7247,158.8007 190.6007,159.8717 179.4957,161.1127 C169.7237,162.2057 158.0107,162.1677 149.0277,166.6437 C148.6477,166.8337 148.2857,167.0347 147.9327,167.2417 C148.6337,171.7357 150.4667,176.1237 152.0637,180.3607 C154.5267,186.8967 156.7337,193.5587 156.5147,200.6367 C156.3607,205.5727 155.2997,210.3187 153.7717,214.9567 C152.9887,221.5697 150.9277,227.9567 148.7397,234.2317 C137.9727,265.1057 132.1117,296.7157 132.7137,329.4887 C132.7297,330.3667 132.5277,331.1327 132.1797,331.7847 C132.3767,333.2177 132.5727,334.6517 132.8047,336.0807 C133.7027,341.6037 126.4197,344.3507 123.9067,340.6897 C123.7377,340.8567 123.5037,340.9717 123.2877,340.9897 C122.6477,341.0497 121.5977,339.9997 121.2977,339.5197 C120.9077,338.7997 120.4977,338.0997 120.0577,337.4297 C119.9977,337.3997 119.9477,337.3797 119.8977,337.3597 C120.1677,337.9197 120.4477,338.4897 120.7077,339.0297 C121.1477,339.9097 119.4577,340.3397 118.9577,339.5297 C118.5077,338.8197 118.0577,338.1397 117.6077,337.4897 C117.3477,337.6797 117.0577,337.7297 116.8677,337.4197 C115.2577,334.7597 113.3977,332.4797 111.3577,330.5397 C108.1477,327.9197 104.6377,326.3297 100.6477,325.3997 C97.5077,324.9497 94.2877,324.9297 91.1777,325.2897 C87.6077,325.7097 83.8477,326.5997 80.6177,328.2297 C77.9877,330.0397 75.3477,331.8497 72.7077,333.6597 C72.0577,334.3397 71.4377,335.0497 70.8577,335.7897 C69.0277,338.1597 67.5577,340.6897 66.3477,343.3797 C66.2977,343.5497 66.2477,343.7197 66.1977,343.8797 C65.4577,346.1397 64.9777,348.4597 64.7677,350.8397 L64.7677,350.8397 L64.6877,359.8597 C65.0877,363.7697 66.0877,367.5697 67.6177,371.1797 C68.3377,373.3097 69.4677,375.2097 70.9977,376.8897 C71.8177,378.3097 72.7477,379.5997 73.7877,380.7997 C75.8977,382.1997 78.1977,383.3897 80.6477,384.3297 C81.2477,384.4897 81.8477,384.6497 82.4577,384.7697 C85.6077,385.9797 88.8677,386.6297 92.2377,386.7197 C96.4977,387.0097 100.6677,386.6397 104.7477,385.6097 C107.2677,385.1597 109.7077,384.4297 112.0677,383.4197 C114.3277,382.2797 116.4577,380.9097 118.4477,379.3097 C118.6677,379.1697 118.9977,379.2497 119.3577,379.4297 C119.7977,379.1097 120.2377,378.7997 120.6677,378.4497 C120.8677,378.3097 121.0477,378.4797 121.1377,378.6597 L121.1377,378.6597 L121.2577,378.5697 C122.0477,378.0297 124.2177,379.7197 123.2377,380.7197 C123.6577,380.9797 124.0777,381.2897 124.4577,381.6097 C126.1977,381.6797 129.7077,384.8797 129.0477,385.3797 C128.0677,386.2297 127.0377,387.0097 125.9877,387.7497 C126.9177,388.4397 128.1377,389.5097 127.5677,389.9397 C126.5477,390.9097 125.4377,391.7497 124.2577,392.4697 C123.4577,393.0797 122.6377,393.6597 121.7777,394.1897 C120.8477,394.7397 119.8977,395.2097 118.9177,395.6497 C120.6277,398.9597 122.2577,402.2997 123.7777,405.6997 C124.7877,408.1097 125.9577,410.4397 127.3077,412.6797 C129.0277,416.0897 131.0877,419.2897 133.4977,422.2697 C135.4577,425.5697 137.7577,428.5997 140.3877,431.3697 C143.6377,435.0697 147.1277,438.5497 150.8377,441.7697 C152.3177,442.8197 153.8277,443.8397 155.3977,444.7797 C159.4077,447.7997 163.6777,450.3897 168.2077,452.5497 C168.7377,452.8397 169.1577,453.4797 168.5377,453.9797 C168.5177,453.9897 168.4977,453.9897 168.4777,454.0097 C169.9577,454.8497 171.4477,455.6797 172.9477,456.4997 C173.5377,456.8197 174.7477,457.4397 173.8477,458.1697 C173.2677,458.6497 171.4777,457.7897 170.4077,457.2297 C170.5577,457.3097 170.7177,457.3997 170.8777,457.4897 C171.2077,457.6697 173.1077,458.6297 171.9377,459.2397 C171.3477,459.3397 170.7877,459.2397 170.2477,458.9497 C169.6877,458.7397 169.1277,458.5097 168.5777,458.2697 C168.5977,458.4497 168.4977,458.6197 168.2077,458.7597 C167.9777,458.7997 167.7577,458.7997 167.5377,458.7797 C168.7577,459.4697 169.9777,460.1497 171.2077,460.8197 C171.5677,461.0097 173.2677,461.9497 172.1477,462.5297 C171.5977,462.6397 171.0677,462.5497 170.5577,462.2697 C169.6277,461.9197 168.7077,461.5097 167.8177,461.0597 L167.8177,461.0597 L167.1877,460.7097 C167.0277,460.7097 166.8677,460.6897 166.7077,460.6597 C167.6877,461.1897 168.6777,461.6997 169.6777,462.1997 C170.2677,462.5197 171.2577,463.1697 170.4077,463.8297 C169.8177,464.2797 168.2277,463.4697 167.2877,462.9397 C167.2277,463.0097 167.1577,463.0897 167.0577,463.1697 C166.3577,463.6997 164.5577,462.5297 163.9877,462.2197 C159.0277,459.5597 154.2377,456.8097 149.6277,453.6597 C146.8077,451.8497 144.0577,449.9497 141.3677,447.8797 C136.2177,443.8997 131.5377,439.2697 127.2477,434.3897 C124.3177,431.0497 122.7277,429.1697 119.8877,425.1197 C115.3277,418.5997 111.8877,411.7997 108.5777,404.5897 C108.5277,404.4797 108.6277,404.1997 108.7777,403.9197 C108.0977,402.2497 107.4377,400.5597 106.7777,398.8097 C105.0577,399.0397 103.3277,399.1997 101.6177,399.2997 C97.5877,399.5297 93.6777,399.1697 89.8877,398.3397 C85.2977,397.7497 80.7577,396.4497 76.7377,394.4097 C74.3277,393.1997 72.0077,391.9097 69.8077,390.4697 C67.8377,389.4197 65.9377,388.2197 64.1177,386.8197 C56.3677,380.8997 52.1577,371.7097 51.1277,362.1697 C50.3377,357.9697 50.1677,353.6497 50.6377,349.4797 C50.9777,346.4497 51.6577,343.4497 52.6477,340.5597 C54.4777,334.1497 57.8877,328.2197 62.8277,323.7297 C63.6577,322.8797 64.5277,322.0697 65.4577,321.3097 C68.2077,319.0597 71.3277,317.2497 74.6477,315.9297 C75.2877,315.6197 75.9377,315.3297 76.5877,315.0597 L76.5877,315.0597 L75.7977,313.2397 C75.5177,313.3197 74.5477,313.1597 74.4277,312.8197 C74.1077,311.9497 73.8077,311.0597 73.4977,310.1897 C73.3177,310.2997 73.0877,310.3597 72.8377,310.3697 L72.8377,310.3697 L72.8377,311.3797 C72.8477,311.6697 72.2977,313.4697 71.9977,312.5297 C71.6877,311.6697 71.4077,310.7897 71.1077,309.9197 C70.8577,309.7597 70.6677,309.5697 70.5977,309.3497 C70.5677,309.2597 70.5377,309.1697 70.4977,309.0797 L70.4977,309.0797 L70.4277,309.0597 L70.4277,309.3697 C70.4377,309.5597 69.9377,310.9997 69.8477,310.7197 C68.1177,305.9597 66.7077,301.0997 65.6077,296.1597 C64.8577,293.4397 64.2677,290.6897 63.8177,287.8997 C63.3277,285.3897 62.8977,282.8697 62.5277,280.3297 L62.5277,280.3297 L62.4377,279.6997 L62.4377,279.6997 L62.4077,279.5597 C62.3777,279.2897 62.3477,279.0097 62.3077,278.7397 C61.9077,275.8697 61.5777,272.9897 61.3277,270.0897 C60.7977,264.1297 60.5877,258.1397 60.6477,252.1597 C60.5177,252.2097 60.3977,252.2797 60.2677,252.3397 C57.6697,253.4457 54.9247,254.3497 52.1317,255.0697 C47.3267,262.0137 39.6557,266.7127 30.4627,267.2067 C27.3497,267.3747 24.0857,266.9957 21.0637,266.1167 C20.7497,266.1887 20.4257,266.2467 20.0897,266.2907 C17.6267,266.6127 15.9137,265.6097 13.6107,265.3037 C9.9237,264.8157 6.7977,264.5757 4.4117,262.4347 C3.6747,262.4517 2.9707,262.3447 2.3017,262.1447 C-4.0253,263.6617 -10.7483,260.3177 -12.9733,253.3097 C-16.7683,251.0857 -19.7923,247.7867 -21.8253,243.9587 C-25.7413,238.9387 -28.8723,232.7837 -30.8143,226.3167 C-30.8443,226.2557 -30.8773,226.1967 -30.9063,226.1337 C-31.8913,223.9977 -32.3603,221.7067 -32.4003,219.4087 C-33.4483,212.8627 -33.1723,206.3087 -31.1793,200.5477 C-31.2633,197.4247 -30.5293,194.1697 -29.1853,191.2167 C-27.5563,187.6357 -25.0723,183.5187 -21.8493,181.1307 C-21.8413,177.4607 -20.2643,173.4207 -18.1973,170.6827 C-14.0723,165.2137 -8.0903,162.3227 -1.6163,161.9047 C1.6757,153.4657 11.6507,151.4947 20.2547,154.3037 C23.8287,150.6517 29.0637,148.9077 34.2887,149.5287 C38.7067,150.0537 42.4827,152.1667 45.6087,155.0787 C46.4327,155.3137 47.2537,155.5587 48.0737,155.8137 C50.8107,154.6127 54.0037,154.3407 56.9247,155.0937 C61.9877,156.3987 65.2907,160.2347 67.5757,164.6347 C68.3047,165.1367 69.0167,165.6547 69.7117,166.1957 C70.4747,166.5377 71.1677,166.9947 71.7967,167.5327 C72.7107,168.0197 73.4867,168.8207 73.9597,169.9827 C75.2497,171.3127 76.4497,172.7197 77.5117,174.2287 C78.3067,172.3897 79.1267,170.5637 79.9737,168.7507 C81.3527,169.1657 83.0197,168.6287 83.7137,166.7867 C88.1137,155.1117 96.1227,133.7207 103.6697,123.8637 C94.8617,129.8607 84.1077,133.0217 73.4257,132.7037 C72.9687,132.6897 72.5077,132.6707 72.0427,132.6457 C66.3007,133.6357 60.4677,133.7277 55.1127,132.6537 C51.5067,131.3447 47.9927,129.7847 44.5877,128.0197 C43.7597,127.5897 42.9387,127.1377 42.1207,126.6817 C41.7637,126.3807 41.4327,126.0447 41.0917,125.7227 C40.3877,125.7737 39.6507,125.7187 38.8667,125.5107 C35.9197,124.7317 33.1927,122.7707 31.4827,120.2507 C31.1647,119.7817 30.9087,119.2987 30.6807,118.8117 C28.8257,116.9977 27.2187,114.9427 26.0377,112.5397 C24.6477,109.7297 23.7977,106.5697 23.7077,103.4097 C23.1277,100.3097 23.1677,97.1197 24.2477,94.1597 C24.3677,93.8397 24.5077,93.5297 24.6377,93.2097 C24.6977,93.0097 24.7377,92.7997 24.8077,92.5997 C25.1237,91.5447 25.5257,90.6047 26.0137,89.7147 C26.1947,88.7997 26.4907,87.8927 26.9087,87.0097 C26.9557,86.5827 27.0137,86.1557 27.0827,85.7307 C23.9047,79.7357 25.0307,71.8957 29.7877,67.0227 C29.1297,63.8727 29.7997,60.5327 31.7167,57.7377 C33.1247,55.6837 35.0817,54.0627 37.2987,52.9377 C37.5297,52.8207 38.1417,52.6197 38.8737,52.3887 C39.6937,51.6637 40.5587,50.9777 41.5057,50.3737 C41.7417,44.2307 48.1587,40.8127 53.3727,37.7857 C56.7547,35.8227 58.2327,32.1017 61.7157,30.2197 C65.5257,28.1627 70.4007,28.0397 74.6117,27.5327 C84.5387,26.3367 95.1097,25.4127 105.0867,26.4937 C110.6257,27.0937 115.2127,29.7687 117.1097,34.1507 C121.8747,34.7137 126.1217,38.1517 129.4817,41.6877 C133.6757,46.1007 137.2467,50.7987 138.4777,56.5977 C139.2977,57.0407 140.0427,57.5827 140.7157,58.1947 C140.6907,62.2727 140.1587,66.3577 139.0327,70.2067 C139.3637,72.5077 138.6707,74.7047 137.4987,76.6967 C137.6777,78.5827 137.5497,80.4397 137.1547,82.2907 C139.4347,86.3357 137.3007,92.4487 134.1067,96.4597 L134.1067,96.4597 L134.0827,98.7217 C134.2727,98.6227 134.4577,98.5057 134.6307,98.3587 C149.1227,86.0267 164.0197,87.7857 181.6247,80.7297 C197.5027,77.6647 213.7087,75.7137 229.9727,75.0647 C229.7577,75.0327 229.5427,75.0097 229.3287,74.9747 C221.1327,73.6327 213.2607,70.2617 206.4907,65.4187 C204.6987,64.9647 202.9997,64.1557 201.4787,62.8027 C200.0007,61.4887 198.9777,59.9727 198.3897,58.3467 C198.1217,58.0597 197.8567,57.7707 197.5957,57.4767 C192.5137,56.2287 188.6437,51.8317 189.2917,46.0517 C186.0737,42.2427 184.8897,37.5397 185.9787,32.6427 C184.1807,29.6057 184.0237,25.7767 185.3657,22.5697 C182.5397,19.1377 182.3197,14.2657 184.5357,10.3827 C182.5127,7.5077 182.0657,3.6977 184.5617,0.2927 C185.7397,-1.3153 187.3717,-2.3293 189.1497,-2.8193 C189.6517,-4.6723 190.6727,-6.3933 192.2767,-7.7223 C193.1017,-8.4053 193.9657,-8.9123 194.8487,-9.2903 C195.1807,-11.2033 196.2617,-13.0173 198.3417,-14.4443 C199.2857,-15.0913 200.2517,-15.5093 201.2117,-15.7413 C202.1207,-17.9913 203.7067,-19.9643 205.9377,-21.2453 C208.6317,-22.7903 211.7647,-22.9953 214.6197,-22.1853 Z M86.2674,341.5098 C88.3574,341.4798 90.3674,341.4998 92.3674,341.7098 C92.4474,341.6498 92.5274,341.6198 92.5974,341.6298 C92.9274,341.7098 93.2274,341.7798 93.5474,341.8598 C94.6574,342.0198 95.7674,342.2498 96.8974,342.5798 C99.5674,343.3698 102.2374,344.6198 104.5474,346.1698 C106.7274,347.6298 108.8974,349.1498 110.7974,350.9698 C111.4674,351.5398 112.0974,352.1598 112.6974,352.7998 C113.6674,353.5998 114.6074,354.4198 115.5074,355.2298 C116.6074,356.2398 117.6774,357.2798 118.6974,358.3598 C120.2974,360.2098 121.5474,362.2698 122.4474,364.5398 C122.8074,365.2698 122.3674,365.7098 121.6274,365.5798 C121.2974,365.5298 120.8474,365.2898 120.3874,364.9698 L120.3874,364.9698 L120.6074,365.4598 C120.9974,366.2298 120.6674,366.7798 119.7774,366.4898 C119.7274,366.4598 119.6774,366.4298 119.6374,366.3998 C120.0974,367.2198 120.5174,368.0598 120.8774,368.9398 C121.2674,369.7198 120.9174,370.2598 120.0374,369.9598 C119.5774,369.6998 119.1374,369.3998 118.7174,369.0698 C118.9074,369.4898 119.1074,369.8998 119.2774,370.3298 C119.6774,371.1198 119.2174,371.5298 118.4374,371.3498 C117.7674,370.9798 117.1474,370.5398 116.5674,370.0298 C116.4774,369.9598 116.3974,369.8798 116.3174,369.8098 C116.5774,370.4598 116.0874,370.8598 115.4374,370.7298 C114.5174,370.5498 112.7874,368.9998 112.3674,368.1798 L112.3674,368.1798 L112.2874,368.0298 C111.7974,367.6998 111.2674,367.2398 110.8674,366.7998 C110.5474,367.2598 109.9274,367.5998 109.6474,367.0398 C108.8074,364.7498 107.4974,362.7898 105.7074,361.1398 C104.6874,359.6498 103.4474,358.3798 101.9974,357.3298 C101.2174,356.6698 100.4074,356.0398 99.5774,355.4398 C98.1074,354.7698 96.5774,354.2598 94.9774,353.9198 C94.6574,353.8198 94.3274,353.7598 94.0074,353.6698 C93.2974,353.5398 92.5974,353.4098 91.8874,353.3098 C88.9974,352.9098 86.0974,352.8398 83.1974,353.0998 C82.6774,353.1198 82.1774,352.7198 81.9574,352.2598 C81.3074,352.2898 80.6674,352.3198 80.0174,352.3798 C78.9474,352.4198 79.1774,350.9098 79.9874,350.7598 C81.0074,350.5698 82.0274,350.4298 83.0274,350.3098 C83.0074,350.2198 82.9974,350.1198 83.0174,350.0398 C81.1874,349.9498 79.3674,349.9898 77.5274,350.1798 C76.7274,350.2198 77.6774,348.7398 78.1174,348.6598 C78.3174,348.6198 78.5174,348.5998 78.7274,348.5598 C78.7074,348.5298 78.6974,348.5098 78.6874,348.4798 L78.6874,348.4798 L78.6374,348.4798 C77.5374,348.5298 76.7874,346.7798 78.1074,346.5398 C78.4374,346.4798 78.7574,346.4398 79.0774,346.3798 C79.0174,346.2098 79.0074,346.0598 79.0674,345.9198 C78.4974,345.9098 77.9374,345.9098 77.3674,345.9098 C77.6774,345.8898 77.9074,344.5498 78.2774,344.4998 L78.2774,344.4998 L79.1574,344.3798 C79.1774,344.0098 79.7374,343.1498 79.9774,343.0998 C81.8774,342.7798 83.7374,342.5598 85.5774,342.4898 C85.7574,342.0698 86.0174,341.5098 86.2674,341.5098 Z" id="ðŸ–-Ink" fill="#000000"></path>
    </g>
</svg>