<?xml version="1.0" encoding="UTF-8"?>
<svg width="473px" height="567px" viewBox="0 0 473 567" version="1.1" xmlns="http://www.w3.org/2000/svg" xmlns:xlink="http://www.w3.org/1999/xlink">
    <!-- Generator: Sketch 62 (91390) - https://sketch.com -->
    <title>head/mono/Cornrows</title>
    <desc>Created with Sketch.</desc>
    <g id="head/mono/Cornrows" stroke="none" stroke-width="1" fill="none" fill-rule="evenodd">
        <path d="M430.5477,316.8603 C436.7417,272.1573 423.5137,229.0163 406.3767,188.1603 C405.4357,185.6723 403.9427,183.5173 402.0237,181.9853 C353.6607,84.5083 282.5977,75.6813 183.4587,82.3943 C180.5297,82.3293 180.3557,82.3813 178.1317,81.3863 C177.7637,41.7883 132.5387,20.8133 98.1237,33.8783 C-54.5083,104.8073 -6.5143,304.4923 23.8587,434.8573 C34.6947,485.3223 45.5337,535.7843 56.3717,586.2473 C56.7357,587.9353 57.5027,589.3943 58.5227,590.6243 C56.9487,591.2213 55.3737,591.7813 53.8287,592.3073 C50.3027,593.5073 51.7037,598.7643 55.3737,597.9123 C58.9707,597.0773 62.4367,595.9583 65.8657,594.7393 C71.2117,595.8993 75.6937,592.4063 79.8907,589.6203 C129.0367,570.1863 149.6687,506.3153 162.2747,459.2623 C213.5257,495.4223 295.4187,522.5043 354.0177,489.9883 C408.9257,456.9223 428.6997,387.9473 424.7987,327.0683 C428.8057,325.2243 430.4227,321.2043 430.5277,317.0133 L430.5517,317.0133 C430.5507,316.9623 430.5477,316.9113 430.5477,316.8603 L430.5477,316.8603 Z" id="ðŸŽ¨-Background" fill="#FFFFFF"></path>
        <path d="M84.0409,37.6018 C95.3719,30.2618 109.9149,27.5298 123.2649,28.0648 C130.3849,28.3498 137.0319,30.1248 143.5959,32.7908 C149.6799,35.2628 155.0439,38.8138 160.9679,41.5198 C161.3279,41.6838 161.0559,42.1888 160.7159,42.1198 C153.700739,40.7039935 145.46435,41.5592589 138.351367,42.5729781 L137.6439,42.6748 C130.6529,43.6898 123.5389,44.2148 116.6479,45.8258 C103.9539,48.7928 92.1469,55.2578 85.1799,66.5028 C76.0829,81.1888 73.7509,100.1988 74.7239,117.1428 C75.2159,125.7158 76.9059,134.1498 79.5379,142.3228 C81.1179,147.2278 84.7889,152.1628 86.5039,157.3098 C87.8089,154.8738 89.1559,152.4618 90.5509,150.0788 C84.1959,147.0838 82.4139,138.7598 82.0849,131.2478 C81.1059,130.3018 80.4759,128.9328 80.4549,127.6758 C80.3989,124.2968 81.1939,121.2378 82.5459,118.4388 C83.3179,110.5108 84.9539,102.6068 87.7699,95.1778 C98.8229,66.0108 127.9819,39.7228 161.0489,42.3198 C170.1369,43.0338 178.9799,46.8928 183.6789,55.0968 C187.4539,61.6848 187.4789,69.6318 184.8749,76.6388 C184.1029,78.7188 183.0989,80.5968 181.9189,82.3098 C185.4919,81.4038 189.0709,80.5348 192.6439,79.6738 C205.0399,76.6858 217.4989,74.3448 230.1909,73.0428 C247.4759,71.2708 265.1169,73.9518 280.9559,80.8508 C285.2999,81.9678 289.6229,83.1678 293.9199,84.4498 C312.8289,90.0878 332.2289,97.4518 347.5019,110.3208 C354.5289,116.2418 359.5579,123.1298 363.6399,130.6938 C378.9289,144.3248 393.5489,159.7768 403.8689,177.4528 C425.1319,213.8718 430.2099,258.9208 431.0839,300.3238 C431.8869,338.3578 428.5459,376.7818 421.4179,414.1528 C418.1819,431.1128 412.9509,446.8748 402.3689,460.7838 C390.5849,476.2728 374.8679,488.4758 357.2319,496.6638 C321.3269,513.3338 276.8879,515.7588 241.9879,495.1058 C231.4909,488.8948 240.9429,472.7038 251.5459,478.7548 C286.0009,498.4158 329.9729,493.9248 363.1249,473.0808 C377.1299,464.2758 389.1989,452.2348 396.8659,437.4898 C402.464943,426.719865 404.867443,414.369988 406.948057,402.345231 L408.0539,395.9128 C414.4769,358.9348 417.3809,321.0058 415.8359,283.4928 C414.2939,246.0728 408.3589,205.5428 387.1629,173.7298 C375.9829,156.9498 361.7259,142.2498 346.7509,128.8458 C345.6989,127.9038 344.6449,126.9658 343.5899,126.0308 C337.7369,122.5138 331.6709,119.4428 325.7019,116.8218 L324.431965,116.272698 C320.998413,114.809167 316.196823,112.918608 311.7419,111.4068 C305.3739,109.2458 298.9029,107.3258 292.4049,105.5958 C288.9989,104.6888 285.5769,103.8568 282.1459,103.0618 C283.3419,104.1588 284.5309,105.2658 285.6989,106.4008 C291.2329,111.7778 295.6229,118.1678 300.8699,123.8058 C301.4629,124.4418 300.7149,125.3698 299.9609,124.9828 C291.9819,120.8888 283.1339,118.2388 274.8029,114.9218 C266.9259,111.7858 259.2709,108.1758 251.5339,104.7158 C249.5959,103.8478 247.6639,102.9208 245.7369,102.0038 C238.1279,102.0818 230.5189,102.2608 222.9269,102.6938 C232.1049,109.2268 240.4869,116.9478 247.4299,125.4148 C248.0029,126.1118 247.4819,127.2288 246.5179,126.9818 C231.9838,123.2603 218.16169,117.79082 204.347356,112.059062 L197.7379,109.3078 L197.7379,109.3078 C192.8799,109.0618 188.0149,108.9468 183.1489,109.0188 L180.790619,109.058046 C175.682336,109.155529 170.583967,109.357867 165.5209,110.1318 C164.3169,110.3148 163.1369,110.4888 161.9649,110.6488 C154.8399,113.5568 147.9839,117.0628 141.8149,121.6838 L143.4219,121.5888 L143.4219,121.5888 C153.1759,121.0338 163.1209,121.8738 172.5669,124.3918 C190.9209,129.2868 206.5819,141.0738 217.9779,156.1028 C218.3189,156.5528 217.6559,157.1788 217.2089,156.8728 C202.8719,147.0578 186.2429,142.1138 169.2059,139.4288 C160.9709,138.1298 152.4899,137.6828 144.1759,138.3298 C137.2919,138.8648 130.1709,141.2898 123.3219,140.1128 C121.4549,142.4378 119.6619,144.8328 117.9359,147.2808 C118.8429,147.2228 119.7539,147.1698 120.6709,147.1268 C130.5069,146.6648 140.5239,147.2958 150.1279,149.5598 C169.3109,154.0848 185.3409,165.6008 200.0049,178.2438 C200.2949,178.4938 199.9209,178.9398 199.6069,178.7598 C183.7039,169.5818 165.2199,166.8388 147.2049,165.1828 C138.1329,164.3488 128.9589,163.9708 119.8669,164.6948 C115.7019,165.0258 111.5829,165.7128 107.4299,166.1398 C107.0939,166.1748 106.7449,166.1838 106.3989,166.1998 C103.3889,171.8758 100.6599,177.6538 98.1979,183.4148 C105.7119,181.3988 113.8189,180.3408 121.5769,180.8628 C137.3349,181.9238 152.9649,189.1488 165.5439,198.3898 C165.9379,198.6788 165.7179,199.4488 165.1829,199.2468 C151.4909,194.0738 137.9179,194.0318 123.6289,196.0278 C116.9299,196.9638 110.2989,198.2338 103.8269,200.2258 C100.5729,201.2278 97.3559,202.3208 94.2679,203.7598 C92.8659,204.4118 91.5009,205.1718 90.1209,205.8888 C89.0169,209.6368 88.0299,213.4198 87.1399,217.2258 C110.4959,218.5428 132.4989,229.5668 151.6479,242.2188 C152.1109,242.5248 151.8219,243.3768 151.2499,243.1608 C139.8189,238.8478 127.3839,236.8538 115.2589,235.6928 C104.6569,234.6778 94.2529,235.2298 83.7119,235.5258 C83.1469,239.5308 82.6899,243.5478 82.3589,247.5728 C84.0539,248.0478 85.7169,248.5598 87.3159,249.0408 C92.5749,250.6208 97.8239,252.7478 102.7309,255.2138 C112.6989,260.2228 120.7759,266.9938 128.9029,274.5208 C129.3269,274.9138 128.8849,275.7718 128.3099,275.5388 C118.8769,271.7258 108.5699,269.2838 98.6399,267.1228 C93.5009,266.0048 88.3599,264.9728 83.1849,264.0258 C82.6839,263.9338 82.1749,263.8568 81.6669,263.7808 C81.6179588,272.957271 82.1368239,282.136399 83.2810209,291.240649 L83.5029,292.9468 C84.1229,297.5548 83.6159,302.0118 80.5649,305.1948 C84.7849,302.3898 89.6129,300.4468 94.9639,299.7018 C109.0549,297.7408 122.1029,303.3708 130.9699,314.2608 C131.3849,314.7698 130.7449,315.4378 130.2409,314.9898 C121.6359,307.3328 108.3749,305.9778 97.6879,309.5828 C87.7939,312.9198 80.3559,320.8868 77.3749,330.8558 C74.2069,341.4498 75.6579,353.1458 81.4349,362.5898 C84.3129,367.2948 88.4699,371.5008 93.6719,373.5698 C94.3139,373.8258 94.9679,374.0388 95.6289,374.2238 C98.7689,373.0758 102.1479,373.5958 105.3769,375.0508 L105.7959,375.2478 L105.7959,375.2478 C107.8559,375.2358 109.9069,375.1728 111.8999,375.1908 C115.7789,375.2278 117.6439,379.3458 116.0159,382.4108 C116.9389,384.1018 117.6149,386.0018 118.4259,387.6588 C119.8909,390.6488 121.4249,393.6198 122.9669,396.5718 C125.1479,399.0738 127.2309,401.6638 128.6449,404.6838 C129.2249,405.9228 129.7729,407.2648 130.1929,408.6108 C131.4049,410.4338 132.6369,412.2468 133.8989,414.0508 C137.9789,419.8788 142.2759,425.3998 147.0409,430.6908 C149.9049,433.8708 153.1999,436.7098 156.2319,439.7578 C157.1509,439.8798 158.0519,440.5058 158.3359,441.4058 L158.5839,442.2668 L158.5839,442.2668 C159.5609,443.3678 160.4959,444.5018 161.3379,445.7098 C163.2059,448.3888 162.6939,451.1068 161.0529,453.0658 C163.6519,469.2818 161.8819,486.5338 158.4049,502.2578 C156.1569,512.4178 153.5319,522.5688 150.0089,532.3698 C148.2179,537.3518 146.0489,542.1378 143.0519,546.5138 C141.4089,548.9118 139.2689,551.7048 136.8689,553.9868 C136.5039,556.6428 136.0299,559.2768 135.3509,561.8588 C127.2999,592.4558 94.3439,601.7708 66.7499,605.6788 C61.4239,606.4318 56.1529,605.1458 53.2519,600.1848 C52.5819,599.0398 52.1319,597.8048 51.8899,596.5358 C50.6879,596.2158 49.5319,595.6528 48.4949,594.8438 C48.3219,596.7608 48.1219,598.6848 47.8689,600.6298 C47.2379,605.4918 40.6749,606.9538 39.0299,601.8258 C32.0879,580.1838 28.3169,557.3648 23.5599,535.1258 C18.8129,512.9338 13.5119,490.8598 8.6069,468.7018 L2.3962785,440.737068 C-12.7579368,372.260718 -26.95202,302.90908 -23.4681,232.4818 C-21.5661,194.0378 -14.5121,155.6938 0.5859,120.1678 C13.1629,90.5728 34.3889,57.3238 68.6779,51.2728 C68.9139,51.2318 69.1239,51.2558 69.3199,51.3058 C73.3919,46.0108 78.2569,41.3478 84.0409,37.6018 Z M104.7309,409.8268 C107.4959,418.9998 109.4699,428.4038 110.5439,438.0008 C112.3329,453.9958 111.4459,470.3808 110.6689,486.4188 C109.9539,501.1528 108.2569,516.0148 105.3679,530.4828 C102.5949,544.3748 98.2489,557.9948 91.7879,570.6318 C90.7429,572.6758 89.6199,574.6658 88.4399,576.6178 C92.0129,575.4268 95.2389,574.0408 98.5989,572.1188 C102.8279,569.6988 106.6979,566.5788 108.8149,563.2878 C112.2129,558.0088 113.3529,552.1438 113.8499,545.8518 C115.1279,529.6698 115.7189,513.4398 116.5339,497.2308 L116.714708,493.70128 C118.032956,468.375386 119.760856,442.4026 117.1799,417.0498 C113.5489,416.0958 110.2729,414.2228 107.2499,411.8728 C106.4159,411.2248 105.5739,410.5388 104.7309,409.8268 Z M77.1159,379.1588 C77.8789,386.8628 78.6089,394.5678 79.2699,402.2788 C81.6149,429.6498 83.0639,457.1728 81.7309,484.6388 C81.0369,498.9418 79.6429,513.2848 77.2329,527.4058 C76.1466,533.7706 74.8335,540.13378 73.3665,546.42973 L72.8719,548.5258 C71.3829,554.7618 70.4339,562.5558 65.6659,567.0908 L65.7019,568.0318 L65.7019,568.0318 C69.0489,562.9518 72.1449,557.2408 74.3619,551.9238 C84.2409,528.2348 86.0459,502.4468 87.8309,477.1878 C88.9309,461.6208 89.7459,446.0338 91.0189,430.4798 L91.6371661,422.994598 C92.3464802,414.283602 92.9571222,405.637133 92.8739,396.9338 C90.9709,394.0968 89.4249,391.1138 88.4649,388.0518 C88.3109,387.5588 88.2049,387.0608 88.1309,386.5628 C84.1069,384.6558 80.3179,382.0528 77.1159,379.1588 Z M131.1909,433.3618 C133.1759,439.9668 134.7959,446.6558 135.9499,453.3728 C137.7879,464.0648 138.8909,474.8238 139.3759,485.6188 L140.389772,481.804822 C142.942914,472.266177 145.656253,462.713565 149.0189,453.4568 C143.6999,449.7328 139.2559,443.8848 135.3899,438.9968 C133.9449,437.1708 132.5439,435.2858 131.1909,433.3618 Z M55.0209,139.6228 C52.9769,146.2208 51.1899,152.8938 49.3439,159.5458 C45.0059,175.1718 42.1899,191.2258 40.2359,207.3098 C32.4389,271.5278 38.9329,336.0058 47.4259,399.8038 C50.9449,426.2378 54.7709,452.6328 58.0549,479.0978 C58.1419,476.5008 58.2149,473.9038 58.2619,471.3098 C59.2599,415.1358 49.8049,359.7478 46.0189,303.8638 L45.7916035,300.458482 C44.0757559,274.329152 43.0259417,247.711883 46.1319,221.6778 C47.7299769,208.2778 50.5456944,195.164412 54.2927955,182.215845 L56.5234714,174.610281 C58.0310224,169.496331 59.6334714,164.246229 61.5349,159.1548 C61.2809,158.6668 61.0389,158.1748 60.8139,157.6818 C58.1829,151.8978 56.3519,145.8178 55.0209,139.6228 Z M61.6079,63.9238 C41.9819,89.2268 25.5129,116.1058 15.5489,147.0218 C-7.2551,217.7778 -2.1641,293.4388 11.0509,365.5608 C17.2779,399.5428 25.3079,433.1288 32.6349,466.8748 C24.7919,406.2758 14.6779,345.8098 13.0679,284.6278 C12.1889,251.2358 13.9159,217.6878 20.0669,184.8118 L20.4309556,182.878754 C23.0672753,168.984611 26.3328333,154.264044 33.0179,141.7778 C36.6479,134.9978 40.6549,128.6708 45.4069,122.6148 C47.4109,120.0608 49.6609,118.0128 52.0479,116.1398 C51.3479,98.6968 53.9859,79.7818 61.6079,63.9238 Z M93.6279,333.5211 C103.3919,333.9051 113.1469,336.6271 120.8359,342.9731 C126.8509,347.9361 118.2729,356.3241 112.3069,351.5011 C105.8189,346.2571 99.9999,340.3001 93.0839,335.5301 C92.2599,334.9611 92.4859,333.4761 93.6279,333.5211 Z M77.4299,307.5058 C75.2589,308.6248 73.1019,308.8508 70.6429,308.2468 C70.5529,308.2248 70.4663444,308.1998 70.3814926,308.173356 L69.8789,308.0098 C70.0939,310.3378 70.3199,312.6658 70.5439,314.9938 C72.5279,312.1998 74.8289,309.6698 77.4299,307.5058 Z M67.7109,167.0148 C66.8469,174.2348 66.2839,181.4898 65.9839,188.7558 C65.692525,195.83455 65.5711187,202.934738 65.5379508,210.037605 L65.5289,213.0818 L65.5419,213.0238 C68.8989,198.7018 73.6469,184.6068 79.7109,171.1188 C78.6669,171.2928 77.6069,171.2648 76.5629,171.1388 C74.1749,170.8498 71.8849,169.7908 69.8359,168.5518 C69.0889,168.0998 68.3879,167.5728 67.7109,167.0148 Z M167.3059,83.3298 C163.1329,85.2158 159.1029,87.3838 154.9149,89.2268 C146.6099,92.8828 138.4839,97.1328 130.7979,101.9578 C123.0199,106.8408 115.5269,111.9818 108.6359,118.0718 C107.8289,118.7858 107.0289,119.5078 106.2299,120.2288 C106.0689,121.8038 105.9519,123.3848 105.8989,124.9788 C105.8699,125.8358 105.8689,126.7318 105.8799,127.6528 C118.8829,111.5458 134.6039,98.8378 154.5479,90.8438 C158.0049,89.4578 161.5189,88.2238 165.0649,87.0818 C165.9089,85.9098 166.6659,84.6658 167.3059,83.3298 Z M166.9349,67.8788 C164.6159,64.8008 157.9499,65.0518 153.7469,65.7378 C146.9509,66.8478 140.9649,69.2238 135.1399,72.6638 C128.2549,76.7278 122.3159,82.2338 117.6689,88.7098 C119.9559,87.4198 122.2859,86.2028 124.6649,85.0728 L126.294824,84.3030687 C135.305649,80.079111 145.066214,76.0634286 154.9219,74.7538 C159.4819,74.1478 164.3859,73.2708 168.9929,73.7648 C168.7659,71.5258 168.0999,69.4258 166.9349,67.8788 Z" id="ðŸ–-Ink" fill="#000000"></path>
    </g>
</svg>