<?xml version="1.0" encoding="UTF-8"?>
<svg width="473px" height="567px" viewBox="0 0 473 567" version="1.1" xmlns="http://www.w3.org/2000/svg" xmlns:xlink="http://www.w3.org/1999/xlink">
    <!-- Generator: Sketch 62 (91390) - https://sketch.com -->
    <title>head/mono/Flat Top</title>
    <desc>Created with Sketch.</desc>
    <g id="head/mono/Flat-Top" stroke="none" stroke-width="1" fill="none" fill-rule="evenodd">
        <path d="M242.041161,75.2596156 C298.821805,75.2596156 372.115238,110.877442 378.365264,147.356837 C385.730757,190.346849 425.171562,355.304424 416.265335,408.203572 C407.359108,461.10272 359.365264,499.183765 282.566771,499.183765 C205.768277,499.183765 148.446655,457.302629 135.285147,442.922462 C126.510808,433.335685 113.993271,411.428601 97.7325351,377.201211 C70.3194918,373.555491 56.5470645,360.55971 56.4152532,338.213866 C56.2871511,315.868022 65.1995229,300.630067 83.1523686,292.5 C76.7512999,204.313833 81.6113554,148.741029 97.7325351,125.781589 C121.914305,91.3424282 185.260516,75.2596156 242.041161,75.2596156 Z" id="ðŸŽ¨-Background" fill="#FFFFFF"></path>
        <path d="M374.8904,141.4707 C374.8494,140.7017 375.9694,140.6117 376.1794,141.2917 C388.4294,181.7617 395.9804,213.3007 403.9294,254.7917 L406.276866,266.997009 C412.550326,299.550095 418.8884,332.150589 424.2404,364.8617 L424.554568,366.814687 C427.23555,383.747064 428.781141,400.844293 425.4204,417.8117 C422.2804,433.6717 413.7004,448.2117 402.5604,459.7917 C381.0304,482.1727 351.1094,496.1517 321.0104,502.4017 C305.7904,505.5617 290.0904,506.7817 274.5804,505.6817 C266.8494,505.1407 259.1304,504.0507 251.5604,502.4417 L250.724678,502.263016 C243.094277,500.615682 236.322032,498.650612 232.2694,491.4707 C231.2504,489.6617 231.6604,486.5617 233.8004,485.6317 C237.8404,483.8907 240.8104,483.1617 245.2194,483.6617 C249.4294,484.1407 253.5404,485.4117 257.7004,486.2017 C265.6504,487.7117 273.7304,488.4707 281.8204,488.6517 C297.7104,489.0017 313.6404,487.0117 328.8304,482.2717 C354.9294,474.1217 381.4504,458.5317 396.7004,435.2117 C414.6392,407.7788 407.496261,374.484902 402.742688,344.188836 L402.5994,343.2717 C397.7869,312.30545 393.028759,281.3392 388.410058,250.352852 L386.4394,237.0717 C381.2604,201.9817 376.3704,176.9317 374.8904,141.4707 Z M109.9002,55.5816 C122.926662,46.9957538 139.113587,44.8859503 154.413673,45.0044304 L156.329603,45.0285863 C175.920941,45.3271956 274.537721,47.674017 307.55555,48.3961621 L315.4102,48.5616 C325.806354,48.7577538 346.77388,48.9625649 357.576625,49.1599951 L358.2002,49.1716 C363.5002,49.2716 368.8002,49.3116 374.1002,49.4816 L374.877076,49.5095821 C378.847271,49.6790784 382.150806,50.2731455 385.2602,53.0716 C386.84145,54.4899333 387.458377,56.6530913 387.313413,58.713503 L387.2902,58.9816 L395.1602,59.6716 C400.50401,60.143981 403.329704,64.9368668 401.206794,69.7868945 L401.1002,70.0216 C397.3302,78.0616 394.4502,101.4616 392.4302,110.1116 C391.3702,114.6616 390.5192,119.2816 390.0192,123.9316 C389.6202,127.5926 389.5802,131.2616 387.5402,134.4816 C383.1892,141.3516 370.9502,141.2916 370.7302,131.5616 C370.7202,131.2516 370.7302,130.9516 370.7602,130.6616 C339.9602,129.3116 297.9102,129.4416 267.1502,131.2816 C238.4202,133.0016 209.8202,136.9016 181.6702,142.8716 C174.5402,144.3816 167.4302,146.0316 160.3702,147.8216 C154.5802,149.2816 147.4702,150.1516 142.2902,153.2816 C136.4902,156.8016 136.6002,163.1116 137.2302,169.1216 C137.9064,175.4916 139.033988,172.20958 140.631788,178.014673 L140.7302,178.3816 C142.3802,184.6816 144.4202,190.9116 147.1202,196.8316 C148.6602,200.2116 151.1412,203.4616 150.2002,207.3516 C149.6702,209.5416 147.9392,211.8816 146.3502,213.4116 C139.1092,220.3616 126.8702,215.9316 121.9502,225.4516 C116.801162,235.406408 116.673284,248.891419 116.236302,259.906545 L116.2102,260.5516 C115.8912,268.1416 115.9802,275.7516 116.4802,283.3216 C116.9302,290.2206 118.7692,297.0516 116.4102,303.6816 C114.6892,308.5016 109.0702,308.9516 106.1302,305.0316 C105.7927,304.5816 105.483325,304.12035 105.193638,303.656287 L104.9102,303.1916 L104.8912,303.2016 C105.1702,303.6416 105.4302,304.0926 105.6802,304.5516 C105.9502,305.0616 105.2802,305.6216 104.8702,305.1816 C97.9502,297.6516 87.8402,299.1516 80.0102,304.4216 C72.0802,309.7816 68.9502,319.9616 68.5402,329.0926 C68.0802,339.2206 68.9802,351.0926 73.2002,360.4516 C74.9802,364.4116 77.5192,368.0516 81.7302,369.5616 C83.6412,370.2416 85.4602,370.1516 87.4502,370.3116 C89.5192,370.4706 92.0102,371.5116 94.0192,371.3716 C96.6311565,371.18573 98.9761116,374.167512 98.2342607,376.665804 L98.1802,376.8316 C98.1412,376.9516 98.1002,377.0716 98.0612,377.1816 C98.1602,377.2716 98.2602,377.3816 98.3302,377.5416 C105.9302,393.0716 116.3502,406.8916 127.8702,419.7116 C133.6412,426.1216 140.0402,432.0116 146.7302,437.4616 C150.0302,440.1516 153.5102,442.8426 157.1802,445.0116 C158.4002,445.7206 159.5192,446.2016 160.8912,446.5926 C161.5302,446.7716 162.2602,446.8616 162.8802,447.0716 L163.52404,447.29208 C163.5682,447.3064 163.6102,447.3196 163.6502,447.3316 C165.4902,447.5416 167.0402,448.7616 167.6502,450.6716 C169.2402,455.6516 166.3502,460.0516 161.4102,461.4216 C156.058135,462.918339 151.014222,460.290433 146.771833,457.273279 L146.4902,457.0716 C137.8402,450.8426 129.8702,443.8516 122.9702,435.6916 C109.3202,419.5816 100.7692,400.9316 96.8112,380.3016 C95.8302,382.4116 94.5102,384.2516 92.2202,385.5316 C88.6602,387.5316 84.4102,387.5316 80.5102,386.8616 C72.6602,385.5316 65.9702,380.7416 61.5002,374.2616 C56.8592,367.5416 55.1302,359.3816 54.0802,351.4316 C53.0402,343.4706 52.5302,335.4816 53.5702,327.5016 C55.0612,316.0416 59.8702,304.7116 69.2202,298.4316 C62.2202,283.1816 60.9902,266.0816 61.4902,249.3816 C62.1002,228.8216 65.6502,208.0316 68.3802,187.6616 L76.1412,129.7516 L76.1412,129.7516 L76.4587208,127.417033 C78.331566,113.793594 80.6115514,100.098086 85.7102,87.2616 C90.7402,74.6116 98.3802,63.1716 109.9002,55.5816 Z M77.2404,329.5414 C90.0604,323.3214 103.9104,329.0514 110.8104,341.1214 C116.8098,351.6154 98.9721879,358.551637 95.9959987,347.734637 L95.9104,347.4014 C93.9504,339.2114 85.9694,332.1314 77.6404,331.0314 C76.9504,330.9324 76.4394,329.9324 77.2404,329.5414 Z" id="ðŸ–-Ink" fill="#000000"></path>
    </g>
</svg>