<?xml version="1.0" encoding="UTF-8"?>
<svg width="473px" height="567px" viewBox="0 0 473 567" version="1.1" xmlns="http://www.w3.org/2000/svg" xmlns:xlink="http://www.w3.org/1999/xlink">
    <!-- Generator: Sketch 62 (91390) - https://sketch.com -->
    <title>head/mono/Gray Bun</title>
    <desc>Created with Sketch.</desc>
    <g id="head/mono/Gray-Bun" stroke="none" stroke-width="1" fill="none" fill-rule="evenodd">
        <path d="M428.8717,194.624 C409.1667,75.447 258.7067,53.96 160.6627,79.044 C158.8557,56.12 144.4137,35.864 126.3917,22.54 C49.8357,-32.549 -40.7983,60.981 -22.6533,141.589 C-19.3983,166.008 0.1217,193.873 27.4327,189.694 C-6.8963,254.661 -20.3113,385.664 55.3257,426.16 C62.6227,431.353 63.8337,441.9 69.4497,448.663 C78.5667,459.57 117.5177,473.463 138.5897,462.329 C145.2107,468.413 152.8497,474.333 161.7807,476.438 C207.9187,513.37 275.3457,521.703 331.5277,506.464 C366.1417,500.59 402.0237,484.976 419.8317,453.075 C434.9207,428.796 427.9677,400.349 421.0487,374.652 C418.0597,360.516 416.1137,346.267 414.9157,331.898 C417.3697,329.033 417.5067,325.055 418.1187,321.432 C420.7757,308.591 426.5817,296.674 429.4857,283.87 C435.9827,254.804 434.8547,223.75 428.8717,194.624" id="ðŸŽ¨-Background" fill="#FFFFFF"></path>
        <path d="M427.2936,255.3193 C426.1556,269.6893 420.0646,282.6193 414.9656,296.0113 C415.5226,288.0873 415.2606,279.8413 415.8156,271.6133 C409.8856,220.0903 339.8186,206.5543 312.6186,167.5953 C313.6486,165.3953 314.0196,145.7243 309.9636,151.2563 C294.2306,220.1013 200.7196,254.6403 136.6976,254.7733 C131.8556,250.7833 122.2526,254.9983 124.0666,262.9523 C133.6406,304.9233 135.7366,348.8283 129.5886,391.4753 C126.6916,406.5343 126.2026,424.6543 117.1676,437.6303 C107.5776,446.7513 119.1066,447.4833 125.4516,445.4243 C127.2206,447.9113 129.0876,450.3263 130.9616,452.7323 C121.8476,459.0283 108.5496,455.5943 99.1166,451.4033 C88.6236,445.8493 82.6256,435.0863 75.0226,426.4593 C70.8716,418.1043 64.5756,413.3023 56.4816,408.7773 C11.4526,378.1733 12.6156,311.0393 19.0796,262.5183 C37.9156,118.1323 198.1716,48.4653 326.7826,98.6253 C396.2396,116.3863 428.7816,188.1983 427.2936,255.3193 M8.3886,173.5763 C-19.0784,146.2223 -13.5494,98.4023 3.7166,66.8683 C38.3146,0.9813 136.5836,3.1223 148.3506,82.9843 C98.2376,100.1513 55.9516,136.9623 30.7756,183.4433 C22.5786,182.5673 14.6546,178.9163 8.3886,173.5763 M428.8716,194.6463 C409.1666,75.4693 258.7076,53.9823 160.6626,79.0673 C158.8566,56.1423 144.4146,35.8863 126.3916,22.5613 C49.8356,-32.5267 -40.7984,61.0033 -22.6534,141.6113 C-19.3984,166.0303 0.1216,193.8953 27.4326,189.7163 C-6.8964,254.6833 -20.3104,385.6863 55.3256,426.1823 C62.6226,431.3763 63.8336,441.9233 69.4496,448.6843 C78.5666,459.5923 117.5176,473.4863 138.5896,462.3513 C143.5996,468.4983 172.0366,487.1923 169.9636,468.8673 C167.8716,463.9303 161.4076,462.6423 157.1036,460.2023 C148.0576,455.2083 140.1986,448.1703 134.0236,439.9033 C153.4186,385.2153 151.9406,324.3223 141.0756,268.0123 C206.0056,264.7463 282.4076,236.2863 311.0466,173.7913 C330.4066,219.2713 390.4446,225.1243 405.6106,275.9733 C406.5256,302.6803 400.7986,328.9913 404.9516,355.7113 C406.1706,381.8833 420.0056,407.8813 412.0066,433.8813 C389.6606,490.5793 309.2176,498.8993 256.0706,496.5293 C243.4466,495.4873 232.9696,488.6653 222.5916,482.1883 C216.3716,479.2363 208.9676,485.4113 212.7786,492.0023 C227.3296,512.3073 257.2586,514.0823 280.2406,513.3503 C339.8836,509.8143 426.0796,492.1933 429.1756,418.5453 C427.2086,389.3503 415.7526,361.4103 414.9166,331.9203 C417.3696,329.0553 417.5066,325.0773 418.1186,321.4543 C420.7756,308.6123 426.5826,296.6963 429.4856,283.8923 C435.9826,254.8263 434.8556,223.7733 428.8716,194.6463" id="ðŸ–-Ink" fill="#000000"></path>
    </g>
</svg>