<?xml version="1.0" encoding="UTF-8"?>
<svg width="473px" height="567px" viewBox="0 0 473 567" version="1.1" xmlns="http://www.w3.org/2000/svg" xmlns:xlink="http://www.w3.org/1999/xlink">
    <!-- Generator: Sketch 62 (91390) - https://sketch.com -->
    <title>head/mono/Gray Medium</title>
    <desc>Created with Sketch.</desc>
    <g id="head/mono/Gray-Medium" stroke="none" stroke-width="1" fill="none" fill-rule="evenodd">
        <path d="M288.3046,508.3832 C267.6046,508.3262 248.6576,504.2932 230.6806,495.4622 C208.9746,488.3802 185.2716,484.5212 167.6566,468.8442 C159.0786,470.6632 150.2866,461.8572 143.1706,456.6142 C131.5646,499.3172 71.1646,492.2142 45.6436,464.6152 C30.0316,451.4312 23.7516,418.8162 50.8626,410.1882 C6.4436,380.0182 -9.6004,327.9022 -6.5474,271.5092 C-3.3344,176.9112 69.3916,78.5632 162.8666,62.1552 C181.3066,58.9112 200.2436,59.2542 218.6046,63.1122 C228.8576,65.3362 238.7686,69.6482 249.7416,69.4522 C292.2996,62.7252 339.0426,63.4982 374.1946,90.7352 C430.3776,128.3242 438.1866,203.5332 431.6216,264.0012 L431.8876,264.5672 C428.6216,286.7632 423.1936,307.0922 412.9286,320.4742 C412.1296,339.7132 405.4446,380.7812 404.9496,397.0172 C406.1486,472.5672 363.2386,506.0992 288.3046,508.3832" id="ðŸŽ¨-Background" fill="#FFFFFF"></path>
        <path d="M41.0819,409.1452 C-93.4691,290.2612 44.5659,22.7192 219.6319,58.2162 C237.3499,64.1492 255.3429,66.2082 273.6919,61.8122 C366.1589,47.3732 441.8039,125.8342 437.8939,216.6092 C438.5449,232.1352 438.4189,247.6752 436.7409,263.1392 C434.8219,283.4652 429.5809,305.2032 417.8929,322.1002 C417.75766,333.44958 411.076334,376.023485 410.002533,396.053498 L409.797208,400.236171 C408.731384,420.821207 406.434038,441.816462 397.3849,460.5872 C369.5569,511.0102 297.8719,521.8312 246.4719,507.1422 L244.334588,506.440392 C234.78702,503.266235 223.963356,499.036691 217.9009,491.0402 C214.6969,486.8152 220.0009,481.4212 224.4119,482.5702 C230.0899,484.0502 234.7959,487.5112 240.0969,489.9702 C274.67166,505.24986 315.565125,500.132659 349.694753,485.860481 L350.7269,485.4252 C411.8519,460.6132 395.1079,372.3512 403.1539,322.0242 C404.9839,258.1172 351.6819,214.5972 311.5229,172.3292 L310.320821,170.98997 C306.194768,166.414828 301.837167,161.955 296.0999,160.9792 C294.5289,165.7462 290.6649,169.8032 287.0809,173.2802 L278.976072,182.038997 C270.869463,190.787513 262.7464,199.50045 254.5069,208.1352 C214.5009,248.7742 173.7399,303.9502 112.0729,308.1052 C115.8639,311.5352 119.1879,315.4542 123.1609,318.6842 C124.8369,320.3612 123.1279,323.1762 120.8799,322.6012 C116.6879,321.5302 114.0069,317.5542 111.2559,314.4472 C77.9499,300.4662 50.5979,352.1312 78.8159,373.5202 C89.2839,384.6042 119.8729,376.1702 112.7999,389.8382 C120.5199,414.0482 132.4029,438.3982 152.5039,454.5922 C158.4059,459.0482 167.6239,461.3052 171.5399,467.8652 C172.4849,469.4462 172.0029,472.0262 170.2279,472.8672 C161.6889,476.8482 152.5159,470.1522 145.9579,465.1082 C111.3259,532.8052 -15.6701,458.0112 41.0819,409.1452 Z M246.8809,78.3522 L243.410771,77.6734126 C206.409192,70.3533512 182.017,63.10652 142.8969,76.3412 C55.7039,105.4642 -0.5071,198.2352 1.9229,288.4022 C1.9799,339.6242 27.3729,404.9412 84.5689,412.2112 C93.21655,412.89826 93.3520315,426.317799 84.8307699,425.915645 L84.5699,425.8992 C70.4709,425.0192 56.8229,419.9062 45.1889,412.0392 C29.5809,437.3172 45.2229,460.2542 69.5409,471.1192 C94.1809,484.1202 120.5219,479.9752 136.9859,457.0042 C121.9599,440.3102 110.8839,415.3602 108.3219,393.2282 C66.1219,409.5982 34.2949,349.2542 61.7509,317.2522 C71.4129,303.4772 90.1689,294.8672 105.6309,304.6452 C172.1519,279.0532 218.5939,224.6612 263.0599,171.3802 L265.433819,168.680561 C273.219055,159.887211 291.12031,140.02485 293.1059,137.4572 C295.3369,134.5702 299.8419,137.1692 299.8979,140.2702 C299.9379,142.4752 299.8149,144.7112 299.5669,146.9422 C307.8459,152.2812 314.5549,160.3882 320.7299,167.8732 C366.8279,204.0522 404.3159,241.9432 415.9769,299.3402 C423.2189,290.8882 426.5029,279.7932 428.8719,269.1962 C433.8399,199.2922 420.4909,115.5832 348.3679,85.2592 C313.7059,68.0642 282.7819,75.9442 246.8809,78.3522 Z M83.3245,340.8859 C80.3215,338.2049 100.1625,337.8809 102.0355,339.9809 L102.462827,340.126829 C109.566502,342.624428 122.57414,350.67652 116.1865,359.0369 C107.0785,367.6199 100.7355,342.1369 83.3245,340.8859 Z" id="ðŸ–-Ink" fill="#221E1F"></path>
    </g>
</svg>