<?xml version="1.0" encoding="UTF-8"?>
<svg width="473px" height="567px" viewBox="0 0 473 567" version="1.1" xmlns="http://www.w3.org/2000/svg" xmlns:xlink="http://www.w3.org/1999/xlink">
    <!-- Generator: Sketch 62 (91390) - https://sketch.com -->
    <title>head/mono/hat-hip</title>
    <desc>Created with Sketch.</desc>
    <g id="head/mono/hat-hip" stroke="none" stroke-width="1" fill="none" fill-rule="evenodd">
        <path d="M418.5807,283.1921 C418.1827,260.7901 417.7427,237.9401 414.4127,215.7561 C411.1567,194.0681 402.1997,174.4641 386.8077,158.7151 C354.1147,125.2621 306.7247,117.0911 262.6127,109.6031 L187.1937,96.8001 C164.1847,92.8951 139.6377,86.6531 116.3907,92.1911 C104.9357,94.9201 95.2077,101.2601 86.3167,108.7611 C77.7467,115.9911 68.5327,123.7551 62.7257,133.4821 C56.9087,143.2231 54.9077,154.6101 53.0167,165.6271 C50.8837,178.0481 49.2267,190.5661 48.0497,203.1141 C45.6907,228.2541 45.3687,253.5831 47.0797,278.7751 C47.9087,290.9941 49.2277,303.1781 50.9117,315.3081 C51.7467,321.3231 52.6907,327.3231 53.7567,333.3021 C54.0707,335.0651 54.3097,337.0171 54.6317,338.9891 C52.2527,345.7551 50.9007,352.7621 51.0097,359.7391 C51.3307,380.2911 68.6777,393.2301 86.1657,400.1771 C96.3057,404.2051 106.9067,406.9421 116.8697,411.4421 C127.3507,416.1751 134.4847,423.8481 141.6507,432.6011 C155.3177,449.2951 170.7407,464.2991 188.3517,476.8171 C225.6897,503.3581 272.9817,515.9111 318.2857,506.3831 C329.1557,504.0971 340.1217,500.5471 349.8927,495.1981 C360.2087,489.5511 367.9657,481.3681 374.4797,471.6931 C386.5747,453.7321 395.2487,433.5071 401.8107,412.9261 C408.5037,391.9321 413.2547,370.9001 415.8457,349.0091 C418.4277,327.1891 418.9717,305.1471 418.5807,283.1921 L418.5807,283.1921 Z" id="ðŸŽ¨-Background" fill="#FFFFFF"></path>
        <path d="M177.911,18.7638 C209.121,14.4708 252.198,28.4238 267.741,56.5578 C341.947,39.0638 435.54,38.4908 496.701,96.7278 C560.52,165.8098 480.36,256.8948 427.207,277.4308 C431.077,296.2378 425.043,416.7228 382.348,470.4658 C348.464,516.0018 269.557,537.0168 233.044,482.6278 L232.759185,482.179028 C228.84735,475.897763 232.216386,476.099459 236.232,480.7718 C271.986,512.2138 320.599,512.7508 358.06,479.5688 C428.268,418.9188 421.029,270.2088 387.621,184.1778 C292.491,173.7298 190.637,202.5628 124.932,274.1718 L129.375,300.9198 C130.132,305.4768 130.992,310.0298 131.648,314.6028 C132.068,317.5328 132.115,320.4468 130.085,322.8188 C123.382,330.6488 112.085,318.8828 102.79,314.2028 C100.046,313.8168 97.297,313.6678 94.601,313.8578 C49.943,319.6098 58.742,406.2398 107.824,391.0548 C111.948,388.4858 115.491,389.2698 117.091,392.9978 C128.79,403.7138 136.504,422.8258 155.941,441.2338 C162.799,448.1388 169.04,453.9158 176.754,459.4548 C181.285,464.0368 194.957,468.7088 190.623,476.5498 C182.427,494.3918 134.096,438.3468 125.551,422.8478 C98.778,433.4198 69.108,429.8288 41.363,427.2448 C-105.007,419.6348 -85.467,265.3448 34.509,167.9338 C57.093,151.3078 82.01,137.7448 107.911,127.3078 C111.447,125.8828 109.902,120.0768 106.316,121.5218 C89.178,128.4288 72.471,136.6498 56.545,146.1648 L56.5208889,140.476217 C56.4975556,130.894967 56.6478333,120.919967 58.312,112.1658 C59.144,106.0998 60.543,99.6208 62.697,94.7468 C65.36,79.8038 107.075,28.5118 177.911,18.7638 Z M92.6476,333.7464 C94.9076,331.5994 99.1266,334.1594 101.1386,334.0954 C106.2836,334.7994 111.1716,336.9724 114.9836,339.6544 C117.5006,341.0644 119.2646,342.3884 120.7386,343.6064 L120.7786,343.5954 C120.7676,343.5954 120.7536,343.6064 120.7416,343.6094 L120.88034,343.703149 C123.026611,345.228067 130.883488,353.817299 125.9196,351.5074 C125.5496,351.0264 125.1706,350.5644 124.7886,350.1114 C124.7476,350.1734 124.6906,350.2344 124.6226,350.2934 L124.901425,350.707187 C129.120418,357.053674 121.836253,350.3674 120.7156,348.5914 C120.6626,348.6344 120.6026,348.6634 120.5436,348.6944 L122.003034,350.47064 C122.207069,350.722822 122.367475,350.92415 122.5006,351.0944 L122.80835,351.391495 C127.686358,356.186188 127.838752,360.501238 122.1716,353.4124 C122.3946,353.7464 122.5736,354.1004 122.5986,354.4144 L122.934448,354.842528 C127.384087,360.576307 123.764834,358.540007 121.553741,356.09113 L121.368713,355.880491 L121.406573,355.937683 C123.463553,359.106476 119.382226,356.883081 118.661034,355.188062 L118.6306,355.1114 C117.844733,354.4702 117.361142,353.7506 117.195274,353.568882 L117.1646,353.5384 C113.3386,349.6184 107.7926,346.3014 103.0816,344.7944 C102.3986,344.6644 101.7076,344.5604 101.0096,344.4864 C98.1766,343.8544 95.3126,343.4214 92.4186,343.1874 C92.0646,343.1454 91.7056,342.8854 91.4376,342.5494 C87.0614308,342.401815 88.4122973,340.608057 90.2279363,340.274958 L90.2597134,340.269491 L89.8995111,340.239171 C87.0910681,339.965081 85.1730646,338.957417 88.0127603,338.338948 L88.3726,338.2674 C88.3286,338.1984 88.2896,338.1294 88.2516,338.0604 C85.8196,337.7934 87.4066,335.4294 88.7566,336.0014 C88.1886,334.1444 90.7846,335.0714 91.1086,334.7954 C91.3556,334.5214 91.6626,334.2794 91.8396,334.2664 C92.6216,333.7144 92.2426,333.7644 92.6476,333.7464 Z M107.528,303.6808 L106.958,304.0138 C106.497,304.2828 106.023,304.4618 105.547,304.5668 C106.219,304.8528 106.883,305.1618 107.54,305.4918 C107.529333,305.088467 107.521778,304.685578 107.521778,304.28343 L107.528,303.6808 Z" id="ðŸ–-Ink" fill="#000000"></path>
    </g>
</svg>