<?xml version="1.0" encoding="UTF-8"?>
<svg width="473px" height="567px" viewBox="0 0 473 567" version="1.1" xmlns="http://www.w3.org/2000/svg" xmlns:xlink="http://www.w3.org/1999/xlink">
    <!-- Generator: Sketch 62 (91390) - https://sketch.com -->
    <title>head/mono/Hijab</title>
    <desc>Created with Sketch.</desc>
    <g id="head/mono/Hijab" stroke="none" stroke-width="1" fill="none" fill-rule="evenodd">
        <path d="M260.282175,105.17349 C410.794925,109.93858 419.873264,181.430454 419.873264,301.325237 C419.873264,421.220019 341.793663,496.770944 313.0436,509.963551 C284.293537,523.156158 208.590345,579.820754 140.272759,553.708078 C71.9551729,527.595402 91.7390107,417.272005 91.7390107,369.869531 C91.7390107,322.467058 109.769425,100.4084 260.282175,105.17349 Z" id="Path-2" fill="#FFFFFF"></path>
        <path d="M321.3422,470.5868 C293.7022,486.0168 262.0532,486.6168 232.3222,476.9068 C214.4922,471.0978 198.1432,462.1168 182.8422,451.3768 C169.5322,442.0268 157.6522,431.6568 145.8822,420.6458 C136.1922,399.2768 127.5632,377.9468 123.5222,354.6968 C119.9022,333.8268 119.4222,312.1568 123.6222,291.3268 C154.6832,265.7768 185.5532,240.0168 216.3822,214.1778 C232.0822,201.0168 247.8222,187.9278 263.7522,175.0468 C271.8422,168.5068 279.8532,161.8668 287.9122,155.2968 C289.2422,154.2168 290.5632,153.1368 291.8932,152.0568 C308.5322,164.2368 326.3722,174.6778 342.8932,187.0568 C351.5422,193.5468 359.9522,200.4568 367.9622,207.7258 C372.1622,211.5368 376.2632,215.4668 380.2632,219.4968 C383.9222,223.1778 387.4522,228.4568 392.6432,229.8478 C393.3532,230.0368 394.0222,230.0768 394.6522,229.9868 C401.5922,290.7468 406.5222,356.3568 376.7922,411.5368 C363.8222,435.6068 345.4332,457.1268 321.3422,470.5868 Z M141.5332,492.9178 C137.7272,489.4308 143.3992,483.7878 147.1892,487.2598 C170.9952,509.0658 202.1172,520.6248 233.5532,525.9748 C238.6252,526.8398 236.4622,534.5468 231.4262,533.6888 C198.6052,528.1028 166.3472,515.6468 141.5332,492.9178 Z M112.9672,526.3748 C108.4232,523.9368 112.4682,517.0338 117.0042,519.4668 C135.5512,529.4138 155.8942,534.5818 176.5282,538.0718 C181.6032,538.9298 179.4382,546.6368 174.4022,545.7858 C153.0672,542.1778 132.1322,536.6528 112.9672,526.3748 Z M188.4522,189.3478 C203.8422,175.5368 220.3822,162.3958 237.8532,151.3068 C255.5322,140.0868 274.8422,133.3768 295.7122,133.2168 C294.2522,134.3868 292.8622,135.6868 291.4522,136.8958 C287.5132,140.2668 283.5822,143.6568 279.6522,147.0368 C271.7922,153.8068 263.9122,160.5658 256.1522,167.4468 C240.8722,181.0068 225.5422,194.4968 210.2922,208.0868 C180.9822,234.2068 152.3032,260.8958 124.2422,288.3568 C124.3932,287.6868 124.5532,287.0168 124.7122,286.3478 C134.0022,247.5468 159.2722,215.5368 188.4522,189.3478 Z M309.0922,134.9068 C309.1922,134.6068 309.2632,134.3158 309.3032,134.0368 C349.3532,139.2568 382.8032,168.7258 393.8622,207.5268 C392.9022,208.8668 392.3722,210.4568 392.5722,212.1458 C392.6722,212.9968 392.7722,213.8568 392.8722,214.7068 C391.5022,213.3478 390.0922,212.0768 388.8932,210.8668 C384.9022,206.8268 380.8132,202.8958 376.6122,199.0658 C368.0222,191.2368 359.1032,183.9168 349.7022,177.0868 C333.3532,165.2068 315.6522,154.2868 296.1622,148.5868 C297.4422,147.5368 298.7232,146.4868 300.0132,145.4468 C303.8622,142.3158 307.4332,139.7368 309.0922,134.9068 Z M380.8932,93.4168 C356.3032,66.5468 322.2522,46.8668 286.3932,40.0268 C252.1522,33.4868 216.7022,37.7968 184.3532,50.5068 C116.6622,77.1068 63.2522,135.5978 38.2422,203.3768 C23.6622,242.8668 18.8822,286.1568 23.2632,327.9568 C27.6222,369.5658 40.1522,412.5368 62.9522,447.9368 C65.0422,451.1778 67.3322,454.2868 69.7322,457.2968 C68.6622,469.5168 64.5822,481.4968 58.1622,491.9168 C57.8172,492.4748 57.4532,493.0228 57.0932,493.5718 C50.5192,498.4948 43.7002,503.1148 37.0432,507.8838 C31.2742,512.0158 25.5642,516.2548 20.1392,520.8318 C15.0182,525.1528 9.0712,529.9648 5.6042,535.7968 C2.7632,540.5738 1.6032,547.0688 5.4812,551.6248 C10.1542,557.1128 18.0722,555.1778 24.4022,555.1778 C24.9442,555.1778 25.4852,555.1898 26.0262,555.1958 C27.9272,556.3908 29.8852,557.4708 31.7822,558.4758 C50.9522,568.6368 70.1922,578.6868 89.4522,588.6868 C127.8132,608.6168 166.0132,629.3478 205.1622,647.6968 C223.3032,656.2068 242.7232,663.6458 263.0422,663.616969 C282.1032,663.5868 299.3322,656.0168 314.2122,644.5068 C331.1722,631.3958 345.3532,614.7468 359.1122,598.4278 C364.6122,591.8958 370.0022,585.2868 375.2922,578.5868 C385.4522,575.1968 395.5322,574.2068 404.5922,580.7468 C411.8622,585.9968 421.4422,578.8568 421.6122,570.9758 C421.6722,568.1778 421.5532,565.4168 421.2522,562.6968 C419.4332,545.8958 411.2122,530.6968 401.9522,516.5978 C396.8932,508.8868 391.5632,501.3158 386.2022,493.8158 C384.9422,492.0468 383.7022,490.2768 382.5022,488.4758 C404.0322,456.7768 421.1122,421.6268 431.6122,384.8958 C442.6432,346.2468 446.3932,306.1668 443.9332,266.1168 C440.1522,204.7368 423.3132,139.7768 380.8932,93.4168 Z" id="ðŸ–-Ink" fill="#000000"></path>
    </g>
</svg>