<?xml version="1.0" encoding="UTF-8"?>
<svg width="473px" height="567px" viewBox="0 0 473 567" version="1.1" xmlns="http://www.w3.org/2000/svg" xmlns:xlink="http://www.w3.org/1999/xlink">
    <!-- Generator: Sketch 62 (91390) - https://sketch.com -->
    <title>head/mono/Long Bangs</title>
    <desc>Created with Sketch.</desc>
    <g id="head/mono/Long-Bangs" stroke="none" stroke-width="1" fill="none" fill-rule="evenodd">
        <path d="M405.8668,203.178 C395.5658,165.992 356.1908,149.766 320.7288,147.191 C224.7148,137.21 126.9848,190.734 84.4188,277.525 C50.3458,343.428 49.2788,412.658 122.5208,450.287 C126.5208,452.492 130.6978,454.849 134.9638,456.989 C138.6698,460.435 142.4868,463.746 146.6528,466.526 C186.5358,492.752 235.4868,504.095 282.9248,501.635 C352.9658,500.223 377.9698,452.696 393.2708,391.747 C409.4088,331.068 418.4338,265.226 405.8668,203.178 L405.8668,203.178 Z" id="ðŸŽ¨-Background" fill="#FFFFFF"></path>
        <path d="M451.8433,553.684 C448.5733,543.794 444.4733,534.204 440.6433,524.514 C439.8333,519.684 439.2933,514.814 439.1543,509.904 C438.6233,492.364 441.9043,474.674 445.5833,457.594 C453.0633,422.884 460.9933,388.534 464.9733,353.184 C472.0833,289.954 467.8533,224.204 439.0933,166.484 C414.1733,116.484 371.9433,75.594 317.3933,60.274 C301.2673,55.743 284.6703,53.244 267.9593,52.246 C265.8903,51.917 263.8243,51.595 261.7683,51.285 C238.5243,47.781 214.9943,46.035 191.5003,47.546 C152.5403,50.053 113.9443,61.249 81.4963,83.393 C48.8273,105.69 25.6153,136.954 14.8143,175.087 C3.5783,214.757 4.5313,257.72 -14.8717,294.912 C-20.6037,305.9 -27.2947,316.346 -33.6757,326.966 C-50.6067,345.857 -68.9887,366.858 -73.0167,392.833 C-77.9867,424.934 -59.5167,452.064 -42.0367,477.114 C-26.2367,499.734 -4.7967,530.974 -21.0567,558.824 C-28.7267,571.964 -41.0167,581.794 -50.2467,593.774 C-59.8167,606.214 -67.2867,620.494 -71.1467,635.754 C-78.3967,664.413 -71.7267,694.284 -52.3367,716.684 C-42.2367,728.344 -29.2667,736.054 -15.2267,742.064 C-0.8567,748.204 13.1833,754.034 25.0633,764.484 C30.4933,769.254 35.4633,774.484 40.1633,779.964 C44.5433,786.814 49.6433,793.214 55.3933,799.074 C61.7233,805.524 74.1233,796.694 68.3133,789.104 C67.8833,788.544 67.4633,787.994 67.0333,787.434 C62.7833,781.894 58.5133,776.354 54.0433,770.994 C40.7133,749.873 35.5833,724.014 42.2133,699.344 C43.9333,692.934 46.3533,686.854 49.3643,681.114 C50.0033,682.784 50.7033,684.434 51.4433,686.064 C54.3233,692.384 58.3643,699.873 63.5033,706.274 C63.7033,710.663 64.3643,715.014 65.6433,719.274 C73.5633,745.684 100.0433,758.714 123.9233,768.854 C126.2633,769.854 128.5733,770.814 130.8433,771.764 C137.0833,774.373 143.6833,765.484 139.7933,760.123 C138.7733,758.714 137.7833,757.274 136.8433,755.814 C125.6433,738.474 120.3133,717.734 123.3333,697.074 C126.5133,675.224 139.3933,657.144 152.1833,639.794 C164.7433,622.734 178.2333,605.324 183.8533,584.514 C190.0733,561.524 184.4133,538.604 174.8133,517.444 C166.0233,498.081 154.3143,480.234 144.4953,461.404 C147.8573,464.757 151.3263,468 154.9003,471.128 C158.9193,474.646 163.0483,478.672 167.8113,481.152 C171.3333,482.985 174.8613,478.597 172.0723,475.63 C168.4063,471.732 163.7153,468.72 159.6443,465.241 C155.7363,461.902 151.9413,458.429 148.2403,454.862 C143.6833,450.471 139.3483,445.873 135.1683,441.136 C131.8233,432.615 129.0673,423.865 126.8233,414.984 C123.7733,402.964 120.9533,390.174 121.1733,377.714 C121.3933,364.934 128.0333,355.984 136.8733,347.404 C140.6173,343.771 144.3973,340.181 148.1703,336.584 C156.2063,330.685 163.7863,324.095 171.1493,317.523 C184.2693,305.812 196.9593,293.433 209.0783,280.692 C212.3293,277.274 215.5533,273.818 218.7373,270.322 C229.8623,258.906 240.4723,246.986 250.4733,234.654 C260.4133,231.034 269.9633,226.244 278.9233,220.604 C275.0233,224.554 271.0833,228.454 267.1633,232.384 C258.4333,241.144 249.3643,249.944 239.2433,257.083 C238.2033,257.824 238.8333,259.394 240.1143,259.144 C252.9833,256.574 265.0233,252.294 276.2633,245.474 C287.6933,238.534 297.7633,229.104 307.1633,219.644 C312.4833,217.244 317.6143,214.154 322.3033,211.114 C322.5533,210.954 322.8033,210.784 323.0533,210.623 C318.4333,225.264 311.6543,241.844 297.2033,247.064 C296.7333,247.234 296.7633,248.014 297.3233,247.984 C309.4973,247.27 319.2813,241.793 327.0053,233.81 C333.2173,229.34 339.1453,224.603 344.8023,219.446 C350.2823,214.45 355.4733,209.092 360.4033,203.544 C353.5133,217.193 345.7953,230.539 338.1833,243.734 C337.7833,244.434 338.6233,245.384 339.3433,244.894 C355.4133,234.014 367.6033,219.974 377.5733,203.373 C379.0453,200.929 380.4503,198.445 381.8203,195.942 C380.7863,199.859 379.6573,203.751 378.4483,207.623 C376.2593,214.632 374.1043,221.657 371.9113,228.662 C370.7293,232.439 369.2883,236.13 367.7073,239.758 C366.5753,242.354 365.0933,244.945 364.8633,247.792 C364.8483,247.981 365.0543,248.105 365.2193,248.064 C371.6273,246.462 377.5943,239.154 382.1603,234.627 C384.7033,232.106 387.0853,229.339 389.2763,226.421 C389.6833,243.228 389.9633,260.037 389.5933,276.894 C388.9043,307.854 386.9043,338.804 384.3433,369.663 C382.0833,396.944 380.4133,425.574 365.1933,449.284 C353.4133,467.634 334.3133,480.333 313.5633,486.484 C311.7333,487.034 309.8933,487.524 308.0433,487.964 C278.0033,495.094 248.0833,487.014 221.5233,472.734 C213.5433,468.444 206.7233,480.083 214.4233,484.873 C243.2433,502.814 279.7733,508.924 312.3933,500.884 C311.3643,539.413 330.3533,575.964 349.2433,608.644 C359.8133,626.934 370.3933,645.104 377.8643,664.934 C384.2033,681.774 388.5133,699.244 389.9633,717.214 C391.6833,738.394 389.9933,759.694 387.0333,780.694 C386.8733,781.833 386.7133,782.984 386.5433,784.123 C385.8833,788.634 389.9333,792.413 394.3233,790.104 C413.7333,779.904 422.1033,758.163 427.1933,738.064 C431.9533,719.234 435.1833,700.034 436.9833,680.704 C439.6233,687.994 441.7633,695.464 443.4233,703.083 C443.6543,704.174 443.8733,705.264 444.0933,706.354 C445.3533,712.724 454.9933,712.274 456.5333,706.354 C456.8133,705.284 457.0833,704.214 457.3333,703.134 C465.2833,670.984 467.4233,637.454 463.2233,604.583 C461.0133,587.294 457.3233,570.234 451.8433,553.684" id="ðŸ–-Ink" fill="#000000"></path>
    </g>
</svg>