<?xml version="1.0" encoding="UTF-8"?>
<svg width="473px" height="567px" viewBox="0 0 473 567" version="1.1" xmlns="http://www.w3.org/2000/svg" xmlns:xlink="http://www.w3.org/1999/xlink">
    <!-- Generator: Sketch 62 (91390) - https://sketch.com -->
    <title>head/mono/Medium Straight</title>
    <desc>Created with Sketch.</desc>
    <g id="head/mono/Medium-Straight" stroke="none" stroke-width="1" fill="none" fill-rule="evenodd">
        <path d="M465.939,500.9589 C454.529,447.3989 447.21,393.1489 440.66,338.8289 C437.49,312.5189 434.96,286.1399 432.029,259.8099 C429.29,235.2789 426.099,210.6689 419.699,186.7889 C413.75,164.5989 405.049,142.6289 392.229,123.4699 C380.21,105.5089 365.099,90.1189 347.75,77.2689 C313.469,51.8789 269.629,38.3689 226.99,42.8489 C220.549,43.5289 214.169,44.6189 207.859,46.0789 C209.869,45.4889 211.9,44.9379 213.949,44.4589 C214.609,44.2999 214.316,43.4109 213.669,43.4699 C40.195,59.2309 -0.611,360.9189 -4.321,421.7489 C-4.611,426.4799 -4.84,431.1989 -5.01,435.9289 C-6.311,446.4799 -7.281,457.0599 -7.741,467.6689 C-8.26,479.9089 -8.01,492.2299 -6.881,504.4289 C-5.721,516.9379 -4.401,529.7589 0.82,541.2589 C4.019,548.3389 153.219,538.6399 154.759,530.2789 C157.879,513.3989 159.479,495.9799 158.5,478.8099 C158.04,470.5789 157.189,462.4089 155.429,454.3489 C154.949,452.1489 154.439,448.0189 153.15,444.7489 C166.759,418.8899 181.729,393.7689 197.139,368.9389 C229.21,317.2389 263.309,266.4989 289.519,211.4379 C302.66,183.8489 315.609,154.5499 321.809,124.3189 L322.809,124.5189 C322.689,124.8789 322.769,125.3289 323.129,125.5789 C351.619,145.2689 370.66,175.1089 383,207.0599 C397.369,244.2589 404.339,284.4289 403.339,324.2889 C401.75,387.6289 377.74,465.9089 309.809,485.9289 C294.309,490.4989 277.57,491.7889 261.689,488.4489 C254.199,486.8689 246.859,484.4379 240.099,480.8389 C232.599,476.8489 226.439,471.1989 219.41,466.5499 C212.979,462.2999 205.389,470.5889 209.089,476.8789 C217.259,490.7789 234.839,499.2789 249.939,503.4589 C266.049,507.9289 283.04,508.1399 299.449,505.2999 C300.699,505.0889 301.939,504.8489 303.169,504.5889 C303.449,508.7089 305.219,512.8099 308.099,516.1399 C309.389,517.6399 310.979,518.9379 312.759,520.0289 C312.99,524.0499 315.58,528.0889 319.79,528.9699 C342.279,533.6489 435.679,521.3789 458.139,514.6879 C464.169,512.8899 467.219,506.9799 465.939,500.9589" id="ðŸ–-Ink" fill="#000000"></path>
        <path d="M407.2772,307.8148 C405.5932,229.2338 386.0142,142.2398 318.8992,93.6798 C314.6242,90.5828 308.2082,92.0828 304.6652,95.6198 C301.7562,96.1878 299.0842,97.9498 297.3072,101.1898 C257.6202,173.6248 215.8412,244.9148 171.9892,314.9068 C143.8332,360.1628 109.6312,405.4758 105.1192,460.3308 C104.3382,461.3678 97.0892,469.5518 101.3132,468.9558 C103.1882,467.9748 105.0972,467.1688 107.1052,466.5728 C112.4672,474.3898 124.9182,473.1608 127.8782,464.3378 C138.1402,464.6328 148.2962,467.2548 158.0732,470.2968 C182.0542,477.8028 206.4272,485.2228 230.9012,490.9598 C311.5272,512.3578 398.1612,485.1328 404.6032,391.1348 C413.2572,378.9418 408.5752,324.5988 407.2772,307.8148 L407.2772,307.8148 Z" id="ðŸŽ¨-Background" fill="#FFFFFF"></path>
    </g>
</svg>