<?xml version="1.0" encoding="UTF-8"?>
<svg width="473px" height="567px" viewBox="0 0 473 567" version="1.1" xmlns="http://www.w3.org/2000/svg" xmlns:xlink="http://www.w3.org/1999/xlink">
    <!-- Generator: Sketch 62 (91390) - https://sketch.com -->
    <title>head/mono/Medium 3</title>
    <desc>Created with Sketch.</desc>
    <g id="head/mono/Medium-3" stroke="none" stroke-width="1" fill="none" fill-rule="evenodd">
        <path d="M394.1417,209.1377 C395.2317,199.0127 383.3794,172.0013 383.6654,177.4803 C364.6634,148.1813 327.5804,136.6593 295.5854,126.9873 C227.6644,104.5653 174.6264,131.6443 126.9044,179.6373 C98.7304,205.9543 71.9224,235.3513 57.7794,271.7823 C29.9564,341.2803 71.6614,420.5263 135.0844,453.7263 C140.2024,456.4963 145.7794,459.1263 150.6534,462.4723 C176.8714,477.6193 207.6584,482.8593 236.8734,489.4523 C291.5294,501.9453 360.1724,495.9913 392.3824,443.9553 C414.2294,407.0253 408.4254,362.2563 406.7154,321.2723 C404.1464,285.3633 399.6367,244.7837 394.1417,209.1377 Z" id="ðŸŽ¨-Background" fill="#FFFFFF"></path>
        <path d="M101.9947,106.6537 C137.4047,73.5517 189.7417,57.5077 237.5937,60.3137 C263.5107,61.8337 288.4887,68.3277 311.9107,79.4847 C319.2357,82.9737 326.3737,87.0577 332.9557,91.8667 C337.3957,93.9387 341.7367,96.1807 345.9417,98.6187 C367.0017,110.8187 383.2817,129.2977 393.7017,151.2177 C398.675894,161.679958 402.60118,172.71256 404.824106,184.079863 L405.181874,185.951127 C406.316266,191.655334 408.558367,199.170783 405.7217,204.5087 C403.8417,208.0477 399.9017,210.2787 396.1717,209.9787 C396.9817,213.2587 397.9517,216.5377 398.5717,219.8387 L400.260589,228.8387 C400.540589,230.3387 400.818367,231.8387 401.0917,233.3387 C402.7217,242.2787 404.2217,251.2077 405.4217,260.2177 C407.9317,278.9787 410.2017,297.7787 412.2017,316.6087 C413.635033,330.075367 414.978089,343.555922 416.28295,357.033006 L417.0617,365.1187 C418.4017,379.0377 419.4517,393.0787 418.5407,407.0587 C417.1697,428.0297 410.7197,447.1627 398.2007,462.7277 C399.3937,465.5967 399.7957,468.8267 400.6937,472.3937 C401.9367,477.3297 403.5557,482.1627 405.2787,486.9537 C406.0847,488.8367 406.8927,490.7207 407.6917,492.6087 L409.7927,497.6097 L409.7927,497.6097 L411.432172,500.888526 C413.208351,504.455797 414.926465,508.0747 416.0177,511.7667 C423.0917,515.5437 428.8687,521.7057 429.1517,530.1487 C429.4017,537.7787 425.4417,545.8587 418.7517,549.7477 C412.1507,553.5907 405.3547,552.0777 399.0337,549.1437 C393.5227,550.7477 387.6237,550.9507 382.1647,549.2377 C377.9617,553.0417 372.5407,555.6687 366.5317,556.3777 C357.472382,557.453677 348.871493,554.91761 340.561031,551.582634 L339.9817,551.3487 C339.7217,551.2477 339.4617,551.1377 339.2117,551.0287 C329.6517,550.5687 320.1317,546.7877 313.3507,540.0887 C311.1417,537.9187 309.2317,535.4387 307.6917,532.6587 C302.1007,522.5477 301.2317,510.1377 306.7317,500.1087 C305.5517,500.1587 304.3617,500.2077 303.1817,500.2387 C287.446917,500.687309 271.684687,499.884288 255.9904,498.850067 L252.290088,498.599003 C242.1344,497.8676 227.1567,496.1462 226.8717,483.5587 C226.8307,481.9487 228.4917,480.7387 230.0117,481.1687 C235.7817,482.7977 241.4517,485.3587 247.4317,486.2787 C255.2517,487.4887 263.3507,487.6187 271.2517,488.0587 L273.523615,488.185156 C289.455274,489.056694 305.958064,489.588245 321.6317,486.4287 C333.3307,484.0787 345.5217,479.7977 356.2417,474.4977 C366.5317,469.3987 375.8817,462.7287 383.4217,454.0187 C400.0317,434.8587 402.2317,407.8287 401.4217,383.5887 C400.4417,354.6377 397.0407,325.7287 395.1217,296.8187 L394.253245,283.830945 C393.53721,273.000333 392.883129,262.154414 392.6117,251.3187 C392.4117,243.4087 392.5407,235.4787 392.5807,227.5687 C392.6007,223.6187 392.5517,219.6487 392.6417,215.6987 C392.6917,213.4787 392.9517,211.3087 393.1417,209.1377 C392.2617,208.6787 391.4417,208.0377 390.7017,207.1887 C390.1217,206.5187 389.6717,205.8087 389.3617,205.0887 C385.6317,203.9977 383.9017,202.5477 381.4817,199.2587 C379.4417,196.4887 377.1317,193.9287 374.6617,191.5287 C369.4017,186.4287 363.3917,182.2587 357.0407,178.6277 C343.9117,171.1187 329.5317,166.0987 315.0317,161.9787 C292.8307,155.6787 269.7717,152.4387 247.2417,147.3777 C241.0317,156.0377 234.4517,164.4387 227.5717,172.5687 C206.1007,197.9287 181.4817,220.5377 155.1007,240.6987 C149.7317,244.8087 144.2907,248.8587 138.7717,252.7877 C131.50045,263.87395 124.152638,274.907372 116.694766,285.866528 L113.4917,290.5587 L113.4417,290.6487 C113.0017,291.3187 112.5807,291.9887 112.1617,292.6587 C111.2717,294.0787 110.2717,295.4487 109.2117,296.7787 C108.5217,297.7877 107.8217,298.7977 107.1117,299.8087 C108.4717,300.5377 109.7117,301.3587 110.6817,302.2687 C112.6617,304.1377 112.3307,307.1087 110.6817,309.0087 C105.3617,315.1487 96.9417,307.1487 90.8217,305.0187 C84.1917,307.0377 78.6617,314.9287 75.9117,320.9577 C71.9517,329.6487 70.3617,340.1277 72.1517,349.5377 C73.7907,358.1377 78.2117,365.5687 85.5617,370.2287 C85.8217,370.3877 86.1007,370.5587 86.3717,370.7077 C86.3817,370.7287 86.3817,370.7287 86.3917,370.7177 C86.6417,370.8777 86.9017,371.0287 87.1617,371.1687 C90.6117,373.0687 94.4017,374.1887 98.3307,374.4577 C100.5807,374.6187 102.9317,374.4977 105.1817,374.7687 C107.4917,375.0377 109.3917,376.0987 111.6117,376.6587 C114.0617,377.2877 115.6417,380.5787 114.1007,382.7877 C113.3417,383.8777 112.6217,384.9187 111.8507,385.8487 C114.3817,388.8287 116.5807,392.1187 118.5717,395.2477 C121.2907,399.5377 123.7017,404.0887 125.9017,408.7287 C127.9317,411.3987 129.8717,414.1187 131.7517,416.8987 C142.4017,432.6787 150.5517,450.2587 155.5617,468.6277 C160.5217,486.7977 163.6217,507.2077 159.0317,525.7587 C154.8017,542.8187 142.4517,556.9487 124.1717,557.8587 C120.3567,558.0467 116.6047,557.6207 113.0767,556.6517 C105.3267,561.4387 95.7227,563.8467 87.1277,564.1277 C80.1737,564.3557 72.5617,562.8917 66.8827,558.6867 C60.1457,561.6187 52.8377,563.2827 46.4827,563.6617 C39.3717,564.0857 31.9297,562.1477 26.1327,558.3097 C20.6167,563.0347 14.6647,567.0227 7.9017,569.7587 C-3.7283,574.4577 -17.5683,573.8777 -28.2183,566.8487 C-38.8883,559.8087 -44.3183,547.1687 -41.0583,534.6277 C-38.0583,523.0687 -28.6283,514.5887 -19.7683,507.2877 L-18.0176799,505.852966 C-9.25388594,498.699677 -0.4033,491.776825 5.2217,481.6987 C11.1917,471.0087 13.3717,458.5887 13.9617,446.4887 C15.2417,419.8487 9.8217,393.4487 8.1717,366.9487 C6.4717,339.5787 7.4217,312.1277 11.1517,284.9577 C18.4017,232.1787 37.4817,180.4387 72.0017,139.2977 C76.9957,133.3447 82.3417,127.6707 87.9757,122.2927 C92.2817,116.6607 96.9357,111.3817 101.9947,106.6537 Z M561.1711,408.0085 C561.3611,408.0185 561.5411,408.0285 561.7111,408.0985 C561.8251,408.1465 561.9211,408.2233 562.0099,408.3073 L562.8511,409.1485 C563.1511,409.4485 563.1311,409.9085 562.8511,410.2085 C562.605645,410.481227 562.161844,410.489492 561.872813,410.278372 L561.7911,410.2085 L560.91998,409.336772 C560.8247,409.23362 560.7431,409.1219 560.7011,408.9785 C560.6611,408.8385 560.6611,408.6785 560.6511,408.5285 C560.6411,408.2585 560.9011,408.0085 561.1711,408.0085 Z M91.9913,326.3087 C100.0113,323.8777 109.6313,329.6587 114.4113,335.7587 C116.8113,338.8187 117.4913,343.0087 114.4113,346.0187 C111.7913,348.5787 106.6713,349.0477 104.1413,346.0187 C101.2713,342.5687 98.9313,337.7877 94.8313,335.5787 C90.3813,333.1787 84.4213,333.7787 83.3713,339.6277 C83.1913,340.6187 81.7713,340.2877 81.7113,339.3987 C81.3213,333.4787 86.5113,327.9577 91.9913,326.3087 Z" id="ðŸ–-Ink" fill="#000000"></path>
    </g>
</svg>