<?xml version="1.0" encoding="UTF-8"?>
<svg width="473px" height="567px" viewBox="0 0 473 567" version="1.1" xmlns="http://www.w3.org/2000/svg" xmlns:xlink="http://www.w3.org/1999/xlink">
    <!-- Generator: Sketch 62 (91390) - https://sketch.com -->
    <title>head/mono/Medium Bangs 2</title>
    <desc>Created with Sketch.</desc>
    <g id="head/mono/Medium-Bangs-2" stroke="none" stroke-width="1" fill="none" fill-rule="evenodd">
        <path d="M407.868,144.4632 C405.647,138.8582 401.719,131.8132 395.154,131.5322 C390.076,116.0072 377.45,100.1962 359.888,100.6162 C308.34,47.9022 243.444,50.3872 175.594,61.5462 C139.798,68.1852 103.451,81.1852 76.753,106.8392 C44.777,137.0412 32.326,189.7402 57.366,227.9312 C35.725,239.5282 35.305,267.0482 44.56,286.9072 C33.435,294.6002 32.759,313.2722 45.286,319.1402 C44.62,321.8682 45.091,324.6882 46.361,327.1122 C40.15,332.2822 32.066,336.1012 25.383,339.3842 C22.429,340.8352 20.725,343.2052 20.017,345.8762 C-1.927,360.2722 -56.645,395.4542 -55.993,423.4552 C-56.315,438.0632 -45.479,447.6772 -32.311,451.5052 C-40.146,467.1682 -46.093,485.4632 -38.593,502.3592 C-36.52,507.4642 -20.9878002,522.467374 -20.2058002,522.744374 C-18.8388002,523.916374 3.444,513.6862 14.274,508.4682 C16.374,522.1282 30.981,529.2852 43.572,524.6042 C55.511,521.0052 62.85,510.8982 70.38,501.7042 C80.375,523.5072 109.782,523.7582 128.788,514.3582 C145.857,506.4732 158.832,492.0212 166.06,474.6062 C204.442,493.3952 249.348,498.8722 291.048,491.3672 C293.724,496.1032 299.648,499.2842 304.925,497.4522 C327.099,490.7862 351.616,490.4122 370.412,475.1392 C409.591,447.0182 412.89,395.1742 410.158,350.9812 C407.735,306.9182 409.856,262.4882 401.846,218.9012 C405.322,206.0682 411.104,194.7232 416.454,182.6672 C422.266,170.0252 422.144,151.2322 407.868,144.4632 Z" id="ðŸŽ¨-Background" fill="#FFFFFF"></path>
        <path d="M43.6094,331.4958 C45.9184,330.9158 47.1584,334.0188 45.1984,335.2658 C32.7544,343.1808 19.8994,350.2498 7.8784,358.8618 C-3.55513571,367.048586 -14.1155452,376.374434 -23.9633265,386.400889 L-25.0546,387.5178 C-33.9576,396.6768 -43.8176,408.3288 -43.9176,421.8398 C-43.9946,432.3418 -35.8976,443.8048 -24.6006,442.4248 C-20.3446,441.9048 -16.4326,447.3048 -17.9176,451.1978 L-19.4800821,455.300934 C-25.765693,471.905778 -32.1608833,490.719646 -27.1957747,508.189456 L-27.0136,508.8128 C-25.8126,512.8128 -24.5466,516.3478 -19.9036,516.2678 C-15.5946,516.1918 -11.1106,514.7388 -7.0766,513.3518 C1.2944,510.4728 8.8804,505.6718 15.3194,499.6338 C21.0148105,494.293611 28.2914,499.719145 27.5246144,506.505755 L27.4974,506.7228 C26.4484,514.3388 38.5814,517.8748 44.0974,516.7858 C54.9884,514.6318 62.7534,503.7198 68.9384,495.4008 C71.9114,491.4038 79.1324,489.8298 81.7444,495.4008 C86.9204,506.4358 97.5894,514.6838 110.0704,515.0298 C116.5534,515.2088 122.7734,513.3638 128.2644,509.9418 C130.505631,508.544262 132.509986,506.882581 134.348253,504.999231 L134.8044,504.5238 C137.5244,501.6408 139.4014,500.1078 142.8754,498.2248 C146.2984,496.3698 150.7264,498.6698 150.705548,502.7168 C150.6774,507.9588 149.1414,511.4438 145.5264,515.2458 C142.5354,518.3948 138.9814,521.1588 135.2454,523.3678 C127.7374,527.8038 118.8114,530.2998 110.0704,530.0108 C96.2924,529.5548 83.1414,522.6878 74.6164,512.0078 C65.9124,522.4148 55.1154,531.9768 41.0844,531.7198 C30.5804,531.5278 20.7914,526.0598 16.1014,517.5878 C9.4804,522.1528 2.2134,525.7218 -5.5606,528.0528 L-6.25331276,528.257519 C-17.257271,531.459806 -29.9207134,532.732821 -37.0036,521.8088 C-43.6536,511.5528 -44.1496,497.3498 -42.6256,485.6268 C-41.2646,475.1548 -38.0426,465.2098 -34.3426,455.4008 C-44.8746,452.2558 -53.0496,442.3628 -55.8576,431.6988 C-60.1056,415.5728 -51.8646,399.9338 -41.6766,387.9518 C-30.6096,374.9358 -16.6806,363.9268 -2.6476,354.2908 C11.3484,344.6818 27.0274,335.6518 43.6094,331.4958 Z M403.4792,205.3635 C403.5052,204.9155 404.2392,204.7585 404.3072,205.2505 C409.1412,240.3285 411.9402,275.3355 414.2572,310.6545 C415.4322,328.5475 416.7662,346.4225 418.2262,364.2935 C419.6272,381.4305 421.9592,399.0235 421.4322,416.2305 C420.6072,443.1745 407.5232,465.0825 386.0692,480.8485 C365.5122,495.9575 340.0102,503.4275 314.9892,506.5835 C300.4582,508.4165 285.7252,508.5045 271.1782,506.7825 C263.622887,505.888125 256.077243,504.697559 248.677222,502.91005 L245.477655,502.109612 C239.650051,500.62131 233.143109,498.601227 232.3122,491.6985 C231.9092,488.3555 233.6852,485.8895 236.5532,484.2115 C240.2922,482.0235 244.5792,483.3115 248.4322,484.3085 C254.9252,485.9885 261.4872,487.4305 268.1232,488.4275 C282.3762,490.5715 297.0282,490.6985 311.3542,489.2145 C335.4522,486.7165 360.8722,478.9005 379.4522,462.7585 C387.5272,455.7445 394.5482,447.1975 398.2412,437.0435 C402.9892,423.9895 402.2862,409.7485 402.1272,396.0785 C401.7582,364.2935 402.0832,332.5085 401.6412,300.7205 C401.1972,268.8355 401.5842,237.2015 403.4792,205.3635 Z M161.1453,56.8189 C189.3033,49.5569 217.8803,47.6699 246.8043,49.8559 C274.0813,51.9159 305.1543,58.0189 327.4323,74.7959 C328.5133,75.6099 327.8663,77.1509 326.5283,76.9379 C311.6343,74.5639 297.1163,70.2459 282.2863,67.3889 C268.0223,64.6409 253.5013,62.5779 238.9773,62.0999 C189.8553,60.4809 135.1963,71.6119 95.5863,102.2369 C77.0133,116.5959 62.8393,135.9039 57.1983,158.8769 C51.4133,182.4399 54.5433,207.9219 66.1603,229.2369 C67.8333,232.3059 67.1433,237.1609 63.6533,238.7949 C53.0633,243.7529 45.5203,254.7369 45.6843,266.5899 C45.7633,272.3389 47.7453,277.8519 50.9303,282.6039 C54.2983,287.6289 59.4253,291.1449 63.1923,295.8379 C64.6753,297.6859 64.7323,300.2309 63.5573,301.9329 C65.7603,302.8979 68.1363,303.4159 70.3043,304.5559 C72.1423,305.5229 72.1943,308.5419 70.3043,309.4939 C65.5243,311.9009 60.3563,309.3459 57.1303,305.4649 C56.5543,304.7719 56.0563,304.0509 55.6023,303.3149 C51.7383,302.4959 48.2763,300.5569 45.2533,297.9049 C39.4933,301.3539 38.7043,309.0319 43.6523,314.8989 C46.1792231,317.894092 49.7693858,319.742835 53.3977754,321.07187 L53.8333,321.2289 C57.3643,322.4829 60.5983,323.1829 62.8923,326.0079 C64.4053,322.8539 66.1423,319.8809 68.0783,317.1719 C75.1173,307.3249 85.9373,298.5889 98.7763,299.6979 C108.8333,300.5649 117.5463,307.7649 119.6073,317.6989 C119.7593,318.4339 118.6513,319.0079 118.3213,318.2409 C113.4963,306.9899 98.2293,306.5769 89.1353,312.4399 C78.4403,319.3359 72.5953,332.3309 70.2503,344.4339 C67.9423,356.3559 69.2763,370.8559 78.1993,379.9239 C81.8503,383.6349 86.8173,386.2009 92.0013,386.8769 C94.5353625,387.208775 96.7705969,386.882349 99.1939721,386.394479 L100.799972,386.058931 C101.91405,385.828587 103.0218,385.6424 104.1903,385.7459 L105.9313,385.9799 L105.9313,385.9799 L106.920693,386.442598 C107.778564,386.828167 107.700945,386.722577 106.6883,386.1249 C109.6463,385.8829 111.1753,388.0689 111.3373,390.4659 C111.4313,390.5259 111.5223,390.5909 111.5983,390.6839 C122.8243,404.4219 131.1593,420.2129 143.0723,433.5009 L146.559673,437.393567 C155.524917,447.366424 165.759885,458.1785 177.938844,463.352119 L179.388203,463.951735 C182.931451,465.448238 186.489567,467.496967 186.9413,471.7679 C187.3463,475.5939 184.3303,478.4729 180.8533,479.3659 C172.9353,481.3969 163.9093,474.3599 158.1103,469.7429 C145.6403,459.8179 135.1603,447.1659 126.5053,433.8539 L125.649742,432.528118 C118.534982,421.416922 111.848185,408.7444 109.7703,395.5569 L109.395534,396.164541 C109.367487,396.207775 109.34555,396.2404 109.3313,396.2599 C108.9073,396.8359 108.4403,397.3219 107.8983,397.7879 C106.4423,399.0449 104.6663,399.7789 102.8213,400.2769 C99.3583,401.2119 95.5613,401.3959 92.0013,401.0319 C84.7703,400.2929 78.0113,397.5409 72.2953,393.0589 C54.8913,379.4099 52.8363,354.0119 59.8753,333.4069 C54.0993,334.7859 47.5203,330.8989 43.0103,327.5679 C37.8383,323.7459 33.5733,318.2289 32.5543,311.7389 C31.5423,305.2989 35.6483,296.7709 41.7383,294.2859 C35.4193,286.6989 31.7403,275.9319 31.3603,267.3109 C30.7003,252.3149 38.6673,238.1409 50.8993,229.9589 C39.3963,205.3079 37.1803,176.7089 44.9253,150.5349 C60.2943,98.5959 111.7783,69.5509 161.1453,56.8189 Z M117.3245,451.4424 L117.468186,450.986222 C118.6935,446.969425 120.275386,438.979476 126.2765,442.0214 C132.0095,444.9264 128.3495,453.5254 126.3445,457.7114 C123.9455,462.7204 119.8025,466.7364 114.2385,467.8124 C109.7125,468.6874 104.7425,467.5634 101.5765,464.0664 C100.6535,463.0474 100.1325,461.9294 99.5855,460.6954 C99.3725,460.2154 99.2765,459.8864 99.2365,459.6724 C99.1845,459.9074 99.0365,460.2574 98.6585,460.6694 C96.1325,463.4294 93.7465,466.6424 91.9135,469.9074 C91.4795,470.6794 90.1115,470.1384 90.4575,469.2934 C92.5925,464.0714 92.2335,455.9964 96.9925,452.2194 C101.187178,448.889807 105.128662,451.51027 107.347287,455.387744 L107.4605,455.5894 C110.7035,461.4774 115.8715,455.8854 117.3245,451.4424 Z M71.6954,432.5743 L72.1335359,431.965996 C76.6186633,425.836182 84.1826903,418.462332 91.7514,424.1633 C94.1584,425.9763 94.2474,429.0023 91.7514,430.8013 L90.8070147,431.47564 C87.500451,433.819582 84.2080957,436.033474 81.7794,439.3953 C79.1404,443.0503 76.7704,446.9203 73.2224,449.7873 C66.9474,454.8573 56.8064,455.8573 51.3614,449.0223 L50.825801,448.343988 C50.37029,447.75757 49.8476,447.0512 49.4234,446.3463 L49.092848,446.804004 C49.060584,446.849892 49.030272,446.893716 49.002376,446.935068 L48.9264,447.0513 C46.6884,450.6273 43.8614,453.5723 40.3404,455.8963 C33.6484,460.3113 26.1074,460.9253 18.5364,458.5883 C17.7954,458.3583 17.9944,457.3653 18.7114,457.2993 C27.6824,456.4613 36.4234,450.0883 40.0724,441.8813 L40.4844946,440.960214 C41.9610653,437.695587 43.6154,434.593129 47.2634,433.3113 C50.8144,432.0633 54.5424,433.3813 56.9774,436.0673 C59.0134,438.3123 59.5374,442.7753 63.2104,441.7913 C67.2324,440.7133 69.4964,435.6763 71.6954,432.5743 Z M46.0004,378.051 C47.9874,376.541 51.0994,378.161 51.6464,380.349 C54.1254,390.255 43.8294,401.928 33.9354,402.235 C31.3884,402.313 28.9384,401.697 26.6824,400.518 C24.9324,399.604 22.8614,397.268 20.9404,396.881 C18.4594,396.382 16.2614,399.686 14.5144,401.382 C12.3474,403.487 10.2034,405.441 7.7754,407.235 C6.8054,407.952 5.3004,406.748 5.7104,405.647 L6.53169186,403.457912 C9.5046028,395.666224 14.6251,384.29177 24.2074,387.525 C28.9024,389.109 32.4364,394.451 37.3804,390.221 C41.3394,386.834 41.7084,381.312 46.0004,378.051 Z M88.2791,338.1718 C97.2121,327.9178 118.2111,333.3338 122.1931,345.8088 C123.0731,348.5638 122.1551,352.1448 120.0031,354.0948 C117.1681,356.6638 113.1241,357.4418 109.6821,355.4268 C106.7201,353.6938 105.5041,350.8578 103.3271,348.4248 C100.1341,344.8598 95.7911,342.8808 91.3161,341.4628 C90.1971,342.0508 89.1561,342.8238 88.2221,343.7558 C87.7441,344.2328 86.8411,343.5788 87.2651,343.0168 C87.8411,342.2528 88.5451,341.5338 89.3461,340.8708 L88.9611,340.7578 L88.9611,340.7578 C87.7831,340.4298 87.5281,339.0358 88.2791,338.1718 Z M146.3364,224.957413 C148.3384,224.9605 150.6704,226.8405 150.4144,229.0355 L150.337087,229.64496 C149.76096,233.82381 148.418218,236.189955 144.2354,238.1315 C140.6864,239.7765 136.9584,240.6855 133.0684,241.0455 C131.5964,241.1815 130.0384,241.1895 128.4594,241.0725 L128.126872,242.990797 C127.466033,246.827194 126.855257,250.666214 126.7404,254.5765 C126.5264,261.8255 129.2314,267.7995 132.1324,274.2715 C137.7014,286.7035 138.3274,299.1135 132.2644,311.5275 C131.3774,313.3425 128.8664,314.8225 126.8404,314.6385 C124.2134,314.4005 122.9444,313.6405 121.4164,311.5275 C120.132936,309.753214 120.426492,307.245279 121.31525,305.389898 L121.4164,305.1865 C124.4714,299.2675 125.4344,292.5805 123.8744,286.0745 C122.4084,279.9595 119.0874,274.4635 117.6044,268.3675 C115.1884,258.4375 117.7614,248.5875 122.7894,240.0685 C118.9944,238.9755 115.4844,237.0275 113.1424,234.0565 L113.1524,234.0525 L113.1524,234.0525 C112.2584,233.0975 112.7464,231.1025 114.3154,231.2225 L116.089802,231.365795 C121.165463,231.790032 125.837641,232.231259 130.9704,230.8165 C133.601467,230.090367 135.872764,228.879896 138.13146,227.414363 L138.6154,227.0965 C141.4414,225.2185 143.0084,224.9535 146.3364,224.957413 Z M158.4838,151.5647 C171.2078,150.8417 182.0708,159.2387 187.3518,170.4167 C193.088129,182.552152 190.681229,196.476566 185.618279,208.416367 L184.179802,211.758133 C181.662011,217.54789 178.356404,224.433096 173.1998,227.5397 C167.4078,231.0297 162.4008,226.9827 164.1088,220.5497 C165.1268,216.7187 167.8818,213.7637 170.1108,210.6017 C172.1908,207.6487 174.1318,204.5927 175.8338,201.4047 C179.1678,195.1527 181.6568,188.1867 181.6298,181.0237 C181.5828,167.9497 172.9448,152.9667 158.4838,153.1587 C157.4508,153.1707 157.4678,151.6217 158.4838,151.5647 Z M222.8367,130.4691 C222.0437,129.8671 222.7527,128.5281 223.6397,129.0931 C238.3947,138.4771 249.4117,156.1041 251.6297,173.4211 C252.8607,183.0291 251.9207,193.2971 247.8287,202.1641 C245.4817,207.2521 241.4537,212.1091 235.8217,213.5041 C230.6437,214.7851 225.3067,211.8281 223.6997,206.7741 C223.0767,204.8131 224.1487,202.7621 225.7677,201.6911 C231.0177,198.2201 235.2447,193.8401 237.7177,187.9481 C240.2907,181.8221 241.3167,175.3211 241.3477,168.7131 C241.4237,153.2381 235.2477,139.9011 222.8367,130.4691 Z M403.0771,137.1762 C402.3941,136.4192 403.2531,135.3032 404.1571,135.7772 C414.8241,141.3872 421.6021,152.1332 423.5441,163.9022 C425.4471,175.4242 422.8871,191.1102 413.9681,199.4432 C408.9351,204.1472 399.9191,197.8912 404.1031,191.8322 C407.0531,187.5592 410.2421,184.0402 411.9311,178.9912 C413.4371,174.4862 413.9701,169.9432 413.8881,165.2092 C413.7091,154.8812 410.0191,144.8762 403.0771,137.1762 Z M272.6596,122.748 C290.8846,121.88 301.9296,142.685 304.4596,158.192 C306.0216,167.773 304.8476,177.641 299.5576,185.951 L299.244641,186.434778 C294.879853,193.07325 286.944052,200.716333 278.3936,197.573 C274.7746,196.244 273.8116,192.367 276.2426,189.426 C279.9626,184.924 285.7126,183.089 289.2106,178.282 C293.1346,172.891 294.4206,166.137 294.1936,159.581 L294.162765,158.856818 C293.554729,146.797451 287.80256,123.65136 272.6596,124.061 C271.8106,124.083 271.8206,122.787 272.6596,122.748 Z M329.6664,119.2912 C347.2944,117.0382 358.0294,137.7762 361.3404,152.0622 C363.4084,160.9932 363.8604,170.9562 361.2154,179.8202 L361.018248,180.451634 C358.865189,187.067079 352.512989,198.401958 344.2204,195.0212 C341.9484,194.0952 339.6294,191.5722 340.7174,188.8522 C342.1064,185.3752 344.1114,184.4732 346.7834,182.2482 C348.8414,180.5352 350.2784,178.0762 351.3364,175.6542 C354.1544,169.1992 354.7824,161.6582 354.3974,154.7022 L354.344363,153.878913 C353.348433,140.292148 345.98144,120.0438 329.6664,120.4162 C328.9214,120.4332 328.9724,119.3792 329.6664,119.2912 Z M361.9394,99.795 C371.7504,96.059 379.7884,105.44 385.4284,112.135 C392.4934,120.524 398.9024,129.561 402.5254,140.004 C405.7524,149.309 406.3204,159.655 403.4134,169.127 C401.9744,173.817 399.7324,178.166 396.6724,181.994 L396.281728,182.476828 C393.096987,186.360081 390.022459,188.746255 384.8054,187.356 C382.6824,186.789 381.7854,184.69 382.1524,182.684 C382.9384,178.398 385.1474,177.285 388.0084,174.293 C390.5314,171.654 392.4034,168.404 393.6624,164.987 C396.2584,157.938 396.3934,150.301 394.6504,143.039 C392.700633,134.909333 388.862354,127.402007 384.421857,120.367073 L383.463946,118.860251 C378.759332,111.422735 372.050952,99.9691034 362.1264,101.176 C361.2764,101.28 361.2654,100.051 361.9394,99.795 Z" id="ðŸ–-Ink" fill="#000000"></path>
    </g>
</svg>