<?xml version="1.0" encoding="UTF-8"?>
<svg width="473px" height="567px" viewBox="0 0 473 567" version="1.1" xmlns="http://www.w3.org/2000/svg" xmlns:xlink="http://www.w3.org/1999/xlink">
    <!-- Generator: Sketch 62 (91390) - https://sketch.com -->
    <title>head/mono/Medium 1</title>
    <desc>Created with Sketch.</desc>
    <g id="head/mono/Medium-1" stroke="none" stroke-width="1" fill="none" fill-rule="evenodd">
        <path d="M195.395558,82.6720788 C346.965479,75.2183452 357.551668,119.271611 378.365264,147.356837 C388.694346,161.294583 415.36224,181.93629 419.786376,229.602142 C422.857417,262.689688 403.308238,300.826871 403.308238,330.393336 C403.308238,345.485177 421.786376,377.885575 413.184129,399.881894 C394.037459,448.840758 353.497414,503.176 301.837107,503.176 C250.1768,503.176 154.814935,474.704319 97.7325351,392.972519 C79.0353378,366.201473 43.8256361,90.1258123 195.395558,82.6720788 Z" id="ðŸŽ¨-Background" fill="#FFFFFF"></path>
        <path d="M416.009341,333.345332 C412.699341,329.695332 410.129341,326.695332 409.269341,321.675332 C408.909341,319.584332 408.749341,317.435332 408.679341,315.275332 C421.969341,296.695332 434.889341,252.808332 434.889341,228.804332 C434.889341,194.939332 422.399341,162.355332 401.899341,135.405332 C361.939341,82.9143323 295.419341,56.0043323 230.319341,58.1153323 C167.979341,60.1243323 101.671341,83.1043323 62.7833414,132.226332 C-66.2406586,295.201332 42.0473414,473.217332 121.359341,510.254332 C128.263341,513.478332 150.561341,512.358332 147.454341,505.473332 C138.530341,485.694332 131.499341,449.265332 129.859341,441.064332 C132.399341,442.775332 134.959341,444.445332 137.529341,446.175332 C142.079341,449.224332 148.179341,452.714332 153.899341,451.704332 C154.169341,451.655332 154.339341,451.365332 154.349341,451.115332 C154.609341,445.744332 150.769341,440.224332 147.389341,436.394332 C142.699341,431.074332 138.239341,425.624332 133.189341,420.634332 C131.039341,418.504332 128.859341,416.394332 126.679341,414.284332 C126.399341,401.624332 127.249341,388.905332 129.519341,376.175332 C133.449341,354.105332 140.229341,332.605332 148.019341,311.445332 C154.529341,306.644332 160.849341,301.595332 166.699341,296.074332 C180.789341,282.784332 191.539341,266.525332 200.759341,249.425332 C200.869341,249.374332 200.989341,249.314332 201.099341,249.265332 C218.969341,240.954332 236.689341,232.325332 254.269341,223.425332 C263.339341,218.834332 272.349341,214.134332 281.359341,209.435332 C286.259341,206.874332 291.309341,204.544332 296.319341,202.134332 C294.969341,209.054332 293.149341,215.874332 290.939341,222.584332 C289.119341,228.095332 294.679341,232.164332 299.599341,231.254332 C316.349341,228.155332 332.539341,221.925332 347.109341,213.105332 C354.329341,208.735332 361.199341,203.685332 367.569341,198.144332 C373.939341,207.634332 381.679341,216.534332 389.489341,224.195332 C394.759341,229.365332 400.269341,234.284332 405.989341,238.945332 C403.399341,256.775332 401.179341,274.644332 398.369341,292.435332 C396.899341,301.735332 395.129341,311.034332 394.019341,320.384332 C392.809341,330.574332 396.179341,337.834332 402.889341,345.284332 C412.269341,355.695332 412.259341,370.754332 408.669341,383.685332 C408.229341,385.284332 407.679341,386.845332 407.109341,388.394332 C406.989341,388.714332 406.639341,389.584332 406.509341,389.925332 C406.509341,389.935332 406.509341,389.945332 406.499341,389.964332 C406.499341,389.974332 406.489341,389.985332 406.489341,389.994332 C406.479341,389.994332 406.479341,390.004332 406.469341,390.015332 L406.469341,390.034332 L406.469341,390.044332 L406.459341,390.054332 C406.039341,391.034332 405.589341,391.994332 405.139341,392.954332 C403.089341,397.284332 400.799341,401.515332 398.419341,405.675332 C386.719341,426.214332 371.939341,445.004332 355.099341,461.584332 C347.259341,469.304332 339.109341,476.485332 329.899341,482.365332 C327.959341,483.595332 325.979341,484.784332 323.949341,485.874332 C322.859341,486.464332 321.739341,487.015332 320.619341,487.574332 C318.979341,488.384332 319.659341,488.064332 318.659341,488.464332 C316.849341,489.175332 314.999341,489.794332 313.109341,490.284332 C312.099341,490.544332 311.079341,490.765332 310.049341,490.954332 C310.039341,490.954332 310.019341,490.964332 309.989341,490.964332 C309.979341,490.964332 309.969341,490.974332 309.959341,490.964332 C309.949341,490.974332 309.929341,490.974332 309.909341,490.974332 C309.529341,491.004332 308.849341,491.064332 308.719341,491.064332 C294.359341,491.115332 280.119341,489.185332 266.219341,485.615332 C258.689341,483.675332 251.169341,481.324332 244.089341,478.095332 C240.489341,476.445332 236.969341,474.615332 233.599341,472.544332 C232.089341,471.615332 230.659341,470.494332 229.069341,469.685332 C226.689341,468.464332 224.359341,468.595332 221.789341,468.485332 C217.869341,468.324332 215.089341,472.425332 216.049341,476.025332 C217.219341,480.414332 219.059341,483.004332 222.839341,485.615332 C225.859341,487.695332 229.059341,489.534332 232.319341,491.204332 C239.419341,494.855332 246.929341,497.824332 254.529341,500.254332 C268.759341,504.794332 283.739341,507.584332 298.639341,508.605332 C309.489341,509.345332 318.889341,507.894332 328.769341,503.324332 C339.199341,498.494332 348.549341,491.284332 357.199341,483.804332 C376.569341,467.064332 393.419341,446.754332 407.709341,425.564332 C421.139341,405.644332 431.559341,383.954332 428.129341,359.224332 C426.759341,349.304332 422.719341,340.765332 416.009341,333.345332" id="ðŸ–-Ink" fill="#000000"></path>
    </g>
</svg>