<?xml version="1.0" encoding="UTF-8"?>
<svg width="473px" height="567px" viewBox="0 0 473 567" version="1.1" xmlns="http://www.w3.org/2000/svg" xmlns:xlink="http://www.w3.org/1999/xlink">
    <!-- Generator: Sketch 62 (91390) - https://sketch.com -->
    <title>head/mono/Medium Bangs</title>
    <desc>Created with Sketch.</desc>
    <g id="head/mono/Medium-Bangs" stroke="none" stroke-width="1" fill="none" fill-rule="evenodd">
        <path d="M297.60207,145.1631 C182.512269,140.9631 72.5396269,218.3121 35.5126119,327.6411 C32.8221984,336.2171 41.1949165,344.2281 49.6432527,342.7781 C41.0028862,386.2841 59.8865246,444.8441 109.075124,451.0161 C119.150245,452.2871 129.2781,451.5551 139.367151,452.4801 C148.359738,453.3041 197.315514,480.8441 215.647936,487.2961 C254.243032,500.7781 351.364433,498.3091 389.999328,487.2961 C391.406223,490.4961 421.410841,367.4501 428.243337,329.3001 C430.734983,312.770703 407.96731,300.533226 409.646189,283.50001 C411.802769,261.620212 437.395394,234.943114 429.554715,214.1131 C408.887085,161.0971 348.905988,146.3041 297.60207,145.1631 Z" id="ðŸŽ¨-Background" fill="#FFFFFF"></path>
        <path d="M240.4447,48.7877 C245.6147,49.2177 250.8147,49.9477 255.9247,50.9077 C271.4547,48.3677 287.5247,51.1877 302.5847,56.0777 C337.8547,67.5277 371.8047,87.4077 398.3847,113.3577 C412.0647,126.7177 423.2547,142.1077 430.1447,160.0077 C433.6447,169.0877 435.6147,178.7777 436.1847,188.4877 L436.248051,189.664413 C436.407996,192.886021 436.480589,196.749033 436.0957,200.5757 C437.3267,208.3007 438.4237,216.0887 438.5067,223.9017 C438.5457,227.5207 438.3107,231.1337 437.8707,234.7227 L438.0217,235.0637 L438.0217,235.0637 C437.3837,239.3487 436.6217,243.6157 435.7537,247.8607 L435.5367,248.1417 C435.4177,249.0047 435.2807,249.8657 435.1517,250.7267 C434.6797,252.9087 434.1867,255.0857 433.6637,257.2547 C432.5317,261.9517 431.2787,266.6177 429.9287,271.2557 C429.6927,272.0687 429.9197,272.7097 430.3627,273.1307 C429.3787,276.6607 428.3037,280.1647 427.1117,283.6307 C427.6967,286.6637 428.2877,289.6957 428.9147,292.7177 C432.1847,308.4377 434.9547,324.2577 438.6747,339.8877 C446.2147,371.6077 457.6747,402.8177 460.8247,435.4277 C463.2747,460.7177 459.2047,488.3677 443.4847,509.0277 C429.9347,526.8277 409.5547,537.3377 387.5447,540.1377 C377.0147,541.4877 366.2147,540.8677 355.9147,538.2077 L354.792469,537.911761 C349.632679,536.522837 343.069528,534.34839 338.2747,530.8477 C333.0747,529.0177 328.1647,525.6377 325.2047,522.3377 C321.1647,517.8277 316.7547,510.1177 317.8547,503.7077 C311.8447,504.1977 305.7947,504.3377 299.8447,504.3177 C285.1847,504.2877 270.3947,503.1277 256.2947,498.8677 C243.7147,495.0677 229.0547,488.7177 221.6147,477.2577 C221.2647,476.7177 221.8447,475.9377 222.4547,476.1477 C228.4647,478.2577 234.0847,481.1077 240.2847,482.7177 C246.3847,484.2977 252.4847,485.7877 258.7747,486.4377 C271.0723,487.7049 283.55422,487.534404 295.893108,486.925964 L300.128567,486.706027 C313.331436,485.998556 326.976615,484.990679 339.3247,480.0477 C344.1697,478.1097 348.6537,475.404575 352.742405,472.189537 L353.3847,471.6777 C355.5747,469.8977 357.8347,468.3977 360.1347,466.9777 C360.4647,466.5577 360.7947,466.1377 361.1247,465.7077 C366.3547,458.9977 371.9747,452.5277 376.6847,445.4377 C386.0447,431.3677 389.6547,416.7477 390.1447,399.9677 C390.6577,382.2557 390.7171,364.5194 390.92797,346.80254 L391.0047,340.8977 C391.2747,320.6377 391.3147,300.3077 392.8747,280.0977 C393.593367,270.708367 394.616922,261.362589 396.189278,252.084758 L396.5347,250.0977 L399.0747,235.7877 C399.6857,232.3407 400.0427,228.7887 400.8237,225.3567 C399.9457,223.9167 398.9307,222.5307 397.7537,221.2107 C396.6687,219.9937 395.5667,218.8127 394.4667,217.6397 L393.673969,216.939921 C391.861837,215.322794 390.305187,213.779551 388.845958,211.555076 L388.4937,211.0047 L388.4937,211.0047 C386.9267,209.1137 385.4487,207.1357 384.1427,204.9627 L383.9017,204.5407 L383.9017,204.5407 C383.5757,204.1317 383.2517,203.7217 382.9147,203.3177 C381.8677,202.0587 380.7697,200.8697 379.6347,199.7307 C375.6537,207.4207 370.0227,214.0817 362.0507,218.2457 C359.1677,219.7517 355.6507,218.4617 354.7057,215.2577 C352.3207,207.1697 348.6987,199.6487 343.9057,192.8377 C335.9027,206.1557 323.2127,216.5727 308.2577,221.6557 C304.5207,222.9257 301.2297,219.0057 302.1077,215.5047 C304.8057,204.7437 305.3427,193.8007 303.7577,182.9827 C298.1127,187.0167 292.2907,190.8157 286.3127,194.3377 C273.0097,204.6207 258.9147,213.8747 243.4107,220.5197 C239.8287,222.0557 234.4377,219.4747 236.0657,214.8737 C237.436271,210.9997 238.562828,207.061032 239.284437,203.016061 L239.4437,202.0807 C239.4487,202.0527 239.4507,202.0247 239.4547,201.9957 C203.54839,251.52738 116.473999,299.258616 109.790488,299.718287 L109.6087,299.7197 L109.6087,299.7197 C113.7827,303.7067 117.1517,308.6327 119.3557,314.2937 C121.670265,320.239363 112.231563,322.828208 109.790611,317.143124 L109.7127,316.9527 C105.9577,307.3067 96.6697,300.3927 86.5647,298.7577 C80.4567,299.8667 74.6837,302.8117 70.7447,307.2777 C62.9947,316.0677 62.9247,326.6677 68.2147,336.6677 L68.9908227,338.124743 C71.8547694,343.466936 74.8713667,348.821033 76.4847,354.6877 C78.4547,361.8877 76.9647,369.1877 78.2547,376.3777 L78.324799,376.758907 C78.9363716,379.955866 80.2570077,383.5927 84.0647,382.7177 C84.3587,382.6497 84.6427,382.5587 84.9257,382.4617 C85.7287,383.1017 86.6947,383.6307 87.8987,383.9817 C90.8467,384.8407 94.1037,384.4237 97.0377,383.7297 C99.8717,383.0597 102.6237,382.0087 105.2727,380.7787 C105.5657,381.5027 105.7467,382.2597 105.7647,382.9877 C105.8547,386.7077 104.3147,389.7677 101.9447,392.2577 C105.7247,397.0377 108.9547,402.2977 112.5947,407.1777 C117.8247,414.1777 123.1747,421.0277 128.8647,427.6577 C134.7847,434.5677 141.2347,441.0977 147.9247,447.2677 C152.6147,451.5877 160.3647,456.2077 163.3047,462.4777 C166.6847,463.5277 169.5547,466.1177 170.6047,470.3777 C172.5147,478.0977 173.0747,496.1877 171.5747,504.0377 C170.0847,511.8177 164.4047,516.6677 158.1247,520.7677 C156.3847,521.9077 154.4147,521.7877 152.8147,520.9377 C151.4047,522.3077 149.8147,523.5677 147.9947,524.6877 C141.2747,528.8377 133.4647,530.3477 125.7247,531.2177 C115.2747,534.5577 104.0047,535.4377 92.8647,533.3577 C89.2247,533.7877 85.5847,534.1777 81.9347,534.4977 C44.5947,537.7477 6.6347,534.9777 -29.7853,526.0877 C-46.4953,522.0077 -62.2743,514.5927 -76.9753,505.0677 C-102.3133,488.6507 -113.0373,442.5707 -98.3353,398.5177 L-97.1711884,395.043982 C-90.5462167,375.364354 -83.4019667,355.7877 -73.8253,337.4277 L-72.6819341,335.243602 C-63.8792931,318.497908 -54.1961333,301.7702 -41.3353,287.7977 C-34.8953,280.8077 -27.4153,274.4577 -18.9653,270.0177 C-15.7573,268.3337 -12.0123,267.1657 -8.3523,265.8407 L-8.27755,264.924825 L-8.27755,264.924825 L-8.1983,264.0097 C-7.9573,261.0757 -7.6503,258.1467 -7.2543,255.2247 C-5.7763,244.2967 -3.6903,233.5297 -0.7273,222.8987 C2.2397,212.2537 5.8877,201.7877 10.2767,191.6437 C17.5987,174.7197 26.7947,158.6657 37.4097,143.6017 C38.1677,142.0457 38.9367,140.4957 39.7247,138.9577 C48.6747,121.4677 60.2647,104.7877 75.2147,91.8777 C92.3747,77.0577 113.0447,67.8577 134.6147,61.3977 C156.9847,54.7077 180.3247,50.1277 203.6347,48.5877 C215.9047,47.7777 228.1947,47.7677 240.4447,48.7877 Z M76.8448,329.7682 C88.0748,322.4182 103.3748,327.4572 109.0648,339.3982 C113.1748,348.0482 99.5848,352.9182 97.4348,344.2982 C95.2948,335.6582 86.1048,329.4682 77.2748,330.7882 C76.6648,330.8882 76.2848,330.1282 76.8448,329.7682 Z" id="ðŸ–-Ink" fill="#000000"></path>
    </g>
</svg>