<?xml version="1.0" encoding="UTF-8"?>
<svg width="473px" height="567px" viewBox="0 0 473 567" version="1.1" xmlns="http://www.w3.org/2000/svg" xmlns:xlink="http://www.w3.org/1999/xlink">
    <!-- Generator: Sketch 62 (91390) - https://sketch.com -->
    <title>head/mono/Medium 2</title>
    <desc>Created with Sketch.</desc>
    <g id="head/mono/Medium-2" stroke="none" stroke-width="1" fill="none" fill-rule="evenodd">
        <path d="M391.825164,167.5733 C361.770031,126.2073 306.431607,114.3113 258.441922,124.3723 C164.622596,141.4743 74.9877332,213.0513 58.4104393,310.3953 C32.5477467,369.2863 49.063211,462.0453 124.27883,468.9753 C134.987305,469.5793 145.594061,467.1143 156.321484,468.4453 C221.792969,478.9033 299.159657,523.6713 357.114866,470.8763 C360.019856,472.9573 363.846306,473.9633 367.103326,472.7043 C391.771313,463.1713 392.930118,435.5943 395.033319,412.9253 C397.749829,383.6343 400.297804,354.3273 402.674251,325.0083 C403.522912,274.4463 423.564653,211.2633 391.825164,167.5733 L391.825164,167.5733 Z" id="ðŸŽ¨-Background" fill="#FFFFFF"></path>
        <path d="M209.9304,62.1665 C249.4304,60.0665 322.2114,78.1585 356.6714,99.3695 C412.8184,133.9285 417.1704,202.8665 414.8804,214.7865 C414.0104,219.3355 411.2304,223.5455 406.8804,222.1465 C410.5704,253.4655 410.2804,271.3665 410.9004,302.8665 L411.326326,323.896833 C411.602622,337.9175 411.8404,351.9395 411.9004,365.9655 C413.3204,365.4365 414.7204,366.0855 415.2404,367.4465 C415.3704,367.7765 414.9204,367.9565 414.7004,367.7665 C412.2004,365.5855 413.9804,370.5555 414.8404,371.5665 C416.0304,372.9565 418.0104,374.2665 419.4004,375.4565 L423.1754,378.724875 L423.1754,378.724875 L426.9504,381.9865 C431.827067,386.194 436.544081,390.409903 441.093739,394.94231 L442.3304,396.1865 C450.6204,404.6065 461.0104,412.7555 466.1704,423.6465 C471.1004,434.0455 469.5804,445.8355 461.3904,454.1255 C458.4104,457.1355 454.9304,459.4365 451.1504,461.1765 C457.8804,472.2565 458.8604,486.9065 451.8404,498.3055 C444.8104,509.7465 431.2904,515.7365 418.2704,514.8165 C417.8704,516.4465 417.2504,518.0365 416.4304,519.5455 C411.267451,529.033282 400.998,530.264902 391.25954,529.757148 L390.8804,529.7365 C368.9604,528.4755 347.8704,522.9865 328.6704,512.3165 C322.0104,512.7665 316.0704,507.2955 314.7704,501.2955 C311.2704,501.1665 307.7504,500.8755 304.1604,500.4655 C293.5104,499.2365 282.5904,496.9465 273.2004,491.5365 C271.7604,490.7065 272.4304,488.5165 274.0304,488.4755 C285.4704,488.2155 296.9204,489.0065 308.3404,487.7665 C318.8204,486.6355 329.9904,483.7465 339.7604,479.8165 C357.3204,472.7365 372.3804,460.7265 380.6904,444.0855 C391.4504,422.5455 390.4704,396.6765 391.6404,373.2765 C392.9364,347.3745 394.5321,321.4968 396.23796,295.62153 L397.065754,283.218403 C398.722544,259.042706 400.093787,246.109581 404.2904,221.0165 C391.6404,222.1465 339.091585,203.233069 322.7504,172.2955 C291.735266,238.110268 134.599319,211.174996 127.6304,312.4965 C127.571303,313.355714 126.2104,313.1165 126.1604,312.2955 L126.03077,309.986352 C125.967993,308.845296 125.911048,307.722407 125.872437,306.608185 L125.8404,305.4965 L123.3704,305.5265 C123.3704,305.8355 122.9304,305.9465 122.8204,305.6165 C120.4904,299.0055 109.3904,301.1355 104.5604,302.7065 C100.2104,304.1255 96.1104,306.3055 92.4304,308.9965 C85.0404,314.3965 79.3104,321.6665 77.4104,330.7555 C73.8004,348.0165 84.7904,365.5965 99.3804,373.9265 C108.5804,379.1765 118.6604,382.5665 127.4804,388.5165 C135.2704,393.7665 142.5304,399.9165 148.8204,406.9065 C173.7404,434.5965 188.4004,476.5965 176.6104,513.1465 C175.7104,515.9365 173.3304,519.1255 170.1804,519.5765 C164.9704,520.3265 159.7604,519.5665 156.8404,514.6065 C155.7004,512.6665 155.1604,510.4565 155.2804,508.2765 C153.2604,515.2155 146.7104,522.0765 140.6704,524.6565 C132.4404,528.1765 123.1704,527.1255 115.9104,522.5855 L114.993191,523.264072 C103.186561,531.954382 89.9974886,539.874981 74.8704,538.2765 C63.9104,537.1165 53.1504,531.5365 47.0904,522.7365 C39.0304,527.2665 30.4204,530.8755 21.5404,533.3355 L20.5953472,533.595096 C8.37803019,536.921531 -7.20580253,539.971032 -18.6096,533.2155 C-29.5596,526.7255 -33.1996,512.5555 -30.6296,500.7255 C-30.3196,499.3165 -29.9296,497.9465 -29.4496,496.6165 C-37.6896,497.0555 -45.9196,496.2665 -53.7396,493.8465 C-61.7296,491.3755 -69.3496,486.6255 -73.1796,478.9265 C-77.4996,470.2155 -76.3496,460.3165 -73.1296,451.4465 C-67.9796,437.2155 -59.6996,424.5555 -49.3896,413.5265 C-39.4750054,402.911365 -27.5155898,393.90558 -15.086418,386.398613 L-12.9910836,385.144734 C-1.80264379,378.471607 11.6900923,370.651838 24.9104,371.1665 C24.8704,370.9965 24.8404,370.8355 24.8204,370.6665 C22.8204,355.9365 23.0504,340.9165 22.5804,326.0665 C22.1504,312.4065 21.6604,298.7465 21.3404,285.0765 C20.8204,261.8355 20.9904,238.4965 24.0204,215.4165 C26.7104,194.9365 31.5504,174.9655 40.3804,156.2155 C49.6504,136.5165 63.6104,119.7065 80.8504,106.4865 C117.0304,78.7365 164.8204,64.5665 209.9304,62.1665 Z M87.0403,335.1361 C90.9803,327.7061 99.9503,325.3661 107.8203,326.7061 C118.8503,328.5861 126.3503,338.2271 132.7903,346.5171 C139.5503,355.2061 125.4503,363.3961 121.8203,354.9771 L120.960225,352.988001 C118.047077,346.311141 114.605755,339.270645 108.6603,334.9161 C102.3403,330.2961 93.4203,329.6161 87.8403,335.7561 C87.4403,336.2061 86.7703,335.6261 87.0403,335.1361 Z" id="ðŸ–-Ink" fill="#000000"></path>
    </g>
</svg>