<?xml version="1.0" encoding="UTF-8"?>
<svg width="473px" height="567px" viewBox="0 0 473 567" version="1.1" xmlns="http://www.w3.org/2000/svg" xmlns:xlink="http://www.w3.org/1999/xlink">
    <!-- Generator: Sketch 62 (91390) - https://sketch.com -->
    <title>head/mono/Mohawk 2</title>
    <desc>Created with Sketch.</desc>
    <g id="head/mono/Mohawk-2" stroke="none" stroke-width="1" fill="none" fill-rule="evenodd">
        <path d="M434.7809,366.7535 C417.8859,290.1625 414.5939,206.0505 370.0009,139.1745 C350.5139,111.9055 319.2039,76.3475 282.6269,87.5545 C284.1339,71.4075 285.5569,55.2535 286.8729,39.0895 C287.6259,29.8435 291.0869,17.5245 283.2619,10.4155 C270.3429,-0.0165 248.9559,15.9465 238.9709,24.8655 C217.3389,45.5795 208.7969,65.6985 180.3019,79.5325 C168.8799,71.3925 157.7479,62.8515 146.1549,54.9315 C134.3419,46.8615 117.4439,33.7525 105.1849,48.6505 C94.7949,61.2785 101.4319,81.1835 105.5519,95.0775 C107.6589,102.1835 109.7529,109.9395 112.6809,117.2475 C112.9279,122.8025 113.3579,128.3475 113.9889,133.8765 C92.8809,137.6325 71.1569,140.7925 50.9899,148.1635 C39.9919,154.1205 40.9619,167.6495 48.7639,175.7475 C60.4399,187.0545 75.2149,195.8965 91.3449,201.8315 C88.4159,211.9675 81.3949,220.5625 72.5669,226.1825 C69.6059,228.0595 67.9449,230.8125 67.3439,233.7495 C62.8189,235.9985 57.9739,237.6205 52.8559,238.6735 C46.5439,239.9765 42.8969,247.4265 44.5239,253.3475 C49.1079,267.7375 65.2619,259.5125 75.7559,258.4965 C76.0719,268.5455 76.2359,279.0165 80.7989,288.3255 C56.4099,294.7255 35.2819,318.0625 40.9209,344.3565 C46.0429,369.4925 73.1759,377.1735 94.6539,382.8855 C96.2809,383.8435 96.2759,384.7845 96.7929,387.1575 C100.3369,403.4525 97.3529,421.3795 91.7659,436.8495 C90.2429,441.0665 92.4809,446.3435 95.8639,448.8725 C113.3549,460.0095 119.1539,426.0945 139.0929,447.6815 C137.6049,447.4585 133.9029,445.6075 134.0929,448.2895 C159.9609,493.6855 236.3389,496.4755 283.1359,497.5895 C288.7519,500.3215 295.2179,498.7725 301.6419,497.0285 C307.7709,496.6965 313.8929,496.2375 319.9999,495.6145 C331.1489,493.6025 350.7599,495.9875 351.4599,480.2845 C380.2549,468.9255 405.0129,449.3025 421.8969,423.3025 C434.4209,406.0495 439.3659,387.7875 434.7809,366.7535 L434.7809,366.7535 Z" id="ðŸŽ¨-Background" fill="#FFFFFF"></path>
        <path d="M260.1538,4.6776 L261.834494,3.94357926 C267.630447,1.43405531 273.958822,-0.972533333 280.3038,0.3996 C287.6118,1.9796 291.8368,8.2646 293.6458,15.1166 C295.7398,23.0426 296.6758,31.4796 297.2498,39.6376 C297.8428,48.0866 297.6138,56.5176 296.9778,64.9536 C296.4468,72.0086 295.3488,80.1846 292.7228,87.0226 C292.8348,86.9226 292.9688,86.8486 293.1288,86.8316 C303.4648,85.7726 312.9898,86.3896 322.8608,89.7186 C332.0558,92.8196 340.9698,97.1706 348.9718,102.6676 C366.2558,114.5396 379.6288,132.4696 388.9458,151.0326 C407.87262,188.74566 411.865656,231.408225 417.169655,272.650282 L417.3308,273.8996 C420.184329,295.953306 423.976132,317.673529 430.057595,339.065756 L431.107707,342.712848 C436.689459,362.284261 440.020786,381.322896 435.5698,401.5846 C426.9628,440.7646 396.6218,470.3386 361.5238,487.4096 C343.6038,496.1256 324.2138,502.5566 304.6298,506.2646 C284.5428,510.0686 262.8028,510.7056 244.4878,500.3146 C235.4078,495.1626 243.4018,482.0046 252.5788,486.4716 C271.5168,495.6906 292.9798,492.6556 312.6378,487.5866 C332.1908,482.5456 351.3678,475.4876 368.6928,465.0046 C398.4238,447.0166 423.4398,415.9616 424.2598,379.8976 C424.7208,359.6046 416.0488,340.2276 411.8678,320.6356 C408.1828,303.370677 405.896102,285.853014 403.737894,268.337665 L402.138001,255.326959 C397.494953,218.014418 391.68118,179.60269 372.5198,146.6256 C355.6048,117.5166 326.4708,94.3696 292.9408,88.2126 C292.7398,88.1766 292.6068,88.0796 292.5268,87.9566 C291.5008,93.4796 285.4138,98.6296 281.5188,101.8076 C275.9998,106.3136 269.3128,109.5786 262.0388,109.4326 C248.0128,109.1516 235.9688,98.2746 226.3548,89.1656 C225.2708,88.1396 226.4448,86.7076 227.6778,86.8936 C238.8358,88.5726 248.4018,97.6376 259.8388,97.5026 C265.7248,97.4326 270.2348,94.2746 274.0778,90.0756 C275.5128,88.5056 276.7748,86.6106 278.1398,84.8686 C278.4768,80.2926 279.7728,75.8056 280.3528,71.2506 C280.8938,67.0006 281.3578,62.6856 281.6328,58.4036 C282.1928,49.6656 282.0158,40.8626 281.0488,32.1576 C280.633345,28.4212364 280.107974,24.650162 279.292369,20.9705977 L278.910925,19.3122232 C278.405109,17.0325931 278.074375,14.955575 275.3188,15.1896 C269.1928,15.7076 262.3448,19.4446 256.9878,22.2646 C236.2198,33.2016 221.1208,50.1126 209.9758,69.9796 C210.6758,70.3296 211.3438,70.7906 211.9688,71.3906 C213.2258,72.5976 213.8708,74.7236 213.2948,76.4066 C211.0698,82.9106 203.1598,83.1006 197.5948,85.6476 C191.5308,88.4216 185.8348,91.9876 180.4408,95.8936 C169.8228,103.5816 160.0678,112.6136 150.7918,121.8526 C136.1828,136.4006 122.6168,151.8836 109.5158,167.7686 L106.727816,173.995819 C103.944988,180.222037 101.22305,186.46935 98.9708,192.9546 C95.3048,203.5006 92.2338,214.2816 89.8728,225.1946 C87.4968,236.1786 85.9478,247.4146 85.3608,258.6376 C84.8368,268.6516 86.1658,278.6586 86.1098,288.6146 C86.9998,290.2796 87.3218,292.1566 86.9028,294.0696 C89.7048,294.8626 92.4188,296.0716 94.9678,297.7396 C95.5888,298.1476 95.1948,299.1196 94.4618,298.9396 C91.2298,298.1436 87.9968,297.9666 84.8308,298.2746 C83.1508,300.3466 80.4308,301.6656 77.7918,301.6076 L76.6658,301.5826 L76.6658,301.5826 C75.8408,301.5646 75.0228,301.4326 74.2328,301.2076 C69.7788,303.2606 65.6808,306.2156 62.2118,309.7466 C53.8708,318.2386 49.8428,329.3636 50.4348,341.2486 C51.0208,352.9716 57.2648,363.5456 67.6068,369.1766 C72.2198,371.6876 77.3458,373.0096 82.5898,373.1066 C87.6348,373.1976 94.2558,371.6646 98.4008,374.9516 C98.8668,375.3216 99.1738,375.8136 99.3628,376.3576 C99.6518,375.1366 99.9588,373.9186 100.2938,372.7056 C100.5498,371.7786 102.0928,371.6706 102.2818,372.7056 L102.525084,374.054954 C105.998323,393.634779 107.220013,413.792847 121.0188,429.4636 C127.4728,436.7936 135.2538,443.4046 143.2358,449.0166 L144.556414,449.938238 C147.966514,452.292427 151.651108,454.578715 155.7168,455.4306 C160.2348,456.3776 163.9698,456.1176 168.1248,458.6006 C170.0778,459.7686 171.2768,462.3466 170.5578,464.5826 C165.9488,478.9346 147.7838,472.4876 138.6268,466.8136 C133.5348,463.6586 128.5798,459.8466 123.9758,455.6476 C119.9608,458.0936 115.1928,459.6706 111.0958,460.2836 C104.7768,461.2296 98.0678,459.9156 93.0308,455.8346 C87.7018,451.5186 85.8788,445.2386 86.7838,438.5716 C87.2340143,435.254314 88.0947643,432.017901 89.0221437,428.805123 L89.7888,426.1806 C90.9068,422.3586 91.7808,418.4136 94.0348,415.0766 C95.1728,413.3936 97.8738,413.5526 98.4588,415.6556 C99.7978,420.468386 99.2183051,425.901126 98.8716779,430.914568 L98.7968,432.0636 C98.5698,435.8346 96.9628,441.6186 100.2688,444.4126 C104.2508,447.7766 108.6088,446.2406 112.8488,443.9226 C112.4168,443.3956 111.9898,442.8656 111.5708,442.3346 C97.8508,424.8966 94.4388,403.1886 98.1968,381.9696 C94.6558,386.6146 85.4258,387.6196 80.5278,387.2586 C72.8378,386.6926 65.2708,384.3546 58.7208,380.2446 C45.0018,371.6386 37.2858,356.5456 36.9578,340.4906 C36.6378,324.9006 43.6128,309.1336 56.4748,300.0556 C59.8728,297.6576 63.6528,295.7936 67.5988,294.5676 C65.6808,286.9516 65.4778,278.5376 65.8938,270.3046 C61.2928,270.9306 56.3118,270.1176 52.1518,268.7016 L51.5061067,268.476053 C45.0947774,266.179675 36.9521115,261.564403 35.7518,254.3606 C34.2738,245.5006 45.2078,240.4086 51.5518,236.8696 C54.5190727,235.215055 57.5532876,233.667121 60.7032801,232.389585 L61.6518,232.0146 C64.3708,230.9686 67.5718,229.0176 70.3318,230.5716 C70.5288,230.6826 70.5768,230.8936 70.5478,231.1006 C70.0018,234.9456 63.6998,238.2176 60.8978,240.6426 C58.7458,242.5036 56.6658,244.4516 54.6698,246.4806 C53.3758,247.7966 51.4298,251.1216 49.7698,252.0546 C50.5408,252.4576 51.4648,253.4496 52.1088,253.8306 C53.9228,254.8996 55.8358,255.6536 57.8828,256.1416 C60.9258,256.8696 63.9738,256.5576 67.0208,256.4886 C68.2578,244.3626 70.5038,232.5016 74.1198,220.8526 C80.1848,201.3086 90.1258,180.7196 104.3078,165.2686 C114.7068,145.7866 128.1378,127.9916 143.4778,112.0786 C153.3168,101.8736 163.7098,91.9716 175.2368,83.6796 C180.347189,80.0038222 185.721602,76.6919704 191.426592,74.0237283 L193.322228,73.1543527 C196.489051,71.6889611 200.340626,69.7867739 204.0138,69.2426 C206.3898,59.8146 210.6228,50.7976 215.7588,42.6246 C222.8348,31.3636 232.1478,21.8656 243.0448,14.2766 C248.4218,10.5306 254.1518,7.3096 260.1538,4.6776 Z M71.1184,333.0503 C80.2614,326.9093 91.4744,324.5063 102.4004,325.4133 C107.8204,325.862824 113.181443,327.133209 118.260659,329.075876 L120.35454,329.902946 C125.20576,331.846786 130.412502,334.245605 130.5864,340.1133 C130.6554,342.4303 128.9404,344.2753 126.8704,344.9953 C121.8214,346.7503 117.7304,342.5473 113.5614,340.3113 C109.3524,338.0513 104.8784,336.5613 100.2694,335.3543 C99.8274,335.2383 99.3844,335.1333 98.9424,335.0283 C99.1824,335.5093 99.3184,336.0413 99.2714,336.6143 C99.1574,337.9863 98.7584,339.0063 98.3704,340.2923 C98.2534,340.6823 97.9684,343.0633 97.6764,343.3573 C97.7714,344.1673 97.7814,344.9333 97.8064,345.7493 C97.8764,348.1583 97.5794,350.1933 96.3494,352.3263 C93.2854,357.6393 84.5264,358.1293 81.5934,352.3263 C78.6604,346.5243 80.9524,340.8463 85.4094,336.6743 C86.6244,335.5383 88.2444,334.3813 90.0044,333.5833 C83.8244,333.0193 77.5754,333.2863 71.4014,334.0983 C70.7994,334.1783 70.7074,333.3273 71.1184,333.0503 Z M71.6651,138.4039 C84.2051,136.2719 97.3011,135.8469 109.9571,137.1079 C110.6471,137.1779 110.9051,138.2279 110.1321,138.3969 C90.8871758,142.6219 70.9371149,144.049632 53.766599,154.633852 L52.9761,155.1289 C51.3281,156.1769 47.4071,158.1559 46.5911,160.0199 C45.6281,162.2199 48.2361,165.0479 49.4491,166.6359 C52.1761,170.2019 55.5641,173.3149 59.3041,175.7919 C63.2551,178.4079 67.5031,180.4269 72.0721,181.7019 C74.2421,182.3079 76.4931,182.6159 78.6381,183.3059 C81.0801,184.0899 81.8681,185.3409 83.7181,186.9759 C85.8501,188.8579 85.1341,192.4699 82.8351,193.8209 L82.1897668,194.195995 C79.1687389,195.924808 77.4894548,196.434255 73.6521,195.7579 C70.6501,195.2279 67.7831,194.1789 64.9731,193.0129 C59.8102429,190.86909 55.0981794,188.062242 50.7505258,184.567304 L50.1011,184.0379 C42.3371,177.6199 29.1821,163.5819 37.8471,153.3619 C45.4951,144.3439 60.5241,140.2979 71.6651,138.4039 Z M102.549,41.1688 C114.576,27.0008 131.562,36.6748 143.614,45.1458 C156.603,54.2738 167.873,65.0408 176.985,78.0498 C177.564,78.8768 176.444,79.8828 175.638,79.3968 C165.535,73.3058 155.326,67.4748 144.963,61.8298 C140.707875,59.511925 136.447391,57.2499406 132.093787,55.1316066 L129.766613,54.0122257 C126.130208,52.2172319 120.90898,48.941698 117.031,51.0778 C108.668684,55.6865158 113.830012,70.782151 115.553003,78.0930682 L115.71,78.7828 L120.96475,102.84205 L120.96475,102.84205 L123.359,113.6738 L123.359,113.6738 C124.21,114.3638 124.918,115.2868 125.419,116.4768 C126.775,119.6938 125.668,124.0398 122.388,125.7278 C112.707,130.7098 109.429,120.9798 107.606,113.6678 C106.124667,107.7278 104.627778,101.791356 103.127778,95.8560963 L100.64646,86.0474033 C96.8459096,71.1990576 91.4505,54.242 102.549,41.1688 Z" id="ðŸ–-Ink" fill="#000000"></path>
    </g>
</svg>