<?xml version="1.0" encoding="UTF-8"?>
<svg width="473px" height="567px" viewBox="0 0 473 567" version="1.1" xmlns="http://www.w3.org/2000/svg" xmlns:xlink="http://www.w3.org/1999/xlink">
    <!-- Generator: Sketch 62 (91390) - https://sketch.com -->
    <title>head/mono/Mohawk</title>
    <desc>Created with Sketch.</desc>
    <g id="head/mono/Mohawk" stroke="none" stroke-width="1" fill="none" fill-rule="evenodd">
        <path d="M393.14296,242.549277 C393.65696,217.456277 391.32896,191.740277 379.13496,169.312277 C368.54696,148.262277 352.83796,130.015277 336.71196,113.030277 C329.98396,105.943277 320.99896,98.8022768 321.83996,88.0592768 C322.72296,76.7862768 329.50396,52.3662768 330.54996,40.9912768 C332.60796,18.6252768 316.59996,12.4702768 297.88596,1.84227683 C275.31596,-10.9767232 248.34496,-9.49372317 223.88096,-3.73872317 C178.25996,7.14727683 124.04896,25.2142768 106.80896,73.5582768 C102.66496,85.4812768 103.69896,98.0302768 102.87396,110.398277 C102.10096,121.975277 97.4659595,133.001277 93.0239595,143.579277 C69.5399595,195.863277 69.7519595,253.591277 74.0159595,309.710277 C61.4759595,312.610277 49.3509595,322.407277 46.5869595,335.407277 C41.9549595,358.169277 65.8269595,368.691277 79.9269595,380.994277 C97.1229595,395.997277 109.64096,415.416277 125.27296,431.900277 C226.70696,543.742277 450.53096,492.267277 403.99996,318.062277 C397.68696,293.307277 392.20196,268.265277 393.14296,242.549277 Z" id="ðŸŽ¨-Background" fill="#FFFFFF"></path>
        <path d="M192.4982,-1.3264 C217.6902,-11.1184 244.9192,-15.2584 271.8532,-11.7884 C286.3452,-9.9214 300.3952,-6.0234 313.6482,0.1626 C320.0402,3.1466 326.1722,6.6846 331.9232,10.7716 L332.447756,11.1469805 C336.99999,14.4298771 341.642756,18.4901926 341.1112,23.9396 C341.4632,25.0806 341.5252,26.3346 341.2462,27.5856 C336.7562,47.7356 332.0452,67.8216 327.3962,87.9326 C326.4182,92.1606 325.4722,96.3956 324.5342,100.6336 C356.1732,124.4576 385.9152,157.0276 397.1782,195.7306 C408.2032,233.6186 403.3762,273.5226 407.2732,312.2986 C408.1972,321.4856 409.7572,330.5986 412.2072,339.5086 C414.8392,349.0746 419.2362,358.1166 421.4592,367.7896 C425.9332,387.2506 419.4442,406.3556 409.1752,422.8566 C390.1382,453.4466 361.3772,479.2596 327.9352,492.9656 C310.8232,499.9776 291.9872,503.7896 273.4762,503.4926 C255.3222,503.2016 234.6552,499.4726 219.4572,488.9966 C209.1842,481.9166 217.9632,467.9716 229.0152,472.6446 L232.018213,473.909696 C239.681635,477.118032 247.290008,480.092177 255.5072,481.7986 C264.6922,483.7046 274.1302,484.1116 283.4812,483.5256 C301.6152,482.3896 318.8092,476.3536 334.4612,467.2896 C348.5862,459.1086 361.1702,448.5446 372.4072,436.7416 L373.658258,435.421105 C384.297497,424.134998 395.007842,411.271506 400.9912,396.9126 C404.0712,389.5236 405.7392,381.3996 404.4052,373.4296 C402.8672,364.2416 398.7762,355.5876 396.3892,346.6086 C391.85545,329.55195 390.325675,311.767121 389.8062,294.169851 L389.7682,292.8166 C388.8052,256.7026 391.5422,220.1296 378.7512,185.6106 C367.1682,154.3486 343.2902,130.4336 323.7612,104.1256 C322.8022,108.4786 321.8472,112.8336 320.8772,117.1836 C319.7192,122.3816 318.6632,127.6126 317.4012,132.7846 L317.3062,133.1616 L317.3062,133.1616 C317.6862,134.2766 317.5542,135.5446 316.5382,136.3426 C316.4262,136.4306 316.3132,136.5066 316.2002,136.5886 C315.1652,138.9806 313.5582,140.8156 310.4872,141.5776 C307.5462,142.3066 305.2182,141.0636 303.9122,138.9156 L288.5612,138.9936 L288.5612,138.9936 C278.8142,139.0436 268.1182,140.1636 258.5322,138.1796 C257.0582,137.8736 257.2442,135.7796 258.5322,135.3766 C267.5902,132.5466 278.1692,132.6146 287.5732,131.7376 L302.3942,130.3546 L302.3942,130.3546 C303.048867,130.293933 303.708422,130.215489 304.369904,130.133193 L305.3632,130.0086 L310.5152,107.0836 L310.5152,107.0836 C312.5592,97.9876 314.6992,88.9066 316.5672,79.7736 C319.9342,63.3066 323.6262,46.9146 327.3162,30.5186 C315.7302,27.6776 303.9032,26.4056 291.9152,26.9116 L290.533435,26.9727443 C285.889175,27.1942694 280.908927,27.6591455 277.0262,30.3546 C272.2092,33.6966 271.8612,40.5906 270.7942,45.9066 C267.8662,60.4856 265.7702,75.2036 263.9332,89.9586 C263.0452,97.0936 262.3742,104.2476 261.5872,111.3916 C261.2292,114.6336 261.0102,117.9296 260.5272,121.1516 C260.0672,124.2186 258.9672,127.2036 258.3462,130.2346 C259.4162,134.8606 253.0062,139.2556 249.4282,135.1456 C245.0052,130.0646 241.1302,124.7606 236.1882,120.1146 C231.2302,115.4526 225.8132,111.3716 219.9742,107.8746 C208.1082,100.7666 195.7792,96.3946 182.5272,92.6996 C182.0872,92.5776 181.8382,92.3046 181.7172,91.9886 C168.4942,95.7406 155.5602,100.8246 143.5592,107.3596 C115.7372,122.5106 93.8352,148.6696 85.5362,179.3916 C80.3842,198.4686 79.2472,218.6196 79.1772,238.3026 C79.1452,247.4396 79.3392,256.6816 80.7842,265.7226 C82.3972,275.8096 86.0572,284.8276 89.0062,294.5056 C89.7762,297.0326 89.5872,299.2886 88.7672,301.1726 L89.5186669,301.285843 C95.5414292,302.227241 107.33995,304.8841 108.4152,311.4506 C108.7162,313.2916 107.6862,314.7316 105.7932,314.8916 C102.4282,315.1766 100.3122,312.7326 97.6252,311.0636 C97.1422,310.7646 96.6452,310.4896 96.1502,310.2116 C96.0222,310.2996 95.8502,310.3216 95.6732,310.2206 C79.7842,301.1716 60.3652,315.0116 56.8292,331.0686 C53.5272,346.0616 59.1462,363.4236 73.6352,369.9776 C80.9202,373.2736 88.6672,375.3426 95.3722,379.8506 C101.0152,383.6446 106.0012,388.2826 110.3502,393.4966 C119.3052,404.2286 126.0602,416.4656 133.9932,427.9196 C137.4752,432.9466 141.3412,437.6966 145.9362,441.7586 C150.9692,446.2066 157.9722,447.9616 160.1042,454.9246 C160.9352,457.6396 159.5532,460.9006 157.1092,462.2826 C148.1652,467.3426 138.0332,458.5416 131.7762,452.5746 C125.3532,446.4496 120.1132,439.0326 115.3042,431.6106 C107.2502,419.1806 100.3722,404.9996 88.5572,395.5776 C81.4652,389.9226 72.6302,387.7836 64.6482,383.7836 C55.4892,379.1956 48.9842,371.6766 45.0972,362.2756 C37.9422,344.9686 39.8262,322.9036 53.3822,309.1326 C57.7842,304.6586 63.3552,301.7976 69.1882,300.6466 C63.1652,290.1096 60.9282,276.8266 59.4172,265.0356 C57.8982,253.1896 57.7392,241.2666 58.3642,229.3526 L58.4901018,227.037456 C59.6865829,205.793355 62.097814,183.975267 69.7872,164.0286 C76.2602,147.2396 86.0832,131.8376 99.1352,119.3926 C100.4822,118.1086 101.8652,116.8506 103.2702,115.6136 C102.8932,115.3246 102.5312,115.0146 102.2082,114.6636 C98.5512,110.6836 99.3342,105.3106 99.8212,100.3636 C100.3622,94.8646 101.2382,89.3816 102.5542,84.0136 C111.7342,46.5596 139.9662,16.0016 176.2952,3.3616 C181.5412,1.5356 186.9702,-0.0354 192.4982,-1.3264 Z M70.1011,330.1088 C75.9811,326.3938 84.9551,327.8178 91.0851,330.2528 C98.2961,333.1158 105.9761,338.4578 108.8161,345.9218 C111.4461,352.8318 101.6321,355.2808 97.9721,350.4928 C95.7101,347.5338 94.0361,344.6838 91.8901,342.1048 C91.6165,342.3712 91.35634,342.6504 91.125492,342.954176 L90.9581,343.1868 C90.0481,344.5248 88.3891,345.9158 86.6151,345.6768 L86.1361,345.6138 L86.1361,345.6138 C84.3454214,345.373693 82.3743526,344.505939 81.8798806,342.557736 L81.8311,342.3368 L81.7651,341.9848 C81.3561,339.8208 82.0021,337.4368 84.0771,336.3048 C84.2161,336.2288 84.3581,336.1638 84.4981,336.0918 C79.9281,333.6978 75.2151,332.9488 70.2461,331.2228 C69.7521,331.0508 69.6411,330.3998 70.1011,330.1088 Z M233.5772,7.8496 C202.9362,7.0806 169.3202,16.5026 146.6702,37.7286 C135.9472,47.7796 128.6832,59.4716 122.1692,72.5036 C119.0932,78.6566 117.1132,85.4736 115.6472,92.1766 C114.8452,95.8436 114.2442,99.5426 113.9242,103.2846 C113.8622,104.0056 113.8742,104.7666 113.7622,105.4806 C113.6672,106.0886 113.5522,106.2466 113.4462,106.2066 C113.4982,106.3766 113.7512,106.7236 113.9952,107.0546 C136.9372,90.5536 165.3332,80.9496 193.4152,87.2066 C194.3092,87.4056 194.3092,88.8156 193.4152,89.0146 C191.9792,89.3346 190.5472,89.6926 189.1142,90.0436 C201.4022,90.3146 214.0292,94.1646 224.6422,99.8896 C235.2472,105.6106 246.4012,113.6986 254.0892,123.5366 C253.8692,122.1006 253.6952,120.6586 253.6622,119.1996 C253.5772,115.3026 253.6672,111.3856 253.8122,107.4916 C254.1262,99.0466 254.7012,90.6026 255.3952,82.1816 L255.700966,78.5113337 C256.945159,63.7928012 258.475123,48.6567538 261.4502,34.2586 C263.1852,25.8616 267.8292,20.7466 274.0712,17.7476 C262.4832,10.2656 246.7572,8.1816 233.5772,7.8496 Z M290.3982,2.9506 C276.5902,-1.1874 262.2162,-3.0104 247.8312,-2.7614 C253.0602,-1.4404 258.1222,0.4796 262.8862,3.1306 C269.0162,6.5426 273.3322,11.0626 277.1972,16.4486 C280.8342,15.1826 284.8792,14.4836 289.1352,14.1816 C298.9632,13.4846 308.8992,14.0086 318.6622,15.5566 C316.8402,14.4346 314.9912,13.3576 313.1122,12.3346 C305.8882,8.4056 298.2712,5.3096 290.3982,2.9506 Z" id="ðŸ–-Ink" fill="#000000"></path>
    </g>
</svg>