<?xml version="1.0" encoding="UTF-8"?>
<svg width="473px" height="567px" viewBox="0 0 473 567" version="1.1" xmlns="http://www.w3.org/2000/svg" xmlns:xlink="http://www.w3.org/1999/xlink">
    <!-- Generator: Sketch 62 (91390) - https://sketch.com -->
    <title>head/mono/No Hair 3</title>
    <desc>Created with Sketch.</desc>
    <g id="head/mono/No-Hair-3" stroke="none" stroke-width="1" fill="none" fill-rule="evenodd">
        <path d="M398.851323,192.083773 C363.670323,99.526773 300.253,31.7598 193.341,74.3238 C190.274,72.2358 186.272,71.6758 182.437,74.1208 C124.198,110.6898 82.259,169.3188 64.084,235.4298 C53.023,237.5328 42.275,241.2008 32.675,247.2158 C11.811,260.2888 -2.226,281.0908 -15.384,301.3508 C-19.341,307.4418 -15.677,317.5258 -8.241,318.9088 C-5.011,319.5108 -1.81,319.8688 1.373,319.9628 C0.598,322.7758 -0.422,325.4938 -1.721,327.9868 C-6.424,337.0108 2.461,346.5918 10.788,344.1248 C11.712,344.6138 12.68,345.0158 13.683,345.3178 C13.797,350.4298 16.424,357.2728 21.623,358.3058 C30.031,360.1098 41.205,353.6748 39.221,344.2708 C41.761,344.7178 44.292,344.7738 46.759,344.4638 C47.035,349.3608 46.949,354.4708 47.625,358.9878 C49.835,380.2758 71.105,394.5758 91.389,388.0998 C92.633,394.7328 94.094,404.0528 100.627,407.6508 C108.265,429.0778 121.454,453.5308 143.056,463.2938 C141.133,468.2208 142.176,474.2148 147.968,477.5118 C187.509,500.0548 234.969,507.6828 279.673,499.3018 C297.539,498.2378 314.946,494.2008 331.654,485.5998 C343.838,479.3278 355.039,471.3628 365.973,463.1518 C376.913,454.9378 388.61,446.9398 397.342,436.2748 C406.826,424.6918 411.241,411.0638 414.106,396.5588 C427.235,330.7198 422.700323,266.072944 398.851323,203.354944 C369.329985,125.719854 428.362028,269.722906 398.851323,192.083773 Z" id="ðŸŽ¨-Background" fill="#FFFFFF"></path>
        <path d="M228.769,56.2876 C246.774,55.0166 265.107,58.0516 282.253,63.4806 C309.599,72.1366 334.713,87.4126 355.346,107.2996 C376.611,127.7946 392.338,153.0636 401.901,180.9726 C413.433,214.6306 415.159,250.5686 418.405,285.7036 C420.0447,303.4553 422.746642,320.93625 425.555712,338.515979 L426,341.2926 C428.744,358.4206 430.288,375.7436 426.497,392.8446 C420.195,421.2666 401.303,445.3926 378.878,463.2196 C332.811,499.8416 261.097,522.1686 207.46,488.4696 C199.162,483.2556 207.025,469.9226 215.126,475.3556 C220.827,479.1806 226.867,482.5336 233.344,484.8486 C260.406,494.5196 290.127,491.0746 316.873,482.0786 C343.23,473.2136 368.521,458.2346 387.969,438.2466 C408.397,417.2516 419.718,391.3186 418.082,361.8106 C417.107,344.2536 413.107,327.0216 410.887,309.6076 C408.920467,294.184267 407.741418,278.677307 406.382339,263.191602 L405.884197,257.621514 C403.00272,226.070834 398.864209,193.654716 384.509,165.0156 C372.434,140.9216 354.753,119.4866 333.493,102.9326 C311.235,85.6016 284.65,73.4806 256.756,68.9596 C223.954,63.6436 192.554,73.3106 165.191,91.3066 C140.923,107.2666 120.059,128.5946 104.061,152.7946 C96.303,164.5286 89.694,177.0596 83.987,189.9106 C78.609,202.0186 74.901,214.7086 70.576,227.1886 C74.135,227.0826 77.753,227.2196 81.427,227.6256 C100.271,229.7136 117.828,239.4796 129.005,254.8786 C142.664,273.6956 138.972,296.7936 144.307,318.1936 C144.72,319.8546 144.018,321.4806 142.595,322.3996 C134.506,327.6276 123.68,327.8016 115.851,321.9146 C109.056,316.8056 105.866,307.5686 108.617,299.4976 C108.976,298.4456 110.508,298.6316 110.551,299.7596 C111.068,313.4946 123.811,324.0716 136.302,317.5356 C130.944,299.0826 133.764,278.4736 122.805,261.8056 C103.408,232.3056 63.268,231.0866 35.075,247.7166 C20.2374833,256.467283 8.49322194,269.625299 -0.251916208,284.342916 L-2.77135019,288.615433 C-6.12350875,294.324082 -9.673525,300.7821 -10.369,307.0686 C-10.77,310.6966 -9.431,314.1056 -5.269,312.2776 C-1.902,310.7996 0.705,307.3506 2.705,304.3856 C6.11592473,299.328568 13.9540822,303.697509 11.1366683,309.082648 L11.041,309.2586 C6.9406,316.522943 4.41613469,324.528069 3.9525444,332.868793 L3.83473437,335.178476 C3.75743359,336.86183 3.701875,339.254287 4.058,339.3416 C4.485,339.4466 7.452,336.0216 7.946,335.5476 C10.326,333.2616 12.777,331.3936 16.09,330.7846 C20.4451467,329.986387 24.8392338,335.374836 21.0587611,338.907424 L20.901,339.0496 C17.527,341.9826 17.677,347.8316 21.404,350.5746 C26.664061,354.445807 33.139917,348.127169 33.9033497,342.92475 L33.929,342.7326 C34.604,337.1116 42.411,336.9126 42.835,342.7326 C43.756,355.3626 28.719,365.9486 17.278,359.5766 C12.754,357.0586 9.878,352.4476 8.977,347.5056 C7.533,348.2686 5.975,348.7976 4.328,348.9436 C-1.034,349.4186 -4.846,345.6486 -5.713,340.5886 C-6.723,334.6936 -6.124,328.3816 -4.571,322.2596 C-7.483,322.9616 -10.546,322.6936 -13.625,320.9166 C-22.94,315.5416 -20.265,303.5856 -16.748,295.5136 C-1.733,261.0596 29.375,229.7966 67.915,227.3146 C68.126,221.2356 68.95,215.4886 70.298,209.4016 C83.48,149.8626 126.184,94.7306 181.779,68.9626 C196.635,62.0766 212.39,57.4446 228.769,56.2876 Z M82.9754,294.1234 L83.5037501,294.00433 C89.5100584,292.710242 105.31648,291.19 103.4114,301.2974 C103.3214,301.7724 102.6304,301.7144 102.5074,301.2974 C100.6414,294.9424 87.9654,300.0244 84.2644,301.5544 C79.1624,303.6624 74.1294,306.7724 69.9634,310.3874 C60.8424,318.3034 54.7284,329.4594 53.7984,341.5754 C52.8764,353.5944 56.3634,366.5764 65.0334,375.2704 C69.2834,379.5314 74.7084,382.4244 80.8024,382.6374 C86.2774,382.8274 92.3264,378.5654 97.3784,381.0614 C98.3744,381.5534 99.1634,382.9044 99.0734,384.0164 C98.9034,386.1214 97.9614,387.7604 96.5594,389.0314 C105.0174,404.4444 111.9394,420.7584 122.7284,434.7744 C128.1424,441.8064 134.2774,448.3184 141.2244,453.8604 C144.5264,456.4954 148.1164,458.8094 151.8184,460.8424 C156.1564,463.2274 159.9104,464.7194 163.0064,468.7594 C165.6464,472.2044 163.0054,478.8654 158.6534,479.4594 C148.4044,480.8554 138.4444,472.5694 130.9204,466.3624 C123.4034,460.1604 116.9064,452.5104 111.5374,444.3934 C101.2274,428.8064 94.1744,410.4184 91.3544,391.8154 C88.0804,392.8534 84.3944,393.1704 81.6214,393.1764 C74.2434,393.1934 67.1984,390.5394 61.4004,386.0544 C40.1744,369.6374 37.8154,335.9304 52.7944,314.6744 C59.9624,304.5034 70.8544,296.9884 82.9754,294.1234 Z M83.1084,333.2174 C88.0304,332.7854 92.9484,333.5624 97.5744,335.2404 L99.4814118,335.931725 C103.509867,337.404646 107.797917,339.136572 110.7074,342.1564 C115.1524,346.7724 110.7264,354.7704 104.3944,353.0014 C97.3934,351.0454 91.7034,345.1494 84.7044,342.6764 C78.4484,340.4664 71.3624,340.7794 65.8104,344.5854 C65.0774,345.0884 64.1134,344.0964 64.5924,343.3664 C68.8394,336.8994 75.5444,333.8804 83.1084,333.2174 Z" id="ðŸ–-Ink" fill="#000000"></path>
    </g>
</svg>