<?xml version="1.0" encoding="UTF-8"?>
<svg width="473px" height="567px" viewBox="0 0 473 567" version="1.1" xmlns="http://www.w3.org/2000/svg" xmlns:xlink="http://www.w3.org/1999/xlink">
    <!-- Generator: Sketch 62 (91390) - https://sketch.com -->
    <title>head/mono/Shaved 3</title>
    <desc>Created with Sketch.</desc>
    <g id="head/mono/Shaved-3" stroke="none" stroke-width="1" fill="none" fill-rule="evenodd">
        <path d="M375.4192,51.0238 C321.9502,35.3308 138.0662,51.4168 133.5192,54.8158 C126.0782,60.9988 89.8835379,80.6172827 84.2515379,85.0962827 C33.3265379,139.070283 81.8742,219.2228 78.1382,284.3348 C78.3762,307.4308 68.5342,328.5188 64.0102,350.7378 C62.1002,362.3818 62.5212,374.4258 68.5902,384.8798 C79.2602,403.5598 101.7932,407.3468 120.1192,414.8788 C129.2382,418.8048 137.7582,424.3718 145.5682,430.4628 C198.1522,476.9798 227.4222,508.8338 304.1492,498.3398 C304.5412,502.0028 307.7862,505.6018 311.8092,503.9648 C321.2292,500.1288 330.5822,496.0598 340.0842,492.4238 C342.1152,497.3178 347.9492,498.7148 351.9012,494.3928 L351.9242,494.4238 C369.5132,480.1558 380.6992,460.6468 389.0072,439.7618 C394.8212,427.7128 399.5822,415.1408 403.2202,402.1948 C403.6312,400.7298 403.5772,399.4208 403.2052,398.2938 C419.9912,340.4508 426.2032,279.4868 421.7842,219.4298 C420.8892,207.0388 418.5492,194.4838 419.1242,182.0408 C419.6442,170.7988 424.4872,160.1648 428.1792,149.6948 C447.2172,105.1858 418.1152,65.0378 375.4192,51.0238 Z" id="ðŸŽ¨-Background" fill="#FFFFFF"></path>
        <path d="M382.1444,-21.2439 L382.714554,-21.6857766 C388.879365,-26.5222159 394.691863,-32.8607657 403.3844,-30.4839 C410.5144,-28.5339 414.1144,-22.6339 415.6444,-15.5039 C417.8144,-17.7739 419.9244,-20.1239 421.9844,-22.5539 C427.5844,-29.1539 440.0944,-25.7339 441.7644,-17.3239 C445.1444,-0.3839 445.3144,16.8561 442.0244,33.8261 C441.5244,36.3961 440.9344,38.9561 440.2444,41.4861 C443.9944,36.8161 447.4844,31.9461 450.6144,26.8161 C454.0044,21.2461 461.6644,24.0061 462.1944,29.9561 C462.3344,31.4961 462.4144,33.0561 462.4344,34.6261 C464.8244,35.4661 466.4744,37.9261 465.8444,40.9461 C462.3644,57.5661 457.9544,73.9561 452.6544,90.0661 C461.1744,85.5461 470.7244,82.8661 479.7144,86.0561 C493.9944,91.1361 497.3944,106.7161 494.6044,120.1261 C491.0944,136.9861 480.0544,151.0961 465.8144,160.3461 C464.1244,162.8861 462.4544,165.4461 460.8644,168.0561 C460.8344,175.4261 459.4944,182.7761 456.7944,189.6061 C453.7544,197.2761 448.3944,203.9061 441.7944,208.9461 C439.47509,213.997479 433.331154,217.68706 427.937556,216.664299 L427.6544,216.6061 L427.6444,216.6161 C429.0244,221.5561 430.2144,226.5461 431.2444,231.5461 C439.219558,270.283995 435.181672,310.607964 427.907638,349.127374 L427.6744,350.3561 C421.1444,384.6361 413.5444,420.1361 398.7744,451.9661 C385.4144,480.7461 362.7644,506.0561 330.3944,512.3361 C292.3144,519.7261 250.1644,508.0161 217.4144,488.4861 C205.5444,481.4061 216.4244,462.7461 228.2444,469.9461 C245.3044,480.3261 263.8344,487.5761 283.4344,491.3961 C301.7544,494.9561 322.2444,496.1661 339.8144,488.7861 C364.2844,478.5061 378.8244,453.3961 388.0244,429.7561 C393.4444,415.8061 397.5044,401.4061 401.2844,386.9461 C406.1544,368.3561 410.6944,349.6461 414.1044,330.7261 C420.4544,295.4361 422.5144,258.7861 415.7944,223.3961 C413.6544,212.1061 410.6244,200.7461 406.6744,189.8261 C406.0544,189.0561 405.4644,188.1961 404.9344,187.2561 C400.8044,180.0161 397.9544,171.7861 394.8844,163.9561 C392.1944,159.2861 389.2544,154.7961 386.1344,150.4061 C381.4694,146.8211 377.0264,142.9881 372.9564,138.8061 C384.7774,131.1521 395.2084,121.5701 402.7134,109.3641 C403.9514,107.3511 403.1654,105.4271 401.6984,104.3421 C395.7054,111.8391 387.9474,118.1881 379.7874,123.8131 C375.6074,127.3931 371.1054,130.6091 366.3874,133.5151 C363.0164,134.1821 359.6084,134.6401 356.3044,135.0161 C346.8944,136.0861 337.4344,135.6861 328.0744,134.4361 C307.8344,131.7361 222.2364,108.1621 186.1544,117.3261 C178.6384,119.2351 175.0944,125.9761 171.1144,132.3061 C167.662257,137.812171 163.270969,142.369799 158.0033,146.122445 L157.4144,146.5361 C147.1144,153.6661 126.4054,176.2221 117.7004,196.3541 C106.4604,222.3461 95.6644,300.2361 100.6344,300.9061 C113.6344,302.6661 120.8344,309.5061 131.4244,316.8461 C132.1244,317.3261 131.7144,318.6261 130.8144,318.2961 C123.8244,315.7761 116.2644,314.2861 108.9344,313.0661 C102.3044,311.9561 95.3244,311.7561 88.9244,314.1261 C79.1044,317.7661 74.3144,325.9961 72.3444,335.2761 C71.5744,338.9061 71.2344,342.6961 71.1944,346.4461 L71.1887611,347.53366 C71.1940235,359.356873 73.3985791,372.464458 81.9844,381.1861 C85.6344,384.8961 90.5844,387.3961 95.7644,388.0861 C101.4344,388.8461 104.9344,386.2861 110.1444,384.9561 C116.1444,383.4261 120.8244,387.3761 120.2644,392.5261 C121.5344,393.6361 122.7644,394.8061 123.9844,395.9961 L123.98565,396.0011 L123.9944,396.0061 C124.7944,396.3661 125.5544,396.8461 126.2444,397.4261 C127.3744,398.3861 128.3244,399.4361 129.0844,400.5661 C130.7744,400.8961 132.3944,401.8361 133.7244,403.5561 C136.4644,407.0861 138.9944,410.6561 141.3444,414.2961 C145.5544,418.7661 149.7444,423.2461 153.8744,427.7961 C158.845829,433.264671 163.685012,438.858141 168.555683,444.419074 L170.9944,447.1961 C173.6244,450.1861 176.2444,453.1761 178.8644,456.1761 L179.645901,457.057188 C182.281658,460.008427 184.301753,462.187276 184.5844,466.4361 C184.7844,469.5861 181.3944,471.7261 178.5844,471.0061 C174.251829,469.888957 172.240694,466.488124 169.645021,463.113715 L165.7244,458.08485 L165.7244,458.08485 L162.0344,453.3461 C160.2044,450.9861 158.3544,448.6361 156.5144,446.2861 C155.9644,450.6161 151.3844,454.1061 147.2044,454.2961 L146.230096,454.334231 C136.414192,454.65995 124.485368,453.275455 117.0144,446.3561 C113.6544,449.7461 109.4744,452.4161 104.3244,454.0161 C92.6244,457.6561 80.6644,451.2061 75.9344,441.3961 C66.7644,445.3261 56.4044,446.1161 46.4944,443.2261 C40.778458,441.550738 38.8017304,434.426806 42.7848025,430.066641 L42.9644,429.8761 L43.0104,429.8241 C42.1884,428.7551 41.7364,427.4471 41.6634,426.0221 C41.5744,424.2921 42.8354,422.4581 42.5754,420.8431 C41.5834,414.6841 31.5394,419.2471 28.3474,420.5811 C27.7374,420.8351 27.1654,420.9561 26.6314,420.9751 C21.6964,422.4121 16.3294,415.9281 18.9144,410.5761 C24.7044,398.6161 30.3544,386.5661 36.2144,374.6261 C35.4744,374.8761 34.7144,375.1061 33.9644,375.2961 C23.4344,377.9961 10.6644,372.8161 13.0944,360.1261 C13.6544,357.1461 16.3544,355.1061 19.0344,354.1861 C24.2544,352.3861 28.1744,353.6861 32.1944,352.0061 C36.7244,350.1261 41.4544,346.6761 45.4344,343.4261 C49.6844,339.9661 53.3544,336.0761 56.6044,331.8561 C57.9044,325.7261 60.1544,319.8661 63.7544,314.8261 C63.9744,314.5261 64.1944,314.2261 64.4244,313.9361 C41.3376,308.4317 44.360664,285.726545 34.1770765,265.605032 L33.3166876,263.937095 C26.4002251,250.477533 20.3661949,235.302767 23.8544,219.9761 C24.4744,217.2661 25.3744,214.6761 26.5344,212.2561 C24.6844,212.4861 22.8244,212.6961 20.9744,212.9061 C16.7244,213.3861 12.4044,207.9061 14.0944,203.8761 C14.9844,201.7661 15.9644,199.7261 17.0244,197.7461 C19.9644,192.2861 23.5744,187.3261 27.8244,182.8461 C20.6844,182.6561 13.5344,182.6561 6.4744,181.8361 C-0.1956,181.0661 -7.2056,177.4161 -7.00461171,169.7261 C-6.7936,162.3941 -0.3606,156.8441 5.6044,153.2671 C11.4754,145.4581 18.9224,138.9681 27.3454,134.1451 C25.6791143,133.770529 23.9907878,133.492937 22.2747528,133.3224 L21.4144,133.2461 C16.6044,132.8661 12.2844,131.5461 7.9244,129.5361 C4.0244,127.7361 4.0844,122.2761 6.6344,119.5261 C14.8784,110.6141 27.2304,113.5161 36.8414,118.6231 C36.1722333,117.773933 35.4391778,116.956017 34.6404972,116.173401 L34.1534,115.7081 C29.4314,111.3111 36.5184,104.2551 41.2244,108.6371 C42.7114,110.0221 44.0434,111.5271 45.2314,113.1221 L45.3444,112.8861 L45.3444,112.8861 C51.5621083,100.274433 60.6561187,88.9858656 71.4153882,79.9404141 L73.9440381,77.8379726 C93.345754,61.63133 99.3324,53.9499 125.1344,56.3361 C124.0344,51.6491435 124.142113,46.3766293 124.38985,42.0413256 L124.4244,41.4561 C125.4144,25.1561 131.4244,5.6461 147.3244,-1.6739 C151.4544,-3.5639 156.1344,-0.4739 155.0344,4.2561 C154.2644,7.6061 153.3244,10.8661 152.1544,14.0361 C155.6244,10.3861 159.3444,6.9761 163.2844,3.8361 C179.3444,-8.9639 200.8044,-19.9739 221.9144,-16.3739 C233.5144,-14.3839 242.6144,-7.1039 252.3244,-1.0239 C262.0844,5.0961 272.9844,8.7261 284.4144,10.0361 C300.3844,11.8761 316.4144,10.0261 332.2044,7.1061 C343.0544,2.3761 353.5844,-3.1639 363.8644,-9.1339 C370.1844,-12.8039 376.3344,-16.8139 382.1444,-21.2439 Z M98.6049,332.7859 C101.9849,331.9159 105.7749,331.9259 109.1649,332.7759 C117.9149,334.9759 126.0549,342.2959 126.5649,351.5259 C126.7949,355.6959 123.4349,359.6859 119.5349,360.7559 C115.1149,361.9759 111.3149,359.8159 108.7349,356.3559 C105.9649,352.6559 105.2749,348.6459 101.8849,345.2859 L101.103309,344.524858 C98.2216297,341.769227 93.8640304,338.20677 89.8649,338.8459 C89.2749,338.9359 88.8349,338.1359 89.4349,337.8159 C92.6949,336.0359 94.8349,333.7459 98.6049,332.7859 Z M144.0545,289.316 C145.597756,288.056 147.637107,289.534064 146.911104,291.346038 L146.8545,291.476 C145.0245,295.336 147.1745,299.866 149.3945,303.096 C151.3045,305.886 147.6945,308.536 145.1545,307.336 C138.0145,303.946 138.3845,293.916 144.0545,289.316 Z M170.1545,173.3457 C170.0245,172.4057 171.2745,172.0157 171.5945,172.9457 C176.9245,188.4157 178.4545,202.1157 177.5845,218.4757 L177.502609,219.92754 C176.561069,235.685595 173.801067,252.363909 164.2645,265.3057 C162.0545,268.2957 157.5345,266.5357 158.2645,262.7757 C161.1945,247.7257 166.8245,233.4357 169.0145,218.2057 C171.3045,202.2857 172.3345,189.2757 170.1545,173.3457 Z M120.3747,229.576 C121.1547,225.446 127.5047,221.196 130.7147,225.346 C131.7947,226.756 130.5247,228.486 129.2247,229.006 C128.0047,229.486 126.9147,228.826 125.7147,229.066 C124.744033,229.262 124.0347,229.867422 123.562309,230.695268 L123.4647,230.876 C122.5247,232.676 120.0447,231.336 120.3747,229.576 Z M117.7749,196.6759 C120.0549,192.4559 125.3049,189.7659 129.7949,192.3959 C131.2749,193.2659 130.6949,195.7959 128.8949,195.7159 L127.8285,195.67274 C124.6272,195.5561 121.4259,195.6209 118.7349,197.6459 C118.1349,198.0959 117.4749,197.2459 117.7749,196.6759 Z M125.7914,81.4281 C113.0024,75.6781 100.2834,80.8691 89.8404,88.9651 C88.9764,89.6351 88.5574,90.4171 88.4654,91.2031 C95.4374,88.4881 102.8604,86.7081 109.9564,85.2391 C115.7584,84.0371 121.6154,83.2261 127.4794,82.9061 C127.1514,82.3171 126.6124,81.7971 125.7914,81.4281 Z" id="ðŸ–-Ink" fill="#000000"></path>
    </g>
</svg>