<?xml version="1.0" encoding="UTF-8"?>
<svg width="473px" height="567px" viewBox="0 0 473 567" version="1.1" xmlns="http://www.w3.org/2000/svg" xmlns:xlink="http://www.w3.org/1999/xlink">
    <!-- Generator: Sketch 62 (91390) - https://sketch.com -->
    <title>head/mono/Short 3</title>
    <desc>Created with Sketch.</desc>
    <g id="head/mono/Short-3" stroke="none" stroke-width="1" fill="none" fill-rule="evenodd">
        <path d="M418.4242,337.6034 C412.1532,292.3604 397.8102,248.4324 395.7512,202.5104 C394.5262,182.8594 393.3012,163.2074 392.0772,143.5544 C391.6122,131.2804 375.6682,127.1394 369.5782,138.0134 C355.7352,122.6614 330.9472,124.9224 312.0362,125.3884 C200.7082,129.3334 94.9142,204.6034 56.6982,309.5524 C55.7792,312.0544 56.0572,314.7174 57.0962,317.1004 C39.2832,376.5004 102.2782,414.7494 145.2422,441.2334 C162.6712,459.6514 183.1582,474.9534 206.2912,485.4334 C232.9022,497.9524 262.5242,504.9324 291.9252,505.6004 C298.3792,505.7484 302.2562,500.5304 302.7222,495.1294 C312.1022,492.9464 328.1532,495.4664 333.1132,485.8544 C389.6802,461.2854 426.5372,399.0134 418.4242,337.6034 L418.4242,337.6034 Z" id="ðŸŽ¨-Background" fill="#FFFFFF"></path>
        <path d="M391.9565,177.1545 C391.7965,175.6875 393.9145,175.6425 394.3505,176.8305 C397.9355,186.5975 401.6525,196.2975 404.4925,206.3115 C407.2305,215.9625 409.2025,225.8325 411.1995,235.6605 C414.5115,251.9705 417.3595,268.4005 419.7155,284.8835 C424.7505,280.9515 431.3355,280.5935 437.5365,283.6535 C440.4465,285.0885 441.5605,288.8835 440.8625,291.8275 C440.3025,294.1895 439.6175,296.5395 438.7955,298.8415 C440.5525,300.3965 442.0455,302.3145 443.1295,304.5165 C445.9845,310.3165 445.0645,316.4045 442.5035,321.9375 C442.6985,322.2675 442.8915,322.5995 443.0735,322.9515 C446.7805,330.1505 444.7975,336.5975 442.0885,343.6215 C440.0605,348.8775 441.1925,354.7955 436.8175,358.7635 C435.2965,363.6495 433.0145,368.1935 429.6925,372.2985 C428.9385,373.6795 427.8085,374.7895 426.4675,375.6065 C426.1305,383.3175 425.3165,391.0025 423.7855,398.6205 C417.8405,428.1995 398.9725,454.5545 375.6155,473.1425 C352.7595,491.3325 325.9165,502.2015 296.9525,505.7145 C282.8885,507.4215 268.8035,506.8835 254.8545,504.4465 L253.116974,504.137299 C240.245727,501.803207 224.669935,497.938152 215.7695,488.2285 C211.0895,483.1225 213.8255,471.8845 222.1005,472.9455 C226.4845,473.5065 230.3005,474.2095 234.4285,475.8275 C237.6475,477.0895 240.8725,478.3055 244.1775,479.3355 C250.5075,481.3065 257.0545,482.8435 263.6265,483.6935 C277.3205,485.4625 291.5505,484.9945 305.0865,482.3245 C329.7005,477.4685 353.6135,466.2675 372.2925,449.4035 C394.0055,429.8005 406.7335,404.4295 408.6065,375.1675 C410.6925,342.5775 406.9295,309.2055 403.8055,276.7845 C402.1805,259.9195 400.1175,243.0885 397.6335,226.3285 C395.2065,209.9525 393.7515,193.5995 391.9565,177.1545 Z M199.79894,71.9198052 L200.8512,71.7582 C242.6512,65.3972 286.6312,65.8482 325.9212,83.0982 C333.4512,86.4072 340.8212,90.3972 347.7612,95.0272 C352.7322,94.5082 357.7322,94.0872 362.6422,94.0182 C368.8212,93.9372 374.8512,97.1472 375.6112,103.3972 C381.4012,104.1172 386.7322,106.2472 390.1422,110.5082 C391.4712,112.1672 392.3612,114.0872 392.8122,116.0872 C396.3712,116.9282 399.8612,118.2172 403.1712,119.9172 C407.1912,121.9872 409.5112,127.7472 408.0912,132.0082 C407.7632,132.9754 407.3904,133.91764 406.9728,134.839528 L406.6512,135.5272 L406.8412,135.7872 C410.0512,140.9472 407.8212,147.7172 402.9012,150.7972 C399.2112,153.1072 395.0912,154.9472 390.8512,155.8372 C391.2012,157.5372 391.5212,159.2472 391.7812,160.9772 C391.8812,161.6782 390.9822,162.1782 390.5812,161.4872 C391.594533,164.640533 392.864867,167.9542 394.3922,171.4282 C395.2912,173.4772 392.4112,175.2972 391.3122,173.2272 C388.3922,167.7072 386.5812,162.0472 383.9312,156.3572 C381.4822,156.1972 379.0412,155.6372 376.6912,154.5672 C375.1512,153.8672 373.9822,152.6872 373.1422,151.2772 C373.0912,151.3372 373.0622,151.4072 373.0112,151.4772 C365.1212,161.6272 349.7012,165.1872 337.7812,168.3972 C324.9822,171.8482 311.8812,173.9772 298.7322,175.5472 C275.7712,178.2772 252.6312,178.7872 229.5622,179.8482 C228.0342,179.9172 226.5092,179.9942 224.9832,180.0682 C215.6132,188.2882 203.5442,193.3962 191.1642,194.9492 C184.8912,195.7352 177.4712,195.5352 170.4372,193.9332 C167.8912,196.5332 164.6742,198.4592 161.1622,199.4482 C160.5302,212.5472 153.2262,224.9492 142.1842,232.1782 L142.380049,232.956823 C145.123854,244.142292 145.08845,256.368995 135.2522,264.1432 C133.9192,265.1952 132.4642,266.0972 130.9342,266.8452 L131.270371,267.617798 C136.351026,279.492019 137.973583,292.608391 128.4232,302.4612 C124.550741,306.454643 117.751649,305.50909 114.8481,300.92541 L114.7062,300.6932 C114.5452,300.4202 114.3712,300.1582 114.2042,299.8902 C113.9452,300.4202 113.5492,300.8672 112.9612,301.1172 C109.3312,302.6782 107.8812,301.5272 104.5712,299.9172 C101.5112,298.4172 98.2812,297.2972 94.9822,296.4282 C92.2912,295.7272 89.6112,295.2272 86.9112,294.9372 C69.8512,301.4572 58.8312,321.4572 61.4512,340.2272 C62.8712,350.4472 68.4822,360.5672 78.2612,364.8072 C82.5412,366.6672 87.5712,367.4472 92.2012,366.8172 C98.4712,365.9672 103.2912,362.0182 109.7812,364.2772 C112.3412,365.1672 113.9422,367.1782 114.0812,369.9282 C114.3122,374.2472 112.7812,377.4872 110.2012,379.8872 C114.7512,383.6872 118.4212,388.9672 122.3712,393.1782 C127.3122,398.4472 132.3212,403.7172 137.6612,408.5772 C142.7012,413.1872 148.0622,417.4672 153.7412,421.2682 L154.337936,421.661133 C161.454205,426.294636 170.420789,430.410104 170.7612,440.0982 C170.8712,443.0182 169.1012,445.6972 166.7012,447.1872 C157.7322,452.7472 147.9712,445.4472 140.9412,440.0982 C138.1112,437.9472 135.3612,435.7172 132.7112,433.4072 C130.9412,433.5472 129.0112,433.2582 127.0012,432.3672 C125.7112,431.8072 124.4512,431.1472 123.2112,430.4472 C119.1812,431.4572 115.3812,430.5672 112.2512,428.4572 C107.7412,429.5672 102.9612,429.6972 98.9012,428.8072 C95.1922,427.9872 91.8812,426.2372 89.1512,423.8872 C83.4512,425.7072 77.1212,425.3672 71.5012,421.9172 C68.1312,419.8482 65.5012,416.8972 64.0712,413.4472 C63.3432,412.3076 62.8774044,410.978098 62.842112,409.513167 L62.8412,408.9572 C57.9412,409.0672 53.0312,407.3872 49.2412,403.5082 C45.7612,399.9472 44.0622,395.5082 43.8712,390.9972 C38.9412,389.5982 34.4312,386.7262 31.0012,382.2972 C25.3212,374.9572 24.5622,365.8872 27.4822,357.7872 C27.2912,357.3572 27.1212,356.9172 26.9712,356.4772 C22.4412,350.0872 19.4512,342.3772 19.6912,334.6472 C19.7212,333.4472 19.8812,332.2682 20.1212,331.0982 C15.6612,328.7272 12.3812,324.5672 12.0312,319.2772 C11.7612,315.1272 13.2512,311.0672 15.9412,307.9972 C14.6312,304.8672 14.0512,301.4672 14.4512,298.0672 C14.8612,294.5772 16.0912,291.5472 17.8922,289.0182 C17.8512,288.0982 17.9012,287.1672 18.0512,286.2172 C17.8712,285.2872 17.7212,284.3272 17.6422,283.3482 C16.7912,272.6272 24.1912,263.2472 33.2012,258.2972 C35.5712,256.9972 38.1312,255.9372 40.6912,255.0372 C42.5512,254.3772 45.3512,254.1572 46.9912,252.9472 C46.9212,252.8972 47.6012,252.0182 47.7212,251.5472 C47.8512,250.9672 47.9912,250.3972 48.0622,249.8072 C48.3312,247.3272 48.1312,244.7772 48.0812,242.2872 C47.8612,230.9872 48.2112,219.6372 49.4012,208.3972 C51.6112,187.5572 57.0622,167.1672 67.6812,148.9572 C76.5912,133.6972 88.7912,120.8072 102.7812,110.1172 C130.646857,88.8343717 165.420808,77.2623525 199.79894,71.9198052 Z M70.6599,331.0876 C67.03254,322.36966 84.1097925,322.283461 88.6249563,322.697896 L88.7579,322.7106 C98.9209,323.7216 114.8099,328.6096 118.9679,338.8646 C120.6889,343.1096 115.5939,347.7106 111.5169,346.3146 C107.5259,344.9486 105.2879,342.0146 102.0849,339.4476 C101.2449,338.7736 100.3689,338.1446 99.4769,337.5376 C99.9467571,339.033529 100.698568,340.415641 101.741942,341.447743 L101.9879,341.6796 C106.9059,346.0976 98.1109,353.0406 94.8469,347.1896 C93.1089,344.0766 92.4129,340.6606 92.9549,337.1256 C93.1159,336.0826 93.3959,335.1286 93.8029,334.2186 C93.4789,334.0566 93.1599,333.8806 92.8319,333.7246 L92.2463641,333.452788 C88.3320616,331.676613 71.62954,324.70358 71.7649,330.9386 C71.7799,331.6286 70.8849,331.6296 70.6599,331.0876 Z" id="ðŸ–-Ink" fill="#000000"></path>
    </g>
</svg>