<?xml version="1.0" encoding="UTF-8"?>
<svg width="473px" height="567px" viewBox="0 0 473 567" version="1.1" xmlns="http://www.w3.org/2000/svg" xmlns:xlink="http://www.w3.org/1999/xlink">
    <!-- Generator: Sketch 62 (91390) - https://sketch.com -->
    <title>head/mono/Short 1</title>
    <desc>Created with Sketch.</desc>
    <g id="head/mono/Short-1" stroke="none" stroke-width="1" fill="none" fill-rule="evenodd">
        <path d="M242.041161,75.2596156 C298.821805,75.2596156 357.551668,119.271611 378.365264,147.356837 C402.432055,179.831825 421.416954,335.7285 412.510727,388.627648 C403.6045,441.526795 359.365264,499.183765 282.566771,499.183765 C205.768277,499.183765 159.031094,489.72438 157.157053,475.984472 C155.907692,466.824533 139.023041,436.751409 106.5031,385.7651 C73.2430134,376.410121 56.5475248,360.55971 56.4166341,338.213866 C56.2876114,315.868022 65.1995229,300.630067 83.1523686,292.5 C76.7512999,204.313833 81.6113554,148.741029 97.7325351,125.781589 C121.914305,91.3424282 185.260516,75.2596156 242.041161,75.2596156 Z" id="ðŸŽ¨-Background" fill="#FFFFFF"></path>
        <path d="M213.131911,62.0006544 L214.1441,62.0051 C276.96851,62.411 340.86433,91.3199108 378.24079,141.819932 L379.365264,143.356837 C379.426264,143.436837 380.54442,145.101688 380.808846,145.576157 C382.358288,148.356371 384.183034,150.957633 385.5831,153.7851 C386.764918,156.1851 387.550869,158.866092 388.419539,161.422365 L388.6831,162.1851 C390.9141,168.5651 392.7931,175.0051 394.4541,181.5551 C397.6731,194.3051 400.1831,207.2551 402.6241,220.1751 C411.344526,266.439355 417.04661,313.364561 419.919731,360.350706 L420.486794,369.798471 C421.066435,379.597307 421.504814,389.438314 420.4041,399.2051 C419.1331,410.5751 415.8641,421.2451 410.9141,431.5451 C406.3531,441.0451 400.4731,449.8451 393.7441,457.9351 C390.1441,462.2651 386.3241,466.4751 381.6241,469.6441 C377.8831,472.1651 373.5131,473.8251 369.3031,475.4251 C362.4541,482.2651 353.6641,487.4351 345.0741,491.5651 C330.9141,498.3551 315.5641,502.1051 300.0341,503.9851 C284.1541,505.8941 268.1141,505.4351 252.3641,502.7051 C237.3141,500.1051 221.1831,493.4551 211.9141,480.7851 C211.1141,479.6951 212.6031,478.6651 213.5831,479.1151 C240.4841,491.5651 270.7131,494.8151 300.0341,490.8851 C313.7131,489.0551 327.1731,485.2751 339.6641,479.4051 C350.2041,474.4551 359.0931,467.2551 368.5531,460.7351 C370.3941,458.2851 372.2531,455.8751 374.3741,453.6351 L377.682932,450.165223 C380.156183,447.558828 382.584638,444.917408 384.7931,442.0651 C391.6141,433.2751 397.2631,423.3051 400.9941,412.8151 C408.2497,392.395671 406.287498,370.230447 405.005225,348.950388 L404.8941,347.0751 C403.5741,324.3151 401.4231,301.6351 398.4441,279.0351 C395.4631,256.4051 391.6731,233.8651 387.1941,211.4851 C384.9841,200.4551 382.5031,189.4951 380.3141,178.4651 C379.1831,172.7751 378.3941,167.0051 377.5341,161.2551 C377.0131,157.7551 377.0231,154.3851 377.0131,150.9651 C376.9141,151.1251 376.7931,151.2751 376.6731,151.4251 C377.0341,152.2751 376.7841,153.3651 375.9041,153.8651 C372.5741,155.7651 368.7341,155.1251 364.9841,155.1351 C361.0031,155.1551 357.0231,155.1651 353.0431,155.1751 C348.8981,155.1901 344.7531,155.1901 340.6081,155.18385 L328.1731,155.1551 L278.4331,155.0051 C245.858681,154.907426 212.73188,156.202634 180.262227,153.131938 L177.783241,152.887188 C175.231932,152.593371 146.437335,149.07211 138.650545,148.162663 L138.4141,148.1351 C124.1831,146.4951 110.1541,144.0651 96.3241,140.4251 C100.8431,142.2351 105.1941,144.6751 109.6731,146.5251 C115.4541,148.9051 121.3831,150.9851 127.3141,152.9751 C139.4841,157.0651 151.6731,161.0351 163.7931,165.2551 C167.268,166.4629 175.164131,196.230814 177.154601,200.940119 L177.2131,201.0751 C178.2231,203.3451 179.6141,205.8351 178.8431,208.4151 C177.1441,214.1151 168.1331,218.3351 163.6641,221.5551 L159.0686,224.87135 L159.0686,224.87135 L153.059075,229.219137 C150.594086,230.984712 148.318363,232.335626 145.0931,231.3251 C145.0831,231.3151 145.0741,231.3151 145.0641,231.3151 C147.8241,244.1251 149.1641,285.5551 149.5741,292.8251 C149.9331,299.1551 151.7931,307.2651 148.8331,313.0351 C148.1331,314.4051 146.3141,315.4851 144.7631,315.3751 C138.0031,314.8651 131.2441,314.3651 124.4841,313.8651 C122.6731,313.7251 121.0231,312.6951 120.5231,310.8551 L120.5031,310.7551 L120.5031,310.7551 C120.2841,310.8151 120.0341,310.7751 119.8241,310.5551 C119.4541,310.1851 119.0741,309.8251 118.6831,309.4751 C109.7841,301.5351 95.8641,299.5751 84.8831,303.7051 C79.1241,305.8651 72.5741,309.5051 68.5131,314.2251 C64.0031,319.4651 63.0341,326.7851 63.0231,333.4751 C63.0031,346.3751 67.6641,359.4351 77.1731,368.3851 C85.911031,376.600686 97.1855423,378.99174 108.52862,381.343061 L109.7441,381.5951 C112.3331,382.1351 113.1541,385.9951 111.2041,387.6151 C116.3941,392.6951 120.8741,398.7551 125.2441,404.3451 C131.0466,411.760933 136.596176,419.470864 141.994503,427.1976 L144.600655,430.93532 C153.887812,444.189372 167.3305,462.4455 161.4841,479.0151 C160.7041,481.2451 157.4441,482.0451 156.1731,479.7051 C152.0031,472.0051 149.6731,463.5251 145.7131,455.7351 C141.8241,448.0951 136.9841,441.0151 132.1831,433.9351 L129.414095,429.832137 C124.803794,422.979822 120.236433,416.053433 116.0031,408.9951 L113.055323,404.107864 C110.285593,399.492967 107.544153,394.724047 105.5031,389.7651 C91.8531,393.0551 77.0131,385.7351 67.4231,375.9851 C55.3641,363.7051 49.6941,345.6151 51.2531,328.6051 C52.0741,319.7051 54.7041,311.0951 61.2231,304.6951 C61.8831,304.0551 62.5741,303.4451 63.2841,302.8351 C63.0341,302.7051 62.8241,302.5051 62.7231,302.2651 C58.3531,291.8851 57.4231,279.5151 57.0531,268.3351 C56.6641,256.7751 56.9141,245.1851 57.7931,233.6451 C59.4041,212.4851 63.2231,191.4351 69.2841,171.0951 C78.2531,141.0351 93.6641,111.6051 118.2841,91.4351 C144.53791,69.9224 179.71161,61.944881 213.131911,62.0006544 Z M82.4444,324.9251 C86.1520087,323.242491 91.9362951,326.239585 95.2370772,328.14945 L95.4534,328.2751 C105.2034,333.9451 112.1444,343.6051 115.3534,354.3051 C117.4134,361.2051 105.8434,363.9551 104.8634,357.1951 C104.0644,351.6851 102.2234,346.5251 99.1944,341.9151 C98.4734,342.1551 97.7734,342.4651 97.1444,342.8651 C94.7344,344.4251 93.3334,347.1051 89.9844,346.7051 C87.5034,346.4151 84.9634,344.6951 85.1334,341.8551 C85.4044,337.1651 89.1834,335.2951 93.2344,335.0551 C92.65615,334.5376 92.0728375,334.025725 91.4756031,333.532131 L90.8217493,333.006821 C90.0805155,332.471445 82.1560075,327.005825 81.9281084,328.411539 L81.9234,328.4951 C81.9334,329.0551 81.1834,329.3751 80.8034,328.9551 C79.2734,327.3151 80.6944,325.7251 82.4444,324.9251 Z" id="ðŸ–-Ink" fill="#000000"></path>
    </g>
</svg>