<?xml version="1.0" encoding="UTF-8"?>
<svg width="473px" height="567px" viewBox="0 0 473 567" version="1.1" xmlns="http://www.w3.org/2000/svg" xmlns:xlink="http://www.w3.org/1999/xlink">
    <!-- Generator: Sketch 62 (91390) - https://sketch.com -->
    <title>head/mono/Short 4</title>
    <desc>Created with Sketch.</desc>
    <g id="head/mono/Short-4" stroke="none" stroke-width="1" fill="none" fill-rule="evenodd">
        <path d="M430.4052,143.8453 C430.0692,131.8873 412.6762,126.9223 407.6512,138.7653 C407.3392,139.0823 407.0002,139.3873 406.6822,139.6603 C408.2552,138.3113 404.9662,140.5433 404.4312,140.8193 C403.9732,141.0553 403.5052,141.2683 403.0382,141.4883 C399.8062,111.1943 388.8342,78.5363 360.4822,63.3303 C320.9382,44.1543 275.2452,40.4113 231.8622,42.3163 C209.8852,43.6203 184.5072,47.1343 164.9822,36.0163 C158.8982,32.5523 154.0212,27.0993 147.1462,24.9583 C125.4432,19.0873 115.5992,41.3733 118.5552,59.7003 C109.2982,59.7733 100.1152,64.8983 96.1202,73.3363 C93.7742,78.3303 93.8152,83.7193 91.7922,88.7313 C85.5852,101.4413 76.7042,110.5773 81.7252,125.9873 C72.8942,136.0363 77.9292,151.2493 85.0552,160.8703 C88.5742,165.8743 92.7652,170.6783 95.3432,176.2793 C97.8452,181.6423 94.0682,188.0023 91.9662,193.0863 C76.4262,229.9353 77.3142,270.5163 85.6762,308.9523 C68.8962,316.2333 63.8602,338.9933 74.8022,353.3243 C78.5672,358.3903 83.1602,360.2703 88.3692,363.3873 C94.9612,367.0153 89.5772,381.5473 91.6882,388.5653 C94.5562,405.6983 110.1562,416.2493 125.5812,405.1233 C135.3692,403.6423 143.2642,432.1213 150.3722,439.2693 C154.7512,445.0293 159.6132,450.2013 164.8992,454.9743 C180.6492,495.4993 261.3552,516.0493 301.2572,513.7033 C343.0422,509.3283 371.2312,473.8423 394.7032,442.3483 C406.7562,425.5673 414.5952,406.7853 417.4462,386.3003 C420.3102,365.7123 419.0572,345.0873 417.1212,324.4743 C413.0542,280.6783 406.6382,217.5823 402.4952,173.3133 C417.4672,172.0803 430.8592,159.3333 430.4052,143.8453 L430.4052,143.8453 Z" id="ðŸŽ¨-Background" fill="#FFFFFF"></path>
        <path d="M104.0175,117.5142 C104.0035,117.5762 104.0245,117.6232 104.0385,117.6892 C104.0415,117.6702 104.0445,117.6602 104.0495,117.6372 C104.0375,117.5872 104.0285,117.5542 104.0175,117.5142" id="Fill-4" fill="#4F66AF"></path>
        <path d="M104.0136,118.1509 C103.9586,118.0929 103.8806,118.0499 103.8026,117.9919 C103.8006,117.9939 103.7996,117.9959 103.7986,117.9979 C103.8716,118.0459 103.9416,118.1009 104.0136,118.1509" id="Fill-6" fill="#4F66AF"></path>
        <path d="M428.0238,149.5043 C432.9418,145.4183 440.6888,149.1803 439.0228,155.9073 C437.2098,163.2333 429.3578,168.2393 422.8758,171.2493 C416.2038,174.3463 409.7048,174.9433 402.4258,174.6053 L402.3358,174.5853 L402.3358,174.5853 C404.3568,182.6883 405.5028,191.1113 407.0488,199.2633 C409.0108,209.6053 410.9408,219.9523 412.8418,230.3043 C414.6808,240.3103 417.0058,250.3293 418.4188,260.3853 C419.8438,270.5363 421.2118,280.6943 422.6118,290.8483 C424.948164,307.807391 426.834114,324.844168 428.822619,341.851944 L429.770369,349.90228 C431.761701,366.942155 433.365055,384.002573 429.5908,400.9593 C426.0538,416.8513 418.0858,431.6753 408.8438,444.9413 C399.7928,457.9313 389.6818,470.4213 378.5828,481.7203 C357.1738,503.5113 330.7738,520.9643 299.8178,524.2013 C286.4888,525.5953 272.2528,524.0443 259.7218,519.1993 L258.889738,518.874237 C246.205085,513.866032 230.671241,505.291031 227.3698,491.2193 C225.3428,482.5873 234.2378,475.8483 242.0368,479.9443 C245.650244,481.842633 248.367254,484.011235 251.333521,486.730632 L251.8598,487.2163 C254.2838,489.4673 255.2168,490.1593 258.0138,491.9203 C263.7508,495.5293 268.0508,497.2373 274.5668,498.8773 C286.5808,501.8993 299.5468,501.4213 311.7428,497.8473 C337.6368,490.2593 357.7248,470.4593 374.9338,450.6063 C384.2778,439.8253 393.1468,428.5163 399.9868,415.9513 C407.1638,402.7683 410.4768,388.9273 410.2778,373.9273 C410.0528,357.0023 407.7138,340.0113 406.1788,323.1663 C404.6148,305.9933 403.1688,288.8263 401.8948,271.6293 C400.701388,255.502241 400.586011,239.302546 400.168884,223.125256 L400.0868,220.0923 C399.8418,211.5043 399.6718,202.9133 399.4768,194.3233 C399.2838,185.7583 398.6058,177.0843 399.4878,168.5553 C399.5508,167.9343 400.3878,167.7773 400.5918,168.4053 C401.1118,170.0033 401.5668,171.6263 401.9968,173.2583 C402.0628,173.2083 402.1368,173.1633 402.2268,173.1323 C407.9308,171.1723 413.1838,167.2593 417.4638,163.0393 C421.5478,159.0123 423.6808,153.1133 428.0238,149.5043 Z M115.947,29.5068 C119.53,14.7908 135.654,11.5038 147.577,18.5908 C153.312,21.9988 157.904,26.9138 163.261,30.8198 C168.587,34.7038 174.473,37.8228 180.684,40.0258 C193.023,44.4018 206.039,45.9928 219.08,46.0498 C250.82,46.1888 281.911,37.2688 313.698,38.2638 C338.294,39.0338 364.4,46.3028 382.241,64.0828 C391.852,73.6608 398.045,85.9748 401.367,99.0478 C402.919615,105.157646 404.07687,111.415753 404.989777,117.659308 L405.213,119.2198 C405.724,122.8688 406.544,126.7318 406.62,130.4198 C406.689,133.7318 405.851,137.1978 405.397,140.4758 C404.44,147.3858 393.737,146.5988 392.199,140.4758 C388.697,126.5348 390.163,112.1468 385.883,98.2538 C382.088,85.9338 374.733,75.1618 364.076,67.7948 C319.117,36.7148 261.462,62.7418 211.926,60.3238 C199.819,59.7328 187.534,57.8618 176.114,53.6928 C170.225,51.5428 164.427,48.9208 159.088,45.6228 C154.196125,42.6031125 149.958156,38.8091086 145.429819,35.3177231 L143.432094,33.799409 C140.327715,31.4638296 135.043,27.8122918 131.911,30.9018 C130.548069,32.2466276 130.465608,35.2873529 130.490572,37.6093372 L130.506,38.6588 C130.648,48.5168 132.657,58.3568 128.968,67.8808 C127.285017,72.2249017 122.608161,74.9638313 118.159864,72.5037029 L117.93,72.3718 C108.52104,66.77434 96.1590387,78.0218587 103.386953,87.3303378 L103.612,87.6118 C107.678588,92.5539647 105.510505,101.257051 98.2321134,101.235307 L97.97,101.2308 C85.00199,100.82589 79.2484961,117.032695 90.4260925,124.114034 L90.77,124.3258 C99.845,129.7568 91.885,142.8138 82.584,138.3308 C83.372,138.7108 82.002,138.7058 81.218,139.7578 C80.465,140.7678 80.409,141.6418 80.588,142.9178 C81.131,146.7838 84.531,150.0418 87.285,152.4878 C93.541,158.0448 101.296,161.8818 109.287,164.2178 C141.297,173.5758 174.137,162.1288 205.325,155.2158 C237.84,148.0088 274.564,145.1058 302.92,165.5568 C303.257,165.7988 302.962,166.3398 302.589,166.1238 C282.239,154.3058 257.315,155.3548 235.07,160.1998 C205.9,166.5538 176.985,178.3808 147.11,181.4968 C155.497,196.3028 159.007,213.7898 156.767,230.7248 C155.224619,242.382467 150.585158,252.494452 145.105423,262.741733 L144.05969,264.694634 C139.173873,273.892684 135.389375,282.582092 135.329,293.2378 C135.27,303.8248 119.531,306.0568 116.863,295.7378 C110.806,272.3028 132.872,253.8438 141.875,234.5188 C149.57,217.9988 149.807,198.7378 143.58,181.8228 C136.554,182.3878 129.473,182.4468 122.321,181.8088 C116.178,181.2598 109.858,180.1528 103.698,178.4008 L101.233592,188.760624 C97.96876,202.55992 94.9438,216.35 94.027,230.6828 C93.352,241.2148 93.388,251.7988 94.415,262.3048 C95.303,271.3788 97.177,280.1298 99.084,288.9888 C100.72,291.1468 101.556,294.4498 101.096,297.0808 C111.716,300.1388 120.069,308.5188 123.121,319.6178 C123.307,320.2938 122.361,320.6738 122.007,320.0878 C114.766,308.0738 96.12,303.6528 84.325,311.5898 C73.061,319.1678 68.618,334.4678 74.994,346.5798 C78.3477436,352.94821 83.3201723,357.423566 89.7318297,360.505385 L91.0209807,361.110777 C94.3809643,362.700729 97.4652143,364.433443 99.626,367.6268 C102.429114,371.768771 102.523508,376.147211 102.258601,380.880303 L102.144053,382.798489 C101.96696,385.97116 101.927,389.2369 102.872,392.2888 L103.086722,392.967113 C103.335975,393.728615 103.598,394.399578 104.053,395.1268 C104.189,395.3428 105.465,396.5948 105.881,397.0478 L106.405,397.2058 L106.405,397.2058 L106.991,397.2298 L106.991,397.2298 C107.641087,397.239843 108.495418,396.95811 108.215117,397.153368 L108.291422,397.109687 C108.538047,396.956109 108.764922,396.793718 108.956047,396.649265 L109.319,396.3658 C110.168,395.1388 111.232,394.1248 112.537,393.3518 L113.784,392.7968 L113.784,392.7968 C117.023,389.3768 122.573,391.1738 124.895,394.5808 C126.566,397.0308 127.465,399.5218 127.539,401.9788 C127.8,401.5598 128.38,401.3308 128.749,401.7998 L130.950621,404.605233 C139.373939,415.367974 147.65232,426.19792 157.224,436.0088 C162.497,441.4148 168.169,446.4948 174.098,451.1738 C179.16,455.1688 188.762,459.0128 188.909,466.2898 C188.955,468.6518 187.278,470.3248 185.226,471.1268 C178.547514,473.735341 170.294704,464.861643 165.470936,460.543736 L165.077,460.1948 C159.173,455.0238 153.785,449.3478 148.813,443.2778 C139.156,431.4868 131.081,417.9158 127.522,402.9868 C127.355,405.5918 126.237,408.1448 124.061,410.5538 C121.164,413.7598 117.199,416.0078 112.964,416.9338 C103.369,419.0308 94.001,415.5778 88.292,407.5828 C83.4666667,400.823613 82.0459162,391.89857 82.6684988,383.73295 L82.7451982,382.753113 C82.8326886,381.443457 82.9441765,379.040447 83.283,378.0178 L80.262,376.3588 L80.262,376.3588 C76.558,374.3878 73.125,371.8038 70.044,368.9638 C57.661,357.5478 51.448,338.9948 57.109,322.7598 C60.65,312.6038 68.091,303.7668 77.619,299.1738 C76.0264737,295.493274 75.493903,291.122565 74.8929802,287.255451 L74.792,286.6158 C73.773,280.2718 72.92,273.8478 72.595,267.4278 C71.987,255.4378 72.726,243.3358 74.61,231.4848 C77.67,212.2358 84.005,191.8218 95.617,175.6738 C86.758,172.1558 78.604,167.0628 72.31,159.9908 C65.733,152.6008 61.54,142.0208 66.626,132.6358 C67.922,130.2438 69.611,128.2328 71.552,126.6358 C68.186,120.2798 67.097,112.7678 69.174,105.5878 C71.656,97.0038 78.395,90.3088 86.536,87.1828 C84.559,79.0498 86.175,70.3018 92.216,63.5238 C98.208,56.7998 107.513,54.3508 116.125,55.8878 C116.592,47.2378 113.869,38.0378 115.947,29.5068 Z M91.792,333.2066 C99.688,329.3426 109.046,329.9566 116.933,333.6186 L117.467393,333.872262 C126.078332,338.047828 137.48298,347.803763 134.746,358.1796 C133.144,364.2476 126.402,366.3196 121.174,363.7006 C116.807,361.5116 115.811,357.5986 113.62,353.6676 C112.071,350.8876 110.156,348.7146 107.907,346.4796 C103.166,341.7706 97.841,338.2726 91.792,335.4736 C90.92,335.0696 90.95,333.6196 91.792,333.2066 Z M290.7464,123.4773 C290.0064,123.1393 290.5434,121.9803 291.2884,122.1923 C311.1294,127.8583 329.6284,140.5763 340.6824,158.2293 C341.3564,159.3063 341.4594,161.0793 340.6824,162.1453 L340.324661,162.629103 C339.817658,163.290909 339.317463,163.779425 338.3644,163.9273 C336.5724,164.2053 335.0154,163.7383 333.9834,162.1453 C323.0934,145.3193 309.1414,131.8913 290.7464,123.4773 Z M423.5718,126.8091 C425.2528,123.9621 429.7098,124.5351 430.5968,127.7271 L430.725173,128.0049 C431.204254,129.093104 430.986319,129.315841 430.0928,128.7001 C432.3048,130.5221 433.3058,133.2361 432.6298,136.1541 C428.9778,151.9141 411.1268,163.1681 395.5648,161.6191 C394.2068,161.4841 394.0218,159.8151 395.2528,159.3171 C401.2398,156.8931 406.5538,152.9561 410.8268,148.1251 C414.9798,143.4291 416.7268,138.0561 418.9608,132.3851 C419.7988,130.2561 421.1028,128.7231 422.9398,127.8861 C423.1828,127.5501 423.3948,127.1921 423.5718,126.8091 Z M335.074609,116.681199 L335.1822,116.688 C343.1782,117.721 350.0952,121.667 355.7102,127.449 C361.1182,133.017 367.9432,142.205 367.3582,150.376 C366.9712,155.793 359.2692,158.89 356.3952,153.346 C354.6802,150.038 354.2912,146.412 353.0902,142.914 C351.9882,139.708 350.4662,136.664 348.6442,133.809 C344.8932,127.927 339.7352,122.944 334.4532,118.448 C333.835075,117.921875 334.265766,116.683988 335.074609,116.681199 L335.074609,116.681199 Z M129.9896,114.2807 C128.2166,112.5927 130.0606,109.7147 132.3156,110.2847 C144.2086,113.2957 155.9866,116.9577 168.3516,117.3217 C174.5276,117.5027 180.6686,117.0157 186.7866,116.2167 L189.884147,115.805366 C194.654984,115.182691 199.507779,114.693736 204.2236,115.6737 C207.3676,116.3267 207.9816,120.3767 206.0226,122.4897 C196.7716,132.4687 178.9276,131.5147 166.6586,129.8327 C153.3356,128.0047 139.8926,123.7147 129.9896,114.2807 Z M344.7547,83.1764 C343.9407,82.0474 345.3107,80.2654 346.6067,80.7664 C358.4257,85.3344 370.8127,97.2274 374.0687,109.6704 C374.9287,112.9574 370.7837,115.4394 368.3497,112.9994 C363.8137,108.4524 360.6117,103.0814 356.7777,97.9704 C352.9567,92.8754 348.4857,88.3504 344.7547,83.1764 Z M151.1019,88.7334 C150.1539,87.7864 151.1079,85.9004 152.4699,86.3824 C160.1649,89.1074 167.9179,91.4654 176.0019,92.7024 C184.2819,93.9684 192.6399,93.0064 200.9629,93.5194 C204.3299,93.7264 206.6229,98.9644 202.8799,100.5944 C186.2479,107.8354 163.6579,101.2694 151.1019,88.7334 Z M172.3486,72.4918 C171.0266,71.5138 171.7786,68.8298 173.5776,69.5788 C180.9056,72.6298 188.3166,73.3798 196.1806,73.0658 C199.0856,72.9488 199.6966,77.5138 196.8656,78.1298 C188.1726,80.0208 179.4526,77.7438 172.3486,72.4918 Z" id="ðŸ–-Ink" fill="#000000"></path>
    </g>
</svg>