<?xml version="1.0" encoding="UTF-8"?>
<svg width="473px" height="567px" viewBox="0 0 473 567" version="1.1" xmlns="http://www.w3.org/2000/svg" xmlns:xlink="http://www.w3.org/1999/xlink">
    <!-- Generator: Sketch 62 (91390) - https://sketch.com -->
    <title>head/mono/Short 2</title>
    <desc>Created with Sketch.</desc>
    <g id="head/mono/Short-2" stroke="none" stroke-width="1" fill="none" fill-rule="evenodd">
        <path d="M405.2634,225.3185 C416.6414,217.1465 399.6754,190.2595 393.9114,182.2595 C388.8974,171.8235 383.8834,161.3865 378.8684,150.9495 C379.4784,142.3905 371.1204,134.7755 362.8614,137.3795 C355.6764,132.2265 343.6424,134.6935 339.9904,142.7615 C260.5434,108.1595 123.0774,122.5545 115.9684,229.3265 C100.6004,259.7265 85.3684,290.3865 71.7334,321.6075 C52.8154,322.6235 43.6454,345.6065 54.9084,360.4595 C56.4074,384.5785 71.6984,386.4875 92.1124,385.4145 C100.3104,387.5735 108.8084,388.7435 114.9564,395.0745 C119.6294,399.8495 122.8054,405.9045 125.8704,411.7795 C140.0154,438.8855 157.9864,462.3335 182.3464,481.0845 C220.2294,509.4355 271.5114,529.7905 318.7494,515.9895 C420.3064,476.1075 440.2504,316.7215 405.2634,225.3185 L405.2634,225.3185 Z" id="ðŸŽ¨-Background" fill="#FFFFFF"></path>
        <path d="M193.3197,69.993 C259.6697,54.583 334.2097,75.263 380.2597,126.213 C383.4997,129.793 383.1497,134.453 380.2997,137.473 C381.6297,138.553 382.9297,139.663 384.2497,140.773 C385.6297,141.943 385.4297,144.293 384.2497,145.483 C383.0797,146.653 380.6497,146.893 379.5397,145.483 L377.89666,143.415 C377.0785,142.3818 376.2697,141.345 375.4897,140.283 C374.5397,140.633 373.6097,141.003 372.6797,141.363 C386.7497,150.713 398.4797,163.133 406.5197,178.083 C415.2197,194.253 420.7697,211.513 424.3797,229.473 C430.814788,261.510895 431.748121,294.369227 430.8875,326.947983 L430.8397,328.693 C429.7297,367.963 425.8997,407.883 409.3397,443.993 C396.0597,472.933 372.4597,499.543 342.8697,512.213 C325.8297,519.503 307.5097,522.613 288.9997,521.313 C279.2397,520.633 269.5097,519.093 260.0097,516.743 L257.72768,516.175922 C249.073411,514.008595 240.097808,511.495973 232.7097,506.543 C225.1297,501.453 230.2397,491.343 238.5997,492.573 C248.6697,494.063 258.2597,498.263 268.2497,500.443 C278.0197,502.583 287.9097,503.703 297.9197,503.413 C315.6297,502.913 331.7597,497.473 346.3997,487.593 C402.3697,449.803 409.1697,373.823 410.6297,312.423 C411.3397,282.423 410.2397,252.033 403.3397,222.723 C396.7097,194.543 385.2997,166.793 369.1497,142.723 C365.5897,144.053 362.0297,145.163 358.2397,145.513 C351.483922,149.574111 343.449823,149.681558 335.638112,149.683087 L334.5497,149.683 C326.4197,149.673 318.2897,149.193 310.1997,148.463 C281.5697,145.923 252.1097,139.483 223.3297,143.583 L222.154439,143.754801 C210.304091,145.537027 195.6197,149.277194 186.9197,157.803 C177.5197,167.003 183.8197,184.413 191.2597,189.943 C196.0697,193.523 197.5697,201.583 191.2597,204.833 C178.7997,211.263 148.6397,207.693 145.2497,211.253 C141.180135,215.508435 141.464894,221.993666 141.348131,227.516286 L141.3397,227.883 C140.9197,243.603 141.3097,259.273 142.6397,274.953 C143.9197,290.113 146.8297,305.303 147.4797,320.503 C147.6997,325.513 141.6497,327.033 138.3397,324.283 C137.6897,323.743 137.0197,323.233 136.3497,322.773 C130.3397,318.513 123.5097,316.713 116.1797,315.573 C115.7947,315.51175 115.493919,315.320344 115.277356,315.065773 L115.1897,314.953 L114.4097,315.593 C115.9297,317.483 117.2297,319.623 118.2597,322.023 C118.4697,322.503 118.0197,323.113 117.4897,322.793 C107.3497,316.763 96.3097,314.203 84.6397,316.643 C74.1397,318.833 64.6397,325.493 61.5597,336.153 C58.7297,345.963 60.8097,357.273 67.1597,365.343 C76.5497,377.303 91.7997,376.223 105.4797,376.773 C108.1597,376.883 111.1497,378.183 112.3997,380.743 C113.8697,383.763 113.7697,385.823 112.3997,388.833 C112.2097,389.263 111.9597,389.653 111.6697,390.003 C112.828033,390.961333 113.923867,392.009944 114.991922,393.079389 L118.563811,396.676586 C121.007251,399.144224 123.436843,401.633 125.7797,404.183 C132.6597,411.683 139.1297,419.663 145.2197,427.813 L145.782389,428.574101 C152.915703,438.332297 160.315085,452.424026 172.6797,455.503 C176.9197,456.563 180.8597,458.653 182.1197,463.243 C183.3797,467.833 180.4097,472.283 176.4197,474.203 C169.4997,477.533 160.7197,473.573 155.0097,469.373 C142.695734,460.302138 134.650669,445.503996 127.087345,432.476958 L125.016223,428.916691 C121.121106,422.195188 117.31595,415.39425 114.0697,408.333 C112.2197,404.303 110.2297,400.303 108.5097,396.213 C108.0097,395.023 107.5097,393.813 107.1197,392.573 C106.5697,392.693 106.0097,392.773 105.4797,392.803 C88.9697,393.883 69.9597,391.263 58.0297,378.733 C41.5797,361.463 39.6497,330.583 58.3397,314.103 C60.3097,312.363 62.5297,310.833 64.9297,309.523 C61.5897,303.873 59.3797,297.323 57.7497,291.173 C55.3697,282.193 54.0397,273.043 53.3797,263.783 C52.0497,244.893 54.2597,225.663 58.7997,207.313 C75.2597,140.803 125.7997,85.673 193.3197,69.993 Z M73.7498,345.9827 C70.4828,327.0341 108.399602,341.046263 116.668379,342.366621 L116.9098,342.4027 C126.394,343.7194 121.108093,360.355063 111.773883,355.399515 L111.4898,355.2427 C106.440467,352.349367 100.885889,350.274878 95.5903215,347.824069 L94.4598,347.2927 C90.2498,345.2727 76.3398,336.2027 74.8298,345.9827 C74.7498,346.5227 73.8398,346.5127 73.7498,345.9827 Z" id="ðŸ–-Ink" fill="#000000"></path>
    </g>
</svg>