<?xml version="1.0" encoding="UTF-8"?>
<svg width="473px" height="567px" viewBox="0 0 473 567" version="1.1" xmlns="http://www.w3.org/2000/svg" xmlns:xlink="http://www.w3.org/1999/xlink">
    <!-- Generator: Sketch 62 (91390) - https://sketch.com -->
    <title>head/mono/Turban</title>
    <desc>Created with Sketch.</desc>
    <g id="head/mono/Turban" stroke="none" stroke-width="1" fill="none" fill-rule="evenodd">
        <path d="M463.8712,255.553 C454.7202,205.654 432.1562,158.175 397.5032,121.026 C393.5042,116.615 389.9112,109.657 383.8092,108.545 C377.6842,96.064 366.0092,87.241 356.6762,77.162 C336.3052,56.851 316.8152,34.154 290.5402,21.328 C168.6712,-28.794 51.3942,114.122 26.5072,221.603 C1.7882,308.04 28.7862,427.278 135.9082,430.776 C151.0632,450.82 171.9752,464.694 193.4562,477.085 C222.7912,495.867 254.7912,503.491 288.7292,493.039 C322.5282,501.871 357.5652,473.529 377.8772,448.673 C393.9322,429.42 404.9362,405.923 419.6212,385.994 C436.9582,385.561 451.9402,370.881 454.2612,353.674 C470.4542,323.917 469.7182,288.259 463.8712,255.553 L463.8712,255.553 Z" id="ðŸŽ¨-Background" fill="#FFFFFF"></path>
        <path d="M198.4151,4.3458 C220.5901,-0.8352 243.8451,0.2388 265.8101,5.9328 C309.3451,17.2198 345.1661,46.5708 374.8671,79.2958 C403.8381,111.2158 427.7291,147.8078 445.1781,187.2268 L446.062328,189.232038 C458.404653,217.33162 469.130053,246.538474 469.5901,277.4788 C469.9861,304.1078 467.2961,331.8498 458.6931,357.1778 C451.0291,379.7408 436.9321,402.4768 412.6791,407.8858 C398.6941,443.4338 371.3341,474.2178 336.8691,490.6898 C315.4931,500.9068 292.0181,505.4678 268.3841,503.1998 C244.2711,500.8878 221.7481,489.3018 202.9031,474.5268 C202.3861,474.1218 203.0511,473.3368 203.5841,473.6428 C226.2731,486.7178 253.1071,491.3918 279.0951,490.5318 C321.8031,489.1198 360.9561,466.0688 383.4541,429.8358 C389.0521,420.8178 394.0401,411.3058 398.0191,401.4108 C397.7861,400.5968 397.6511,399.7718 397.6511,398.9678 C397.6511,395.5588 399.2691,392.9538 401.6831,391.2708 C402.8021,387.7738 403.7921,384.2368 404.6191,380.6598 C406.4941,372.5578 407.5401,364.3388 408.1711,356.0538 C408.6831,349.3228 408.3991,342.1818 409.0751,335.2788 C408.8291,329.7478 408.4871,324.2218 407.9861,318.7078 C406.3731,300.9398 403.1111,283.2158 396.8281,266.4698 C390.4631,249.5078 380.4111,234.5498 367.7291,221.6748 C340.527324,194.061248 306.659497,173.898955 280.208342,145.531486 L278.8231,144.0308 L278.7291,144.0008 C275.4471,147.3658 272.1671,150.7308 268.8781,154.0888 L253.851588,169.415692 C223.182022,200.731805 192.76103,232.352204 166.0801,267.1998 C150.7171,287.2668 136.9141,308.3018 125.0211,330.6078 C119.3891,341.172506 114.282387,352.000298 109.66678,363.046157 L107.85037,367.44348 C105.689068,372.705757 103.353491,378.596191 102.0561,384.5388 C105.9161,388.3678 108.7391,393.9948 111.8611,398.3408 C115.4021,403.2698 119.4861,407.9618 123.6881,412.3408 C127.9411,416.7738 132.6061,421.0228 137.5581,424.6638 L138.152817,425.093104 C143.83478,429.125211 150.356998,431.910122 151.2091,439.5858 C151.5791,442.9188 148.5991,445.5998 145.8401,446.6378 C138.2871,449.4748 130.4631,441.3248 125.4291,436.6368 C122.2901,433.7128 119.4041,430.5618 116.7281,427.2348 C114.1231,427.6078 111.5011,427.7948 108.9061,427.4868 C104.8851,427.0088 100.9031,426.3058 96.9861,425.2758 C64.4981,416.7458 40.4511,389.7758 27.4771,359.7388 C10.0591,319.4128 10.4641,272.9278 17.7051,230.2838 C30.9361,152.3538 73.7581,79.5758 138.4191,33.5008 C156.5281,20.5968 176.6091,9.4398 198.4151,4.3458 Z M233.4181,14.7708 C191.6461,12.5698 153.5621,34.1098 123.0071,60.9228 C67.3731,109.7428 33.1051,181.2228 26.2111,254.6258 C22.5481,293.6258 25.2891,335.6628 45.6251,370.1198 C53.5151,383.4888 63.6771,395.1378 75.6721,404.9598 C86.9751,414.2168 99.8591,419.5518 113.6331,423.1818 C113.0061,422.3178 112.3871,421.4478 111.7851,420.5648 C108.5811,415.8738 106.0361,410.8878 103.9041,405.6638 C103.7161,405.8518 103.3621,405.8898 103.1531,405.6028 C94.4591,393.6738 97.1801,379.4398 101.3241,366.3218 C105.6691,352.5628 111.1761,339.1748 117.4611,326.1878 C140.3701,278.8598 174.4441,237.6288 209.8141,199.1538 C227.8781,179.5048 246.5411,160.4248 265.1351,141.2798 C274.4211,131.7198 283.6821,122.1318 292.8261,112.4338 C297.3771,107.6058 301.9001,102.7528 306.3821,97.8608 C310.8141,93.0238 314.8021,87.9008 320.3201,84.2778 C324.7191,81.3908 329.1101,86.9088 327.0541,91.0128 C323.892133,97.3251333 318.45386,102.329244 313.641571,107.462278 L313.1461,107.9938 C308.4551,113.0578 303.7201,118.0808 298.9571,123.0768 C293.4791,128.8228 287.9581,134.5298 282.4201,140.2218 C287.1431,139.6748 291.9221,139.3598 296.6171,138.6468 C302.9931,137.6788 309.2831,136.2528 315.5411,134.7018 C322.1361,133.0688 328.6461,130.9838 334.9291,128.3918 C340.8321,125.9578 346.4111,122.0578 352.9061,121.6758 C358.4041,121.3518 360.1211,128.1588 357.0751,131.7408 C352.877009,136.676755 345.329505,138.619558 339.191809,140.452402 L338.3251,140.7138 C331.5361,142.7858 324.5891,144.3408 317.5671,145.3798 C308.3281,146.7478 297.6501,147.3738 287.7651,145.9738 C307.504933,157.547967 325.669538,171.891717 343.782855,185.88051 L346.9791,188.3448 C364.6761,201.9608 381.9481,216.6388 394.5661,235.2678 C406.3441,252.6588 413.4561,272.9058 417.4471,293.4208 C419.4161,303.5418 420.7151,313.7698 421.5871,324.0408 C424.836288,333.146946 424.314446,343.973689 423.496124,353.988987 L423.2041,357.4458 L423.2261,358.4598 C423.3481,364.7238 425.8651,378.6708 419.9371,383.4008 C419.8361,383.9048 419.7421,384.4118 419.6361,384.9158 C420.3741,384.4598 421.1031,383.9908 421.8261,383.5088 C422.1231,383.3098 422.4111,383.0908 422.7021,382.8758 L423.52125,382.202939 C423.552428,382.176722 423.579475,382.153675 423.6011,382.1348 C425.4411,380.5198 427.1961,378.8338 428.8321,377.0108 C431.8551,373.6418 434.7291,369.3608 437.4511,364.4288 C443.4321,353.5888 447.2531,341.8048 450.2081,329.6208 C455.6101,307.3458 457.8391,283.4208 455.3751,260.5768 C455.0311,257.3878 454.3251,253.3898 453.2301,249.2878 C450.6301,239.5478 447.6391,229.9108 444.2901,220.4038 C437.5911,201.3848 429.3791,182.9338 419.8041,165.1898 C400.3581,129.1498 375.3381,95.8298 345.3601,67.8688 C315.0011,39.5518 275.6301,16.9948 233.4181,14.7708 Z M174.5098,129.9206 C176.0158,129.0006 177.5658,130.7876 176.8188,132.2296 C173.2018,139.2086 167.1198,145.1006 162.0678,151.0806 C156.8368,157.2726 151.6438,163.4986 146.4638,169.7336 C135.9158,182.4286 125.6208,195.3566 115.7318,208.5726 L113.121294,212.068605 C104.42723,223.739228 95.8388,235.5946 88.2388,247.9946 C84.2628,254.4816 80.7588,261.1906 77.5768,268.0996 C74.5478,274.6766 73.1508,282.6156 69.5108,288.7936 C69.2818,289.1836 68.5718,289.1516 68.4838,288.6586 C67.2958,282.0066 70.2308,273.9946 72.3278,267.7656 C74.8208,260.3576 78.3688,253.3016 82.1668,246.4866 C90.0888,232.2706 99.5808,218.9456 109.1168,205.7816 C118.8018,192.4146 128.8568,179.3206 139.4058,166.6226 C144.360467,160.658156 149.426541,154.81302 154.644055,149.082979 L156.6078,146.9396 C162.0728,141.0116 167.5808,134.1506 174.5098,129.9206 Z M149.1851,109.2541 C151.6621,107.4191 153.7761,111.1691 152.1961,113.1571 C142.7571,125.0311 132.0171,135.7001 121.6871,146.7741 C111.7671,157.4091 102.2851,168.4421 93.3381,179.9091 C75.0951,203.2921 60.4921,228.9501 48.1241,255.8411 C47.8911,256.3481 47.1571,255.9701 47.2671,255.4801 C53.818175,226.393287 69.1339544,199.975478 86.5728561,176.1063 L87.2361,175.2011 C104.8751,151.1981 125.1511,127.0691 149.1851,109.2541 Z" id="ðŸ–-Ink" fill="#000000"></path>
    </g>
</svg>