<?xml version="1.0" encoding="UTF-8"?>
<svg width="473px" height="567px" viewBox="0 0 473 567" version="1.1" xmlns="http://www.w3.org/2000/svg" xmlns:xlink="http://www.w3.org/1999/xlink">
    <!-- Generator: Sketch 62 (91390) - https://sketch.com -->
    <title>head/mono/Twists 2</title>
    <desc>Created with Sketch.</desc>
    <g id="head/mono/Twists-2" stroke="none" stroke-width="1" fill="none" fill-rule="evenodd">
        <path d="M408.0736,252.0653 C404.3616,222.4443 392.70157,190.994866 380.43857,163.379866 C352.86457,104.993866 289.7376,96.9553 233.1466,84.9173 C177.3026,76.7873 118.1676,69.4463 63.1656,85.6673 C32.2446,93.2423 20.1676,130.0683 25.0476,159.1293 C27.8326,177.2383 36.0756,194.3773 43.1046,211.1603 C57.0756,245.6263 65.9396,282.5253 65.9546,319.8413 C64.9956,344.2273 61.5536,372.0613 89.5776,382.3903 C116.2446,395.6513 118.4976,431.5993 151.8886,451.9953 C165.3906,479.3443 202.1696,481.7513 228.6406,488.0953 C245.3716,491.2973 262.2916,493.6543 279.2576,495.1763 C328.3836,501.4713 367.6836,487.2363 393.3996,443.4743 C410.6086,416.8413 423.4236,386.0893 420.2576,353.8113 C417.1046,319.8213 411.8516,286.0093 408.0736,252.0653 Z" id="ðŸŽ¨-Background" fill="#FFFFFF"></path>
        <path d="M233.5706,13.9589 C236.3746,10.7809 240.6946,11.8709 243.3166,14.3839 C245.0236,14.8869 246.6776,15.6349 248.2396,16.6249 C251.7696,16.1719 255.4706,16.1719 258.9326,16.2989 C259.7726,15.8279 260.6726,15.4089 261.6526,15.0489 C268.6526,12.4899 274.8516,13.7899 279.9646,17.2159 C282.4276,14.8859 285.5346,13.4239 289.5066,13.6449 C293.0516,13.8429 295.5776,15.5109 297.7426,17.7079 C299.9016,14.5949 303.3916,12.3739 307.7396,12.0649 C313.8166,11.6329 319.6586,14.0699 324.5006,17.8429 C327.3216,14.6069 331.1676,12.7469 335.4536,12.7289 C338.2736,12.2169 341.2496,12.4189 343.9386,13.2309 C347.8426,14.4099 351.2706,16.6189 354.0006,19.4859 C358.3196,15.3499 363.6066,12.3739 369.7026,12.8079 C377.5926,13.3779 384.1326,19.1789 387.1726,26.3189 C392.5126,28.4579 397.4426,31.5089 401.5626,35.8589 C401.7826,36.0879 401.9926,36.3279 402.2126,36.5689 C404.4326,37.3879 406.5226,38.5489 408.3626,40.0779 C414.1926,44.9289 415.4926,51.9489 413.5626,58.8279 C413.8326,59.9289 414.0626,61.0489 414.2726,62.1679 C419.7326,62.9979 424.6926,66.1489 427.5126,71.2789 C431.3726,78.3189 430.6126,87.5979 426.4326,94.3189 C424.6356,97.2099 422.3546,99.6459 419.7926,101.7759 C422.6896,108.3559 421.2996,116.2079 416.6286,121.5299 C415.4906,123.3649 414.0936,125.0209 412.5216,126.5199 C414.2566,133.3229 411.1706,140.3419 405.0106,143.9769 L404.483711,145.295641 C404.395156,145.514789 404.305267,145.7329 404.2126,145.9489 C404.1446,146.2289 404.0606,146.4999 403.9776,146.7729 C403.8306,149.1869 403.0356,151.5559 401.4576,153.7879 C398.227,158.362167 394.22268,161.345074 392.099428,166.684931 L391.8866,167.2459 C390.9736,169.7729 388.0256,171.5559 385.5136,170.7759 C399.4606,199.4169 406.7726,231.2859 411.7926,262.5179 C414.295725,278.09915 416.227561,293.734013 417.794101,309.429082 L419.330606,325.058487 C420.681949,338.950977 421.884908,352.889438 421.8926,366.8279 C421.9126,398.3589 412.8926,428.6879 393.5326,453.7789 C375.2226,477.4979 349.3126,494.6879 320.0426,501.4579 C289.8226,508.4379 254.3726,505.6879 227.2726,489.7079 C219.2826,485.0089 226.2826,473.7079 234.4126,477.4889 C249.8026,484.6489 265.4426,489.9689 282.5026,491.1589 C299.1326,492.3279 315.8026,490.2479 331.5726,484.8079 C357.6626,475.7989 379.8626,456.9289 394.1326,433.4289 C401.1626,421.8479 406.2526,409.2789 408.9626,395.9979 C412.335933,379.4451 411.827706,362.335879 410.588207,345.571389 L410.5026,344.4289 C408.0526,312.1279 404.8226,279.6279 399.6026,247.6489 C394.9886,219.3699 387.8936,191.6639 378.6826,164.5709 C375.0746,161.3949 371.0386,158.7669 366.7196,156.7709 C335.0926,155.4499 303.4086,155.8359 271.8226,158.0179 C244.884669,159.891003 218.077249,163.059898 191.472347,167.678496 L188.6226,168.1789 C182.7326,169.2279 176.1926,169.8279 170.6426,172.1989 C165.8826,174.2389 163.9526,178.1589 162.7526,182.9779 C159.7326,195.1679 159.2726,208.5089 158.7626,221.0089 C158.2626,233.2279 159.3926,245.5489 158.4126,257.7279 C157.5826,267.9179 154.9726,278.3479 147.4226,285.7189 C143.4726,289.5779 138.6126,291.6879 134.0526,294.6179 C131.1026,296.5089 129.8526,298.4579 130.2326,301.9579 C131.0526,309.6179 137.2226,319.2679 130.2926,325.8279 C129.0726,326.9779 126.9626,327.1279 125.7626,325.8279 C122.9026,322.7189 118.9526,320.3479 115.5626,317.8379 C114.1426,316.7989 115.3226,314.7789 116.9326,315.4979 C119.0526,316.4489 121.2126,317.5689 123.4226,318.5489 C118.5426,314.5289 111.6026,312.5579 105.8226,311.3879 C102.9126,310.8079 99.8526,310.6379 96.8226,310.9089 C94.5826,311.9779 92.2926,312.9689 90.0026,313.9379 C87.0926,315.1589 84.1526,316.2679 81.1926,317.3189 C70.9226,325.6879 66.0226,339.2989 68.1626,352.6089 C69.3326,359.9579 72.7226,367.9489 79.1126,372.2389 C86.6826,377.3189 96.8226,375.1379 105.0026,378.9089 C112.6626,382.4379 117.3226,389.5689 120.8126,396.9489 L122.267564,400.021495 C125.506834,406.824289 128.836513,413.446596 133.2626,419.6379 C138.3826,426.8079 144.6526,433.2479 151.4926,438.7789 C154.810933,441.455567 158.347739,443.863344 162.002884,446.056151 L163.0026,446.6489 C166.7026,448.8189 169.3526,450.8879 169.6026,455.4779 C169.6826,457.0779 168.6726,458.5379 167.3726,459.3679 C161.7726,462.9179 156.2026,458.4779 151.5426,455.3779 C146.5126,452.0379 141.7026,448.2789 137.2526,444.1789 C128.7926,436.3989 121.4726,427.1589 115.8426,417.1279 C111.5526,409.4889 109.1126,398.7389 102.3326,392.8189 C98.1926,389.2079 92.3426,389.1789 87.1726,388.5179 C82.3626,387.8989 77.8126,386.8989 73.5326,384.5289 C56.1226,374.8589 51.2026,351.4489 55.3326,333.3589 C56.0326,330.3079 57.0126,327.3379 58.2226,324.4779 C51.7426,325.5579 44.4626,318.8589 47.0926,312.0979 C47.2926,311.5879 47.5226,311.1089 47.7426,310.6179 C43.4726,307.8079 40.1026,303.5489 38.5026,297.9779 C37.6826,295.0979 37.5626,292.1879 37.9926,289.3779 C35.9226,287.9889 34.2126,286.0779 33.1126,283.7279 C29.6726,282.1379 26.6226,279.7589 24.8026,276.3589 C22.2826,271.6679 22.6026,267.3479 24.5226,263.4579 C24.2526,262.9689 23.9926,262.4689 23.7426,261.9579 C16.6926,257.4889 11.7726,249.7879 12.3326,241.2479 C12.5126,238.4179 13.2126,235.8679 14.2926,233.5689 C14.2026,233.2789 14.1126,232.9779 14.0326,232.6879 C8.1326,229.6879 3.2526,224.7589 1.5126,218.1789 C-0.2274,211.5579 1.8226,204.9579 5.9226,199.8779 C-0.0774,195.4889 -3.6874,189.3589 -1.4974,180.0879 C-0.6074,176.3189 1.1826,172.8879 3.6026,169.9979 C3.5926,169.9089 3.5726,169.8189 3.5526,169.7279 L2.99125469,169.292531 C-4.41579976,163.447537 -8.67374146,155.998876 -4.1274,146.8379 C-2.0874,142.7189 0.8226,139.8479 4.2426,137.9579 L4.4126,137.4179 L4.4126,137.4179 C1.9626,132.1679 1.1326,126.3379 2.8226,120.2079 C4.2026,115.1589 7.4726,111.1379 11.6526,108.4689 C11.3726,106.2079 11.4126,103.7989 11.8626,101.1879 C12.6126,96.7789 14.8026,92.9289 18.0026,90.1989 C18.1226,89.6179 18.2726,89.0489 18.4426,88.4779 C19.5226,84.9889 21.5426,81.1989 23.8826,78.3879 C25.8126,76.0579 27.9726,75.2079 30.6126,75.1179 C30.4526,72.9689 30.5626,70.7879 31.0026,68.5779 C32.3526,61.7589 36.6926,55.3479 43.1226,52.4379 C45.7626,51.2479 48.5426,50.8989 51.2226,51.1879 C53.5026,46.3879 57.9526,42.9089 63.4226,42.1589 C65.5526,41.8589 67.5326,41.8779 69.3526,42.1489 C70.3826,41.6679 71.4526,41.2389 72.5726,40.8479 C73.3126,40.5879 74.0626,40.3479 74.8126,40.1089 C77.3426,36.9689 80.6726,34.4579 84.5626,32.9489 C89.0526,31.1989 93.6226,31.3779 97.6726,32.8479 L98.9626,32.5779 L98.9626,32.5779 C100.9826,29.0779 104.2026,26.3679 109.1526,25.1379 C114.7726,23.7479 120.5426,25.6879 124.9626,29.2189 C124.9826,29.2189 125.0026,29.2189 125.0326,29.2079 C127.3426,24.0379 131.2926,20.4379 137.9226,20.6879 C142.0526,20.8479 145.7826,22.8989 148.6626,25.8189 C150.2626,25.6179 151.8626,25.4379 153.4726,25.2589 C155.1726,23.2679 157.0626,21.4089 159.1526,19.7389 C162.5726,16.9979 167.0226,17.2189 169.5426,21.0779 C170.0926,21.9179 170.6026,22.7679 171.1126,23.6179 L173.4226,23.4579 L173.4226,23.4579 C176.1426,19.7879 179.8526,17.3079 184.9326,17.1089 C189.5926,16.9179 192.9126,19.1989 195.4426,22.3879 C197.5026,22.3379 199.5726,22.2989 201.6426,22.2679 C204.0526,19.4779 206.8926,17.0179 210.1326,14.9779 C212.6126,13.4179 216.2726,13.9489 218.2826,16.0289 C219.6406,17.4429 220.9046,18.9189 222.0796,20.4469 C225.1086,17.0509 229.1996,14.8139 233.5706,13.9589 Z M86.3926,331.5085 C91.0626,328.8485 97.3426,331.7285 101.8626,333.9885 C107.3726,336.7385 112.8426,340.8885 116.2126,346.0885 C120.8026,353.1685 110.0126,358.8885 105.1826,352.5385 C102.2126,348.6285 99.8426,344.6885 96.2426,341.2685 C92.9526,338.1285 88.1826,336.0285 86.2926,331.8885 C86.2226,331.7485 86.2426,331.5885 86.3926,331.5085 Z M89.6732526,159.657628 L89.7606,159.4079 C91.0886,155.7749 85.2926,154.2089 83.9756,157.8119 C81.9796,163.2729 84.2806,169.2099 89.6746,171.5679 C91.1696,172.2219 92.8776,171.9949 93.7786,170.4919 C94.5356,169.2269 94.1846,167.0349 92.7026,166.3879 C89.6676263,165.060768 88.6510744,162.718264 89.6732526,159.657628 L89.6732526,159.657628 Z M39.7416,149.4989 C42.6426,146.9389 38.3856,142.7079 35.4986,145.2569 C32.8046,147.6349 30.8066,150.8649 31.3256,154.5799 C31.8546,158.3659 34.7096,161.0389 37.8346,162.9279 C41.1466,164.9309 44.1656,159.7449 40.8626,157.7469 L40.4915497,157.519926 C39.1050722,156.658851 37.4822667,155.4749 37.2476,153.7809 C36.9986,151.9809 38.5216,150.5759 39.7416,149.4989 Z M56.2090224,104.327047 L56.4146,104.1759 C59.5306,101.9519 56.5376,96.7459 53.3856,98.9949 C50.4956,101.0579 48.1776,103.7379 47.9336,107.4339 C47.6966,111.0259 49.5246,114.1399 51.9146,116.6669 C54.5736,119.4779 58.8116,115.2299 56.1576,112.4249 C53.5716208,109.691067 53.0661668,106.707954 56.2090224,104.327047 L56.2090224,104.327047 Z" id="ðŸ–-Ink" fill="#000000"></path>
    </g>
</svg>