<?xml version="1.0" encoding="UTF-8"?>
<svg width="280px" height="230px" viewBox="0 0 280 230" version="1.1" xmlns="http://www.w3.org/2000/svg" xmlns:xlink="http://www.w3.org/1999/xlink">
    <!-- Generator: Sketch 62 (91390) - https://sketch.com -->
    <title>facial-hair/Chin</title>
    <desc>Created with Sketch.</desc>
    <g id="facial-hair/Chin" stroke="none" stroke-width="1" fill="none" fill-rule="evenodd">
        <path d="M209.56,138.063869 C179.966667,142.412366 158.546667,141.513713 145.3,135.367911 C125.49,126.178077 106.22,117.286552 88.25,105.11363 C69.84,92.6423999 54.22,77.8328139 43.07,58.8757739 C32.7,41.2370661 24.08,22.5205977 15.4,3.94847219 C14.8927599,2.8631581 9.91,-7.92614068 8.15,-11.5443372 C5.44,-17.1544662 -2.48276151,-15.3934895 -2.48276151,-6.68479136 C-2.48276151,2.0239068 -2.87,67.9754124 12.35,93.9186509 C26.08,117.350322 49.35,133.722402 72.47,148.012353 C98.05,163.813094 132.03,180.893676 162.55,185.406799 C190.17,189.486893 221.69,178.026063 241.69,159.136383 C262.6,139.380645 268.52,112.541703 279.31,86.8390358 C281.72,81.0941866 273.176247,77.6294969 270.67,83.2793543 C267.523643,90.3722187 247.153643,108.633723 209.56,138.063869 Z" id="ðŸ–-Ink" fill="#000000"></path>
    </g>
</svg>