<?xml version="1.0" encoding="UTF-8"?>
<svg width="280px" height="230px" viewBox="0 0 280 230" version="1.1" xmlns="http://www.w3.org/2000/svg" xmlns:xlink="http://www.w3.org/1999/xlink">
    <!-- Generator: Sketch 62 (91390) - https://sketch.com -->
    <title>facial-hair/Goatee 1</title>
    <desc>Created with Sketch.</desc>
    <g id="facial-hair/Goatee-1" stroke="none" stroke-width="1" fill="none" fill-rule="evenodd">
        <path d="M207.9143,31.3282 C196.7933,26.3192 176.8233,30.6902 169.5733,32.4282 C152.7183,36.4702 135.7623,45.2052 130.5223,58.8902 C124.6173,74.3132 136.3993,79.1682 138.1323,78.3752 C149.8003,79.1972 163.6953,71.8622 175.9223,69.9692 C185.8483,68.4192 196.3193,67.0662 205.6193,61.7922 C212.4093,65.5272 227.7453,67.5462 240.1223,70.8122 C250.6633,73.5922 255.2303,79.6212 265.0023,78.3392 C276.7143,76.8032 271.9203,52.1702 258.8673,42.1912 C244.5813,31.2702 220.4193,26.8412 207.9143,31.3282 Z M229.9341,136.6535 C220.204493,139.025645 219.5511,117.7005 218.4611,110.1665 C217.609542,104.280593 212.806884,89.1015762 200.6311,89.7565 C188.455316,90.4114238 183.878432,103.128761 184.4961,111.0385 C184.896642,116.16777 189.62335,142.149551 174.5361,145.4365 C164.9171,145.4025 153.7891,144.7535 143.6751,142.8885 C131.7711,140.1925 116.291914,130.753365 112.2031,149.3425 C110.731534,156.03274 163.1691,175.9095 186.4381,177.7075 C210.036475,182.489578 237.64678,175.136312 254.448053,157.083732 C258.270339,152.976774 269.035635,135.930081 269.802759,131.753365 C271.414428,122.978404 267.682963,117.331642 256.8251,120.4245 C249.1551,124.5205 236.191168,135.127984 229.9341,136.6535 Z" id="ðŸ–-Ink" fill="#000000"></path>
    </g>
</svg>