<?xml version="1.0" encoding="UTF-8"?>
<svg width="280px" height="230px" viewBox="0 0 280 230" version="1.1" xmlns="http://www.w3.org/2000/svg" xmlns:xlink="http://www.w3.org/1999/xlink">
    <!-- Generator: Sketch 62 (91390) - https://sketch.com -->
    <title>facial-hair/Goatee 2</title>
    <desc>Created with Sketch.</desc>
    <g id="facial-hair/Goatee-2" stroke="none" stroke-width="1" fill="none" fill-rule="evenodd">
        <path d="M237.5945,65.8793 C240.3345,68.6893 242.9645,71.6993 245.4445,74.8093 C246.1345,79.7493 246.2945,84.7493 245.6645,89.9093 C244.7445,97.3893 242.7045,104.6993 239.9445,111.7193 C238.3145,111.4893 236.7045,111.0293 235.1345,110.3093 C230.1545,108.0193 227.3745,103.4093 224.0045,99.3393 C217.2945,91.2493 205.0545,86.4693 196.4945,94.8593 C192.7745,98.5093 190.3945,103.5593 187.0745,107.5693 C183.4245,111.9793 179.3245,116.1693 175.0445,119.9693 C174.5145,120.4493 173.9645,120.9693 173.3945,121.4793 C171.0145,118.7593 168.6745,116.0193 166.3845,113.2393 C159.5745,104.9593 153.6945,95.7893 150.6045,85.4493 C149.6245,82.1693 149.0145,78.7493 148.7745,75.2993 C151.8045,71.5393 155.2645,68.1193 159.1945,65.2893 C171.0445,56.7393 184.6945,55.3493 198.8945,54.6093 C213.5845,53.8493 226.8145,54.8493 237.5945,65.8793 M273.4345,105.5493 C272.8645,99.8293 271.9845,93.8793 270.6845,87.9393 C265.9345,65.8993 255.6445,43.9293 235.0145,33.8593 C225.2545,29.0893 214.1645,27.4093 203.6445,29.7093 C185.1845,22.7993 164.6845,29.8493 150.1545,42.4893 C133.0145,57.3993 125.1045,80.7993 122.4445,102.7193 C120.5945,117.9693 119.8975,138.3443 124.2245,149.4093 C128.5515,160.4743 156.0505,190.0633 195.3045,190.2693 C251.2145,190.5623 264.8045,152.8593 266.4545,149.5593 C273.3445,135.8393 274.9445,120.6893 273.4345,105.5493" id="ðŸ–-Ink" fill="#000000"></path>
    </g>
</svg>