<?xml version="1.0" encoding="UTF-8"?>
<svg width="280px" height="230px" viewBox="0 0 280 230" version="1.1" xmlns="http://www.w3.org/2000/svg" xmlns:xlink="http://www.w3.org/1999/xlink">
    <!-- Generator: Sketch 62 (91390) - https://sketch.com -->
    <title>facial-hair/Moustache 2</title>
    <desc>Created with Sketch.</desc>
    <g id="facial-hair/Moustache-2" stroke="none" stroke-width="1" fill="none" fill-rule="evenodd">
        <path d="M279.528,190.8631 C281.547,192.7781 285.93,196.9931 290.129,198.8461 L294.056,198.8461 C294.899,198.6881 295.727,198.4471 296.549,198.1751 C297.618,195.5521 297.824,192.4961 297.299,189.4181 C294.331,172.3721 291.68,155.1111 293.093,137.7621 C294.424,121.4051 299.132,105.1281 297.861,88.6151 C296.088,49.6481 258.461,22.6651 225.52,30.5541 C221.267,30.9311 217.108,32.1281 213.404,34.2561 C162.018,12.7001 98.507,49.1221 110.469,108.7041 C112.762,124.8141 116.46,140.0931 115.324,156.5121 C114.78,164.3701 113.529,172.1421 112.061,179.8741 C110.959,185.6761 108.042,192.8301 110.722,198.5571 C121.488,205.3561 132.712,191.2261 139.903,179.0991 C143.667,168.9071 146.794,158.4721 150.32,148.2011 C156.682,129.7401 158.156,119.5441 179.151,114.5101 C188.219,111.4171 196.313,106.8571 203.254,100.8451 C208.589,98.2901 211.63,93.1721 213.448,87.9971 C214.354,90.5451 213.101,93.6381 212.874,96.2831 C228.101,116.4651 246.944,112.6441 253.723,126.6781 C258.91,139.8891 261.825,153.9731 265.794,167.6431 C266.337,169.5141 276.384,187.8811 279.528,190.8631" id="ðŸ–-Ink" fill="#000000"></path>
    </g>
</svg>