<?xml version="1.0" encoding="UTF-8"?>
<svg width="280px" height="230px" viewBox="0 0 280 230" version="1.1" xmlns="http://www.w3.org/2000/svg" xmlns:xlink="http://www.w3.org/1999/xlink">
    <!-- Generator: Sketch 62 (91390) - https://sketch.com -->
    <title>facial-hair/Moustache 8</title>
    <desc>Created with Sketch.</desc>
    <g id="facial-hair/Moustache-8" stroke="none" stroke-width="1" fill="none" fill-rule="evenodd">
        <path d="M520.3335,-58.5057 C504.3355,-43.9127 514.6135,-7.3547 520.8515,-17.2377 C521.7815,-26.3897 524.6395,-43.9257 533.9155,-47.4737 C602.1455,-50.3837 588.0555,118.3213 460.9575,97.5573 C379.9775,92.0933 294.4465,-25.1827 218.2945,46.1853 C135.5545,-21.2117 42.1275,79.8283 -43.0755,93.6663 C-112.3505,116.0693 -215.8745,74.9313 -197.2315,-10.4697 C-192.5745,-35.5297 -157.9185,-64.1967 -136.6935,-38.7647 C-130.4235,-32.7237 -138.3885,-10.5987 -131.7965,-15.1727 C-121.5345,-26.5097 -124.2085,-44.6147 -133.6925,-55.9057 C-149.4005,-74.6037 -177.4005,-66.4237 -193.6885,-53.2187 C-267.1715,19.0723 -178.6655,128.1953 -90.0875,120.9863 C6.9785,132.8583 138.9805,-2.0377 205.7015,63.4943 C212.504808,70.1763695 225.290205,70.1789823 231.2055,63.4993 C287.9295,-0.5547 397.4045,130.3573 476.4815,121.0083 C560.5825,128.6683 627.8905,27.1633 579.3495,-44.6057 C567.2555,-62.8517 538.1915,-76.6037 520.3335,-58.5057 Z" id="ðŸ–-Ink" fill="#000000"></path>
    </g>
</svg>