<?xml version="1.0" encoding="UTF-8"?>
<svg width="280px" height="230px" viewBox="0 0 280 230" version="1.1" xmlns="http://www.w3.org/2000/svg" xmlns:xlink="http://www.w3.org/1999/xlink">
    <!-- Generator: Sketch 62 (91390) - https://sketch.com -->
    <title>facial-hair/Moustache 3</title>
    <desc>Created with Sketch.</desc>
    <g id="facial-hair/Moustache-3" stroke="none" stroke-width="1" fill="none" fill-rule="evenodd">
        <path d="M350.9831,-16.9995 C348.8631,-20.1895 342.8531,-18.2495 344.4031,-14.2295 C361.2261,23.9425 353.4431,53.6325 306.1621,48.4395 C277.6581,46.5885 249.9761,21.3835 221.3491,33.9255 C213.9681,39.8545 209.1091,40.5895 201.3101,34.1735 C170.3641,20.6325 135.3241,44.7705 104.2331,48.0305 C55.5881,52.8135 29.1311,36.5395 53.7041,-13.3595 C55.2431,-16.7495 50.7731,-21.2195 48.0331,-17.7395 C14.1021,21.7435 12.3981,74.7565 67.0151,95.2105 C107.1001,108.5585 183.7591,119.6035 211.2731,79.3605 C228.8351,108.4205 266.3701,110.1595 296.5441,104.9595 C369.4001,98.2345 391.7241,41.6265 350.9831,-16.9995" id="ðŸ–-Ink" fill="#000000"></path>
    </g>
</svg>