<?xml version="1.0" encoding="UTF-8"?>
<svg width="280px" height="230px" viewBox="0 0 280 230" version="1.1" xmlns="http://www.w3.org/2000/svg" xmlns:xlink="http://www.w3.org/1999/xlink">
    <!-- Generator: Sketch 62 (91390) - https://sketch.com -->
    <title>facial-hair/Moustache 4</title>
    <desc>Created with Sketch.</desc>
    <g id="facial-hair/Moustache-4" stroke="none" stroke-width="1" fill="none" fill-rule="evenodd">
        <path d="M305.2686,13.0048 C301.9546,8.5558 295.9976,2.7168 289.9716,3.0308 C289.2006,3.0708 288.9116,3.9058 289.3746,4.4708 C291.3456,6.8778 294.0386,8.5898 296.0136,11.0468 C298.3506,13.9548 300.0376,17.4618 301.1346,21.0088 C302.7286,26.1618 303.1686,31.9938 301.7476,37.2338 C299.2436,46.4698 291.3266,53.2398 282.6886,56.6968 C274.1386,60.1188 263.8506,61.2878 255.7646,56.2738 C243.8296,48.8718 233.7066,38.2018 218.7056,37.9908 C215.1966,37.9418 212.7236,39.5488 211.2506,41.8428 C209.7706,39.6308 207.3286,38.0658 203.9076,38.0268 C187.0906,37.8378 174.5386,49.4148 160.4236,56.6318 C150.8846,61.5098 138.5416,59.9958 128.7006,56.7728 C119.4176,53.7338 109.3406,47.6308 105.8386,37.9938 C103.9056,32.6718 104.3386,26.4578 106.3236,21.2118 C107.6286,17.7618 109.6436,14.4288 112.1366,11.7178 C114.7216,8.9058 118.1196,7.1378 120.7676,4.4718 C121.3086,3.9268 120.8816,3.0798 120.1706,3.0308 C108.9246,2.2678 98.7696,15.6958 96.6466,25.4378 C94.5556,35.0318 97.6736,44.6008 103.9846,51.9218 C116.8176,66.8058 140.5796,71.7148 159.0736,67.3408 C174.0426,63.8018 188.2596,55.6498 203.9076,56.8198 C207.3376,57.0768 209.7996,55.6468 211.2856,53.4788 C212.7736,55.7098 215.2516,57.1688 218.7056,56.8348 C233.2896,55.4218 246.3066,65.7498 260.4626,68.2718 C271.7336,70.2788 283.9086,67.5718 293.5666,61.4998 C303.6616,55.1528 310.7676,44.9718 311.2356,32.8338 C311.5046,25.8508 309.4556,18.6258 305.2686,13.0048" id="ðŸ–-Ink" fill="#000000"></path>
    </g>
</svg>