<?xml version="1.0" encoding="UTF-8"?>
<svg width="280px" height="230px" viewBox="0 0 280 230" version="1.1" xmlns="http://www.w3.org/2000/svg" xmlns:xlink="http://www.w3.org/1999/xlink">
    <!-- Generator: Sketch 62 (91390) - https://sketch.com -->
    <title>facial-hair/Moustache 5</title>
    <desc>Created with Sketch.</desc>
    <g id="facial-hair/Moustache-5" stroke="none" stroke-width="1" fill="none" fill-rule="evenodd">
        <path d="M294.3921,32.7224 C293.0591,28.7404 286.2001,29.0874 286.6221,33.7744 C287.1051,39.1294 285.2721,45.1014 280.1421,47.7014 C274.7701,50.4234 268.7261,47.9764 265.4491,43.3064 C262.6001,39.2474 260.6351,34.8324 257.0501,31.2924 C253.7171,28.0004 249.6631,25.4614 245.2281,23.9544 C241.7741,22.7814 238.1911,22.4694 234.7161,22.8544 C226.0561,20.8974 216.0221,25.3484 210.6251,32.1004 C210.2771,32.5354 209.9541,32.9824 209.6421,33.4334 C209.1071,32.7054 208.5471,31.9844 207.9541,31.2734 C206.4251,29.4414 204.5271,29.0484 202.8131,29.5474 C193.0521,22.2884 179.3731,21.3264 168.2871,27.8774 C159.4051,33.1264 152.0581,40.8624 141.1361,41.4644 C132.4851,41.9414 123.0621,37.0054 122.4521,27.4984 C122.1321,22.5344 115.3681,18.3964 111.5731,22.9924 C103.5951,32.6564 101.9991,45.4934 106.4131,57.1784 C111.0711,69.5074 120.5611,78.1924 132.5771,83.3014 C145.5531,88.8184 160.7591,90.7344 174.7961,90.2974 C188.7901,89.8614 201.5141,84.4804 209.9491,73.0334 C210.9561,71.6674 211.8411,70.2794 212.6171,68.8754 C220.8071,79.3034 233.6451,83.6864 246.7211,84.0014 C260.4011,84.3294 276.5731,81.9284 286.2451,71.3044 C295.5661,61.0644 298.7831,45.8364 294.3921,32.7224" id="ðŸ–-Ink" fill="#000000"></path>
    </g>
</svg>