<?xml version="1.0" encoding="UTF-8"?>
<svg width="280px" height="230px" viewBox="0 0 280 230" version="1.1" xmlns="http://www.w3.org/2000/svg" xmlns:xlink="http://www.w3.org/1999/xlink">
    <!-- Generator: Sketch 62 (91390) - https://sketch.com -->
    <title>facial-hair/Moustache 6</title>
    <desc>Created with Sketch.</desc>
    <g id="facial-hair/Moustache-6" stroke="none" stroke-width="1" fill="none" fill-rule="evenodd">
        <path d="M258.5298,37.2406 C249.4788,33.0086 239.7508,30.4896 229.7568,29.5966 C225.4348,29.2096 216.9448,27.9886 212.3478,30.8076 C210.1978,32.1276 208.3808,33.9716 206.9398,36.2236 C206.3778,35.4466 205.6378,34.7846 205.1698,33.9446 C202.6528,29.4226 187.2048,29.3286 182.5408,29.7126 C171.4808,30.6226 160.7158,33.2196 150.5778,37.5856 C132.3768,45.4256 117.0868,61.7146 121.8948,82.3946 C122.5748,85.3236 125.8558,86.4626 128.5588,85.9566 C146.7778,82.5416 164.9968,79.1256 183.2168,75.7106 C187.4458,74.9186 191.6758,74.1256 195.9048,73.3326 C199.7298,72.6156 204.4178,72.3886 208.0478,70.7386 C209.5078,71.3626 211.1338,71.7586 212.8698,72.1026 C234.7908,76.4566 256.7398,80.6806 278.6748,84.9696 C281.3048,85.4846 284.7548,84.1506 285.2268,81.2366 C288.3748,61.7926 275.9918,45.4046 258.5298,37.2406" id="ðŸ–-Ink" fill="#000000"></path>
    </g>
</svg>