<?xml version="1.0" encoding="UTF-8"?>
<svg width="280px" height="230px" viewBox="0 0 280 230" version="1.1" xmlns="http://www.w3.org/2000/svg" xmlns:xlink="http://www.w3.org/1999/xlink">
    <!-- Generator: Sketch 62 (91390) - https://sketch.com -->
    <title>facial-hair/Moustache 7</title>
    <desc>Created with Sketch.</desc>
    <g id="facial-hair/Moustache-7" stroke="none" stroke-width="1" fill="none" fill-rule="evenodd">
        <path d="M258.6349,38.6644 C252.0409,37.4254 245.2239,37.7734 238.6739,36.3314 C232.2839,34.9234 227.2089,30.7364 221.0349,28.7874 C215.6019,27.0714 209.2339,28.2334 205.0029,31.5594 C201.0719,29.7424 196.6049,29.3494 192.1329,29.9494 C185.3509,30.8594 179.0229,33.7294 172.9819,36.8334 C172.2819,37.1934 171.5809,37.5364 170.8809,37.8834 C159.7189,37.6044 148.2759,37.6264 137.3229,40.0184 C127.6239,42.1374 118.4549,47.0694 112.6709,55.3074 C106.1979,64.5284 105.0289,76.2704 104.0309,87.1664 C103.3959,94.0824 113.0019,95.4854 116.2569,90.4774 C119.6319,85.2854 123.1449,80.0814 127.6419,75.7794 C132.7499,70.8924 138.9629,68.9684 145.9259,68.5224 C161.2939,67.5384 176.7639,68.3634 192.1469,67.6824 C201.0639,67.2874 210.9919,63.8584 214.5859,56.1064 C218.4219,62.1174 227.1139,65.6914 234.2629,66.2334 C241.8179,66.8074 249.4889,65.4344 256.9689,67.0084 C264.1149,68.5124 272.6089,73.8344 271.0199,82.3464 C270.0859,87.3464 276.4069,90.2944 279.3159,85.8444 C291.1949,67.6614 279.4899,42.5854 258.6349,38.6644" id="ðŸ–-Ink" fill="#000000"></path>
    </g>
</svg>