<?xml version="1.0" encoding="UTF-8"?>
<svg width="818px" height="733px" viewBox="0 0 818 733" version="1.1" xmlns="http://www.w3.org/2000/svg" xmlns:xlink="http://www.w3.org/1999/xlink">
    <!-- Generator: Sketch 62 (91390) - https://sketch.com -->
    <title>body/mono/Button Shirt 2</title>
    <desc>Created with Sketch.</desc>
    <g id="body/mono/Button-Shirt-2" stroke="none" stroke-width="1" fill="none" fill-rule="evenodd">
        <path d="M421.5194,740.902 C339.2424,740.902 257.4074,736.858 178.2004,728.881 L178.1654,728.724 L173.9594,728.216 C161.9904,726.724 149.7544,725.548 137.9214,724.411 C106.7064,721.411 74.4264,718.308 44.3184,709.095 L38.9994,707.467 L38.4784,708.8 C37.6954,708.394 36.8734,707.973 35.9994,707.569 C40.7364,630.206 48.6384,554.274 55.7744,489.987 L56.0674,487.355 L54.3204,485.366 C44.2314,473.877 40.5144,464.25 42.9704,455.953 C63.0894,413.96 67.3544,360.386 71.4794,308.569 C80.0304,201.173 88.1064,99.734 227.5874,95.343 L227.8104,95.333 L229.2814,95.231 C258.3684,93.238 288.4454,91.176 315.3134,77.803 L318.4444,76.246 L318.6304,72.754 C318.8564,68.54 324.0444,63.528 328.2124,59.502 C329.6474,58.116 331.0014,56.807 332.2194,55.496 L332.4744,55.221 L332.6934,54.918 C338.9814,46.18 346.3664,40.965 352.4484,40.965 C361.3064,40.965 365.5984,52.082 367.3684,58.709 L370.1594,69.156 L377.5464,61.258 C394.9044,42.705 403.2084,22.302 402.2764,0.544 L402.9064,0.348 L402.0984,-4.85 C400.5734,-13.871 401.5874,-20.563 405.1154,-24.737 C409.2454,-29.624 417.3444,-32 429.8754,-32 C438.1554,-32 447.1654,-30.956 455.1154,-30.035 C457.7144,-29.734 460.2194,-29.444 462.5854,-29.201 C478.4994,-27.525 494.7684,-24.509 510.5004,-21.593 L512.7084,-21.184 L511.2144,-17.115 L515.0364,-14.473 C520.1294,-10.952 523.9224,-3.889 525.4434,4.904 L525.5114,5.301 L525.6334,5.687 C527.8954,12.857 528.7534,20.864 529.6624,29.341 C531.1904,43.604 532.7694,58.351 541.3074,71.047 L546.4374,78.674 L551.3554,70.908 C553.7544,67.119 556.9714,65.276 561.1894,65.276 C572.5674,65.276 586.4634,77.858 588.9324,87.61 L589.7254,90.742 L592.7764,91.803 C613.7274,99.098 630.9904,104.422 646.2214,109.119 C684.4634,120.912 703.6584,126.832 715.9754,144.183 C728.6464,162.032 735.0584,193.186 745.7254,255.169 C757.3974,322.338 765.1964,391.377 772.7374,458.143 C782.2084,542.003 792.0004,628.686 809.5754,712.774 C808.3524,714.032 807.4254,715.284 806.7934,716.528 C799.0354,717.214 791.1454,717.835 783.4704,718.439 C770.6964,719.445 757.4874,720.485 744.5804,721.838 L741.7164,722.138 L741.0814,723.126 C739.9034,723.225 738.7424,723.341 737.6014,723.456 C735.7814,723.639 734.0264,723.815 732.3114,723.915 L731.7924,722.877 L727.6284,723.344 C623.9704,734.995 520.9804,740.902 421.5194,740.902" id="ðŸŽ¨-Background" fill="#FFFFFF"></path>
        <path d="M244.5425,325.727 C244.7785,325.314 245.5685,325.459 245.5045,325.988 C242.0675,348.806 233.7305,370.915 228.6565,393.443 L228.810628,393.872025 C231.399998,401.281094 237.35242,428.00734 222.7955,420.576 L221.631749,426.668528 C202.696433,526.201502 187.413,626.79666 189.5445,728.406 C189.8575,736.493 185.6245,760.45 174.1885,748.715 C165.7885,734.624 169.4875,717.347 168.8255,701.703 C170.2695,615.823 179.0165,529.279 201.4775,446.198 L202.405889,443.324936 C217.264096,397.646504 217.20802,412.2771 210.2265,361.273 C210.0575,356.567 206.6555,346.339 211.1345,343.513 C215.169789,346.060111 216.508062,353.538525 217.970559,357.970626 L218.0705,358.268 C220.2425,364.605 222.1795,370.996 224.0985,377.413 C230.4765,360.187 235.6025,341.831 244.5425,325.727 Z M481.9395,719.5341 C490.1875,717.0971 497.6135,726.4821 494.7325,734.1681 C492.8675,742.1841 477.2875,747.1571 476.6945,735.9811 C472.4335,731.4251 473.8165,723.0471 479.6365,720.5171 C479.5775,720.5061 481.4015,719.7721 481.9395,719.5341 Z M681.7642,264.914 C682.0712,263.854 682.9512,264.82 682.7142,265.494 C684.5542,274.817 683.0582,285.071 683.4802,294.756 C684.6582,291.982 686.1842,289.331 688.1672,286.847 C689.8862,284.696 693.0052,287.769 691.2172,289.896 C686.7772,295.179 684.8352,301.548 683.9892,308.167 C690.5042,446.377 709.6882,584.345 742.5982,718.765 C749.7312,737.304 720.9622,744.813 724.1192,724.626 C702.3472,630.347 684.9872,534.078 681.1052,437.161 C675.8682,394.632 677.9312,350.321 678.6492,307.238 C678.6782,293.202 680.0352,278.82 681.7642,264.914 Z M388.8029,-16.9995 C396.8869,-16.3585 401.5729,-2.9385 403.1849,4.4235 C409.0949,33.2795 393.2059,63.3115 372.2939,82.2355 C403.1709,110.0535 436.7009,134.8455 472.8869,155.3735 C477.8089,149.7985 486.5039,150.5995 492.5619,153.9615 C512.1549,135.4275 532.0039,117.2875 551.0789,98.2355 C521.42444,79.47797 518.947173,40.8577334 524.883457,9.43545901 L525.0659,8.4855 C525.5149,5.7885 529.2729,6.7675 529.4859,9.0845 L529.619207,10.5767878 C531.398995,31.0122358 531.55809,53.0750238 542.9229,70.9315 C555.8529,50.5105 586.8399,71.4085 591.3859,89.3705 C721.3419,134.6145 722.5579,107.9485 748.2769,257.3845 C774.2789,410.1555 781.6349,565.5485 812.0929,717.6225 C812.4689,721.9345 808.5529,725.4625 804.6539,726.0485 C789.7549,728.0315 789.2919,687.7725 785.8579,676.5295 C778.5269,634.5565 772.9909,592.2905 768.2189,549.9565 C753.5689,424.5575 748.5539,297.2545 720.1869,173.9045 C717.3339,163.5265 713.2709,153.2595 706.0889,145.0735 C676.1559,112.5015 624.2379,119.6225 591.7959,90.5945 C594.9379,100.2685 595.1909,110.9615 594.5729,121.0665 C591.0229,174.9195 588.8809,228.8745 585.0679,282.7085 C584.6259,288.7535 577.3079,290.7405 573.8819,285.7375 C546.7339,246.1145 518.8709,207.0905 492.4079,166.9875 C488.1439,169.0095 483.5949,169.9315 478.7119,168.9625 C470.9689,178.7385 474.3139,204.3105 471.7859,217.7185 L470.847898,227.976927 C456.390416,386.991078 445.778869,546.40193 446.56556,706.153118 L446.5949,711.3065 C446.5879,716.2075 446.9639,721.2895 446.5979,726.1755 C443.2919,742.0535 427.6609,736.3715 428.5379,722.2105 C427.8419,543.2185 435.2379,363.0625 464.7729,186.3045 C438.1099,219.9105 411.4779,253.5415 384.8029,287.1405 C382.807283,289.675394 379.013689,288.56069 377.430009,286.21425 L377.3299,286.0595 L377.9859,287.8195 C376.3819,287.3055 374.9809,286.3295 373.5269,285.4875 C360.1159,252.5575 351.4369,218.0185 340.9009,184.1375 C332.1069,150.9155 318.9229,118.3295 314.0649,84.2865 L313.8449,84.1945 L313.8449,84.1945 C300.6489,90.8285 286.0289,95.0865 271.2539,95.3395 C254.5449,99.6435 236.9709,101.6735 220.3029,103.8615 C99.1359,109.0455 75.1809,229.3515 76.2889,329.0715 L76.0785015,333.832786 C74.8122939,363.488002 74.2150356,393.659856 66.8629,422.5065 C64.1489,427.9485 55.5619,462.9555 46.9249,450.5205 C39.6429,460.2535 41.9229,465.9215 51.6279,471.9345 C68.5789,486.4865 85.1189,509.6555 88.3809,533.5325 C88.9879,537.9395 82.6619,541.8115 80.4129,536.8925 L79.2902528,534.445477 C72.722217,520.187692 65.7779,506.242608 56.3979,493.8545 C55.9829,494.5485 55.4179,495.1325 54.7419,495.5225 C52.4879,554.6075 47.9239,613.5855 43.8429,672.5665 C41.61144,681.01912 45.8172768,734.673952 28.7147105,721.417798 L28.1899,720.9955 C24.2836037,712.725537 26.6339792,702.727403 27.4324154,693.898009 L29.8359,665.6215 L29.8359,665.6215 C35.0269,607.9045 39.2769,550.0735 46.4489,492.5585 L45.8858096,491.911686 C37.6375341,482.354965 29.9312111,469.7357 33.9929,456.9845 C36.0749,449.3165 42.9779,445.4985 47.6479,439.6395 C72.9849,306.0005 29.2119,99.0775 224.0359,92.5795 L232.191708,92.0150505 C258.454321,90.1521042 285.501112,87.4981353 309.2769,75.6655 C309.7239,67.3215 319.2549,60.2515 324.4599,54.6455 C340.4939,32.3675 362.0179,31.2505 369.8009,60.3935 C390.4979,38.1385 398.8579,12.2975 388.8029,-16.9995 Z M476.0284,630.4856 C486.1174,620.7606 499.6344,638.4756 481.3404,650.9896 C478.0214,657.0726 468.9494,652.7826 470.4924,646.4156 L470.473249,645.343881 C470.338594,639.802603 469.792323,632.961262 476.0284,630.4856 Z M477.1028,500.701 C495.5228,494.766 490.9328,528.313 478.7808,532.89 C471.4378,536.537 468.9208,527.409 470.2618,521.839 C465.4918,514.592 469.8608,505.056 477.1028,500.701 Z M476.8058,404.2999 C473.4078,389.9259 494.0378,387.5329 494.1568,402.5469 C494.8228,408.8599 489.0648,412.9679 487.6098,418.4569 C487.3028,422.0289 482.9198,424.5449 480.1148,421.5619 C475.4348,416.5819 474.4288,409.8249 476.8058,404.2999 Z M474.2153,276.5779 C476.3173,259.751898 495.3613,266.8449 488.6363,269.6479 C488.5003,269.7939 488.3593,269.9369 488.2103,270.0819 C495.9013,270.8289 495.3623,279.8609 494.5063,285.6389 C491.4883,298.5739 471.9373,286.8059 474.2153,276.5779 Z M357.0989,223.0575 C358.6639,228.7175 360.2399,234.3745 361.8529,240.0205 C366.0079,254.5675 370.9449,268.7275 376.1509,282.8645 C369.7809,262.9345 363.4329,242.9975 357.0989,223.0575 Z M367.6249,62.8415 C349.3919,32.2245 339.5529,66.7415 326.3299,80.3085 C335.6719,147.0965 363.9429,209.4855 383.1849,273.8685 C409.9939,239.6015 436.8319,205.3575 463.6479,171.0965 C465.2519,169.0425 466.7969,166.8895 468.3979,164.7825 C434.7349,145.3295 402.9949,122.3305 376.2769,93.7965 C371.1379,94.8955 367.1969,88.0255 363.5079,85.1665 L363.120822,84.8482 C359.708644,81.9730458 356.545955,77.4367364 358.6939,72.9645 C358.4089,72.3585 358.8419,71.8005 359.4309,71.6165 C362.0989,68.6875 364.9289,65.8635 367.6249,62.8415 Z M580.2789,126.9975 C582.0589,105.1455 578.4549,73.8175 549.0699,78.8025 C554.3029,85.9705 564.1419,87.1285 569.3239,94.0105 C571.2209,97.1615 568.8929,101.0645 565.4449,101.6625 C542.6369,122.3185 521.0749,143.4775 497.7879,163.8145 C523.6649,197.3165 548.5079,231.4535 573.6729,265.4725 C575.4109,219.2945 578.4669,173.1645 580.2789,126.9975 Z" id="ðŸ–-Ink" fill="#000000"></path>
    </g>
</svg>