<?xml version="1.0" encoding="UTF-8"?>
<svg width="818px" height="733px" viewBox="0 0 818 733" version="1.1" xmlns="http://www.w3.org/2000/svg" xmlns:xlink="http://www.w3.org/1999/xlink">
    <!-- Generator: Sketch 62 (91390) - https://sketch.com -->
    <title>body/mono/Dress</title>
    <desc>Created with Sketch.</desc>
    <g id="body/mono/Dress" stroke="none" stroke-width="1" fill="none" fill-rule="evenodd">
        <path d="M765.5669,645.4867 C763.1409,622.9557 761.6459,600.2667 760.7879,577.6217 C759.9309,555.0037 761.0519,532.1077 761.5439,509.4807 C762.5469,463.4517 764.1769,417.3137 760.5119,371.3547 C757.0489,327.9197 749.0979,284.7877 736.5509,243.0537 C730.4409,222.7287 724.0019,201.5857 713.9529,182.8057 C703.8479,163.9237 687.8419,151.3497 670.2599,139.8187 C651.5409,127.5417 632.9719,115.0327 614.3259,102.6417 C598.6739,92.2407 570.506995,80.1351518 557.664995,66.2301518 C544.151995,51.5991518 541.611838,15.332 532.612838,-2 C523.848838,-18.882 499.040835,-29.8945415 479.939402,-29.8945415 C448.321901,-29.8945415 424.3659,-31.5103 398.3679,-2.2633 C385.3969,12.3297 395.71729,27.0819603 382.12129,41.0879603 C369.62129,53.9649603 337.6539,67.1987 321.5429,74.6707 C302.2469,83.6197 282.4639,91.5207 262.3939,98.5587 C241.9209,105.7387 220.9319,111.0897 200.3439,117.8657 C180.6099,124.3607 154.841633,151.131658 139.521633,165.296658 C125.278633,178.466658 121.7439,176.9917 110.9159,192.9907 C87.1519,228.1017 63.3619,263.6157 44.4379,301.6307 C35.0119,320.5667 25.8849,340.4857 22.4649,361.5157 C18.8169,383.9457 22.4339,405.6217 28.3499,427.3387 C34.3719,449.4397 53.4948863,470.482 59.7248863,492.527 C62.5958863,502.686 52.7409,513.7727 57.2739,523.3467 C59.5379,528.1277 62.3889,532.3847 65.6349,536.5507 C68.1359,539.7607 77.8892445,539.049343 79.1512445,542.978343 C80.4262445,546.946343 73.3699,555.1807 73.2649,559.2877 C73.1159,565.1647 72.8819,571.0417 72.6889,576.9187 L71.5489,611.6637 C70.7999,634.4957 70.0509,657.3287 69.3019,680.1607 C69.0569,687.6137 68.6999,694.8957 70.4869,701.9677 C69.8419,701.3697 69.2289,700.7187 68.6689,699.9877 C67.0299,697.8477 63.5539,699.6617 64.9449,702.1647 C67.2669,706.3417 70.6059,709.2817 74.5289,711.3937 C79.0879,718.1147 769.5119,733.1267 772.9089,713.4767 C774.8149,702.4517 771.3459,690.6487 769.9589,679.6947 C768.5149,668.2857 766.7989,656.9257 765.5669,645.4867 Z" id="ðŸŽ¨-Background" fill="#FFFFFF"></path>
        <path d="M64.2283,361.555 C65.9173,356.717 73.6433,358.810518 71.9423,363.681 C63.1983,388.727 69.4013,415.982 78.8543,439.891 C80.7513,444.688 73.0113,446.749 71.1403,442.017 C61.1963,416.867 55.0443,387.858 64.2283,361.555 M122.8573,504.617 C147.5173,508.086 172.1973,510.226 197.0273,511.956 C198.1373,512.036 199.0973,511.867 199.9273,511.506 C199.1873,522.876 198.5873,534.256 198.1173,545.636 C191.3473,545.447 184.4373,545.896 177.7273,545.716 C168.9573,545.476 160.1973,545.036 151.4473,544.367 C134.5073,543.086 117.5973,541.046 100.8473,538.226 C94.5873,537.176 86.6373,536.536 79.5073,534.456 C72.7673,532.487 66.7673,529.226 63.6173,523.086 C60.9373,517.886 60.4473,511.517 60.4473,505.767 C60.4473,501.806 61.1273,497.786 61.5373,493.796 C62.0473,493.437 62.5073,493.006 62.8773,492.527 C70.3173,494.876 78.0373,496.527 85.5973,498.126 C97.9073,500.746 110.3973,502.867 122.8573,504.617 M108.9493,412.154 C109.0853,419.797 111.2003,426.74 115.3153,433.175 C118.0993,437.53 111.1723,441.537 108.4073,437.213 C103.5633,429.636 101.1093,421.131 100.9493,412.154 C100.8573,406.995 108.8573,407.012 108.9493,412.154 M741.0773,495.536 C744.4163,495.723 747.7763,495.837 751.1253,496.015 C754.0793,498.541 758.1693,499.836 761.9043,499.032 C762.0333,499.355 762.1503,499.718 762.2573,500.136 C762.9173,502.706 763.2473,505.466 763.6273,508.086 C764.0073,510.666 764.2973,513.267 764.4973,515.867 C764.5973,517.176 765.2273,520.136 764.4273,521.277 C763.7073,522.306 762.1173,522.216 761.0173,522.346 C758.0573,522.666 755.0573,522.817 752.0773,523.067 C746.4473,523.556 740.8173,524.046 735.1973,524.536 C729.6873,525.017 723.6373,524.867 718.2473,526.317 C717.3273,515.506 716.4873,504.697 715.7073,493.876 C724.0573,495.107 732.7873,495.076 741.0773,495.536 M40.9573,477.607 C44.3173,484.096 47.4173,490.476 53.8473,494.376 C54.6873,494.876 55.6273,495.146 56.5873,495.216 C55.8673,498.306 55.4173,501.466 55.0173,504.386 C54.1373,510.817 53.9473,517.466 55.5573,523.806 C57.1273,529.976 59.7273,535.487 64.8273,539.437 C67.1973,541.277 69.7873,542.676 72.5073,543.786 C72.0473,545.076 71.7773,546.357 71.9173,547.767 C71.2673,551.036 70.8373,554.367 70.3673,557.556 C69.3373,564.636 68.3073,571.726 67.4973,578.846 C65.8773,593.006 64.6073,607.166 63.5373,621.376 C62.4673,635.546 61.6973,649.737 61.0573,663.937 C60.7273,671.197 60.4373,678.456 60.1673,685.726 C59.8973,693.197 58.6873,700.836 61.9873,707.767 C64.6473,713.367 73.6373,713.046 76.3973,707.767 C79.8973,701.056 78.8673,693.086 78.9573,685.726 C79.0473,678.796 79.1673,671.857 79.3173,664.926 C79.6173,650.737 80.0573,636.556 80.4073,622.367 C80.7473,608.517 81.1673,594.676 81.4473,580.826 C81.5873,573.576 81.5973,566.326 81.6373,559.076 C81.6573,555.056 81.8273,550.767 81.5273,546.576 C84.0273,547.166 86.5473,547.666 89.0373,548.176 C108.0473,552.076 127.2573,554.916 146.5873,556.676 C156.2973,557.556 166.0373,558.176 175.7773,558.527 C182.9373,558.786 190.3573,559.286 197.6273,559.017 C197.0573,576.376 196.7973,593.746 196.8273,611.117 C196.8473,623.646 197.0173,636.176 197.3273,648.706 C197.4973,655.296 197.6373,661.886 197.8373,668.476 C197.9273,671.437 197.9273,674.426 198.1273,677.376 C198.1873,678.296 198.3173,679.187 198.4873,680.067 C197.8273,681.937 197.2773,683.786 196.8273,685.517 C194.6273,693.916 194.6273,701.987 195.6073,710.546 C196.4473,717.806 202.5573,724.536 210.6273,721.987 C211.9373,721.576 213.2473,721.146 214.5473,720.706 C226.4273,722.056 238.3773,722.367 250.4273,722.596 C268.0373,722.937 285.6573,723.046 303.2773,723.136 C337.8373,723.317 372.4073,723.407 406.9773,723.506 C476.4473,723.706 545.9173,723.896 615.3873,724.096 C634.6673,724.157 653.9473,724.206 673.2273,724.267 C683.2073,724.296 693.1673,724.306 703.1373,724.687 C707.7873,724.867 712.4473,725.117 717.0973,725.187 C722.4873,725.277 727.2573,723.726 732.4073,722.317 C735.3173,721.506 736.4673,718.586 735.8473,716.117 C740.5073,717.226 746.1573,714.867 747.7473,709.617 C748.9073,705.806 748.4773,701.676 746.7473,698.146 L746.7473,698.136 C743.4073,677.046 739.1673,656.056 735.8373,634.956 C732.1873,611.846 728.6773,588.687 725.5873,565.487 C723.2673,547.966 721.3573,560.386 719.7073,542.786 C726.8973,543.346 735.0273,541.157 742.1473,540.226 C747.2573,539.567 752.4073,539.036 757.5273,538.336 C757.1473,543.496 757.2573,548.756 757.1173,553.706 C756.8473,563.536 756.9673,573.326 757.2173,583.157 C757.6973,602.126 758.7673,591.086 760.4773,609.976 C762.2073,629.006 764.3273,647.966 766.8973,666.907 C768.2173,676.657 769.6273,686.396 771.1173,696.126 C771.8073,700.666 772.5173,705.197 773.2473,709.737 C774.1173,715.086 774.3973,720.157 778.4073,724.176 C781.4573,727.226 787.6873,726.966 789.7073,722.716 C792.2673,717.346 791.1073,712.746 790.1573,707.107 C789.3873,702.576 788.6473,698.046 787.9173,693.517 C786.3573,683.806 784.8773,674.086 783.4873,664.357 C780.8073,645.607 778.2773,626.826 776.0173,608.027 C773.7373,589.076 771.3773,600.146 769.1373,581.197 C768.0073,571.636 766.8773,562.096 765.5573,552.567 C764.8873,547.666 764.4673,542.447 763.5873,537.396 C763.8673,537.357 764.1473,537.306 764.4273,537.256 C770.5073,536.146 775.6973,532.716 777.2273,526.456 C778.6873,520.466 776.9473,513.576 775.7173,507.697 C774.6673,502.689 773.7183,496.296 770.4943,492.005 C781.8543,477.535 789.2433,459.327 793.9563,441.822 C799.0903,422.751 801.2393,402.844 801.6943,383.136 C802.2223,360.304 800.5013,337.604 796.5883,315.28 C796.4963,310.549 796.2783,305.82 795.9273,301.096 C792.4873,254.737 778.0473,199.867 732.2673,178.206 C732.0873,178.117 731.8973,178.036 731.7073,177.956 C728.1173,173.666 723.6373,169.806 720.0173,166.197 C713.6073,159.796 706.9073,153.676 699.8073,148.036 C685.7473,136.867 670.3273,127.947 654.2973,119.916 C638.0873,111.786 621.6373,104.157 605.7973,95.286 C591.9973,87.546 579.5773,78.226 567.7873,67.706 C554.5373,55.876 545.1073,39.926 541.4073,22.516 C541.2173,21.607 539.8673,21.857 539.8473,22.726 C538.8773,54.636 560.4173,82.836 585.2073,100.676 C614.8473,121.987 650.6373,132.076 680.6973,152.737 C688.1673,157.867 695.1573,163.657 701.8073,169.806 C691.6173,168.766 681.2473,169.426 671.6973,172.246 C667.9373,172.016 664.1573,171.947 660.3873,171.766 C651.7673,171.336 643.1373,170.937 634.5073,170.556 C616.9173,169.777 599.3173,169.067 581.7173,168.447 C547.1873,167.226 512.6473,166.306 478.1073,165.697 C408.6973,164.466 339.1973,164.226 269.7973,166.237 C250.9773,166.777 152.0173,163.027 142.8573,164.086 C156.3273,152.426 171.1073,142.907 187.3573,135.076 C207.6873,125.306 228.6973,118.786 250.4073,112.826 C295.1173,100.556 341.5473,88.726 377.3273,57.556 C386.2173,49.806 394.1173,40.897 400.5873,31.027 C406.7673,21.607 413.6373,9.546 413.8073,-1.944 C413.9273,-10.103 402.5673,-13.074 398.5273,-6.084 C396.0173,-1.754 394.7773,2.996 392.7273,7.536 C390.6873,12.036 388.2673,16.376 385.5773,20.527 C380.2873,28.687 373.7273,35.966 366.5873,42.536 C351.3673,56.556 332.9273,66.826 313.8473,74.596 C270.5273,92.226 223.1473,99.666 182.0973,122.907 C164.1373,133.076 146.9473,147.107 136.1573,165.006 C134.4173,165.277 132.6873,165.596 130.9573,165.956 C132.2473,164.326 133.5473,162.697 134.8573,161.076 C135.7173,160.016 134.3873,158.617 133.3373,159.556 C112.9273,177.716 94.1273,197.326 77.0873,218.706 C60.7873,239.166 45.5873,260.607 34.8273,284.567 C15.4873,327.607 11.2273,376.836 21.2173,422.857 C23.9373,435.396 27.7773,447.676 32.6673,459.546 C35.1873,465.676 37.9173,471.716 40.9573,477.607" id="ðŸ–-Ink" fill="#000000"></path>
    </g>
</svg>