<?xml version="1.0" encoding="UTF-8"?>
<svg width="818px" height="733px" viewBox="0 0 818 733" version="1.1" xmlns="http://www.w3.org/2000/svg" xmlns:xlink="http://www.w3.org/1999/xlink">
    <!-- Generator: Sketch 62 (91390) - https://sketch.com -->
    <title>body/mono/Explaining</title>
    <desc>Created with Sketch.</desc>
    <g id="body/mono/Explaining" stroke="none" stroke-width="1" fill="none" fill-rule="evenodd">
        <path d="M749.7037,400.924118 C743.0177,380.379029 750.981151,356.649348 745.776151,334.5014 C743.992419,325.741171 740.602,293.194268 737.197472,274.162756 C735.293075,263.517066 746.686175,260.211761 748.4367,255.962578 C760.7587,217.792147 670.8717,127.995412 665.3847,124.686908 C657.1627,119.935322 649.887302,115.845004 641.853302,110.990632 C618.417302,102.758552 590.314099,79.8566384 569.0677,94.566391 C532.2557,39.7679531 546.818928,-27.7466875 526.8437,-35.77097 C506.868472,-43.7952525 447.8807,-60.0133202 414.1567,-39.3033657 C393.9427,-24.3474201 395.4327,1.39907321 386.2097,22.6321195 C380.795919,32.6271543 378.136187,47.106344 371.834,53.6251795 C350.420844,75.7744513 323.718179,79.5935139 293.866009,83.3528118 C291.592259,83.6391462 289.200229,77.4552354 286.99089,78.2188482 C236.634842,95.6233796 178.040791,100.701668 121.0127,198.155853 C112.9587,212.093093 91.2317,234.454756 98.4967,250.560689 C50.6287,361.870334 3.52832792,612.405821 134.873328,674.88577 C139.071754,677.571034 167.553848,663.17099 172.1947,663.304448 C179.930778,663.526915 165.107995,682.310154 172.1947,678.963653 C224.223538,682.911266 510.510835,672.726787 620.2487,682.911266 C695.712,682.346449 743.508641,695.5773 760.9337,682.346449 C753.9677,665.512868 754.2907,647.481469 756.4927,629.684138 C772.5297,617.750727 752.7047,533.647958 754.3827,509.020921 C769.3947,491.025141 757.4417,423.532061 749.7037,400.924118 Z" id="ðŸŽ¨-Background" fill="#FFFFFF"></path>
        <path d="M725.779,277.7344 C718.58,288.2044 711.966,298.9834 705.987,310.1954 C702.904,315.9784 700.028,321.8764 697.439,327.8944 C696.901,314.8824 696.783,301.7164 695.262,288.8324 C695.153,287.9024 693.602,287.4504 693.439,288.5844 C691.759,300.2674 691.482,312.2524 690.847,324.0604 C690.116,323.8364 689.308,323.7074 688.418,323.7074 C679.778,323.7074 671.268,324.4154 662.659,325.1134 C658.801,325.4254 654.765,325.6644 650.83,326.2794 C653.997,322.7814 656.947,319.0864 659.67,315.2324 C662.447,311.3014 665.621,305.1584 660.782,301.3824 C655.437,297.2114 644.955,302.6664 639.784,304.7874 C637.167,305.8614 634.6,307.0304 632.073,308.2734 C628.882,299.3334 619.101,298.1484 610.716,299.3824 C604.738,300.2634 598.935,302.3084 593.109,303.8654 C585.712,305.8414 578.284,307.7014 570.829,309.4474 C557.404,312.5894 543.887,315.3364 530.306,317.7164 C529.947,317.2994 529.449,316.9704 528.784,316.8044 C524.134,315.6424 519.003,316.5324 514.233,316.6204 C509.329,316.7114 504.424,316.7044 499.52,316.6034 C490.759,316.4244 482.007,316.3514 473.248,316.1994 C470.758,314.6904 467.601,312.5244 466.828,309.6834 C465.863,306.1384 468.877,302.2114 470.276,299.1934 C475.649,287.6054 477.528,274.6374 475.42,262.0174 C475.044,259.7674 474.27,257.3074 473.152,255.0024 C482.749,256.0294 492.221,256.7264 501.87,257.0414 C521.137,257.6684 540.403,258.3254 559.679,258.4684 C598.22,258.7554 636.762,258.7574 675.303,258.4754 C697.095,258.3164 718.837,258.1164 740.602,257.0034 C738.828,259.2514 737.103,261.5484 735.419,263.8804 C735.071,263.7764 734.616,263.9634 734.669,264.3954 C734.686,264.5464 734.704,264.6964 734.722,264.8464 C731.649,269.1384 728.691,273.4984 725.779,277.7344 M682.924,676.2014 C673.967,675.9164 665.012,675.6304 656.056,675.3454 C638.476,674.7864 620.896,674.2264 603.317,673.6674 C568.49,672.5584 533.664,671.4894 498.832,670.5284 C464.084,669.5704 429.319,668.5564 394.561,669.6404 C359.724,670.7274 324.976,673.5384 290.204,675.7954 C270.873,677.0484 251.528,678.1344 232.161,678.6544 C213.716,679.1484 195.108,678.4004 176.692,679.7164 C176.073,675.1634 176.528,670.6234 176.461,666.0884 C182.502,662.5994 188.431,658.8904 194.291,655.2464 C215.655,641.9584 235.849,626.9254 254.897,610.4924 C257.825,607.9664 260.696,605.3864 263.538,602.7794 C261.56,607.1014 263.143,612.6734 268.812,614.5034 C275.725,616.7334 282.803,615.9414 289.983,615.7724 C297.274,615.6014 304.565,615.4384 311.857,615.2844 C326.108,614.9824 340.36,614.7114 354.612,614.4724 C382.454,614.0064 410.297,613.6614 438.141,613.4354 C494.161,612.9834 550.142,613.7464 606.153,614.7564 C621.903,615.0414 637.637,615.3944 653.387,615.0374 C661.267,614.8594 669.179,614.8024 677.05,614.3784 C683.356,614.0374 689.7,613.1454 696.005,612.3434 C696.8,623.3244 697.631,634.3024 698.557,645.2734 C699.17,652.5174 699.8,659.7614 700.422,667.0054 C700.677,669.9924 700.696,673.0434 701.117,675.8824 C695.064,676.2144 689.048,676.3954 682.924,676.2014 M689.083,366.1244 C688.863,374.5294 688.746,382.9404 688.686,391.3524 C687.959,390.9354 687.14,390.6314 686.217,390.4914 C676.422,388.9964 665.941,390.1304 656.031,390.2974 C646.452,390.4574 636.84,390.4034 627.27,390.8554 C617.681,391.3084 608.096,391.8494 598.509,392.3454 C594.011,392.5804 589.562,392.7814 585.099,393.3904 C582.041,393.8074 578.13,393.7774 574.863,394.6474 C588.568,381.3744 602.199,368.0234 615.867,354.7134 C616.276,354.3134 616.572,353.8914 616.779,353.4614 C625.893,347.9084 634.641,341.6584 642.563,334.5014 C648.846,336.9234 655.998,337.2294 662.659,337.7694 C671.27,338.4684 679.775,339.1754 688.418,339.1754 C689.002,339.1754 689.549,339.1184 690.064,339.0174 C689.641,348.0484 689.32,357.0794 689.083,366.1244 M333.236,529.4104 C354.159,536.0924 376.828,536.0174 398.595,537.3554 C421.8,538.7824 444.97,539.9684 468.202,540.8734 C514.601,542.6754 560.97,545.1254 607.362,547.0744 C633.861,548.1874 660.354,549.4144 686.842,550.7484 C688.721,550.8424 690.513,550.3604 692.094,549.4784 C692.983,566.9214 694.025,584.3574 695.238,601.7824 C695.389,603.9614 695.557,606.1384 695.712,608.3184 C683.245,606.7544 670.873,605.2574 658.313,604.1974 C644.209,603.0054 630.112,602.0014 615.988,601.0644 C588.465,599.2404 560.898,596.7964 533.325,595.9064 C477.117,594.0894 420.785,594.7074 364.556,595.1074 C348.646,595.2204 332.737,595.3744 316.828,595.5664 C308.874,595.6634 300.92,595.7694 292.966,595.8844 C284.972,596.0024 276.381,595.1704 268.812,597.9604 C268.74,597.9864 268.679,598.0254 268.608,598.0524 C291.443,576.4164 311.9,552.5054 333.236,529.4104 M406.788,460.2394 C441.755,466.6054 477.27,466.1694 512.714,466.7994 C548.981,467.4454 585.297,467.0174 621.57,467.0924 C642.175,467.1354 662.957,468.0404 683.488,466.2074 C685.914,465.9904 687.794,465.0704 689.135,463.7654 C689.509,485.6014 690.194,507.4294 691.139,529.2474 C689.807,528.6814 688.353,528.3374 686.842,528.2484 C640.492,525.5214 594.139,523.0474 547.732,521.5364 C501.362,520.0254 454.935,518.2334 408.54,518.7944 C385.899,519.0684 361.957,517.6204 339.627,522.5544 C348.113,513.5374 356.781,504.6874 365.848,496.2134 C379.067,483.8604 393.173,472.2894 406.788,460.2394 M433.503,434.5354 C433.55,434.4824 433.573,434.4234 433.608,434.3684 C433.734,434.4614 433.888,434.5254 434.09,434.5214 C466.822,433.7834 503.543,444.1094 534.157,428.2614 C547.824,421.1874 559.142,410.0064 570.129,399.2594 C570.135,399.3384 570.142,399.4184 570.148,399.4984 C570.22,400.3704 570.589,401.4204 571.473,401.8064 C575.084,403.3904 579.313,403.4944 583.19,404.0584 C587.649,404.7084 592.028,405.0884 596.526,405.3584 C606.443,405.9534 616.359,406.5834 626.279,407.1444 C636.177,407.7044 646.12,407.7504 656.031,407.9974 C665.969,408.2444 676.38,409.4474 686.217,408.0294 C687.12,407.8994 687.923,407.6154 688.636,407.2224 C688.651,419.9474 688.767,432.6714 688.886,445.3884 C688.906,447.4614 688.946,449.5334 688.97,451.6044 C687.642,450.3884 685.817,449.5374 683.488,449.3324 C665.247,447.7264 646.865,448.4404 628.56,448.5024 C610.585,448.5614 592.608,448.6214 574.632,448.6814 C538.335,448.8024 502.067,449.1564 465.776,449.8474 C448.128,450.1834 430.557,451.6684 413.167,454.5234 C420.208,448.1094 427.053,441.5064 433.503,434.5354 M149.099,665.9004 C142.398,667.9494 135.746,667.0604 129.032,668.4644 C128.619,668.5504 128.238,668.7104 127.889,668.9214 C107.783,660.3314 94.381,643.0934 85.209,623.7774 C75.541,603.4164 68.877,581.6504 64.413,559.5864 C55.209,514.0994 55.193,466.9354 59.957,420.9174 C64.638,375.7074 73.906,330.7424 87.132,287.2634 C96.213,257.4094 107.786,227.2484 123.855,200.0274 C142.41,212.4594 156.8,230.3594 170.356,247.8554 C186.555,268.7644 201.153,290.8904 214.22,313.8804 C212.869,317.8184 212.659,322.7584 212.011,326.2784 C210.762,333.0664 209.634,339.9394 208.747,346.7854 C206.852,361.4184 205.034,376.0594 203.097,390.6864 C199.266,419.6104 194.692,448.4554 189.639,477.1894 C189.23,479.5194 189.884,481.4874 191.087,482.9644 C181.065,488.2464 171.174,493.7634 161.537,499.7434 C140.35,512.8904 120.549,528.2054 105.003,547.8474 C104.599,548.3574 105.232,549.0394 105.732,548.5774 C139.07,517.7734 180.488,498.4334 221.153,479.3204 C241.934,469.5524 262.613,459.6274 282.551,448.2074 C303.401,436.2674 323.285,422.7734 342.343,408.1494 C364.105,391.4514 384.59,373.1954 403.793,353.6094 C406.055,351.3004 405.507,348.4104 403.805,346.5844 C404.38,346.4064 404.844,345.9064 404.874,345.0724 C405.335,332.2814 409.176,321.3844 416.696,311.0324 C423.672,301.4274 432.563,293.5124 440.583,284.8224 C444.147,280.9604 447.553,276.9374 450.594,272.6454 C453.725,268.2284 455.632,263.3524 458.357,258.7374 C461.54,253.3444 464.248,256.0994 465.723,260.9814 C467.396,266.5154 467.292,272.9944 466.62,278.6834 C465.909,284.7034 464.076,290.5724 461.436,296.0134 C458.956,301.1244 456.097,306.3234 457.766,312.1814 C460.509,321.8084 472.269,327.3834 481.178,329.5514 C491.098,331.9654 501.475,331.4964 511.52,330.2444 C524.1,328.6754 536.62,326.3794 549.055,323.9374 C563.456,321.1104 577.772,317.8474 591.976,314.1604 C598.653,312.4274 605.283,310.1484 612.025,308.7134 C614.429,308.2024 618.878,307.4344 621.703,308.6874 C585.388,330.3354 545.797,344.7574 505.586,357.3244 C500.59,358.8844 502.639,366.4294 507.752,365.1794 C550.951,354.6174 591.593,335.0144 630.272,313.5444 C630.864,313.2144 631.366,312.7054 631.735,312.1034 C635.626,310.7344 639.582,309.5454 643.616,308.5644 C645.419,308.1264 654.693,305.0664 655.852,306.2424 C657.495,307.9074 651.81,313.3144 650.39,314.8864 C640.282,326.0834 628.259,335.2224 615.245,342.7774 C602.044,350.4394 587.998,356.5484 573.886,362.3134 C558.078,368.7714 541.369,373.8474 526.003,381.2704 C519.899,384.2194 524.182,394.2364 530.613,392.2054 C538.901,389.5864 546.954,385.7374 555.008,382.4674 C561.85,379.6914 568.693,376.9164 575.496,374.0454 C580.239,372.0434 584.95,369.9744 589.615,367.8124 C582.627,374.3884 575.638,380.9644 568.651,387.5434 C556.551,398.9354 545.054,411.9124 530.262,419.9024 C515.648,427.7964 498.976,428.7144 482.709,428.5444 C474.542,428.4584 466.411,428.1994 458.244,428.5284 C449.649,428.8744 442.016,430.1954 433.871,432.9004 C433.721,432.9504 433.612,433.0404 433.52,433.1424 C433.235,432.7954 432.752,432.6214 432.253,432.9164 C410.12,446.0024 389.945,462.9784 370.542,479.7564 C350.544,497.0494 331.727,515.4384 313.798,534.8634 C296.637,553.4544 279.613,572.1174 260.939,589.2234 C242.706,605.9254 223.221,621.0914 202.875,635.1274 C191.789,642.7754 180.429,650.1404 168.675,656.7244 C162.394,660.2424 156.015,663.7864 149.099,665.9004 M150.96,162.5024 C158.886,153.5994 167.417,145.3474 176.444,137.7134 C180.427,138.8924 184.608,139.2224 188.821,139.2654 C195.25,139.3294 201.693,139.5974 208.122,139.5314 C220.501,139.4044 232.875,139.0134 245.257,138.9464 C270.574,138.8084 295.899,138.8014 321.216,139.0214 C324.533,139.0504 326.926,137.6324 328.403,135.5724 C333.528,141.3824 338.81,147.0584 344.136,152.6444 C352.789,161.7204 362.014,170.3794 371.834,178.2704 C369.922,178.2834 368.011,178.3004 366.11,178.2874 C357.353,178.2284 348.595,178.1734 339.839,178.1264 C322.266,178.0294 304.693,177.9574 287.12,177.9104 C252.184,177.8184 217.139,178.1094 182.248,179.8984 C172.564,180.3944 162.804,180.5954 153.154,181.5394 C147.92,182.0514 142.692,182.6484 137.463,183.2054 C136.393,183.3194 135.367,183.4624 134.36,183.6234 C139.481,176.2654 144.997,169.1994 150.96,162.5024 M290.883,83.1454 C290.647,83.3054 290.392,83.4484 290.166,83.6194 C289.652,84.0054 289.733,84.7034 290.339,84.9374 C291.145,85.2524 291.992,85.4904 292.864,85.6784 C295.512,89.5194 297.581,94.2674 299.026,96.6734 C303.177,103.5874 307.95,110.1734 312.806,116.6034 C313.782,117.8944 314.777,119.1714 315.776,120.4454 C292.261,120.3894 268.758,120.5094 245.257,121.3984 C232.884,121.8674 220.469,122.2604 208.122,123.1884 C203.045,123.5704 197.971,124.2114 192.91,124.8454 C219.25,105.8054 248.872,91.2664 279.559,80.4724 C279.517,80.5194 279.474,80.5544 279.432,80.6014 C278.756,81.3514 279.765,82.3234 280.526,81.6954 C284.518,78.3944 287.983,79.9434 290.883,83.1454 M409.699,306.9424 C409.031,307.9554 408.374,309.0004 407.733,310.0724 C406.191,308.5344 404.037,307.5064 401.262,307.4204 C370.457,306.4594 339.667,305.6194 308.845,305.5984 C293.645,305.5884 278.307,305.0764 263.126,305.8284 C255.503,306.2064 247.883,306.6564 240.264,307.0884 C234.937,307.3904 229.278,307.7664 224.076,309.3084 C212.087,288.3384 198.778,268.1774 184.244,248.9004 C217.22,252.9454 250.761,252.5144 283.924,253.6374 C321.497,254.9104 359.091,255.1844 396.677,256.0744 C406.987,256.3184 417.297,256.5864 427.605,256.8744 C432.925,257.0234 438.246,257.1774 443.567,257.3384 C445.23,257.3884 446.951,257.4344 448.674,257.3894 C448.544,257.6584 448.412,257.9274 448.283,258.1934 C445.382,264.1854 441.734,269.7004 437.483,274.8184 C428.445,285.7004 417.528,295.0744 409.699,306.9424 M369.286,371.5374 C368.145,368.3654 365.365,365.9254 360.936,366.1274 C335.696,367.2734 310.409,368.0684 285.198,369.7294 C272.917,370.5394 260.586,371.0844 248.325,372.1584 C242.001,372.7134 235.688,373.7444 229.391,374.5644 C225.074,375.1274 220.554,375.7804 216.413,377.3144 C217.216,368.4494 217.924,359.5774 218.539,350.6924 C219.032,343.5544 219.182,336.3514 219.144,329.1954 C219.125,325.5734 219.002,321.9304 218.827,318.3094 C219.199,318.3844 219.572,318.4214 219.938,318.3764 C220.584,318.2964 221.187,318.2204 221.747,318.0704 C227.55,320.3414 234.118,320.8424 240.264,321.2814 C247.554,321.8004 254.842,322.3534 262.132,322.8734 C277.643,323.9804 293.3,323.9084 308.845,324.4154 C339.446,325.4124 370.053,325.9924 400.66,326.8114 C399.24,332.9044 399.19,339.1614 401.463,345.0604 C399.88,344.5354 398.057,344.7794 396.501,346.3164 C387.685,355.0254 378.606,363.4254 369.286,371.5374 M280.252,436.3224 C279.629,434.5994 278.453,433.0164 277.061,431.9434 C271.709,427.8194 261.939,430.1934 255.515,430.5074 C247.91,430.8804 240.304,431.2524 232.699,431.6244 C230.391,431.7364 218.611,432.3374 209.959,434.1814 C211.747,420.6804 213.369,407.1574 214.819,393.6094 C215.123,390.7654 215.405,387.9204 215.684,385.0754 C219.76,386.3864 224.19,386.8674 228.394,387.0674 C234.694,387.3674 241.023,387.8754 247.329,387.9744 C259.928,388.1724 272.597,387.5504 285.198,387.3404 C307.89,386.9634 330.585,385.8804 353.267,384.9854 C330.494,403.4704 306.431,420.3364 281.331,435.6784 C280.973,435.8974 280.61,436.1054 280.252,436.3224 M208.58,444.3344 C210.497,444.5894 212.398,444.6724 213.852,444.8204 C221.152,445.5564 228.338,446.2244 235.675,446.3314 C242.95,446.4374 250.224,446.5434 257.499,446.6504 C259.046,446.6714 260.593,446.6954 262.14,446.7174 C242.984,457.1814 223.24,466.5534 203.775,476.4214 C205.49,465.7414 207.091,455.0454 208.58,444.3344 M417.313,206.0704 C460.969,224.6214 516.964,226.3044 554.481,195.4884 C558.209,196.5084 562.332,196.8474 565.624,197.1774 C573.02,197.9204 580.348,198.6034 587.78,198.8364 C602.265,199.2884 616.763,199.9654 631.254,200.1444 C660.569,200.5064 689.886,200.6754 719.202,200.9364 C721.697,200.9594 723.693,200.1994 725.207,198.9784 C728.176,204.0114 730.938,209.1714 733.459,214.4624 C737.136,222.1794 740.252,230.1544 742.811,238.3084 C742.263,238.2134 741.693,238.1474 741.083,238.1364 C702.556,237.4704 664,238.5784 625.466,238.7394 C586.923,238.9004 548.385,238.7354 509.843,239.0094 C499.177,239.0864 488.59,239.0884 477.951,239.8794 C472.414,240.2914 466.811,240.4714 461.327,241.3654 C460.714,241.4644 460.09,241.5524 459.461,241.6404 C452.112,237.3454 442.989,238.2424 434.589,238.0844 C424.944,237.9024 415.3,237.7404 405.656,237.5974 C386.7,237.3164 367.742,237.1114 348.784,236.9814 C311.159,236.7234 273.626,237.6844 236.025,238.9954 C217.317,239.6464 198.68,240.7534 180.213,243.6324 C178.973,242.0274 177.745,240.4144 176.489,238.8224 C163.404,222.2384 147.892,201.0074 126.36,195.8684 C127.186,194.5224 128.024,193.1844 128.875,191.8554 C143.793,195.7894 160.25,195.5904 175.492,196.4144 C193.061,197.3634 210.593,198.0194 228.183,198.4514 C263.148,199.3104 298.106,199.8494 333.078,200.3804 C342.784,200.5284 352.49,200.6834 362.196,200.8454 C367.431,200.9324 372.667,201.0334 377.903,201.1134 C380.828,201.1584 383.443,201.1504 386.23,200.1794 C388.811,199.2804 391.327,197.9314 393.823,196.8144 C394.694,196.4244 395.402,195.8474 395.98,195.1664 C402.834,199.2614 409.936,202.9354 417.313,206.0704 M587.902,144.3824 C593.393,145.9064 599.06,146.1594 604.865,146.5974 C612.485,147.1744 620.087,147.2714 627.727,147.3204 C639.908,147.3984 652.092,147.3144 664.269,146.9784 C669.5,146.8344 672.556,143.3334 673.463,139.3234 C673.589,139.4254 673.719,139.5254 673.845,139.6294 C688.666,151.8404 702.095,165.8064 713.475,181.2654 C686.069,181.3514 658.66,181.3694 631.254,181.5534 C616.765,181.6514 602.265,182.2464 587.78,182.6194 C580.674,182.8014 573.672,183.3904 566.596,184.0624 C566.456,184.0764 566.308,184.0884 566.165,184.1014 C566.915,183.2364 567.659,182.3594 568.386,181.4574 C576.844,170.9764 583.801,158.0624 587.902,144.3824 M766.089,694.5734 C768.507,687.9204 767.568,680.7854 767.431,673.7894 C767.291,666.6114 767.214,659.4374 767.19,652.2584 C767.143,638.2254 767.048,624.1934 766.893,610.1604 C766.579,581.7724 766.251,553.3624 765.134,524.9924 C762.926,468.9064 758.673,412.9574 751.731,357.2484 C748.357,330.1644 744.169,303.1424 738.486,276.4414 C738.566,276.3344 738.644,276.2244 738.724,276.1164 C744.383,268.5544 750.819,261.5644 756.379,253.9514 C756.872,253.2754 757.078,252.4094 757.073,251.5344 C757.276,251.4354 757.48,251.3314 757.687,251.2134 C762.299,248.5874 758.134,241.4284 753.523,244.0894 C754.055,243.7834 746.397,224.1294 745.586,222.1504 C742.671,215.0424 739.393,208.0924 735.697,201.3564 C733.467,197.2934 731.08,193.3154 728.58,189.4104 C728.143,186.4944 726.568,183.7914 723.862,182.3454 C719.114,175.5434 713.985,169.0054 708.518,162.7764 C686.137,137.2764 658.182,116.6914 627.641,102.0284 C623.228,99.9104 618.684,98.1444 614.156,96.2954 C609.336,94.3244 604.866,91.7484 600.116,89.6794 C592.387,86.3144 584.756,86.5074 577.164,90.0704 C576.515,90.3754 576.98,91.3734 577.64,91.2014 C582.528,89.9274 587.535,89.7134 592.435,91.0974 C597.236,92.4534 600.886,95.4494 605.08,97.9494 C612.55,102.4044 620.901,105.3084 628.558,109.4664 C638.683,114.9684 648.578,121.0094 658.043,127.6414 C648.236,128.1604 638.422,128.5354 628.605,128.7954 C621.314,128.9894 614.026,129.0224 606.745,129.4464 C601.563,129.7474 596.174,129.6624 590.995,130.4994 C592.244,121.9144 592.246,113.2524 590.685,104.8894 C590.685,104.8864 590.684,104.8834 590.684,104.8804 C590.307,102.8654 589.85,100.8654 589.288,98.8884 C588.091,94.6814 584.256,94.0504 581.472,95.6424 C581.196,95.4394 580.918,95.2394 580.651,95.0224 C577.316,92.3144 574.314,89.0744 571.703,85.6694 C566.28,78.5944 561.897,70.4044 558.578,62.1494 C555.216,53.7894 552.834,45.0424 550.501,36.3514 C549.331,31.9944 548.065,27.6604 546.873,23.3064 C545.837,19.5214 545.083,15.3404 543.18,11.8914 C542.823,11.2454 541.749,11.3674 541.578,12.1014 C540.57,16.4214 541.103,21.3484 541.288,25.7534 C541.492,30.6424 541.773,35.4864 542.424,40.3384 C543.773,50.4064 545.949,60.3034 549.436,69.8634 C552.779,79.0314 557.191,87.5864 563.183,95.3104 C567.164,100.4414 572.818,107.2334 579.367,110.0004 C580.223,119.6324 580.125,129.2744 577.85,138.8104 C574.874,151.2924 569.175,163.1574 561.345,173.3224 C544.927,194.6364 519.527,206.6794 493.028,209.1614 C465.612,211.7284 437.556,205.5974 412.921,193.5394 C385.52,180.1274 362.789,159.4354 342.372,137.1014 C330.602,124.2274 318.398,111.5604 307.49,97.9394 C305.557,95.5254 302.463,90.6244 298.793,86.2094 C302.528,86.1754 306.361,85.6164 309.667,85.1924 C316.507,84.3144 323.192,82.9554 329.876,81.2554 C342.373,78.0774 355.551,73.6554 366.471,66.6604 C389.578,51.8574 398.598,33.0804 401.679,7.2114 C402.653,-0.9666 388.512,-2.9526 387.195,5.2504 C385.172,17.8604 382.111,23.9964 378.086,36.1094 C374.215,47.7524 368.608,52.0894 357.891,58.5074 C347.83,64.5334 336.396,68.0334 325.312,71.6504 C319.17,73.6544 312.955,75.4824 306.761,77.3244 C302.818,78.4974 298.137,79.5204 294.137,81.3314 C292.05,79.5004 289.873,78.1194 287.681,77.5964 C287.842,77.3254 287.633,76.9044 287.229,76.9844 C286.585,77.1134 285.943,77.2554 285.299,77.3884 C284.652,77.4344 284.008,77.5624 283.365,77.7944 C244.759,86.1544 207.685,103.9574 176.247,128.2094 C174.662,128.8704 173.129,129.6814 171.67,130.7064 C170.919,131.2334 170.421,132.0704 170.278,132.9374 C165.552,136.7954 160.966,140.7994 156.535,144.9434 C120.849,178.3204 98.238,222.7204 82.409,268.3884 C66.816,313.3794 56.261,360.5584 50.457,407.7954 C44.54,455.9454 43.858,505.0954 52.44,552.9734 C57.048,578.6814 64.508,603.9454 75.519,627.6574 C85.407,648.9534 101.502,673.2134 126.782,675.8064 C126.863,675.8874 126.939,675.9724 127.03,676.0484 C136.949,684.2164 151.717,678.5754 162.087,673.6954 C163.731,672.9214 165.362,672.1074 166.986,671.2734 C166.128,674.5764 165.741,678.0344 165.562,681.2754 C165.189,688.0064 174.68,688.3884 176.477,682.8024 C191.862,685.5074 207.749,685.5454 223.31,685.4594 C240.697,685.3634 258.078,684.7614 275.445,683.9434 C309.903,682.3184 344.32,679.8344 378.801,678.7054 C448.619,676.4194 518.628,681.3044 588.39,683.7644 C607.96,684.4554 627.53,685.1444 647.1,685.8354 C667.095,686.5404 687.07,686.6754 706.904,689.3794 C714.197,690.3734 716.991,683.2264 714.934,678.7734 C715.447,675.7824 714.936,672.5034 714.655,668.9804 C714.131,662.3974 713.636,655.8124 713.172,649.2244 C712.266,636.3804 711.391,623.5314 710.561,610.6814 C708.879,584.6424 707.432,558.5844 706.024,532.5294 C703.225,480.7244 701.082,428.8804 699.506,377.0244 C699.121,364.3844 698.619,351.7404 697.985,339.1094 C698.74,337.9124 699.493,336.7134 700.221,335.5004 C702.645,331.4574 705.022,327.3884 707.477,323.3634 C712.402,315.2954 717.357,307.2804 722.535,299.3714 C727.007,292.5414 731.62,285.8164 736.44,279.2304 C742.424,329.7634 747.743,380.3474 750.185,431.2044 C752.874,487.2184 754.301,543.3184 755.077,599.3894 C755.294,615.0544 755.44,630.7204 755.607,646.3854 C755.694,654.5434 755.781,662.6954 755.714,670.8534 C755.649,678.6544 754.47,687.1894 757.238,694.5734 C758.852,698.8794 764.496,698.9554 766.089,694.5734 Z" id="ðŸ–-Ink" fill="#000000"></path>
    </g>
</svg>