<?xml version="1.0" encoding="UTF-8"?>
<svg width="818px" height="733px" viewBox="0 0 818 733" version="1.1" xmlns="http://www.w3.org/2000/svg" xmlns:xlink="http://www.w3.org/1999/xlink">
    <!-- Generator: Sketch 62 (91390) - https://sketch.com -->
    <title>body/mono/Fur Jacket</title>
    <desc>Created with Sketch.</desc>
    <g id="body/mono/Fur-Jacket" stroke="none" stroke-width="1" fill="none" fill-rule="evenodd">
        <path d="M85.7012,711.1912 C90.9742,719.2022 101.3462,717.9702 105.7992,711.7652 C156.5052,723.5792 208.4882,718.9232 259.8992,716.0272 C404.7722,710.1322 550.4622,728.6102 694.7492,709.2802 C710.0552,706.2192 727.8702,707.6822 740.3942,697.0662 C760.4252,673.5932 756.1112,637.9542 752.9202,609.3642 C727.3432,448.2002 690.980189,285.55832 672.841189,123.35832 C671.828189,107.90832 678.1952,88.7112 683.9032,74.1872 C685.3132,71.4852 694.2242,68.8372 698.8482,65.7202 C713.0392,55.5342 710.7382,37.2802 698.4362,26.5692 C658.6052,-1.5068 603.157275,8.30392069 560.9043,18.6624 C552.806931,-11.7504652 543.704833,-31.7529229 528.287468,-33.7338 C498.942868,-37.5040971 427.759824,-49.0255267 405.833329,-33.7338 C395.343736,-26.4182673 388.6109,-0.641118756 381.0602,11.9162 C325.9932,10.9382 214.2302,-62.7358 191.2532,20.2272 C172.5852,21.5162 154.0952,37.8142 157.6662,57.3722 C133.4552,78.7662 152.5512,110.8452 152.2162,137.4742 C149.0332,193.9732 118.4612,244.5012 105.7422,299.0792 C76.6692,404.9342 43.7632,597.4832 79.8222,700.8082 C79.0462,700.4032 77.3512,701.0132 78.4492,701.8722 C82.5322,703.0242 83.0632,708.1672 85.7012,711.1912 Z" id="ðŸŽ¨-Background" fill="#FFFFFF"></path>
        <path d="M718.8033,684.2714 C712.0403,629.9774 707.3373,564.4344 707.283298,509.6874 C707.2783,504.5314 715.2783,504.5404 715.283298,509.6874 C715.3373,564.4344 720.0403,629.9774 726.8033,684.2714 C727.4393,689.3754 719.4313,689.3124 718.8033,684.2714 M668.7033,347.6264 C658.2533,354.0174 644.5303,349.5844 634.1883,345.3524 C629.4793,343.4254 631.5533,335.6894 636.3143,337.6384 C644.1853,340.8594 655.6893,345.6014 663.9963,341.1094 C672.2873,336.6254 672.6613,324.2914 672.7233,316.1524 C672.7623,310.9984 680.7613,311.0024 680.723435,316.1524 C680.6393,327.2254 679.1583,341.2304 668.7033,347.6264 M649.3603,596.0844 C638.8173,590.6804 629.8213,583.2924 622.5813,573.9144 C619.4343,569.8374 626.3873,565.8584 629.4893,569.8764 C635.8613,578.1304 644.1633,584.4434 653.3983,589.1774 C657.9863,591.5294 653.9333,598.4294 649.3603,596.0844 M598.6843,316.8824 C580.5943,389.3734 568.4543,463.1624 562.5043,537.6424 C561.2943,552.7624 560.4443,567.8624 559.9643,582.9724 C559.4843,586.9124 559.0243,590.8624 558.5943,594.8124 C556.9643,609.7514 555.7143,624.9324 555.8243,639.9724 C555.8743,646.7224 556.0843,653.4424 556.5443,660.1714 C555.7443,657.9214 555.0043,655.6624 554.2843,653.4124 C552.8143,648.8024 551.8443,644.0224 550.3443,639.4424 C549.1043,635.6524 547.5043,632.0224 546.0143,628.3524 L546.0143,628.3424 C546.4643,613.3124 545.4443,598.1424 544.9243,583.1824 C544.2543,563.8024 543.4243,544.4424 542.9943,525.0524 C542.1343,486.2724 542.5643,447.4624 543.9643,408.7034 C546.7743,330.6024 553.8743,252.8734 561.0343,175.0924 C563.0243,153.4624 565.1643,131.8424 566.6443,110.1714 C568.1343,88.2724 568.7343,66.3324 568.9043,44.3734 C568.9143,42.7924 566.5143,42.3734 566.0743,43.9024 C565.6843,38.6924 564.9943,33.4924 563.8443,28.4624 C581.0943,39.4624 599.2843,48.9724 617.1143,58.9724 C626.5043,64.2424 635.8543,69.6024 645.5343,74.3224 C650.8543,76.9214 656.2243,79.3124 661.7043,81.5724 C667.3843,83.9124 672.8143,87.1324 679.0643,85.5014 C679.6043,85.3624 680.1143,85.1624 680.6043,84.9024 C679.8943,86.2514 679.1843,87.5924 678.5043,88.9534 C676.1443,93.6424 673.8943,98.3524 671.7143,103.1024 C671.1343,103.5324 670.6243,104.1234 670.2243,104.8924 C669.1643,106.9624 668.1343,109.0524 667.1343,111.1714 C666.9343,110.9824 666.7343,110.7924 666.5343,110.6024 C665.6943,109.8124 664.5343,111.0014 665.2743,111.8624 C665.6143,112.2514 665.9443,112.6324 666.2743,113.0224 C659.7543,127.0524 654.4543,141.8024 648.9943,156.2034 C642.2843,173.9024 635.9243,191.7324 629.9343,209.6824 C618.1243,244.9924 607.7043,280.7624 598.6843,316.8824 M340.0543,579.9574 C306.7133,597.8124 275.5573,619.1504 245.5913,642.1654 C241.5063,645.3024 237.5263,638.3494 241.5533,635.2574 C271.5193,612.2434 302.6763,590.9044 336.0173,573.0484 C340.5593,570.6174 344.5953,577.5254 340.0543,579.9574 M227.4443,370.8394 C225.7113,370.7104 224.0273,369.7054 223.5873,367.9034 C220.8863,356.8454 218.7713,344.7994 221.2833,333.5204 C222.4033,328.4894 230.1143,330.6304 228.9973,335.6464 C227.0163,344.5404 228.5903,354.1544 230.6473,363.0234 C259.7263,364.2964 288.4153,353.8614 316.2363,346.8544 C321.2393,345.5944 323.3523,353.3124 318.3633,354.5684 C288.8513,362.0004 258.3253,373.1254 227.4443,370.8394 M806.3443,665.8024 C806.3743,665.7324 806.4043,665.6524 806.4243,665.5824 C808.1343,660.4024 808.1743,654.3824 808.3643,648.9534 C808.6943,639.2924 808.3443,629.6124 807.4743,619.9824 C805.6343,599.7124 801.6743,579.7724 796.9443,560.0014 C787.5743,520.8424 774.3343,482.7424 767.1443,443.0524 C753.0343,365.1424 756.3843,284.0224 728.6943,208.8734 C717.1843,177.6324 700.7443,147.6024 678.4043,122.7824 C680.0343,117.8224 681.6243,112.8524 683.1743,107.8624 C685.8843,99.1824 688.6543,90.2224 690.3243,81.2824 C690.3643,81.0424 690.4143,80.7924 690.4443,80.5424 C699.9543,76.4424 708.6043,68.7124 710.0843,58.4324 C710.7243,53.9924 709.9843,49.0724 708.0643,44.7824 C711.9843,41.1624 714.5043,36.4624 713.9043,30.1624 C712.7843,18.3024 698.9343,15.2514 689.2943,12.9324 C678.3343,10.3024 666.9643,9.5724 655.7543,10.8124 C650.0943,11.4324 644.4943,12.4724 639.0243,14.0324 C634.2743,15.3824 629.1043,16.7724 625.2943,20.0324 C624.8443,20.4124 625.2143,21.1524 625.7543,21.1524 C633.4643,21.1234 641.1443,18.2924 648.9343,17.9214 C657.0943,17.5424 665.2343,18.2124 673.2343,19.8924 C681.0543,21.5324 688.8543,23.9324 695.9643,27.6424 C697.9643,28.6924 700.8943,29.4024 698.5443,31.5224 C696.8243,33.0724 693.4443,33.2034 691.2343,33.4324 C686.3443,33.9424 682.1243,36.8024 681.5043,42.0224 C680.9543,46.6324 683.7043,51.8524 688.6043,52.8924 C688.8743,52.9534 689.1243,53.0224 689.3443,53.1124 C689.4743,53.3624 689.6743,53.5724 689.6543,53.2324 C689.6543,53.2324 689.6643,53.2224 689.6643,53.2324 C689.7843,53.9624 689.8243,54.2514 689.8243,54.3024 C689.7943,54.2424 689.7443,53.9924 689.7043,53.7924 C689.7343,53.9724 689.7943,54.2624 689.8743,54.6924 C689.7643,54.2224 689.8543,55.3734 689.7643,55.5524 C687.1643,60.3524 679.4743,61.7034 674.9943,63.7724 C674.1243,64.1714 673.3743,64.6424 672.7343,65.1714 C671.6743,64.8024 670.5943,64.4324 669.5043,64.0224 C664.1343,62.0124 658.7743,60.0624 653.3343,58.2514 C642.8343,54.7424 632.2043,51.6124 621.7043,48.0924 C601.8243,41.4324 582.6043,33.0224 563.0943,25.4024 C562.4743,23.1024 561.7543,20.8524 560.9043,18.6624 C560.7343,18.2034 559.9143,18.0524 559.8243,18.6624 C559.5243,20.6024 559.2843,22.5524 559.0843,24.5124 C559.0043,24.6924 558.9843,24.8924 559.0243,25.0824 C557.8943,36.4824 558.1943,48.1524 557.6143,59.5424 C556.8943,73.7424 554.8843,87.8424 554.3143,102.0524 L554.3143,102.3124 C552.2143,114.4424 550.3143,126.6124 548.5943,138.8224 C546.6643,138.2224 544.4543,138.3424 542.1943,139.5524 C526.2143,148.0824 508.2543,152.8324 490.1843,153.8924 C481.0843,154.4214 472.0743,154.1234 463.0243,153.0724 C457.0743,152.3924 451.2143,151.1524 445.3443,149.9724 C448.4343,137.0224 451.7543,124.1324 455.5043,111.3734 C458.5943,100.8824 462.0343,90.4424 466.2843,80.3524 C470.5743,70.1624 475.9143,60.4324 480.8843,50.5524 C483.1743,45.9824 480.4743,38.9924 474.5243,39.4724 C472.7643,39.6124 471.0043,39.7224 469.2343,39.8024 C452.0143,40.6234 434.1043,38.7034 417.1043,36.9924 C397.7543,35.0324 378.1443,33.0014 358.9643,29.8124 C357.5443,29.5824 356.9643,31.5124 358.3643,31.9824 C367.4643,35.0424 376.4543,38.5014 385.7843,40.7924 C395.3843,43.1624 405.0443,45.3224 414.7843,47.0124 C424.1143,48.6234 433.4843,49.9724 442.8843,51.1124 C449.0143,51.8624 455.2143,52.2424 461.3843,52.7424 C453.0743,66.0224 447.3443,81.0014 442.3543,95.7514 C435.9443,114.6924 431.2343,134.1824 426.6243,153.6324 C416.7643,195.3224 408.6343,237.4324 402.2743,279.8024 C397.7143,310.1824 394.0243,340.6824 391.2543,371.2624 C390.4343,361.9724 389.4343,352.7124 388.3043,343.4624 C384.5243,312.7514 379.0043,282.2424 371.6243,252.1924 C372.2843,251.0324 372.5943,249.6424 372.3743,248.2924 C371.0443,240.0324 367.5443,232.8424 364.4743,225.1824 C361.4243,214.4824 358.1343,203.8524 354.5943,193.3024 C350.5743,178.9324 346.0643,164.7824 340.2943,150.9624 C335.8843,140.4324 330.8543,130.1714 325.2543,120.2224 C318.5643,106.3124 311.2143,92.7034 303.1443,79.6924 C302.7243,78.4824 302.0443,77.3524 301.0743,76.4024 C299.6043,74.0824 298.1143,71.7924 296.5943,69.5224 C295.6043,68.0424 292.7643,68.9424 293.5143,70.8224 C293.8643,71.7034 294.2143,72.5824 294.5743,73.4534 C261.7043,65.2324 229.4743,77.8024 198.1643,87.0824 C190.2643,89.4324 182.2843,91.5524 174.1843,93.0824 C167.8143,94.2824 160.3943,95.7424 154.0443,94.4214 C149.7943,93.5424 147.9143,91.6124 149.9843,87.0724 C152.1243,82.3734 157.9643,79.2824 163.0343,77.2034 C164.9443,76.7924 166.8243,76.0624 168.6343,74.9624 C172.8543,72.4024 174.7043,67.0624 172.7143,62.5124 C170.9043,58.4024 165.6243,54.8624 160.9543,56.7424 C160.2843,57.0124 159.6243,57.2724 158.9643,57.5324 C158.8943,57.4324 158.8143,57.2924 158.7443,57.0924 C158.0743,55.2624 157.7843,57.4534 158.0743,54.8324 C158.5543,50.5524 163.0843,46.6624 166.1843,44.2124 C173.8943,38.1024 185.0343,33.5824 194.9843,35.8924 C195.7343,36.0624 196.4843,36.2724 197.2243,36.5324 C207.4743,40.0824 212.4643,25.3224 204.2743,19.8224 C203.7743,19.4924 203.1443,19.0724 202.4543,18.5824 C199.0443,16.2124 194.0543,12.2224 195.4143,8.6234 C197.0943,4.1524 207.0043,1.5824 210.7543,0.0624 C224.3143,-5.4376 238.9643,-8.5576 253.5843,-9.1976 C268.2943,-9.8376 283.1943,-8.2176 297.3843,-4.2486 C304.3443,-2.3076 311.4943,0.6424 318.0743,3.6234 C323.9843,6.2924 336.8443,9.8224 337.6643,17.3024 C337.8443,18.9534 340.1943,19.5124 340.7043,17.7124 C344.7343,3.3524 329.0943,-5.9176 318.7743,-11.8476 C312.0043,-15.7486 304.3243,-18.1776 296.8943,-20.5676 C289.7743,-22.8676 282.5043,-24.5576 275.0843,-25.5786 C259.1543,-27.7576 243.0343,-27.4776 227.2343,-24.4176 C212.8443,-21.6266 196.8343,-16.8676 185.2043,-7.6076 C178.0643,-1.9276 174.8343,7.1124 177.7043,15.9324 C177.8043,16.2224 177.9043,16.5224 178.0043,16.8124 C165.1543,19.1124 152.9943,26.4724 144.8643,36.7324 C138.1843,45.1624 134.6843,56.8924 140.6643,66.7034 C140.4143,66.8824 140.1643,67.0724 139.9243,67.2724 C134.2243,71.8324 129.9843,78.4534 128.7243,85.6924 C126.2543,99.9724 134.8843,109.9624 146.9543,113.7824 C143.9643,116.7034 141.0943,119.8024 138.2843,122.9024 C131.9943,129.8524 125.9843,137.4214 120.6843,145.1424 C109.9443,160.7824 100.7643,177.8124 92.7343,194.9724 C76.2243,230.2124 65.8143,268.1424 60.2943,306.6024 C57.5143,325.9824 55.6543,345.4624 54.9443,365.0224 C54.1243,387.3224 54.9543,409.6324 54.5243,431.9424 C54.1043,453.3824 51.7343,474.3024 46.9443,495.2034 C42.3543,515.1924 36.2343,534.7824 30.6943,554.5124 C24.4443,576.7324 17.5643,598.8524 14.2643,621.7624 C12.5943,633.4214 11.3943,645.1124 12.3243,656.9024 C13.2643,668.9124 17.6243,679.1824 21.6443,690.3524 C22.6643,693.2034 25.7743,694.3524 28.2643,693.7424 C28.8243,699.0924 30.8443,704.3124 33.8543,708.8324 C40.2443,718.4124 50.0843,724.5224 61.3543,726.7424 C74.0543,729.2324 87.1443,728.6424 100.0043,728.1824 C113.9543,727.6824 127.9143,727.2324 141.8643,726.6524 C156.4693,726.0494 171.0733,725.4294 185.6783,724.8064 C185.1953,709.8374 184.6193,694.8734 183.9683,679.9114 C180.4473,599.0274 174.9023,518.0954 174.7553,437.1054 C174.4723,436.9394 174.1943,436.7424 173.9283,436.4844 C167.3533,430.1294 159.2813,425.9554 151.6973,420.9814 C147.4053,418.1664 151.4173,411.2424 155.7353,414.0744 C162.1293,418.2674 168.7923,421.9934 174.7843,426.6924 C174.8193,418.2614 174.8933,409.8314 175.0603,401.3994 C175.1623,396.2504 183.1623,396.2504 183.0603,401.3994 C182.5583,426.8104 182.7263,452.2274 183.3013,477.6354 C185.1623,559.9734 191.0123,642.1584 193.6763,724.4644 C232.8763,722.7894 272.0783,721.1024 311.2843,719.6714 C343.1743,718.5124 375.0643,717.3524 406.9543,716.1924 C413.6443,715.9534 417.4043,711.1714 418.2243,704.9214 C419.7243,693.4214 416.9043,681.5324 410.5243,671.8624 C409.8643,670.8624 409.0843,669.9724 408.2143,669.2124 C408.3643,662.3224 408.6443,655.4214 408.2543,648.5324 C407.6743,638.0124 406.8043,627.4924 406.0443,616.9824 C404.5043,595.9324 403.3143,574.8424 402.8443,553.7424 C401.8843,511.5424 402.5843,469.3024 404.9743,427.1624 C409.7643,342.9724 420.9143,259.3224 439.1643,176.9724 C440.4943,170.9724 441.8343,164.9724 443.2243,158.9824 C457.4143,166.3524 474.6743,169.0014 490.1843,169.1024 C509.6243,169.2224 528.6343,164.7514 546.1943,156.6234 C546.0743,157.5324 545.9543,158.4324 545.8443,159.3424 C540.9443,198.3424 536.8143,237.4214 533.2143,276.5524 C526.0343,354.5624 521.6343,432.8924 522.2443,511.2514 C522.4143,532.9624 523.2443,554.6024 524.2743,576.2824 C525.3243,598.3324 526.9343,621.6324 533.0743,642.9024 C533.7543,645.2514 535.2643,646.6024 537.0043,647.0924 C537.0943,650.1924 537.2943,653.3024 537.5143,656.3624 C538.2243,666.3124 540.2543,686.9824 544.5943,696.0014 C548.8243,704.8024 555.8743,711.7824 564.8643,715.6234 C576.2843,720.4924 588.6343,719.0924 600.6943,718.3124 C653.1343,714.8924 705.5343,710.3124 757.9443,706.2924 C765.2443,705.7324 772.5443,705.1824 779.8343,704.6124 C786.3243,704.1124 793.0343,703.6714 798.7943,700.3024 C805.3443,696.4724 810.4543,677.6624 808.1943,669.8824 C807.7843,668.4624 807.1643,667.0624 806.3443,665.8024" id="ðŸ–-Ink" fill="#000000"></path>
    </g>
</svg>