<?xml version="1.0" encoding="UTF-8"?>
<svg width="818px" height="733px" viewBox="0 0 818 733" version="1.1" xmlns="http://www.w3.org/2000/svg" xmlns:xlink="http://www.w3.org/1999/xlink">
    <!-- Generator: Sketch 62 (91390) - https://sketch.com -->
    <title>body/mono/Gym Shirt</title>
    <desc>Created with Sketch.</desc>
    <g id="body/mono/Gym-Shirt" stroke="none" stroke-width="1" fill="none" fill-rule="evenodd">
        <path d="M56.5730135,653.859318 C55.2120135,653.903318 55.6410135,653.506318 56.1410135,653.410318 C56.2850135,653.559318 56.4290135,653.710318 56.5730135,653.859318 Z M96.7580135,683.732318 C134.785013,688.240318 172.859013,684.116318 210.699013,679.981318 C287.359013,674.298318 363.480013,690.854318 440.291013,685.805318 C536.283013,681.760318 632.536013,674.164318 728.209013,686.965318 C754.672013,687.573318 796.880013,694.714318 787.283013,653.750318 C774.677013,548.431318 757.823013,443.643318 739.769013,339.135318 C724.468013,280.546318 723.362013,179.206318 681.464013,138.463318 C675.338013,132.870318 653.367013,114.778318 647.558013,112.349318 C618.679013,101.597318 566.617013,93.2073184 545.138013,70.4153184 C527.740013,40.9773184 535.833013,0.8063184 508.780013,-22.8936816 C485.070013,-42.2516816 433.320013,-38.1596816 407.971013,-23.6236816 C387.971013,-10.6556816 384.838013,14.5323184 372.376013,33.1593184 C369.302013,37.6223184 362.000106,48.3811233 357.877106,51.8521233 C347.840457,61.5148925 312.589313,71.6665544 302.409313,73.5315544 C244.962313,85.3035544 216.318013,92.5773184 171.135013,130.751318 C53.0770135,251.276318 69.8120135,464.446318 37.1450135,622.052318 C35.8080135,639.378318 25.2750135,662.890318 44.0670135,674.045318 C60.2520135,681.798318 79.2820135,680.954318 96.7580135,683.732318 Z" id="ðŸŽ¨-Background" fill="#FFFFFF"></path>
        <path d="M531.968,30.3479 C532.109,29.9379 532.768,29.8679 532.868,30.3479 C534.479,37.7169 537.498,45.7979 540.558,52.7079 C543.668,59.7079 547.918,66.1379 553.288,71.5979 C564.538,83.0379 579.008,88.2579 594.878,88.2679 L595.258,88.2779 C595.331333,87.7445667 595.413556,87.2112333 595.489852,86.6779 L595.598,85.8779 C597.048,74.9179 610.058,75.2379 612.598,83.5079 C613.888,83.9179 615.178,84.3279 616.458,84.7579 L616.713838,84.8499243 C618.86857,85.6700865 626.167574,89.3049213 627.508,88.3379 C630.458,86.2169 633.828,88.6479 634.948,91.3579 C636.778417,95.7949833 637.084285,101.279046 637.678684,106.092942 L637.758,106.7169 L637.848,107.4669 C679.598,118.3179 703.028,160.0879 714.988,198.5679 C721.468,219.4279 725.708,240.9479 729.968,262.3479 C734.528,285.2379 738.729,308.1879 743.178,331.0879 C751.948,376.2169 760.248,421.4479 767.458,466.8479 L769.548571,480.032258 C776.153805,521.779306 782.587524,563.502186 787.998,605.4379 C790.918,628.0479 793.658,650.6779 796.298,673.3279 C796.771333,677.367233 797.240222,681.407456 797.704963,685.450641 L798.399,691.5179 C799.018,696.9579 800.068,702.3379 797.378,707.4279 C791.548,718.4669 773.888,718.3869 772.888,704.2479 C772.689,701.4379 773.638,699.2879 775.208,697.7879 L775.186259,697.550493 C775.170778,697.409011 775.155,697.304567 775.149,697.2579 C774.628,694.4479 774.488,691.4779 774.168,688.6369 C773.468,682.5779 772.788,676.5179 772.098,670.4479 C770.768,658.8869 769.428,647.3279 768.038,635.7779 C765.229,612.3479 762.258,588.9479 759.109,565.5679 L755.987219,542.450875 C745.547174,465.39385 734.666182,388.353355 720.348,311.9079 C716.448,291.0979 712.439,270.3179 708.328,249.5479 C704.428,229.8779 700.048,210.2979 693.508,191.3079 C682.828,160.2879 664.158,131.2379 638.238,110.8779 C638.638,114.7679 638.928,118.6779 639.298,122.5679 C640.248,132.5579 641.258,142.5379 642.278,152.5179 C645.988,188.6779 651.018,224.7779 659.598,260.1369 C663.848,277.6579 669.028,294.9479 675.338,311.8379 C678.448,320.1579 681.838,328.3679 685.558,336.4279 C689.238,344.3979 695.689,352.9179 696.078,361.7979 C696.258,365.9079 691.958,369.5579 687.979,369.1179 C689.838,385.4779 690.888,402.0079 691.998,418.3279 C693.618,441.9669 694.908,465.6479 696.798,489.2679 C700.178,531.5779 704.418,573.8279 708.858,616.0379 C709.738,624.4059 710.6948,632.7675 711.64136,641.12782 L712.433827,648.147585 C712.967529,652.69826 713.773789,658.152111 711.358,662.1879 C713.518,667.3979 714.998,672.7479 715.859,678.3279 C716.948,685.2679 712.979,693.0479 704.878,692.7479 C703.958,692.7169 703.038,692.6369 702.118,692.5379 C694.608,694.2779 687.118,695.8079 679.318,695.8579 C669.358,695.9279 659.378,695.7279 649.418,695.6579 C630.149,695.5279 610.878,695.3979 591.608,695.2379 C521.848,694.6779 452.058,694.7079 382.308,693.5879 L354.400681,693.144937 C328.8168,692.733456 303.229333,692.259233 277.658,691.3279 C260.048,690.6879 242.439,690.0379 224.838,689.3279 L221.254625,689.191366 C205.724837,688.625553 190.176571,688.335043 174.818,685.9579 C174.433,685.892817 174.266472,685.493303 174.326119,685.142175 L174.348,685.0479 L173.678,684.8979 C173.288,686.5779 165.188,679.5179 165.248,674.8279 C161.888,670.4579 163.458,663.4779 163.818,658.4179 C164.168,653.4879 164.608,648.5479 164.998,643.6179 C165.828,633.0879 166.538,622.5479 167.388,612.0179 C170.818,569.5579 173.778,526.9879 175.698,484.4379 C176.668,462.9879 177.448,441.5279 178.268,420.0779 C178.637231,410.311746 179.151314,400.537072 180.109129,390.816012 L180.358,388.3869 C181.408,378.5279 181.308,367.9279 184.938,358.6369 C184.988,358.5079 185.158,358.5079 185.208,358.6369 C188.878,367.6779 189.228,378.1879 189.968,388.1079 C190.098,388.0679 190.228,388.0479 190.368,388.0179 C195.438,385.6079 200.558,383.4379 205.358,380.4579 C206.008,380.0579 206.638,379.6369 207.278,379.2279 C214.828,356.1279 223.578,333.4079 231.628,310.4579 C257.638,236.2479 271.998,157.2169 275.178,78.6379 C255.338,91.428203 233.730213,101.378763 212.725366,112.063907 L210.758,113.0679 C190.068,123.6479 170.258,135.6579 155.528,154.0079 C142.688,169.9879 134.298,189.4579 126.448,208.2279 C118.018,228.3979 110.418,248.9279 103.468,269.6479 C89.368,311.6879 78.448,354.7579 69.928,398.2679 C61.518,441.2079 55.508,484.4669 51.488,528.0279 C49.438,550.2479 47.568,572.4879 45.998,594.7579 C45.198,606.0279 44.488,617.3079 43.828,628.5979 C43.508,634.0779 43.268,639.5679 42.908,645.0479 C42.688,648.2079 42.648,651.4669 41.608,654.4669 C40.738,656.9669 39.198,659.0579 37.758,661.2679 C35.128,665.2979 28.488,666.0279 26.018,661.2679 L24.94848,659.2063 C23.5328,656.4607 22.24,653.6959 22.048,650.5279 C21.868,647.5279 22.238,644.3979 22.408,641.3869 C22.738,635.2979 23.118,629.1979 23.498,623.1079 C24.298,610.2979 25.188,597.4879 26.188,584.6879 C28.178,559.0479 30.738,533.4779 33.958,507.9579 C45.288,418.3279 61.648,329.1679 92.868,244.1079 C100.588,223.0779 109.198,202.2169 118.918,182.0279 C128.318,162.5079 140.208,144.0779 157.468,130.6379 C173.356,118.2635 191.82448,109.981004 210.174995,101.94181 L212.468,100.9379 C233.038,91.9479 253.568,82.2679 275.048,75.5879 C274.568,75.6479 274.098,75.7079 273.689,75.8479 C273.218,75.9979 272.939,75.3879 273.229,75.0579 C274.448,73.7079 274.958,72.3179 276.359,70.9879 C277.3262,70.0679 278.33244,69.1991 279.36748,68.36102 L280.856982,67.1756562 C283.582035,65.012508 286.44732,62.8023 289.878,62.0479 C294.729,60.9879 297.109,65.3979 295.748,68.8479 C296.448,67.9379 298.328,68.2079 298.818,69.4579 C314.778,110.6179 325.258,154.1879 346.738,193.0779 C362.598,221.8079 383.878,248.3379 412.118,265.6879 C427.288,275.0079 444.649,282.1679 462.578,283.2979 C478.678,284.3079 494.168,280.2169 507.859,271.7679 C534.399,255.3979 551.729,226.6579 564.088,198.8079 C577.678,168.1479 587.378,135.4779 593.078,102.3579 C575.018,102.6079 555.958,94.3679 543.948,80.9379 C537.628,73.8679 532.918,65.2579 530.528,56.0779 C528.118,46.8179 528.888,39.2079 531.968,30.3479 Z M380.4577,6.2976 C382.6587,2.3676 387.5387,1.0676 391.5287,2.6676 C395.9577,4.4476 397.2887,8.7476 396.6587,13.1176 C395.9277,18.2376 392.6377,23.7686 390.0787,28.2376 C387.3987,32.9176 383.9487,37.2286 380.3777,41.2576 C373.6587,48.8576 366.4677,55.7076 357.9387,61.3086 C349.4487,66.8776 339.8477,71.0476 329.9787,73.3776 L327.632359,73.9251136 C319.955161,75.6805147 309.032539,77.6915032 302.6377,73.5186 C302.3287,73.3176 302.3377,72.9076 302.6377,72.7076 C306.0977,70.2976 310.7287,69.8676 314.7077,68.7286 C319.0477,67.4786 323.3987,66.0586 327.5477,64.2776 C335.7387,60.7576 343.5787,56.1176 350.5577,50.5776 C357.5687,45.0186 364.3477,38.3886 369.0387,30.7376 C371.3987,26.8986 373.4087,22.8676 375.3377,18.8086 C377.2887,14.7376 378.2677,10.2176 380.4577,6.2976 Z" id="ðŸ–-Ink" fill="#000000"></path>
    </g>
</svg>