<?xml version="1.0" encoding="UTF-8"?>
<svg width="818px" height="733px" viewBox="0 0 818 733" version="1.1" xmlns="http://www.w3.org/2000/svg" xmlns:xlink="http://www.w3.org/1999/xlink">
    <!-- Generator: Sketch 62 (91390) - https://sketch.com -->
    <title>body/mono/Killer</title>
    <desc>Created with Sketch.</desc>
    <g id="body/mono/Killer" stroke="none" stroke-width="1" fill="none" fill-rule="evenodd">
        <path d="M576.6378,94.1447 C551.8758,71.1237 559.8258,48.9187 551.5498,20.8677 C535.5508,-13.8393 502.5438,-48.0213 464.3248,-55.4253 C445.2408,-66.6013 420.2958,-60.2663 407.2568,-42.7413 C395.0098,-39.4963 394.6048,-22.5623 390.5108,-12.5443 C382.9438,7.1317 377.1588,27.1787 372.4148,47.6197 C224.9988,78.3097 111.9298,178.6817 88.3568,330.9167 C84.3268,353.0397 81.0288,375.3107 77.9308,397.5817 C76.1158,416.7677 66.5058,447.2137 86.2608,459.6287 C86.8258,473.3917 88.4778,487.2907 93.7178,500.2467 C95.7298,513.1567 97.3558,526.1517 101.6078,538.5967 C110.9818,560.1447 112.4268,583.7817 122.9538,605.2617 C130.3098,621.1077 141.1088,633.8287 154.4638,644.9097 C160.1058,649.8537 167.8548,655.2177 169.0398,662.9537 C168.6858,674.6137 177.5328,691.4667 191.5058,685.9907 C201.4228,689.7197 212.0728,690.6897 222.5778,690.6137 C400.5988,682.9177 578.9928,682.2667 757.0198,690.8717 C763.2628,691.1627 769.1908,685.1747 768.9308,678.9587 C766.0938,611.1927 759.0848,543.6197 748.0578,476.6957 C723.4538,338.1127 697.1698,183.1057 576.6378,94.1447 L576.6378,94.1447 Z" id="ðŸŽ¨-Background" fill="#FFFFFF"></path>
        <path d="M386.179388,25.2936981 L386.8453,23.4582 C390.8763,12.3182 395.8153,11.4882 393.4353,22.2882 L393.075319,23.9152926 C391.01413,33.1556846 388.548133,42.7047 383.4963,50.7882 C374.7863,64.7292 351.9653,69.8982 336.7463,74.8572 C336.7953,75.2082 336.7953,75.5592 336.7553,75.8892 C346.0553,77.3092 355.6053,81.7882 363.3953,86.8092 C370.5253,91.4182 376.9653,96.5882 381.7653,103.4582 L405.2463,93.2582 C412.9963,89.8982 420.8053,85.8982 429.2253,84.5482 C441.0953,82.6482 459.3953,89.0082 457.9963,103.9792 C457.8153,105.9982 456.5453,107.4982 454.9863,108.2382 C456.1753,108.1392 457.3763,108.1072 458.5653,108.1482 C466.5053,108.4182 477.7253,115.4482 473.5763,124.7182 C472.5153,127.1072 469.4563,125.5382 469.2153,123.5382 C467.6453,110.3892 454.0553,113.4792 444.6263,115.6282 C436.0953,117.5682 427.6663,119.9482 419.4163,122.8572 C410.5953,125.9682 402.0653,129.9282 394.1953,135.0182 C386.0763,140.2772 378.4863,146.6582 378.9863,157.1582 C379.0053,157.3782 378.6563,157.4882 378.5553,157.2772 C374.3653,148.3382 382.5253,138.9082 389.1563,133.7582 C398.7553,126.3092 409.9963,120.9482 421.3553,116.7682 C427.196014,114.6232 433.2178,112.93519 439.261327,111.439953 L440.6563,111.0982 C444.2063,110.2382 447.8853,109.2482 451.5853,108.6482 C450.21843,108.313417 449.024483,107.320797 448.493545,105.526815 L448.4253,105.2772 C443.0853,84.1282 414.4653,101.1392 402.8763,106.2482 C394.5853,109.8982 386.1953,113.3982 377.9963,117.2682 L376.93976,117.771732 C370.582929,120.822061 363.957932,124.4262 359.6853,130.1682 C348.7253,144.8682 358.5653,164.7182 362.0253,180.2382 C363.0153,184.6882 363.9653,189.4082 364.0253,193.9792 C364.073616,197.720358 362.926452,201.247909 361.997808,204.847544 L361.4563,206.9682 L361.4563,206.9682 C361.9353,206.9792 362.4253,207.4792 362.2653,207.9882 C358.3763,220.6882 351.7953,232.7292 345.3853,244.3092 C338.8453,256.1282 332.1153,267.8892 324.8953,279.2982 C299.2153,319.8782 269.8153,358.1882 237.5653,393.7582 C222.1053,410.8092 205.3853,426.7182 190.2953,444.1072 C183.2753,452.1982 176.7063,460.6782 171.2253,469.9182 C168.2653,474.9082 165.6053,480.0882 163.3653,485.4582 L162.923142,486.521409 C161.086836,490.909599 159.281967,494.778941 155.8653,498.2882 C154.1663,500.0382 150.7653,499.2982 150.2253,496.7982 C147.7153,485.0382 156.0363,472.3382 162.0763,462.7382 C168.5953,452.3782 176.2153,442.7182 184.3153,433.5482 C186.6053,430.9482 188.9353,428.3892 191.2953,425.8572 C180.7363,428.7582 169.6153,429.5272 158.8553,431.4282 C147.8353,433.3682 136.8853,435.6782 126.2063,439.0382 C116.3953,442.1182 107.0553,446.1882 98.1263,451.2882 C93.8453,453.7382 89.6563,456.4282 85.7363,459.4382 C85.3653,459.7182 85.0053,460.0182 84.6453,460.3092 C91.0453,476.3892 95.9653,493.0682 101.1053,509.5592 C104.614443,520.832914 108.044565,532.136016 111.452204,543.446675 L119.1053,568.8992 C124.6263,587.2482 129.2253,607.2082 138.9563,623.8992 C143.1563,631.0982 148.8353,637.6072 155.3353,642.8282 C158.4863,645.3682 161.9163,647.2982 165.4753,649.1682 C167.7153,650.3482 169.6953,651.8782 171.7753,653.2772 C173.144586,651.716021 175.221485,650.749015 177.770182,651.157153 L178.0553,651.2082 C186.1053,652.7882 194.4063,649.9382 201.5653,646.4182 C209.0253,642.7382 216.4563,638.4182 222.7653,632.9792 C235.1753,622.2682 245.4653,608.9182 255.4963,596.0382 C291.2553,550.0782 321.7063,499.7382 346.5253,447.0782 C359.1353,420.2982 370.9063,393.0682 381.9653,365.6072 C387.4963,351.8892 392.9453,338.1392 398.2553,324.3282 L398.956173,322.48193 C403.713353,309.809925 407.878323,296.053084 415.5253,284.8782 C415.5853,284.7772 415.6663,284.6982 415.7553,284.6392 C415.7753,284.3182 415.8763,284.0182 416.0363,283.7582 C418.4063,279.9682 422.9453,278.8572 426.8763,277.0982 C431.3053,275.1072 435.7253,273.1282 440.1453,271.1492 C443.6263,269.5882 448.7253,268.2682 451.3353,265.3092 C454.2953,261.9792 455.2863,256.0482 456.7253,251.9282 C459.9863,242.6182 463.5153,233.4182 467.0453,224.2082 C470.1453,216.1182 472.8263,207.4382 477.1753,199.8992 C480.888582,193.467456 486.194916,190.075613 492.3293,186.371352 L493.66081,185.56778 C496.2241,184.0052 498.9583,182.1332 499.9753,179.2082 C501.6353,174.4282 497.9453,169.8572 494.0253,167.5782 C485.3153,162.5272 474.8853,168.3572 467.2463,172.8092 C459.5653,177.2882 452.0763,182.6682 443.8653,186.1392 C443.6853,186.2082 443.5553,185.9382 443.6853,185.8182 C450.2853,179.772046 458.351714,174.790981 465.931596,169.876115 L467.8153,168.6482 C472.8453,165.3572 478.5763,162.1482 484.6353,161.2582 C483.3763,160.8382 483.7653,159.2082 484.9653,159.0592 C496.8853,157.6072 508.9863,159.4682 520.7863,156.6882 C531.3153,154.2082 540.5053,148.2582 547.8653,140.4282 C554.8053,133.0482 560.3053,124.5082 565.4353,115.8092 C568.4163,110.7482 571.3263,105.6482 574.3453,100.6072 C574.7953,99.8482 575.2463,99.0082 575.7063,98.1072 C570.3053,96.8572 564.8053,92.8382 561.1353,89.7182 C555.4353,84.8782 551.2753,78.3382 548.3763,71.5182 C541.5763,55.5082 542.1153,37.1982 547.2063,20.8182 C547.5153,19.8182 548.9963,19.7682 549.2863,20.8182 C553.1953,34.8482 553.5453,50.0592 559.6853,63.4382 C562.1453,68.7982 565.5763,73.6182 569.7953,77.7182 C571.9353,79.7882 574.0953,81.5272 576.7153,82.9682 C579.5253,84.5182 582.5253,85.0272 584.7553,87.4882 C584.8853,87.6282 585.0053,87.7682 585.1153,87.9182 C586.421967,87.7418 587.546571,87.9295244 588.446022,88.4919428 L588.6353,88.6182 L588.6753,88.5592 C584.6453,85.8092 580.5953,83.0882 576.3053,80.6882 C575.1663,80.0482 575.9963,78.5182 577.1353,78.7182 L579.957817,79.2173811 C589.387945,80.8975388 598.996209,82.8082 607.6053,86.9982 C617.1563,91.6582 626.2753,97.0382 634.9753,103.1282 C652.1153,115.1072 667.7153,129.2582 681.3653,145.0882 C706.5453,174.2982 724.3453,209.4182 735.3553,246.2382 C749.1153,292.2482 754.4353,340.5782 760.2463,388.1072 C763.022883,410.859783 765.514612,433.65354 767.72919,456.473836 L768.3263,462.6982 C769.4353,474.4382 770.6353,486.1582 771.7653,497.8682 C773.7653,501.0082 773.9063,504.7382 772.7253,507.9792 C773.5953,517.4682 774.3763,526.9682 774.9963,536.4982 C776.5763,561.0882 777.5953,585.7582 778.0363,610.4082 C778.4753,635.4082 777.5653,660.3682 777.2753,685.3682 C777.1563,695.8892 761.2153,695.8482 760.9653,685.3682 C760.3263,657.7482 758.3453,630.1182 756.9353,602.5182 C755.5553,575.5782 754.2753,548.6492 752.6263,521.7292 C752.4653,519.1682 752.3153,516.5982 752.1753,514.0382 C749.850069,514.924354 746.97014,515.290744 744.526537,515.775245 L743.9253,515.8992 C739.011967,516.943283 734.090231,517.69411 729.099242,518.150909 L727.482678,518.287086 C722.955012,518.599791 699.7453,519.09818 686.0253,516.5982 C687.1153,534.2082 688.2153,551.8182 689.4253,569.4182 C690.8053,589.4882 691.0653,609.5882 692.0763,629.6782 C692.5853,639.7182 693.1953,649.6882 694.4753,659.6682 C695.059014,664.211057 695.655953,668.760527 696.369393,673.28701 L696.7363,675.5482 C697.3763,679.4382 698.1753,682.7682 696.5253,686.2382 C697.9653,690.6882 695.7253,696.2982 689.8263,695.8482 C652.0053,693.0182 614.0953,691.8182 576.1753,691.6492 C510.707558,691.338555 445.278214,693.961104 379.839232,695.761083 L362.154027,696.239891 C300.857598,697.916722 239.258586,699.707343 178.2463,692.9282 C178.1153,700.7382 163.5153,700.6492 164.2953,691.9382 L164.486821,689.837978 C165.365154,680.359936 166.504162,670.542338 169.4453,661.4182 C167.0053,661.4882 164.5553,661.3892 162.2553,660.6282 C158.9863,659.5592 155.8453,657.6182 153.0053,655.6982 C146.6853,651.4382 141.3453,646.1882 136.7363,640.1282 C127.6853,628.2382 121.6753,614.1492 116.9253,600.0782 C111.8748,585.081771 107.253698,569.912894 102.936291,554.691666 L98.2896791,538.206613 C92.3911514,517.24078 86.5992714,495.9562 83.0853,474.4382 C82.7063,474.9382 82.1853,475.3682 81.4963,475.6782 C62.6953,484.0782 46.6153,466.8482 43.4353,449.4282 C41.5631621,439.155097 42.000339,428.640547 42.1596083,418.241883 L42.1753,417.1282 C42.3353,405.1492 42.3853,393.1682 42.9963,381.1982 C45.0153,341.1782 54.3453,302.3992 68.8553,265.1182 C82.5253,230.0272 99.0453,194.6582 120.3263,163.4882 C130.4353,148.6882 142.0953,134.4682 156.1453,123.2182 C170.9653,111.3682 187.6263,102.3572 205.0763,95.0182 C222.9063,87.5182 241.3953,81.5882 259.9063,75.9882 C280.3263,69.8092 300.9863,64.4982 321.9963,60.7682 C323.5253,60.4982 325.0253,60.9482 325.8763,62.3482 C326.6153,63.5782 327.3053,64.8382 327.9753,66.1182 C330.8453,64.3182 335.2553,63.8782 338.1263,62.9982 C347.1353,60.2082 363.3453,58.5382 370.4863,52.1782 C378.627838,44.9318538 382.541877,35.2703006 386.179388,25.2936981 Z M81.4753,463.0982 C80.2063,464.2582 78.9353,465.4182 77.6263,466.5082 C79.3353,465.7882 80.8853,466.2682 82.0253,467.3282 C81.8263,465.9182 81.6453,464.5082 81.4753,463.0982 Z M494.7953,192.6492 C492.8553,193.8482 490.9353,195.0482 489.1853,196.4882 C482.89905,201.687575 480.77385,210.175522 478.154226,217.577266 L477.9863,218.0482 C474.7653,227.0082 471.5153,235.9882 468.1053,244.8782 C467.0363,247.6682 466.0363,250.6582 464.9653,253.6682 C479.3853,267.5272 494.1263,281.2382 509.5553,293.9682 C537.7953,317.2582 568.5653,337.4882 601.2653,353.9682 C618.0763,362.4482 635.4353,370.1682 653.2953,376.1582 C659.7463,378.3182 666.3153,380.2182 672.9863,381.6282 L672.9963,381.5272 L672.9963,381.5272 C673.0253,381.2882 673.4163,381.1782 673.4563,381.4682 L673.4963,381.7382 L673.4963,381.7382 C676.3553,382.3282 679.2363,382.8282 682.1263,383.2182 C687.6053,383.9482 693.1453,384.2772 698.6753,384.2292 C702.1053,384.1982 705.5053,383.7772 708.8853,383.9482 C693.9163,370.4582 678.8653,357.0682 663.7753,343.7382 C635.1753,318.4582 606.4163,293.3782 577.6053,268.3382 C564.814189,257.2182 551.880856,246.232521 539.143122,235.03702 L526.876595,224.202706 C516.035942,214.616201 505.262896,204.876878 495.872586,193.919035 L494.7953,192.6492 Z M366.9652,266.9685 C366.0952,265.8985 367.4162,264.5385 368.4862,265.4485 C374.8762,270.8575 382.0952,273.2285 389.7652,276.1385 C391.5552,276.8185 391.4162,279.6685 389.2962,279.6385 C380.3852,279.4785 372.3552,273.7185 366.9652,266.9685 Z M456.4859,133.7676 L457.124839,133.512331 C466.135154,129.979312 477.824737,128.22274 484.9159,136.4186 C490.0559,142.3686 491.3649,153.6286 484.6659,158.8186 C483.0559,160.0686 479.6449,158.9986 480.6659,156.4886 C483.6049,149.3186 484.2259,139.9276 474.9759,137.1686 C466.952452,134.773152 457.567025,139.445822 450.260617,142.696177 L448.170346,143.618866 C433.919839,149.944921 419.767243,157.610809 411.0359,171.0076 C410.8059,171.3476 410.1949,171.1286 410.3459,170.7176 C417.3149,151.4186 438.6559,141.0276 456.4859,133.7676 Z M350.9163,92.4382 L347.452092,91.1281514 C338.641884,87.839176 327.6711,84.4994 322.2063,93.9682 C320.158387,97.5073304 318.395933,101.8882 317.63394,105.964357 L317.5363,106.5182 C317.3263,107.7772 317.0553,109.1282 317.9563,110.0982 C319.3453,111.6182 323.8653,112.3572 325.6853,113.0182 L337.129967,117.173756 L337.129967,117.173756 L342.8453,119.2582 C345.4453,120.2082 348.8053,121.1582 350.7253,123.2482 C357.4453,114.4282 368.1353,109.4082 378.2253,104.9982 C369.1353,100.7682 360.3263,95.9792 350.9163,92.4382 Z" id="ðŸ–-Ink" fill="#000000"></path>
    </g>
</svg>