<?xml version="1.0" encoding="UTF-8"?>
<svg width="818px" height="733px" viewBox="0 0 818 733" version="1.1" xmlns="http://www.w3.org/2000/svg" xmlns:xlink="http://www.w3.org/1999/xlink">
    <!-- Generator: Sketch 62 (91390) - https://sketch.com -->
    <title>body/mono/Macbook</title>
    <desc>Created with Sketch.</desc>
    <g id="body/mono/Macbook" stroke="none" stroke-width="1" fill="none" fill-rule="evenodd">
        <path d="M996.081601,209.4717 C981.802192,210.8737 967.522783,212.2737 953.243373,213.6757 C884.855364,218.9007 816.494383,229.8127 748.629902,236.3617 C746.940197,233.6117 743.632859,234.0647 741.624833,235.9757 C734.853,235.3827 727.263341,230.2067 721.129151,235.5907 C720.92995,235.5627 720.730749,235.5297 720.529546,235.5107 C709.607525,214.5477 702.057907,192.1887 694.730513,169.7997 C690.053794,156.0347 683.761444,142.7097 672.133711,133.4677 C652.289687,119.6927 606.821806,91.7597 583.520293,92.9337 C583.133903,88.7617 581.18894,84.4617 577.995718,81.6837 C585.03382,69.6847 556.892423,61.8557 554.90742,63.2467 C556.179704,23.1587 537.322675,-11.6553 495.742718,-19.6383 C458.492129,-27.4003 405.509665,-28.7043 385.475449,10.2247 C383.273227,9.9767 360.762145,9.8595 358.583947,10.1035 C355.19753,5.8145 318.008017,46.4565814 333.250398,60.6055814 C196.977888,120.887581 119.493051,113.6947 81.7749906,283.1637 C76.6758452,299.0837 76.3044704,316.5047 70.9200371,332.0697 C51.7637068,376.8007 36.226028,424.4317 32.359126,473.1037 C23.0197017,475.4967 21.9456179,491.9637 32.763534,494.3457 C36.8957037,495.2567 40.3511906,496.5007 43.364231,498.8597 C41.0088542,538.7457 50.6555886,629.8597 56.7337219,629.5787 C69.127228,669.0217 124.408816,680.153516 163.546309,666.292516 C156.799501,678.985516 163.546309,686.966278 163.546309,693.748187 C304.373415,699.076187 458.352989,696.0077 599.141055,703.3147 C617.150228,703.0587 636.092342,707.7377 653.855266,705.0447 C664.688198,702.4477 664.706216,685.4147 653.718128,683.3087 L701.730918,672.880571 C700.657835,672.475571 721.522062,658.597811 737.290974,632.664811 C751.968785,603.654811 741.979191,568.637012 748.629902,537.081012 C800.574318,532.833012 853.377601,531.0167 904.753443,522.2197 C911.758512,543.1787 942.082111,518.1127 951.720837,508.0297 C951.708825,508.0137 951.696813,507.9987 951.684801,507.9827 C956.349508,506.7067 960.090283,502.3347 960.215409,497.1587 C963.48671,492.4847 964.173403,485.8967 961.036237,481.3797 C975.414746,398.4117 997.334865,313.6997 1005.25786,229.9517 C1008.05869,229.3317 1010.69635,228.1037 1012.9326,226.2117 L1012.75142,226.0307 C1016.54025,221.8067 1017.27699,214.5157 1010.96061,210.9267 C1005.86547,208.0287 1001.61118,208.9277 996.081601,209.4717 Z" id="ðŸŽ¨-Background" fill="#FFFFFF"></path>
        <path d="M388.0715,1.1835 C392.3145,-9.4795 406.6575,-5.3345 405.0585,5.8675 C404.1015,12.5775 400.4265,19.6645 397.1255,25.5455 C394.4375,30.3325 391.3715,35.0045 387.2145,38.5925 C394.6145,45.4965 402.2955,52.1485 410.1715,58.4645 C418.7655,65.3555 427.8025,71.7075 437.1435,77.5455 C445.3345,82.6655 453.8955,87.2015 461.6165,93.0435 C468.7955,98.4745 475.3355,105.0065 478.6635,113.5335 C482.208718,122.613845 480.668021,131.991341 478.057397,141.065558 L477.7575,142.0915 C475.0905,151.0815 470.4735,161.9185 476.8755,170.3885 C480.1345,174.7005 484.8725,177.7545 488.9635,181.2015 C492.5995,184.2655 496.0125,187.5975 499.1425,191.1765 C505.9675,198.9785 511.5185,207.7575 515.0215,217.5395 L515.334763,218.428184 C518.337267,227.087596 520.5316,237.695667 516.4745,246.1975 C515.3105,248.6345 511.5565,247.8425 510.9045,245.4695 C509.4305,240.0935 509.5075,234.4635 508.2715,229.0115 C506.9855,223.3415 504.8455,217.9595 502.0505,212.8675 C496.642658,203.016737 489.318785,194.602286 480.665979,187.48845 L478.075749,185.382043 C471.325569,179.842418 465.123636,173.965602 463.7535,164.7975 C462.2875,154.9885 466.2175,145.6445 468.7445,136.3605 C470.5055,129.8905 471.0805,123.6885 469.1775,117.8415 C466.8525,121.6365 463.6805,125.2385 461.1715,128.4515 C456.1745,134.8525 451.1305,141.2145 446.0995,147.5885 C440.9415,154.1245 435.9105,160.7635 431.1195,167.5745 C428.9765,170.6215 426.8565,173.6865 424.7435,176.7545 C423.1545,179.0605 420.9385,181.3645 419.2065,183.7165 C419.6275,184.9745 419.5955,186.4245 418.8325,187.4545 C409.6475,199.8645 396.5805,173.9705 393.1725,167.4285 C386.2325,154.1055 381.0675,139.9515 374.1045,126.6315 C366.8895,112.8235 358.6735,99.3835 349.5165,86.7775 C343.9775,79.1525 337.7695,71.9905 332.7025,64.1235 C320.7655,74.9475 305.0575,82.2035 290.6295,88.7835 C274.777119,96.0120714 258.307958,101.917287 242.054756,108.187949 L237.253667,110.052687 C209.248918,120.982089 180.559801,132.989349 157.2825,152.4025 C129.9295,175.2155 113.7475,207.0115 101.7005,239.9375 C87.8325,277.8425 76.3595,316.7705 65.6645,355.6735 C60.1915,375.5785 54.9985,395.5735 50.1165,415.6325 C45.8145,433.3045 42.2485,451.1525 37.2685,468.6425 C47.3685,468.2855 58.8875,472.1955 67.5105,473.3245 C106.8095,478.4685 145.5795,486.6685 182.6825,500.8655 C187.2655,502.6195 188.5915,507.1965 187.5935,510.9065 C190.2365,510.1605 192.8775,509.4045 195.5205,508.6625 C192.624841,504.225682 194.006904,496.293337 194.234559,491.375623 L194.2485,491.0375 C194.4825,484.4845 195.1935,477.9245 195.6545,471.3835 C196.532346,458.914577 197.675186,446.536825 199.194708,434.139345 L199.5825,431.0395 C201.3045,417.5515 202.5775,403.9845 204.4565,390.5195 L204.6785,388.9785 C203.7775,385.5335 202.7285,382.1305 201.6275,378.7425 C198.6935,369.7175 194.5525,361.2225 190.9235,352.4815 C190.4955,351.4525 191.9615,350.8615 192.6465,351.4785 C198.7925,357.0075 203.6745,364.0215 207.5965,371.3575 C207.6645,371.0115 207.7245,370.6645 207.7955,370.3185 L208.24304,368.115702 C209.346657,362.743654 210.689045,357.09153 213.9845,352.7345 C214.3355,352.2715 215.0295,352.1745 215.3615,352.7345 C218.5155,358.0715 218.8685,364.8305 219.3535,370.9035 C219.9025,377.7735 219.9715,384.7305 219.8745,391.6195 C219.6855,405.0825 218.7365,418.5835 217.9805,432.0245 C217.238853,445.232971 215.782355,458.273137 213.905304,471.351757 L213.5485,473.8045 C212.630917,480.029583 211.879708,486.331972 210.669428,492.514481 L210.3275,494.1975 C209.6805,497.2635 209.2825,501.5865 207.9945,505.1775 C241.1325,495.9345 274.3215,486.9025 307.5735,478.0295 C331.6065,471.6155 355.6645,465.2975 379.7125,458.9395 C380.9815,456.6525 382.5615,454.5165 384.5335,452.6075 C391.0305,446.3155 399.6405,443.5085 407.5375,448.3515 C408.1795,448.7465 408.2335,449.7525 407.5375,450.1335 C406.0245,450.9605 404.5085,451.8085 403.0195,452.6925 L417.4595,448.7815 C428.2525,445.8565 439.1745,442.2015 450.2215,440.1625 C470.5685,430.1215 492.4525,422.8535 513.8865,415.6705 L516.412261,414.816161 C527.386995,411.074582 538.738714,406.885929 550.0775,404.8115 C558.3785,403.2935 568.1225,405.1255 571.4605,413.6295 C575.6865,416.4145 579.6625,419.6875 583.4995,422.9065 C586.2735,425.2325 588.9325,427.7055 591.6365,430.1135 L592.134995,430.551121 C594.345559,432.469099 596.096707,433.753638 596.6395,436.8065 C596.9195,438.3835 595.9175,440.5155 593.9725,440.3065 C588.0215,439.6695 583.1825,432.7715 579.1465,428.6525 C576.0285,425.4685 572.8855,422.1765 570.0395,418.6775 C568.3805,419.5805 566.1065,419.4185 565.0505,417.4185 C559.5745,407.0495 544.5735,414.2345 536.2735,416.6935 L524.383564,420.212732 C518.43898,421.97486 512.4967,423.7457 506.5645,425.5475 C490.2605,430.4985 474.0365,436.0395 457.5845,440.5865 C459.0565,442.2045 458.8535,445.0825 456.0575,446.1775 C443.1795,451.2305 429.0515,453.8435 415.6725,457.3105 C407.2255,459.5015 398.7835,461.7055 390.3445,463.9225 C388.8975,466.2665 387.8565,468.9185 387.4185,472.0055 C385.808051,483.356031 388.914037,496.452074 391.939553,507.430162 L392.395302,509.068105 C394.88238,517.894334 398.541412,528.714167 406.1565,534.2875 C408.0155,535.6465 410.3825,536.5925 412.7685,536.8065 C427.6755,529.1335 442.5815,521.4615 457.4965,513.8035 C460.2595,512.3845 462.8125,514.3055 463.4325,516.5895 C468.6915,515.7265 473.9385,514.3665 478.7175,512.7445 C486.7475,510.0175 493.0175,504.8165 500.5455,501.2195 C515.11158,494.26142 529.986396,502.808338 543.028002,509.306208 L546.033765,510.783513 C551.882114,513.621058 564.049207,519.072237 566.8555,511.3115 C569.5695,503.8035 560.9885,495.7795 555.4465,492.4005 C548.8405,488.3715 541.1485,486.2155 533.6825,484.4195 C529.4195,483.3935 525.1045,482.5565 520.7635,481.9455 C515.8395,481.2525 510.7535,481.3565 506.0125,479.7595 C503.6565,478.9675 503.2945,475.2255 506.0125,474.6075 C513.310587,472.946609 522.021134,474.758284 529.636966,476.609634 L533.6175,477.5905 C541.2905,479.4735 549.0375,481.8365 556.0265,485.5925 C561.1085,488.3245 566.4725,492.4745 569.9765,497.5545 C573.019423,494.727885 576.806656,494.823447 580.75173,495.871792 L582.893016,496.467036 C586.428888,497.446908 589.294929,498.121357 592.7355,497.4425 C593.1955,494.9395 593.6615,492.4355 594.1605,489.9315 C599.0635,465.3175 604.4405,440.7975 610.3735,416.4085 C620.607371,374.340758 632.449254,332.734723 645.799456,291.555048 L647.1395,287.4385 C650.2185,278.0195 652.6965,267.7575 657.6605,259.1045 C662.3555,250.9225 669.8775,246.2095 678.8145,243.7135 C688.9565,240.8815 699.6135,239.3995 709.9595,237.4865 C712.2675,237.0605 714.5815,236.6555 716.8915,236.2365 C714.939333,232.711833 713.482213,228.710852 712.169692,225.640399 L711.9395,225.1085 C709.1198,218.6798 706.58684,212.13527 704.140874,205.555829 L702.311196,200.609555 C697.894878,188.69876 693.335857,176.983571 687.1265,165.8435 C680.5905,154.1195 671.9195,144.5345 661.1105,136.6015 C639.0725,120.4255 612.5095,112.1745 591.1345,94.8875 C590.2585,94.1795 591.3815,92.9685 592.2705,93.4165 C606.7035,100.6685 622.2845,105.5995 637.2965,111.5035 L640.257854,112.671933 C652.123216,117.375595 664.173346,122.496115 674.4435,130.1115 C685.8935,138.6035 694.9115,149.1495 701.6895,161.6905 C708.3695,174.0525 712.6425,187.8895 717.3555,201.0935 L718.616024,204.611763 C720.517012,209.887467 722.4805,215.147409 724.7305,220.2815 C726.5165,224.3575 729.8495,229.0105 731.3645,233.6665 C735.5095,232.9475 739.6535,232.2265 743.8025,231.5335 C833.6695,216.5295 924.5405,207.7135 1015.6135,205.1345 C1019.1765,205.0335 1021.0195,208.4335 1020.4945,211.5415 C1011.7545,263.2225 1003.9875,315.0805 995.4655,366.8005 C991.7455,389.3735 987.9515,411.9295 984.0685,434.4745 C982.1015,445.8965 979.8275,457.2745 977.9645,468.7135 C976.4605,477.9515 975.3685,487.2615 972.7865,496.2855 C970.4705,504.3765 966.9165,512.1785 961.0795,518.3515 C954.7875,525.0055 946.0055,528.2265 937.1655,529.7485 C914.7245,533.6105 891.7065,535.1875 869.0835,537.7605 L748.6365,551.4635 C750.396638,567.462121 750.528181,583.211838 749.72059,599.39671 L749.260328,608.232062 C748.884062,615.338687 748.43425,622.456 747.4135,629.4895 C746.1335,638.3125 742.0975,645.7835 736.1525,652.3735 C730.6935,658.4255 724.0615,663.5895 717.6105,668.5375 C710.9145,673.6755 703.9955,678.6345 696.1225,681.8115 L695.100625,682.217081 C688.193759,684.913737 675.237189,689.089566 665.7965,687.5635 C667.0305,693.7465 669.4185,700.3945 667.3015,706.5125 C666.3195,709.3535 662.6045,710.7705 660.3285,708.3535 C655.8195,703.5625 655.4675,697.2345 654.3995,690.9845 C653.2885,684.4805 652.3305,677.9535 651.4795,671.4105 C649.8335,658.7595 648.5525,645.9925 648.1615,633.2345 C647.7595,620.1325 647.9145,607.0125 648.6205,593.9245 C648.9835,587.2035 649.4335,580.4865 650.2865,573.8085 C650.6505,570.9605 651.0225,568.1105 651.4475,565.2695 C651.6025,564.2335 651.7745,563.2025 651.9595,562.1735 L641.148681,563.393195 C624.571977,565.243791 607.987393,566.914929 591.2935,567.1745 C589.3165,567.2045 587.7955,566.3045 586.8015,564.9935 C585.7425,566.7185 583.8985,567.9525 581.2575,567.9425 C557.9445,567.8555 536.2345,560.2325 515.0305,551.2485 C504.3425,546.7185 493.8205,541.8145 483.1165,537.3235 C473.1255,533.1315 462.4445,530.1405 452.6945,525.4185 L427.0745,538.8565 C426.8865,539.5175 426.6455,540.1425 426.3895,540.6655 C424.7215,544.0705 421.4325,545.9175 418.0735,547.3085 C414.8495,548.6465 411.5105,549.0625 408.2575,548.7245 C388.82725,558.9065 369.3925,569.078937 349.944812,579.227469 L330.4925,589.3675 C291.7365,609.5465 253.1335,630.0565 214.1335,649.7615 L211.262312,651.206846 C197.791562,657.9615 183.3267,664.808433 168.3775,669.9175 C168.1115,673.7015 168.2795,677.3815 168.5965,681.3865 L168.67281,682.258956 C169.118524,686.991791 170.074206,692.922088 166.2775,696.2915 C164.3025,698.0435 160.7745,698.0505 159.4315,695.4085 C156.9945,690.6175 159.1825,683.0645 159.9545,677.8595 C160.2285,676.0085 160.5625,674.1055 161.0565,672.2595 C143.9185,677.3615 126.2615,679.8355 108.8215,676.9705 C91.8415,674.1835 78.6905,663.4865 68.0885,650.4025 C56.8995,636.5955 48.9485,620.5045 44.6825,603.2555 C39.8275,583.6275 39.5105,563.3575 39.6245,543.2525 C39.7455,521.8435 40.5375,500.3285 43.1415,479.0635 C40.2885,478.3925 37.1245,477.8125 34.2415,478.0125 C32.8135,480.2975 30.0435,481.2595 27.5405,480.9625 C22.0975,486.9655 35.9035,493.1005 40.3155,494.6365 C41.8475,495.1705 41.6835,497.6585 39.9165,497.5835 L38.8034772,497.530594 C31.9861156,497.167907 24.9428621,496.003931 20.9345,489.6685 C17.7225,484.5905 18.6875,478.5745 22.5165,474.4335 C25.0455,450.5215 31.0915,427.2365 36.7185,403.9105 C42.2405,381.0155 48.3815,358.2675 54.8905,335.6345 L57.8085247,325.504413 C68.0568233,290.015844 78.7688478,254.240935 92.9055,220.1625 C99.9645,203.1465 108.0965,186.4435 119.1195,171.6065 C129.3945,157.7755 141.5255,145.9405 155.4695,135.8325 C181.464515,116.986779 211.966975,105.59975 241.936934,94.7509313 L243.2785,94.2655 C258.8095,88.6475 274.3025,82.9625 289.6565,76.8755 C303.2355,71.4925 316.2445,64.6675 329.7595,59.2035 C329.3205,58.4065 328.8965,57.6005 328.4885,56.7855 L328.238648,56.9956481 C328.195944,57.0296111 328.152167,57.0625 328.1065,57.0935 C326.7475,58.0355 324.7465,57.5725 323.6265,56.5155 C320.464071,53.5314796 321.534716,50.2190073 323.645618,47.1243388 L323.9205,46.7305 C326.5025,43.1135 328.8055,39.2895 331.1885,35.5415 L332.680754,33.1976372 C336.68071,26.9360185 340.884167,20.6326111 346.2175,15.4575 C348.6875,13.0595 351.3915,11.2655 354.2565,9.9285 C354.0115,9.4105 356.1595,8.3515 356.7685,8.8845 C365.8455,5.5625 376.2885,6.2585 386.1845,7.1745 M742.8085,552.1255 L730.1885,553.5605 C716.3045,555.1403 702.4151,556.6679 688.523972,558.180668 L658.3515,561.4595 C658.2745,563.1795 658.0655,564.8615 658.0275,566.1605 C657.8305,572.8575 657.6835,579.5575 657.5445,586.2565 C657.2655,599.6845 657.5715,613.1255 658.4555,626.5275 C659.312375,639.51375 660.440832,652.501758 662.194356,665.400062 L662.5535,667.9785 L662.7615,669.3345 C664.1925,669.4725 665.5985,670.1525 666.7675,671.5495 C669.3195,674.5965 678.5605,671.6345 682.1695,670.3505 C688.1045,668.2385 693.6935,664.6705 698.8505,661.0925 C703.886735,657.598853 708.4216,653.524998 712.779407,649.233598 L716.344952,645.707216 C719.891754,642.182691 723.442397,638.427948 725.6155,633.9945 C728.5625,627.9825 728.9435,620.6025 729.8075,614.0545 C730.8715,606.0005 732.1385,597.9475 733.4775,589.9335 M376.4535,467.5835 L375.1445,467.9275 C327.5935,480.5625 280.1135,493.5705 232.4165,505.6475 C208.8125,511.6255 185.0965,517.1685 161.4635,523.0315 L157.637256,523.988453 C138.993344,528.700539 120.125615,534.371718 105.8485,547.8945 C105.3215,548.3925 104.5565,547.6275 105.0525,547.0985 C120.4395,530.7185 142.3235,523.7845 163.3355,517.7735 C167.2195,516.6625 171.1085,515.5775 174.9935,514.4725 C146.4175,504.2855 117.3905,495.4225 87.6935,489.1015 C80.0465,487.4735 72.3105,486.2785 64.6695,484.6445 C59.3406,483.5042 54.13644,481.85603 48.863835,480.488768 L44.7165,479.4455 L44.6614204,492.553125 C44.592398,511.118189 44.6253571,529.668119 45.5725,548.2305 L45.7517926,551.669065 C46.8568546,572.326378 48.5817632,593.412605 55.9125,612.8905 C61.8695,628.7185 71.3645,643.6295 83.7815,655.1585 C90.0645,660.9915 96.8195,665.5325 105.1695,667.7745 C112.9225,669.8555 121.0455,670.0995 129.0155,669.5445 C167.2445,666.8775 201.2745,646.1105 234.4825,628.9165 C288.7995,600.7935 343.1225,572.6845 397.4945,544.6695 C396.0245,543.6645 394.6405,542.5065 393.3815,541.2055 C386.0905,533.6755 382.2445,523.3675 379.7185,513.3845 C377.0295,502.7585 375.4215,491.3695 375.2345,480.3995 M445.6366,555.5256 C446.1166,555.2676 446.6726,555.5906 446.6946,556.1326 C446.8626,560.28529 444.567665,564.381114 442.85296,568.122146 L442.6716,568.5216 C440.5886,573.1556 438.3076,577.7276 435.9486,582.2276 C431.2336,591.2186 426.3336,600.1136 421.2196,608.8826 C410.9356,626.5236 399.5076,643.4216 385.9996,658.7816 C382.9486,662.2516 377.9306,657.8026 379.8886,654.0666 C389.3286,636.0566 400.3336,619.0516 411.6616,602.1946 C417.3326,593.7546 422.9996,585.3066 428.7266,576.9046 C431.115767,573.398767 433.535489,569.905433 436.020489,566.465109 L437.5196,564.4076 M1009.5915,215.4495 C961.8745,216.8905 914.2135,220.0025 866.7235,224.8795 C822.5575,229.4145 778.5535,235.4515 734.7975,242.9775 C725.658333,244.549167 716.530278,246.185417 707.413912,247.88625 L701.9455,248.9145 C692.8275,250.6425 681.6885,251.3555 673.5705,256.2265 C665.0115,261.3615 662.6985,272.0935 659.8505,280.9435 C656.5025,291.3515 653.2395,301.7895 650.0645,312.2525 C637.4565,353.7955 625.9395,395.6985 615.6655,437.8785 C610.5655,458.8155 606.0405,479.8695 601.2725,500.8825 C597.0365,519.5525 592.3625,538.0115 587.4795,556.4945 C588.0815,556.0265 588.8195,555.6705 589.7105,555.4805 C613.958312,550.321906 638.710087,548.079159 663.320327,545.229306 L665.7015,544.9515 C691.1605,541.9575 716.6195,538.9855 742.0935,536.1215 L910.7525,517.1545 C920.6995,516.0365 931.3555,515.8845 941.0355,513.2155 C957.49326,508.67536 961.350854,490.275626 964.112148,475.622373 L964.1955,475.1795 C972.5205,430.9065 979.1475,386.2485 986.9115,341.8635 M591.4045,505.0285 C584.8565,504.5965 575.8945,498.5995 570.9265,499.0295 C573.5345,503.4055 574.7115,508.3965 573.2085,513.7265 C569.0255,528.5585 550.1085,520.8845 540.9965,516.3535 C533.5255,512.6365 526.3115,508.0885 518.0405,506.3475 C508.6705,504.3775 502.3225,508.1035 494.4065,512.3985 C487.9045,515.9255 480.8235,518.4585 473.5415,519.7695 C469.6695,520.4675 465.9915,520.5415 462.3205,520.2695 C462.0995,520.4495 461.8505,520.6165 461.5665,520.7655 L459.6245,521.7845 C468.4055,522.1865 477.3495,524.8965 485.5215,527.3775 C493.9895,529.9471 502.30262,533.04534 510.571452,536.213468 L518.706122,539.340072 C538.771546,547.023903 559.542,554.320437 581.2575,554.2565 C582.8185,554.2525 584.0975,554.6845 585.1045,555.3895 M554.7688,458.5545 C561.2378,457.7635 567.2088,458.6115 572.3778,462.8225 C578.6118,467.9005 582.7998,476.3225 591.7618,476.8755 C594.3748,477.0365 594.9818,480.7105 592.3848,481.4785 C585.7138,483.4535 580.3128,479.8445 575.7678,475.1585 L572.711987,471.965787 C568.220519,467.315049 564.078111,463.719631 556.4568,463.9975 C548.2948,464.2955 540.1188,466.1815 532.0098,467.1405 C522.8238,468.2265 513.6398,469.1525 504.4248,469.9515 C503.9968,469.9885 503.9238,469.3145 504.3248,469.2155 L514.646004,466.646842 M548.5244,432.1083 L549.591306,432.00152 C558.985059,431.089383 567.575982,431.053991 575.9654,436.1073 L577.57448,437.080354 C585.138396,441.677709 593.371267,447.093967 598.1014,454.5373 C598.8754,455.7563 597.5964,457.1893 596.3014,456.8793 C587.2104,454.6973 580.5644,448.0273 572.9194,443.0353 C564.3394,437.4333 555.4764,438.3573 545.6934,439.2273 C536.2214,440.0703 526.7544,441.2283 517.3754,442.8073 C508.5624,444.2893 499.7214,446.6293 490.8194,447.3753 L490.8214,447.3573 C489.8044,447.3553 489.2244,445.8283 490.2614,445.3103 C499.2954,440.7993 509.7584,438.6643 519.5854,436.6033 M833.8892,339.2635 C832.9812,334.9205 838.3232,332.9065 840.7992,336.3515 L841.325774,337.078047 C846.674973,344.406413 854.411071,353.602177 854.0172,362.9225 C858.7192,363.0255 863.5942,365.8825 865.4262,370.1255 C866.2732,372.0885 866.5602,374.4145 866.3732,376.8225 C870.6472,377.1545 875.3082,379.9605 877.9212,382.6925 C882.2522,387.2215 882.5942,393.6215 879.4872,398.9135 C872.712847,410.449171 857.913698,414.645625 845.420392,415.582422 L844.9752,415.6145 C832.0712,416.5065 813.4772,416.2655 804.6292,405.1945 C796.0942,394.5155 805.5272,385.8695 815.2002,381.1745 C812.6822,378.8755 811.3782,375.5785 812.6042,372.1015 C814.7572,365.9905 822.3582,363.6295 826.6532,359.3815 C831.889004,354.201679 835.34897,347.096506 833.969274,339.66895 M840.9812,348.6545 C839.5582,354.8385 836.0622,360.4945 831.1932,364.9765 C829.3312,366.6905 827.2942,368.2165 825.1302,369.5275 L824.870055,369.678488 C822.949553,370.756612 818.228921,372.7765 818.5922,375.1955 C818.9662,377.6815 826.6572,381.5725 828.7532,381.5745 C829.2302,381.5745 829.5002,382.3195 829.0132,382.5355 C825.2142,384.2135 821.8962,384.9325 818.1812,383.1595 C815.6992,385.6935 813.2882,388.3155 810.9002,390.9145 C806.6772,395.5135 808.1222,400.3695 813.1122,403.7935 C821.1302,409.2955 833.3182,409.1615 842.6732,408.7615 C852.0892,408.3595 862.1542,406.2595 869.5092,399.9875 L869.829546,399.708456 C873.826874,396.153362 877.477953,390.129201 871.3562,386.7055 C868.9592,385.3645 866.3692,385.4435 864.0932,384.7915 C861.9632,388.9665 858.5082,392.3105 854.2922,392.9555 C850.88495,393.476667 848.538438,389.194053 851.637886,387.145694 L852.334194,386.713103 C856.226157,384.229067 859.5472,380.403022 859.4592,375.4205 C859.399124,371.961712 854.56895,367.593133 851.422215,370.843063 L851.2782,370.9985 C848.645096,373.96653 844.007202,370.226378 845.739063,366.937652 L845.8222,366.7885 M226.861898,176.6751 C226.8502,175.9321 227.8952,175.6541 228.2602,176.2971 C234.3722,187.0501 237.5672,200.2311 240.8232,212.0781 C244.2332,224.4881 246.9862,237.0241 249.4592,249.6521 C254.4682,275.2231 257.1372,300.6471 257.31843,326.7091 C257.3432,330.4301 251.2812,331.4201 250.6882,327.6071 C246.7512,302.2561 242.9792,276.8791 239.0122,251.5351 C237.0162,238.7881 234.6932,226.0901 232.4702,213.3811 M287.3702,195.4046 C286.9202,193.9216 289.0782,193.4256 289.6302,194.7816 C301.8962,224.8906 306.0502,259.0126 298.1752,290.7776 C296.9702,295.6366 289.8532,293.5316 290.7622,288.7336 M445.5876,168.6508 C445.5256,167.5408 446.9666,167.3658 447.5096,168.1298 C453.3216,176.3188 455.7326,187.2858 465.9296,191.5178 C471.0206,193.6308 476.7496,193.2628 481.2476,196.8318 C484.2546,199.2188 486.5606,202.9868 484.3036,206.6018 C483.5756,207.7698 481.5376,208.3548 480.5496,207.0858 C479.1076,205.2368 478.3446,203.0228 476.3856,201.6368 C473.6226,199.6818 469.8966,199.5608 466.7286,198.6418 C462.6306,197.4538 459.0186,195.3748 456.0606,192.2858 M542.6858,32.0669 C543.2848,31.7619 543.8598,31.9569 544.2428,32.4749 C544.7898,33.2129 544.7228,33.9309 544.0528,34.4369 C544.9478,36.2659 546.0048,40.8479 546.1558,41.5149 C546.7678,44.2189 547.4188,46.9069 548.0998,49.5929 C549.4738,55.0099 550.6778,60.4689 552.0528,65.8879 C553.5108,71.6319 555.2478,77.3149 557.1808,82.9159 C557.305467,83.2785667 557.442578,83.6487889 557.586504,84.0244926 L557.8068,84.5919 L557.8608,84.5059 C558.2538,83.8849 559.0718,84.3189 558.9748,84.9749 C558.8848,85.5729 558.7638,86.1679 558.6618,86.7659 L558.864351,87.3016264 C560.128775,90.70479 560.9947,94.28895 558.6748,97.2919 C557.8068,98.4149 556.8518,99.0799 555.6618,99.2779 C553.7538,105.5679 551.3598,111.7409 548.7968,117.6689 L548.045607,119.400137 C544.275491,128.050314 540.254612,136.586837 534.2518,143.9509 C527.6978,151.9909 518.6828,157.4809 512.9738,166.2909 C510.3178,170.3889 508.4698,174.6979 506.9698,179.3259 L506.405531,181.082577 C505.340841,184.355985 504.112467,187.528779 501.0418,189.4489 C500.0618,190.0609 498.5938,189.8659 497.8038,189.0309 C491.5068,182.3699 498.0988,169.9319 501.8958,163.4829 C507.1738,154.5149 514.8128,148.7779 522.4618,142.0119 C530.7068,134.7189 535.9658,124.9629 541.0528,115.3519 C544.1688,109.4639 547.1768,103.4489 550.3438,97.5349 C547.035065,94.6105176 545.975925,88.8016042 544.854942,84.7639504 L544.7528,84.4019 C542.8998,77.9359 541.4278,71.3019 540.4978,64.6389 C539.602741,58.2323118 539.229426,51.9178481 539.466228,45.4754105 L539.534564,43.8342887 M554.9881,62.5587 C554.2571,61.5567 555.4671,60.4217 556.4701,60.6307 C562.568307,61.8916655 568.530409,65.5829378 574.003576,68.5677454 L574.5881,68.8847 C578.9571,71.2407 583.3531,74.1267 585.6471,78.7037 C588.14213,83.6782455 587.936584,89.4078616 587.596316,94.8138679 L587.5641,95.3197 C587.1471,101.8027 587.0801,108.5387 585.7081,114.9047 C585.0061,118.1627 582.0551,119.0807 579.5321,118.3107 C576.5301,127.7897 568.0971,134.7737 561.9371,142.2537 C554.0831,151.7897 555.5611,164.6647 556.3821,176.1497 C556.7141,180.7997 550.9301,182.1217 547.9511,179.6407 L541.085841,173.938478 C539.942544,172.9867 538.800767,172.033033 537.6621,171.0757 C536.686767,170.255033 535.720322,169.428144 534.761878,168.590885 L533.3301,167.3267 C532.6951,166.7587 529.8941,163.6297 529.0751,163.4997 C527.091367,163.184367 522.378418,168.412381 520.765459,170.052108 L520.5611,170.2567 C517.5251,173.2337 514.7821,176.4367 512.2271,179.8337 C511.7571,180.4577 510.8381,179.9397 511.1741,179.2187 C513.463475,174.314637 516.125506,169.625907 519.286262,165.237378 L519.9251,164.3637 C522.0281,161.5297 524.8511,156.5257 528.5631,155.6887 C533.095662,154.667429 537.621514,159.212762 540.919284,161.735494 L541.1281,161.8937 C542.6971,163.0707 544.2481,164.2687 545.7961,165.4747 C545.6341,156.9237 546.7141,148.2837 551.1291,140.9147 C554.2421,135.7177 558.9061,131.8687 562.8971,127.4027 C567.3401,122.4297 569.6601,116.3177 573.6821,111.1387 C574.2001,110.4727 574.9141,110.1137 575.6871,109.9997 C575.841645,105.836064 576.454869,101.631105 576.928723,97.5125475 L577.0661,96.2797 C577.5451,91.8047 578.6771,86.3387 576.4861,82.1477 C574.416467,78.1892 569.667781,75.3950178 566.151316,72.7092 L563.280063,70.4820094 M357.0735,15.2405 C355.2375,16.3025 353.5215,17.6235 351.9645,19.2745 C347.0635,24.4735 343.5595,30.9435 340.1495,37.1675 C338.3135,40.5195 336.5435,43.9085 334.6925,47.2525 C333.8875,48.7075 333.0595,50.1465 332.2225,51.5835 C331.8355,52.2455 330.6855,53.5615 330.1155,54.3725 C330.748852,55.259917 331.403686,56.1337119 332.071657,56.9980561 C332.326513,57.3278359 349.90726,76.4791908 356.0355,83.9745 C365.4195,95.4555 373.8075,107.5825 380.9785,120.5625 C388.0005,133.2735 393.3465,146.7315 399.8515,159.6885 C403.1075,166.1755 406.7435,172.6165 411.3785,178.2305 C411.5575,178.4495 411.7465,178.6565 411.9295,178.8725 C413.698437,174.093656 418.231188,168.976961 420.457428,166.038939 L420.6655,165.7615 C425.7145,158.9555 431.0465,152.3545 436.4945,145.8655 C441.4705,139.940167 446.57292,134.142833 451.79895,128.441193 L453.7645,126.3075 C457.4055,122.3745 462.0305,116.4895 467.3605,113.6795 C466.7895,112.6615 466.1285,111.6545 465.3685,110.6605 C460.3745,104.13475 453.315097,99.3987917 446.349315,95.1254763 L441.83196,92.3775767 C424.804048,82.0007921 408.041402,71.1430854 393.2585,57.6605 C385.4375,50.5265 377.7245,43.0535 371.1505,34.7325 L368.825559,31.7903831 M385.4855,10.1035 C377.5115,10.7725 368.9005,10.6135 361.5315,13.2115 C368.0825,19.4045 374.3095,26.0915 380.7065,32.3885 C381.2755,28.1295 382.4395,23.9225 383.4255,19.7695" id="ðŸ–-Ink" fill="#000000"></path>
    </g>
</svg>