<?xml version="1.0" encoding="UTF-8"?>
<svg width="818px" height="733px" viewBox="0 0 818 733" version="1.1" xmlns="http://www.w3.org/2000/svg" xmlns:xlink="http://www.w3.org/1999/xlink">
    <!-- Generator: Sketch 62 (91390) - https://sketch.com -->
    <title>body/mono/Paper</title>
    <desc>Created with Sketch.</desc>
    <g id="body/mono/Paper" stroke="none" stroke-width="1" fill="none" fill-rule="evenodd">
        <path d="M710.106795,196.566943 C701.390603,162.766961 693.374795,148.436092 677.891199,136.688208 C663.408455,125.6997 642.267048,116.47064 611.419279,109.729097 C579.289723,104.11266 578.378839,87.4168837 570.322797,60.5827946 C567.972615,52.5157285 556.326381,50.3691995 551.299911,56.1837474 C550.591333,55.4190402 549.852561,54.718719 549.087619,54.0857555 C549.772041,50.2384464 544.169239,39.2113154 544.356436,35.5311698 C546.310358,-2.8814969 533.743497,-22.1710003 502.377877,-29.3416157 C495.556813,-30.9017371 449.224509,-31.81998 442.573544,-29.9815131 C413.497715,-21.9441636 384.874652,3.57447072 389.254948,34.315302 C380.127989,46.2405733 371.195445,53.519159 357.114483,57.3615152 C325.778051,61.3395773 294.444639,64.8768432 263.100155,67.9049646 C201.743796,77.5262089 144.217177,109.996546 104.899185,157.351928 C101.272758,161.72324 100.22499,167.656654 103.425666,172.318198 C100.91847,183.054805 86.8052993,209.098433 97.9100354,216.459235 C79.6490705,260.124805 37.6334236,344.525447 37.5475354,368.6377 C37.2234609,469.933662 48.1677025,601.78348 148.144548,657.839882 C152.147406,661.77436 152.720106,666.127842 154.453302,671.982012 C158.848696,690.423143 174.811817,703.602746 192.283684,702.527005 C278.354077,704.439375 361.718847,693.941039 447.79116,693.432444 C485.748823,693.208154 531.396768,698.872562 564.370345,702.646571 C597.343922,706.420579 630.629375,703.082414 662.27279,693.432444 C664.941026,697.63239 670.335877,700.079056 675.808228,698.872562 C708.612139,692.356703 735.139505,672.145453 758.243757,650.055124 C765.304368,637.213591 792.877489,600.625523 781.917689,587.889979 C791.85287,545.897453 791.336535,500.77676 773.681484,460.790104 C776.184178,453.460237 771.622518,445.404977 773.681484,437.8357 C775.171474,432.358122 778.987429,430.092606 780.908168,424.66857 C783.610991,417.035982 780.671605,406.796436 777.628535,399.007838 C776.38148,395.125859 779.923809,390.947713 780.908168,386.98649 C785.577331,368.303664 774.88575,369.950402 767.177958,357.460516 C767.2927,357.421884 769.297162,348.50548 769.288103,348.550055 C770.468248,342.184275 767.511734,334.028787 764.932802,328.715019 C763.189763,325.123571 759.45595,322.875835 755.746044,323.287868 C759.482179,310.606804 764.207281,300.055 769.288103,287.837515 C778.274152,266.301896 789.648631,245.679567 802.551986,226.186468 C807.836121,218.204589 800.739276,208.956784 792.188035,208.41297 C764.510238,206.654738 737.135398,202.670733 710.106795,196.566943 Z" id="ðŸŽ¨-Background" fill="#FFFFFF"></path>
        <path d="M629.3296,359.4257 C618.2596,355.0857 606.3396,352.6867 594.3596,351.7557 C600.8096,350.6257 607.2786,349.5357 613.7996,348.9757 C618.3496,348.5857 622.5686,348.6257 625.9886,352.0767 C628.2696,354.3757 629.3396,357.3357 630.8396,360.0557 C630.3496,359.8357 629.8396,359.6257 629.3296,359.4257 Z M748.1496,318.8457 C730.0196,319.7667 711.8696,324.0767 695.4696,331.8857 C688.7596,335.0857 682.6796,339.7057 680.8996,347.3057 C679.9996,351.1867 680.2196,355.1967 680.6986,359.1167 C681.0596,362.0857 681.1496,365.8757 683.7296,367.8857 C684.1696,368.2257 684.6396,368.4857 685.1296,368.6757 C679.0796,371.4057 673.3186,374.6867 668.1986,378.0657 C663.5196,381.1557 658.7096,385.9157 656.5496,391.2857 C656.3696,390.6757 656.1896,390.1067 656.0096,389.5657 C652.3296,378.6867 646.6596,369.7767 637.7296,363.7857 C639.3096,363.0767 640.3996,361.3957 639.8896,359.0767 C637.7696,349.3857 628.8186,340.9657 618.7096,341.5657 C607.6396,342.2157 595.7496,346.2457 585.7386,351.3357 C582.0896,351.2557 578.4486,351.3057 574.8496,351.4657 C574.2296,351.4857 574.2596,352.3267 574.8496,352.3957 C577.7696,352.7667 580.6896,353.1757 583.6096,353.6557 C590.5496,354.7667 597.4696,356.1757 604.2386,357.9257 C612.3596,360.0267 620.7596,362.1357 628.3496,365.8057 C643.0686,372.9367 652.1796,391.5767 650.3096,407.7957 C649.9996,410.4557 648.9696,418.4957 645.2786,417.6657 C642.1596,416.9657 640.9196,410.4557 639.8296,408.0457 C636.9096,401.6457 631.6496,397.4657 625.3396,394.6357 C617.9296,391.3057 609.9996,389.0557 602.3186,386.4367 C597.9696,384.9467 593.6196,383.4557 589.2596,381.9757 C584.7996,380.4467 580.5596,378.3357 575.8096,379.4057 C572.9396,380.0557 572.6096,383.4757 574.2196,385.4367 C576.6696,388.4257 580.3096,389.3057 583.8396,390.5357 C588.4996,392.1557 593.1496,393.7767 597.7996,395.3957 C604.9886,397.8957 612.5196,400.0057 619.5286,403.0657 L619.3096,403.5657 C618.7386,403.4057 618.0686,403.9757 618.1796,404.6757 C619.2296,411.1457 620.6896,418.6257 619.0686,425.1067 C617.7896,430.2457 613.2786,435.9367 607.4196,434.4257 C608.3396,433.5857 608.6796,432.1357 608.0596,430.7957 C605.7386,425.8357 575.3396,406.2557 572.6296,413.5267 C572.5396,413.7857 572.8186,413.9757 573.0396,413.9367 C575.3496,413.4557 579.2196,417.3957 581.0686,418.6457 C583.7386,420.4467 586.4486,422.2057 589.0896,424.0557 C591.9796,426.0767 594.7996,428.1967 597.5496,430.3857 C599.7096,432.1067 601.3396,433.8957 603.8186,434.7667 C602.5196,435.3857 601.4886,436.5357 601.0496,438.0057 C599.9296,441.8357 597.7696,445.0857 594.0196,446.7767 C590.0896,448.5357 585.6596,447.4257 581.5196,447.8567 C575.8796,448.4257 570.9596,451.1067 566.8496,454.9367 C558.2196,462.9957 553.8896,477.1967 541.8196,481.0057 C534.6096,483.2767 526.6096,481.8457 519.3096,480.8157 C511.1596,479.6657 503.2196,478.7557 495.0096,479.9557 C487.1496,481.1067 479.7196,483.8257 472.5396,487.1457 C465.8096,490.2557 458.3696,493.7767 452.3996,498.4157 C451.1696,494.6257 449.9296,490.8757 448.9886,487.0057 C446.7696,477.8567 445.5696,468.5357 445.2786,459.1357 C445.0096,450.1867 445.5096,441.1967 446.2786,432.2857 C446.6596,427.8357 447.2596,423.4057 447.6396,418.9557 C447.7386,417.8357 447.9396,416.6357 448.0896,415.4367 C458.7496,409.1457 469.9486,404.3267 481.2386,399.3667 C481.2696,399.3567 481.2996,399.3357 481.3296,399.3267 C481.6796,399.1657 482.0196,399.0167 482.3696,398.8667 C482.3596,398.8457 482.3496,398.8267 482.3296,398.8057 C483.6196,398.0167 484.5196,396.9657 485.0596,395.7857 C501.3296,384.9957 514.9296,370.2667 525.0696,353.0857 C529.3196,345.8857 533.4096,338.4157 538.9696,332.1067 C544.8896,325.3757 551.9196,321.3757 560.6196,319.2957 C570.7896,316.8567 581.2696,315.3957 591.6896,314.5657 C597.3796,314.1167 603.7386,313.4157 609.9396,313.4467 C614.2596,313.4757 618.4886,313.8457 622.3696,314.9157 C628.1196,316.4957 631.4796,320.8667 635.0896,325.2857 C638.5396,329.5267 641.9696,333.7767 645.1896,338.1967 C648.2386,342.3857 651.1196,346.7157 653.6196,351.2557 C655.1196,353.9757 656.5096,356.7767 657.6796,359.6657 C658.0896,360.6867 658.6296,361.8457 658.8796,362.9057 C659.1296,363.9757 658.6696,365.1067 659.8696,365.1067 C654.9196,365.1757 654.9696,373.0857 659.8896,372.7957 C679.1496,371.6757 651.5596,334.0767 647.5286,328.8357 C641.8186,321.4157 635.9296,311.7357 626.7896,308.2857 C626.6596,308.2357 626.5196,308.1867 626.3896,308.1457 C629.0496,305.6257 631.1496,302.6067 633.1596,299.5357 C635.2296,296.3757 637.6986,292.7557 638.3796,289.0057 C638.8096,286.6167 635.8396,285.2557 634.4296,287.3457 C632.3796,290.3957 631.3896,294.2557 629.8596,297.6067 C628.2996,301.0057 626.3996,304.2157 624.8996,307.6457 C621.2896,306.5357 617.3896,306.0267 613.4196,305.8567 C618.4296,299.0767 626.9886,285.9957 628.0196,284.3157 C632.7596,276.5357 637.2696,268.5167 641.5796,260.4857 C646.2386,251.7857 650.2296,242.7257 654.6896,233.9257 C657.2196,228.9367 659.7696,223.9057 662.5796,219.0657 C663.5496,217.4057 664.5896,215.7457 665.7696,214.2357 C665.9996,213.9367 666.2896,213.6867 666.5596,213.4057 C666.8696,213.2357 667.1896,213.0457 667.3696,212.9467 C668.9886,212.0167 669.5596,209.8567 670.6986,208.4857 C672.5196,206.2767 674.6596,206.0167 677.3996,205.9857 C683.2386,205.9257 689.0996,206.1557 694.9296,206.3157 C703.4996,206.5557 712.0596,206.8957 720.6196,207.3457 C723.2096,207.4857 725.7896,207.6257 728.3796,207.7857 C740.8296,208.5267 753.2696,209.4957 765.6796,210.6867 C776.6596,211.7357 787.6396,213.4467 798.6296,214.2667 C783.7496,249.6167 767.2496,284.3267 748.5686,317.8267 C748.3796,318.1657 748.2386,318.5057 748.1496,318.8457 Z M665.5896,409.9157 C663.1896,411.0167 660.8596,412.3857 658.6896,413.9467 C659.0496,411.5167 659.1396,408.9557 659.0396,406.3857 C660.8296,408.3057 663.1196,409.4057 665.5896,409.9157 Z M768.0396,349.1067 C767.8696,349.1257 767.7096,349.2157 767.6296,349.3857 C764.3096,356.2357 765.6986,363.8857 771.1196,369.2557 C773.9596,372.0557 780.1496,375.2157 779.9486,379.8157 C779.7786,383.5357 775.7296,386.6557 773.9996,389.7257 C772.3896,392.5857 771.7896,395.7257 773.0796,398.8267 C774.7296,402.7957 779.3396,404.3757 780.9196,408.2767 C782.9196,413.2257 779.6696,419.1967 777.3896,423.5057 C775.2696,427.4957 772.5286,431.4857 770.7096,435.7057 C758.5196,442.0167 747.6096,451.6967 738.2296,461.5267 C727.9596,472.2767 719.1496,484.9257 702.8396,484.6067 C701.2096,484.5757 699.9696,485.4367 699.2296,486.6257 C694.6896,486.8357 690.1396,486.9257 685.5996,486.9467 C677.6196,486.9857 669.6396,486.9057 661.6696,486.6557 C661.1096,484.7257 661.5196,482.1067 661.4886,480.4757 C661.3896,475.2257 661.3396,469.9857 661.1196,464.7357 C661.0596,463.2767 660.9996,461.8057 660.9396,460.3457 C663.8096,465.5357 669.4096,467.8957 675.7896,467.5357 C686.0496,466.9367 696.3696,465.2557 706.5286,463.7457 C711.8796,462.9557 717.2196,462.0557 722.5496,461.0957 C726.9296,460.3157 733.1096,460.5167 736.1696,457.0057 C736.8896,456.1867 736.9296,454.6867 735.7996,454.1357 C732.7696,452.6457 730.8596,453.4757 727.5286,454.1167 C723.4696,454.9057 719.3996,455.6557 715.3186,456.3567 C707.4886,457.7157 699.6396,458.9757 691.7696,460.0857 C687.2896,460.7157 682.7996,461.3357 678.3096,461.8257 C674.3896,462.2457 669.9696,462.8157 666.8096,459.8667 C660.4396,453.9057 664.0096,443.9157 668.0396,437.8957 C668.1196,437.7767 668.1196,437.6657 668.0896,437.5657 C671.8896,436.6757 675.6796,435.6357 679.4596,434.9057 C686.7296,433.5057 694.0496,432.3267 701.3796,431.2767 C716.4396,429.1257 731.5996,427.7057 746.7386,426.2767 C750.4886,425.9157 750.5286,420.0167 746.7386,420.3667 C724.9886,422.3567 703.1296,424.2457 681.6696,428.4367 C676.2896,429.4757 670.9486,430.6557 665.6396,431.9857 C663.1296,432.6067 660.4396,433.5767 657.8096,433.6067 C657.6496,433.6067 657.4886,433.6067 657.3296,433.5957 C652.1796,433.4367 651.4296,429.0267 654.2596,425.3567 C654.6096,424.9057 654.9696,424.4557 655.3396,424.0267 C660.3396,418.0657 666.5686,414.0857 672.9886,409.9657 C680.1796,408.9857 687.3496,406.8057 694.3896,405.2057 C711.7696,401.2457 729.1496,397.2857 746.5396,393.3357 C749.9486,392.5557 748.4996,387.3157 745.0896,388.0857 C731.8896,391.0767 718.6896,394.0657 705.4886,397.0557 L686.1696,401.4367 C682.3096,402.3057 677.4886,404.0557 672.9486,404.6867 C670.7096,404.9957 668.5396,405.0357 666.5796,404.5767 C660.2496,403.0767 659.9296,395.1657 662.6596,390.4657 C665.7196,385.1867 671.4996,381.8857 676.6296,378.8957 C685.5196,373.7057 694.9796,369.9757 704.2196,365.6757 C705.8596,365.3157 707.4996,364.9557 709.1396,364.5957 C718.6796,362.4957 729.5796,361.4657 738.5596,357.6167 C741.2496,356.4757 739.7786,352.2357 737.1196,352.2957 C730.1496,352.4467 722.8596,354.9257 716.0496,356.3957 C708.6796,357.9957 701.2996,359.5857 693.9296,361.1757 C693.1896,361.3357 688.8096,362.7357 688.1496,362.4257 C687.7296,362.2257 687.5796,360.7667 687.4396,359.8057 C686.9886,356.6457 686.6596,353.3267 687.1496,350.1557 C688.2296,343.0457 694.1596,339.7057 700.1596,336.9757 C713.5196,330.9057 728.1696,327.1067 742.7496,325.5857 C746.1096,325.2357 749.4696,325.0167 752.8496,324.9057 C756.8186,324.7857 760.0896,324.0857 762.0996,327.9957 C765.2596,334.1557 766.9996,342.0767 768.0396,349.1067 Z M749.4856,572.4507 C746.5746,562.3827 747.3666,551.6327 745.3726,541.3637 C744.3436,536.0657 742.9386,530.8097 741.4046,525.6377 C740.1666,521.4597 738.1016,517.0157 737.8676,512.6557 C737.8536,512.3647 738.1966,512.1967 738.4326,512.3307 C742.5396,514.6827 745.6936,519.7677 748.0356,523.7577 C750.8396,528.5327 752.9806,533.5327 754.7076,538.7897 C758.1496,549.2627 760.9756,561.8957 756.5366,572.4507 C755.2156,575.5927 750.5756,576.2217 749.4856,572.4507 Z M659.5196,439.0957 C661.9796,438.8567 664.4396,438.3857 666.8996,437.8357 C664.1496,440.5167 661.6096,443.7457 660.1986,447.3267 C659.9796,444.5767 659.6986,441.8357 659.3296,439.1067 C659.3896,439.1067 659.4596,439.1067 659.5196,439.0957 Z M635.8776,648.6667 C631.5396,645.6397 628.3786,641.4077 624.6996,637.6727 C621.0816,633.9997 626.7376,628.3427 630.3566,632.0167 C633.4956,635.2017 636.2206,639.1817 639.9146,641.7587 C641.6926,642.9977 642.5156,645.2387 641.3506,647.2317 C640.3206,648.9907 637.6506,649.9037 635.8776,648.6667 Z M611.6856,532.3197 C619.6046,528.8957 627.3926,525.1667 635.6806,522.7007 C640.6336,521.2257 642.7306,528.9487 637.8076,530.4137 C630.1746,532.6867 623.0156,536.0747 615.7236,539.2267 C611.0416,541.2507 606.9726,534.3567 611.6856,532.3197 Z M528.0556,529.9237 C526.1186,525.1457 533.8616,523.0867 535.7696,527.7977 C537.9666,533.2197 540.4846,538.5027 542.6816,543.9247 C544.6166,548.7027 536.8756,550.7627 534.9676,546.0517 C532.7706,540.6297 530.2516,535.3467 528.0556,529.9237 Z M445.5106,625.3427 C444.2206,627.0627 442.0696,627.9947 440.0376,626.7787 C438.3356,625.7587 437.2966,623.0467 438.6026,621.3057 C442.4156,616.2237 446.2786,611.2027 450.7476,606.6717 C454.3706,602.9987 460.0246,608.6597 456.4046,612.3287 C452.4136,616.3747 448.9166,620.8037 445.5106,625.3427 Z M433.7076,89.9517 C437.3796,92.4597 440.5966,95.5067 443.7336,98.6417 C447.3806,102.2867 441.7226,107.9427 438.0756,104.2977 C435.4326,101.6557 432.7666,98.9737 429.6696,96.8597 C427.8806,95.6377 427.0776,93.3647 428.2346,91.3867 C429.2716,89.6147 431.9226,88.7337 433.7076,89.9517 Z M553.7986,218.6887 C551.7226,222.8457 549.8536,226.9207 549.7356,231.6457 C549.6096,236.7927 541.6096,236.7957 541.7366,231.6457 C541.8896,225.4627 544.1696,220.1007 546.8906,214.6507 C549.1926,210.0377 556.0906,214.0947 553.7986,218.6887 Z M597.8606,115.2957 C602.1616,112.4287 606.1626,119.3617 601.8996,122.2037 C598.4436,124.5067 594.9866,126.8117 591.5306,129.1157 C587.2316,131.9817 583.2306,125.0497 587.4926,122.2077 C590.9486,119.9037 594.4046,117.5997 597.8606,115.2957 Z M406.7456,296.0687 C406.0116,301.1527 398.3036,298.9777 399.0306,293.9427 C400.1556,286.1607 401.5286,278.4817 403.6396,270.9017 C405.0216,265.9417 412.7366,268.0617 411.3536,273.0287 C409.2426,280.6087 407.8696,288.2877 406.7456,296.0687 Z M378.6966,387.7087 C373.5476,387.5997 373.5466,379.5997 378.6966,379.7087 C383.3566,379.8077 387.9376,381.0337 392.4326,382.1557 C397.4326,383.4047 395.3006,391.1177 390.3056,389.8697 C386.5056,388.9207 382.6366,387.7927 378.6966,387.7087 Z M368.3426,572.3087 C366.5736,573.1697 364.7586,573.9447 362.9706,574.7627 C359.3896,576.3997 355.8106,578.0387 352.2326,579.6817 C344.7786,583.1037 337.3286,586.5367 329.8856,589.9817 C314.9856,596.8787 299.9706,603.5327 285.0346,610.3547 C269.8036,617.3127 254.6126,624.3627 239.4406,631.4487 C232.2926,634.7857 225.0906,638.0007 217.9026,641.2507 C211.7566,644.0297 204.1596,648.8857 197.4126,649.3427 C197.0656,649.3667 196.9496,648.9277 197.1476,648.7027 C199.6966,645.8037 203.7626,644.1177 207.1126,642.2337 C210.5346,640.3077 214.0206,638.4967 217.4906,636.6597 C224.7246,632.8267 231.9676,629.0247 239.2716,625.3267 C253.8816,617.9337 268.5196,610.5937 283.1606,603.2627 C298.0926,595.7857 313.0056,588.2587 328.0686,581.0477 C335.1606,577.6517 342.2596,574.2667 349.3626,570.8917 C353.2106,569.0637 357.0606,567.2387 360.9106,565.4167 C362.5736,564.6297 364.2196,563.7807 365.9196,563.0767 C368.1786,562.1417 369.8956,562.3327 372.2256,561.7567 C376.0256,560.8187 377.6706,565.6507 374.7536,567.7547 C372.3516,569.4877 371.0876,570.9697 368.3426,572.3087 Z M314.9356,654.3397 C314.1146,652.3447 315.8336,649.9187 317.7296,649.4187 C320.0006,648.8207 321.8216,650.2007 322.6506,652.2127 C324.8436,657.5477 327.9676,662.4427 331.9886,666.5767 C335.5826,670.2707 329.9286,675.9297 326.3316,672.2337 C321.2926,667.0517 317.6726,660.9957 314.9356,654.3397 Z M275.6446,525.9287 C271.9976,522.2827 277.6556,516.6267 281.3016,520.2727 L291.6696,530.6397 C295.3166,534.2867 289.6576,539.9427 286.0126,536.2967 L275.6446,525.9287 Z M169.2746,509.0257 C161.8206,511.2117 153.1266,513.2217 148.0446,519.5807 C147.7966,519.8917 147.3796,519.4927 147.5286,519.1827 C154.0346,505.6947 172.6926,500.9637 185.6106,496.2387 C194.7476,492.8957 204.1226,490.1237 213.5766,487.6477 C212.6316,476.8627 215.2376,465.3037 216.1436,454.5717 C217.1106,443.1137 217.8976,431.6257 218.3016,420.1317 C218.7146,408.4067 218.8146,396.6027 218.4286,384.8747 C218.0446,373.1897 216.5276,361.6477 215.8636,350.0017 C215.7996,348.8757 217.3676,348.8217 217.7056,349.7527 C221.6316,360.5597 223.3086,372.5307 224.5866,383.9257 C225.9026,395.6647 226.3396,407.3697 226.1716,419.1767 C225.9976,431.3167 225.2916,443.4277 224.3226,455.5287 C223.8636,461.2647 223.3306,466.9927 222.8276,472.7247 C222.4436,477.0987 222.2656,481.4377 221.3736,485.6727 C227.0756,484.2737 232.7906,482.9497 238.4876,481.6627 C256.6536,477.5637 274.8956,473.7597 292.9856,469.3267 C301.8656,467.1517 310.6186,464.5457 319.4586,462.2317 C327.7826,460.0527 336.5686,457.4107 345.1146,456.4387 C348.1646,456.0907 348.5526,460.2627 346.5336,461.6787 C339.5876,466.5557 330.3626,469.9517 322.3396,472.6817 C314.2876,475.4207 305.9176,477.3917 297.6646,479.4207 C280.4536,483.6537 263.0796,487.1147 245.7316,490.7197 C228.4076,494.3207 211.0506,497.8947 193.9216,502.3377 C185.6726,504.4777 177.4516,506.6257 169.2746,509.0257 Z M128.4276,295.0027 C123.9736,297.6177 119.9526,290.7007 124.3906,288.0947 C130.1976,284.6867 136.3866,282.1257 142.6256,279.6277 C147.4136,277.7117 149.4736,285.4517 144.7526,287.3427 C139.1456,289.5867 133.6456,291.9407 128.4276,295.0027 Z M112.2996,592.2177 C107.8336,594.8077 103.8096,587.8917 108.2626,585.3107 C114.5166,581.6857 121.3656,579.2667 127.8466,576.0947 C132.4576,573.8367 136.5076,580.7397 131.8836,583.0027 C125.4036,586.1747 118.5536,588.5927 112.2996,592.2177 Z M105.0456,423.5047 C109.3636,427.6067 115.1266,429.5377 120.5606,431.6927 C125.2986,433.5697 123.2206,441.3037 118.4336,439.4067 C111.6636,436.7217 104.7676,434.2707 99.3886,429.1607 C95.6466,425.6067 101.3136,419.9597 105.0456,423.5047 Z M152.8166,194.3797 C157.5636,196.2417 155.4846,203.9757 150.6896,202.0947 C145.3716,200.0087 139.8796,198.4207 134.5616,196.3347 C129.8156,194.4727 131.8936,186.7397 136.6886,188.6197 C142.0066,190.7057 147.4986,192.2937 152.8166,194.3797 Z M237.0896,103.3717 C242.1336,102.5217 244.2816,110.2317 239.2166,111.0867 C232.9326,112.1477 226.7446,113.3887 220.7846,115.6947 C215.9716,117.5567 213.9066,109.8187 218.6576,107.9807 C224.6186,105.6747 230.8066,104.4327 237.0896,103.3717 Z M264.9346,324.9547 C260.3096,322.6807 264.3676,315.7847 268.9716,318.0477 C273.8236,320.4327 278.8506,322.2767 284.1446,323.4037 C289.1856,324.4777 287.0386,332.1887 282.0176,331.1187 C276.0596,329.8487 270.3906,327.6377 264.9346,324.9547 Z M291.2336,200.1397 C296.2136,198.7757 298.3196,206.4947 293.3606,207.8547 C284.6356,210.2447 275.6526,211.4877 266.8636,213.6147 C261.8546,214.8267 259.7356,207.1107 264.7366,205.9007 C273.5256,203.7727 282.5096,202.5317 291.2336,200.1397 Z M402.7996,160.9717 C407.8636,161.9087 405.7056,169.6177 400.6736,168.6867 C395.3166,167.6957 389.8876,167.6797 384.4566,167.676699 C379.3006,167.6747 379.3096,159.6747 384.4566,159.676699 C390.6266,159.6797 396.7176,159.8467 402.7996,160.9717 Z M766.6596,202.7667 C753.5896,201.5167 740.4996,200.5167 727.3896,199.7667 C726.7786,199.7357 726.1796,199.6967 725.5686,199.6657 C725.4996,199.5267 725.4096,199.3957 725.3186,199.2557 C721.0396,192.9757 717.8896,186.6967 715.1596,179.5957 C712.5496,172.8357 710.0196,165.8667 705.9996,159.7667 C701.4146,152.8167 695.2246,147.3787 688.4406,142.6657 C684.3256,145.4327 680.5066,148.6727 677.0126,152.1067 C673.3356,155.7197 667.6776,150.0637 671.3556,146.4497 C674.4606,143.3977 677.7746,140.5787 681.2776,138.0317 C677.2326,135.5737 673.1056,133.2637 669.0796,130.9657 C653.9886,122.3567 638.5396,114.3957 622.7696,107.1167 C615.4396,103.7257 608.0196,100.7157 600.5496,97.6657 C596.5286,96.0267 592.5596,93.9157 588.5396,92.0167 C588.8296,89.1757 587.9796,85.9957 585.7996,84.1257 C584.1896,82.7557 582.9396,82.2457 581.0196,81.2767 C580.5896,81.1257 580.3296,81.0357 580.2096,80.9857 C580.2996,81.0057 580.5596,81.0857 580.9886,81.2257 C582.0096,81.6967 582.0896,81.5557 581.2296,80.8157 C581.1796,79.1967 577.9886,75.7767 577.2596,74.1067 C574.7196,68.3757 573.9296,62.3157 570.1796,57.0957 C565.0096,49.9057 556.3296,47.1867 548.2386,49.6257 C547.3996,40.9757 547.1796,31.9467 543.9196,24.2257 C543.8296,24.0167 543.5396,23.9257 543.4096,24.1557 C540.0096,29.9467 539.7196,36.3957 539.4596,43.0757 C539.2096,49.3457 539.4486,55.7557 540.2696,61.9857 C539.7496,62.3857 539.2196,62.7667 538.6696,63.1357 C536.0896,64.8357 533.3096,66.1457 530.3896,67.1167 C524.8296,68.9557 518.9996,69.7557 513.1696,70.0357 C498.1196,70.7557 482.6096,69.2357 467.8096,66.6557 C452.8396,64.0457 429.8896,60.1257 416.5696,52.6357 C407.7786,47.6967 399.6696,41.6657 391.4486,35.8257 C394.4296,26.2257 395.1896,15.9057 392.1896,7.7957 C391.8296,6.8257 390.3096,6.6457 390.0196,7.7957 C388.1396,15.5357 387.5896,23.3157 385.0896,30.9657 C385.0496,31.0757 385.0096,31.1967 384.9696,31.3057 C384.1896,30.7767 383.4096,30.2557 382.6296,29.7357 C380.8296,28.5457 378.3796,29.4367 377.2996,31.1357 C360.0286,58.3457 332.6796,59.9057 303.9596,64.7667 C272.5286,70.0857 240.9396,75.8257 210.7196,86.2357 C181.8196,96.1967 154.1996,110.6967 132.3196,132.3567 C127.3666,137.2607 122.7346,142.4857 118.3626,147.9407 C122.5926,148.4737 126.7876,149.3037 130.9286,150.6047 C135.8316,152.1447 133.7246,159.8657 128.8016,158.3187 C123.4796,156.6467 118.0986,155.8197 112.6626,155.4077 C97.7956,175.7457 86.2036,198.8067 76.1796,221.5057 C56.9526,265.0267 44.4376,311.3747 38.6786,358.5617 C41.8406,356.6667 45.0596,354.8617 48.3586,353.1827 C52.9426,350.8517 56.9856,357.7557 52.3966,360.0907 C47.3006,362.6827 42.3506,365.5397 37.5546,368.6377 C35.4596,389.2927 34.6476,410.0807 35.1396,430.8357 C36.3096,480.3157 42.9896,531.2457 58.0996,578.4557 C65.5096,601.6257 75.3296,624.6067 89.9596,644.1867 C96.5796,653.0557 104.0996,661.0557 112.9596,667.7257 C117.2496,670.9657 121.7896,673.8567 126.5796,676.2957 C132.7496,679.4557 140.7896,680.4957 146.1096,684.9657 C147.8596,686.4367 149.2096,688.3757 150.2296,690.5657 C149.6396,694.7257 149.5696,698.8957 150.7096,703.0557 C151.0696,704.3567 152.0496,705.4157 153.2596,705.9257 C153.2796,706.2857 153.2796,706.6357 153.2796,706.9757 C153.2796,707.1357 153.5196,707.1757 153.5496,707.0167 C153.5996,706.7057 153.6496,706.3957 153.6996,706.0767 C154.0896,706.2057 154.4996,706.2667 154.9196,706.2667 C170.1096,706.3237 185.3186,705.9537 200.5286,705.4377 C199.3526,701.8347 198.0786,698.2627 196.8556,694.6597 C195.1946,689.7657 202.9236,687.6847 204.5696,692.5337 C206.0006,696.7457 207.4966,700.9207 208.8276,705.1477 C225.1246,704.5417 241.4166,703.8137 257.6796,703.2767 C292.2696,702.1257 326.8496,701.7457 361.4486,701.0167 C415.1796,699.8777 469.3016,697.5457 523.1156,699.8267 C524.9766,695.8767 527.0596,692.0177 529.0346,688.1217 C531.3646,683.5237 538.2646,687.5767 535.9426,692.1597 C534.5696,694.8667 533.1476,697.5397 531.7966,700.2417 C542.6956,700.8077 553.5836,701.5557 564.4486,702.5767 C582.9886,704.3157 601.3496,707.4057 619.8696,709.3267 C638.6986,711.2857 657.1196,710.9367 675.7996,707.8267 C679.1596,707.2667 681.1396,705.2357 681.9596,702.7157 C681.9886,702.7057 682.0096,702.6867 682.0286,702.6557 C682.9886,701.5357 683.8896,700.6067 684.8186,699.7957 C685.9296,699.0767 687.1296,698.4657 688.5396,697.9257 C691.1696,696.9257 693.9096,696.3157 696.6896,695.9057 C699.7496,695.4467 702.8496,695.4057 705.9096,695.0267 C708.4886,694.6967 711.0096,694.2057 713.5286,693.6067 C718.0596,692.5267 722.3596,691.1167 726.6396,689.2457 C730.3696,687.6167 733.7386,685.2767 736.9196,682.7257 C743.4996,677.9157 749.1986,671.7767 754.1796,665.3957 C757.0796,661.6657 759.8096,657.7957 762.2896,653.7667 C766.6096,646.7857 770.2896,639.5357 774.0096,632.2257 C775.3596,630.0597 776.5916,627.8417 777.7176,625.5767 C770.4476,623.4347 763.1076,621.6887 755.4006,621.5647 C750.2486,621.4817 750.2496,613.4817 755.4006,613.5647 C764.2396,613.7057 772.6006,615.7707 780.9076,618.2307 C781.3126,617.1557 781.7006,616.0727 782.0596,614.9757 C783.0496,612.6867 783.8696,610.3357 784.5496,607.9557 C784.9486,606.8757 785.3496,605.7957 785.7496,604.7157 C786.6496,600.9757 787.5496,597.2257 788.4596,593.4757 C790.2696,587.4757 791.6986,581.3857 792.7496,575.2157 C793.6296,571.1557 794.3096,567.0657 794.7696,562.9257 C796.1696,552.8957 797.3096,542.8857 797.3896,532.7457 C797.2696,526.4957 796.8696,520.2557 796.1896,514.0457 C795.8996,509.8257 795.4096,505.6257 794.7496,501.4557 C793.8896,495.2557 793.0396,489.1167 791.6096,482.9957 C790.5396,478.8567 789.4696,474.7157 788.3996,470.5757 C785.7296,461.9467 782.5796,453.4857 778.9486,445.2157 C778.7496,444.6967 777.7386,443.5557 777.1296,443.5457 C776.6696,443.5357 776.0286,443.9557 776.2386,444.5167 C776.2596,444.5657 776.2786,444.6257 776.2996,444.6757 C776.0896,444.2057 775.8896,443.7257 775.6796,443.2557 C775.4996,442.8157 774.7996,441.9367 774.2596,441.9467 C774.2296,441.9467 774.1986,441.9467 774.1596,441.9557 C774.2996,441.8567 774.4296,441.7257 774.5596,441.5767 C778.1496,437.3267 780.4796,431.7357 783.0496,426.8157 C785.1796,422.7557 787.1896,418.4757 787.7696,413.8857 C788.2786,409.8567 787.5896,405.8857 785.0596,402.6257 C782.1796,398.9157 776.7596,397.1757 779.7696,391.8157 C783.1896,385.7157 788.2196,380.4257 783.2096,373.4957 C780.6596,369.9657 776.6196,368.0267 773.6196,364.9557 C770.1696,361.4057 768.5286,356.6557 768.6196,351.8057 C768.8296,351.9257 769.1096,351.8667 769.2096,351.5657 C772.1096,342.8057 770.0096,333.1867 767.0396,324.6557 C765.4196,320.0267 761.9886,318.7557 757.9996,318.5267 C775.2786,284.7767 791.4486,250.4857 805.8596,215.4057 C806.3396,214.2557 806.8096,213.1067 807.2786,211.9557 C807.9796,210.2357 806.4996,207.9467 804.7896,207.5657 C792.3296,204.8357 779.3496,203.9657 766.6596,202.7667 Z" id="ðŸ–-Ink" fill="#000000"></path>
    </g>
</svg>