<?xml version="1.0" encoding="UTF-8"?>
<svg width="818px" height="733px" viewBox="0 0 818 733" version="1.1" xmlns="http://www.w3.org/2000/svg" xmlns:xlink="http://www.w3.org/1999/xlink">
    <!-- Generator: Sketch 62 (91390) - https://sketch.com -->
    <title>body/mono/Pointing Up</title>
    <desc>Created with Sketch.</desc>
    <g id="body/mono/Pointing-Up" stroke="none" stroke-width="1" fill="none" fill-rule="evenodd">
        <path d="M823.2397,31.1182 C812.9227,2.7012 820.6727,-33.2768 799.4067,-56.7908 C793.1167,-60.6138 789.7807,-58.4868 787.1917,-51.8208 C785.6287,-43.0488 781.9667,-12.8458 795.1367,-12.8598 C796.7937,6.0032 795.7577,25.0032 791.7017,43.5152 C781.982492,41.9558647 774.896216,46.9511279 767.80563,50.6661556 C762.518779,53.4361381 757.229532,55.4943831 750.8447,53.5932 C724.4857,48.9472 716.973556,76.627071 716.653556,99.221071 C716.266556,110.245071 715.2307,135.942896 710.3747,146.639896 C688.3967,101.122896 642.2387,80.4002 598.2577,70.1682 C591.3637,68.2612 585.4807,65.6552 581.0587,61.2012 C544.0027,46.5702 561.8047,-1.3658 544.7567,-28.9158 C518.0727,-61.6678 486.0267,-71.0918 445.6547,-65.4788 C410.3317,-61.5728 386.3207,-25.6918 388.4987,8.1772 C389.1517,15.0882 385.0037,22.3572 382.5637,29.4692 C358.1817,58.6442 320.2427,71.6972 287.6117,89.3262 C178.7747,142.5202 141.0567,183.1712 98.7617,296.3612 C78.9757,338.9482 55.2967,380.2802 47.4327,427.1832 C38.1917,482.4532 38.1627,539.0312 41.3797,594.8452 C35.3737,595.5662 41.9097,638.4722 47.1777,653.3352 C48.9827,658.4292 53.3077,662.1022 58.6967,662.0172 C69.5367,667.2862 94.9877414,688.517212 106.325741,687.813212 C142.958751,685.556958 178.567131,689.045555 213.861013,687.24174 C252.044271,685.290254 289.859431,678.166953 328.2057,679.090908 C395.07747,680.702186 347.200528,684.671732 416.385813,687.813212 C460.060813,689.827212 619.3987,665.9742 662.9497,669.8682 C698.3737,677.3202 714.5347,664.7572 709.1307,627.7502 C707.1327,613.5642 700.7527,582.0172 721.7407,580.6772 C731.6687,581.8292 739.8867,591.7502 747.3257,597.5472 C813.0237,646.4602 880.1407,611.2402 885.4297,530.8302 C895.3867,463.3882 909.3477,447.4552 878.9987,380.1072 C782.9797,129.3922 927.6437,163.4552 829.9697,46.0232 C822.3427,52.6642 824.2817,34.9392 823.2397,31.1182 Z" id="ðŸŽ¨-Background" fill="#FFFFFF"></path>
        <path d="M786.7505,-58.6682 C791.9905,-63.8182 800.3205,-62.5372 805.4305,-57.9582 C810.6305,-53.3082 813.7605,-45.9982 816.4305,-39.6972 C828.4105,-11.3672 825.6205,19.6518 831.6805,49.2918 C842.7705,55.2818 852.7815,63.1018 859.8705,73.6218 C870.6405,89.6018 875.7505,108.2128 870.3505,127.1518 C867.5605,136.9518 862.8205,146.0318 859.4405,155.6218 C855.8305,165.8318 853.6205,176.4418 852.5605,187.2228 C851.5205,197.8028 851.3805,208.4418 851.6805,219.0618 C851.8405,224.5618 852.1305,230.0528 852.4205,235.5418 C852.6805,240.462541 853.552516,245.59656 852.375549,250.417908 L852.2305,250.9728 C852.6905,250.9018 853.1405,250.8118 853.5905,250.7128 C857.4515,249.8518 860.8505,248.5118 864.8805,249.0418 C868.0205,249.4518 869.6505,252.0718 868.3205,255.0318 C867.7405,256.3218 866.9705,257.4018 866.0405,258.3218 C874.1405,318.2228 888.2905,377.1618 897.6005,436.8718 C901.8205,463.9628 904.3905,491.1328 902.9405,518.5618 L902.788303,521.282071 C901.309921,546.465479 897.677942,574.217847 884.8805,596.2418 C878.9005,606.5528 870.6805,615.7018 860.7205,622.2918 C856.1595,625.3118 851.2705,627.6718 845.9605,628.8518 C818.4405,639.8118 789.3405,637.1218 763.3905,622.6328 C751.7205,616.1218 740.0805,608.5318 730.5505,599.1118 C725.9205,594.5318 721.4515,588.7018 718.7105,582.3318 C718.7205,583.7618 718.462062,585.223985 718.7505,586.6328 L719.327759,589.41908 C723.649475,610.118675 740.122,686.6198 740.3405,693.0418 C740.4593,696.5068 711.293692,696.423838 708.128402,696.528565 L708.0405,696.5318 C660.803577,698.500979 613.538173,697.449246 566.32754,695.4977 L562.6005,695.3418 C516.8155,693.4038 466.9925,690.7988 421.1585,689.4628 L421.253739,688.696912 C421.802063,684.578686 424.472376,666.271835 424.769847,664.869192 L424.780724,664.821146 C426.079724,659.586146 428.5855,643.3028 427.2665,637.9008 C423.8693,623.9871 408.5591,627.164945 397.787211,628.639818 L395.518277,628.936945 C393.77493,629.177602 389.531716,629.800422 389.5715,629.8428 C388.427194,628.649883 391.149768,625.266901 391.820198,624.36217 L392.357002,623.617008 C395.251378,619.566418 397.869605,615.358905 397.5835,610.1408 C396.8875,597.3918 378.6705,598.1118 369.7185,598.9948 C369.0875,599.0568 368.8295,600.0428 369.5565,600.1908 L371.322425,600.558812 C377.001821,601.777775 389.616833,604.885133 389.3315,609.5838 C389.1695,612.2538 386.3265,614.2218 384.5895,615.9038 C382.6745,617.7588 380.7715,619.7558 379.3585,622.0328 C376.6385,626.4158 376.0205,632.3288 378.7115,636.8918 C381.815926,642.154504 387.321873,642.769256 392.836366,642.290068 L393.1485,642.2618 C394.362167,642.1478 395.575722,642.031244 396.789204,641.913393 L404.0695,641.2008 C405.8725,641.0258 411.6655,639.5088 413.3575,640.5548 C415.7555,642.0378 412.8715,648.6148 412.3305,650.7808 L412.301812,650.935191 C411.837036,654.071976 411.55854,686.9361 411.5115,689.1068 C375.7925,688.2778 340.0685,680.3358 304.3505,682.2018 C275.9745,683.6838 247.6755,686.2458 219.3525,688.4708 L218.637624,682.390151 C210.787724,616.186303 198.4792,528.82853 204.3865,463.3448 C204.8485,458.2188 196.8455,458.2498 196.3865,463.3448 C190.2785,531.0588 203.6485,622.0188 211.4255,689.0818 C199.3685,689.9968 187.3065,690.8288 175.2305,691.4628 L172.151084,691.620319 C131.05846,693.673882 88.6451341,693.79619 48.4305,684.3718 C47.1905,684.0818 46.7705,682.8418 47.0305,681.8118 C46.6305,682.0418 46.0305,681.9118 45.8605,681.3518 C41.1757747,665.908833 38.7962795,626.590952 36.6732596,609.575592 L36.5305,608.4628 C34.3505,591.9318 33.1005,575.2128 32.2005,558.5818 C30.3805,525.3118 30.6005,492.0018 33.0605,458.7718 C40.8905,352.7818 72.0705,245.7018 137.5105,160.5218 C153.3305,139.9318 171.3405,121.0918 192.9505,106.5218 C214.1505,92.2228 237.9305,82.1518 262.0605,73.9728 C278.0105,68.5618 294.2105,63.9318 310.4105,59.3118 C311.023833,59.0051333 311.637167,58.7029111 312.253463,58.4054296 L313.1805,57.9628 C318.9405,55.2318 324.6105,52.2418 330.5105,49.8118 L331.814402,49.2814862 C340.36401,45.8522521 350.325134,42.8171659 359.5805,42.9218 C374.5705,35.3718 387.1605,23.9628 385.9405,5.6618 C385.4405,-1.8582 397.2405,-1.8482 397.6605,5.6618 C398.7605,25.6418 386.4515,39.8118 370.7605,49.3218 L370.8355,49.39805 L370.9105,49.4818 C373.3605,52.2618 375.9805,54.8418 378.8105,57.2418 C395.7505,71.6618 417.1805,83.6328 438.6005,91.5118 C463.7305,100.7618 488.8405,103.5318 514.8305,96.0528 C528.4205,92.1418 541.2505,86.1118 553.0405,78.3118 C556.6405,75.9318 560.0905,73.3828 563.4005,70.6518 C560.2705,66.3718 557.7705,61.7618 555.6705,56.8718 C551.4515,47.0318 547.9605,33.7018 552.2705,23.3118 C553.3305,20.7518 557.5405,19.1718 559.0105,22.4318 C563.0605,31.3518 564.7505,40.9918 569.4705,49.7128 C571.2705,53.0318 573.3405,56.1818 575.6605,59.1518 C575.6605,59.3118 593.3805,62.3418 593.3805,62.3418 C614.8005,62.3318 634.9705,70.5618 653.9205,80.8418 C665.122167,86.9202167 676.130569,93.3834806 687.107462,99.8564777 L708.5605,112.5118 C710.1405,113.4418 711.9105,114.3418 713.6805,115.3028 C711.6105,105.0818 710.6005,94.6618 711.2805,84.3318 C712.3105,68.7518 718.3705,51.7128 734.4205,46.1618 C742.0105,43.5318 750.7905,44.3418 758.1605,47.2618 C761.5605,48.6118 765.2605,50.4018 768.4205,52.7918 C769.9515,45.9118 776.4005,40.7518 782.8805,38.4728 C784.9805,37.7318 787.1305,37.2618 789.3105,37.0318 C789.2465,35.9278 789.2401,34.811 789.25546,33.66092 L789.2705,32.7918 C789.3705,27.6918 789.3305,22.5918 789.2205,17.5018 C789.0205,7.8518 788.5605,-1.5982 787.5805,-11.2182 C786.762318,-19.1818364 785.340831,-27.0545636 784.285233,-34.9858935 L783.848203,-38.3955175 C782.957821,-45.1120054 781.463943,-53.4767246 786.7505,-58.6682 Z M142.4055,592.5198 L140.617439,591.458329 C134.761551,588.002637 128.729611,584.816041 121.6355,586.4158 C114.8775,587.9388 110.0835,593.4258 107.5645,599.6088 C106.3745,602.5298 105.7535,605.4758 105.2945,608.5878 C105.0365,610.3298 104.8625,612.0868 104.5565,613.8218 L104.454137,614.359158 C104.315589,615.049759 104.103577,616.012185 103.9105,616.8468 C102.0665,616.0348 100.2095,614.7478 98.7005,613.9838 L97.483457,613.371986 C94.627375,611.949988 91.655875,610.5968 88.5435,609.9388 C81.8015,608.5138 74.3225,610.5748 70.4685,616.6148 C67.1721591,621.778709 67.2395465,627.867118 68.5006094,633.655464 L68.5905,634.0588 C69.1375,636.4608 71.9645,646.0798 76.0765,644.6768 C80.0755,643.3118 80.6095,637.9958 80.9125,634.4538 L80.9350045,634.11577 C81.071414,631.444862 80.5419255,625.832736 83.5665,624.8188 C87.3455,623.5528 94.6165,629.3378 97.9075,630.8498 C103.7925,633.5518 110.2575,634.3498 115.0465,629.0918 C119.340267,624.378033 119.702481,617.47763 120.813784,611.499219 L121.100759,609.99315 C121.690284,606.956077 122.830962,602.102838 126.1925,602.2258 C128.9395,602.3278 131.9555,605.1738 134.2195,606.5248 C136.7185,608.0168 139.3135,609.2598 142.0255,610.3198 C148.3545,612.7938 155.3915,613.5838 162.1245,612.8538 C166.0255,612.4318 168.5655,610.5688 169.9445,606.9008 C170.4115,605.8238 170.7675,604.7128 171.0135,603.5638 C173.1995,595.3508 161.2555,589.4878 156.8515,596.8358 C151.7705,596.6428 147.0405,595.2748 142.4055,592.5198 Z M877.4995,537.5978 C873.8575,534.9998 868.9115,535.5588 865.6565,538.4858 L865.462648,538.667232 C864.56042,539.538557 862.526093,541.807281 861.2085,543.8008 L860.796,543.48055 C860.730125,543.428675 860.666,543.377613 860.604094,543.327456 L860.4255,543.1798 C857.7335,540.9048 854.9205,538.8198 851.4565,537.8908 C842.4305,535.4648 834.2275,541.5078 830.2865,549.2558 C828.4175,552.9308 827.6175,556.7258 826.6855,560.6888 L826.606316,561.053878 C826.230464,562.901098 825.741833,566.645133 824.1225,567.5598 C823.5275,567.8958 822.1775,567.2318 820.8415,566.4608 C817.7945,564.7028 815.0595,562.4618 812.0735,560.6088 C805.0675,556.2608 797.1065,554.4648 789.2385,557.5988 C781.4495,560.6998 775.8695,568.0188 775.7385,576.5488 C775.6415,582.8358 779.8515,593.8068 787.7745,593.0408 C789.3615,592.8868 791.4045,591.9098 791.6615,590.0808 C792.3445,585.2268 788.5165,579.2638 792.9065,575.2548 C797.1515,571.3788 801.5495,574.6388 805.3925,577.3268 L808.145918,579.259035 C812.618298,582.365219 817.224256,585.209629 822.8865,585.5488 C830.0505,585.9768 836.6645,582.0208 840.2695,575.9218 C843.5285,570.4098 843.5765,564.1748 846.1245,558.5138 C846.6815,557.2768 848.1175,556.1378 847.6395,555.5678 C849.5705,556.5738 852.0615,559.4718 853.2645,560.2828 C859.2545,564.3248 867.2625,564.2948 872.5135,558.9368 C874.6055,556.8048 875.9375,554.1728 877.4865,551.6618 C878.0465,550.7538 878.7455,549.9138 879.2565,548.9798 C879.443818,548.637073 879.750903,547.361354 880.003405,546.22432 L880.3915,544.4178 L880.432054,544.12262 C880.764213,541.388421 879.798397,539.236283 877.4995,537.5978 Z M646.7845,513.7258 C639.9035,510.1128 631.4205,511.4868 625.2215,515.8648 C618.2705,520.7738 614.8595,528.3148 612.5395,536.2848 C610.8515,542.0878 610.0425,550.0898 605.1915,554.2918 C599.5455,559.1818 590.0805,553.9908 584.1205,552.0628 C576.9095,549.7318 568.2445,548.7768 561.2085,552.2258 C554.3135,555.6068 550.9905,562.5018 550.2785,569.8888 C549.6135,576.7828 550.6015,585.8618 554.5345,591.6308 C554.9215,592.1988 555.6605,592.0528 555.9055,591.4508 C558.4905,585.0858 557.9925,577.8038 560.0915,571.2168 C562.3325,564.1858 567.5845,562.6978 574.2525,564.5898 C581.2075,566.5618 587.5765,570.2538 594.7295,571.5678 C602.3555,572.9688 609.9065,571.5248 615.9185,566.4848 C620.9765,562.2448 624.0395,556.0688 626.1095,549.9158 C628.1265,543.9168 628.4555,535.8858 632.7515,530.9058 C633.8355,529.6488 635.7245,528.1308 637.4785,527.9698 C640.0845,527.7298 641.0265,529.6658 643.1315,531.1508 C648.6845,535.0688 657.5485,535.1478 660.9485,528.2558 C662.0615,525.9988 662.6135,522.7948 660.9485,520.5858 C658.0295,516.7148 655.6325,516.7468 651.7805,517.5838 C651.6581,517.4806 651.52098,517.34732 651.367604,517.168088 L651.2495,517.0248 C650.2305,515.7338 648.2515,514.4968 646.7845,513.7258 Z M374.2475,473.0488 C374.0195,467.8678 367.7825,462.8958 362.8625,466.5158 C362.0685,467.0918 361.2875,467.6848 360.5215,468.2988 L360.2075,468.6378 L360.2075,468.6378 C359.2923,468.6346 358.43854,468.3946 357.534604,468.106216 L355.953188,467.598421 C351.801522,466.281902 347.809967,465.2212 343.3785,466.1928 C335.7535,467.8668 330.9155,474.4448 328.4315,481.4278 C326.1165,487.9348 326.8765,494.5738 325.7905,501.2458 C324.76095,507.571583 321.510329,510.041192 315.406335,508.686004 L315.0935,508.6138 C302.9525,505.7068 289.1195,497.5758 278.4755,508.7228 C266.9765,520.7638 274.4985,539.8878 287.0855,547.6248 C287.6355,547.9628 288.2435,547.4068 288.1185,546.8308 C286.4465,539.0528 281.5675,531.6348 283.2025,523.3788 C284.3355,517.6568 288.3115,514.9488 293.9855,515.8608 C305.9195,517.7808 317.0815,527.2908 329.3215,520.3888 C335.4355,516.9388 338.8045,510.4608 340.3275,503.8248 C341.6995,497.8518 341.3105,491.1168 343.9395,485.4828 C346.8155,479.3178 351.6595,483.7878 356.8795,484.6288 C364.2645,485.8198 374.6405,481.9468 374.2475,473.0488 Z M774.624661,288.8158 C774.6485,283.6678 766.6485,283.6618 766.6245,288.8158 C766.3295,354.0368 735.8175,414.3228 730.3365,478.8958 C729.9025,484.0258 737.9045,483.9968 738.3365,478.8958 C743.8195,414.3038 774.3295,354.1418 774.624661,288.8158 Z M114.0235,395.5768 C109.8115,390.8068 103.6415,392.2868 98.6295,394.6768 C91.1015,398.2658 83.8975,402.3008 76.9915,406.9648 C75.2925,408.1108 76.3635,410.6038 78.3635,410.2208 C83.4285,409.2468 88.3585,408.1558 93.2725,406.5758 C96.9655,405.3898 100.8095,403.6668 104.6605,403.0558 C104.4195,403.9418 104.1265,404.8098 103.7815,405.6618 C103.1495,407.4098 102.4155,409.1208 101.7925,410.8748 C100.553071,414.3668 99.4363367,417.908759 98.3535029,421.454077 L97.8145,423.2268 C95.5635,430.6588 93.3765,441.4758 103.7645,443.7638 C107.618694,444.611348 111.438757,442.932396 115.024116,441.611937 L115.7625,441.3448 L128.8405,436.7098 C130.3985,436.1578 133.2845,435.7728 134.5765,434.8048 L134.36994,435.797888 C134.10226,437.11504 133.8397,438.408 133.2725,439.7208 L132.95601,440.445234 C129.707452,447.810154 125.611722,455.178721 129.4005,463.3198 C132.6465,470.2948 140.3195,473.6048 147.7135,471.6248 C154.7405,469.7438 159.8255,461.8308 156.1875,454.9478 C154.832023,452.381482 150.865406,451.126464 148.344948,452.729317 L147.668156,453.179597 C146.874295,453.698327 145.507727,454.587209 145.4745,454.7518 C145.2865,454.8008 145.0895,454.8498 144.8895,454.8988 C145.3135,453.6508 145.5995,451.7328 145.9715,450.8828 L147.340186,447.775096 C149.886299,441.935306 152.093142,435.993272 150.1505,429.4428 C144.5875,410.6868 125.7225,421.3508 111.8065,426.7028 C112.0095,425.9108 112.2105,425.1278 112.3805,424.3608 C112.9805,421.64505 113.63675,418.944488 114.285969,416.241394 L115.617236,410.662629 C116.815504,405.521961 117.74825,399.796729 114.0235,395.5768 Z M826.0115,374.6428 C826.0235,374.1988 825.4775,373.8588 825.0945,374.1168 C816.1975,380.0978 810.2455,392.5858 813.5885,403.2248 C815.2115,408.3908 818.6635,412.9218 823.5095,415.4298 C829.534812,418.54605 836.187664,417.360054 842.518012,416.026292 L845.206772,415.451424 C847.10178,415.05312 848.9717,414.7608 850.9005,415.2928 C851.5625,415.4758 852.3305,416.0528 852.9595,416.1768 C852.6995,416.6188 852.4235,417.3858 852.2835,417.6698 L851.825016,418.592534 C851.364562,419.528112 850.9155,420.49955 850.6335,421.4828 C849.6875,424.7778 849.9215,428.3158 851.4535,431.3908 C854.3075,437.1188 860.2935,440.3478 866.5255,440.8958 C870.2385,441.2248 879.5935,437.9738 881.8055,441.9128 C886.1955,449.7308 898.6965,444.4728 896.2665,435.8158 C894.6235,429.9628 889.9625,426.1808 884.1875,424.5978 C881.1105,423.7548 877.9255,423.8688 874.7965,424.2138 C873.5709,424.349 872.34914,424.5386 871.122004,424.668936 L870.2005,424.7538 C870.4405,424.7348 867.6575,424.6678 866.5395,424.5938 L866.778019,423.952763 C866.813056,423.861578 866.845167,423.782467 866.8735,423.7218 C868.1175,421.0608 869.0395,418.4098 868.9645,415.4368 C868.8275,410.0758 865.3575,405.3988 860.7985,402.8178 C856.5955,400.4368 851.5905,399.4868 846.8125,400.0178 C841.5605,400.6018 834.0965,404.7618 828.9315,402.5698 C825.0405,400.9178 823.7195,395.1568 823.6595,391.3818 C823.5695,385.6958 825.8535,380.3068 826.0115,374.6428 Z M463.6335,337.3498 C449.3195,330.9258 437.0275,341.8978 428.6275,352.3958 C428.1945,352.9378 428.7395,353.8498 429.4225,353.4278 L430.538131,352.732123 C437.396435,348.4309 445.001052,343.348714 453.4995,344.8138 C461.194341,346.140293 463.099712,351.174921 461.568285,358.035929 L461.11847,359.965503 C459.491153,367.031127 458.243286,374.343229 462.2965,380.9138 C466.1235,387.1178 473.5905,389.8288 480.5835,389.9948 C488.650218,390.185774 495.612812,386.433993 502.988336,383.816958 L503.5715,383.6128 C506.7035,382.5318 518.1305,379.7058 518.2885,386.1418 C518.3625,389.0828 515.2125,392.5398 514.0015,395.1838 C512.4165,398.6438 511.3615,402.2778 511.3805,406.1198 C511.4275,415.7008 519.4215,423.4828 528.8805,418.8348 C532.5575,417.0268 533.5055,411.8418 531.5875,408.5098 C528.886735,403.813486 527.793099,404.057639 529.68573,399.126204 L530.232012,397.738105 C532.560444,391.79534 534.415153,385.677412 531.7985,379.4408 C526.5725,366.9838 510.9025,365.4748 499.7075,369.5998 L499.298556,369.754643 C492.330431,372.454125 471.46186,383.26966 472.9005,367.9748 C473.4665,361.9498 475.2945,356.1718 474.0165,350.0808 C472.8285,344.4248 468.8815,339.7048 463.6335,337.3498 Z M394.6605,286.1908 C392.0475,281.5898 383.2755,283.2358 384.0025,289.0768 L384.235249,290.894781 C384.53261,293.383124 384.597855,295.720897 382.8785,297.9338 C380.7925,300.6198 377.2215,301.4318 373.9805,301.0208 C367.1185,300.1518 362.7425,293.7898 355.1905,295.2758 C349.0605,296.4818 344.8275,301.4978 342.3765,306.9668 C339.7815,312.7588 339.8365,319.0378 337.9035,325.0018 C335.6775,331.8608 330.9305,331.5448 325.0025,329.1448 L323.726579,328.620441 C318.055543,326.262802 312.36557,323.643288 306.0465,324.7698 C295.5515,326.6428 286.5135,342.7798 296.3465,350.5718 C298.1215,351.9778 301.2235,351.2438 301.1485,348.5838 L301.138693,348.07974 C301.088877,343.23917 302.310144,336.992766 307.8575,335.8518 C313.7405,334.6418 320.3875,340.0098 325.8505,341.5558 C339.9995,345.5578 348.0595,334.9088 350.4625,322.3138 L350.550272,321.831237 C351.31753,317.422459 351.9235,309.264909 356.5345,307.2008 C358.9935,306.0998 361.6165,308.8088 363.6715,309.8998 C366.8645,311.5938 370.2905,312.6698 373.9025,312.9448 C387.2645,313.9638 402.4475,299.9108 394.6605,286.1908 Z M729.0345,268.7938 C724.6315,266.8868 718.0655,267.9478 716.9895,273.6938 L716.337194,277.309624 C715.057877,284.293627 713.020852,293.026025 706.1555,295.5418 C701.8615,297.1148 696.9305,294.3578 693.0795,292.6768 C688.4545,290.6558 683.9455,288.9228 678.8805,288.4428 C668.6035,287.4688 660.9485,293.4148 657.3135,302.7068 L656.99642,303.53435 C654.064678,311.341937 650.102347,326.274506 656.5215,332.6078 C657.4585,333.5328 659.3475,333.9838 660.4975,333.1208 C664.290139,330.275106 665.249965,325.598528 666.551986,321.212945 L666.6645,320.8378 C668.0465,316.2828 669.1795,311.2668 671.6745,307.1628 C676.3125,299.5358 688.4135,308.2448 694.2345,310.2558 C703.7935,313.5588 713.7065,311.6288 721.0115,304.5638 C725.6255,300.1008 728.3535,294.4518 730.2295,288.4728 C731.4275,289.0918 732.6705,289.6278 734.0095,289.9898 C739.1095,291.3708 745.1595,290.6428 749.0425,286.7788 C756.3305,279.5278 752.3775,266.5208 741.2655,268.6238 C739.0775,269.0378 737.6415,271.1278 737.3815,273.2628 L737.2325,273.5998 L737.2325,273.5998 C734.4365,272.6758 731.3795,269.8088 729.0345,268.7938 Z M214.1185,204.0098 C203.7365,193.3288 185.7195,199.1188 178.6185,210.4488 C177.1455,212.7978 179.5785,215.7758 182.1645,215.0618 C188.3455,213.3588 197.0675,206.6548 203.5995,210.9218 C208.4415,214.0848 205.8075,222.3518 205.3645,226.9768 L205.300674,227.666473 C204.740186,233.962234 204.613107,242.576336 209.5165,247.2888 C212.339329,250.001532 216.667977,249.635031 220.390218,249.247397 L221.5735,249.1248 C225.9615,248.6838 230.3205,247.9098 234.5235,246.5598 C238.3875,245.320108 242.048707,243.634782 245.679371,241.849896 L246.5865,241.4018 C248.1935,240.6048 253.5525,237.4438 255.1575,239.4298 C255.9945,240.4658 253.9205,245.0038 253.4895,246.0158 C251.8615,249.8218 249.7915,253.4058 248.2985,257.2798 C245.6675,264.1048 245.4475,271.8048 249.1425,278.3178 C252.7225,284.6288 260.4795,289.7418 267.3545,284.8938 C271.2905,282.1178 271.2795,277.0678 267.3545,274.2898 C265.2775,272.8198 263.1835,271.8508 262.3255,269.3848 C261.2055,266.169345 262.646657,262.75885 264.041909,259.782163 L265.712045,256.241719 C269.412215,248.334987 273.108731,239.241108 267.9395,231.1588 C262.6015,222.8138 251.7525,222.6818 243.5455,226.1578 C238.8615,228.1418 234.5875,230.8028 229.7065,232.3378 C226.3295,233.4008 222.9395,234.1108 219.4805,234.4998 C218.7095,230.3378 219.8005,225.6788 219.8115,221.5438 C219.8295,215.2628 218.6595,208.6818 214.1185,204.0098 Z M749.4805,55.4318 C731.9605,52.8618 723.4805,68.5318 722.2705,83.6218 C721.1805,97.3218 723.4005,111.0618 726.8705,124.3828 C728.1705,129.3218 729.6305,134.2018 731.1605,139.0018 C733.6205,146.7128 736.2905,154.4118 739.5405,161.8318 C740.5305,164.0718 741.5305,166.3218 742.6505,168.4818 C746.486864,171.627255 749.769508,175.864445 752.753881,179.936421 L754.714574,182.626319 L754.714574,182.626319 L755.2405,183.3518 C760.3105,190.2918 764.6405,197.4918 768.1805,205.3218 C771.551929,212.778943 774.061679,220.553546 776.012095,228.490119 L776.491707,230.471467 C777.992097,236.578764 780.20425,243.868925 777.5305,249.5528 C782.7805,251.1718 788.0005,252.6418 793.5805,253.4218 C801.2805,254.5018 809.2905,254.5718 817.0605,254.2918 C824.568,254.0168 832.067097,253.430897 839.542387,252.634225 L844.927907,252.041356 C845.486056,251.977911 846.043833,251.912133 846.6005,251.8418 C846.3905,251.5818 846.2105,251.2918 846.0805,250.9728 C844.161571,246.372193 844.409186,241.037936 844.196195,236.089932 L844.1705,235.5418 C843.8905,230.0528 843.7205,224.5618 843.6505,219.0618 C843.5205,208.7418 843.8005,198.3918 844.9305,188.1218 C845.9095,179.1328 847.4405,170.1418 849.8305,161.4118 C852.2405,152.5618 855.9205,144.2518 859.3205,135.7518 C862.6805,127.3518 865.4515,118.7228 865.1505,109.5618 C864.9605,103.7418 863.6805,98.0818 861.5105,92.7318 C861.4095,92.8118 861.2815,92.8718 861.1305,92.8618 C854.3205,92.6118 847.8705,90.6418 841.2905,88.9818 C834.3105,87.2128 827.1605,85.7618 820.0205,84.9018 L818.502923,84.7240315 C812.55194,84.0558824 806.069184,83.7304842 800.5705,86.2818 C794.6205,89.0528 790.8705,95.2128 788.6105,101.1218 L788.358556,101.802914 C784.343288,113.00618 785.2639,127.96 797.6805,133.2618 C801.5305,134.9118 810.3205,135.9218 812.3005,130.7018 C813.1905,128.3218 811.3605,124.8028 810.6705,122.5528 C809.8605,119.8718 809.3305,117.2318 809.3905,114.4318 C809.439029,111.976212 811.315119,110.12353 813.702128,109.92524 L813.9205,109.9118 C818.2605,109.7228 827.2105,104.7228 828.0805,111.9218 C828.2505,113.3218 827.1805,114.7918 826.0505,115.4728 C823.7705,116.8218 821.3905,117.7228 818.9105,118.2718 C819.2505,119.7718 819.7305,121.2418 820.2015,122.7018 C820.4805,122.5618 820.7905,122.4728 821.1205,122.4418 C824.7905,122.1418 828.4205,122.7228 832.0905,122.7618 L834.096617,122.775792 C836.944903,122.804041 839.428278,122.956985 842.1905,124.4318 C844.7405,125.7918 844.2905,129.2018 842.1905,130.6618 C836.6805,134.4818 827.3505,132.2418 821.6105,128.3618 C821.8605,130.3318 821.7405,132.3418 820.9005,134.4518 C818.4205,140.7128 811.3105,143.8318 804.9515,144.1018 C799.3005,144.3418 793.9005,142.5618 789.3905,139.4418 C788.4705,142.7318 786.9905,145.8918 786.3505,149.3028 C785.5105,153.7818 786.5105,159.0218 784.9515,163.2318 C783.3905,167.4728 777.3605,170.3118 773.8705,166.1518 C768.7605,160.0718 770.3505,150.4418 774.8405,144.2818 C777.2305,141.0218 781.5705,137.2818 785.9905,136.6918 C782.9205,133.8028 780.4605,130.2318 778.9105,126.2918 C778.8005,126.3418 778.6705,126.3518 778.5305,126.3118 C764.1605,122.3828 756.3405,109.3618 755.8605,95.6918 C754.8005,96.4518 753.7015,97.1328 752.5505,97.7418 C749.8005,99.2228 746.2705,97.9218 745.4205,94.8518 C744.6405,91.9918 746.9105,88.4628 750.1005,88.7018 C751.9205,88.8518 753.7505,88.8618 755.5605,88.5618 C755.8105,88.5218 756.0505,88.4728 756.3005,88.4218 C756.4605,87.3718 756.6705,86.3218 756.9305,85.2818 C751.5005,85.9018 745.8205,85.0118 740.5705,83.8518 C736.0505,82.8618 737.1005,75.6718 741.6505,75.8418 L742.381456,75.8737117 C748.351361,76.16036 757.16466,77.1242 762.2805,73.3418 C763.1805,72.0418 764.1805,70.8118 765.2605,69.6518 C765.4005,69.3618 765.5205,69.0528 765.6305,68.7318 C768.3805,60.8118 755.3505,56.2918 749.4805,55.4318 Z M592.2085,166.8508 C585.3875,165.0268 578.2095,167.5118 573.5185,172.6618 C569.576652,176.990689 567.535278,182.306615 565.710535,187.740664 L564.669204,190.86701 C563.152518,195.293094 561.410875,198.805237 555.9915,197.1178 C549.0455,194.9548 543.0245,191.1868 535.4715,191.4838 C528.6055,191.7548 521.8865,194.7078 517.1065,199.6578 C512.21728,204.72048 509.882724,211.77503 510.920728,218.725414 L510.9885,219.1508 C511.5295,222.3528 516.2125,233.7808 521.1765,228.5198 C523.3915,226.1738 522.9545,223.5768 523.4805,220.5958 C523.9805,217.7558 525.0505,214.9708 526.8035,212.6678 C529.9115,208.5858 534.9105,206.9948 539.7975,208.4388 C546.2435,210.3438 551.9365,214.2708 558.8805,214.3628 C566.1855,214.4608 572.3875,210.6728 576.4165,204.7258 C579.6695,199.9248 580.8295,194.3058 583.1185,189.0858 L583.338881,188.587861 C585.260741,184.29257 586.570851,182.741979 590.972995,184.795697 L592.510956,185.533317 C599.101398,188.665012 606.515331,191.531262 613.3295,187.1158 C619.6605,183.0148 622.3595,174.7728 617.0345,168.7718 C614.0965,165.4588 607.2955,166.0228 605.3865,170.2728 C605.0515,171.0038 604.7405,171.7448 604.4345,172.4878 C603.8515,172.3098 603.2845,172.0938 602.7465,171.7918 C599.1745,170.1818 596.0725,167.8848 592.2085,166.8508 Z M393.0895,118.3308 C385.30909,114.13815 378.813591,122.384929 380.056462,129.831408 L380.116648,130.157902 C380.162528,130.3823 380.267667,130.873133 380.3985,131.4348 C380.0015,131.3868 379.6085,131.3168 379.2165,131.2168 L377.408847,130.995753 C374.567538,130.665482 371.812717,130.4938 368.9685,131.4058 C362.2555,133.5598 358.9545,140.0848 358.7925,146.7718 C358.6315,153.4358 362.0795,158.8108 363.0925,165.1768 C364.128864,171.687138 357.39018,169.828169 352.990917,169.351861 L352.8185,169.3338 C346.6985,168.7148 340.2645,168.7038 335.1785,172.6928 C329.9255,176.8118 327.5985,183.9298 328.3405,190.4468 C329.0105,196.3328 332.6935,205.3918 339.3655,206.3218 C340.0245,206.4138 340.7745,206.2688 341.1125,205.6108 C343.8105,200.3648 340.0565,194.5718 340.4805,189.0368 C340.9475,182.9498 344.8285,181.9368 350.1795,182.3308 C355.3725,182.7128 360.5525,183.8148 365.6815,182.2658 C371.2455,180.5838 375.2835,175.8098 376.4255,170.1778 C377.6845,163.9708 375.3705,158.1958 373.8695,152.2968 C373.3705,150.3378 373.1255,148.3668 373.4695,146.3638 C373.5435,145.9308 373.9195,145.5308 374.0555,145.3598 C374.9095,145.1998 376.1875,145.6088 376.9185,145.6868 L377.955536,145.789076 C383.590475,146.298166 389.019019,145.956742 393.0455,141.3008 C395.109071,138.915157 395.870857,135.999502 395.665303,132.922351 L395.561639,131.679424 C395.451636,130.484306 395.240944,128.9068 394.6195,128.2488 L394.6115,128.2168 L394.6115,128.2168 C394.82,127.93705 395.017812,127.649425 395.199031,127.350972 L395.3745,127.0488 C397.1005,124.1718 396.0995,119.9528 393.0895,118.3308 Z M791.7015,45.3418 C783.9515,45.3418 776.6305,47.8718 770.7705,54.7618 C772.8605,56.7518 774.5305,59.0618 775.4515,61.7718 C778.3205,60.2018 781.3605,58.9728 784.4705,58.1018 C793.9605,55.4518 806.9405,55.4918 814.9205,62.0018 C819.1005,65.4018 814.5105,71.5018 810.0105,70.4518 C805.9805,69.5118 802.4805,67.7718 798.2505,67.5718 C794.5805,67.3918 790.9805,67.8718 787.4605,68.9318 C782.0905,70.5528 777.2105,73.6218 773.6205,77.8518 C772.4205,79.2718 771.3705,80.8118 770.4905,82.4728 C763.7905,95.1918 768.8405,113.4318 778.0905,123.9018 C774.4605,111.8418 778.0805,97.6218 785.3105,87.6328 C794.014848,75.6049739 807.033847,74.2414791 820.749101,76.1187478 L821.2015,76.1818 C834.4705,78.0528 850.9005,81.3218 860.8205,91.0718 C859.8305,88.8218 858.6905,86.6418 857.4095,84.5318 C849.8905,72.1518 837.4205,62.4918 824.4805,55.6018 C822.3105,54.4318 820.1205,53.3518 817.9405,52.3518 C809.6505,48.5418 800.4105,45.3418 791.7015,45.3418 Z M795.9405,-49.1382 L795.91013,-48.9974593 C795.903833,-48.9715333 795.897167,-48.9448667 795.8905,-48.9182 C795.432318,-44.8518364 796.513992,-40.1841091 797.065538,-36.0804708 L797.1405,-35.4982 C798.3005,-26.1582 799.8305,-16.8082 800.3305,-7.3982 C800.817318,1.65089091 800.62988,11.0371099 799.542053,20.0472696 L799.3805,21.3318 C798.7405,26.2418 798.3605,32.0018 796.7015,37.0418 C803.0805,37.6518 809.4605,39.7018 815.2605,41.8828 C817.3405,42.6718 819.4105,43.5018 821.4705,44.3828 C818.8905,30.6718 817.5105,16.7618 814.7105,3.0918 L814.159477,0.371296296 C811.115669,-14.750603 808.258425,-29.9698981 800.3905,-43.4982 C799.3405,-45.2982 798.2105,-46.8082 796.9305,-48.4182 C796.6505,-48.7872 796.3205,-49.0272 795.9405,-49.1382 Z" id="ðŸ–-Ink" fill="#000000"></path>
    </g>
</svg>