<?xml version="1.0" encoding="UTF-8"?>
<svg width="818px" height="733px" viewBox="0 0 818 733" version="1.1" xmlns="http://www.w3.org/2000/svg" xmlns:xlink="http://www.w3.org/1999/xlink">
    <!-- Generator: Sketch 62 (91390) - https://sketch.com -->
    <title>body/mono/Polka Dot Jacket</title>
    <desc>Created with Sketch.</desc>
    <g id="body/mono/Polka-Dot-Jacket" stroke="none" stroke-width="1" fill="none" fill-rule="evenodd">
        <path d="M456.905735,-38.9088304 C486.037987,-37.471208 531.397906,-24.9820863 533.66567,-17.0000671 C537.206747,-4.53627278 529.597306,42.1911376 542.3247,67.3602 C547.75022,78.0894398 568.352294,77.127543 576.335177,80.6218 C603.044613,92.3130192 682.116274,114.485883 698.419497,142.405561 C704.951039,153.59099 745.090476,292.3806 766.419067,363.187 C768.823674,371.169785 771.539553,378.552758 774.49216,385.390673 L775.577262,380.077403 C784.27354,337.281942 788.621678,311.374573 788.621678,302.355294 C788.621678,288.26267 777.379992,228.803128 788.621678,213.682321 C799.750948,198.712722 826.571862,186.472836 838.63888,186.229535 L839,186.225844 C846.923133,186.225844 853.797966,183.749229 859.624498,178.796 L868.167231,174.499823 C911.625985,152.692648 937.016475,140.730633 944.3387,138.613781 C956.023102,135.235824 975.908722,142.432556 965.965912,153.23661 C959.337372,160.439313 942.680651,173.180975 915.995747,191.461597 L905.934079,199.456092 L907.149638,200.091078 C920.153348,206.936747 927.79935,212.698699 930.087645,217.376932 C932.446348,222.199111 931.314557,227.903192 926.692271,234.489175 L927.393428,235.172755 C933.238653,240.909124 936.161265,244.756913 936.161265,246.716123 L936.161265,256.286886 C941.97633,264.803127 943.430096,271.905361 940.522564,277.593587 C937.615031,283.281813 933.004934,288.210818 926.692271,292.3806 C922.040707,304.616578 916.501272,313.325169 910.073967,318.506374 C903.646662,323.687578 892.538522,328.000703 876.749547,331.445747 L862.461904,365.608 L850.8847,413.602442 L845.051093,467.155674 L846.744831,468.381884 C854.595673,474.099914 859.624498,478.338686 859.624498,482.719147 C859.624498,489.542772 827.947772,650.021631 778.664233,657.204238 C768.005591,658.757634 712.728862,651.138605 694.579346,636.374431 L694.847265,637.969065 C699.117678,663.761727 698.214287,677.156214 692.137092,678.152526 C617.449814,690.396965 405.332883,694.180172 55.7862981,689.502147 C53.7066456,503.980638 63.1103844,380.426139 83.9975144,318.838648 C137.417503,161.32524 196.315556,107.526404 216.920943,102.918686 C234.970256,98.8825496 297.558871,73.9717406 315.054883,67.3602 C326.475672,63.0444159 328.922447,50.1047458 341.936997,50.1047458 L342.989081,50.1101287 C355.575393,50.2365276 366.736682,52.4874342 373.00746,46.0144 C389.463802,29.027281 384.863521,5.51392428 391.69054,-17.0000671 C395.452162,-29.4050602 421.156852,-40.6729712 456.905735,-38.9088304 Z" id="ðŸŽ¨-Background" fill="#FFFFFF"></path>
        <path d="M376.8699,5.5712 C378.5799,2.1832 383.1189,2.6222 386.1139,4.1592 C395.0969,10.7262 385.6979,23.4552 383.2129,31.4692 C376.8209,47.0132 365.7189,62.2042 350.3929,69.4692 C351.6629,84.9212 353.1019,100.3392 353.6329,115.8392 C373.2279,140.1442 406.2649,149.0152 435.5919,155.8372 C481.6529,168.5752 533.6369,142.4772 549.1829,96.9482 C531.4899,86.8952 525.7639,60.5732 531.0429,42.2092 C531.5019,40.9192 533.5019,40.3492 534.2129,41.7892 C539.0579,51.7542 538.4119,63.9112 543.9199,73.7562 C596.7879,78.8172 665.0179,98.7652 699.6529,141.5192 C715.0019,162.9092 721.0819,190.7292 728.6419,215.5192 C744.7719,266.6272 757.6239,318.7692 773.4429,369.9292 L775.308212,360.249049 C780.418633,333.583462 785.062522,306.556173 781.6109,279.4382 L781.549136,278.14063 C780.421482,256.562913 773.66842,216.4649 790.4029,201.8972 C805.5399,190.3302 827.4679,181.0352 846.4629,186.3672 C880.2659,171.3252 909.4419,145.9952 945.4429,136.1292 C956.5229,133.8492 972.4629,136.5492 969.8439,151.5802 C962.5859,177.8692 932.1909,188.0732 911.4129,201.6292 C924.7319,205.2382 940.9689,221.4352 930.5629,235.5592 C930.4729,235.8092 930.3929,235.9992 930.3129,236.1492 C938.7519,239.8892 939.9339,249.2892 937.8629,257.3492 C937.6529,259.4792 937.0929,257.6492 938.3439,259.5792 C947.8659,268.5592 943.6569,293.5922 929.3129,294.4382 C930.2519,306.2992 922.6329,317.8192 912.9829,324.2892 C902.5819,331.2592 887.5429,331.5592 878.9319,341.0992 C858.7149,376.7472 851.7409,418.8312 849.5369,459.6532 C862.8639,464.6412 874.8209,479.5582 862.7129,492.2132 C862.4739,492.2412 862.2349,492.2692 861.9929,492.2892 C854.9739,511.0202 852.2639,530.9872 848.5519,550.5492 C842.8409,583.9282 827.9579,614.5752 808.9529,642.3812 C786.9749,679.1882 727.8759,673.3532 698.1029,649.5992 C698.2219,655.8312 699.2489,662.0262 697.2529,668.0482 C694.3069,674.5472 687.1239,671.7392 686.4129,665.3392 C670.6739,674.1902 666.9669,644.9742 684.4629,649.6082 C683.1169,628.4872 682.3369,607.3362 681.7039,586.1792 C661.8959,592.5902 661.0419,559.7282 681.3029,566.2992 L681.278876,557.214305 C681.129907,487.552438 681.899608,417.652283 691.0929,348.5392 C691.9429,343.3692 693.3829,338.3692 694.2229,333.2292 C694.3129,332.6982 695.1429,332.8492 695.1459,333.3582 C696.5689,430.1182 690.2449,527.0852 696.8429,623.8792 C702.3359,625.5532 704.5259,631.8562 708.5929,635.5282 C717.6219,643.8642 729.9179,647.9232 741.9419,649.3372 C775.6119,654.0582 790.1489,643.7752 805.1429,614.5092 C798.38021,619.02855 789.241758,611.047705 793.363911,603.895661 L793.4929,603.6792 C797.7739,596.1002 809.8629,600.6422 808.3319,609.1292 C823.4069,584.9892 831.2969,557.7682 837.1239,530.1492 L837.912212,526.849582 C840.744734,515.12424 844.420726,501.687852 851.2229,491.0792 C809.7409,480.5072 769.1629,448.2962 762.6719,404.1032 C752.1399,437.1922 737.8719,469.5372 724.2729,501.7192 C720.0729,512.9092 718.3229,524.9382 712.3029,535.3192 C710.9029,537.7192 707.3529,537.0992 706.5609,534.5682 C701.1469,510.3622 717.5529,487.3382 726.0709,465.5482 C733.0269,453.2332 752.9929,396.9962 765.3719,396.8602 C751.4619,335.8922 732.9089,275.3802 715.2399,215.1712 C698.1549,133.8732 663.3379,118.1962 589.5799,92.5992 C602.8839,160.3952 663.6239,226.0202 631.3029,297.1292 L630.516893,298.973307 C627.211045,306.814083 624.464918,314.714109 626.7729,323.3192 C629.0129,331.6692 634.1129,338.9192 638.1939,346.4292 C661.0019,388.8502 645.3019,438.3922 636.4829,482.5692 C625.3429,534.3762 614.3379,586.2312 602.8229,637.9592 C600.5529,648.2782 599.0819,658.9092 595.6529,668.9092 C593.8829,674.0692 585.0529,673.5792 585.6239,667.5592 C586.7129,655.8792 589.9929,644.4892 592.3949,633.0192 C606.7329,558.7592 626.1339,485.3742 638.4699,410.7892 C646.4049,355.5772 615.1659,347.0932 616.3319,311.4192 C620.5779,293.1742 631.8169,276.8922 631.1719,257.4492 C633.6699,197.9332 590.3179,148.8322 584.9659,90.9482 L575.515724,87.577208 C570.79262,85.88648 566.0747,84.182 561.3719,82.4372 C586.1269,255.5622 578.6099,432.4692 566.2349,606.4492 C563.7069,614.4772 566.1119,670.5562 555.5129,665.5792 C554.9779,668.7132 553.3129,671.7942 549.6929,671.7782 C516.8229,672.0792 483.9429,672.5992 451.0729,672.9912 C435.2619,671.5342 413.5299,677.5702 400.0819,668.4482 C384.5549,664.0172 382.7699,621.9672 378.6189,606.9792 L377.000429,596.079175 C350.616472,417.969676 327.00594,236.18632 345.9709,56.3132 C319.5849,57.3272 314.1389,85.8042 312.1819,106.5382 C307.2889,152.3012 277.7209,191.7112 276.3029,237.9992 C276.1829,249.2292 278.3029,260.1082 282.7919,270.4192 C294.7019,295.6812 315.2999,324.8862 299.9049,353.1002 C281.6979,375.0642 283.2739,380.8452 289.9549,407.9882 C308.7519,497.7202 339.9679,583.9852 369.6629,670.5012 C363.2109,704.1282 324.4029,579.2922 320.7519,569.8792 C303.5729,578.5172 294.1889,549.8512 313.8929,547.8092 C301.2369,505.4472 289.5899,462.7682 279.8929,419.6192 L279.636049,418.402967 C275.352575,398.466998 266.92726,375.1223 281.1549,357.4382 C317.8409,320.3392 256.9179,278.8722 264.6029,233.9292 C257.9669,238.8492 247.9219,233.6732 248.0729,225.4092 C247.7719,216.1052 260.2699,211.3392 266.2839,218.4382 C272.467285,181.974938 293.979889,150.142823 300.48985,113.78674 L300.7839,112.0792 C302.9899,99.2302 303.6119,85.7102 309.9229,73.9992 C301.3319,79.5792 292.1829,84.0892 282.7729,88.0692 C299.5979,102.1222 267.0169,114.9482 269.7129,93.2392 C177.4449,119.9332 156.5899,157.1592 122.7129,242.6492 C129.0409,236.5012 139.8809,244.4572 136.0929,252.2982 C133.0709,260.5582 119.8879,258.1432 119.8929,249.3392 L118.348859,253.020939 C97.8062254,302.14039 79.1089976,352.452371 69.7129,405.0192 C88.1449,402.4172 83.4519,431.8742 66.7519,423.5692 C60.0499,470.3192 59.9439,517.7312 60.7629,564.8582 C76.3099,556.7062 76.7779,584.4082 60.9129,576.5092 C61.4929,615.1292 62.3429,653.7492 62.9829,692.3692 C63.1129,700.5892 50.4329,700.5492 50.2329,692.3692 C48.7519,633.0282 46.0529,573.5792 47.3359,514.2202 C46.1289,411.1942 75.7469,311.8942 119.8769,219.6042 C158.9239,113.3392 212.8599,101.2542 312.0929,70.3582 C321.2529,56.7612 340.8229,43.9012 356.7899,52.4392 C365.7229,38.0192 370.2599,20.9352 376.8699,5.5712 Z M206.853,375.9292 C207.223,374.6192 209.093,374.9482 209.153,376.2392 C209.983,392.9092 209.243,409.6882 208.103,426.4292 C207.412,436.6492 206.563,446.8582 205.843,457.0092 C203.933,483.7892 202.393,510.5992 201.223,537.4292 C201.633,537.2592 202.053,537.1082 202.493,536.9892 C204.513,536.4382 206.534,536.4382 208.553,536.9892 C210.354333,537.492267 211.929178,538.371653 213.285664,539.641182 L213.573,539.9192 C214.683,540.9482 215.473,542.1692 215.933,543.5792 C216.588385,544.833662 216.919982,546.175034 216.919143,547.608824 L216.912,547.9692 C216.903,550.0282 216.393,551.9382 215.353,553.7192 C214.343,555.4292 212.983,556.7892 211.273,557.8082 C209.493,558.8392 207.582,559.3492 205.523,559.3582 C205.303,559.3792 205.082,559.3992 204.863,559.4092 C203.332,559.4692 201.903,559.1492 200.582,558.4592 L200.383,558.3992 L200.383,558.3992 C199.883,572.0092 199.473,585.6292 199.173,599.2492 C198.903,611.1192 198.543,622.9892 198.303,634.8582 L198.191519,640.796311 L198.191519,640.796311 L197.973909,653.918781 C197.903176,659.315682 197.937769,664.483082 196.1031,669.572319 L195.883,670.1592 C194.563,673.5582 193.534,678.2892 190.002,680.1792 C187.183,681.6882 183.383,681.1292 181.763,678.1882 C180.403,675.7292 181.582,672.1882 183.593,670.5282 C183.553,670.4192 183.493,670.3192 183.443,670.2092 C183.133,669.3082 182.662,668.4592 182.383,667.5492 C181.502,664.6692 181.743,661.5992 181.733,658.6082 C181.733,653.3292 181.912,648.0492 182.053,642.7782 C182.363,631.5582 182.723,620.3492 183.162,609.1392 C184.648375,571.5342 187.447148,533.9292 190.652658,496.429816 L191.740419,483.772984 C193.189756,466.942356 194.689667,450.0932 196.813,433.3492 C196.912,432.5492 197.013,431.7492 197.123,430.9482 C195.983,430.3792 194.923,429.5892 194.082,428.7092 C190.713143,425.171343 188.669556,419.883129 186.753458,415.326591 L186.313,414.2892 C184.233,409.4292 182.313,404.5092 181.323,399.2892 L181.228266,398.808836 C180.776653,396.586139 179.885357,392.646343 182.243,391.5692 C183.473,391.0092 184.252,391.4092 184.653,392.6392 C184.704,392.7992 184.662,392.9792 184.573,393.1192 C185.543,394.6082 187.063,395.9992 188.023,397.3792 L191.308704,402.077422 L191.308704,402.077422 L192.933,404.4382 C194.993,407.4692 197.193,410.3692 199.463,413.2292 C201.252,400.6692 203.443,388.1592 206.853,375.9292 Z M341.5931,655.8195 C345.7031,652.5985 352.3931,654.3485 352.3931,660.2895 C352.3931,666.2585 345.6931,667.9795 341.5931,664.7585 L341.388975,664.607625 L341.388975,664.607625 L341.1931,664.4485 C338.96035,662.704225 338.885519,658.163211 341.024218,656.269831 L341.1931,656.1295 C341.3221,656.0185 341.4531,655.9195 341.5931,655.8195 Z M162.549581,644.211123 L162.9027,644.2184 C164.7627,644.2184 166.4927,644.6884 168.1027,645.6294 C168.8027,646.1594 169.4927,646.6984 170.1927,647.2394 C171.4727,648.5184 172.3527,650.0394 172.8427,651.7894 L173.2137,654.5284 L173.2137,654.5284 C173.2627,655.9484 172.9727,657.2684 172.3227,658.4994 C171.9027,659.7784 171.1927,660.8884 170.1927,661.8194 C169.2527,662.8294 168.1527,663.5394 166.8737,663.9484 C165.745283,664.544233 164.542082,664.846886 163.255623,664.846886 L162.9027,664.8394 C161.0337,664.8394 159.3027,664.3694 157.6927,663.4284 C156.9927,662.8994 156.3027,662.3584 155.6027,661.8194 C154.3327,660.5394 153.4427,659.0184 152.9537,657.2684 C152.8327,656.3584 152.7137,655.4384 152.5827,654.5284 C152.5337,653.1084 152.8327,651.7894 153.4727,650.5584 C153.8927,649.2784 154.6027,648.1694 155.6027,647.2394 C156.5437,646.2294 157.6427,645.5184 158.9227,645.1084 C160.0502,644.513483 161.261728,644.211824 162.549581,644.211123 L162.549581,644.211123 Z M630.6625,625.1982 L633.2835,625.5492 L633.2835,625.5492 C635.7935,626.1192 637.8125,627.9692 639.1625,630.0792 C639.8835,631.2092 640.2725,632.4292 640.3325,633.7392 C640.6235,635.0392 640.5625,636.3492 640.1525,637.6592 C639.8525,638.9382 639.2635,640.0582 638.3925,641.0092 C638.0935,641.4792 637.7425,641.9092 637.3435,642.2892 C636.5225,643.6592 635.2835,644.5582 634.0025,645.4792 C632.9235,646.1692 631.7525,646.5392 630.4925,646.5992 C629.6625,646.8192 628.8225,646.8192 627.9825,646.5992 C626.7325,646.5392 625.5625,646.1692 624.4825,645.4792 C623.8435,644.9892 623.2035,644.4892 622.5725,643.9992 C622.0135,643.3492 621.4925,642.6792 621.0025,641.9792 C620.6735,641.2092 620.3525,640.4482 620.0335,639.6882 C619.4425,637.8582 619.7325,636.2392 620.0535,634.4092 C620.1025,634.0992 620.1835,633.8192 620.2935,633.5182 L620.509385,632.937356 C621.084993,631.418073 621.3925,630.902516 622.4125,629.5792 L622.801492,629.059072 C622.99594,628.79992 623.1955,628.5466 623.4235,628.3192 C624.0625,627.6592 624.9735,627.1082 625.6925,626.5392 C627.2325,625.6492 628.8925,625.2092 630.6625,625.1982 Z M291.14937,618.79521 L291.4827,618.7991 C292.9327,618.8091 294.2937,619.1691 295.5527,619.8991 L297.1927,621.1691 L297.1927,621.1691 C298.1927,622.1791 298.8827,623.3581 299.2727,624.7301 C299.3627,625.4481 299.4637,626.1691 299.5627,626.8791 C299.6027,627.9891 299.3737,629.0281 298.8627,629.9991 C298.5437,630.9991 297.9827,631.8581 297.1927,632.5991 C296.4637,633.3791 295.5927,633.9391 294.5927,634.2691 C293.719973,634.723645 292.78113,634.963315 291.783684,634.965569 L291.4827,634.9591 C290.0227,634.9591 288.6627,634.5891 287.4027,633.8581 L285.7627,632.5991 L285.7627,632.5991 C284.7627,631.5891 284.0727,630.3991 283.6827,629.0281 C283.5927,628.3091 283.4927,627.5991 283.3927,626.8791 C283.3527,625.7691 283.5827,624.7301 284.0927,623.7691 C284.4227,622.7691 284.9727,621.8991 285.7627,621.1691 C286.4927,620.3791 287.3627,619.8191 288.3627,619.4991 C289.2357,619.0401 290.1573,618.8079 291.14937,618.79521 L291.14937,618.79521 Z M225.1531,615.489 C227.2421,615.469 229.3631,616.059 231.0731,617.269 C232.7331,618.448 233.9921,619.719 234.8031,621.629 C235.0231,622.15 235.2421,622.659 235.4331,623.179 C236.2931,625.469 236.4531,627.769 235.2631,630.009 C234.1131,632.179 231.6331,633.129 229.4121,633.778 C227.5331,634.339 225.4031,634.429 223.5331,633.759 C222.6031,633.429 221.6931,633.079 220.8531,632.569 C219.2831,631.599 218.4331,630.448 217.3831,629.028 C216.5631,627.629 216.1531,626.108 216.1531,624.489 C216.1531,622.858 216.5631,621.349 217.3831,619.939 C218.9921,617.189 221.9731,615.509 225.1531,615.489 Z M119.1527,617.4191 C121.7937,617.4191 124.1127,618.6391 125.7037,620.6981 C127.3127,622.7891 127.9027,625.3891 127.1927,627.9801 C126.4427,630.7191 124.1737,633.1191 121.3627,633.8091 C119.2837,634.3191 117.5827,634.2991 115.5127,633.9481 C113.7627,633.6491 112.4237,632.6081 111.0827,631.5281 C109.5527,630.2781 109.0827,627.9991 109.3327,626.1591 C109.5727,624.3191 110.4237,623.1191 111.7137,622.0281 L111.7227,621.9991 L111.2427,622.3691 C111.4237,622.2091 111.6027,622.0391 111.7837,621.8691 C111.8427,621.7691 111.8927,621.6591 111.9427,621.5491 C112.6827,620.2891 113.6827,619.2991 114.9327,618.5591 C116.2427,617.7991 117.6427,617.4191 119.1527,617.4191 Z M734.7424,587.1294 C736.1924,586.7394 737.6524,586.7394 739.1024,587.1294 C740.1734,587.3794 741.1024,587.8694 741.8934,588.5984 C742.6944,589.1204 743.34879,589.7882 743.843448,590.617109 L744.0024,590.8994 C745.1434,592.8394 745.3224,595.0584 744.8324,597.2184 C744.2234,599.8884 741.7634,602.3194 739.1024,602.9484 L739.0129,602.96515 L739.0129,602.96515 L738.9234,602.9894 C737.8434,603.3294 736.7524,603.3794 735.6734,603.1294 C734.5824,603.0794 733.5724,602.7594 732.6434,602.1594 C731.4634,601.3994 730.4734,600.4194 729.7134,599.2394 C729.1124,598.2994 728.7934,597.2894 728.7424,596.1984 C728.5534,595.4794 728.5534,594.7594 728.7424,594.0394 C728.7934,592.9484 729.1124,591.9384 729.7134,590.9994 L730.9924,589.3484 L730.9924,589.3484 L731.1234,589.2394 L731.1234,589.2394 C732.1434,588.2184 733.3524,587.5184 734.7424,587.1294 Z M634.0629,534.2091 C647.1729,534.2091 647.1529,554.5491 634.0629,554.5491 C620.9539,554.5491 620.9729,534.2091 634.0629,534.2091 Z M154.0821,531.6391 C155.4631,531.3291 156.8431,531.3891 158.2131,531.8191 C159.0431,532.1691 159.8631,532.5191 160.6831,532.8581 L162.7831,534.4801 L162.7831,534.4801 C163.1731,534.8091 163.3631,535.1691 163.7231,535.6391 L164.173148,536.227754 C164.823644,537.098572 164.8391,537.2827 165.5531,539.1391 C166.0331,540.9191 166.0331,542.6981 165.5531,544.4801 C165.3221,545.3391 164.9731,546.1491 164.5231,546.8991 C164.111671,547.6191 163.619427,548.250937 163.065257,548.832394 L162.7831,549.1191 C161.8431,550.1291 160.7331,550.8391 159.4531,551.2591 C158.6431,551.7301 157.7731,551.9591 156.8431,551.9591 C155.4631,552.2691 154.0821,552.2091 152.7131,551.7781 C151.8831,551.4291 151.0631,551.0791 150.2421,550.7391 L148.1431,549.1191 L146.5231,547.0191 L146.006475,545.787475 L146.006475,545.787475 L145.4831,544.5491 L145.1131,541.7991 C145.0631,540.3691 145.3531,539.0491 146.0021,537.8091 C146.2521,536.9381 146.6931,536.1691 147.3321,535.5281 C147.7931,534.7491 148.4121,534.1291 149.1931,533.6691 C149.8321,533.0281 150.6031,532.5891 151.4731,532.3391 C152.2831,531.8691 153.1531,531.6391 154.0821,531.6391 Z M802.502,517.1086 C803.593,517.0696 804.613,517.2986 805.553,517.7986 C805.883,517.9096 806.204,518.0486 806.513,518.2096 C807.723,518.9186 808.683,519.8786 809.393,521.0796 C809.973,521.9996 810.293,522.9896 810.343,524.0586 C810.560273,525.023145 810.540355,525.994302 810.27874,526.96005 L810.193,527.2496 C809.973,528.0396 809.643,528.7686 809.204,529.4386 C809.162,529.5186 809.113,529.5986 809.053,529.6686 C808.383,530.7296 807.493,531.5986 806.393,532.2496 C805.173,532.9486 803.863,533.3086 802.443,533.3196 C799.613,533.3196 797.173,531.7896 795.683,529.4386 C795.473,529.1086 795.353,528.6886 795.204,528.3486 C795.073,528.0286 794.863,527.6196 794.752,527.2496 C794.373,525.8296 794.373,524.4096 794.752,522.9896 C795.002,521.9486 795.473,521.0396 796.183,520.2686 C796.752,519.3996 797.502,518.7096 798.433,518.2096 C799.586846,517.535754 800.826751,517.177174 802.142491,517.117343 L802.502,517.1086 Z M248.9824,507.1593 C250.367015,506.780838 251.743962,506.751726 253.119532,507.071963 L253.4634,507.1593 C254.5624,507.4193 255.5134,507.9193 256.3324,508.6593 C257.2424,509.2593 257.9734,510.0493 258.5024,511.0283 C259.2634,512.3393 259.6434,513.7593 259.6524,515.2783 C259.6434,516.7993 259.2634,518.2193 258.5024,519.5283 C257.7524,520.7993 256.7424,521.7993 255.4734,522.5493 L254.3734,523.0793 L254.3734,523.0793 C253.4534,523.6593 252.4734,523.9693 251.4124,524.0183 C250.7034,524.2093 249.9924,524.2093 249.2934,524.0183 C248.5724,524.0183 247.9024,523.8393 247.2834,523.4793 C246.6034,523.2893 246.0224,522.9483 245.5224,522.4483 C244.6524,521.8883 243.9734,521.1493 243.4734,520.2193 L242.6624,518.3083 L242.6624,518.3083 L242.3834,516.1883 L242.3834,516.1883 L242.6624,514.0793 L242.6624,514.0793 L243.1034,513.0393 L243.1034,513.0393 C243.5024,511.6083 244.2234,510.3693 245.2724,509.3193 C246.3224,508.2783 247.5624,507.5583 248.9824,507.1593 Z M744.9032,490.2895 C746.3622,489.8295 747.8132,489.7685 749.2632,490.0895 C750.2422,490.0895 751.1622,490.3395 752.0132,490.8395 C752.9432,491.0985 753.7422,491.5585 754.4232,492.2395 C755.6122,493.0085 756.5432,494.0285 757.2332,495.2985 L758.3322,497.9095 L758.3322,497.9095 C758.9922,499.5985 758.7522,502.0895 758.3532,503.7895 C758.0232,505.1885 757.3832,506.4095 756.4332,507.4485 C755.9532,508.2585 755.3132,508.8995 754.5022,509.3795 C753.576367,510.221917 752.508526,510.821493 751.297139,511.177459 L750.9632,511.2685 L750.8432,511.2985 C750.8222,511.3085 750.8032,511.3085 750.7832,511.3085 C750.7732,511.3195 750.7522,511.3195 750.7422,511.3195 C750.2632,511.4385 749.7732,511.5085 749.2632,511.5285 C747.8132,511.8485 746.3622,511.7895 744.9032,511.3295 C744.0432,510.9685 743.1732,510.5985 742.3032,510.2295 C741.5632,509.6695 740.8322,509.0985 740.0932,508.5285 C739.5232,507.7895 738.9532,507.0485 738.3832,506.3195 C737.5822,505.0695 737.1532,503.7095 737.0932,502.2585 C736.8322,501.2895 736.8322,500.3295 737.0932,499.3585 C737.0932,498.3695 737.3432,497.4595 737.8322,496.6085 C738.2732,495.2495 739.0232,494.0795 740.0932,493.0895 C740.8322,492.5185 741.5632,491.9485 742.3032,491.3885 C743.1732,491.0185 744.0432,490.6495 744.9032,490.2895 Z M107.1032,454.4891 C108.6122,454.0791 110.1232,454.0791 111.6332,454.4891 L113.6622,455.3391 L113.6622,455.3391 C114.6622,455.8791 115.4532,456.6081 116.0532,457.5391 C116.8132,458.3581 117.3222,459.3291 117.5822,460.4391 C118.1732,461.9591 118.1032,464.3691 117.6332,465.9191 C117.1032,467.6791 116.2832,469.0791 115.0132,470.3991 C112.9032,472.5791 109.6622,473.2091 106.7932,472.5491 C106.0022,472.3691 105.2522,472.0191 104.5722,471.5891 C102.4032,470.2491 100.9432,467.9091 100.9532,465.3191 C100.9532,465.0391 100.9732,464.7591 101.0132,464.4801 C100.8732,463.9091 100.8222,463.3191 100.8432,462.6981 L101.1432,460.4391 L101.1432,460.4391 L101.1622,460.3791 C101.5632,458.9481 102.2832,457.7091 103.3322,456.6591 C104.302354,455.6991 105.433549,455.003242 106.726572,454.587257 L107.0532,454.4891 L107.1032,454.4891 Z M861.6929,229.9402 C858.9609,207.5432 848.6899,183.4472 817.3629,196.5992 L815.035976,197.470926 C807.2845,200.405561 798.251511,204.260867 793.5339,211.0392 C790.2839,215.7092 791.3829,224.7592 790.9339,230.2092 C788.8909,247.9292 789.9869,265.6242 792.1149,283.2692 C794.8619,324.6282 786.1659,367.4802 768.8529,405.0692 C786.1799,433.1042 809.3689,459.2532 841.0019,470.9382 C842.3399,439.0632 848.5809,407.7732 855.2229,376.6692 L855.484391,375.313152 C858.140477,361.287666 859.470056,346.892919 868.6819,335.2282 C887.4199,314.8852 913.1919,326.3992 925.5229,293.7192 C922.9329,292.4092 924.3629,287.9292 927.4839,288.7902 C938.2989,290.7092 940.0559,270.6602 932.6539,265.8292 C924.9409,261.1262 932.7059,252.4502 929.4229,246.1882 C927.5929,243.4892 923.6429,243.3992 921.8519,240.2882 C917.1059,228.8392 940.8579,221.5022 912.9259,208.5952 C907.2089,206.5622 900.8189,207.8232 895.0529,207.8002 C886.5709,208.5922 879.8299,214.5682 872.0729,216.4482 C880.5189,238.3172 859.2079,259.3762 839.9729,241.9092 C829.5059,251.8022 817.8009,274.3532 843.2439,263.8402 C855.6969,255.5292 866.4179,244.7862 880.8739,239.6682 L881.179443,239.572876 C886.545635,237.814664 910.02814,226.40572 908.8639,236.2802 C900.0679,244.7692 885.5609,244.6692 875.3739,251.5602 C861.2509,258.0912 852.2199,273.9172 835.3129,273.6982 C831.4149,297.3652 858.2719,282.9652 868.2729,276.4382 L871.045816,274.93369 C885.152638,267.313309 899.471669,260.253046 915.9229,260.1592 C920.4629,260.1292 920.4429,267.1292 915.9229,267.1892 C894.4829,267.3232 877.0329,280.7242 859.0729,290.6882 C857.3049,304.5032 877.5359,298.4552 885.2129,296.4172 C893.2619,295.2862 906.1889,286.5802 913.2339,291.1792 C915.9889,298.2582 903.8639,297.7312 899.6429,299.8792 C918.9149,309.1352 902.0299,314.9642 896.8629,300.7392 L895.349406,301.254825 C882.444409,305.591552 851.15198,314.5184 854.8739,292.6592 C850.1509,294.7492 844.3919,295.9992 839.1729,294.8392 C826.1579,314.0892 805.3969,306.6402 835.5729,293.5192 C828.7729,290.3562 826.5019,278.1442 833.0339,273.5992 C809.2809,272.1492 826.9159,247.2282 836.7469,238.9232 C835.8189,237.9852 834.9199,237.0282 834.0819,236.0592 C828.4129,238.7592 822.4539,240.3992 816.0819,240.9792 C809.9829,241.5282 808.6239,231.1492 814.6429,230.2992 C821.0929,229.3892 827.0339,227.6692 832.7129,224.4282 C841.3209,220.7112 844.2589,236.6832 852.8739,237.2492 C857.5729,238.1792 860.7519,234.0592 861.6929,229.9402 Z M661.7136,436.0288 C663.7936,436.0288 665.6426,436.8998 667.1526,438.2788 C668.6626,439.6588 669.3126,441.7298 669.4026,443.7088 C669.4426,444.7688 669.2226,445.7588 668.7426,446.6788 C668.4326,447.6288 667.9026,448.4488 667.1526,449.1498 C665.7526,450.5388 663.6826,451.3998 661.7136,451.3998 C659.6336,451.3998 657.7836,450.5288 656.2726,449.1498 C654.7636,447.7588 654.1126,445.6988 654.0226,443.7088 C653.9826,442.6588 654.2036,441.6688 654.6826,440.7488 C654.9616,439.8938 655.4188,439.136 656.0542,438.48998 L656.2726,438.2788 C657.6736,436.8788 659.7426,436.0288 661.7136,436.0288 Z M724.739475,388.602794 L725.0726,388.6084 C726.8326,388.6194 728.4636,389.0584 729.9826,389.9384 C730.6426,390.4484 731.3026,390.9484 731.9536,391.4594 C733.1626,392.6784 733.9926,394.1084 734.4536,395.7594 C734.9236,397.4794 734.9236,399.2094 734.4536,400.9284 C734.2936,401.9194 733.9236,402.8794 733.3436,403.7094 C732.4826,405.1384 731.3436,406.2894 729.9026,407.1384 C728.4126,408.0094 726.8026,408.4384 725.0726,408.4484 C723.3436,408.4384 721.7326,408.0094 720.2426,407.1384 C718.8026,406.2894 717.6626,405.1384 716.8126,403.7094 C716.2226,402.8794 715.8526,401.9194 715.6926,400.9284 C715.2226,399.2094 715.2226,397.4794 715.6926,395.7594 C716.119743,394.226329 716.865916,392.883813 717.939127,391.723848 L718.1926,391.4594 C719.0726,390.5094 720.1126,389.8394 721.3226,389.4484 C722.385933,388.89015 723.524892,388.607511 724.739475,388.602794 Z M243.7421,389.1383 C244.4831,388.9383 245.2131,388.9383 245.9531,389.1383 C247.0531,389.1883 248.0821,389.5183 249.0331,390.1193 C249.5931,390.5583 250.1531,390.9893 250.7131,391.4193 L251.20131,392.005213 C252.2449,393.276468 252.2713,393.4933 253.0721,395.4293 C253.4031,396.5093 253.4531,397.5893 253.2131,398.6693 C253.2131,399.3993 253.0231,400.0793 252.6621,400.7093 C252.4631,401.3993 252.1231,401.9993 251.6131,402.4993 C251.2521,403.1083 250.7731,403.5983 250.1621,403.9593 C249.3831,404.6693 248.4631,405.1593 247.4031,405.4093 L245.2521,405.6983 L245.2521,405.6983 C244.9731,405.6593 244.6831,405.6193 244.4031,405.5893 C244.0656,405.5788 243.737662,405.540738 243.416756,405.478909 L243.0921,405.4083 L243.0921,405.4083 L242.796428,405.329396 C242.40478,405.2149 242.0235,405.0629 241.6531,404.8693 C240.9531,404.6693 240.3431,404.3193 239.8221,403.7993 C238.9231,403.2193 238.2031,402.4383 237.6831,401.4693 L237.5431,401.1493 L237.5431,401.1493 C237.3531,400.8083 237.1931,400.4593 237.0721,400.0793 C236.7331,399.4793 236.5631,398.8393 236.5531,398.1493 C236.3542,397.2313 236.36752,396.3214 236.605453,395.411581 L236.6931,395.1083 L237.4631,393.2783 C237.8631,392.6593 238.2831,392.0283 238.8221,391.5183 C239.147,391.2303 239.94089,390.61101 240.388019,390.300492 L240.6621,390.1193 L240.6621,390.1193 C241.6131,389.5183 242.6431,389.1883 243.7421,389.1383 Z M123.183,374.839 C124.623,369.169 132.063,367.379 136.113,371.429 C140.162,375.48 138.373,382.919 132.704,384.359 L132.053,384.519 L132.053,384.519 C126.573,385.909 121.633,380.959 123.023,375.48 L123.183,374.839 L123.183,374.839 Z M809.5527,328.5887 C809.5127,328.0287 810.2327,327.8297 810.5927,328.1597 C815.4127,332.4797 818.4827,337.6597 824.3327,341.0087 C830.2137,344.3697 836.2727,344.0987 842.4027,346.2687 C844.4827,347.0087 844.4927,349.7897 842.4027,350.5187 C830.8027,354.5697 810.4327,340.8387 809.5527,328.5887 Z M264.5026,327.7092 C265.7936,327.3092 267.0936,327.2492 268.3836,327.5392 C269.2636,327.5392 270.0826,327.7592 270.8326,328.1982 C271.6626,328.4292 272.3736,328.8492 272.9826,329.4482 C273.7136,329.8792 274.2936,330.4692 274.7326,331.1982 C275.5936,332.1392 276.1736,333.2392 276.4726,334.4992 L276.8126,337.0892 L276.8126,337.0892 L276.4726,339.6792 L276.4726,339.6792 C276.1426,340.4482 275.8126,341.2292 275.4926,341.9992 L274.599079,343.209891 C273.874979,344.175644 273.759033,344.185867 272.0026,345.4892 C270.8836,346.1982 269.6736,346.5892 268.3836,346.6392 C267.5226,346.8792 266.6626,346.8792 265.7936,346.6392 C264.9236,346.6392 264.1026,346.4192 263.3436,345.9792 C262.5226,345.7492 261.8036,345.3292 261.1926,344.7292 C260.1336,344.0392 259.3036,343.1292 258.6926,341.9992 C258.3626,341.2292 258.0336,340.4482 257.7136,339.6792 L257.3626,337.0892 L257.3626,337.0892 L257.7136,334.4992 L257.7136,334.4992 L257.7326,334.4192 L257.7326,334.4192 C258.1926,332.7992 259.0136,331.3892 260.1926,330.1982 L262.1336,328.6982 L262.1336,328.6982 C262.8926,328.2092 263.6826,327.9592 264.5026,327.7092 Z M731.3132,329.6494 C734.0822,328.8884 737.1232,329.6884 739.1522,331.7194 C741.1832,333.7494 741.9832,336.7784 741.2232,339.5494 C740.4732,342.2494 738.3032,344.4384 735.5932,345.1694 C734.7832,345.3884 733.9632,345.5094 733.1332,345.4694 C731.7422,345.4594 730.4432,345.1084 729.2332,344.4094 L727.6732,343.1984 L727.6732,343.1984 C726.9122,342.4994 726.3832,341.6694 726.0722,340.7094 C725.5822,339.7894 725.3622,338.7994 725.4022,337.7294 L725.3932,337.5394 C725.3622,337.1594 725.4122,336.7784 725.5332,336.4094 C725.5332,336.0184 725.5932,335.6384 725.6932,335.2684 C726.4232,332.5694 728.6232,330.3884 731.3132,329.6494 Z M134.153,302.5699 C135.043,302.5389 135.873,302.7189 136.643,303.1289 C137.453,303.3889 138.143,303.8289 138.723,304.4689 C139.363,305.0489 139.803,305.7489 140.063,306.5489 C140.473,307.3199 140.653,308.1499 140.623,309.0389 C140.623,310.2089 140.323,311.2989 139.743,312.2989 C139.403,312.7399 139.063,313.1789 138.723,313.6089 C137.923,314.4189 136.973,314.9689 135.873,315.2789 L135.233,315.4989 L135.233,315.4989 C134.293,315.8389 133.373,315.8589 132.393,315.7299 C131.363,315.5889 130.412,315.3089 129.573,314.6689 C128.752,314.1889 128.103,313.5389 127.623,312.7189 L127.073,311.4189 L127.073,311.4189 C126.953,310.9799 126.903,310.3199 126.873,309.8589 C126.873,309.7889 126.873,309.7299 126.863,309.6589 C126.863,309.2689 126.983,308.3199 127.082,307.9289 C127.303,307.1089 127.752,306.3289 128.263,305.6689 C128.703,304.9799 129.303,304.4389 130.043,304.0389 L130.108875,303.9889 L130.108875,303.9889 L130.183,303.9389 C130.412,303.7789 130.653,303.6189 130.893,303.4479 C131.893,302.8689 132.983,302.5699 134.153,302.5699 Z M650.5434,295.4689 C652.1434,295.4689 653.6334,295.8789 655.0134,296.6789 C655.0624,296.6979 655.1124,296.7189 655.1524,296.7399 C656.4734,297.5189 657.5224,298.5699 658.3034,299.8889 C659.1034,301.2589 659.5024,302.7399 659.5024,304.3199 C659.5024,305.9089 659.1034,307.3789 658.3034,308.7489 C657.5224,310.0699 656.4734,311.1189 655.1524,311.8999 C655.1124,311.9289 655.0624,311.9479 655.0134,311.9689 C653.6334,312.7689 652.1434,313.1689 650.5434,313.1789 C648.9534,313.1689 647.4634,312.7689 646.0824,311.9689 C643.3834,310.3889 641.6924,307.4389 641.6924,304.3199 C641.6924,301.1979 643.3834,298.2489 646.0824,296.6789 C647.4634,295.8789 648.9534,295.4689 650.5434,295.4689 Z M235.261092,283.905486 L235.5334,283.8998 C236.5934,283.8588 237.5824,284.0788 238.4924,284.5698 C239.4424,284.8788 240.2724,285.4098 240.9734,286.1598 L242.4334,287.3788 L242.4334,287.3788 L242.857104,287.722059 C242.926956,287.780356 242.995733,287.839467 243.0624,287.8998 C244.0434,288.8888 244.7134,290.0488 245.0934,291.3888 C245.2134,292.1598 245.3124,292.9188 245.3934,293.6888 C245.6124,295.6888 244.4334,297.7398 243.1334,299.1598 C242.4334,299.9098 241.6024,300.4388 240.6434,300.7588 C239.7234,301.2398 238.7234,301.4588 237.6624,301.4188 C235.4924,301.2298 233.4334,300.7688 231.8734,299.0888 C231.6924,298.8888 231.5224,298.6788 231.3434,298.4688 L230.0934,297.0288 L230.0934,297.0288 C229.1434,296.0698 228.4824,294.9388 228.1234,293.6388 C228.0224,292.9488 227.9334,292.2688 227.8434,291.5888 C227.7524,289.5388 228.7524,287.6188 230.0934,286.1598 C231.331495,284.807419 233.431268,283.981115 235.261092,283.905486 Z M184.7836,262.8488 C195.1826,262.8488 195.1626,278.9798 184.7836,278.9798 C174.3926,278.9798 174.4126,262.8488 184.7836,262.8488 Z M707.664386,240.233359 L707.9923,240.2392 C709.7133,240.2492 711.3223,240.6792 712.8133,241.5492 L714.7523,243.0392 L714.7523,243.0392 C715.9333,244.2392 716.7523,245.6392 717.2133,247.2592 C717.3223,248.1082 717.4333,248.9592 717.5533,249.7992 C717.6033,251.1192 717.3223,252.3492 716.7233,253.4892 C716.3433,254.6692 715.6833,255.6982 714.7523,256.5692 C713.8833,257.4992 712.8623,258.1592 711.6733,258.5392 C710.5333,259.1392 709.3033,259.4192 707.9923,259.3692 C706.2633,259.3582 704.6523,258.9292 703.1623,258.0592 C702.5133,257.5592 701.8733,257.0592 701.2233,256.5692 C700.134069,255.461508 699.351584,254.183401 698.88371,252.71915 L698.7733,252.3492 L698.4233,249.7992 C698.3733,248.4892 698.6523,247.2592 699.2523,246.1192 C699.6333,244.9292 700.2933,243.9092 701.2233,243.0392 C702.0933,242.1082 703.1233,241.4482 704.3033,241.0692 C705.347383,240.5192 706.468772,240.237249 707.664386,240.233359 Z M660.8226,210.0395 C661.7526,210.0085 662.6126,210.1985 663.4236,210.6195 C664.2526,210.8885 664.9726,211.3585 665.5826,212.0085 C666.8736,213.0395 667.6626,215.0985 667.6626,216.7685 C667.6626,218.4385 666.8736,220.4995 665.5826,221.5285 C664.7426,222.3585 663.7526,222.9385 662.6126,223.2585 L660.8226,223.4995 L660.8226,223.4995 C659.0826,223.5795 657.3126,222.6695 656.0726,221.5285 C655.8226,221.2995 655.5826,221.0695 655.3326,220.8485 C654.2036,219.8085 653.7136,218.2585 653.6426,216.7685 C653.6126,215.9795 653.7836,215.2395 654.1426,214.5495 C654.3736,213.8295 654.7726,213.2185 655.3326,212.6885 C655.5826,212.4685 655.8226,212.2395 656.0726,212.0085 C657.4236,210.7585 659.0026,210.1295 660.8226,210.0395 Z M957.6029,156.2492 C964.1739,148.2452 960.3479,142.5482 950.4729,144.5282 C933.4629,146.8292 917.4539,157.5792 902.4729,165.2882 C886.1219,173.9242 869.2709,181.0472 852.5919,189.1622 C859.4739,193.3862 864.5919,200.0012 868.5019,207.5492 C876.3069,201.6222 886.2839,198.7882 896.0229,198.4192 C913.6919,181.4972 942.9529,177.6222 957.6029,156.2492 Z M181.284,182.82 C183.065733,182.8284 184.735093,183.247093 186.299397,184.083397 L186.633,184.269 L188.773,185.929 C189.813,186.889 190.543,188.028 190.973,189.339 C191.633,190.599 191.933,191.969 191.883,193.429 C191.933,194.889 191.633,196.249 190.973,197.509 C190.543,198.829 189.813,199.959 188.773,200.919 C188.183,201.689 187.423,202.289 186.513,202.73 C185.662,203.079 184.823,203.439 183.973,203.799 C183.023,204.099 181.923,204.139 180.893,204.189 C179.023,204.179 177.284,203.709 175.662,202.769 L173.563,201.15 L173.563,201.15 C172.553,200.209 171.832,199.099 171.412,197.809 C170.817083,196.67325 170.515494,195.460194 170.515494,194.164442 L170.523,193.809 C170.523,193.73 170.523,193.639 170.534,193.549 C170.653,192.609 170.784,191.669 170.912,190.73 C171.243,189.349 171.873,188.139 172.813,187.119 C173.053,186.639 173.373,186.249 173.784,185.929 C175.103,184.609 176.662,183.709 178.463,183.198 C179.403,183.079 180.343,182.948 181.284,182.82 Z M645.278311,156.32451 L645.5825,156.329 C646.9325,156.329 648.1825,156.669 649.3435,157.339 C649.8525,157.73 650.3525,158.119 650.8525,158.509 C651.7835,159.439 652.4235,160.539 652.7725,161.799 L653.0435,163.778 L653.0435,163.778 C653.0725,164.809 652.8625,165.759 652.3925,166.65 C652.0935,167.569 651.5825,168.369 650.8525,169.049 C650.1825,169.778 649.3835,170.289 648.4535,170.589 C647.5725,171.059 646.6125,171.269 645.5825,171.23 C644.2425,171.23 642.9825,170.889 641.8225,170.209 C641.3225,169.829 640.8125,169.439 640.3125,169.049 C639.469167,168.1965 638.861111,167.201153 638.496036,166.070661 L638.4025,165.759 L638.1335,163.778 C638.0935,162.749 638.3035,161.799 638.7725,160.909 C639.0725,159.98 639.5935,159.179 640.3125,158.509 C640.9925,157.778 641.7935,157.269 642.7135,156.969 C643.5136,156.546 644.37121,156.3336 645.278311,156.32451 L645.278311,156.32451 Z M239.733979,145.493561 L240.0828,145.4987 C242.0728,145.5087 243.9228,146.0087 245.6428,147.0087 C246.3828,147.5797 247.1238,148.1497 247.8628,148.7297 C249.2328,150.0987 250.1728,151.7187 250.7038,153.5887 L251.0928,156.5087 L251.0928,156.5087 C251.1528,158.0287 250.8328,159.4387 250.1428,160.7487 C249.7038,162.1197 248.9428,163.2987 247.8628,164.2987 C246.8738,165.3697 245.6928,166.1287 244.3228,166.5697 C243.0128,167.2587 241.6028,167.5797 240.0828,167.5187 C238.0928,167.5187 236.2428,167.0187 234.5228,166.0187 C233.7838,165.4487 233.0438,164.8697 232.2938,164.2987 C230.9328,162.9187 229.9928,161.2987 229.4628,159.4387 L229.0728,156.5087 L229.0728,156.5087 C229.0128,154.9987 229.3328,153.5797 230.0228,152.2687 C230.4628,150.9097 231.2228,149.7187 232.2938,148.7297 C233.2938,147.6497 234.4728,146.8887 235.8428,146.4487 C237.052031,145.811777 238.346469,145.498641 239.733979,145.493561 Z M610.0134,117.9995 C610.9234,117.7585 611.8324,117.7585 612.7424,117.9995 C614.1024,118.0585 615.3734,118.4685 616.5534,119.2185 L618.6234,120.8195 L618.6234,120.8195 C618.6524,120.8485 618.6834,120.8795 618.7134,120.9195 C619.9634,122.1785 620.8324,123.6695 621.3124,125.3795 L621.6734,128.0695 L621.6734,128.0695 C621.7234,129.4595 621.4334,130.7585 620.8034,131.9595 C620.427567,133.113583 619.807212,134.117257 618.952351,134.985156 L618.6234,135.3085 C617.6924,136.3085 616.6024,137.0185 615.3324,137.4285 C614.5334,137.8995 613.6624,138.1295 612.7424,138.1295 C611.3834,138.4385 610.0134,138.3795 608.6524,137.9485 C607.8434,137.5985 607.0224,137.2585 606.2034,136.9195 L605.9424,136.7685 C602.8524,135.0795 600.9424,131.5395 600.9424,128.0695 C600.9424,124.5985 602.8524,121.0485 605.9424,119.3585 C606.0334,119.3195 606.1124,119.2685 606.2034,119.2185 C607.3834,118.4685 608.6524,118.0585 610.0134,117.9995 Z" id="ðŸ–-Ink" fill="#000000"></path>
    </g>
</svg>