<?xml version="1.0" encoding="UTF-8"?>
<svg width="818px" height="733px" viewBox="0 0 818 733" version="1.1" xmlns="http://www.w3.org/2000/svg" xmlns:xlink="http://www.w3.org/1999/xlink">
    <!-- Generator: Sketch 62 (91390) - https://sketch.com -->
    <title>body/mono/Polo and Sweater</title>
    <desc>Created with Sketch.</desc>
    <g id="body/mono/Polo-and-Sweater" stroke="none" stroke-width="1" fill="none" fill-rule="evenodd">
        <path d="M96.774,708.912 C158.006,710.626 215.848408,712.517 276.962408,708.912 C374.758408,702.863 661.757117,713.767 724.841691,708.912 C729.602357,708.545618 745.9749,713.767 746.3159,708.912 C749.0889,675.105 750.8869,333.067949 742.6479,309.533347 C734.4089,285.998745 693.7409,172.865 641.9219,120.111 C627.4729,105.859 605.485074,100.338495 593.339074,83.868495 C582.866591,65.9089912 583.680172,55.3680846 573.3379,45.9191204 C568.849889,41.8187584 558.265416,40.1564644 550.4005,34.465 C542.4925,26.606 549.9799,9.306 546.7339,-1.638 C540.0439,-28.964 515.3969,-46.495 488.4579,-50.626 C451.015862,-59.5851549 411.488142,-51.1144369 393.55346,-21.7036342 C386.877676,-10.7561205 390.430456,2.55066604 382.2199,20.093 C382.8059,33.35 367.3289,36.553 358.0779,41.806 L339.706297,60.3733548 C283.106297,92.2193548 216.5229,109.416 166.9299,152.202 C124.7659,194.975 82.8279,244.413 64.1199,302.283 C60.2469,318.052 58.9829,334.35 57.3779,350.463 C52.7959,397.551 40.0369,443.254 29.0569,489.121 C16.5369,546.91 4.86623419,608.255159 21.7402342,666.591159 C26.6052342,678.938159 85.699,708.335 96.774,708.912 Z" id="ðŸŽ¨-Background" fill="#FFFFFF"></path>
        <path d="M390.3095,-16.995 C390.7995,-18.596 392.9105,-18.146 393.0705,-16.625 C394.6605,-1.545 392.6605,14.215 390.7405,29.195 C389.8205,36.425 389.2895,43.945 387.8895,51.074 C387.7095,51.835 387.5395,52.604 387.3795,53.365 C387.8395,54.184 389.2005,55.104 389.8495,55.734 L392.672463,58.4787037 L398.3295,63.955 C409.4005,74.675 420.4695,85.404 431.5395,96.125 L447.7895,111.875 C453.3605,117.274 459.6905,122.445 464.5795,128.465 C467.2305,131.734 467.8295,135.744 465.2195,139.244 C463.9295,140.974 461.6105,142.234 459.2595,142.494 C460.1795,143.774 460.8895,145.224 461.3395,146.835 C462.2595,150.115 458.9405,154.144 455.4105,152.774 C451.4005,151.234 448.0895,148.474 444.0095,147.154 C439.8895,145.814 435.4105,145.555 431.1395,146.274 C429.1795,146.604 427.2595,147.095 425.3895,147.715 C445.4005,156.925 467.0495,162.215 489.1295,162.974 C493.6295,163.125 498.1205,163.064 502.5895,162.765 C510.1105,162.274 517.5795,161.135 524.9195,159.295 C530.6905,157.845 536.4005,156.024 541.9405,153.824 C544.6605,152.744 547.3495,151.555 549.9505,150.205 L550.178201,150.070242 C550.766171,149.70276 561.631019,143.540978 561.8205,142.615 C562.009981,141.689022 562.009981,141.366446 561.656463,140.560348 C561.420784,140.022949 560.976033,139.569022 560.322209,139.198568 C556.96516,137.763719 553.487423,136.428231 549.8205,136.404 C541.3795,136.354 532.1695,142.595 525.1905,146.845 C517.5205,151.515 510.4695,156.974 503.0895,162.035 C502.9195,162.154 502.7305,162.205 502.5495,162.205 C501.7705,162.205 501.0495,161.244 501.5495,160.494 C506.838875,152.706219 513.977987,146.221981 521.44583,140.560348 L524.45499,138.304691 C531.294582,133.20409 539.2945,127.555102 547.6105,126.324 C557.7995,124.824 568.4405,131.175 577.5305,134.894 L593.6295,141.484 C596.4995,142.654 599.6205,143.654 602.5095,144.984 L595.763004,123.875072 C592.39206,113.31944 589.0299,102.761 585.7005,92.195 L585.054461,90.1250125 C581.73794,79.3997475 578.693136,68.2428788 573.1695,58.445 C571.8495,56.095 570.3395,53.885 568.8495,51.654 C567.2995,49.345 566.7195,46.795 564.7705,44.734 C560.9105,40.644 555.3795,38.244 550.0995,36.675 C548.8095,36.295 549.1905,34.595 550.4005,34.465 C555.818887,33.8940323 560.985349,35.1577159 565.88176,37.4430873 L567.916852,38.413709 C572.54701,40.60439 577.0615,42.6419 580.4995,46.574 C588.33882,55.55412 592.409967,66.8609936 596.15007,78.0191716 L597.1505,81.015 C598.5495,80.555 608.0595,83.455 609.2495,84.144 C644.9005,99.215 672.3605,127.274 692.4405,160.154 C714.4405,196.184 726.4195,237.354 736.3095,278.095 C739.3615,290.668 742.2805,303.28 745.0845,315.92 C732.5915,320.727 719.3135,323.242 707.6185,330.014 C703.1635,332.593 707.1875,339.509 711.6555,336.922 C722.6095,330.58 735.0865,328.237 746.8115,323.783 C753.1685,353.046 758.8235,382.469 763.5595,412.015 C778.1105,502.695 787.2995,594.854 786.7195,686.774 C786.7095,688.805 786.1105,691.074 784.9995,693.024 C785.6505,692.705 786.1605,692.324 786.4505,691.865 C790.1395,686.074 799.3895,691.445 795.6795,697.265 L795.137688,698.108453 C792.353704,702.40074 789.754742,705.680364 784.8605,708.104 C779.9295,710.545 774.5895,710.955 769.1505,711.095 C750.6605,711.582 732.1575,711.899 713.6485,712.127 C711.1105,692.329 710.0785,672.342 706.5815,652.66 C705.6825,647.599 697.9715,649.744 698.8675,654.787 C702.2445,673.793 703.3255,693.087 705.6825,712.223 C666.1125,712.649 626.5205,712.654 586.9805,712.765 C533.3955,712.9225 479.817391,712.811266 426.234783,712.780996 L403.2705,712.774 C341.3705,712.774 279.4695,712.574 217.5705,712.164 L202.8495,712.06 C196.9935,677.539 193.0075,642.723 192.9335,607.643 C192.9225,602.496 184.9225,602.486 184.9335,607.643 C185.0075,642.684 188.9495,677.504 194.7515,712.015 C180.0955,711.951 165.4465,712.004 150.7895,712.524 L143.329459,712.789776 C128.403541,713.300755 113.4475,713.615571 98.5495,712.425 C82.0095,711.095 65.2805,708.055 50.4505,700.265 C43.7715,696.75 37.8905,692.257 32.8645,686.974 C37.9735,684.002 43.1555,681.151 48.1045,677.913 C52.3955,675.105 48.3925,668.176 44.0665,671.006 C38.7335,674.496 33.1275,677.535 27.6365,680.763 C23.6605,675.457 20.3975,669.568 17.9195,663.215 C14.0095,653.184 12.4995,642.394 11.1895,631.774 C9.6405,619.265 8.9995,606.654 8.9995,594.055 C8.9995,567.555 11.7895,541.135 15.6805,514.955 C19.4013696,489.874043 24.3198875,464.995287 29.5188924,440.195335 L30.2295,436.814 C35.3595,412.434 40.2495,387.984 46.1295,363.774 C51.5665,341.387 57.8495,319.105 65.3375,297.254 C72.0025,301.375 78.9775,304.98 85.5385,309.273 C89.8595,312.101 93.8725,305.177 89.5765,302.366 C82.5765,297.785 75.1105,293.978 68.0465,289.502 C76.4195,266.104 86.2475,243.252 98.0305,221.365 C121.6295,177.535 153.4305,138.324 194.1605,109.385 C214.5495,94.904 236.9195,83.055 260.4105,74.434 C284.3605,65.635 309.1795,60.814 334.5595,58.835 C335.284206,58.7775882 335.690905,59.4483149 335.661211,60.0684981 L335.6505,60.184 L336.6505,60.345 C337.0205,57.835 337.7805,55.404 339.2305,53.175 C342.5305,48.095 348.7895,44.835 353.7895,41.715 L354.974956,40.9775012 C360.923723,37.2902734 367.20175,33.6578125 374.1205,32.365 C374.3605,32.324 374.5095,32.574 374.3495,32.765 C369.786891,37.9962174 363.952525,41.993189 358.60546,46.4178326 L357.376407,47.4426841 C352.945141,51.089487 346.764167,55.2284444 346.5995,61.324 C346.4105,68.505 347.8795,75.974 348.4105,83.135 C348.9405,90.274 349.3095,97.404 349.4995,104.564 C350.1905,130.215 349.3605,155.875 347.0895,181.425 L357.128906,174.703594 C372.752683,164.245038 388.428324,153.815765 404.4295,144.024 C414.1105,138.095 424.9905,133.024 436.5895,133.255 C439.8395,133.314 443.5095,133.785 447.0305,134.785 C443.2405,131.195 439.6105,127.375 435.9005,123.765 C429.7895,117.814 423.6795,111.865 417.5705,105.925 L399.953375,88.7645 L382.3295,71.604 C376.8705,66.274 370.4695,61.365 371.0495,52.965 C371.5205,46.265 374.9295,39.595 377.2595,33.135 C377.5895,32.205 377.8895,31.285 378.1695,30.375 C382.8705,14.755 385.5395,-1.436 390.3095,-16.995 Z M618.0005,653.199 C614.3565,649.553 608.6985,655.208 612.3445,658.855 L614.272296,660.774996 C617.492202,663.987266 620.684282,667.298327 622.912598,671.26933 L623.2395,671.87 C625.6405,676.426 632.5485,672.388 630.1465,667.832 C627.1775,662.201 622.4545,657.655 618.0005,653.199 Z M461.8685,652.17 C450.2675,649.955 439.0865,649.955 427.4855,652.17 C422.4345,653.135 424.5735,660.847 429.6125,659.885 C439.7585,657.947 449.5945,657.947 459.7415,659.885 C464.7725,660.845 466.9275,653.137 461.8685,652.17 Z M305.1965,571.53 C300.2045,570.265 298.0745,577.979 303.0705,579.244 L305.530124,579.861071 C313.891463,581.927314 321.854878,583.466889 330.5405,581.549 C335.499382,580.452618 333.494209,572.925857 328.610379,573.794732 L328.4135,573.834 C320.3765,575.609 312.9725,573.5 305.1965,571.53 Z M583.4415,519.567 C579.7475,515.976 574.0845,521.627 577.7845,525.223 C582.4015,529.713 587.8425,533.125 594.4365,533.307 C599.509634,533.448851 599.581471,525.687021 594.663481,525.318601 L594.4365,525.307 C590.0175,525.184 586.4965,522.538 583.4415,519.567 Z M112.6165,498.201 C117.2225,495.898 113.1755,488.996 108.5795,491.294 L80.9315,505.117 L80.9315,505.117 C76.3255,507.42 80.3725,514.324 84.9685,512.025 L112.6165,498.201 L112.6165,498.201 Z M658.9485,499.964 C653.7985,499.819 653.8025,507.819 658.9485,507.964 C663.7875,508.099 668.7465,509.932 673.0575,512.025 C677.6695,514.265 681.7305,507.369 677.0955,505.117 C671.4595,502.381 665.2725,500.14 658.9485,499.964 Z M400.6165,461.338 C404.8505,458.461 400.8525,451.525 396.5785,454.43 C390.746667,458.391833 385.462694,463.074625 379.723712,467.156618 L378.1465,468.254 C373.9125,471.131 377.9105,478.065 382.1845,475.162 C388.5455,470.839 394.2555,465.659 400.6165,461.338 Z M698.1165,403.194999 C692.9685,403.193 692.9605,411.193 698.1165,411.194999 L699.092643,411.192016 C703.341747,411.16813 707.820407,411.050753 711.771937,412.748895 L712.2255,412.953 C716.8575,415.135 720.9225,408.24 716.2635,406.046 C710.4705,403.318 704.4135,403.198 698.1165,403.194999 Z M253.836531,397.480105 L254.5085,397.228 C259.3185,395.501 257.2445,387.767 252.3815,389.515 C245.0535,392.148 239.3525,397.121 232.9955,401.437 C228.7595,404.314 232.7575,411.248 237.0325,408.346 C242.509879,404.625862 247.605979,399.915703 253.836531,397.480105 L253.836531,397.480105 Z M553.904988,376.667605 L554.9835,376.09 C559.5635,373.733 555.5205,366.828 550.9465,369.182 C547.315591,371.050182 544.0665,373.535719 540.504261,375.516147 L539.4255,376.094 C534.8465,378.45 538.8885,385.355 543.4635,383.002 C547.094409,381.132909 550.3435,378.647289 553.904988,376.667605 L553.904988,376.667605 Z M432.201229,299.179442 L431.3775,298.384 C427.6955,294.779 422.0345,300.432 425.7205,304.041 C434.926557,313.050943 445.810119,319.891776 456.789538,326.505563 L458.7865,327.706 C463.2115,330.361 467.2385,323.447 462.8245,320.798 L459.893806,319.036056 C450.132069,313.149339 440.484459,307.072702 432.201229,299.179442 L432.201229,299.179442 Z M210.8195,291.711 C213.921571,287.682953 207.175516,283.740847 204.022555,287.534221 L203.9115,287.673 C200.682324,291.865 196.850794,295.660156 192.846271,299.123496 L192.0935,299.769 C189.7095,301.797 185.3705,306.142 182.0215,306.428 C176.9295,306.861 176.8835,314.865 182.0215,314.428 C187.2035,313.987 191.6625,310.34 195.5775,307.215 C201.2755,302.668 206.3725,297.483 210.8195,291.711 Z M636.4325,262.568 C640.149767,259.076081 634.65897,253.518063 630.908142,256.792738 L630.7765,256.912 C623.8295,263.438 613.8365,265.189 604.8935,267.402 C599.8985,268.64 602.0145,276.356 607.0205,275.117 L611.094584,274.111127 C620.233457,271.830385 629.403389,269.174111 636.4325,262.568 Z M477.9965,212.107 C473.0045,210.838 470.8745,218.552 475.8705,219.821 C484.3555,221.977 492.3925,224.764 500.2575,228.634 C504.8615,230.898 508.9195,224.002 504.2955,221.726 C495.8335,217.562 487.1325,214.429 477.9965,212.107 Z M559.7194,43.4648 C559.5994,43.1048 559.9804,42.6948 560.3494,42.8238 C569.32734,46.17114 564.554697,57.9294684 561.765223,64.9680827 L561.2594,66.2548 C556.8894,77.5348 550.7804,88.5148 544.1204,98.6148 C537.1504,109.1848 529.4104,119.3048 521.0304,128.8048 C517.394844,132.929244 513.624178,136.93517 509.726828,140.821875 L508.2594,142.2738 C504.3204,146.1448 499.2404,152.9448 493.1294,152.1948 C486.5494,151.4038 482.8794,144.3748 487.6794,139.0348 C491.0704,135.2548 495.7704,132.2438 499.5594,128.8048 C503.3204,125.4038 506.9604,121.8948 510.5094,118.2848 C517.7704,110.8748 524.6504,103.0448 530.9404,94.7948 C537.023837,86.816675 542.845361,78.6179445 548.138827,70.0939638 L549.1904,68.3848 C553.2194,61.7548 562.5204,52.0048 559.7194,43.4648 Z M241.6405,127.263 C237.3785,124.349 233.3725,131.279 237.6025,134.17 C245.3805,139.486 252.2235,145.926 260.6425,150.298 C265.15019,152.639786 269.158975,145.929019 264.840239,143.477723 L264.6805,143.391 C256.2675,139.02 249.4145,132.575 241.6405,127.263 Z" id="ðŸ–-Ink" fill="#000000"></path>
    </g>
</svg>