<?xml version="1.0" encoding="UTF-8"?>
<svg width="818px" height="733px" viewBox="0 0 818 733" version="1.1" xmlns="http://www.w3.org/2000/svg" xmlns:xlink="http://www.w3.org/1999/xlink">
    <!-- Generator: Sketch 62 (91390) - https://sketch.com -->
    <title>body/mono/Shirt and Coat</title>
    <desc>Created with Sketch.</desc>
    <g id="body/mono/Shirt-and-Coat" stroke="none" stroke-width="1" fill="none" fill-rule="evenodd">
        <path d="M800.8791,648.3808 C799.2841,618.7468 797.3241,589.1358 794.9781,559.5508 C790.3031,500.6208 784.1821,441.6448 773.9961,383.3918 C763.9471,325.9158 749.8831,270.0268 729.6211,215.2578 C720.2211,189.8478 710.0411,168.1708 695.2731,145.3288 C681.3091,123.7318 663.4901,109.0978 641.2901,96.0608 C621.2881,84.3148 598.0511,63.9348 578.8671,50.7808 C570.8581,45.2898 554.3801,45.6558 548.8881,37.5328 C541.6961,26.8958 546.3591,10.6148 539.1091,0.0128 C530.8221,-12.1092 519.2121,-21.5262 506.1201,-28.3672 C491.8311,-38.0432 475.0011,-42.4232 458.1261,-41.8202 C433.2421,-43.3292 408.1801,-35.4072 392.2041,-15.1532 C384.2321,-5.0452 379.5771,6.6168 378.9331,19.5298 C378.7651,22.8888 379.8441,25.5368 381.6201,27.4488 C380.5671,28.8568 379.5191,30.2658 378.4781,31.6828 C375.2101,26.8428 367.5721,24.2708 362.4821,27.9238 C345.8301,39.8768 327.8331,49.3808 308.8381,56.3478 C304.3941,54.2448 299.0141,55.2188 295.2071,58.6518 C293.6621,60.0438 292.0231,61.2348 290.3101,62.2458 C283.2671,64.1548 276.1151,65.7498 268.8571,66.9828 C266.5851,67.3678 264.6601,68.6578 263.2001,70.3968 C261.0371,68.3748 258.0641,67.4038 254.7441,68.6698 C216.4091,83.2828 180.2071,105.9838 152.6901,136.7398 C122.2041,170.8128 106.1921,213.1978 94.0021,256.6218 C80.8061,303.6288 72.3731,351.8058 65.2901,400.0638 C58.1131,448.9608 51.0441,498.0488 46.1061,547.2288 C43.3271,574.9048 42.2671,602.8318 43.5251,630.6298 C44.1521,644.5218 45.4211,658.3698 47.4421,672.1298 C47.9131,675.3488 48.4061,679.0568 49.2001,682.7578 C46.7871,682.2888 43.9131,684.3288 44.4021,687.5938 C47.8081,710.3348 75.3021,716.9588 94.2641,719.5768 C125.2811,723.8598 156.4591,726.2348 187.7741,726.4178 C218.5471,726.5968 249.3151,724.6218 280.0241,722.8528 C311.5081,721.0398 342.9911,719.2178 374.4741,717.3718 C500.6131,709.9768 626.7591,702.6618 752.8991,695.2638 C764.4231,694.5878 777.5821,693.6728 787.4531,686.9888 C800.9841,677.8248 801.6801,663.2628 800.8791,648.3808 L800.8791,648.3808 Z" id="ðŸŽ¨-Background" fill="#FFFFFF"></path>
        <path d="M185.9554,394.0248 C185.5174,393.2048 186.5334,392.4678 187.2074,393.0588 C202.5204,406.4968 210.5374,428.0778 212.2184,448.0258 C213.9994,469.1788 211.4744,491.0798 210.5094,512.2238 C209.4354,535.7758 208.4704,559.3368 207.1594,582.8778 C205.8284,606.7618 204.3944,630.6378 203.1654,654.5268 L200.4004,708.2648 L200.4004,708.2648 C200.1064,713.9918 200.7434,721.0348 198.5454,726.3798 C195.139422,734.665735 185.022134,733.38282 182.895883,726.457617 L182.8294,726.2298 L182.6354,726.3798 C180.7594,720.1388 182.1634,712.7268 182.4814,706.2738 L185.3784,647.5608 L185.3784,647.5608 C187.425,606.0609 189.25047,564.56019 191.448945,523.068147 L192.1964,509.2378 C193.2242,490.6195 194.01224,472.04818 194.645084,453.435631 L194.8504,447.2298 C195.4514,428.5418 194.9744,410.8988 185.9554,394.0248 Z M557.1652,49.5109 C565.6962,48.7009 572.1382,51.5299 579.8832,54.5099 C583.2572,55.8069 586.4522,57.3059 589.6892,58.8579 C593.741564,60.8009303 596.347595,64.2363683 598.843216,67.8686081 L600.1772,69.8259 C610.5682,85.0499 617.5582,102.6139 625.4452,119.1889 C634.6712,138.5779 643.9892,157.9249 653.0182,177.4059 L657.474052,187.003789 C659.701496,191.802956 661.922357,196.605122 664.11026,201.422289 L667.890637,209.806347 C671.688177,218.309181 675.092854,227.304332 669.6802,236.0759 C664.6472,244.2339 655.7242,250.5459 648.6592,256.8519 C642.7652,262.1139 636.8702,267.3749 630.9732,272.6349 C643.1622,284.8409 651.3452,300.2099 656.1552,316.6919 C662.9892,313.8449 671.3302,313.2989 678.3962,312.0669 C688.2872,310.3429 689.4992,325.3169 680.1642,325.1339 C673.2702,324.9989 665.1822,325.7029 658.1102,324.2509 C659.3392,329.6669 660.2312,335.1649 660.7982,340.6779 C663.769787,369.573247 657.276122,398.636279 650.503309,426.593558 L649.9462,428.8889 C642.5912,459.1489 635.6172,489.4879 629.3782,519.9989 C623.1252,550.5749 617.5002,581.2799 612.5072,612.0869 C607.4252,643.4439 603.8292,674.9739 599.9642,706.4969 C599.3792,711.2679 596.3772,715.3569 591.1052,715.3569 C586.7132,715.3569 581.6932,711.2579 582.2452,706.4969 C586.2332,672.1689 591.8892,638.0209 597.5082,603.9279 C607.186508,545.214977 619.367369,487.012818 633.38106,429.192843 L635.829013,419.123796 C642.133836,393.009152 647.853503,366.100926 644.6912,339.1639 C642.11522,317.22946 632.944147,293.842512 614.818214,280.218742 L614.2662,279.8089 C610.0322,276.7039 608.4032,270.7659 612.5732,266.6769 C615.226867,264.074567 617.883644,261.475344 620.541978,258.877752 L636.4982,243.2999 L639.71511,240.153638 C642.397384,237.534716 645.092486,234.931757 647.8682,232.4089 C649.5482,230.8829 654.1032,227.9729 654.4362,225.4629 C654.652546,223.824438 652.712827,220.947072 651.926777,219.438226 L648.3252,212.1689 L648.3252,212.1689 C646.2802,208.0239 644.2982,203.8489 642.3012,199.6799 C638.1632,191.0439 633.9652,182.4339 629.9172,173.7549 L605.5962,121.6429 L605.5962,121.6429 C598.7352,106.9409 592.6232,91.4199 583.6532,77.8279 L581.884588,75.1788877 C580.408283,72.9479432 579.104311,70.8004556 578.1712,68.0719 C577.2742,65.4469 576.1482,62.5649 574.4902,60.3249 C570.6052,55.0679 563.1792,52.0859 556.9662,50.9849 C556.0682,50.8249 556.3942,49.5849 557.1652,49.5109 Z M370.1117,35.8235654 C370.6517,35.8235654 370.7337,36.5946 370.2357,36.7446 C362.7397,38.9986 355.5767,42.6356 349.7327,47.8856 C346.9367,50.3976 344.1217,53.2486 342.3957,56.6306 C341.7351,57.9248 341.36934,59.2919 341.10159,60.709301 L341.0157,61.1836 C340.570437,63.7443368 339.933107,65.1697274 338.631811,67.2198301 L338.4087,67.5676 C330.9817,79.0366 325.7767,91.7756 321.0177,104.5306 L310.653825,132.3421 L310.653825,132.3421 L300.2967,160.1566 C296.9597,169.1186 293.6207,178.0816 290.2827,187.0436 C288.4387,191.9916 286.5427,196.9186 284.6477,201.8466 C283.8277,203.9816 282.9457,206.1006 282.1957,208.2616 C282.0927,208.5566 281.7647,210.3356 281.5187,210.7676 L281.6027,210.9146 L281.6027,210.9146 C283.6917,214.4286 289.2627,217.3646 292.4207,219.9176 L303.2947,228.7086 L303.2947,228.7086 C311.0477,234.9776 318.9997,241.0706 326.5197,247.6196 C331.2437,251.7316 328.3047,259.0956 323.0367,260.8126 C314.2087,263.6886 305.5597,267.1306 296.8637,270.3846 C293.351,271.6986 289.69331,272.8425 286.221596,274.291608 L284.108224,275.204939 C283.282757,275.576092 283.679609,275.57263 283.7127,277.0956 C283.7457,278.6936 284.1987,280.3586 284.4587,281.9286 C287.3877,299.6386 290.4927,317.3186 293.7697,334.9676 C305.3617,397.3786 319.2107,459.3336 335.0057,520.8126 C342.9837,551.8596 351.5397,582.7536 359.6927,613.7546 C367.8257,644.6726 378.5267,675.1476 388.7447,705.4286 C391.6277,713.967698 378.0867,717.6446 375.2747,709.1416 C363.4987,673.5276 352.7257,637.6026 341.6007,601.7866 C321.8347,538.1466 306.2587,473.1246 292.4827,407.9456 C285.6547,375.6416 279.4097,343.2136 273.7537,310.6836 C272.6827,304.52535 271.632513,298.363162 270.603981,292.197459 L269.104881,283.128265 C268.077249,276.663967 267.492126,269.930403 272.5167,264.8146 C277.423033,259.821386 285.845744,258.051994 292.301888,255.710039 L292.7707,255.5376 C296.8787,254.0046 301.0167,252.5276 305.1387,251.0046 C299.0667,246.2246 293.0697,241.3386 287.0127,236.5616 C282.1267,232.7076 277.1637,228.9316 272.3477,224.9896 C268.3767,221.7376 265.1387,217.5626 264.7247,212.2746 C264.302325,206.869944 266.618425,201.854755 268.486431,196.898104 L268.6657,196.4186 C270.4997,191.4696 272.3387,186.5236 274.2247,181.5936 L285.8947,151.0746 L285.8947,151.0746 C293.3107,131.6816 300.4137,112.1316 308.2137,92.8896 C311.2997,85.2746 314.6627,77.7796 318.6367,70.5816 C320.5527,67.1106 322.6077,63.7136 324.8407,60.4376 C327.3427,56.7636 329.6137,54.9726 333.4907,52.9456 C339.6897,49.7046 344.5547,44.2706 350.7797,40.9296 C356.8897,37.6496 363.1757,35.8996 370.1117,35.8235654 Z M390.2361,1.2251 C390.4731,0.8181 391.1011,0.999074259 391.1091,1.4621 C391.2711,11.1001 388.9811,20.9491 387.5721,30.4791 C386.1571,40.0431 385.7031,50.1381 383.6561,59.6001 C383.6137,60.0409 383.52842,60.4753 383.40794,60.901764 L383.3101,61.2261 L383.3101,61.2261 C382.4461,63.8771 380.1991,66.1241 377.4421,66.8261 C378.3091,71.6301 379.1261,76.4421 379.8131,81.2801 C380.9931,89.5958143 382.070039,97.9237735 383.129193,106.254502 L384.3971,116.2521 C385.5941,125.6741 386.7581,135.1001 387.9091,144.5271 C390.8361,145.7511 393.8231,146.7611 396.8821,147.6361 C403.9271,149.6521 411.1431,150.4721 418.4131,151.1851 C433.218567,152.637367 448.137278,153.309989 462.995243,154.134707 L466.1781,154.3141 C482.8821,155.2711 499.6771,155.4411 516.3391,153.7271 C524.6011,152.8771 532.7981,151.4511 540.8551,149.4301 C544.9491,148.4031 548.9281,146.8691 553.0141,145.8651 C554.3691,145.5321 555.5801,144.7641 556.9381,143.9441 C557.5411,143.1821 558.3871,142.6051 559.4891,142.3821 L559.7876,142.3301 L559.7876,142.3301 L560.0831,142.2871 L560.1851,142.2411 L560.1771,142.2731 C561.0131,142.1601 561.8071,142.1611 562.5561,142.2631 C562.8541,134.9131 563.1771,127.5631 563.5821,120.2151 C564.6691,100.4791 567.6701,79.8911 563.6641,60.3271 C563.5301,59.6691 564.4251,59.4371 564.6581,60.0531 C572.5191,80.7641 571.6361,103.4111 572.0321,125.2091 C572.4191,146.5261 572.1851,167.8581 572.0791,189.1801 C573.6061,189.8301 574.9681,190.7111 576.0471,191.9471 C578.2021,194.4171 578.8221,198.7111 576.0471,201.0951 C574.8171,202.1521 573.4561,202.8861 572.0121,203.3951 C571.9351,221.9181 571.8041,240.4431 571.6181,258.9671 C575.1411,261.6881 575.4701,268.1491 571.4851,270.8341 C570.8221,330.8221 569.7321,390.8121 568.8281,450.7911 L566.9341,576.6291 L566.9341,576.6291 C566.6821,593.3951 566.2641,610.1601 566.1141,626.9241 L566.2331,626.9711 L566.2331,626.9711 L566.65229,627.165439 C567.358143,627.496768 568.40835,628.032663 568.6261,628.5811 C568.6831,628.7251 568.6981,628.8231 568.6911,628.8971 C569.8471,629.0591 570.9921,629.6051 571.9831,630.5451 C574.4291,632.8691 573.9321,636.3721 571.9831,638.7391 L571.4621,639.3721 L571.4621,639.3721 C570.2471,640.8471 567.9401,641.4151 566.0561,641.1151 C566.0751,651.5781 566.1421,662.0431 566.1091,672.5061 C566.0983,675.7017 566.05006,678.89766 565.994836,682.093548 L565.863052,689.756637 C565.775546,694.129447 565.388191,699.686555 560.9091,701.6511 C555.8561,703.8681 551.3251,702.0521 549.2791,696.9201 C548.7251,695.5301 548.8441,694.2351 549.0461,692.8611 C548.9831,690.7961 548.6601,688.4031 548.7001,686.4871 L548.8671,678.4981 L548.8671,678.4981 C548.8931,677.2661 548.9431,676.0351 548.9781,674.8031 L548.8321,674.8181 L548.8321,674.8181 C530.877574,675.689679 512.797396,675.26436 494.813489,675.253737 L486.815232,675.265367 C480.141712,675.271095 473.45391,675.23547 466.78991,674.98039 L464.2921,674.8741 C459.3031,674.6401 454.0561,674.5651 448.8841,674.1191 C449.5431,679.4281 450.1591,684.7411 450.7081,690.0591 C451.2281,695.1021 446.0231,699.3871 441.3801,699.3871 C435.8661,699.3871 432.7121,695.0531 432.0521,690.0591 C428.9361,666.5031 427.6611,642.7271 424.6841,619.1561 C422.0174,598.0439 419.70548,576.88391 417.355409,555.731534 L416.5701,548.6811 C407.969792,471.704792 399.619993,394.699514 391.633177,317.6574 L387.914469,281.642296 C384.158709,245.342424 380.380967,209.0403 377.1951,172.6871 C375.3731,151.9031 373.6941,131.1151 372.1141,110.3111 C370.9551,95.0271 370.2271,79.8281 369.7531,64.5741 C367.8841,62.6511 366.9471,59.8431 367.7751,56.9431 C368.2591,55.2511 368.8221,53.5681 369.4161,51.8881 C369.3791,50.2371 369.3401,48.5871 369.3081,46.9341 C369.2781,45.3701 370.8661,44.5651 372.1371,44.8241 C374.4471,39.2311 376.9911,33.6861 379.1141,28.1471 C382.5501,19.1811 385.3821,9.5201 390.2361,1.2251 Z M198.341,98.1264 C234.26,75.6164 277.016,59.4184 319.839,61.1624 C320.813,61.2024 321.087,62.6864 320.076,62.9114 C297.234,68.0114 274.141,74.2234 252.516,83.2644 C230.828,92.3324 210.206,104.5424 191.839,119.2154 C157.951,146.2874 131.611,181.5004 114.267,221.1934 C104.108,244.4454 96.987,268.9934 90.769,293.5504 C84.189,319.5394 78.766,345.8084 74.257,372.2354 C65.351,424.4364 60.166,477.2124 57.407,530.0794 C54.6,583.8574 55.757,637.6734 53.755,691.4594 C53.409,700.7784 40.089,700.5964 39.412,691.4594 C34.876,630.3084 37.389,568.1814 41.584,507.0734 C45.356,452.1394 51.943,397.3204 62.55,343.2704 L63.4739268,338.58605 C73.3897906,288.579465 85.3501212,237.361188 109.322,192.0744 C129.788,153.4114 161.384,121.2884 198.341,98.1264 Z M697.1303,337.1236 C697.3173,336.5876 698.0253,336.5946 698.2143,337.1236 C702.3093,348.5857 702.456354,361.519367 703.544646,373.601893 L703.6303,374.5296 C704.673856,385.550044 705.459831,396.583921 706.190498,407.627016 L706.4623,411.7686 C709.3953,456.8186 713.0613,501.8186 718.5863,546.6316 C724.0913,591.2756 731.5343,635.6086 739.5833,679.8536 C740.4803,684.7796 738.2983,689.7976 733.1323,691.2166 C728.5783,692.4676 722.7323,689.6626 721.7693,684.7656 C716.7723,659.3696 712.7313,633.9396 709.1263,608.3236 C702.7803,563.2166 698.0443,517.9016 694.9993,472.4516 C693.4713,449.6246 692.5303,426.8066 692.1563,403.9306 C691.983586,393.317029 692.259239,382.67759 692.824729,372.074735 L692.9603,369.6286 C693.5843,358.7916 693.5203,347.4586 697.1303,337.1236 Z M309.0033,624.0661 C309.4833,623.8061 310.0773,624.3401 309.7733,624.8361 C302.8183,636.1391 293.4093,645.8851 284.3153,655.4911 C274.8083,665.5321 265.5363,675.8761 255.8373,685.7201 C248.8293,692.8311 237.5563,681.3601 244.9523,674.8351 C255.3513,665.6631 266.2203,656.9471 276.8043,647.9791 L281.432949,644.055711 C290.110936,636.724568 299.04633,629.45907 309.0033,624.0661 Z M639.3446,618.4052 C638.8256,617.4162 640.0116,616.6142 640.8176,617.2692 C646.4276,621.8312 651.4556,627.2732 656.8726,632.0872 C662.2376,636.8562 667.8026,641.3042 673.5196,645.6422 C679.2606,649.9982 685.1266,654.1802 691.1506,658.1372 C696.1476,661.4192 701.2976,664.0482 706.5306,666.7732 C708.9536,667.0852 711.1976,668.2742 712.9936,670.5292 C715.8336,674.0952 716.1356,680.8192 712.1966,683.9152 L711.4896,684.4702 L711.4896,684.4702 C706.8926,688.0832 701.4356,688.5232 696.9106,684.4702 C691.857873,679.945655 687.082005,674.966564 682.229879,670.185069 L680.7716,668.7572 C675.5576,663.6892 670.4706,658.4572 665.6746,652.9902 L661.332854,648.051342 C653.27828,638.866307 644.894523,628.966892 639.3446,618.4052 Z M613.5023,88.8713 C612.5693,88.2533 613.1443,86.5893 614.2963,86.9863 L616.409298,87.7165994 C625.236997,90.7841628 634.323485,94.1861519 642.3383,98.9093 C650.9513,103.9843 658.9043,110.0303 666.5023,116.5163 C682.2293,129.9413 695.6093,146.4503 706.9803,163.6573 C729.7963,198.1863 743.9063,237.7303 755.2983,277.2973 C767.4453,319.4853 776.7973,362.5813 784.4333,405.7993 C792.1923,449.7203 798.1783,494.0373 802.1123,538.4663 C804.0503,560.3523 805.3513,582.2513 806.0053,604.2133 C806.3423,615.5113 806.3313,626.8013 806.2373,638.1033 C806.2133,641.0098 806.23255,643.9148 806.26555,646.8198 L806.3763,655.5363 C806.4353,661.0473 807.0953,666.8383 805.7853,672.2223 C803.6773,680.8893 789.3473,679.2723 789.8183,670.4143 C789.3863,667.4673 789.3693,664.4213 789.4813,661.3693 C789.4133,660.9753 789.3393,660.5753 789.2573,660.1663 C789.0223,658.9953 789.2223,657.9113 789.6823,656.9793 C789.7563,655.5153 789.8233,654.0603 789.8473,652.6303 C789.9413,646.8113 789.9353,641.0153 789.7743,635.1983 C789.4353,622.9323 788.9473,610.6663 788.4543,598.4063 C787.4693,573.9063 786.0993,549.3953 784.1133,524.9553 C777.2033,439.8853 762.6123,354.3303 738.1033,272.4873 C726.7203,234.4813 711.0273,197.1723 688.5223,164.3303 C678.5323,149.7503 667.2613,136.2833 654.7663,123.7843 C642.1923,111.2073 628.3363,98.6953 613.5023,88.8713 Z M443.9151,637.2711 L445.613356,649.555836 C446.46226,655.69926 447.3031,661.8447 448.1011,667.9941 C453.5221,667.2521 459.0681,666.9411 464.2921,666.4781 C473.4371,665.6681 482.6451,665.2761 491.8171,664.8971 C510.7841,664.1151 529.8461,662.7581 548.8321,662.8531 C549.0271,662.8541 549.2111,662.8671 549.3951,662.8821 L550.3371,638.6431 L550.3371,638.6431 L536.9971,638.6221 L536.9971,638.6221 C525.6951,638.6041 514.3951,638.5081 503.0931,638.4111 C492.914225,638.3236 482.731522,638.3096 472.55437,638.097782 L468.1931,637.9941 C460.4751,637.7861 451.9531,638.2151 443.9151,637.2711 Z M551.4561,602.0881 C550.9121,602.1521 550.3581,602.2061 549.7691,602.2311 C547.1271,602.3421 544.4641,602.2651 541.8201,602.2871 C536.1901,602.3361 530.5611,602.3741 524.9301,602.3731 C513.6701,602.3721 502.4111,602.4401 491.1531,602.5761 C479.5631,602.7161 467.9811,602.9171 456.3901,602.9401 C450.7741,602.9501 445.1761,602.8011 439.5621,602.6441 C440.4701,610.6221 441.4191,618.5941 442.4671,626.5471 C451.185058,625.369308 460.561511,625.963116 469.081745,625.881744 L470.1881,625.8671 C481.8171,625.6681 493.4561,625.8151 505.0881,625.8291 C517.0541,625.8431 529.0191,625.8821 540.9861,625.9801 L550.8171,626.0611 L550.8171,626.0611 L550.8361,625.5661 L550.8361,625.5661 C551.1241,617.7481 551.3101,609.9201 551.4561,602.0881 Z M435.2371,563.9221 C436.3271,573.3391 437.3501,582.7721 438.3931,592.2021 C439.0861,592.0951 439.7881,592.0031 440.5031,591.9281 C446.1271,591.3401 451.7391,590.8361 457.3831,590.4861 C468.6341,589.7891 479.8841,589.4211 491.1531,589.1191 C502.7411,588.8081 514.3311,588.5701 525.9231,588.4061 C531.5551,588.3271 537.1821,588.3351 542.8141,588.3741 C545.4561,588.3921 548.1251,588.3091 550.7621,588.4861 C551.0761,588.5071 551.3771,588.5401 551.6751,588.5741 L551.8731,574.416026 C551.907211,572.056767 551.942767,569.697767 551.9811,567.3391 C543.276671,567.875814 534.427386,567.670998 525.729486,567.673428 L523.7251,567.6781 C512.7961,567.7281 501.8631,567.5781 490.9361,567.3511 C479.6631,567.1161 468.4131,566.7481 457.1601,566.0261 C452.600957,565.734671 448.074876,565.346263 443.540922,564.846392 L441.2731,564.5871 C439.3001,564.3541 437.2681,564.1661 435.2371,563.9221 Z M552.8791,523.9681 C531.916243,525.63191 511.06495,526.327012 490.046203,526.5337 L486.8921,526.5611 C468.3181,526.7021 449.5911,527.4681 430.9731,526.9761 C432.0861,536.6271 433.1961,546.2781 434.3151,555.9271 C436.9811,555.8031 439.6601,555.8021 442.2661,555.7081 C447.5671,555.5171 452.8501,555.4691 458.1541,555.4571 C469.0811,555.4321 480.0081,555.5271 490.9361,555.5051 C502.1981,555.4811 513.4581,555.2911 524.7181,555.0791 C533.8471,554.9081 543.0731,554.2211 552.2271,554.2461 L552.8791,523.9681 L552.8791,523.9681 Z M553.7661,482.7941 C551.336924,483.600688 548.46927,483.652564 545.324877,483.796772 L537.209748,484.200956 C533.44854,484.3853 529.6869,484.5587 525.9231,484.6961 C513.3821,485.1551 500.8411,485.5841 488.2981,485.9831 C475.4451,486.3911 462.5301,486.6281 449.6751,486.2231 C443.3781,486.0241 437.1341,485.6941 430.8561,485.1691 C429.3041,485.0391 427.7221,484.9541 426.1371,484.8421 C427.5981,497.6291 429.0651,510.4141 430.5371,523.1991 C449.0661,520.9251 467.7381,519.5091 486.2441,517.1571 L502.977444,515.020381 C519.702913,512.886163 536.4146,510.7916 553.2011,509.0261 L553.7661,482.7941 L553.7661,482.7941 Z M554.6591,441.1651 C551.094865,442.0451 547.032802,442.001197 543.610089,442.217254 L542.9761,442.2611 C536.4911,442.7531 529.9891,442.9991 523.4891,443.1591 C510.7491,443.4731 498.0011,443.6301 485.2571,443.7081 L477.593668,443.75574 C467.37754,443.81558 457.1673,443.8415 446.9481,443.6031 C440.3931,443.4511 433.8531,443.1301 427.3031,442.8021 C425.3411,442.7031 423.3351,442.6381 421.3231,442.5371 C422.6921,454.6431 424.0751,466.7461 425.4551,478.8501 C427.6071,478.5081 429.7691,478.2481 431.8301,477.9001 C437.1091,477.0081 442.3781,476.2961 447.6951,475.6591 C459.2111,474.2791 470.7871,473.2861 482.3571,472.4481 C494.2351,471.5871 506.1231,470.8591 518.0031,470.0261 L526.41685,469.432975 C529.22135,469.23835 532.0261,469.0501 534.8321,468.8781 C539.6241,468.5841 545.1941,468.9161 549.9471,467.8731 C551.2341,467.3371 552.6631,467.2141 554.0941,467.5201 L554.6591,441.1651 L554.6591,441.1651 Z M555.7381,392.4381 C554.5051,394.0041 552.6631,394.8251 550.4671,395.1091 C539.027989,396.592822 527.294526,396.831347 515.758685,397.530577 L513.7251,397.6591 C501.8141,398.4441 489.8961,399.0601 477.9761,399.6931 C465.7311,400.3431 453.4881,400.8731 441.2331,401.3001 C436.03035,401.481225 430.801569,401.502334 425.590971,401.43578 L423.3591,401.4021 C421.2191,401.3661 418.9781,401.3711 416.7321,401.2981 C417.9751,412.6181 419.2301,423.9371 420.5031,435.2531 C422.7931,435.0041 425.0821,434.8141 427.3031,434.5791 C433.8491,433.8871 440.3871,433.2031 446.9481,432.6861 C459.3801,431.7061 471.8211,431.1171 484.2761,430.5011 C497.0191,429.8701 509.7691,429.4501 522.5141,428.8551 C528.6931,428.5661 534.8701,428.2071 541.0311,427.6391 C545.3491,427.2421 550.4781,425.7721 554.9831,426.3121 C555.2291,415.0201 555.4851,403.7291 555.7381,392.4381 Z M556.7431,348.7881 C556.5481,349.0901 556.3201,349.3821 556.0431,349.6541 C551.00688,354.62956 544.799932,354.245988 538.126269,354.767958 L537.7171,354.8011 C531.1761,355.3511 524.6321,355.8741 518.0841,356.3461 C504.9951,357.2911 491.8801,357.9521 478.7721,358.5411 C465.3571,359.1441 451.8561,359.5591 438.4281,359.2851 C429.8291,359.1091 420.8231,359.1401 412.0521,358.3021 C413.3991,370.7691 414.7541,383.2351 416.1191,395.7001 C418.5851,395.2351 421.0671,394.8791 423.4181,394.5091 C429.3431,393.5771 435.2741,392.6401 441.2331,391.9541 C453.1411,390.5831 465.0521,389.3011 476.9831,388.1441 C487.186433,387.154933 497.386294,386.150489 507.597151,385.246507 L513.7251,384.7171 C525.9081,383.6921 538.2451,382.0021 550.4671,381.7521 C552.4811,381.7111 554.7591,382.8071 555.9131,384.5371 C556.1831,372.6201 556.4631,360.7041 556.7431,348.7881 Z M557.5891,313.4511 C554.4781,313.8291 551.1261,313.6141 548.2551,313.7081 C540.9961,313.9451 533.7361,314.1651 526.4761,314.3791 L482.9151,315.6651 L482.9151,315.6651 C468.0841,316.1021 453.2011,316.4301 438.3641,316.2201 C431.8373,316.1283 425.28215,316.1175 418.757699,315.762693 L416.5841,315.6311 C413.8991,315.4521 410.6041,315.4271 407.3861,315.1001 L411.1851,350.2871 L411.1851,350.2871 C419.913633,349.026167 428.908727,348.55446 437.563041,347.815032 L439.4121,347.6521 C452.1761,346.4891 465.0011,345.7201 477.7881,344.8541 C490.9051,343.9661 504.0031,342.8881 517.1021,341.7851 C523.6491,341.2351 530.1951,340.6861 536.7371,340.0841 L537.545254,340.00453 C543.725044,339.359249 549.536058,337.986517 555.0091,341.6301 C555.8101,342.1621 556.4371,342.8741 556.8661,343.6711 C557.1051,333.5981 557.3391,323.5241 557.5891,313.4511 Z M558.6041,272.3861 C532.0751,273.4541 505.5421,274.2641 478.9931,274.6201 C464.0491,274.8201 449.1241,274.6791 434.1821,274.3671 C427.702989,274.2311 421.170149,273.921273 414.695955,273.424977 L412.2711,273.2301 C409.1931,272.9711 405.9591,272.7831 402.7391,272.4731 C404.0701,284.5711 405.3901,296.6711 406.7001,308.7731 C409.867457,308.184386 413.177947,307.912978 415.953414,307.557747 L416.5841,307.4741 C423.4811,306.5251 430.4431,305.9721 437.3741,305.3621 C450.8701,304.1731 464.4331,303.4071 477.9651,302.7561 C491.8221,302.0891 505.6861,301.5241 519.5451,300.9081 L533.405322,300.287656 C535.715211,300.185433 538.0251,300.084767 540.3351,299.9871 C543.6361,299.8481 546.9361,299.7151 550.2361,299.5781 C551.8641,299.5111 553.5561,299.2901 555.1861,299.3741 L555.649956,299.31178 C555.86382,299.28454 556.0527,299.2627 556.2261,299.2441 C556.669433,298.9066 557.146794,298.626739 557.652396,298.414355 L557.9591,298.2951 L558.6041,272.3861 Z M398.3891,233.4701 C399.6211,244.3611 400.8391,255.2551 402.0411,266.1501 C405.8251,265.7181 409.6541,265.4791 413.2671,265.1541 C420.5521,264.5011 427.8711,263.9291 435.1781,263.5931 L449.781767,262.914915 C459.516656,262.464767 469.2511,262.029433 478.9931,261.6741 C505.6551,260.7011 532.3161,259.5861 558.9621,258.2251 C559.1501,250.8361 559.3441,243.4471 559.5421,236.0581 C558.2631,237.4281 556.4151,238.3291 553.9871,238.3231 C526.0131,238.2481 498.0171,238.4101 470.0461,237.9501 C456.0451,237.7191 442.0601,237.3801 428.0751,236.6621 C421.2321,236.3111 414.3511,235.5951 407.5601,234.6541 C404.6641,234.2531 401.4951,233.9671 398.3891,233.4701 Z M393.9121,194.6611 C395.2271,205.8171 396.5171,216.9771 397.7861,228.1391 C401.2601,227.5191 404.8491,227.1891 408.0901,226.7481 C415.0541,225.8011 422.0611,225.0471 429.0751,224.6511 C442.7231,223.8791 456.3791,223.4901 470.0461,223.2001 C498.0151,222.6061 526.0121,222.6101 553.9871,222.3891 C556.6151,222.3681 558.5661,223.4081 559.8471,224.9601 C560.0411,217.9931 560.2461,211.0261 560.4571,204.0581 C557.7551,203.7731 555.0761,203.3691 552.5971,203.1961 C544.9781,202.6641 537.3561,202.1781 529.7311,201.7411 C513.8191,200.8281 497.8921,200.0491 481.9691,199.3561 C466.0421,198.6631 450.1101,197.9861 434.1781,197.3961 L427.210304,197.141645 C416.13093,196.72955 404.863535,196.209187 393.9121,194.6611 Z M388.9021,152.6441 C390.2711,163.9431 391.6191,175.2441 392.9641,186.5471 L393.3731,190.0451 L393.3731,190.0451 C406.6981,187.4551 420.7411,186.6961 434.1781,186.1251 C450.1131,185.4471 466.0201,185.0981 481.9691,185.1471 C497.9021,185.1951 513.8111,185.5721 529.7311,186.2301 C537.6861,186.5581 545.6401,186.9381 553.5901,187.3701 C555.7761,187.4881 558.3391,187.4251 560.9771,187.4631 C561.0341,185.6871 561.0831,183.9111 561.1441,182.1361 C561.3861,174.9421 561.6231,167.7481 561.8701,160.5551 C556.492915,163.316878 549.501304,164.430848 544.097399,165.607908 L543.4811,165.7441 C534.5581,167.7481 525.4471,169.0471 516.3391,169.8411 C498.4531,171.4011 480.3811,170.8181 462.5121,169.3071 L459.381954,169.03931 C443.690416,167.678756 427.422975,165.954225 412.2111,162.0711 C404.9651,160.2221 397.4741,157.6341 390.9811,153.8831 C390.3061,153.4931 389.6091,153.0801 388.9021,152.6441 Z M539.9895,18.3683 C540.1445,17.7573 541.0595,17.6183 541.3605,18.1893 C543.4735,22.2033 544.2595,27.0213 545.7265,31.3223 C547.3055,35.9463 548.7785,40.6043 550.5205,45.1723 C554.1595,54.7163 558.4525,63.8873 563.5705,72.7283 C568.6395,81.4823 554.4465,87.7313 550.7165,78.1473 C546.8655,68.2573 543.7005,58.0313 541.7855,47.5803 C540.8505,42.4813 540.0175,37.3123 539.7475,32.1313 C539.5145,27.6813 538.8885,22.7093 539.9895,18.3683 Z" id="ðŸ–-Ink" fill="#000000"></path>
    </g>
</svg>