<?xml version="1.0" encoding="UTF-8"?>
<svg width="818px" height="733px" viewBox="0 0 818 733" version="1.1" xmlns="http://www.w3.org/2000/svg" xmlns:xlink="http://www.w3.org/1999/xlink">
    <!-- Generator: Sketch 62 (91390) - https://sketch.com -->
    <title>body/mono/Sporty Tee</title>
    <desc>Created with Sketch.</desc>
    <g id="body/mono/Sporty-Tee" stroke="none" stroke-width="1" fill="none" fill-rule="evenodd">
        <path d="M114.3057,711.7404 C126.276819,712.480097 138.247126,713.064531 150.216691,713.51052 C306.747242,719.342894 463.150869,701.498836 619.5847,697.5944 C674.0617,696.1604 728.2597,696.8764 782.5967,701.2504 C787.9207,701.6784 794.0087,695.9504 793.3547,690.4924 C783.3157,603.8384 770.7567,517.4144 764.2477,430.4044 C764.2427,425.8024 764.8367,421.2074 766.4187,416.8714 C766.7167,416.5314 768.2627,412.7194 769.6377,412.4834 C769.1887,412.8154 771.2237,412.2314 769.9277,412.3314 C777.7837,411.0454 785.4887,402.5654 779.7877,394.4504 C721.0557,304.4334 640.8817,222.2734 615.0877,115.3554 C608.9937,86.4494 586.9817,84.6624 563.5317,72.7374 C556.2157,68.3864 538.3247,56.3324 535.4127,47.9524 C528.4577,17.7494 540.7057,-11.8396 504.9227,-24.0606 C481.3007,-30.6096 439.5487,-36.1506 415.6477,-29.2436 C386.4927,-19.5406 388.6747,13.3134 371.7637,35.9164 C363.017605,48.9900778 348.107482,66.890205 334.339312,68.8933261 C327.666395,69.8641638 322.751468,56.3663339 316.0887,57.2954 C212.2347,82.5184 70.7407,254.5844 26.1047,349.8344 C16.0457,379.8114 48.4864,370.7674 46.4934,400.8974 C44.0364,458.0584 38.6627,531.2344 41.8497,588.4634 C44.8347,621.6794 42.6257,656.4824 52.9507,688.4494 C50.1717,691.8234 54.1647,695.2324 57.4227,696.6984 C61.5277,703.6794 101.9197,710.7734 114.3057,711.7404 Z" id="ðŸŽ¨-Background" fill="#FFFFFF"></path>
        <path d="M384.6834,-0.0836 C387.3834,-12.2326 406.7134,-7.0226 403.4034,5.0764 C398.2734,23.7874 387.6334,41.4674 372.6144,53.8774 C361.0134,63.4574 345.2044,72.0064 329.5234,73.5864 C330.9934,75.0174 332.4034,76.5474 333.8834,78.0064 C337.2234,81.3264 340.7734,84.4064 344.4334,87.3664 C351.9544,93.4464 359.7734,98.9164 368.3134,103.4964 C402.4234,121.7974 440.9544,126.0174 479.0534,121.7564 C497.1334,119.7364 515.4834,116.3074 532.4834,109.6964 C540.3644,106.6374 548.0234,102.6164 554.7844,97.5374 L556.55359,96.2092574 C560.107854,93.5251282 564.851218,89.7380061 567.0734,85.5974 C560.3134,87.1164 551.7634,79.9164 547.0734,75.7274 C541.9444,71.1274 537.6234,65.1964 534.4334,59.1164 C528.1834,47.1874 524.8734,31.7974 530.1144,19.0064 C530.4634,18.1564 531.5834,18.2974 531.6834,19.2174 C533.2334,34.1274 537.2534,48.1074 547.9544,59.1474 C552.7044,64.0374 558.3934,68.1374 564.6034,70.9864 L565.477547,71.387873 C568.12298,72.61181 570.9083,74.0474 572.0234,76.6664 C572.4544,76.6164 572.8834,76.6564 573.2934,76.7674 C573.6634,76.8664 574.0034,76.9774 574.3334,77.0974 C573.5934,75.6474 573.2044,73.9374 573.2734,71.9164 C573.5344,64.0864 584.2844,63.8474 585.7734,70.8174 C585.5034,69.8974 585.1434,70.7874 585.8234,71.0674 C585.812748,70.9861802 585.793816,70.89658 585.7729,70.8169 L585.793381,70.8906037 L585.793381,70.8906037 L585.8339,71.0669 L585.8234,71.0674 C585.850733,71.1934 585.872733,71.3247333 585.887326,71.4572519 L585.901302,71.6316141 L585.892603,71.4856188 C585.883384,71.3776813 585.870478,71.2811188 585.856009,71.1931813 L585.8334,71.0674 C585.9334,71.1164 586.0734,71.1474 586.2334,71.1474 L586.299494,71.1734385 C586.549996,71.2814444 587.433533,71.6934 587.6944,71.7974 C589.4834,72.4574 591.4834,72.6664 593.3134,73.2364 C597.2844,74.4574 600.7844,76.4774 603.2044,79.9164 C604.9444,82.3874 605.9134,85.2174 606.3134,88.1564 C623.8834,96.6074 640.5134,107.5864 654.4444,121.1774 C685.5344,151.4964 707.2134,189.4464 725.0034,228.7274 C734.05785,248.7249 742.12677,269.146575 750.018665,289.623754 L751.2634,292.8574 C759.7234,314.8664 767.2044,337.1164 769.0434,360.7774 C769.2134,362.8974 768.5134,364.8874 767.3034,366.5374 C767.7334,368.3174 767.9544,370.0974 767.8934,371.8364 C767.8834,372.1074 767.8644,372.3774 767.8434,372.6474 C770.6834,372.5974 773.4634,373.7874 776.1034,377.1274 C777.1734,376.7874 778.3334,376.7464 779.4734,377.1164 C786.4234,379.3364 787.5434,386.9674 788.8534,393.3574 C790.2044,399.9574 790.7934,406.7174 790.8034,413.4464 C790.8034,415.8574 789.4234,418.8974 787.0834,419.9274 C782.6834,421.8664 777.9444,423.1374 773.3934,424.8974 C769.9734,426.2174 766.5434,427.4674 763.0834,428.6374 C765.0034,431.9864 765.6234,436.6474 766.6634,440.1774 C768.2934,445.6874 769.6034,451.2174 770.7044,456.8574 C778.1634,495.2074 783.3334,533.9674 790.3134,572.3974 C793.8034,591.6474 797.8644,610.7674 802.0034,629.8874 C804.0434,639.2874 806.2134,648.6664 808.5434,658.0064 C809.7844,662.9864 811.0734,667.9674 812.4034,672.9164 C812.790067,674.363067 813.181178,675.805289 813.576733,677.24603 L814.2734,679.7674 L814.2734,679.7674 C815.7934,680.6074 817.0934,681.8774 817.9934,683.6164 C821.2844,689.9774 819.3934,697.1474 813.0834,700.7274 C806.2234,704.6274 798.0344,700.9464 794.2534,694.6164 C791.5934,690.1474 790.7234,684.2274 789.4134,679.2564 C787.9334,673.6774 786.5234,668.0674 785.1634,662.4574 C775.924377,624.344842 769.737293,585.564463 765.073927,546.638096 L764.7434,543.8574 C762.3734,523.8174 760.0834,503.7274 758.6034,483.5974 C757.8734,473.7074 757.2934,463.8174 756.9334,453.9064 C756.7534,448.8074 757.0434,443.6774 757.3334,438.5864 C757.4634,436.3574 757.6534,434.1164 757.7234,431.8874 L757.7459,431.569961 C757.7644,431.344046 757.7904,431.046856 757.8114,430.735016 L757.8334,430.3574 C750.9334,432.5174 743.9334,434.3174 736.8644,435.8364 C721.8234,439.0864 706.4334,440.8974 691.0834,439.9774 C693.2234,465.3974 696.0134,490.7564 699.9134,515.9464 C703.6734,540.2074 708.0134,564.4164 712.9134,588.4774 C715.3644,600.5674 718.0134,612.6274 720.8034,624.6474 C722.3034,631.0674 724.0134,637.4464 725.3644,643.8974 C726.1634,647.7364 726.4134,650.9464 724.8034,654.5374 C726.576127,659.364673 728.150507,664.216739 729.699343,668.785559 L730.1634,670.1474 C732.9034,678.1474 738.1034,686.3264 732.6734,694.1874 C729.8644,698.2464 725.2844,700.5674 720.6734,700.7074 C720.5934,700.7564 720.5034,700.8174 720.4134,700.8664 C717.9334,702.1964 715.0734,702.4574 712.3534,701.8874 C708.2234,702.6964 704.0834,703.4774 699.9334,704.1874 C689.6834,705.9574 679.3834,707.4164 669.0634,708.6474 C649.4134,710.9864 629.6334,712.2674 609.8644,712.9774 C537.4834,715.5864 465.0234,711.0064 392.6144,712.3264 C355.7234,712.9964 318.8334,714.6564 282.0034,716.8574 C263.6234,717.9574 245.2334,719.1374 226.8434,720.0474 L221.151089,720.32428 C204.7051,721.110794 188.247193,721.718779 171.8134,720.5174 C171.4934,720.4964 171.2434,720.3664 171.0734,720.1874 C165.4034,719.5474 159.7044,714.3264 160.2734,708.2974 C162.7234,682.6164 165.1734,656.9374 167.6334,631.2464 C172.0034,585.4774 176.4134,539.7074 180.8734,493.9464 L181.517951,487.340386 C183.016525,471.92115 184.44715,456.466025 185.1734,440.9864 C181.5134,440.7274 177.8644,440.3974 174.2134,439.9964 C134.657933,435.66592 96.7379653,423.702139 60.328627,407.986564 L58.8534,407.3474 C55.5734,405.9164 51.9834,404.4864 48.3034,402.9574 C48.3644,409.9464 48.1334,416.9464 48.1034,423.8664 C48.0534,435.3574 48.1434,446.8474 48.1734,458.3264 C48.2434,481.9864 49.1434,505.6564 50.3234,529.2774 C52.3934,570.9964 54.8234,612.6564 58.5034,654.2764 C59.4334,664.7464 60.6944,675.1964 61.5834,685.6664 C62.1144,691.8364 60.8434,696.9774 55.1944,700.2174 C52.4134,701.8174 50.2634,701.1474 47.5034,699.8574 C40.7634,696.6964 40.5734,689.2274 39.9334,682.7274 C39.4444,677.8264 38.9934,672.9274 38.5534,668.0174 C37.6144,657.5474 36.8034,647.0764 36.1434,636.5864 C33.5344,594.9064 32.7734,553.2674 34.5734,511.5374 C35.4091143,492.018829 36.6155939,472.456283 38.2168585,452.972263 L38.5934,448.4774 C39.9134,432.9064 40.7634,416.5674 43.4934,400.8974 C32.4834,396.0174 21.5734,389.8074 16.5134,379.4864 C9.9544,366.0864 17.1634,354.6274 27.4334,346.7364 C27.3334,345.4064 27.4334,344.0864 27.7134,342.8874 C30.6634,330.1164 35.6034,317.4964 40.3734,305.3174 C45.1834,293.0764 50.4934,281.0274 56.3334,269.2364 C79.7734,222.0064 111.7934,178.8474 149.9634,142.4864 C168.9234,124.4274 189.6734,107.7364 211.8234,93.7364 C222.8034,86.8074 234.0634,80.4064 245.7234,74.7074 L247.447279,73.8679511 C255.564338,69.9289111 264.668133,65.7407333 273.6944,63.5474 C274.6334,62.8474 275.5834,62.1874 276.5434,61.5574 C280.0934,59.1964 284.9134,60.9064 287.0134,64.2764 C288.0344,63.4864 289.2134,62.7874 290.5634,62.1564 L291.897753,61.5473662 C299.996835,57.9005856 309.721821,54.4905579 318.5134,56.8874 C323.9734,58.3774 328.2734,62.3974 330.2044,67.5174 C334.6334,65.1774 338.9834,62.7674 343.2334,59.8174 C350.0634,55.0974 356.2534,49.2364 361.8134,43.0864 C372.9634,30.7174 381.0634,16.2274 384.6834,-0.0836 Z M771.5734,389.9164 C770.8134,390.1374 770.0134,390.2174 769.1834,390.1164 C770.682874,390.292637 767.679058,391.178971 766.855283,391.603974 L766.7934,391.6374 C765.2934,392.4964 763.7844,393.3264 762.2534,394.1274 C758.6834,396.0064 755.0344,397.6964 751.3234,399.2874 C744.0134,402.3974 736.4634,404.7874 728.7134,406.5374 C721.1334,408.2464 713.1834,409.2464 705.4134,409.4064 C700.2134,409.5064 694.0434,409.2674 688.6634,407.7364 C689.2844,417.1664 689.9734,426.5864 690.7434,435.9964 L701.368541,433.5604 C711.9944,431.122338 722.60915,428.62465 733.0934,425.5864 C740.9634,423.3074 748.7234,420.6374 756.3934,417.7564 C760.4134,416.2464 764.4034,414.6474 768.3434,412.9274 C770.304178,412.071067 772.142758,411.05261 773.959359,410.021181 L775.5134,409.1374 C775.1534,404.9274 774.4934,400.7974 773.5344,396.6374 C773.0344,394.4374 772.1834,392.1774 771.5734,389.9164 Z M43.9934,345.5064 C42.6434,349.8874 40.5734,353.9774 35.8534,354.9674 C34.1834,355.3174 32.7844,355.1274 31.6234,354.5574 L31.3450032,355.118895 C27.4641927,363.084303 26.324492,371.491768 35.2534,377.6274 C39.2844,380.3974 43.6734,382.7974 48.2134,384.9464 C56.33215,388.809838 64.9782437,391.915658 73.1299527,395.074652 L74.7534,395.7074 C89.3334,401.4274 104.1434,406.6374 119.1834,410.9964 C134.4444,415.4064 149.9734,418.9464 165.6944,421.1964 C172.3234,422.1374 179.0034,422.7974 185.6944,423.2274 C185.8034,414.2274 185.7534,405.2174 185.7234,396.2174 C183.3434,395.9164 180.9834,395.5974 178.7044,395.3264 C171.7634,394.5174 164.8434,393.5274 157.9634,392.2974 C143.5934,389.7274 129.3734,386.1774 115.5034,381.6374 C89.8034,373.2074 65.8934,361.1564 43.9934,345.5064 Z M325.7634,69.8264 C319.9234,63.6474 308.7534,65.8774 301.7044,68.8774 C299.5734,69.7874 297.4234,70.7074 295.3834,71.8174 L294.988254,72.0384174 C292.61248,73.4067 292.62445,74.2199 293.7844,76.9464 C295.2934,80.5374 297.3934,84.0064 299.3934,87.3364 C307.9544,101.6274 319.2234,114.0674 332.0934,124.5764 C377.6734,161.7764 443.1534,174.8974 500.1534,162.4374 C527.509444,156.463774 553.897127,144.406099 574.035445,124.629482 L575.869335,122.804714 C583.989203,114.679685 595.13526,102.919005 594.3534,90.8774 C593.9834,85.0864 589.2534,84.7564 584.4234,83.6374 C582.4444,83.1774 580.5534,82.5264 578.9134,81.6074 C580.2334,87.2974 573.2044,95.7564 569.5734,99.3074 C561.9634,106.7564 552.8034,112.5764 543.1144,116.9274 C524.6734,125.2174 504.6144,129.1374 484.6434,131.6164 C461.9834,134.4374 438.8334,134.1874 416.3434,130.0174 C396.7734,126.3874 377.4834,119.5174 360.6434,108.8174 C352.9234,103.9164 345.3134,98.3264 338.8734,91.8174 L337.504722,90.4341769 C332.855136,85.7234331 327.445218,80.0292182 324.6634,73.8474 C323.6034,73.8574 322.5534,73.8264 321.5034,73.7564 C320.7634,73.7174 320.3644,72.6664 321.1034,72.2764 C321.9334,71.8364 322.7634,71.3974 323.5934,70.9674 C323.4544,70.5064 323.3334,70.0574 323.2334,69.5974 C323.1534,69.2074 323.5634,68.8474 323.9234,69.0674 C324.4234,69.3664 324.9034,69.6874 325.3734,70.0264 C325.5034,69.9674 325.6334,69.8974 325.7634,69.8264 Z" id="ðŸ–-Ink" fill="#000000"></path>
    </g>
</svg>