<?xml version="1.0" encoding="UTF-8"?>
<svg width="818px" height="733px" viewBox="0 0 818 733" version="1.1" xmlns="http://www.w3.org/2000/svg" xmlns:xlink="http://www.w3.org/1999/xlink">
    <!-- Generator: Sketch 62 (91390) - https://sketch.com -->
    <title>body/mono/Striped Tee</title>
    <desc>Created with Sketch.</desc>
    <g id="body/mono/Striped-Tee" stroke="none" stroke-width="1" fill="none" fill-rule="evenodd">
        <path d="M47.4686,592.4648 C44.4746,619.9108 37.6926,650.1448 50.6206,676.0398 C42.4786,676.4048 49.0836,678.7598 53.4776,679.5698 C55.9866,681.5118 59.3586,682.2808 62.5296,682.0108 C78.9936,685.4908 95.9896,686.7518 112.7066,688.7208 C321.4246,706.0568 531.5416,701.4528 740.6496,693.9828 C747.4506,693.6878 752.0136,688.7478 752.5346,682.0938 C760.1986,584.1718 764.0126,485.9468 763.8176,387.7258 C760.4126,353.2088 786.5016,366.6778 772.5846,321.1938 C761.3966,273.2188 744.8376,226.5218 723.7216,182.0258 C709.1256,153.0708 695.3726,122.6038 673.1256,98.5928 C666.0956,97.6218 660.1106,90.6388 654.1696,86.7388 C648.1526,85.5668 643.6926,80.4578 637.5946,78.8868 C625.9736,75.8638 599.9676,69.4348 590.0706,77.1668 C589.6796,77.0598 589.2836,76.9688 588.8926,76.8578 C586.9556,79.0058 584.2946,77.3948 582.8496,75.4648 C577.9046,71.6258 556.290196,71.2310252 553.837196,65.3390252 C541.049196,53.7390252 537.6277,29.3257023 537.6277,15.043 C532.8457,9.67 532.5146,10.6678 526.0236,7.8278 C519.6596,-0.1992 511.9716,-7.1912 503.3906,-12.7032 C455.0996,-44.4112 385.0226,-10.9992 373.7176,44.1138 C355.8466,58.2638 337.4516,72.6378 315.5626,80.0108 C304.8806,74.5158 292.7116,72.7618 281.3746,72.7508 C272.9236,72.4438 261.2456,67.5568 255.7536,76.4508 C163.3566,106.6978 107.5926,194.6688 67.9406,278.0218 C62.3826,289.8898 55.7336,302.3158 57.4346,315.8368 C58.6036,332.0298 76.1776,341.6678 72.8566,358.8288 C68.0296,406.0348 62.5386,453.1928 57.5136,500.3848 C54.1646,531.0778 50.8166,561.7718 47.4686,592.4648 Z" id="ðŸŽ¨-Background" fill="#FFFFFF"></path>
        <path d="M723.4177,367.271 C717.4437,369.434 709.0697,371.542 704.7977,376.429 C704.3057,371.875 703.8077,367.322 703.3077,362.768 C715.8257,362.471 728.3707,362.363 740.8957,362.013 C734.9837,363.459 729.1407,365.2 723.4177,367.271 M695.9147,653.719 C691.6067,653.759 687.2847,654.059 682.9797,654.227 C674.6877,654.548 666.3957,654.865 658.1027,655.176 C641.1857,655.81 624.2687,656.421 607.3497,657.01 C573.8457,658.175 540.3377,659.25 506.8267,660.237 C439.8057,662.208 372.7507,663.402 305.7387,665.656 C287.1477,666.281 268.5577,666.767 249.9837,667.779 C240.3587,668.303 230.6887,668.754 221.1097,669.869 C213.0287,670.809 205.0627,672.395 197.0267,673.577 C197.5657,663.106 198.0707,652.633 198.5957,642.163 C199.0927,632.257 199.5567,622.35 200.0177,612.442 C231.3867,614.083 262.7927,614.746 294.2037,615.026 C327.4297,615.323 360.6457,616.147 393.8737,616.211 C459.6547,616.342 525.4417,615.514 591.2207,614.854 C609.8247,614.666 628.4307,614.48 647.0357,614.293 C656.3377,614.2 665.6407,614.106 674.9427,614.012 C679.5867,613.966 684.2577,614.065 688.8967,613.873 C693.8487,613.667 696.8557,612.259 700.4497,608.927 C702.3667,607.15 702.4467,603.531 700.4497,601.768 C697.5657,599.221 694.8887,597.267 690.8907,596.981 C686.9647,596.7 682.8677,597.086 678.9297,597.138 C670.2917,597.251 661.6537,597.366 653.0157,597.479 C636.4037,597.698 619.7927,597.916 603.1807,598.134 C569.9567,598.571 536.7327,599.018 503.5107,599.524 C470.9507,600.021 438.3877,600.391 405.8337,601.209 C372.5947,602.046 339.3947,603.557 306.1637,604.625 C270.7917,605.761 235.4377,607.118 200.1457,609.772 C200.9937,591.407 201.7747,573.038 202.5097,554.667 C272.5847,558.481 342.7077,561.196 412.8997,561.315 C486.0277,561.44 559.1517,560.19 632.2527,558.282 C642.5537,558.012 652.8547,557.74 663.1537,557.417 C668.4697,557.25 673.7857,557.096 679.1017,556.904 C683.0097,556.762 687.0257,556.595 690.5587,554.726 C697.5307,551.038 698.7337,540.269 690.4617,537.323 C685.9397,535.713 681.1427,537.287 680.0427,541.364 C679.7047,541.397 679.3827,541.424 679.1017,541.435 C675.1147,541.585 671.1267,541.696 667.1407,541.822 C658.5017,542.096 649.8637,542.377 641.2247,542.648 C625.2757,543.147 609.3257,543.608 593.3747,544.03 C560.8087,544.893 528.2387,545.596 495.6657,546.139 C431.1757,547.213 366.6907,548.206 302.2087,549.68 C269.0027,550.44 235.8067,551.425 202.6047,552.267 C203.3977,532.298 204.1467,512.329 204.8217,492.358 C204.9007,490.018 204.9867,487.676 205.0717,485.335 C209.8297,486.381 214.7017,486.96 219.5487,487.646 C227.9597,488.836 236.3967,489.717 244.8437,490.608 C260.7597,492.287 276.7277,493.317 292.7027,494.199 C325.2717,495.995 357.8497,497.262 390.4527,498.255 C454.9457,500.219 519.5187,500.647 584.0377,500.426 C619.0727,500.307 654.3207,500.768 689.3387,499.241 C691.4967,499.831 693.7207,499.77 695.8717,499.067 C697.6377,530.287 699.5027,561.5 701.3357,592.716 C702.5727,613.777 703.6637,634.909 705.1827,655.977 C702.2157,654.516 699.4847,653.688 695.9147,653.719 M88.7827,336.541 C82.6387,333.535 75.8627,330.792 70.4387,326.534 C64.5097,321.878 63.0537,316.412 64.8757,309.106 C65.0117,308.56 65.1717,308.017 65.3137,307.473 C109.0047,307.58 152.5847,305.657 196.2567,304.62 C240.6267,303.567 284.9807,302.682 329.3627,302.432 C417.8737,301.934 506.3737,303.93 594.8427,306.415 C626.7037,307.309 658.5637,308.191 690.4257,309.061 C689.6987,316.829 689.9787,324.788 689.8137,332.501 C689.6687,339.276 689.7067,346.061 689.8077,352.845 C673.1397,352.804 656.4757,352.444 639.8057,352.256 C598.5367,351.791 557.2897,352.976 516.0307,353.92 C433.5157,355.808 350.9787,357.293 268.4797,359.778 C246.0727,360.452 223.5217,360.807 201.0117,361.766 C200.2377,358.106 199.3787,354.464 198.4097,350.846 C196.8697,345.098 195.1317,339.19 190.5267,335.197 C190.3057,335.004 189.9997,335.088 189.9007,335.362 C188.1517,340.209 188.5937,345.144 189.1057,350.223 C189.5107,354.235 189.7847,358.258 189.9877,362.286 C175.9907,363.022 162.0227,364.057 148.1277,365.608 C144.1547,363.645 140.1797,361.686 136.1987,359.737 C120.3957,352 104.5877,344.273 88.7827,336.541 M596.0137,480.869 C563.4147,481.132 530.8137,481.16 498.2157,480.951 C433.6887,480.537 369.1827,478.95 304.6697,477.668 C286.7147,477.313 268.7837,476.96 250.8257,476.959 C241.5287,476.959 232.2007,477.021 222.9137,477.424 C217.0687,477.678 211.1427,477.715 205.3247,478.417 C206.0267,459.622 206.7577,440.808 206.7347,422.004 C268.2807,431.325 330.4877,433.885 392.6417,435.719 C455.6107,437.577 518.5947,438.54 581.5907,438.632 C599.4937,438.659 617.3967,438.619 635.2987,438.513 C643.9177,438.463 652.5377,438.397 661.1567,438.316 C665.7897,438.272 670.4507,438.366 675.0797,438.171 C679.9747,437.965 682.9317,436.805 686.3507,433.323 C688.1007,431.542 688.1897,428.468 686.3507,426.694 C680.2477,420.807 673.0677,422.085 665.1347,422.183 C657.1787,422.282 649.2227,422.367 641.2657,422.439 C625.3537,422.584 609.4397,422.676 593.5257,422.717 C562.3627,422.796 531.1987,422.676 500.0367,422.358 C437.0567,421.714 374.0907,420.314 311.1257,418.839 C276.3157,418.024 241.5127,418.248 206.7307,419.936 C206.7177,416.814 206.6887,413.691 206.6277,410.569 C206.3987,398.745 205.2467,386.921 203.4447,375.228 C220.4907,375.169 237.5357,374.805 254.5047,374.587 C295.7677,374.058 337.0217,373.227 378.2797,372.399 C419.2057,371.579 460.1317,370.758 501.0577,369.937 C541.9577,369.117 582.9837,369.058 623.8347,366.85 C645.8807,365.658 667.9347,364.038 689.9977,363.187 C690.0407,365.212 690.0837,367.238 690.1267,369.262 C690.6577,394.107 691.6287,418.928 692.8817,443.747 C693.4837,455.672 694.1187,467.597 694.7717,479.52 C694.4557,479.489 694.1327,479.47 693.8007,479.467 C661.2277,479.251 628.5927,480.605 596.0137,480.869 M80.1777,265.097 C83.9097,255.495 87.9637,245.958 92.3457,236.55 C110.9497,241.801 130.7947,244.51 149.9947,246.313 C170.4347,248.234 190.9147,249.313 211.4387,249.732 C251.9007,250.558 292.3627,248.639 332.7817,246.969 C415.9177,243.536 499.0457,241.029 582.2597,240.868 C605.4987,240.822 628.7367,240.93 651.9737,241.192 C663.5917,241.323 675.2097,241.48 686.8267,241.679 C692.8017,241.782 698.7757,241.895 704.7507,242.018 C707.3957,242.072 710.0727,242.268 712.7157,242.188 C716.2507,242.081 718.8327,241.018 722.1137,239.739 C725.8807,238.272 728.1027,231.974 723.4017,229.887 C718.7057,227.801 714.9377,226.579 709.7287,226.466 C704.0867,226.345 698.4437,226.233 692.8017,226.129 C682.5117,225.941 672.2217,225.783 661.9317,225.655 C641.0197,225.394 620.1047,225.284 599.1907,225.287 C558.0257,225.292 516.8607,225.779 475.7077,226.747 C393.0877,228.69 310.6527,234.449 228.0627,236.92 C205.2987,237.602 182.4917,237.735 159.7267,237.052 C137.6767,236.391 115.6737,234.535 93.6507,233.754 C101.2577,217.718 109.8647,202.101 119.5767,187.252 C156.2897,188.542 192.9237,187.588 229.6447,186.47 C248.9137,185.883 268.1827,185.288 287.4497,184.627 C297.0837,184.297 306.7177,183.967 316.3517,183.637 C321.0027,183.477 325.6537,183.318 330.3047,183.159 C335.3147,182.987 340.5877,183.311 345.4537,181.994 C346.3347,181.755 347.0347,181.245 347.5617,180.595 C360.5137,187.258 374.2127,192.514 388.2997,196.409 C418.8777,204.864 451.7657,208.036 483.3907,205.434 C508.7707,203.346 534.0637,197.064 556.3777,184.764 C606.7707,189.403 657.8697,187.223 708.3697,186.893 C713.1947,186.862 715.2017,182.442 714.3947,178.796 C730.6017,213.723 741.3377,251.588 751.3867,288.418 C757.6307,311.307 763.1847,334.339 768.4717,357.454 C768.2517,357.473 768.0327,357.493 767.8137,357.514 C768.4267,354.982 767.0487,351.997 763.5817,351.917 C743.1437,351.448 722.6397,352.622 702.1937,352.811 C701.6187,347.697 701.0437,342.582 700.4377,337.47 C699.6097,330.506 698.6237,323.559 697.7807,316.596 C697.4757,314.071 697.1917,311.633 696.8447,309.235 C713.0327,309.675 729.2197,310.12 745.4077,310.547 C755.9137,310.825 755.8947,294.555 745.4077,294.235 C656.4517,291.511 567.4917,288.759 478.5057,287.249 C389.4657,285.737 300.1187,284.805 211.1467,289.37 C162.6617,291.856 114.2967,295.181 66.4147,303.383 C70.1337,290.405 75.3217,277.591 80.1777,265.097 M155.8967,141.471 C157.5077,142.679 158.0237,143.441 160.4317,143.864 C163.0427,144.321 165.7277,144.467 168.3637,144.725 C174.0037,145.277 179.6577,145.483 185.3167,145.751 C196.6167,146.288 207.9157,146.856 219.2237,147.2 C241.6707,147.881 264.5987,148.846 287.0357,147.848 C292.5247,147.604 295.0217,143.078 294.5227,138.954 C298.7307,144.165 303.3317,149.057 308.2317,153.517 C316.1097,160.686 324.6137,167.041 333.5787,172.649 C327.7627,172.862 321.8407,173.591 316.3517,173.827 C307.0497,174.225 297.7477,174.624 288.4457,175.024 C268.8437,175.866 249.2437,176.77 229.6447,177.686 C193.3717,179.381 157.2227,181.491 121.0877,184.951 C131.4077,169.442 142.9677,154.813 155.8967,141.471 M746.2667,216.804 C730.9407,174.736 711.1817,131.037 675.6237,102.143 C657.3467,87.291 636.9847,77.017 613.9247,72.15 C613.2167,72 612.9347,73.008 613.6257,73.235 C653.5037,86.318 683.0147,120.936 702.9777,156.414 C706.5947,162.843 709.9467,169.426 713.1167,176.108 C712.0847,174.85 710.5057,174.013 708.3697,174.049 C661.2137,174.841 613.5027,174.042 566.4527,178.649 C567.6537,177.849 568.8547,177.05 570.0327,176.209 C582.8857,167.049 594.4507,155.841 604.0107,143.147 C609.7687,144.607 615.8307,144.963 621.7057,145.522 C629.5467,146.267 637.4417,146.608 645.3077,147.031 C653.1617,147.452 661.0457,147.492 668.9087,147.682 C674.3127,147.813 684.8757,148.71 684.8817,140.444 C684.8877,132.169 674.3137,133.045 668.9087,133.153 C661.0447,133.308 653.1647,133.331 645.3077,133.7 C637.7757,134.052 630.1987,134.337 622.6887,135.011 C618.1077,135.422 613.3947,135.692 608.7887,136.42 C616.2837,125.237 622.2507,113.056 626.2337,100.208 C626.6347,98.915 626.7667,97.707 626.7007,96.588 C628.3907,94.805 629.4687,92.362 629.4687,90.124 C629.4687,84.802 625.3217,81.684 620.4747,81.129 C601.2907,78.936 580.1547,75.811 564.6947,63.198 C557.7177,57.506 552.1057,50.777 546.8237,43.536 C540.8887,35.397 538.6637,25.143 538.6407,15.18 C538.6397,14.621 537.7127,14.452 537.6277,15.043 C534.7227,35.242 538.9127,58.3 553.4097,73.434 C567.6437,88.293 586.9787,93.859 606.5997,97.11 C598.5097,120.217 585.1567,140.514 566.4097,156.475 C545.5197,174.26 519.0757,183.772 492.1157,187.362 C463.0297,191.235 432.5447,189.352 403.9417,183.03 C376.3877,176.938 349.4337,166.044 327.0077,148.659 C315.6937,139.887 305.2857,129.547 296.2167,118.481 C288.7317,109.348 282.9927,99.163 276.5677,89.379 C300.5387,95.951 329.5207,86.973 349.5997,74.291 C361.4267,66.823 371.7877,57.499 380.2997,46.407 C384.4977,40.936 388.2327,35.161 391.3127,28.986 C392.9147,25.774 394.3547,22.47 395.6797,19.135 C396.4987,17.075 397.3017,14.959 397.3017,12.694 C397.2967,11.026 396.8767,9.472 396.0407,8.032 C394.3227,6.209 393.9807,5.681 395.0147,6.445 C393.3277,2.991 388.4507,2.114 385.3307,3.906 C384.1677,4.575 381.4327,5.87 380.0877,8.032 C379.1787,9.494 378.6897,11.242 378.1077,12.846 C377.1887,15.378 376.2627,17.881 375.1087,20.319 C372.4287,25.983 369.2147,31.389 365.5487,36.47 C358.8477,45.758 350.2347,54.157 340.8527,60.712 C331.0037,67.593 320.3887,73.218 308.8757,76.731 C296.7157,80.44 284.6797,81.548 272.1337,82.907 C271.9997,82.721 271.8697,82.534 271.7357,82.349 C271.4937,82.015 270.9707,82.123 270.9497,82.562 C270.9397,82.772 270.9447,82.981 270.9387,83.191 C269.1497,84.03 269.0017,86.551 270.9947,87.519 C271.7337,99.124 276.7417,110.553 282.1987,120.596 C284.4717,124.779 287.0397,128.832 289.8217,132.747 C288.9987,132.433 288.0737,132.234 287.0357,132.194 C264.5907,131.334 241.6687,132.442 219.2237,133.263 C208.2467,133.665 197.2817,134.28 186.3137,134.868 C180.6607,135.17 174.9937,135.363 169.3607,135.948 C166.5437,136.241 163.7097,136.471 160.9077,136.893 C160.7047,136.924 160.5157,136.956 160.3377,136.988 C167.2697,130.161 174.5767,123.694 182.2907,117.66 C207.5967,97.864 236.6607,81.735 267.6707,72.963 C267.9647,72.88 267.9217,72.377 267.5967,72.411 C205.9187,78.718 154.5417,117.585 118.6017,166.386 C98.6597,193.465 83.5347,223.442 70.5197,254.353 C63.9597,269.934 57.7527,285.792 52.5547,301.885 C49.9127,310.063 48.7217,318.738 52.5057,326.762 C55.4077,332.918 60.7627,337.493 66.3757,341.127 C66.7487,341.37 67.1327,341.594 67.5097,341.831 C61.7717,361.821 57.9277,382.333 54.2397,402.783 C50.2337,424.999 46.7387,447.307 43.7367,469.68 C37.7367,514.401 33.1407,559.215 31.1337,604.305 C30.5787,616.776 30.2077,629.256 30.0457,641.739 C29.9647,647.983 30.0002834,654.226 30.0857,660.47 C30.1827,667.457 29.2367,675.342 32.7937,681.578 C37.5467,689.91 46.7777,687.042 50.8377,681.344 C50.8967,681.421 50.9577,681.5 51.0177,681.578 C51.3857,680.854 51.6937,680.131 51.9567,679.409 C52.3937,678.448 52.6787,677.444 52.7827,676.42 C53.5477,672.55 53.2597,668.62 53.2287,664.415 C53.1837,658.499 53.2177,652.583 53.2347,646.667 C53.2677,635.498 53.3947,624.333 53.7127,613.166 C54.3497,590.84 55.5937,568.533 57.2947,546.262 C60.6747,502.022 65.6607,457.985 69.9277,413.832 C72.0997,391.351 74.7197,368.812 75.1717,346.211 C80.4387,348.984 85.8737,351.497 91.1307,354.173 C100.8847,359.138 110.6377,364.103 120.3907,369.068 C129.8497,373.883 139.3227,378.668 148.7997,383.45 C158.3557,388.27 167.8477,394.644 178.5987,395.83 C184.3457,396.463 186.4257,388.721 183.0397,385.107 C178.6177,380.385 172.7457,377.451 166.8427,374.703 C174.6857,374.99 182.5387,375.144 190.3957,375.204 C190.5037,385.09 190.1547,394.997 189.6587,404.861 C188.4387,429.055 186.7427,453.206 185.1367,477.377 C181.7987,527.62 178.5677,577.89 176.0467,628.18 C175.4297,640.499 174.8117,652.815 174.1937,665.132 C173.8937,671.12 173.4767,677.116 173.3067,683.109 C173.1167,689.833 173.2817,698.261 179.5047,702.413 C183.9007,705.344 188.6317,703.963 191.9317,699.931 C196.3447,694.54 196.3377,686.729 196.6927,680.113 C196.7747,678.584 196.8477,677.055 196.9267,675.526 C203.6667,676.399 210.3577,677.606 217.1267,678.266 C225.3947,679.072 233.7147,679.547 242.0187,679.76 C258.9517,680.196 275.8577,680.352 292.7957,680.352 C326.3157,680.353 359.8327,679.78 393.3477,679.239 C460.3797,678.157 527.4037,676.28 594.4127,674.2 C612.9897,673.623 631.5657,673.018 650.1417,672.387 C659.7607,672.059 669.3797,671.725 678.9997,671.383 C688.1047,671.059 698.0517,672.237 706.0657,667.51 C706.2977,670.387 706.5337,673.265 706.7867,676.139 C707.2677,681.586 711.0967,686.265 716.9117,686.265 C722.3757,686.265 727.0717,681.631 727.0367,676.139 C724.9957,626.456 720.5787,576.769 717.0797,527.17 C713.8667,481.612 710.8547,435.991 706.2597,390.542 C707.5637,391.385 709.1567,391.907 711.0357,391.915 C717.0387,391.94 723.0307,388.217 728.6467,386.238 C734.3137,384.242 740.0737,382.514 745.9117,381.097 C749.3677,380.258 752.8377,379.555 756.3187,378.956 C755.8977,386.067 756.0057,393.241 755.8737,400.326 C755.6707,411.217 755.3327,422.104 755.0677,432.993 C754.5467,454.448 754.3617,475.904 753.9517,497.36 C753.1257,540.614 751.7657,583.845 749.4537,627.046 C748.8187,638.917 748.1047,650.784 747.3117,662.645 C746.8937,668.905 746.4537,675.165 745.9907,681.421 C745.5377,687.571 744.4777,694.106 746.7927,700.001 C746.8667,699.958 746.9397,699.917 747.0127,699.874 C748.6277,704.95641 755.7267,707.385 759.0807,701.608 C764.3077,692.602 763.1027,679.695 763.7027,669.563 C764.3477,658.692 764.9257,647.816 765.4377,636.937 C766.4617,615.176 767.1717,593.409 767.5837,571.627 C768.4077,528.056 768.2677,484.422 765.6037,440.915 C764.8747,429.019 763.8547,417.145 762.8077,405.275 C762.0227,396.377 761.5897,387.236 760.2017,378.333 C766.9897,377.332 773.8307,376.751 780.7377,376.58 C787.4227,376.413 791.7337,370.384 790.3167,364.003 C779.2197,314.02 763.7817,264.884 746.2667,216.804" id="ðŸ–-Ink" fill="#000000"></path>
    </g>
</svg>