<?xml version="1.0" encoding="UTF-8"?>
<svg width="818px" height="733px" viewBox="0 0 818 733" version="1.1" xmlns="http://www.w3.org/2000/svg" xmlns:xlink="http://www.w3.org/1999/xlink">
    <!-- Generator: Sketch 62 (91390) - https://sketch.com -->
    <title>body/mono/Striped Pocket Tee</title>
    <desc>Created with Sketch.</desc>
    <g id="body/mono/Striped-Pocket-Tee" stroke="none" stroke-width="1" fill="none" fill-rule="evenodd">
        <path d="M409.1586,-29.3036469 C462.8146,-33.1459057 536.3786,-22.5103491 551.8976,38.6693855 C556.7106,60.9318554 566.1936,70.7032292 582.1256,85.2631568 C683.2536,214.699312 330.4166,236.455088 312.2786,110.23834 C274.0666,124.155387 232.4706,127.102421 194.2356,141.168673 C173.4986,148.829157 154.6946,160.916701 136.6756,173.554999 C63.1966,225.743427 -9.2424,279.421895 -82.4594,331.984837 C-54.1264,345.031693 -0.2584,394.845872 -22.2084,428.319687 C-27.3216121,434.840126 -34.9116066,439.335182 -41.625629,444.101219 L-45.1660934,446.629076 C-52.7826812,452.087154 -65.604275,461.390199 -72.6944,466.445869 L-74.0019793,467.397838 C-74.5146664,467.768863 -75.0930471,468.185544 -75.6154,468.558761 C-24.4854,543.312073 35.3536,612.286476 101.7296,673.868762 C107.3816,679.122953 105.0666,690.871032 96.8866,692.238904 L87.1413578,693.669091 C55.6747719,698.252024 23.6102875,702.376717 -8.0994,699.888374 C-38.9824,696.528776 -57.5924,669.19136 -78.7044,649.388256 C-120.8634,606.296277 -160.1084,560.330365 -195.8544,511.771905 L-196.598705,510.747445 C-207.723983,495.5444 -222.490686,480.00688 -223.5714,460.375561 C-225.5424,454.473483 -220.3554,446.015907 -215.3714,441.9924 L-213.669884,439.536683 C-186.938479,401.09172 -156.684942,364.016114 -118.7814,336.174571 C-118.9224,332.025893 -117.0044,327.664924 -113.2064,324.916162 L45.2016,210.280264 L45.2016,210.280264 C86.0736,182.152766 124.0626,149.096523 168.3646,126.383437 C213.6646,104.572585 264.7856,103.715412 311.2086,85.5124981 C312.1926,72.3925413 339.7756,69.0439582 338.9046,71.0697308 C368.0076,53.5036887 382.9896,32.6030828 387.6106,13.3937917 C392.2306,-5.81549946 386.4886,-23.3334757 409.1586,-29.3036469 Z M800.8893,382.266455 C849.8713,308.564582 896.5603,390.109189 916.9523,439.256456 C941.0453,506.514509 891.1513,589.248745 858.9193,647.231104 C847.0473,663.333142 831.4333,697.296627 810.5073,699.758997 C757.7873,699.543702 704.9943,695.831621 652.2423,694.726108 C618.1803,686.275542 665.9703,635.088484 698.9823,653.785074 C708.9843,657.527195 713.9813,668.882737 723.7343,672.525723 C727.287778,673.284327 727.532856,671.699322 728.978326,668.160686 L729.1833,667.666072 C731.7603,661.542691 734.2593,655.386265 736.7973,649.246862 C758.2743,596.357475 780.9793,543.933724 803.5553,491.533005 C808.3783,480.156434 801.6143,470.782604 792.8213,464.011337 C786.0883,458.469752 757.1453,444.940235 784.4153,450.895385 C773.9143,426.522026 786.5323,401.783167 800.8893,382.266455 Z M679.2803,281.37627 C683.9963,280.787464 690.0533,285.539969 690.7793,290.144271 C696.794932,328.309865 690.09246,366.042656 682.057425,403.376464 L680.578378,410.212519 C677.614568,423.829436 674.302869,437.713734 666.9113,449.648579 C659.3683,461.82925 647.9573,471.008814 634.8573,476.589452 C592.8323,493.336373 540.5683,476.774706 509.6533,445.464853 C489.8753,418.374776 507.2623,384.343198 510.5813,354.65156 C507.4438,346.651187 506.287624,337.397249 504.473342,329.148221 L504.2523,328.163306 L497.2033,297.391189 C495.6493,290.6039 500.5953,281.316188 508.7233,282.248464 C565.3953,288.74836 622.6773,288.45596 679.2803,281.37627 Z" id="ðŸŽ¨-Background" fill="#FFFFFF"></path>
        <path d="M877.1998,372.6238 C877.0298,371.8648 877.9398,371.2838 878.5298,371.8548 C888.4998,381.4638 895.5398,393.7438 903.2698,405.1238 C910.6298,415.9638 918.6398,426.3838 924.1298,438.3448 C929.2298,449.4638 932.5198,460.7438 933.4998,472.9638 C934.4798,485.0948 933.2098,497.2548 931.0698,509.2038 C926.8598,532.7438 917.8598,555.0338 907.9798,576.6848 C898.374031,597.731915 887.520111,618.179918 876.058117,638.256392 L871.950287,645.423979 C866.939504,654.150634 861.873646,662.860877 856.4498,671.3148 C849.6998,681.8348 843.5398,692.6948 834.6398,701.4748 C828.3198,707.7248 816.4098,701.4748 819.2898,692.5438 C820.5398,688.6548 821.5198,684.9938 823.4598,681.3838 C824.9298,678.6338 826.5898,675.9638 828.1498,673.2548 C831.2698,667.8348 834.3598,662.3948 837.4798,656.9748 C844.0298,645.5848 850.9298,634.4048 857.4198,622.9748 C868.6798,603.1548 879.3098,582.9638 888.7098,562.1848 L889.81611,559.732107 C898.465306,540.490138 906.661433,520.559045 910.4598,499.7438 C914.4598,477.8148 910.8798,457.1448 903.0898,436.5338 C899.0598,425.8738 894.5298,415.4538 889.8198,405.0738 L888.914522,403.091305 C884.365816,393.183761 879.54355,383.33005 877.1998,372.6238 Z M393.0497,-6.6967 C393.1397,-7.0857 393.7997,-7.1157 393.8597,-6.6967 C396.6597,11.9253 390.4297,31.6243 380.2797,47.1143 C374.7397,55.5743 367.9097,63.2143 359.8597,69.3543 L359.232876,69.8274613 C351.009294,75.9752756 339.89795,81.912075 329.6897,77.9253 C329.3697,77.8033 329.0697,77.6643 328.7897,77.5053 C329.9397,79.2843 330.9997,81.1543 332.0797,83.0243 C335.2897,88.5943 338.1697,94.3643 341.2997,99.9843 C346.8997,110.0343 353.5697,119.0243 361.9997,126.8943 C395.7092,158.35749 443.04209,165.835673 487.493584,165.477535 L490.633624,165.447817 C510.159292,165.310429 535.6959,166.30723 550.7697,152.1753 C558.8697,144.5853 563.3297,133.7943 567.3597,123.6643 C571.3197,113.7343 574.0297,103.4843 577.3197,93.3843 C570.4497,88.6753 564.1497,82.9253 559.1997,76.2043 C554.0397,69.2043 550.1397,61.3243 547.8897,52.9143 L547.557814,51.6577906 C545.81784,44.951432 544.0685,36.0799 546.8697,29.7443 C547.1897,29.0143 548.3897,29.0643 548.7297,29.7443 C550.2397,32.7743 550.5297,36.1943 551.4597,39.4343 C552.5397,43.2043 553.7597,46.9543 555.3697,50.5243 C558.4797,57.4443 562.5897,64.0243 567.5197,69.7843 C571.5897,74.5533 575.9997,78.9343 581.0397,82.6143 C584.0097,77.4843 590.8997,76.7943 596.6697,78.4843 C604.404075,80.743675 612.032981,83.6446516 619.490501,86.7093244 L620.9797,87.3243 C628.3497,90.3843 636.6797,93.1943 643.5797,97.3643 C647.7697,99.3643 651.7897,101.3743 655.5697,103.1543 C674.404367,112.0023 692.960278,121.390389 711.432562,130.96083 L715.3897,133.0143 C723.1297,137.0443 730.7997,141.1143 737.5297,146.7343 C744.3797,152.4543 749.6997,160.2743 754.6997,167.6043 C766.1297,184.3643 776.8997,201.6043 788.1997,218.4543 C811.0197,252.4543 833.8397,286.4543 856.7897,320.3743 C862.3397,328.5853 868.5997,336.5943 873.5797,345.1543 C878.3497,353.3353 878.2197,361.7343 877.2897,370.8643 L877.115476,372.541201 C875.332343,389.288514 872.266474,405.37301 862.8697,419.7343 C848.0797,442.3143 824.7797,456.3743 800.1297,466.0533 C803.1397,468.2943 805.9697,470.7143 809.5597,472.2553 C815.0797,474.6143 820.9697,475.8353 826.9397,476.3243 C833.3097,476.8353 840.4897,475.2443 845.6497,479.5743 C847.7197,481.3033 847.7797,485.4643 845.6497,487.1943 C840.688916,491.24332 834.276767,490.082804 828.231935,489.404381 L827.8697,489.3643 C822.2597,488.7443 816.7297,487.7043 811.4597,485.6443 C810.1597,485.1333 808.8697,484.5643 807.6197,483.9343 C807.6597,484.0443 807.6797,484.1753 807.6597,484.3143 C806.759265,491.203865 804.807904,497.7181 802.747059,504.302356 L801.4397,508.4743 C798.7797,516.9943 796.0997,525.4943 793.3397,533.9943 C788.087392,550.175838 782.366446,566.204004 776.62518,582.212507 L771.669966,596.025994 C766.579622,610.197394 761.425325,624.349112 755.7297,638.2843 C752.2097,646.8833 748.6697,655.4843 745.1397,664.0743 C741.6897,672.4643 738.8197,681.5243 734.5397,689.5143 C731.0197,696.0943 721.4197,691.3833 722.9597,684.6243 C724.9797,675.7553 728.7897,666.9543 731.6997,658.3243 C734.6597,649.5643 737.5597,640.7943 740.5697,632.0533 C745.804367,616.870167 751.602367,601.889082 757.42991,586.921918 L763.205453,572.08487 C768.871179,557.548152 774.603546,543.024377 780.7297,528.6753 L781.399197,527.102599 C787.764661,512.093471 794.335463,495.216198 805.8997,483.5853 C806.0497,483.4253 806.2597,483.3443 806.4697,483.3243 C803.6297,481.7843 800.9697,479.9143 798.6297,477.7043 L798.515659,477.589128 C797.590749,476.609906 793.7697,471.784323 792.5397,468.8943 C790.9397,469.4643 789.3397,470.0143 787.7397,470.5533 C784.9497,471.4943 782.6397,470.8143 781.0097,469.3243 L777.904824,471.245402 C774.585467,473.272261 771.016367,475.195815 767.3497,475.2943 C762.7297,475.4143 759.0997,472.8643 756.6297,469.1043 C754.4097,465.7443 753.0897,462.1143 750.2797,459.1043 C747.517033,456.145633 744.318811,453.648656 741.0509,451.264574 L737.199057,448.462067 C730.135173,443.305622 723.287119,438.095268 717.5997,431.2843 C714.7397,427.8443 710.9097,423.7643 709.1697,419.6333 C708.8297,418.8353 708.6197,418.0853 708.5797,417.3543 C708.1997,419.9343 707.8097,422.5243 707.4197,425.1043 C701.9597,461.4143 697.5497,497.9743 696.1397,534.6943 C695.4497,552.8033 695.1397,570.9343 695.9497,589.0533 C696.3497,598.1043 697.0097,607.1443 697.9197,616.1643 C698.3697,620.6843 698.8397,625.1943 699.3897,629.6943 L699.51666,630.736604 C699.6757,632.11558 699.7797,633.4495 699.6597,634.7143 C704.0597,636.8833 706.5897,642.3643 708.3497,646.6443 C709.6897,649.9043 708.6497,653.0743 706.4897,655.3643 C709.0697,657.7143 711.3697,660.4743 713.2997,663.6333 C713.6897,664.2743 712.8497,664.7743 712.3497,664.3743 C709.1797,661.8543 705.7697,659.7843 702.2097,658.1943 C700.3397,658.9043 698.2997,659.0943 696.4197,658.5743 C694.3797,658.0143 692.6197,656.6543 691.3497,654.9253 C681.2397,653.2643 670.7297,655.2943 661.6297,661.6243 C659.7397,662.9443 658.0297,664.4343 656.3997,666.0533 C656.1197,666.3353 655.8297,666.6943 655.5397,667.0443 L657.524948,667.80707 C658.347455,668.11879 659.022557,668.362871 659.2797,668.4143 C661.013033,668.767633 662.773033,668.956522 664.533033,669.108374 L667.1697,669.3243 C677.2997,670.1643 687.3997,670.4443 696.8197,674.6843 C698.7997,675.5743 698.1097,678.6243 696.2397,679.1333 C689.361033,680.999967 682.534633,680.855238 675.53285,680.356083 L674.0297,680.2443 C667.5197,679.7443 660.5297,679.7743 654.1797,677.9743 C655.6997,682.1333 653.6297,687.5643 647.2797,688.4143 C628.2097,690.9543 609.0197,689.7553 589.9297,688.0743 C570.6497,686.3743 551.3797,684.7643 532.0497,683.7553 C469.523317,680.465896 406.901108,681.097379 344.318656,681.990413 L308.95302,682.502501 C280.749368,682.900207 252.540764,683.21003 224.337937,682.993749 L211.136731,682.870722 C205.557434,682.81662 199.975208,682.748749 194.402259,682.584833 L191.0597,682.4743 C184.4197,682.2343 175.6297,683.2343 169.8597,679.3033 C165.0997,676.0643 164.0397,670.1243 166.9097,665.3353 C167.7397,663.9543 168.8797,662.7243 170.0697,661.5243 C172.5097,640.6753 173.8797,619.7243 175.2797,598.7843 C180.1397,525.5053 177.2997,452.6043 166.0897,380.0643 C136.0097,389.2553 106.3897,400.7843 77.5297,413.1543 C61.9197,419.8443 46.3897,426.7843 31.0397,434.0643 C17.0297,440.7143 2.9597,449.0243 -12.0103,453.3443 C-13.3711333,454.5518 -15.2738243,455.12652 -16.961456,454.590548 L-17.1803,454.5143 L-17.1903,454.5143 C-18.7303,454.8743 -20.4403,454.6543 -22.1203,453.6443 C-22.4603,453.4383 -22.8003,453.231411 -23.1403,453.018596 L-23.6503,452.6943 C-28.9203,449.3743 -34.2203,445.2843 -37.9503,440.2843 C-42.4803,444.4843 -47.3503,448.3353 -52.1403,452.2343 C-57.3403,456.4743 -62.5203,460.7343 -67.6603,465.0343 C-69.7003,466.7443 -71.9503,468.3743 -73.7503,470.3443 L-74.0117815,470.633485 C-74.0536333,470.680522 -74.0936333,470.7273 -74.1303,470.7743 C-66.3403,475.8143 -59.5203,483.4643 -53.4103,490.1143 C-46.8493,497.2513 -40.5151,504.61591 -34.23274,512.009113 L-28.1509352,519.180397 C14.8554,569.964066 58.3017,622.5887 113.9797,659.9143 C122.7797,665.8143 114.3897,680.1843 105.6497,674.1543 C89.1097,662.7643 73.4597,650.1143 58.4297,636.8033 C32.0897,613.4943 8.3897,587.3443 -13.8003,560.0943 C-25.0303,546.3033 -35.9303,532.1753 -46.6103,517.9543 L-50.2351,513.1307 C-55.0655,506.6971 -59.8703,500.2443 -64.4703,493.6443 L-65.432761,492.261045 C-69.4676388,486.438813 -73.7584481,479.898004 -76.3603,473.1943 C-77.3603,474.2043 -78.4903,475.0533 -80.1403,475.6943 C-82.9603,476.7943 -86.4203,474.4843 -87.1103,471.7343 C-88.7903,465.0643 -82.9903,461.0943 -78.2703,457.5533 C-72.5403,453.2743 -66.7003,449.1443 -60.8503,445.0343 L-58.7606888,443.556914 C-51.4451393,438.368894 -44.0911696,433.043865 -36.1203,428.9443 C-35.8803,428.6243 -35.5903,428.3243 -35.2603,428.0643 C-34.8803,427.7643 -34.5103,427.4743 -34.1303,427.1843 C-43.6503,411.7443 -54.0903,396.9043 -65.7403,382.8833 C-74.5003,372.3353 -83.8003,362.2643 -93.6403,352.7243 L-98.0607057,348.44436 C-104.747077,341.986945 -111.699391,335.437027 -119.1203,329.8243 L-121.44342,332.45822 C-124.5455,335.9667 -127.6783,339.4483 -130.9903,342.7443 C-137.5103,349.2243 -143.9403,355.8353 -150.3403,362.4443 C-160.968871,373.441443 -171.237443,384.776545 -181.473478,396.12781 L-186.5903,401.8033 C-197.2503,413.6333 -208.6703,425.2443 -218.3603,437.8833 L-218.844224,438.523052 C-223.074667,444.196895 -226.086118,450.4763 -224.1203,457.6843 C-222.223526,464.632687 -217.713848,470.794394 -213.826809,476.794776 L-213.4403,477.3943 C-197.5703,502.1143 -180.5703,526.2043 -162.3603,549.2553 C-125.8903,595.4253 -84.2903,639.1843 -34.6503,671.2843 C-27.7703,675.7343 -34.2003,686.7943 -41.0903,682.2943 C-70.0803,663.3443 -96.7103,640.5853 -121.2103,616.1443 C-143.7003,593.7143 -164.0803,569.0143 -183.1803,543.6643 C-192.4903,531.2943 -201.4103,518.6643 -209.9603,505.7553 C-218.2503,493.2243 -227.8403,480.3353 -233.8503,466.5143 C-236.997315,459.2443 -238.1603,451.3743 -235.5803,443.7143 C-233.214239,436.6743 -228.535011,430.828497 -223.66715,425.328899 L-223.2103,424.8143 C-212.0203,412.2443 -200.6303,399.8243 -189.1403,387.5243 C-177.6103,375.1843 -165.5503,363.2843 -153.2403,351.7343 C-143.5703,342.6443 -133.4903,334.6333 -122.7103,327.2143 C-123.6803,326.5243 -124.6503,325.8643 -125.6403,325.2243 C-128.6503,323.2643 -129.4103,319.0743 -126.7703,316.4143 C-119.5603,309.1333 -111.2503,302.8033 -103.4303,296.1753 C-96.0803,289.9443 -88.7303,283.7043 -81.3803,277.4643 C-66.4203,264.7843 -51.4603,252.0943 -36.5003,239.4043 C-9.6303,216.6143 17.0897,193.6643 43.8697,170.7743 C55.0363667,161.232633 66.3072,151.809022 77.5490981,142.358791 L97.5222926,125.550226 L97.5222926,125.550226 L107.291113,117.348879 C112.296278,113.156776 117.407961,109.011257 123.0997,105.8143 C136.492091,98.2914739 152.592777,95.0368425 167.348053,91.0511507 L168.3297,90.7843 C184.8797,86.2553 201.5197,81.9943 218.2497,78.1943 C234.9997,74.3943 251.8197,70.9343 268.7097,67.8033 C283.8897,64.9843 299.4297,62.5643 314.9097,62.2043 C318.7497,60.7443 323.5697,60.2343 327.3497,61.7943 C328.9097,62.4443 330.5397,63.3943 331.9897,64.5943 C339.5597,61.9343 347.0297,60.6643 354.0997,56.1643 C361.1597,51.6753 367.4097,45.7743 372.6697,39.2743 C383.5397,25.8143 389.2297,9.9143 393.0497,-6.6967 Z M567.0597,449.0943 C561.0597,448.6753 555.6597,451.1543 550.2997,453.7943 C553.3197,455.1043 556.3397,456.4043 559.3597,457.6943 L579.4597,466.2743 L579.4597,466.2743 C586.0997,469.1043 593.1297,471.5643 599.4397,475.0533 C599.8897,475.3033 600.2497,475.6043 600.5197,475.9543 C607.0797,471.7553 614.0197,468.0053 620.6697,464.0143 C622.1897,463.1043 623.7197,462.1943 625.2497,461.2843 C617.3297,463.9343 609.2097,465.2643 600.6097,462.7743 C589.1397,459.4643 579.1797,449.9443 567.0597,449.0943 Z M583.4997,428.9743 L582.421917,428.241603 C576.602157,424.249822 569.657935,419.118418 562.5897,422.7043 C559.2597,424.3943 556.5297,427.1243 553.2497,428.9443 C549.9497,430.7843 546.3197,432.1943 542.6397,433.0443 C536.5297,434.4543 529.5297,434.6643 522.9597,433.3033 L523.0597,442.1843 L523.0597,442.1843 C528.0297,444.2343 532.9697,446.3353 537.9097,448.4543 C541.116973,447.357936 544.20375,446.040664 547.449362,444.595592 L549.6397,443.6143 C555.8897,440.8033 562.1997,438.9253 569.1097,439.8143 C582.1197,441.4843 591.9497,451.1543 604.3897,454.3743 C619.6397,458.3353 633.3997,446.9543 647.8097,444.1443 C650.1857,443.6763 652.6346,443.4027 655.06892,443.35995 L655.8797,443.3543 L656.2397,443.1443 C659.3397,441.3243 663.9797,439.5853 666.1397,436.5243 C668.4897,433.2043 668.6897,427.6443 669.4597,423.7443 C669.5397,423.3543 669.6197,422.9543 669.6897,422.5643 C668.3297,422.5643 666.9497,422.6333 665.5497,422.8943 C661.1497,423.7043 657.0097,425.2643 652.9097,427.0053 C645.1597,430.2943 637.5797,434.0443 629.4197,436.2343 C621.4297,438.3833 613.0797,439.4043 604.8497,438.2143 C596.8197,437.0533 590.1497,433.4343 583.4997,428.9743 Z M584.751706,397.752882 L583.54703,396.977054 C580.368786,394.949213 576.7237,392.8485 572.8297,393.5943 C569.3497,394.2643 566.3597,397.0343 563.3297,398.7443 C556.6797,402.4943 549.2197,404.5443 541.6097,405.0643 C535.2797,405.4943 528.7097,404.7243 522.6197,402.8443 L522.8297,422.5053 L522.8297,422.5053 C525.0597,423.2143 527.3697,423.7243 529.7997,423.9043 C537.1797,424.4543 544.3797,422.6843 550.5697,418.6143 L553.701155,416.535354 C559.059665,413.01459 564.087736,410.220354 571.1797,411.5053 C578.1997,412.7843 584.0897,417.2843 589.8297,421.2043 L590.770937,421.83634 C597.362882,426.188081 604.0447,428.997482 612.1297,429.0643 C620.8597,429.1333 629.4897,426.7043 637.6197,423.7143 C645.6897,420.7553 653.3597,417.2043 661.9897,416.1143 C664.6297,415.7843 667.8497,415.6843 670.8797,416.2043 C671.2797,413.9743 671.6597,411.7553 672.0197,409.5243 C672.7997,404.7343 673.4697,399.9543 674.0497,395.1643 C658.7397,391.0443 644.5997,404.3743 630.3797,408.4843 C622.1297,410.8643 613.1497,410.8353 604.8997,408.5343 C597.26595,406.404019 591.265149,401.981978 584.751706,397.752882 Z M584.7897,364.6443 C581.5197,364.0143 578.2897,365.5243 575.5097,367.0743 C568.4197,371.0053 562.2997,376.4743 554.2697,378.5443 C543.9397,381.2043 532.6397,378.9143 522.3797,374.5643 C522.4197,380.6333 522.4697,386.7043 522.5197,392.7743 C524.4497,393.5053 526.4297,394.0943 528.4497,394.5643 C535.6297,396.2043 543.2397,395.9843 550.3097,393.9143 C557.5197,391.8033 563.0497,386.1043 570.2797,384.3243 C577.672791,382.498118 584.641736,386.050872 590.599743,390.089465 L592.393007,391.312943 C599.203478,395.934478 605.808367,399.9503 614.3297,400.7343 C623.3397,401.5643 631.1697,398.7443 639.2197,395.0053 L641.093575,394.137894 C651.285409,389.456515 664.515582,384.127241 674.6897,389.4543 C675.4897,381.8943 676.0697,374.3353 676.4597,366.7643 C675.0597,366.2443 673.6097,365.8643 671.9397,365.8543 C667.9497,365.8353 663.7597,367.0943 660.0397,368.4043 C651.9097,371.2743 644.3397,375.5533 636.2897,378.6243 C628.6597,381.5443 620.2097,383.0643 612.0697,381.7553 C604.5297,380.5443 598.8697,376.6043 593.6597,371.2043 L592.90293,370.4061 C590.6181,367.9752 588.1737,365.3013 584.7897,364.6443 Z M590.7597,336.5743 C586.9897,334.5853 582.3997,332.7343 578.0397,333.3143 C573.8797,333.862871 571.107324,336.685141 568.5456,339.701534 L567.158265,341.352733 C562.575714,346.774576 558.065049,351.333137 550.9997,353.5643 C543.6797,355.8643 535.9197,354.9643 529.1097,351.5943 C526.6897,350.3943 524.4397,348.9043 522.1797,347.4343 L522.2997,363.3833 L522.2997,363.3833 C526.8197,365.6333 531.4197,367.6643 536.4697,368.8943 C545.7897,371.1643 553.7097,369.4843 561.6797,364.3443 L562.516463,363.799616 C568.519537,359.857481 574.674589,355.163856 582.0897,354.7243 C589.325926,354.291281 594.756546,358.302833 599.522052,363.212734 L600.0797,363.7943 C606.0897,370.1333 612.1597,373.2243 621.0997,372.4943 C629.767053,371.785771 637.878601,367.959084 645.818366,364.662434 L646.5397,364.3643 C653.7997,361.3833 662.1697,358.3143 670.1397,359.4543 C672.0497,359.7243 674.5197,360.3143 676.7197,361.3443 C677.0397,353.8833 677.1897,346.4143 677.2197,338.9343 C672.6897,335.0053 665.6397,334.3543 659.9697,335.9643 C651.0897,338.4843 643.8197,344.9843 635.3397,348.5143 C627.8197,351.6443 619.9797,352.3443 612.3097,349.3833 C604.3897,346.3243 598.1797,340.4943 590.7597,336.5743 Z M676.7197,305.1543 C663.4497,305.6143 650.4697,314.2443 637.7997,317.5343 C623.646275,321.206903 612.095027,316.200372 599.486862,310.642308 L597.8597,309.9253 C591.3897,307.0853 584.4397,304.5343 577.2697,305.6943 C570.2797,306.8353 564.0997,310.7043 558.0897,314.2043 L556.9379,314.867499 C545.989384,321.10028 534.841225,325.366978 522.0597,324.3033 C522.1297,328.3143 522.0997,332.3143 522.1097,336.2343 C524.2097,337.4343 526.2297,338.7943 528.1497,340.0343 L528.838781,340.47103 C534.932374,344.281222 541.213882,346.785573 548.4797,344.4343 C555.4997,342.1543 558.7997,336.0443 563.6197,331.0143 C568.0497,326.3943 573.8297,323.5853 580.3097,323.8543 C587.2797,324.1333 593.8697,327.2043 599.6297,330.9543 C605.3897,334.7043 610.9597,339.5533 617.6997,341.4343 C632.8197,345.6333 645.7697,329.6443 660.0697,327.1543 C666.0697,326.1043 672.6897,327.4343 677.2197,331.0533 C677.1697,322.4343 676.9797,313.7943 676.7197,305.1543 Z M562.4997,301.5343 C560.6297,301.6043 558.7597,301.6843 556.8897,301.7643 C549.9697,302.0643 543.0497,302.4043 536.1297,302.7943 C531.3397,303.0533 525.4497,304.5243 520.7497,303.0643 C520.6297,303.5443 520.4697,304.0053 520.2597,304.4543 C520.9697,307.9943 521.4097,311.6543 521.6797,315.3543 C526.0197,315.8243 530.4297,315.6643 534.7097,314.7743 C544.9797,312.6443 553.3197,306.1643 562.4997,301.5343 Z M676.5197,298.5643 C651.250469,300.304685 625.787082,299.705942 600.476246,300.252938 L597.4397,300.3243 C597.3197,300.3243 597.1997,300.3353 597.0797,300.3353 C599.9822,301.4603 602.8622,302.747862 605.732356,304.059613 L608.5997,305.3743 C615.3797,308.4943 622.2797,311.0443 629.8697,310.4943 C637.9997,309.9043 645.6597,306.5853 653.2597,303.9043 C660.5097,301.3443 668.8597,299.6243 676.5897,300.7443 C676.5697,300.0143 676.5497,299.2943 676.5197,298.5643 Z" id="ðŸ–-Ink" fill="#000000"></path>
    </g>
</svg>