<?xml version="1.0" encoding="UTF-8"?>
<svg width="818px" height="733px" viewBox="0 0 818 733" version="1.1" xmlns="http://www.w3.org/2000/svg" xmlns:xlink="http://www.w3.org/1999/xlink">
    <!-- Generator: Sketch 62 (91390) - https://sketch.com -->
    <title>body/mono/Sweater Dots</title>
    <desc>Created with Sketch.</desc>
    <g id="body/mono/Sweater-Dots" stroke="none" stroke-width="1" fill="none" fill-rule="evenodd">
        <path d="M117.916429,722.748553 C151.284075,722.851699 183.706497,723.993975 217.167881,724.105602 C353.186866,724.559361 490.457507,723.898848 626.969869,718.385014 C665.553423,716.826596 675.184603,716.864936 713.601628,714.44669 C736.284628,714.365472 804.420429,712.489627 801.009429,681.594449 C799.503429,624.051898 785.256429,566.753001 780.769429,509.366036 C772.157429,401.483905 764.823429,290.227797 721.578429,189.324554 C711.568429,165.227234 690.070429,149.468961 668.789429,135.298845 C647.447429,120.012224 642.2097,103.039726 622.5127,85.7706 C618.347782,82.1187063 594.696706,80.6326282 581.971528,71.3703995 C563.449898,57.8891279 554.26474,35.8172632 547.354429,32.0598466 C542.269429,29.2954948 542.362477,10.2221482 532.170715,3.4712565 C518.494198,-5.58789226 474.911383,-12.3238916 459.055135,-13.5837575 C443.83605,-14.7929973 417.365066,-12.2529591 403.086006,-6.68014321 C379.273695,2.61329943 369.776146,20.3409526 359.289429,43.1798797 C220.742429,85.9994443 94.1074286,158.507658 54.7794286,304.760949 C20.8644286,427.4238 19.6214286,558.925727 32.7234286,684.728686 C35.3444286,693.927861 33.5074286,708.34946 41.4574286,714.44669 C13.8294286,716.031912 114.168429,721.728923 117.916429,722.748553 Z" id="ðŸŽ¨-Background" fill="#FFFFFF"></path>
        <path d="M748.0797,601.6306 C745.4577,600.3216 742.7247,598.8246 739.7307,598.7206 C734.5887,598.5416 734.5817,590.5406 739.7307,590.7206 C744.2217,590.8776 748.1657,592.7496 752.1177,594.7226 C756.7287,597.0246 752.6727,603.9226 748.0797,601.6306 M739.7307,376.4486 C743.2397,376.4516 746.7767,376.8946 749.4717,379.3486 C751.0737,380.8086 750.9467,383.5296 749.4717,385.0056 C747.8927,386.5826 745.4107,386.4596 743.8137,385.0056 C744.3347,385.4786 743.8187,385.0096 743.6297,384.9046 C743.5847,384.8806 743.5597,384.8636 743.5477,384.8526 C743.5077,384.8426 743.4677,384.8346 743.4027,384.8176 C742.9847,384.7126 742.5717,384.6096 742.1487,384.5336 C742.1417,384.5536 741.2557,384.4746 741.0477,384.4666 C740.6077,384.4506 740.1697,384.4486 739.7307,384.4486 C737.5607,384.4476 735.7307,382.6196 735.7307,380.4486 C735.7307,378.2886 737.5687,376.4476 739.7307,376.4486 M702.1157,466.1846 C700.9697,471.2096 693.2587,469.0696 694.4017,464.0576 C696.0637,456.7706 695.7607,449.3046 694.4017,441.9916 C693.4657,436.9516 701.1767,434.8106 702.1157,439.8656 C703.7457,448.6376 704.1107,457.4406 702.1157,466.1846 M692.0117,178.6746 C686.0537,177.2596 680.1607,177.0916 674.0667,177.0896 C668.9107,177.0876 668.9187,169.0876 674.0667,169.0896 C680.8637,169.0916 687.4987,169.3836 694.1387,170.9606 C699.1527,172.1516 697.0167,179.8626 692.0117,178.6746 M672.0477,373.5346 C668.5927,371.8066 665.1357,370.0786 661.6807,368.3506 C657.0687,366.0456 661.1257,359.1476 665.7177,361.4426 L676.0857,366.6276 C680.6957,368.9326 676.6397,375.8306 672.0477,373.5346 M670.6087,531.0756 C666.2257,537.3946 660.0627,541.3206 652.6667,543.2816 C647.6767,544.6046 645.5667,536.8856 650.5397,535.5676 C655.8287,534.1656 660.5277,531.6126 663.7007,527.0376 C666.6177,522.8316 673.5497,526.8356 670.6087,531.0756 M642.9657,249.4116 C641.7797,247.1956 639.9947,246.2596 637.7787,246.2096 C632.6307,246.0916 632.6297,238.0916 637.7787,238.2096 C642.8287,238.3236 647.4597,240.8596 649.8727,245.3746 C652.3017,249.9176 645.3927,253.9546 642.9657,249.4116 M592.2237,303.7896 C590.7897,305.3516 588.0087,305.3126 586.5667,303.7896 C585.6837,302.8576 584.9417,301.8166 584.3577,300.6756 C584.1357,300.2426 583.9267,299.8016 583.6827,299.3806 C583.5737,299.1936 583.4527,299.0076 583.3287,298.8276 C583.2867,298.7906 583.1997,298.7006 583.1097,298.6056 C581.5727,296.9806 581.6117,294.5816 583.1097,292.9486 C584.5447,291.3866 587.3257,291.4256 588.7677,292.9486 C589.6497,293.8806 590.3927,294.9216 590.9757,296.0626 C591.1977,296.4956 591.4067,296.9366 591.6517,297.3586 C591.7607,297.5456 591.8817,297.7306 592.0057,297.9106 C592.0477,297.9476 592.1337,298.0376 592.2237,298.1326 C593.7617,299.7576 593.7227,302.1566 592.2237,303.7896 M587.9577,421.9186 C582.7477,424.3026 577.0337,424.3026 571.8237,421.9186 C569.8507,421.0156 569.3827,418.1666 570.3897,416.4456 C571.5557,414.4516 573.8987,414.1126 575.8617,415.0106 C578.2247,416.0916 581.5607,416.0906 583.9207,415.0106 C585.8927,414.1086 588.2127,414.4286 589.3927,416.4456 C590.4057,418.1776 589.9227,421.0196 587.9577,421.9186 M573.7467,505.5336 C572.8517,507.6526 570.9187,508.7786 568.6587,508.8646 C566.4197,508.9496 564.7527,506.9636 564.6587,504.8646 C564.5987,503.5086 565.3317,502.3496 566.3847,501.6316 C566.3857,501.5576 566.3877,501.4836 566.3877,501.4086 C566.3887,499.1666 568.2197,497.5056 570.3877,497.4086 C572.5467,497.3116 574.3887,499.3166 574.3877,501.4086 C574.3867,502.8206 574.2997,504.2216 573.7467,505.5336 M553.1067,638.4646 C546.7227,638.5676 540.4847,640.0886 534.0997,640.1926 C528.9407,640.2756 528.9567,632.2756 534.0997,632.1926 C540.4837,632.0886 546.7217,630.5676 553.1067,630.4646 C558.2657,630.3806 558.2497,638.3806 553.1067,638.4646 M526.5587,125.8056 C522.8217,129.3656 518.2057,131.1196 513.6537,133.3436 C509.0417,135.5966 504.9907,128.6956 509.6157,126.4356 C513.4717,124.5516 517.7407,123.1596 520.9027,120.1496 C524.6327,116.5966 530.2957,122.2476 526.5587,125.8056 M516.5277,218.0156 C513.9057,216.7066 511.1727,215.2096 508.1797,215.1056 C503.0367,214.9256 503.0297,206.9256 508.1797,207.1056 C512.6697,207.2616 516.6137,209.1346 520.5657,211.1076 C525.1787,213.4096 521.1217,220.3076 516.5277,218.0156 M468.4367,588.0996 C467.2527,585.8826 465.4677,584.9466 463.2517,584.8966 C458.1027,584.7796 458.1007,576.7796 463.2517,576.8966 C468.3017,577.0116 472.9327,579.5476 475.3457,584.0616 C477.7737,588.6056 470.8657,592.6416 468.4367,588.0996 M451.7827,414.3806 C450.1907,412.9196 450.3017,410.2056 451.7827,408.7246 C453.5107,406.9966 455.2387,405.2686 456.9677,403.5406 C458.5477,401.9596 461.0267,402.0746 462.6237,403.5406 C464.2157,405.0016 464.1047,407.7156 462.6237,409.1976 C460.8947,410.9256 459.1677,412.6526 457.4397,414.3806 C455.8577,415.9626 453.3797,415.8466 451.7827,414.3806 M432.1467,685.1206 C426.3757,684.9856 420.9657,683.3296 415.5317,681.5216 C410.6627,679.9016 412.7627,672.1776 417.6587,673.8076 C422.3817,675.3786 427.1257,677.0036 432.1467,677.1206 C437.2957,677.2396 437.2977,685.2396 432.1467,685.1206 M406.2267,514.0486 C401.0127,513.9036 396.6877,511.2486 393.0307,507.6926 C389.3317,504.0966 394.9947,498.4446 398.6877,502.0366 C400.7807,504.0706 403.1957,505.9646 406.2267,506.0486 C411.3737,506.1916 411.3777,514.1916 406.2267,514.0486 M422.3227,294.0486 C422.3857,296.1786 423.2857,298.4606 424.6077,299.8606 C428.1427,303.6046 422.4927,309.2686 418.9507,305.5176 C416.0287,302.4236 414.4457,298.2826 414.3227,294.0486 C414.1747,288.8906 422.1757,288.9126 422.3227,294.0486 M361.3017,119.8126 C359.6277,116.5346 357.4337,112.6906 354.0967,110.8796 C349.5647,108.4206 353.6077,101.5156 358.1347,103.9716 C362.6707,106.4336 365.9167,111.2856 368.2097,115.7746 C370.5497,120.3556 363.6437,124.3986 361.3017,119.8126 M350.9317,203.0096 C349.0757,202.9566 347.2337,202.6386 345.4437,202.1536 C344.6787,201.9456 343.9227,201.7066 343.1567,201.4986 C342.8287,201.4096 341.4357,201.2356 342.2917,201.2816 C340.1257,201.1656 338.2917,199.5436 338.2917,197.2816 C338.2917,195.2026 340.1317,193.1656 342.2917,193.2816 C345.2607,193.4406 347.9607,194.9256 350.9317,195.0096 C356.0767,195.1546 356.0807,203.1546 350.9317,203.0096 M325.0117,330.8806 L316.3717,330.8806 C311.2157,330.8806 311.2247,322.8806 316.3717,322.8806 L325.0117,322.8806 C330.1677,322.8806 330.1587,330.8806 325.0117,330.8806 M314.9337,684.5736 C312.3137,685.8846 309.2257,687.1266 307.1037,689.1326 C303.3617,692.6706 297.6977,687.0206 301.4467,683.4756 C304.1497,680.9206 307.6057,679.3126 310.8967,677.6666 C312.8357,676.6966 315.2197,677.1346 316.3697,679.1016 C317.4087,680.8796 316.8657,683.6076 314.9337,684.5736 M295.6287,583.4936 C295.2937,583.4006 294.9397,583.3356 294.6007,583.2896 C293.2407,583.1056 291.8177,583.1696 290.4517,583.168599 C285.2957,583.1656 285.3037,575.1656 290.4517,575.168599 C294.5087,575.1706 298.7307,575.2276 301.9207,578.0686 C303.5397,579.5106 303.3827,582.2626 301.9207,583.7246 C300.3307,585.3146 297.8757,585.1616 296.2637,583.7246 C296.4337,583.8776 295.8507,583.5556 295.6287,583.4936 M290.4537,447.5496 C291.6157,445.1536 291.6337,443.5916 291.6357,440.9286 C291.6397,435.7726 299.6397,435.7806 299.635701,440.9286 C299.6337,444.7946 299.0587,448.0866 297.3617,451.5876 C296.4147,453.5396 293.6427,454.0486 291.8897,453.0226 C289.9237,451.8736 289.5127,449.4926 290.4537,447.5496 M267.3227,259.8906 C262.6827,261.4686 258.5407,263.7026 254.4547,266.3996 C250.1417,269.2456 246.1387,262.3146 250.4167,259.4916 C255.0797,256.4146 259.9027,253.9766 265.1957,252.1756 C270.0897,250.5116 272.1707,258.2416 267.3227,259.8906 M240.3397,125.2496 C236.8927,125.3456 233.3347,126.6676 230.2627,128.1596 C225.6457,130.4016 221.5947,123.5006 226.2257,121.2516 C230.6137,119.1196 235.4147,117.3876 240.3397,117.2496 C245.4987,117.1046 245.4767,125.1056 240.3397,125.2496 M228.2437,484.6726 C226.8877,484.7336 225.7287,484.0006 225.0107,482.9466 C224.9357,482.9466 224.8617,482.9446 224.7877,482.9446 C222.5457,482.9436 220.8857,481.1126 220.7877,478.9446 C220.6907,476.7856 222.6957,474.9436 224.7877,474.9446 C226.1997,474.9456 227.6007,475.0316 228.9127,475.5856 C231.0317,476.4796 232.1577,478.4126 232.2437,480.6726 C232.3287,482.9126 230.3427,484.5786 228.2437,484.6726 M208.5707,208.0506 C203.6577,209.6556 201.5717,201.9286 206.4437,200.3366 C212.1627,198.4676 218.0067,197.0206 223.7247,195.1516 C228.6377,193.5466 230.7237,201.2746 225.8507,202.8666 C220.1337,204.7346 214.2887,206.1816 208.5707,208.0506 M190.6297,359.0486 C189.1057,363.9586 181.3867,361.8506 182.9147,356.9216 C184.3907,352.1636 184.4967,347.3756 184.4997,342.4326 C184.5027,337.2766 192.5027,337.2856 192.499701,342.4326 C192.4967,348.0586 192.3077,353.6336 190.6297,359.0486 M137.1427,539.9046 C136.8517,541.8966 135.2717,543.3316 133.2037,543.4246 C131.0987,543.5186 129.1277,541.5176 129.2037,539.4246 C129.3507,535.3976 132.6337,532.1156 136.6597,531.9686 C138.8997,531.8866 140.5657,533.8666 140.6597,535.9686 C140.7517,538.0116 139.0457,539.6066 137.1427,539.9046 M110.0747,310.0026 C105.8477,311.4136 101.3307,312.7566 98.0167,315.8856 C94.2717,319.4196 88.6077,313.7706 92.3597,310.2286 C96.7297,306.1036 102.3507,304.1566 107.9487,302.2876 C112.8507,300.6516 114.9337,308.3806 110.0747,310.0026 M91.7297,465.4116 C90.5677,467.3976 88.2147,467.7566 86.2577,466.8466 C83.6337,465.6266 80.7367,465.6676 77.9077,465.664599 C72.7527,465.6606 72.7607,457.6606 77.9077,457.664599 C82.2717,457.6686 86.2977,458.0796 90.2957,459.9386 C92.2627,460.8546 92.7417,463.6816 91.7297,465.4116 M81.3637,654.0166 C79.1237,654.0986 77.4577,652.1176 77.3637,650.0166 C77.2717,647.9736 78.9767,646.3786 80.8817,646.0806 C81.1717,644.0886 82.7527,642.6526 84.8197,642.5606 C86.9257,642.4656 88.8967,644.4666 88.8197,646.5606 C88.6727,650.5876 85.3917,653.8686 81.3637,654.0166 M810.1897,684.2646 C808.8307,679.3746 805.7207,675.4246 803.3707,671.0246 C802.5827,669.5416 802.3087,668.6196 801.8817,667.5336 C801.3017,668.6946 800.1757,669.5676 798.4827,669.5686 C795.2347,669.5696 791.4357,669.3606 788.4047,670.7506 C786.4337,671.6536 784.1117,671.3326 782.9327,669.3156 C781.9197,667.5826 782.4037,664.7426 784.3677,663.8426 C788.8347,661.7956 793.6367,661.5706 798.4827,661.5676 C799.6797,661.5676 800.5857,662.0086 801.2257,662.6706 C803.0777,637.3106 803.0317,611.9326 801.2797,586.5546 C799.4107,559.4346 795.1097,532.8546 790.6097,506.0846 C788.4307,493.1046 785.6007,479.9946 786.1507,466.7746 C786.7007,453.6446 792.3307,441.4046 788.3407,428.2346 C786.7407,422.9546 784.0007,418.1146 782.2207,412.8946 C780.3107,407.2746 780.4807,401.7246 781.3507,395.9046 C783.1407,384.0546 786.1097,372.3446 781.3597,360.7746 C779.2607,355.6446 775.8597,351.0646 774.2207,345.7646 C772.1807,339.1746 772.4607,331.8846 772.1207,325.0546 C771.4307,311.2746 771.2507,297.4046 770.1097,283.6546 C769.6007,277.4946 768.4907,271.6546 765.9607,266.0046 C763.5297,260.5646 759.9207,255.6146 758.3107,249.8446 C756.7107,244.1646 756.5707,238.1746 755.7107,232.3646 C754.8107,226.2246 753.4007,220.1746 751.5007,214.2746 C744.1607,191.4346 730.7107,170.9146 714.8207,153.1246 C697.9307,134.2146 677.7407,119.9746 656.3107,106.7046 C645.0417,99.7266 633.7737,92.7486 622.5127,85.7706 C622.2727,87.0796 621.4377,88.2826 619.8347,88.8186 C615.6057,90.2306 611.0907,91.5726 607.7757,94.7016 C604.0317,98.2356 598.3667,92.5866 602.1187,89.0456 C606.0327,85.3496 610.9517,83.4046 615.9577,81.6956 C610.8267,78.4616 605.6407,75.1126 599.8507,73.2446 C594.7797,71.6046 587.3007,73.0346 583.1897,69.3146 C579.9607,66.3846 578.9397,60.9546 577.7007,56.9746 C576.1507,52.0346 574.8107,46.8246 572.8407,42.0246 C571.5007,38.7446 569.5507,35.5946 567.0907,33.0546 C566.0107,28.8946 564.0297,25.0946 560.5297,22.7846 C551.3707,16.7246 540.1207,22.7446 536.0907,31.3846 C532.7607,31.3746 529.2507,32.1046 526.0107,32.3046 C519.3507,32.7246 512.6807,32.9146 506.0107,32.8946 C492.9607,32.8546 479.9007,32.0046 466.9607,30.2746 C443.8207,27.1746 421.3707,20.9246 398.6207,16.0546 C398.4907,15.7546 398.3407,15.4546 398.1607,15.1546 C393.2607,6.9346 381.0507,8.3246 373.3597,11.4346 C370.0607,12.7646 366.7007,14.4446 364.8107,17.5646 C362.8107,18.9146 361.0807,20.5546 359.9307,22.2846 C357.5507,25.8546 355.7107,33.0546 350.8807,33.6546 C347.7007,34.0446 344.4707,33.4346 341.2407,33.8946 C337.2007,34.4546 333.5807,35.8746 329.8507,37.4946 C301.4507,49.8246 272.0907,63.5346 241.2697,68.3146 C234.0407,69.4346 226.6807,70.5946 220.4007,74.6446 C215.3007,77.9346 211.3597,82.4546 207.1507,86.7446 C203.0507,90.9246 199.6707,92.7746 193.8207,93.5246 C186.7207,94.4346 180.5707,96.3946 175.3807,101.5546 C171.0707,105.8446 168.2607,111.3246 164.8807,116.3046 C161.4397,121.3846 156.3907,124.2446 151.1507,127.1946 C138.7607,134.1746 127.2207,142.6046 117.1707,152.7146 C96.0007,174.0346 83.1807,201.4346 70.2607,228.1346 C56.2907,257.0146 43.2307,286.2446 34.1707,317.0846 C25.2907,347.3646 20.0107,378.5146 17.5707,409.9546 C15.0007,442.9446 14.6407,476.0646 12.5007,509.0746 C11.4307,525.5646 10.6207,542.0746 9.8007,558.5746 C9.0007,574.8746 7.8307,591.2046 8.0197,607.5246 C8.3807,639.0746 14.6897,670.7246 25.7207,700.2646 C28.4707,707.6146 31.5197,714.8646 34.7697,722.0046 C37.6207,728.2746 47.3707,727.5746 50.4307,722.0046 C51.1307,720.7246 51.6807,719.4046 52.1407,718.0646 C60.1407,718.1346 68.2207,717.5146 76.1707,718.2546 C90.2107,719.5646 104.2797,720.2946 118.3597,721.1646 C146.2207,722.8946 174.1307,724.0446 202.0007,725.6346 C204.7047,725.7886 207.4087,725.9436 210.1117,726.1046 C190.2507,664.6316 192.8267,598.1726 189.6837,534.2406 C189.4307,529.0866 197.4327,529.1166 197.6837,534.2406 C200.8397,598.4466 198.1527,665.0756 218.7157,726.6486 C226.6937,727.1886 234.6607,727.8486 242.6007,728.8146 C249.0197,729.5846 255.4707,730.4946 261.9507,730.1746 C269.3007,729.8246 276.4807,728.1446 283.6507,726.6846 C296.6807,724.0346 309.2307,725.2346 322.3107,726.8646 C336.3007,728.6146 350.3407,729.5846 364.4207,730.1946 C420.8007,732.6646 477.5607,734.9146 533.9207,731.1446 C547.5607,730.2346 561.1707,728.9546 574.7207,727.2146 C588.6807,725.4246 602.4907,722.4146 616.4397,720.7046 C630.1897,719.0246 642.8307,723.6346 656.4207,724.4846 C670.2797,725.3546 684.5107,722.4646 698.2407,720.8046 C702.7197,720.2616 707.2037,719.7336 711.6887,719.2096 C705.9147,679.6346 702.6317,639.7616 699.4427,599.9046 C699.0317,594.7636 707.0347,594.8076 707.4427,599.9046 C710.6057,639.4506 713.8157,679.0266 719.5807,718.2896 C743.3557,715.5236 767.1537,712.7246 790.6807,708.4146 C797.3807,707.1946 804.0407,705.2046 808.0507,699.2246 C811.0197,694.7946 811.6207,689.3646 810.1897,684.2646" id="ðŸ–-Ink" fill="#000000"></path>
    </g>
</svg>