<?xml version="1.0" encoding="UTF-8"?>
<svg width="818px" height="733px" viewBox="0 0 818 733" version="1.1" xmlns="http://www.w3.org/2000/svg" xmlns:xlink="http://www.w3.org/1999/xlink">
    <!-- Generator: Sketch 62 (91390) - https://sketch.com -->
    <title>body/mono/Sweater</title>
    <desc>Created with Sketch.</desc>
    <g id="body/mono/Sweater" stroke="none" stroke-width="1" fill="none" fill-rule="evenodd">
        <path d="M335.8174,732.1149 C275.6324,730.8199 220.8454,734.4559 162.8904,722.7009 L162.8164,720.7489 C150.3854,720.3909 154.5004,708.7739 156.9994,700.6489 C-76.8946,690.2429 75.6644,120.1529 237.7494,81.8219 C245.6894,80.4679 254.3154,79.7529 263.0614,79.6669 C274.3454,76.2209 285.4654,75.6099 297.2614,72.4669 C298.3934,68.3369 298.5784,65.9489 303.5824,67.1719 C321.5434,50.0199 353.8614,34.2209 364.7664,67.6909 C379.1174,47.7439 387.3474,24.4219 393.3434,0.8029 L394.3134,0.9619 C396.8614,-5.3181 401.0334,-13.2641 406.1084,-14.5751 C414.0184,-17.1941 428.9344,-16.5901 437.5344,-17.6531 C456.1804,-18.9461 477.8394,-22.1151 495.7124,-17.8381 C540.3754,-6.9041 521.0194,45.8199 557.2314,80.1439 C573.8494,73.2649 599.8964,75.1509 615.8174,83.3419 C626.0704,91.5529 620.9294,100.8099 619.1314,109.4899 C733.4884,99.1819 763.9154,231.8179 787.5144,319.2549 C796.9824,348.3429 806.3794,368.0629 822.5054,390.5209 C843.4534,416.7739 855.2164,451.1539 833.7544,478.8499 C864.3944,539.9889 831.1314,597.4529 795.9374,643.6069 C789.0454,650.9979 777.8664,671.5629 767.7654,672.9689 C765.0244,675.4739 760.6464,678.5569 757.5574,680.7959 L761.2824,685.6799 C761.7274,690.1899 761.7564,695.0369 764.8404,699.0589 C767.8074,701.9499 770.9794,704.9139 771.0674,709.2299 C766.3394,714.7169 760.2334,708.5879 755.7464,705.8629 C754.0264,709.2429 754.2734,717.2719 748.7624,716.9599 C612.1104,726.3319 472.1594,732.4759 335.8174,732.1149" id="ðŸŽ¨-Background" fill="#FFFFFF"></path>
        <path d="M390.6734,0.9996 C401.5394,15.1476 383.8344,58.4086 375.6864,73.4146 C431.3944,96.6746 493.5614,106.8156 553.0674,93.6066 C537.6124,78.8226 520.5354,31.5796 533.2584,14.9736 L533.841563,17.9630137 C538.155232,39.9274072 543.43153,62.7132522 559.2744,79.5136 C581.7084,73.5596 636.2504,74.0936 627.3184,109.4766 C765.8064,109.8016 766.9564,277.3756 813.1294,370.8766 C835.2824,406.5876 869.5834,443.2206 840.8634,486.1306 C846.5074,499.6646 850.4404,514.0146 851.9034,528.5896 C856.4144,576.1496 827.3114,616.8576 801.0724,653.7656 C791.8284,663.9056 784.0954,680.9036 770.6584,685.2406 C769.2784,686.4266 767.8414,687.5516 766.3684,688.6196 C769.0364,692.5056 766.8724,698.6856 769.9974,702.0906 L771.217365,703.272917 C773.267276,705.283426 776.083309,708.265327 776.6454,710.9326 L776.910822,713.239113 C777.025388,714.142357 777.049914,714.092762 776.9844,713.0906 L776.946552,712.773784 C776.904385,712.339493 776.966758,712.373933 777.133251,712.877948 L777.2054,713.1046 C778.6124,717.1386 775.6464,721.7566 771.5964,722.8296 C759.5404,729.2906 746.7234,710.3816 750.7584,697.7286 C683.9064,726.5626 545.0484,674.4146 477.8744,648.5646 C465.0374,643.4096 452.8694,636.7166 439.8874,631.9836 L438.920696,631.512459 C423.938181,624.135506 409.001505,613.436642 391.4294,617.7166 C317.5004,649.3776 248.7554,702.0926 166.8014,712.4886 C179.6214,736.9726 141.8924,740.2526 149.4514,712.9036 C-73.5706,683.9706 65.4034,204.6556 183.8744,112.0706 C221.5904,76.1486 246.9644,84.3846 292.7904,74.0146 C293.8434,70.1546 297.7074,66.9176 301.7984,67.4666 C318.0844,51.9786 351.8094,36.8896 365.7254,62.0466 C374.2364,48.7476 380.1544,33.9726 384.2924,18.7756 C385.9414,12.7406 386.5274,5.8456 390.6734,0.9996 Z M303.3668,719.2889 C291.4758,709.8699 309.5428,695.0179 319.8368,701.0059 C323.0158,704.8959 312.0298,701.0149 313.4038,709.6329 C315.4058,715.3589 309.4298,722.9799 303.3668,719.2889 Z M546.0711,707.5959 C537.6101,691.6689 545.0381,684.5719 557.7471,696.9739 C569.3501,705.7269 553.7851,719.9489 546.0711,707.5959 Z M428.2244,706.108 C416.2924,699.698 413.3244,670.454 432.6924,684.512 C449.9244,690.639 445.1904,712.56 428.2244,706.108 Z M294.4184,82.4686 C270.5614,89.0636 243.9444,86.2216 222.0634,99.8816 C168.53608,133.57526 137.752961,191.658709 114.596783,248.700409 L113.8974,250.4286 C66.9094,366.1136 29.3014,500.6086 68.8404,623.5306 C88.8104,679.4516 137.9674,703.4296 193.9174,684.0046 C334.3364,638.5186 451.6814,529.1706 601.0114,510.5446 C603.1164,493.2576 598.3384,476.2196 592.2394,460.0586 C500.6284,463.8736 412.7984,493.5326 325.0104,517.4066 C319.8984,539.8006 294.3534,565.8826 279.0484,583.2566 C265.2214,601.7646 231.0184,607.3376 226.8114,578.8816 L226.137831,579.644059 C214.857103,592.294896 190.10834,614.21732 182.5104,586.9106 C180.7994,572.5886 189.9774,560.1996 194.4914,547.1706 L194.013877,547.522762 C185.671938,553.758024 151.14938,583.18272 148.7474,563.5886 C148.9014,545.1256 154.7464,526.9556 165.3494,511.8326 C176.0024,497.8676 189.0914,484.7226 203.3484,474.3996 C204.1004,470.0196 205.4684,465.7856 206.4934,461.4536 C204.9284,445.1646 211.3514,429.8746 213.0354,413.9246 C216.9194,398.9606 217.7664,370.9436 228.6014,360.4166 C236.9184,369.2756 228.6784,403.0596 228.2524,415.9836 C225.2824,431.6926 226.5674,447.7456 220.8744,463.0216 C236.9324,454.2406 254.3344,449.7846 271.8194,449.0336 C273.6004,414.7346 322.1564,426.7126 344.6454,429.3736 C378.9724,417.1676 523.0964,421.4436 546.9244,447.1016 C558.8194,445.7206 570.1924,444.6336 582.2664,443.8046 C596.3094,434.8726 635.0484,438.5286 641.0204,456.0936 C656.6354,460.7166 670.2014,468.6006 683.8954,477.6066 C688.1344,407.7176 669.5924,338.8726 674.1074,268.8796 C674.5144,264.8126 676.3954,261.2866 676.3174,257.1516 C676.3084,256.6606 677.0234,256.6796 677.0674,257.1516 C683.8124,277.5866 685.0954,299.3996 688.8864,320.5916 C693.8804,357.5526 702.6544,394.0866 705.5644,431.2816 C706.8314,462.5386 701.7534,495.9696 714.2214,525.6016 C715.9974,529.8196 713.0674,536.6896 708.9764,538.4936 C674.8094,552.8436 635.0584,542.5296 603.8564,525.0356 C537.3724,546.3186 472.3324,571.5986 411.0844,605.3486 C422.8714,608.4516 433.4724,615.3516 444.1434,621.0826 C459.3344,626.3406 474.4214,631.8916 489.5974,637.1956 C564.7024,659.9026 643.3014,690.3866 722.6524,685.7636 C747.0474,681.5996 758.0194,671.1486 772.5014,652.4796 L774.890535,649.379828 C800.763721,615.912112 830.3355,580.47289 834.6714,537.0586 C835.6594,522.9676 834.3214,508.9496 833.5054,494.9106 C830.0194,498.4776 826.2784,501.8106 822.6584,505.2606 C817.6344,510.0476 811.2124,504.0116 813.6774,498.3316 C819.0084,482.1916 828.4024,466.9626 830.0274,449.8796 C830.3014,433.8116 819.7694,419.5176 810.4644,407.3036 C738.0604,318.1966 769.6424,131.0916 626.2374,112.9246 C565.04649,241.60282 356.395615,188.109853 296.222088,85.6347615 L294.4184,82.4686 L294.4184,82.4686 Z M133.7061,624.8558 C134.3101,607.3158 162.2281,630.1528 159.6501,639.7258 C158.0861,652.9558 142.0411,646.7758 138.4081,637.8428 C136.1531,633.7568 134.2541,629.5108 133.7061,624.8558 Z M686.5013,606.8071 C690.5263,599.4661 714.4993,620.5761 702.0733,627.5091 C693.6593,631.9461 690.4383,621.5511 688.6113,615.3121 C687.6143,612.7011 685.7243,609.6881 686.5013,606.8071 Z M276.4815,616.4368 C261.3825,607.4788 294.4345,595.4138 295.6755,610.0258 C296.1605,619.9438 282.7715,619.4158 276.4815,616.4368 Z M557.0885,577.8476 C564.6725,567.7346 564.8525,603.5546 560.3555,605.9866 C558.2795,609.2636 553.6265,608.4896 552.3875,604.9446 C549.2005,595.8156 553.9985,586.4296 557.0885,577.8476 Z M198.2524,584.1516 L198.088534,584.759448 C197.246582,588.045849 199.226762,583.710462 198.4634,584.3496 C198.3954,584.2776 198.3234,584.2156 198.2524,584.1516 Z M362.1904,498.4866 C327.6434,459.1476 265.3274,449.3856 218.7594,472.7236 C211.8994,474.7336 205.8804,480.3646 199.7044,484.0466 C201.2554,483.4856 202.8264,483.0116 204.4124,482.6086 C183.9564,500.0196 166.5434,523.8656 163.3994,551.0176 C182.0484,539.4826 198.4314,525.0296 211.3544,506.9696 C215.6034,499.5556 227.8074,504.6486 225.2094,512.8086 C216.8244,535.8566 203.9944,558.1006 198.6224,581.9186 C218.7204,567.3696 233.5524,545.9596 241.8914,522.7096 C245.3974,512.7376 261.0034,516.7946 257.8914,527.1196 C253.773733,540.7871 249.378775,554.407544 245.472158,568.140376 L244.4194,571.8886 C243.1094,576.6156 242.3404,580.9436 247.9554,582.2416 C266.0504,583.4086 290.3074,543.4236 301.0904,529.8016 C306.3814,523.3576 311.0604,509.3756 321.0504,511.4126 C333.4864,503.2826 348.4824,502.3296 362.1904,498.4866 Z M760.5188,561.3982 C762.583206,559.606012 765.114035,558.366588 767.853998,559.280028 L768.1198,559.3752 C776.4018,562.2722 769.9818,573.6052 762.8798,569.6182 C760.4668,567.8092 757.8458,566.2882 754.9678,565.2972 C753.2428,563.5212 759.4888,562.7182 760.5188,561.3982 Z M375.0728,528.3159 C377.5108,516.8879 400.0878,532.4269 392.0528,540.4759 C384.4278,546.3069 375.7238,535.6259 375.0728,528.3159 Z M103.095,529.91 C124.29,516.112 126.844,549.525 95.504,539.764 C92.926,535.864 100.504,532.041 103.095,529.91 Z M645.6234,461.1406 C657.2054,474.9986 661.7774,493.1076 663.8294,510.6936 C664.2964,514.1516 665.1164,517.9706 664.9474,521.5396 C672.8544,522.7006 680.9964,523.0026 688.7344,521.4476 C686.8254,514.5786 685.6444,507.5046 684.9264,500.3716 C674.4804,484.7946 662.4714,470.1696 645.6234,461.1406 Z M614.7244,505.2186 C614.7594,507.1246 614.6964,509.0396 614.5424,510.9636 C624.7844,512.1666 634.8734,514.7366 644.8974,517.2366 L644.832275,514.1926 C644.8099,513.17035 644.7849,512.1461 644.7514,511.1366 C634.8434,513.8076 622.6704,511.0416 614.7244,505.2186 Z M641.3314,481.7076 C629.8904,477.0766 619.4044,474.1806 607.1004,474.9536 C610.7394,482.7776 613.3684,490.9756 614.3294,499.3966 C619.3394,500.8166 625.0164,501.2176 629.8544,500.9676 C634.7624,500.7156 639.2924,498.3566 643.9614,498.2506 C643.4304,492.6986 642.6424,487.1366 641.3314,481.7076 Z M532.5001,485.6155 C539.7381,482.7215 550.3961,490.6985 542.4571,496.9495 C536.6771,500.8755 528.7701,495.6105 524.0781,492.0235 C521.4921,489.0535 530.2391,486.1545 532.5001,485.6155 Z M389.0364,459.0176 C385.9014,468.6596 365.2724,464.4256 355.8214,469.6186 L356.657151,470.100724 C365.737932,475.392277 375.59837,482.90966 377.2874,492.4666 C389.3104,487.7726 401.4314,483.3306 413.6204,479.1296 C406.3974,471.0596 398.0974,464.4136 389.0364,459.0176 Z M529.1494,449.5646 C474.8854,430.1086 415.7434,430.6786 358.8194,432.4906 L360.316463,432.941368 C384.85688,440.387036 413.59144,451.95474 426.3824,474.8446 C459.9134,463.9086 494.2234,454.8536 529.1494,449.5646 Z M634.7964,464.9256 C626.4474,450.1406 610.1924,443.5296 594.2884,444.6406 L591.7824,445.0506 L591.7824,445.0506 C593.5134,445.6576 595.1414,446.5156 596.6044,447.7346 C599.2164,449.9106 599.1724,454.6936 596.8634,457.0846 C599.7924,461.4256 602.5424,465.9526 604.9714,470.6286 C613.7394,464.5116 624.2544,463.6296 634.7964,464.9256 Z M781.3975,465.2503 C762.4025,476.3983 748.6535,424.2003 772.5935,435.4123 L774.300217,437.241317 C781.235138,444.72694 791.95726,457.3797 781.3975,465.2503 Z M335.9814,440.8086 C329.9144,445.7326 322.8504,449.3036 316.7064,454.1766 C326.8074,456.7346 336.7354,460.1296 346.1294,464.5956 C353.7834,458.0326 362.9884,453.8546 372.7344,450.9086 C361.0454,446.0676 348.5164,442.8366 335.9814,440.8086 Z M87.243882,441.908524 L87.3332,441.6721 C90.2742,433.4131 108.0232,421.1631 116.8402,424.3711 C117.2522,424.3511 117.6602,424.7541 117.6362,425.1681 L117.780152,426.191185 C118.276517,429.822323 118.532543,433.3767 116.1362,436.6151 C111.8452,443.5311 107.7482,452.1481 99.4952,454.8441 C91.36235,457.42305 84.395819,449.70997 87.243882,441.908524 L87.243882,441.908524 Z M315.7534,438.4646 L313.042589,438.321308 C300.592615,437.627273 282.66574,436.49431 276.5854,448.9126 C287.0854,448.8406 297.7654,449.9916 308.3574,452.2446 C309.9424,447.4716 312.5434,442.6736 315.7534,438.4646 Z M383.7569,385.7064 C381.8619,382.0904 388.8899,386.0544 390.5229,385.4984 C393.5559,385.6844 396.2949,386.3074 398.0109,389.0354 C400.7599,393.4104 395.4189,398.1004 391.2119,395.8344 C387.1519,393.5914 388.1279,387.7404 383.7569,385.7064 Z M622.2842,365.47 L622.543164,365.444341 C626.739125,364.976912 644.717159,360.884804 644.670383,365.331 L644.326243,365.814287 C638.672079,373.87128 631.30144,389.73062 619.7982,384.077 C612.4082,379.868 613.8912,367.292 622.2842,365.47 Z M497.0712,364.8134 C500.3902,358.6964 507.5012,372.8994 509.6162,375.4264 C512.6262,382.1664 503.9422,387.4224 499.6592,381.2464 C497.0002,376.4294 495.8172,370.2214 497.0712,364.8134 Z M185.6635,350.7782 C190.4315,348.3632 202.4895,348.1462 199.1885,356.2972 C192.7565,364.8262 180.9585,360.6982 173.7535,355.2352 C170.0695,350.9962 183.3735,352.7202 185.6635,350.7782 Z M301.5749,319.1352 C301.1429,313.0272 307.9559,310.8432 312.5489,312.8382 C320.7449,316.3992 327.0969,329.4982 324.5029,337.9702 C322.4149,346.3742 309.6949,348.2342 305.6529,340.4342 C303.3289,333.2322 303.0159,326.3562 301.5749,319.1352 Z M723.7472,330.537 C733.1612,328.544 743.0322,322.235 752.7012,324.012 C755.7152,325.145 756.8102,328.573 754.5612,331.062 C753.2902,336.803 718.4502,335.525 723.7472,330.537 Z M451.579,308.6238 C455.585,301.3548 464.792,293.6428 473.627,294.2738 C479.046,294.0938 481.163,301.8868 476.389,304.4738 L476.230524,304.541083 C473.233315,305.736544 450.50296,311.56968 451.579,308.6238 Z M576.6931,296.907 C563.1351,294.963 563.2151,262.354 571.2891,268.722 C574.0411,276.719 581.0291,281.484 585.0251,288.575 C587.0451,293.438 581.2101,298.283 576.6931,296.907 Z M165.0521,289.6898 C170.8131,290.5718 200.7291,272.3778 195.2471,286.9398 C191.6801,291.0218 187.1641,291.1198 182.1021,291.4968 L181.963851,291.483453 C179.368136,291.315777 160.49804,293.5559 165.0521,289.6898 Z M371.9599,260.0757 C365.9739,259.3817 344.2009,213.8917 354.8499,216.7567 L356.475028,217.821468 C368.274285,225.610661 381.2839,235.567244 386.5489,248.8607 C388.6229,256.7857 379.3669,265.1487 371.9599,260.0757 Z M505.8856,241.3625 C506.7476,240.9715 507.5086,242.1975 506.6426,242.6585 C502.9446,244.6215 498.9286,248.7775 496.6046,252.2845 C488.6466,262.2375 479.2326,244.6495 491.4636,243.3275 C495.9256,243.6485 501.7916,243.2175 505.8856,241.3625 Z M251.9288,186.2972 C262.9708,183.4532 268.3098,198.0132 259.4058,204.0332 C254.9528,207.8512 213.1178,219.8032 210.6128,215.0062 C215.8608,206.4732 242.0828,189.2912 251.9288,186.2972 Z M666.7012,188.3362 C697.2702,185.8342 698.0912,180.2402 676.5002,205.1682 C663.7532,216.3562 650.8362,193.4362 666.7012,188.3362 Z M523.6204,113.8246 C513.0184,114.7246 502.3724,114.9946 491.7434,114.6506 C493.3814,118.1576 491.9614,123.2606 487.3094,122.5526 C485.1214,136.7496 484.1264,151.1746 481.3644,165.2756 C480.6394,168.5726 479.6124,171.7746 478.6304,174.9906 C498.8704,176.4846 519.4124,175.6466 539.1394,170.6386 C531.8114,152.2786 528.6314,132.8476 523.6204,113.8246 Z M438.1124,107.7706 C438.0164,109.2546 437.5954,110.7226 436.9004,111.9626 C427.7444,127.8236 419.7064,144.3736 410.0284,159.8986 C430.9144,167.6356 452.8624,172.6806 475.0074,174.6746 C471.6614,154.4766 474.6304,133.8776 473.9374,113.5096 C461.8924,112.3536 449.9204,110.4296 438.1124,107.7706 Z M572.2324,105.4296 C561.6374,108.2806 550.8574,110.4196 539.9954,111.9496 C540.0384,113.6576 539.0554,115.2516 537.5364,115.8886 C539.9164,133.6196 544.6064,151.0646 544.6744,169.1386 C567.3144,163.5916 585.2124,148.1846 600.0614,130.8086 L596.686699,128.348733 C587.662326,121.742884 578.555956,114.6936 572.2324,105.4296 Z M363.5494,65.3496 C350.4164,57.2906 332.2354,60.7236 321.5994,71.2186 C316.8864,75.4216 312.7954,81.1036 307.4284,84.4056 C306.7594,84.8166 306.0734,85.0966 305.3844,85.2726 C309.0814,92.2626 314.7314,98.9636 319.5074,104.7286 C345.1174,127.0906 373.9474,145.8706 405.6334,158.2266 C406.9304,139.2166 413.5084,120.7546 421.0264,103.2886 C414.0184,101.1766 407.1094,98.7456 400.3244,95.9946 C399.4604,100.5656 395.1754,104.0956 392.4654,107.6436 C386.3164,114.8446 382.2184,123.6496 376.3634,130.9756 C369.8414,137.8106 358.7604,129.0936 363.4474,121.0106 C371.0004,109.9826 380.7614,99.9996 392.1014,92.4906 C384.6264,89.1366 377.4984,85.1896 370.6044,80.7736 C370.3124,81.0776 370.0114,81.3676 369.7064,81.6476 C369.2454,78.8016 365.3284,79.5506 363.2454,80.0166 C361.7614,78.7596 359.7474,80.3426 358.0944,80.7546 C357.8524,80.3146 357.6494,79.8496 357.5054,79.3616 C349.0164,87.7466 342.6314,101.0256 331.6784,106.0326 C327.1664,107.2776 321.9344,102.7976 323.6544,98.0096 C326.5514,90.6576 350.0554,75.0546 357.8194,70.9316 C356.1204,68.4596 357.4794,67.2386 360.2334,67.6056 C360.7064,67.0136 361.4314,66.8306 362.1864,67.3326 C362.6654,66.6886 363.1144,66.0226 363.5494,65.3496 Z M193.2839,139.2072 C198.6069,139.2332 204.8919,137.0142 209.6709,140.0882 C216.6989,148.1322 199.2819,150.8972 192.4559,141.2082 C191.7919,140.4732 192.2279,139.2022 193.2839,139.2072 Z M586.0114,89.6516 C587.5324,91.4446 588.0484,94.0606 587.4934,96.4106 C594.1534,106.5796 597.8124,118.0916 601.1594,129.5276 L602.096314,128.3645 C617.270087,109.401421 625.87482,92.20738 592.5264,90.3346 C590.3584,90.0276 588.1844,89.7996 586.0114,89.6516 Z M268.2276,116.3352 C240.6796,96.2152 299.9556,107.2072 282.8786,119.5062 C277.6236,121.4142 272.5856,119.2912 268.2276,116.3352 Z" id="ðŸ–-Ink" fill="#000000"></path>
    </g>
</svg>