<?xml version="1.0" encoding="UTF-8"?>
<svg width="818px" height="733px" viewBox="0 0 818 733" version="1.1" xmlns="http://www.w3.org/2000/svg" xmlns:xlink="http://www.w3.org/1999/xlink">
    <!-- Generator: Sketch 62 (91390) - https://sketch.com -->
    <title>body/mono/Tee 1</title>
    <desc>Created with Sketch.</desc>
    <g id="body/mono/Tee-1" stroke="none" stroke-width="1" fill="none" fill-rule="evenodd">
        <path d="M774.2812,553.022709 C770.2502,530.258879 766.5552,507.433967 763.1972,484.559988 C761.6032,473.700281 760.0482,462.83056 758.6502,451.942814 C757.6712,444.314483 756.1802,435.591669 761.3702,429.942018 C768.6732,421.990249 775.3072,415.184031 776.2012,403.793605 C777.0422,393.07609 773.4182,381.393267 771.1522,370.990178 C766.4002,349.174633 760.4842,327.628452 753.9472,306.286549 C747.3062,284.603182 740.0242,263.124093 732.6372,241.686059 C725.7312,221.641912 719.0922,201.417522 710.0972,182.186477 C693.0262,145.69105 664.1462,118.664448 628.4542,100.618007 C619.5772,96.1299287 601.471732,80.1082302 592.197732,76.5213724 C583.671732,73.2229053 583.7022,82.8539488 575.3112,79.2260354 C568.6032,76.326108 562.3572,72.4588705 558.6012,65.9820989 C554.5232,58.9495746 544.296524,49.1135653 542.739524,40.9274787 C539.440524,23.5759792 543.0142,8.80766626 530.6302,-4.25202077 C519.6362,-15.8487264 504.8592,-23.7934862 489.5692,-28.0582621 C455.9332,-37.4399679 411.0752,-30.8810851 390.7812,0.374244684 C381.0882,15.3004596 377.7012,33.3418935 364.6222,45.5233912 C353.2012,56.1597963 355.757081,63.4316447 340.965081,68.9130683 C340.127081,69.2244901 317.4196,64.3537782 316.5816,64.6652 C300.3996,61.2025104 284.9332,70.8957535 270.0872,76.5213724 C247.9542,84.9057276 226.8822,95.8195083 207.0852,108.790075 C167.1662,134.945498 132.9762,168.908494 104.7892,207.341545 C76.3692,246.091024 54.3182,289.523846 38.6172,334.917324 C34.8042,345.943257 31.3792,357.103371 28.3582,368.372633 C26.6672,374.679174 24.8602,381.221034 26.9192,387.677779 C28.6032,392.959932 32.3492,396.893259 36.7482,400.062551 C42.7112,404.359371 54.6722,407.152153 54.4392,415.793857 C54.2612,422.364756 52.0322,429.27912 50.9442,435.771913 C49.6492,443.504386 48.5852,451.281919 47.5212,459.048437 C42.6812,494.398313 38.9142,529.947458 37.2482,565.597739 C35.6082,600.699278 34.2472,636.518789 36.6822,671.610315 C36.8432,673.924449 37.5332,676.048325 38.6462,677.843757 C37.6072,678.241295 37.5272,680.177918 38.8202,680.45229 C39.7262,680.64455 40.6302,680.835809 41.5362,681.028069 C43.4182,682.451998 45.7652,683.32518 48.4662,683.410296 C50.2972,683.468374 52.1272,683.550486 53.9562,683.644613 C73.2572,687.679077 92.5552,691.490238 112.1082,694.376147 C135.8762,697.883898 159.7142,700.743771 183.6262,703.06892 C232.7612,707.845389 281.5092,706.261243 330.7092,703.686757 C379.8332,701.115274 428.9282,700.51446 478.1032,701.793192 C527.3212,703.073927 576.5212,705.214826 625.7502,706.091013 C680.7492,707.068336 735.6642,705.566302 790.5042,701.194381 C798.0232,700.59557 802.6752,694.613468 801.1922,687.145354 C792.3072,642.402758 782.2382,597.958566 774.2812,553.022709 Z" id="ðŸŽ¨-Background" fill="#FFFFFF"></path>
        <path d="M301.2356,63.5642 C306.3216,63.3432 311.5076,64.1662 316.5816,64.6652 C317.0236,64.7082 317.1916,65.3902 316.6936,65.4942 C307.61285,67.3912 298.631631,69.98645 289.713098,72.6220867 L285.8946,73.7522 C275.8376,76.7272 266.0756,79.7962 256.3396,83.7642 C236.9356,91.6722 218.5066,102.3462 201.5456,114.6092 C136.2336,161.8302 88.9636,233.3242 59.1336,307.3452 C51.0326,327.4472 44.1686,348.0492 38.6086,368.9982 C37.2566,374.0952 35.9846,379.2122 34.7786,384.3452 C34.4246,385.8502 32.8816,389.7042 33.7276,391.2442 C34.4756,392.6052 37.3836,393.4462 38.7346,394.1542 L43.2957161,396.5192 C52.1925923,401.104634 67.0124511,408.641838 68.4986,409.3762 L70.8164118,410.517491 C108.727057,429.10257 149.23424,444.86246 191.8956,445.9532 L192.2296,442.3102 L192.2296,442.3102 C194.1316,422.1692 196.6276,401.9212 202.0756,382.3992 C202.3686,381.3502 203.7036,381.7042 203.8256,382.6362 C206.8606,405.7472 205.8906,429.0382 204.8316,452.2562 C202.9566,493.3782 200.4666,534.4772 198.2536,575.5832 C197.1456,596.1462 195.7136,616.6952 194.4206,637.2472 C193.1256,657.8402 192.7066,678.9282 189.7496,699.3512 C189.0906,703.9032 183.7586,706.3792 179.7206,705.8992 C175.2526,705.3672 171.8156,701.4322 171.7946,696.9212 C171.7406,685.0232 173.2356,672.9852 174.0666,661.1172 C174.8556,649.8412 175.7026,638.5712 176.5706,627.3012 C179.7426,586.1702 183.3916,545.0872 186.7666,503.9742 C187.9626,489.3922 189.2546,474.8232 190.5846,460.2552 C145.3916,458.7982 103.1706,442.0592 62.8926,422.5012 C62.3096,435.7382 60.9016,448.9512 59.5386,462.1332 C55.7336,498.9192 52.3786,535.6912 49.8676,572.5912 C48.5996,591.2282 47.6766,609.8882 46.8726,628.5502 C46.4776,637.7222 46.1556,646.8962 45.9086,656.0732 C45.8259333,659.131867 45.7512667,662.190978 45.6851926,665.250237 L45.5477972,672.258652 C45.4353817,676.699137 44.9839696,680.812439 41.2476,684.0452 C37.4526,687.3282 32.3266,687.5032 28.5706,684.0452 C23.5426,679.4152 24.4316,673.1072 24.5806,666.8892 C24.7046,661.6442 24.8536,656.4002 25.0266,651.1572 C25.3736,640.6702 25.8166,630.1862 26.3556,619.7072 C28.241729,583.071394 32.0102722,546.581685 36.935272,510.23898 L38.8578186,496.209872 C42.4480913,470.129757 46.3897176,443.456435 54.4156,418.3332 C51.2906,416.7792 48.1746,415.2142 45.0706,413.6422 C39.5646,410.8542 33.8716,408.2382 28.5196,405.1612 C24.2736,402.7202 20.6116,399.3722 19.4296,394.4312 C18.1113714,388.926114 20.1271412,382.904839 21.4662971,377.535265 L21.5826,377.0632 C22.8956,371.6552 24.3096,366.2712 25.8016,360.9102 C31.8516,339.1712 39.3326,317.8562 48.0876,297.0612 C65.6176,255.4292 88.2446,215.8782 115.8836,180.1172 C140.7626,147.9272 170.1526,118.7352 204.5986,96.8412 C221.4386,86.1372 239.3846,77.3482 258.3636,71.1342 C267.2346,68.2302 276.8866,65.7042 286.1746,64.6642 C291.1846,64.1042 296.2016,63.7832 301.2356,63.5642 Z M391.3492,-2.4055 C397.3932,-8.8955 409.4012,-2.1795 406.4992,6.4145 C399.6732,26.6335 388.8032,45.0765 371.8392,58.3625 C355.8932,70.8525 336.8782,78.9635 316.4002,77.2325 C316.2422,77.2185 316.1052,77.1785 315.9842,77.1215 L317.74893,79.5151537 C331.603694,98.2561789 346.219833,116.738337 363.8362,132.0565 C399.7292,163.2675 448.5992,180.1015 495.7892,168.1265 C532.9172,158.7055 565.6272,129.3465 575.2472,91.9305 C573.8682,92.5485 572.2292,92.7595 570.4302,92.3685 C562.7332,90.6975 555.1132,82.6025 550.1492,76.7985 C544.7792,70.5195 540.5852,63.7395 537.5112,56.0755 C531.8852,42.0495 530.0812,23.9905 537.7632,10.4035 C538.7112,8.7285 540.8972,9.6675 541.0832,11.3025 L541.375676,13.8546279 C542.856684,26.5879727 544.70145,38.905375 550.7052,50.5135 C553.6432,56.1935 557.1652,61.7375 561.4522,66.4945 C563.7462,69.0395 566.2332,71.4715 568.9182,73.6055 C571.534671,75.6845588 574.701231,77.1878391 577.046434,79.5734935 L577.4762,80.0315 L577.4882,79.9495 C578.0812,74.9085 581.6162,72.6875 585.0752,72.8265 C588.422619,72.9610161 592.354392,74.4344109 593.877066,75.1401693 L594.021192,75.2081083 C617.373176,86.4178617 638.880511,101.029065 659.1202,117.2395 C700.9762,150.7635 732.3372,194.5885 747.5322,246.1965 C754.990038,271.525149 759.269497,297.624232 763.786832,323.601596 L766.567852,339.517779 C770.784257,363.49949 775.494097,387.952879 785.0122,410.2615 C787.4742,416.0325 785.5762,421.4445 779.5392,423.7135 C772.0012,426.5475 764.4352,429.2915 756.8572,432.0015 C760.5782,447.9645 762.8472,464.4805 765.6352,480.5225 C771.5612,514.6215 778.8222,548.5025 785.0482,582.5565 C788.2312,599.9685 791.1032,617.4385 794.2832,634.8525 C795.8142,643.2385 797.4122,651.6125 798.9662,659.9945 C799.8032,664.5145 800.5622,669.0485 801.3612,673.5745 L801.500252,674.325603 C801.95793,676.713325 802.533057,679.183024 801.8762,681.5725 C801.1272,684.2975 799.0002,686.2225 797.1012,688.1765 C795.5382,689.7855 793.2792,689.7955 791.3642,688.9175 L790.734327,688.626096 C787.314042,687.02639 784.634657,685.430671 783.4212,681.5725 C782.6532,679.1295 782.3762,676.3775 781.8742,673.8605 C780.9112,669.0355 779.9982,664.2045 779.1362,659.3595 C777.4122,649.6665 775.7282,639.9665 774.0842,630.2585 L772.548651,621.168351 C767.278319,589.839243 762.273347,558.319618 759.7432,526.6595 C758.6208,512.6139 757.4312,498.58046 756.23072,484.544332 L755.3292,474.0165 C754.1892,460.6915 752.7962,447.0295 752.5992,433.5245 L748.067825,435.13325 L748.067825,435.13325 L725.9572,442.9495 L725.9572,442.9495 C720.4752,444.8865 713.4952,448.8565 707.5952,448.1345 C704.7072,447.7805 702.5052,446.8715 700.8052,445.2195 C702.8412,473.9525 705.5972,502.6355 709.2702,531.1725 C712.6122,557.1385 716.3172,583.0695 720.6932,608.8825 C722.8602,621.6645 725.0872,634.4345 727.5062,647.1705 C728.7152,653.5395 729.9632,659.8995 731.2492,666.2535 C731.8902,669.4235 732.6532,672.5965 733.1532,675.7925 C733.7252,679.4525 732.7172,681.7045 730.6722,684.7155 C728.9932,687.1885 725.6342,688.4585 722.9112,686.7515 C719.3052,684.4885 717.4242,682.5285 716.3632,678.4075 C715.3992,674.6645 714.8132,670.7565 714.0672,666.9655 C712.6902,659.9675 711.3592,652.9615 710.0742,645.9455 C707.3872,631.2735 704.9102,616.5655 702.6982,601.8135 C694.9032,549.8445 689.9572,497.4405 687.4592,444.9515 C686.2262,419.0545 685.8452,393.1345 686.0642,367.2105 C686.1762,353.9225 686.6102,340.5965 687.5502,327.3415 C688.5022,313.9245 690.4822,300.7755 692.2502,287.4875 C692.3122,287.0195 692.9722,286.9925 693.0002,287.4875 C693.8372,302.3855 695.1492,317.2665 695.7922,332.2035 C696.4062,346.4565 696.6752,360.7315 697.1632,374.9895 C697.8042,393.7315 698.6932,412.4845 699.8702,431.2245 C702.0012,428.8935 705.2132,427.5495 708.4272,428.0745 C713.0832,427.0975 718.0952,424.6545 722.5342,423.1715 L739.2682,417.5815 L739.2682,417.5815 C748.0652,414.6435 756.8622,411.7255 765.6902,408.8955 C757.797376,382.342147 752.390601,355.393137 747.773782,328.051212 L745.714766,315.754626 C741.639065,291.550591 737.244581,267.335119 729.8622,243.8965 C722.1012,219.2545 710.4872,196.3445 695.0802,175.5975 C679.8932,155.1505 661.4162,137.1465 642.3922,120.3065 C626.1052,105.8905 608.6822,92.8745 592.0702,78.8545 C592.2442,79.7835 592.2812,80.8065 592.1282,81.9305 C588.5962,107.7805 575.1112,131.8535 556.3182,149.7585 C518.5632,185.7295 462.6762,193.1925 414.3542,176.3245 C367.6112,160.0085 326.2842,121.3665 311.6832,73.5495 C311.4332,72.7315 312.5292,72.4065 312.9692,73.0075 C313.7792,74.1175 314.5932,75.2275 315.4082,76.3375 C315.3532,75.8965 315.5822,75.4165 316.1262,75.2065 C333.1622,68.6285 349.8912,59.2995 362.6612,46.1025 C368.8852,39.6695 374.3172,32.3815 378.6052,24.5215 C380.6592,20.7565 382.5042,16.8575 383.9762,12.8285 L384.350296,11.786133 C386.134209,6.73918678 387.625039,1.59275806 391.3492,-2.4055 Z" id="ðŸ–-Ink" fill="#000000"></path>
    </g>
</svg>