<?xml version="1.0" encoding="UTF-8"?>
<svg width="818px" height="733px" viewBox="0 0 818 733" version="1.1" xmlns="http://www.w3.org/2000/svg" xmlns:xlink="http://www.w3.org/1999/xlink">
    <!-- Generator: Sketch 62 (91390) - https://sketch.com -->
    <title>body/mono/Tee 2</title>
    <desc>Created with Sketch.</desc>
    <g id="body/mono/Tee-2" stroke="none" stroke-width="1" fill="none" fill-rule="evenodd">
        <path d="M47.9999306,350.796495 L764.472184,407.675144 L765.22239,412.543719 C777.228219,490.733904 783.292388,543.780294 783.414896,571.682888 L783.41679,572.537838 C783.41679,600.204314 791.909995,644.205775 808.896404,704.542222 L809.947,708.2567 L46.9999306,709.585887 L37.9999306,527.974083 L47.9999306,350.796495 Z M472.169667,-38.9088304 C501.301919,-37.471208 530.661837,-24.9820863 532.929602,-17.0000671 C537.980194,0.776878561 546.102366,76.8737371 572.811802,88.5649563 C599.521238,100.256176 656.5428,89.597634 672.846023,117.517312 C689.149246,145.43699 742.689609,259.249605 742.689609,285.769002 C742.689609,303.448601 568.207587,309.585478 219.243541,304.179635 C223.698387,161.777946 242.271009,86.9220349 274.961405,79.611901 L277.879657,78.9669235 C325.155293,68.6399052 353.409726,68.3069576 369.536941,51.659581 C385.993282,34.6724619 388.979547,5.51392428 395.806566,-17.0000671 C399.568188,-29.4050602 436.420784,-40.6729712 472.169667,-38.9088304 Z" id="ðŸŽ¨-Background" fill="#FFFFFF"></path>
        <path d="M536.057,5.5967 C536.167,5.51392428 536.278,5.4867 536.397,5.5467 C538.667,6.6367 539.137,8.8167 539.917,11.0867 C541.057,14.4067 542.377,17.6467 543.597,20.9367 C546.028,27.5367 548.347,34.1267 551.057,40.6167 C553.837,47.2967 556.717,53.8567 560.017,60.3067 C561.607,63.4267 563.317,66.4867 565.057,69.5267 C566.257,71.6367 567.377,74.5367 568.957,76.5167 C569.077,75.8867 569.247,75.2867 569.447,74.7267 C569.238,74.8267 569.037,74.9367 568.847,75.0567 C568.447,75.3067 567.967,74.8067 568.207,74.4167 C569.067,72.9967 570.187,72.0367 571.467,71.3867 C575.007,67.4567 653.036,86.2117 674.367,107.2767 C713,145.4277 739.077,192.5967 756.227,242.7767 C765.697,270.4667 774.417,298.4267 783.427,326.2667 C792.947,355.7067 802.887,385.0167 812.427,414.4367 C814.517,420.9067 809.957,426.7867 804.197,428.9167 C793.467,432.8767 782.657,436.6067 771.757,440.0567 C777.047,460.3667 780.747,481.1067 783.407,501.9067 C788.897,544.7967 789.587,588.5567 798.238,630.9967 C800.224214,640.737414 802.73726,650.340169 805.392022,659.917057 L806.007,662.1267 C807.587,667.7467 809.028,673.4167 810.967,678.9167 C812.637,683.6467 814.797,688.4167 815.967,693.2967 C817.337,699.0367 815.317,705.3067 809.947,708.2567 C805.637,710.6267 799.467,709.6467 796.867,705.1967 C796.337,704.2867 796.017,703.2967 795.887,702.2967 C795.497,701.4667 795.137,700.6167 794.817,699.7467 C794.692,699.4117 794.582,699.0642 794.477,698.71545 L794.167,697.6767 C793.407,695.1967 792.707,692.6967 792.007,690.1967 C790.867,686.185271 789.719653,682.188537 788.451606,678.212793 L787.807,676.2267 C784.667,666.6667 781.857,657.0267 779.407,647.2667 C770.639169,612.27009 768.779087,576.036502 766.372029,540.171452 L766.247,538.3167 C764.067,506.1767 762.767,474.1067 765.437,442.0367 L765.072,442.15545 L765.072,442.15545 L764.707,442.2667 C761.238,443.3267 757.757,444.3667 754.267,445.3767 C754.157,445.4167 754.057,445.4567 753.947,445.4867 C751.713667,446.178367 749.417833,446.835311 747.082648,447.445959 L745.677,447.8067 L744.687,448.0767 L743.644832,448.373214 C740.337794,449.332324 736.966048,450.435271 733.537,450.3267 C727.857,451.2367 722.077,451.7867 716.397,451.8067 C718.147,480.4167 720.167,509.0067 722.577,537.5667 C724.997,566.2767 728.207,594.8767 731.537,623.4767 C733.177,637.6067 734.937,651.7067 736.877,665.7867 C737.857,672.9267 738.877,680.0267 740.177,687.1067 C741.517,694.3467 743.887,702.0867 742.457,709.4067 C742.427,709.3967 742.397,709.3867 742.367,709.3867 C741.887,711.5067 740.607,713.4067 738.377,714.7167 C734.287,717.1067 728.567,715.7067 726.217,711.5267 C726.017,711.1767 725.827,710.8167 725.647,710.4467 C723.238,711.4767 720.597,711.8767 717.357,711.9067 L673.417,712.3467 L673.417,712.3467 C653.447,712.5467 633.477,712.7567 613.497,713.0467 C550.768111,713.971144 488.039222,715.037811 425.310333,715.797208 L401.787,716.0667 C366.507,716.4367 331.207,717.1667 295.927,717.1567 C278.278,717.1567 260.647,717.0967 242.997,716.6667 C234.447,716.4567 225.917,716.1267 217.377,715.7767 L215.86927,715.70778 C209.051518,715.371302 201.813207,714.739803 195.147,716.2667 C193.307,719.8467 188.607,720.5867 186.147,716.9267 C180.525364,708.552155 178.99138,696.867801 177.952822,686.632634 L177.587,682.9467 C176.437,671.4767 175.427,660.0067 174.677,648.5167 C172.017,607.8067 171.047,567.0567 172.267,526.2667 C172.887,505.4767 174.797,484.8067 177.057,464.1367 C177.767,457.6867 178.507,451.2467 179.307,444.8167 L179.32075,442.53045 C179.322,441.7992 179.317,441.1017 179.297,440.4467 L179.097625,434.242481 C178.932,429.070997 178.778094,423.896583 178.714031,418.72168 L178.687,415.6167 L178.657,409.8367 C173.717,409.3667 168.447,407.7267 164.187,406.9367 C157.278,405.6467 150.387,404.2567 143.517,402.7867 C129.757,399.8267 116.147,396.3267 102.627,392.4567 L99.7515955,391.6308 C87.2762857,388.036139 74.6291429,384.203129 62.827,378.8267 C58.207,376.7167 53.597,374.3367 49.547,371.2167 C49.307,374.4967 48.937,377.7667 48.717,381.0167 C48.278,387.4467 47.757,393.8567 47.327,400.2867 L46.9157963,406.404617 C46.2403333,416.598367 45.632,426.7817 45.357,437.0067 C44.137,481.6067 43.927,526.3967 46.287,570.9667 C47.457,593.2767 49.127,615.5867 51.537,637.8067 C52.717,648.7367 53.967,659.6967 55.507,670.5867 C57.097,681.7767 59.967,692.8967 60.847,704.1667 C61.687,715.0367 45.067,716.6167 42.337,706.6767 C39.0680714,694.758129 38.2353418,681.900412 36.5122838,669.645767 L36.317,668.2867 C34.407,655.2667 32.877,642.1967 31.557,629.1067 C27.0003804,583.9567 25.817,538.5767 28.207,493.2567 C29.3432963,471.551515 32.0374527,449.929786 35.298291,428.454022 L35.677,425.9767 C37.1614444,416.358922 38.5510741,406.741144 40.2321715,397.165507 L40.877,393.5767 C42.387,385.3467 43.547,376.3967 45.997,368.1667 L45.2687342,367.495139 C43.9071775,366.226759 42.4316154,364.759008 41.357,363.1767 C37.657,362.6767 34.507,360.0167 34.897,355.1867 C36.167,339.3167 41.967,323.1767 47.137,308.1967 C52.327,293.1367 58.347,278.3567 65.167,263.9567 C89.157,213.3467 123.707,167.3967 165.957,130.5867 C188.367,111.0567 212.927,93.7367 240.067,81.4067 C253.447,75.3167 267.287,70.6067 281.787,68.0667 C288.967,66.8067 296.217,65.8267 303.517,65.6167 C309.439321,62.1202714 316.470938,63.5915565 322.205506,67.4252616 L322.517,67.6367 L322.528,67.6367 L323.997,67.9267 L323.997,67.9267 C324.357,67.9967 324.347,68.5667 323.997,68.6467 C323.977,68.6467 323.947,68.6567 323.927,68.6667 C324.867,69.4067 325.757,70.1967 326.587,71.0467 C329.327,73.8467 329.317,77.2267 327.907,79.9567 C336.297,87.7367 341.597,97.7267 347.147,107.7967 C353.097,118.5767 360.887,127.8967 370.367,135.7567 C405.117,164.5767 456.227,177.3267 499.767,163.7167 C531.787,153.7167 559.137,126.6467 566.697,94.0567 C564.907,94.6967 562.967,94.7967 561.127,94.1367 C552.486365,91.0563825 549.191883,81.6129812 545.886947,73.7174982 L545.727,73.3367 C542.497,65.6867 539.787,57.9167 537.647,49.8967 C535.488,41.7967 534.217,33.2467 533.687,24.8867 C533.482455,21.5812455 533.572455,18.2757909 533.743394,14.9703364 L533.895201,12.23718 C534.012004,9.76061111 533.975667,7.23003333 536.057,5.5967 Z M395.4675,-16.6933 C395.5875,-16.9933 396.0575,-17.1533 396.2375,-16.7933 C403.8865,-1.0133 398.8675,20.6067 391.6365,35.6567 C384.0675,51.3967 372.6675,63.3367 359.1575,73.6667 C357.2975,75.0867 355.3865,76.4867 353.4475,77.8567 C342.1765,85.8167 332.1365,64.3567 345.1475,60.2567 C358.7075,53.3667 369.7275,41.0867 377.3865,28.1867 C381.5275,21.2167 385.1975,13.9567 388.0075,6.3367 C390.8075,-1.2633 392.4875,-9.1733 395.4675,-16.6933 Z" id="ðŸ–-Ink" fill="#000000"></path>
    </g>
</svg>