<?xml version="1.0" encoding="UTF-8"?>
<svg width="818px" height="733px" viewBox="0 0 818 733" version="1.1" xmlns="http://www.w3.org/2000/svg" xmlns:xlink="http://www.w3.org/1999/xlink">
    <!-- Generator: Sketch 62 (91390) - https://sketch.com -->
    <title>body/mono/Tee Selena</title>
    <desc>Created with Sketch.</desc>
    <g id="body/mono/Tee-Selena" stroke="none" stroke-width="1" fill="none" fill-rule="evenodd">
        <path d="M515.8469,717.8084 C434.6959,718.0364 386.0909,717.0854 294.2989,715.7584 C188.0579,712.9474 159.4259,718.0024 99.9079,706.3164 C90.8079,704.3824 83.8849,701.4544 76.8629,697.3714 C74.3459,700.2154 70.0789,704.4464 66.0269,701.6454 C58.5629,696.7134 61.9849,679.4814 60.1339,669.7514 C57.0699,584.0674 52.1689,495.8264 68.9229,411.1794 C58.7659,407.8774 -0.7501,383.3944 -4.0001,375.1924 C49.8209,234.4614 167.8869,69.7764 323.2259,75.9784 C326.3499,79.8304 329.1289,85.5314 332.5959,89.4534 C353.7159,81.5454 383.0329,73.6194 384.4799,43.1704 C388.1369,22.8494 390.7719,3.8764 392.5329,-14.7996 C392.8519,-16.9356 395.4139,-17.6696 396.9879,-18.5796 C397.6569,-23.4086 399.1929,-28.3446 402.5269,-31.6556 C429.7509,-34.1016 491.8959,-22.8746 508.2039,-18.2486 C530.4519,-14.4416 528.1379,9.4344 532.2819,27.5344 C538.8519,49.9094 543.4249,73.1314 553.1889,94.9914 C555.3979,95.2954 561.5859,96.3724 563.8669,96.7714 C563.9859,94.2944 562.8239,86.9424 565.0949,85.4424 C569.3039,81.2124 570.2749,89.2584 571.2099,91.8824 C663.1419,74.5224 723.2589,152.5334 743.4039,239.6734 C757.9929,283.4964 777.3259,327.8464 802.5629,375.4104 C818.3889,404.9424 772.9209,410.4294 753.8609,422.2154 C773.5289,498.7414 775.8969,576.6754 779.1249,653.8054 C779.9769,665.6694 781.1349,681.8024 776.9319,687.7064 C774.9379,689.2564 773.5519,689.2134 771.5299,689.3264 C767.6289,693.5364 760.9369,693.2564 755.3039,694.4584 C737.4959,697.6974 719.2469,699.8604 702.1019,700.1874 C653.9779,729.9714 579.7859,713.3164 515.8469,717.8084" id="ðŸŽ¨-Background" fill="#FFFFFF"></path>
        <path d="M385.8379,-14.8574 C388.3659,-27.5124 409.2539,-24.5804 408.3049,-11.8174 C397.7609,35.6826 404.1799,93.5056 337.5329,88.8306 C379.8399,163.2466 510.4839,208.5066 552.7119,110.8056 C531.9039,108.3226 527.7869,59.1336 525.2739,41.9226 L525.170825,40.3841776 C524.613338,31.5328731 524.799936,23.3288545 530.1219,15.7586 C535.4319,19.7336 537.5659,26.9326 539.3639,33.4976 L540.680496,38.7557856 C545.082321,56.2773107 549.688355,73.7198727 556.6729,90.4426 L556.9199,90.4826 L556.9199,90.4826 C556.5709,79.1406 571.1319,73.9556 574.7409,86.1056 C673.2599,72.5386 727.1519,153.8376 748.4149,238.8636 C763.9229,285.4066 784.1409,330.1846 807.1069,373.4666 C824.4389,407.2856 782.3499,415.0266 760.0869,426.2786 C777.2099,494.8796 780.5709,565.9506 783.7449,636.3116 C782.6919,651.3276 789.4809,682.1306 780.4139,692.8986 C766.9869,703.4046 759.7529,685.3966 761.8199,673.8496 C763.7479,592.2066 755.2459,510.9256 752.8039,429.4126 C735.9949,436.5136 718.9809,443.0566 701.7769,449.1346 C702.6529,525.6256 711.7479,602.1156 714.9919,678.2156 C719.2479,681.5696 721.5989,687.3836 717.9649,692.4506 C698.5009,719.5946 663.3119,723.6486 632.3499,724.0376 C558.6669,724.9616 484.9069,724.67769 411.2189,724.4566 C338.8369,722.8176 265.8249,727.4526 193.8249,719.1566 C179.7149,729.7546 176.8289,706.9096 178.7189,697.1646 L179.436678,677.645489 C179.919567,664.6326 180.4309,651.6206 181.0889,638.6166 L182.729488,606.908151 C185.476178,554.065628 188.387567,501.250767 193.0059,448.5116 C151.1819,442.7936 109.9589,432.6436 70.0499,418.9466 C73.3349,510.5016 66.5959,603.0386 77.8329,694.1276 C85.2479,704.1906 70.3769,713.6376 61.6959,707.3336 C50.9299,699.1246 55.5469,683.0646 53.3969,671.2466 L53.1210765,663.60675 C50.1076282,581.211139 45.99089,497.08429 61.3489,415.8206 L54.7427855,413.257476 C34.6052217,405.395717 -17.18232,384.37161 -10.3911,373.9986 C43.6739,232.3346 164.6149,62.8946 324.7919,70.9466 C328.8499,73.7626 330.9219,79.2486 333.9319,83.1806 L338.696505,81.4513013 C357.151962,74.6960784 377.19442,66.13132 377.7409,43.4156 C381.2349,24.0596 384.0059,4.6996 385.8379,-14.8574 Z M649.8049,338.2466 C672.7499,306.1546 513.6119,356.8746 502.2969,360.2226 L498.036519,361.77516 C428.335808,387.11287 353.19566,411.61534 297.6179,462.1216 C296.4499,463.4006 297.9039,465.1676 299.4149,464.4506 L299.608732,464.336313 C301.81989,463.106126 311.393304,459.68827 304.6109,460.9826 C384.9159,410.3406 478.2129,382.5216 569.3759,358.1906 C582.6239,354.9876 595.9349,352.0426 609.2979,349.3616 C622.7779,346.0856 637.9889,346.1216 649.8049,338.2466 Z M398.3389,327.8016 C400.3019,319.8016 413.4899,246.2826 391.5859,266.4516 C385.7459,277.0306 383.5039,289.2886 382.4529,301.2006 C379.6279,315.0886 386.7579,330.0556 379.8249,342.8586 C373.6179,359.5806 350.8049,379.1156 349.2809,348.0476 C386.6049,346.7726 375.3999,299.4806 349.9889,314.1016 C336.0749,326.0106 333.6669,348.4356 340.6329,364.8646 C329.3839,352.6206 311.1439,352.5796 298.1239,343.3396 C274.6109,317.9236 314.1039,291.4746 335.6089,282.3206 C336.8199,280.9876 354.4499,274.8436 350.7139,274.1006 C333.8319,274.2566 316.9139,277.8486 302.3449,286.7276 C272.1909,301.4386 261.9279,346.9856 296.4219,362.9476 C303.8809,366.5416 312.0439,368.4736 319.4289,372.1846 C338.0389,381.8306 332.0259,393.9536 312.8139,394.3096 C304.9119,396.0356 278.8349,388.8026 281.7549,402.6516 C286.4719,411.3096 296.7439,412.5996 305.7429,412.8416 C329.7949,414.4906 359.7029,400.9046 346.1099,372.6116 C362.5179,386.5896 383.0069,367.0476 390.0389,351.8606 C398.6079,368.6636 420.1479,363.6036 432.3039,353.6606 C450.8779,368.2876 474.1839,352.0296 482.4579,333.8716 C482.6269,337.6496 482.7959,341.4266 482.9789,345.2046 C483.3529,352.9476 495.3529,355.4336 497.1269,347.1196 C499.8249,334.4796 503.5449,321.9806 508.6619,310.0996 C520.4339,278.8666 527.6319,292.9496 528.0419,317.4246 C529.4919,326.6136 534.0939,334.8476 544.2509,335.4666 C547.0819,335.6396 550.7749,333.1216 551.2169,330.1636 L551.801734,326.250049 C553.038995,318.049392 554.472348,309.604772 557.5689,301.8996 C560.5519,327.4056 593.9559,327.2826 603.2689,306.1336 C622.59172,317.72947 642.866217,301.529704 651.874386,284.775446 L652.1439,284.2676 C655.2919,278.5376 647.2929,271.6076 642.7199,276.9966 L641.132708,278.649467 C632.508522,287.575477 618.78706,300.51798 607.4469,289.4946 C607.8239,284.5236 607.6719,279.4456 607.3659,274.5556 C606.9989,268.7236 598.9489,263.5356 594.3719,268.7506 C587.9209,263.2696 579.9069,264.0586 573.1589,267.8826 C555.6789,272.8216 544.6679,289.8376 540.8759,306.7496 C540.4729,293.2366 536.0519,278.5756 521.2069,277.3046 C505.9979,277.1756 500.1759,294.1786 494.9889,305.6216 C494.6879,300.4966 494.3979,295.3726 494.1369,290.2466 C493.689466,281.42759 481.455794,281.51979 480.454033,289.985821 L480.4269,290.2476 C478.4999,308.5446 468.3649,352.3746 442.7909,343.7976 C453.5749,331.9186 473.0819,295.7206 454.5369,284.4456 C425.9959,277.2626 411.3559,322.2836 423.5279,343.2346 L422.89613,343.677603 C415.942838,348.474288 404.45184,353.81408 400.5699,343.0626 L400.129918,342.07104 C398.13642,337.525356 396.376491,332.601395 398.3389,327.8016 Z M357.5113,322.7274 C362.9153,319.5734 364.8383,330.0194 363.4593,333.5254 C361.2493,339.1494 355.2213,342.2824 349.2133,344.4264 L349.233888,343.790235 C349.49924,337.367566 351.641284,326.159072 357.5113,322.7274 Z M448.4763,296.6525 C448.5983,297.4055 448.3993,298.3245 448.3743,299.0235 C447.4503,311.3365 441.9723,323.1595 434.3533,332.7685 C429.9673,319.7135 435.6203,302.4615 448.4763,296.6525 Z M578.399,281.2535 C581.901,280.3305 585.613,280.5895 589.223,281.5655 C588.961,285.6695 589.852,289.7745 591.639,293.5415 C582.32,321.5275 560.412,299.9845 578.399,281.2535 Z" id="ðŸ–-Ink" fill="#000000"></path>
    </g>
</svg>