<?xml version="1.0" encoding="UTF-8"?>
<svg width="818px" height="733px" viewBox="0 0 818 733" version="1.1" xmlns="http://www.w3.org/2000/svg" xmlns:xlink="http://www.w3.org/1999/xlink">
    <!-- Generator: Sketch 62 (91390) - https://sketch.com -->
    <title>body/mono/Thunder T-Shirt</title>
    <desc>Created with Sketch.</desc>
    <g id="body/mono/Thunder-T-Shirt" stroke="none" stroke-width="1" fill="none" fill-rule="evenodd">
        <path d="M409.474891,-52.0033044 C422.913891,-55.7233044 438.362891,-55.2903044 452.150891,-54.3393044 C466.152891,-53.3723044 481.177891,-51.7143044 494.316891,-46.4863044 C505.738891,-41.9413044 515.370891,-34.2983044 521.239891,-23.3463044 C526.064891,-14.3433044 528.327891,-4.46930436 529.745891,5.55969564 C530.325891,9.66398136 530.811503,13.7779609 531.273427,17.8958035 L532.222719,26.4628363 C532.594766,29.7388831 532.919141,32.1949456 533.570891,35.8496956 C535.373891,45.9586956 537.884891,54.4046956 543.490891,61.7596956 C557.066891,79.5656956 579.234891,85.5256956 599.393891,93.1256956 C612.293891,97.9886956 622.508891,106.736696 625.342891,120.793696 C628.077271,134.354716 732.040299,248.12606 742.246511,257.717156 L742.526891,257.975696 C750.443891,265.103696 749.511891,278.502696 750.619891,288.285696 C751.806891,298.774696 752.936891,309.271696 754.009891,319.771696 C756.187891,341.104696 758.128891,362.460696 759.831891,383.834696 C766.490261,467.428455 769.511189,551.313133 768.869145,635.168215 L768.828891,639.914696 C768.729891,650.556696 768.808891,661.245696 768.331891,671.877696 C767.872891,682.095696 764.780891,692.322696 755.312891,697.659696 C746.541322,702.604794 735.449492,702.169269 725.646495,702.662912 L725.059891,702.693696 C714.540891,703.269696 704.017891,703.741696 693.489891,704.131696 C650.703891,705.714696 607.878891,705.885696 565.067891,705.688696 C480.137891,705.297696 395.122891,703.430696 310.272891,708.185696 C288.643891,709.397696 219.689891,702.032696 198.128891,704.131696 C177.520891,706.136696 195.202891,716.243696 182.471891,715.577696 C140.603717,713.387435 100.889891,704.045696 60.775891,692.792696 C55.764891,691.387696 51.932891,686.524696 51.9951079,681.267696 C52.740891,623.529696 54.370891,565.806696 56.917891,508.120696 C59.186891,456.734696 62.176891,405.380696 65.885891,354.078696 C67.498516,331.779321 69.2466567,309.489133 71.1303129,287.210813 L71.945891,277.663696 C73.009891,265.351696 73.621891,252.813696 76.042891,240.672696 C78.437891,228.664696 83.870891,218.251696 91.748891,208.947696 C98.817891,200.600696 178.852891,135.256696 198.128891,122.885696 C216.578891,111.043696 235.952891,101.053696 254.893891,90.0786956 C262.773891,85.5126956 270.341913,87.1558 277.073913,81.5508 C280.623063,78.59664 332.119664,58.6886079 346.013465,52.1196411 L346.422891,51.9246956 C357.056891,46.8226956 366.842891,41.2906956 374.190891,32.4686956 C376.653891,29.5116956 381.484891,10.8806956 381.493891,4.92769564 C381.510891,-5.70630436 380.704891,-16.9083044 383.912891,-27.2093044 C387.748891,-39.5273044 396.994891,-48.5493044 409.474891,-52.0033044 Z M432.258343,222.188643 L349.970905,382.439196 L403.478666,382.439196 L365.124061,471.476423 L449.353244,471.476423 L419.474449,596.190641 L590.342439,382.439196 L526.223695,382.439196 L590.342439,298.280337 L545.870995,298.280337 L590.342439,227.008699 L432.258343,222.188643 Z" id="ðŸŽ¨-Background" fill="#FFFFFF"></path>
        <path d="M708.6788,312.3008 C708.4888,312.4898 708.2888,312.6808 708.0988,312.8808 C708.3188,312.5708 708.5088,312.2498 708.6788,311.9308 L708.6788,312.3008 Z M548.7588,265.6198 C541.3688,275.0608 533.5488,294.2708 526.3688,303.8808 C525.3388,305.2598 524.3288,306.6408 523.3288,308.0298 C520.3488,312.1998 524.3288,318.5798 529.2288,318.3108 C539.0188,317.7898 548.7988,317.0608 558.5788,316.3208 C538.4888,338.7098 521.8088,366.5208 503.3588,390.2398 C502.1088,391.8298 500.8788,393.4308 499.6488,395.0298 C494.9788,401.1198 499.6588,403.8808 506.0388,402.2398 C507.3588,401.9008 508.6788,401.5608 509.9988,401.2308 C519.2788,398.8508 528.5488,396.4708 537.8288,394.1008 C542.9588,392.7798 548.1188,391.1508 553.3188,390.1408 C555.4588,389.7308 557.5088,390.0708 559.5288,390.1808 C558.5588,391.6598 557.1988,394.3298 556.9288,394.7398 C553.8988,399.4598 550.8488,404.1598 547.7788,408.8398 C541.7988,417.9408 535.7888,427.0298 529.5588,435.9598 C505.2588,470.7798 479.0488,504.0208 453.0688,537.5708 C446.5288,546.0098 439.8988,554.3608 433.1588,562.6308 C433.1888,562.5798 433.2088,562.5298 433.2388,562.4808 C439.3088,550.6598 445.3788,538.8508 451.4488,527.0298 C462.9888,504.5708 474.4188,482.0508 486.0788,459.6508 C486.6788,458.4808 487.2888,457.3208 487.8988,456.1508 C490.3188,451.5098 486.3488,446.6908 481.3788,447.6698 C457.1328,452.4468 433.1218,458.3168 409.4088,465.2678 C408.3418,466.4048 406.7728,466.7378 405.3718,466.4628 C404.4188,466.7478 403.4618,467.0218 402.5088,467.3108 C402.7978,466.7118 403.0968,466.1188 403.3878,465.5218 C402.4188,464.6798 401.9368,463.3768 402.5668,461.7498 C416.2118,426.5418 434.9198,392.5528 457.0858,361.4248 C456.1938,361.4418 455.3038,361.4548 454.4088,361.4808 C430.0788,362.1408 406.2088,365.6308 382.7588,372.2598 C382.6488,370.0898 383.9588,366.7308 384.6688,365.1308 C387.5088,358.7398 390.7688,352.4998 393.8188,346.2098 C400.0588,333.2898 406.2988,320.3808 412.5388,307.4598 C418.6388,294.8398 424.6888,282.1808 430.4288,269.3808 C433.4388,262.6698 436.4488,255.9498 439.4488,249.2308 C441.8988,243.7598 443.8288,238.2498 445.8588,232.6508 C451.8188,234.4008 528.3488,234.7798 546.9488,236.0708 C551.5088,236.3908 556.0788,236.6808 560.6488,236.9308 C564.2888,237.1408 569.4188,237.9408 571.9288,234.6508 L572.8788,235.4498 C564.6188,245.3298 556.6988,255.4808 548.7588,265.6198 L548.7588,265.6198 Z M249.9688,82.0608 C250.3488,81.8908 250.7188,81.7208 251.0888,81.5508 C251.2788,81.8208 251.5088,82.0708 251.7488,82.3208 C252.3488,82.9308 252.9388,83.5898 253.5588,84.1908 C252.3588,83.4898 251.1588,82.7798 249.9688,82.0608 L249.9688,82.0608 Z M784.8088,644.0508 C784.1188,629.4808 783.3488,614.9098 782.5288,600.3398 C780.9088,571.8608 779.2388,543.3808 777.0088,514.9408 C772.4788,457.3108 768.2588,399.6998 761.4688,342.2798 C758.6188,318.2098 754.6388,294.3208 750.6488,270.4198 C751.1588,269.9598 751.6788,269.4998 752.1888,269.0508 C751.6388,275.5898 760.5188,279.7308 764.9188,273.2098 C765.2488,272.7208 765.5688,272.2308 765.8888,271.7208 C769.6988,265.5608 778.4788,235.3398 777.8688,232.7798 C776.7688,228.1698 773.7088,224.0708 771.3188,220.0108 C769.2288,216.4598 767.1188,212.9098 764.9788,209.3908 C760.7088,202.3398 756.3088,195.3608 751.6988,188.5298 C742.1488,174.3908 731.7088,160.8108 719.4088,148.9408 C706.6788,136.6408 692.0688,126.5298 676.9788,117.3608 C669.7288,112.9598 662.2488,108.9708 654.6288,105.2498 C647.1088,101.5898 638.8788,97.5398 630.7788,95.4598 C630.3188,95.3398 629.8488,95.9808 630.2688,96.3208 C632.4188,98.0208 634.6688,99.6198 636.9588,101.1598 C630.7588,99.0108 624.3688,97.4598 617.9288,96.9098 C605.4588,92.5298 592.8388,88.5208 580.4288,83.9498 C568.2288,79.4498 556.2088,74.3908 548.0988,63.7308 C541.1688,54.6198 536.7888,43.4708 533.4188,32.6108 C529.7188,20.6408 528.2488,8.1998 524.8288,-3.7902 C524.5588,-4.7602 522.9688,-4.8702 522.7588,-3.7902 C520.3188,8.7898 520.4288,22.9308 521.8188,35.6298 C523.2788,48.9498 527.0288,62.0208 535.1888,72.8508 C544.6688,85.4408 557.5288,92.4498 571.9988,98.0398 C583.6688,102.5608 595.4888,107.1598 607.4388,111.1998 C605.8788,112.2208 604.2988,113.2398 602.6688,114.2098 C596.1888,118.0608 589.4488,121.4808 582.5588,124.5508 C569.9788,130.1598 556.7288,134.3608 543.3988,137.7708 C518.5888,144.0898 493.1488,147.3008 467.5688,147.7208 C416.3888,148.5708 364.6388,137.8508 317.8288,117.1508 C304.6488,111.3208 291.7788,104.9098 279.0388,98.1808 C275.0588,96.0798 271.0588,93.9598 267.0788,91.7798 C267.4088,91.7608 267.7488,91.7308 268.0788,91.6998 C276.9688,90.8608 285.7488,89.1508 294.3488,86.7308 C311.9588,81.7608 328.8388,74.0108 345.4188,66.3798 C359.4788,59.9098 373.9588,52.5398 382.5488,39.0608 C387.1388,31.8508 389.2488,23.3908 390.9588,15.1108 C392.8688,5.8908 395.1188,-3.3702 396.5088,-12.6792 C396.9988,-15.9392 396.2688,-20.3492 392.7688,-21.8892 C391.3688,-22.5002 390.2188,-23.0002 388.6488,-23.0002 C385.1788,-23.0002 381.6188,-20.4792 380.7888,-17.0192 C378.7388,-8.3892 377.4988,0.4808 375.8888,9.1998 C374.4988,16.7398 373.2288,24.6108 369.1588,31.2398 C362.0488,42.8508 348.1088,48.7898 336.3288,54.4408 C321.3988,61.6008 306.4588,68.5798 290.9488,74.3908 C284.1188,76.9498 277.1688,79.2708 270.1188,81.1698 C270.3988,79.4408 270.1588,77.6198 269.1388,76.2498 C267.4388,73.9898 265.5088,72.4898 263.3188,70.7608 C260.9388,68.8798 257.7388,67.9008 254.9288,68.7308 C254.9288,68.7398 254.9188,68.7308 254.9188,68.7308 C253.7788,68.4808 252.5188,68.5798 251.2188,69.1698 C247.1988,71.0108 243.1888,72.8698 239.1788,74.7608 C181.4888,101.9008 125.4388,133.7798 82.9888,182.3298 C76.8688,189.3298 71.1388,196.6908 65.7688,204.2798 C60.5488,211.6508 54.0888,219.6508 52.6488,228.7898 C52.5288,229.5508 53.6388,229.9008 53.8288,229.1198 C54.1688,227.7098 54.6288,226.3298 55.1988,224.9898 C54.0088,229.1508 54.0788,233.5708 55.7588,237.9198 C57.7488,243.0398 61.3988,246.4308 66.0088,247.7798 C61.3788,268.0708 58.2688,288.6308 55.7688,309.4198 C52.1788,339.3698 49.6288,369.3908 47.7088,399.4898 C43.8688,459.5608 42.1588,519.9308 43.3988,580.1108 C43.7488,597.1198 44.3288,614.1308 45.2088,631.1308 C45.6488,639.6308 46.1288,648.1198 46.6788,656.6198 C47.2188,664.9808 46.7788,674.1908 54.0688,678.6008 C54.1588,678.9308 54.2588,679.2498 54.3488,679.5798 C56.1188,685.7498 64.0088,683.7708 64.7488,678.1698 C64.7588,678.1108 64.7688,678.0398 64.7788,677.9808 C70.7388,673.4308 69.8388,665.8508 69.3988,658.5798 C68.9288,650.7308 68.4288,642.8908 68.0088,635.0508 C67.2088,620.0098 66.5288,604.9708 65.9188,589.9198 C64.7288,560.1598 64.0588,530.3608 63.8388,500.5798 C63.3988,441.0098 66.8388,381.5298 70.9188,322.1308 C72.6288,297.2798 74.6288,272.5398 75.2388,247.6998 C78.4288,246.0398 79.4088,241.3208 77.8088,238.1408 C115.5888,263.9198 150.6488,294.7398 178.7988,330.5608 C183.4988,336.5398 187.9888,342.6998 192.2888,348.9708 C193.6888,351.0098 195.0188,353.1308 196.3588,355.2498 C195.0588,361.1598 194.0488,367.1698 192.7288,372.8398 C190.0088,384.5508 188.8588,396.6998 187.2988,408.6008 C184.1288,432.7708 181.8988,457.1598 180.0088,481.4598 C176.2888,529.4498 173.5288,577.4308 172.6588,625.5608 C172.1788,652.7798 171.5388,680.1698 172.7388,707.3808 C171.8488,712.6998 176.6388,717.9008 181.6488,718.5708 C186.0388,719.1598 190.1388,716.8808 192.0588,713.2098 C205.7388,714.9098 219.7788,715.6908 233.3688,715.7898 C251.6788,715.9198 269.9888,715.9008 288.2988,715.5098 C324.9288,714.7098 361.5488,713.7708 398.1688,712.6808 C471.4088,710.5208 544.6488,708.3508 617.8988,706.1808 C638.2088,705.5798 658.5188,704.9808 678.8288,704.3808 C687.9888,704.1108 699.4088,706.7498 706.6288,699.6808 C707.8688,698.4598 708.8288,697.0298 709.5088,695.4998 C711.6688,696.0398 714.3188,695.5098 715.7388,693.8398 C718.3888,690.7098 720.3388,687.8108 720.2388,683.4708 C720.1488,679.4098 719.0288,675.1308 718.4488,671.1108 C717.3488,663.5608 716.2888,656.0098 715.2788,648.4498 C713.2888,633.5098 711.4288,618.5508 709.7188,603.5798 C706.2188,572.9708 703.0388,542.2898 700.5588,511.5798 C695.6388,450.8508 694.2488,389.8008 694.4188,328.8808 C694.4388,323.4308 694.4688,317.9808 694.4988,312.5298 C694.7288,312.8208 694.9788,313.0898 695.2488,313.3208 C695.4688,313.5098 695.6888,313.6998 695.9088,313.9008 C698.4688,316.1508 702.7288,317.3108 705.7988,315.1808 C709.5688,312.7398 712.1688,309.0798 715.1088,305.7708 C718.1988,302.3008 721.3788,298.9198 724.5888,295.5608 C730.8088,289.0608 737.2388,282.8298 743.7988,276.6698 C744.3288,276.1808 744.8588,275.6808 745.3888,275.1998 C745.4288,294.5898 745.4088,313.9708 745.9288,333.3508 C746.7088,362.1408 748.2688,390.9008 749.6988,419.6508 C752.5388,476.5798 755.4788,533.4898 758.3088,590.4098 C759.0988,606.3008 759.8488,622.1998 760.6388,638.0898 C761.0388,646.0398 761.4288,653.9898 761.8088,661.9408 C762.0088,666.2398 762.2088,670.5508 762.4088,674.8508 C762.6288,679.4708 762.3388,684.4098 763.8988,688.8008 C767.4488,698.8398 782.7888,700.2598 785.7388,688.8008 C787.5888,681.6108 786.1688,673.2898 785.8388,665.9098 C785.4988,658.6308 785.1588,651.3398 784.8088,644.0508 L784.8088,644.0508 Z" id="ðŸ–-Ink" fill="#000000"></path>
    </g>
</svg>