<?xml version="1.0" encoding="UTF-8"?>
<svg width="818px" height="733px" viewBox="0 0 818 733" version="1.1" xmlns="http://www.w3.org/2000/svg" xmlns:xlink="http://www.w3.org/1999/xlink">
    <!-- Generator: Sketch 62 (91390) - https://sketch.com -->
    <title>body/mono/Turtleneck</title>
    <desc>Created with Sketch.</desc>
    <g id="body/mono/Turtleneck" stroke="none" stroke-width="1" fill="none" fill-rule="evenodd">
        <path d="M254.81296,86.70371 C304.597982,75.7385091 334.126076,75.7385091 350.833925,58.75139 C367.541774,41.764271 370.573678,12.6057334 377.505037,-9.90825798 C381.32415,-22.3132511 418.739976,-33.5811621 455.035221,-31.8170214 C484.612711,-30.379399 514.421347,-17.8902772 516.72377,-9.90825798 C521.851552,7.86868764 530.097858,83.9655462 557.215503,95.6567654 C584.333149,107.347985 642.22619,96.689443 658.77858,124.609121 C675.330971,152.528799 729.689609,266.341414 729.689609,292.860811 C729.689609,310.54041 552.54092,316.677287 198.243541,311.271444 C202.766472,168.869755 221.622945,94.013844 254.81296,86.70371 Z" id="ðŸŽ¨-Background" fill="#FFFFFF"></path>
        <path d="M37.7856,704.4398 C38.5456,704.9798 37.9456,704.9898 37.7856,704.4398 M34.8356,702.2398 C34.8856,702.2798 34.9456,702.3198 35.0056,702.3598 C34.4056,702.3098 34.0356,701.6998 34.8356,702.2398 M821.3356,631.9298 C817.9956,617.6598 814.6656,603.3798 811.3256,589.1098 C804.3556,559.2698 797.3756,529.4198 790.4056,499.5698 C776.7556,441.1898 763.1156,382.8098 749.4656,324.4298 C742.5356,294.7598 734.6156,265.3198 727.4656,235.6998 C721.2056,209.7398 716.0356,183.1598 705.2856,158.5898 C694.3156,133.5098 675.0456,112.5498 649.5256,101.9198 C628.0356,92.9798 603.8656,88.0298 580.4656,86.8998 C583.4056,83.2998 584.0956,77.9698 579.8056,73.6198 C574.4856,68.2298 573.4056,60.2198 571.9856,53.0898 C570.2156,44.1798 567.4656,34.6298 562.1656,27.1298 C559.9256,23.9598 556.6656,22.4798 552.8256,23.3298 C550.4656,23.8498 548.1446,24.4598 545.8556,25.1498 C545.1156,24.4098 544.3856,23.6198 543.7456,22.6598 C542.2956,20.4398 541.3556,17.1898 539.2756,15.4898 C537.8656,14.3298 536.2646,14.0498 534.6156,14.8898 C530.1846,17.1398 529.8156,23.9498 530.7646,28.1298 C530.9556,28.9398 531.1846,29.7498 531.4656,30.5398 C531.1656,30.6798 530.8556,30.8198 530.5456,30.9598 L530.5356,30.9598 C524.7556,29.8598 517.3756,32.1798 511.7356,32.7398 C505.1846,33.3898 498.6056,33.8198 492.0256,34.0298 C478.5556,34.4598 465.0656,34.0598 451.6556,32.7098 C438.5856,31.4098 425.6056,29.3198 412.6956,26.9598 C404.6556,25.4898 394.8556,24.2698 387.7956,19.4398 C387.6846,17.0298 387.6256,14.6098 387.5756,12.1998 C387.4746,8.0098 387.6956,4.7198 385.4656,1.0398 C385.4346,0.9998 385.3856,0.9898 385.3356,1.0098 C382.5756,2.4498 380.5956,4.9098 379.1446,7.8298 C376.4956,7.1198 373.6446,7.2198 371.1756,8.2498 C367.6846,9.6998 365.0856,11.3698 362.3756,14.0498 C358.3456,18.0198 357.1656,22.6598 355.9856,27.9898 C355.1356,31.8098 354.6056,34.5398 353.0856,37.0998 C352.7556,37.6498 352.4056,38.2298 352.0256,38.7598 C351.8856,38.8998 351.6256,39.1698 351.1846,39.6298 C350.7456,40.0698 350.3056,40.4998 349.8556,40.9298 C349.5956,41.1898 348.3156,42.2298 348.5146,42.0898 C342.9746,46.2098 337.9656,47.7598 331.1256,49.7298 C316.4056,53.9698 301.3256,56.7398 286.6556,61.2398 C270.6256,66.1598 254.9456,72.1398 239.6156,78.9298 C179.9856,105.3398 126.6156,147.1498 90.2256,201.5998 C47.8456,265.0198 32.2456,342.0498 24.5156,416.7298 C16.0556,498.5798 16.6456,581.3598 14.7956,663.5498 C14.5656,673.8298 14.3356,684.1098 14.1056,694.3898 C13.8756,704.4398 13.2556,715.2598 22.1756,722.0298 C30.1256,728.0498 39.8056,726.1598 48.6056,723.4498 C58.0256,720.5598 67.6156,718.2598 77.3256,716.6098 C95.6456,713.5198 114.5456,713.1498 133.0256,714.9498 C142.9556,715.9198 155.1056,719.5998 163.2656,711.8198 C166.1956,709.0198 167.8856,705.4698 169.2656,701.7398 C170.9856,697.1398 172.9956,692.6298 174.9956,688.1098 C176.6456,684.3898 178.2856,680.6498 179.9256,676.9198 C182.5856,688.5698 185.2456,700.2198 187.9056,711.8798 C188.9556,716.4698 193.7456,716.8198 196.6356,714.5898 C201.3556,717.1198 207.5556,717.0698 212.9156,717.6898 C221.5356,718.6798 230.2246,719.0198 238.8856,719.3198 C255.8556,719.8998 272.8256,720.2198 289.8056,720.4398 C324.4256,720.8798 359.0456,720.7198 393.6556,720.5698 C462.2246,720.2698 530.7856,718.8698 599.3256,717.0898 C618.6256,716.5898 637.9256,716.1398 657.2246,715.6698 C666.8656,715.4398 676.5146,715.2098 686.1656,714.9398 C689.0556,714.8598 691.9746,714.5898 694.7156,713.9498 L694.7246,713.9498 C695.9456,715.0198 697.4456,715.8398 699.2356,716.3298 C705.6446,718.0898 712.0146,714.1698 713.9346,707.9798 C714.8256,705.1398 715.4456,702.5398 715.2246,699.7798 C715.5556,697.6998 715.8856,695.6198 716.2156,693.5398 C726.9156,700.3098 739.7556,702.1498 752.4256,701.3098 C766.7556,700.3598 781.0856,697.7398 795.3056,695.7898 C808.6556,693.9598 830.2956,694.5498 830.9356,676.1098 C831.1656,669.3598 828.3146,661.7898 826.7956,655.2898 C824.9746,647.4998 823.1556,639.7198 821.3356,631.9298" id="ðŸ–-Ink" fill="#000000"></path>
    </g>
</svg>