<?xml version="1.0" encoding="UTF-8"?>
<svg width="818px" height="733px" viewBox="0 0 818 733" version="1.1" xmlns="http://www.w3.org/2000/svg" xmlns:xlink="http://www.w3.org/1999/xlink">
    <!-- Generator: Sketch 62 (91390) - https://sketch.com -->
    <title>body/mono/Whatever</title>
    <desc>Created with Sketch.</desc>
    <g id="body/mono/Whatever" stroke="none" stroke-width="1" fill="none" fill-rule="evenodd">
        <path d="M1016.9918,283.356194 C1027.2348,278.009642 1037.2358,272.200437 1047.0788,266.153897 C1054.0118,262.00704 1047.8738,251.561286 1040.7648,255.335617 C1037.1298,257.266344 1033.5088,259.216098 1029.8748,261.134808 C1032.7348,258.671328 1035.3858,255.989541 1037.7628,253.066412 L1037.5988,252.903181 C1046.7628,244.692584 1034.9918,229.200703 1024.5698,235.945229 C1015.3788,242.60764 1006.1038,249.405241 995.5538,253.792437 C973.7018,263.058525 949.5988,264.591691 926.1448,264.859068 C917.5618,264.214157 909.3638,265.701258 901.0358,267.358599 C904.3008,254.260098 912.4718,244.369128 916.8058,231.68321 C920.0038,218.875119 901.5158,210.150797 894.9638,222.462186 C893.3558,225.485456 891.8228,228.543775 890.3238,231.617116 C876.1618,244.49831 852.5138,243.363707 838.2308,257.194242 C830.095345,264.414979 826.113498,274.21271 824.541103,284.045909 C823.473337,290.723341 825.133248,297.417129 821.0958,303.331408 C801.5768,330.939402 770.735065,374.577037 755.072065,404.959951 C743.982065,332.761976 714.3708,243.461846 683.7798,177.445603 C673.6638,156.332782 662.0908,135.702644 646.8988,117.806367 C648.6208,111.837937 642.5428,101.243973 638.6778,104.50558 C626.7808,89.9720526 605.7508,86.2097386 588.8408,78.9845335 C566.0138,69.2237471 547.0748,48.9350908 537.7648,25.8755208 C525.8028,-18.0365018 496.3558,-23.6143802 455.5168,-21.673639 C416.4328,-21.7227083 387.5158,-5.00609731 378.9878,34.7800979 C361.6628,64.9777499 320.7568,59.9836962 291.3278,67.9779876 C269.7598,72.9049465 248.8288,80.5227061 228.9368,90.1933652 C206.8078,69.2027174 127.5528,157.297145 120.3488,179.969167 C124.5898,180.791328 128.8048,181.780726 132.9818,182.986429 C136.7018,184.061948 135.1398,189.680884 131.3878,188.781614 C126.7188,187.66003 122.0198,186.887939 117.2988,186.352183 C117.1548,186.803821 117.0288,187.252454 116.9348,187.696081 C116.4048,187.66003 115.8758,187.614966 115.3458,187.578915 C116.5208,188.19078 117.6518,188.900782 118.7538,189.816075 C121.4178,192.0282 117.9498,196.297229 115.1188,194.53474 C112.4518,192.538921 108.9588,192.854367 105.7598,192.18442 C105.5698,198.762712 82.0968,191.403317 78.4508,189.223238 C62.2458,187.196375 45.5748,189.371447 30.4468,181.556409 C10.3178,177.317422 -9.9622,172.629801 -29.8652,167.231176 C-35.1342,169.285077 -40.0862,176.635459 -35.9012,182.029077 C-33.5472,184.483543 -36.5732,188.491204 -39.5372,186.74674 C-49.4782,180.895476 -57.1662,171.761575 -63.6842,161.921676 C-66.7522,158.826304 -72.1982,159.492245 -76.3202,158.20743 C-76.8712,159.197829 -77.1962,160.301388 -77.1912,161.432986 C-94.6762,164.311051 -82.2032,183.408024 -73.4132,189.358429 C-78.0762,192.394717 -78.2532,198.340115 -77.8452,203.305128 C-78.8332,205.073625 -79.1632,207.265722 -78.3032,209.247521 C-75.0152,216.824222 -67.9042,223.205235 -62.4972,229.343906 C-56.5272,236.123481 -51.2042,242.940109 -43.9402,248.435872 C-16.2522,269.541682 17.1608,281.341348 51.4388,285.955866 C63.6098,287.825507 81.1168,290.686548 88.6528,300.978084 C86.8038,313.192336 83.4088,324.90588 80.3288,336.816703 C76.0218,352.626033 76.3148,369.17741 76.2578,385.295176 C75.6558,384.811493 74.4998,384.911634 74.3278,385.832935 C73.3258,392.514372 72.5808,399.346021 68.5198,404.959951 C64.9598,415.399696 62.5908,426.534423 61.2598,437.501914 C55.9278,489.497354 54.6548,543.025959 66.6768,594.211255 C71.3158,613.200075 78.8608,631.246565 89.1408,647.864036 C92.2058,652.820036 97.1338,654.272087 101.5588,653.298712 C116.3688,660.992579 135.0258,663.459063 150.9888,661.504302 C205.4098,646.098542 186.4478,683.195939 262.7508,671.835894 C394.4578,655.058197 527.5618,688.028765 658.9888,668.671425 C662.2258,693.673739 704.5998,686.501608 719.3188,675.931679 C763.4528,643.122338 785.3668,539.246621 807.5158,486.551193 C822.7408,445.017529 848.2348,371.453625 881.6218,343.583261 C891.6328,335.753201 903.7338,331.631379 915.8418,328.303679 C961.0298,316.659232 1006.3918,305.647679 1051.6658,294.326689 C1059.3438,292.436019 1057.9638,279.341524 1049.7538,280.18171 C1038.8578,281.296285 1027.9248,282.30571 1016.9918,283.356194 Z" id="ðŸŽ¨-Background" fill="#FFFFFF"></path>
        <path d="M11.0448,275.5678 C7.9848,275.1883 4.9848,274.0983 2.0048,273.2383 C-2.5452,271.9083 -7.0052,270.3583 -11.3952,268.5883 C-20.4552,264.9593 -29.2452,260.6683 -37.4852,255.4183 C-50.7952,246.9283 -62.5552,236.0483 -71.4252,222.9483 L-72.0341613,222.034676 C-77.098,214.321468 -86.4388,197.1943 -75.9652,191.3383 C-82.7155,185.698 -89.0955,175.568 -88.7355,167.748 C-88.2255,156.688 -74.6655,156.839 -67.6555,161.528 C-63.0655,164.598 -59.6255,168.898 -56.1755,173.129 C-52.3555,177.828 -48.2755,182.308 -44.0355,186.618 C-42.9105,187.758 -41.77425,188.8755 -40.6183125,189.974719 L-39.4556,191.0679 C-39.6355,190.6384 -39.7955,190.1984 -39.9355,189.7474 C-42.2755,182.4584 -39.4855,172.9684 -32.1955,169.6284 C-27.7342805,167.583278 -23.1011454,168.831696 -18.7780763,170.567833 L-18.1155,170.8384 C-12.2955,173.2474 -6.4055,175.3784 -0.3455,177.0884 C24.3545,184.0584 50.1345,185.2184 75.4445,188.6984 C85.1945,190.0484 95.1245,191.7474 104.8245,194.2474 C108.5243,178.5377 117.5943,163.4787 127.4343,151.0887 C174.5543,91.8177 252.2643,72.2287 323.3543,59.5487 C329.8343,58.3987 335.2047,66.9783 338.9747,64.9483 C346.1247,61.1083 352.4147,55.6683 357.9347,49.7583 C369.7047,37.1483 378.0547,22.3183 387.8647,8.2683 C392.7147,1.3283 403.8747,7.5383 399.3747,14.9883 L397.170213,18.6292154 C388.093426,33.5429529 378.042058,48.9124509 365.0247,60.4783 C358.1047,66.6183 350.4247,71.4683 341.6447,74.4973 C334.9947,76.7883 325.6647,78.7183 318.3847,76.4973 L317.510996,75.2246704 C317.800056,75.6502222 318.091167,76.0746667 318.3845,76.498 C337.3843,104.0279 361.2243,127.3279 386.3443,149.3179 C411.699976,171.501684 439.053139,191.367057 466.570818,210.790281 L468.8643,212.4079 C513.693993,179.709124 551.563781,137.058484 578.133754,88.3289013 C572.5647,87.6581 567.0547,84.0891 562.2947,81.4281 C556.5647,78.2091 551.1747,74.3681 546.9747,69.2481 C537.8247,58.0981 539.0147,43.7281 537.3647,30.1981 C537.2647,29.3581 538.3747,29.1481 538.8847,29.5681 C543.8447,33.6881 545.5847,40.4381 547.6547,46.2681 C549.9347,52.6781 552.5147,57.9591 557.7447,62.4681 C562.6147,66.6691 568.5547,69.7581 574.3247,72.5081 C577.300341,73.91913 592.071791,77.5453391 593.7544,80.5486 C619.2747,74.5584 644.1347,84.9084 663.0447,102.3684 C681.3147,119.2384 694.7247,141.1684 706.5647,162.8184 C719.1947,185.9184 729.5447,209.9974 738.4647,234.7474 C747.5047,259.8684 754.4347,285.5384 758.2447,311.9784 C761.4607,334.2696 763.43254,356.911008 764.708756,379.451409 L764.8647,382.2684 C783.7444,352.6382 803.0944,323.3182 822.8444,294.2582 C818.3544,282.2682 823.3244,270.0282 831.7344,260.7682 C841.0544,250.5182 853.9444,245.7582 866.2744,240.2182 L867.895071,239.485098 C873.837872,236.774311 879.761067,233.789033 884.8944,229.7282 C889.8344,225.8082 893.4644,220.4082 898.6644,216.7982 C906.2244,211.5382 919.9444,212.6582 920.2944,224.1482 C920.4744,230.4592 917.7644,237.3782 915.2844,243.0482 C912.4744,249.4592 908.6844,255.2682 904.1844,260.6082 C903.9764,260.857 903.7492,261.05332 903.51816,261.208936 L903.3445,261.3182 C909.5645,262.3482 915.8345,263.1782 922.2245,263.4682 C935.1145,264.0582 948.1445,263.1082 960.7645,260.3882 C973.6845,257.6082 986.2045,253.0892 997.8245,246.7882 C1007.7545,241.4082 1016.9545,234.4482 1028.2345,232.8082 C1029.2744,232.6484 1030.3244,232.5484 1031.4044,232.4884 C1033.2044,232.3884 1035.0044,234.5084 1034.2944,236.2874 C1033.9044,237.2684 1033.4944,238.2384 1033.0444,239.2184 C1029.1445,247.807875 1023.16263,256.140932 1015.70135,262.46558 L1015.1245,262.9481 C1017.7547,262.0383 1020.3447,261.0183 1022.8947,259.8683 C1037.8847,253.1183 1051.4847,242.9183 1067.5547,238.8183 C1068.3147,238.6182 1069.0847,238.4382 1069.8547,238.2682 C1074.8247,237.1982 1077.4447,242.5982 1074.5247,246.2982 C1074.0547,246.8982 1073.5847,247.4882 1073.0947,248.0782 C1065.9247,256.9779 1058.0147,265.2379 1049.2947,272.6579 C1046.3047,275.1979 1043.2247,277.6579 1040.0847,280.0089 C1038.76147,281.005021 1037.43085,281.979592 1036.08651,282.938359 L1035.4244,283.4079 C1036.9944,282.2989 1038.5444,281.1689 1040.0844,280.0089 C1049.9244,277.0279 1059.6244,273.4979 1069.1144,269.5889 C1072.8844,268.0379 1075.8144,271.8579 1076.2144,274.9979 C1077.5544,285.5189 1065.8744,293.1289 1058.2744,298.1879 C1050.6544,303.2689 1042.2644,307.1289 1033.6744,310.2279 C1017.15835,316.196714 999.811474,318.907182 982.49176,321.336185 L974.07962,322.507853 C940.782813,327.163758 906.0055,332.7302 882.1144,358.6389 C868.7244,373.1579 859.6644,391.1979 851.3744,408.9479 C843.0944,426.6789 835.8244,444.8789 828.9244,463.1789 C821.7744,482.1179 815.5444,501.4079 808.9244,520.5379 C802.8444,538.1034 795.582125,555.444177 788.389343,572.609103 L787.2544,575.3179 C771.9844,611.7989 753.7444,646.1579 728.3244,676.6179 C724.1344,681.6479 717.3644,674.5089 721.2344,669.5279 C747.8244,635.2479 766.3244,594.7989 781.5944,554.4479 C788.5444,536.0889 794.3644,517.2879 801.0444,498.8279 L805.01928,487.861588 C810.3268,473.2429 815.6804,458.6429 821.2644,444.1389 C828.3344,425.7879 836.1044,407.6579 844.9944,390.1179 L845.937519,388.271153 C854.641301,371.349931 864.981944,354.673251 879.2144,341.8679 C904.8316,318.80948 938.919528,313.2774 971.878026,308.895859 L982.24653,307.529497 C996.180789,305.678317 1010.1544,303.633733 1023.7044,299.9079 C1031.5244,297.7689 1039.1644,295.0279 1046.3444,291.2479 C1049.2044,289.7479 1051.9944,288.0989 1054.6944,286.2989 C1046.9944,288.5589 1039.1844,290.4079 1031.2344,291.8579 C1027.3444,292.5679 1023.4944,293.0989 1019.6544,293.4689 C1009.7648,294.4476 999.9548,294.4076 989.8248,293.8786 C988.9648,293.8276 988.6848,292.4786 989.6048,292.3086 C996.659345,291.054055 1003.72216,289.48546 1010.75566,287.78313 L1012.8647,287.2679 C1012.9047,286.0989 1013.3647,284.8579 1014.3247,283.6789 C1017.8247,279.4189 1024.4747,277.2379 1029.0847,274.2279 C1033.9147,271.0779 1038.5947,267.6789 1043.0547,264.0379 C1047.1347,260.7089 1051.0547,257.1879 1054.8247,253.5089 L1055.9549,252.398225 C1055.57977,252.769828 1055.20303,253.139967 1054.8247,253.5083 C1044.6447,258.2093 1034.9947,264.2383 1024.3647,267.9593 C1015.9147,270.9283 1007.0547,272.9283 998.1147,273.6383 L997.5597,273.68205 L997.0047,273.7183 C987.6746,274.3884 978.2846,274.1184 969.0946,276.1384 C968.0646,276.3684 967.7446,274.9884 968.6646,274.5984 C976.6946,271.2584 985.0446,269.9684 993.4846,268.4084 C993.6645,267.7481 994.1245,267.1581 994.9245,266.7781 L997.08391,265.74714 C1003.5145,262.6587 1009.5085,259.5411 1014.8545,254.5281 C1019.5745,250.0981 1023.5045,244.9191 1026.4545,239.1781 C1014.6445,241.7682 1004.2745,250.7182 993.5345,255.7482 C981.8345,261.2382 969.4545,265.1782 956.7345,267.4192 L955.285279,267.66748 C931.514736,271.632503 902.9299,271.12698 881.6345,258.7682 C880.9545,258.3682 881.4445,257.4592 882.1445,257.5682 C888.1845,258.5582 894.1645,259.7282 900.1445,260.7682 C898.9744,259.6982 898.4544,257.7782 899.8044,256.2382 C905.175368,250.083361 909.422506,243.04819 912.137974,235.3502 L912.65733,233.844847 C913.907956,230.274191 916.0204,224.729133 913.8644,221.5082 C911.8044,218.4382 906.9544,218.8582 904.0544,220.1582 C898.0244,222.8782 894.0144,229.6692 888.9344,233.7682 C883.3944,238.2482 877.0944,241.5682 870.6444,244.5382 L869.282405,245.157024 C858.126115,250.175332 846.206361,254.399769 837.4344,263.2582 C832.7144,268.0182 828.6544,273.9682 827.2944,280.6382 C826.6744,283.6982 826.6744,286.8482 827.4944,289.8782 C828.1444,292.2482 829.5044,293.7092 828.7244,296.1182 C827.7044,299.2282 824.0944,302.9482 822.2344,305.7182 C820.0744,308.9192 817.9244,312.1282 815.7744,315.3382 C811.4844,321.7582 807.2144,328.1982 802.9444,334.6282 C794.4044,347.5082 785.9544,360.4482 777.5744,373.4282 C774.847733,377.654867 772.129956,381.885978 769.421067,386.121533 L765.3647,392.4784 L763.22095,395.82965 L759.5646,401.5775 C759.6946,402.1085 759.6846,402.6685 759.5146,403.1575 C758.891267,404.933056 757.723828,406.146667 756.273436,407.026629 L756.0144,407.1782 C734.6744,440.9082 713.6744,474.8582 692.4644,508.6692 C691.3344,518.9879 690.2744,529.3179 689.3544,539.6479 C687.2644,563.0279 685.8344,586.4689 685.3744,609.9379 C685.1544,621.2989 686.0644,632.7279 686.5544,644.0779 C686.7944,649.495043 687.122563,654.905573 687.551485,660.31453 L687.867022,664.148425 C688.289511,669.417042 688.529067,674.646633 686.6344,679.6689 C684.9544,684.0779 679.8344,685.0679 676.8044,681.7089 C637.2745,680.1183 597.7145,678.9083 558.1545,678.1583 C487.3445,676.7983 416.5045,677.0083 345.6845,678.3783 C310.1145,679.0683 274.5345,680.0383 238.9745,681.2383 C221.4545,681.8183 203.9245,682.6383 186.3945,682.8783 C176.9499,683.007 162.085347,679.568136 161.323257,668.942493 L161.3045,668.618 C160.1245,668.938 158.9045,669.198 157.6545,669.388 C157.09801,669.473614 156.563508,669.449282 156.069822,669.333829 L155.8245,669.2686 C141.745781,673.559611 123.936957,667.436981 110.55909,663.868945 L109.4547,663.5778 C96.6847,660.2478 86.4247,655.4878 78.0547,644.9078 C63.4047,626.3788 58.4047,601.4978 55.8047,578.5678 C53.3647,556.9878 53.2247,535.0088 56.1947,513.4688 C54.4446,495.9189 56.1546,477.8089 58.1446,460.3579 C59.1246,451.7279 60.2746,443.1079 61.6546,434.5279 C62.4246,429.7379 63.4346,424.9979 64.4646,420.2679 C64.87585,418.3779 65.2181938,416.343197 65.7395023,414.376156 L65.9745,413.5379 C64.3745,413.7479 62.6245,413.3979 60.9345,412.4689 C56.9145,410.2589 55.7445,405.7879 55.6745,401.5089 C55.4545,388.6079 56.9945,375.3389 58.3545,362.5189 C59.7245,349.7189 61.6045,336.8679 64.0645,324.2279 L64.7010759,320.968955 C66.5650826,311.513703 68.6979483,301.752728 72.4545,292.8679 C58.3448,290.4688 44.2748,287.9188 30.5848,283.5778 C23.9048,281.4478 17.3248,278.7988 11.0448,275.5678 Z M747.5044,409.8182 C747.2845,409.8684 747.0745,409.9284 746.8645,409.9884 C741.2245,411.5684 735.5245,412.9084 729.8445,414.3484 C720.0245,416.8184 710.4245,419.5784 701.2945,423.8684 C699.3819,448.008625 696.546548,472.070148 693.851273,496.144031 L693.3144,500.9592 C697.4544,493.2782 701.6944,485.6582 706.1244,478.1292 C719.6144,455.1782 733.4144,432.4082 747.5044,409.8182 Z M69.4145,412.2089 C69.4446,415.0779 68.8446,418.0589 68.5246,420.8179 C68.0046,425.2989 67.5846,429.7989 67.0546,434.2779 C65.9746,443.2779 65.0546,452.2879 64.3846,461.3279 C63.9546,467.0989 63.6746,472.8889 63.4246,478.6789 C69.0947,457.4878 76.6047,436.7588 83.7447,415.9978 C82.5512333,415.871867 81.3311889,415.580556 80.0726556,415.246267 L77.9539993,414.675616 C76.7047422,414.353897 72.6521471,413.357135 69.4145,412.2089 Z M765.3648,392.4785 L765.4048,393.4285 C765.5548,396.7985 763.5348,398.6985 761.0848,399.1885 C762.5048,396.9485 763.9348,394.7085 765.3648,392.4785 Z M116.5645,232.7589 C122.5345,233.2879 128.3845,234.5589 133.9645,236.7589 L134.502916,236.969056 C138.630141,238.562073 144.6645,240.563687 146.0145,244.9689 C146.3945,246.2189 145.3745,247.2479 144.2045,247.3489 C139.7245,247.7089 134.4445,242.9079 130.2945,241.2879 C125.6745,239.4879 120.8345,238.1479 115.9345,237.4379 C104.9245,235.8279 93.4445,237.0489 83.0845,241.0589 C82.4745,241.2989 82.0945,240.3279 82.6445,240.0379 C93.0845,234.3579 104.6945,231.7089 116.5645,232.7589 Z M-9.9452,261.3583 C-10.6356,260.748 -11.3256,260.108 -12.0056,259.469 C-17.3670286,254.396857 -22.1147582,248.477624 -25.6301085,241.973118 L-26.5552902,240.212669 C-29.4184437,234.669462 -32.9342747,226.771976 -26.2056,222.778 C-22.1856,220.389 -17.3456,220.988 -12.8656,222.438 C-12.5756,222.528 -12.2856,222.629 -11.9956,222.728 C-9.9956,223.429 -8.0656,224.268 -6.3456,225.068 C1.1244,228.498 7.7144,233.488 14.6144,237.889 C22.0907636,242.658939 29.4730961,245.709048 38.1017696,247.494322 L38.9144,247.658 C47.0144,249.259 55.7944,250.288 61.4444,256.948 C62.8644,258.629 61.5644,261.778 59.1144,260.948 C43.4944,255.679 26.9644,254.518 12.6244,245.868 C6.6844,242.288 1.0644,238.179 -5.0056,234.788 C-8.2256,232.986667 -11.5501333,231.411822 -15.0930252,230.331769 L-17.0285252,229.761091 C-18.1622358,229.430083 -19.5156,229.103278 -20.4256,229.429 C-22.1578581,230.029 -21.6049965,230.955847 -21.0690527,232.573879 L-21.0156,232.738 C-16.8056,245.759 -4.8056,256.658 6.3144,263.868 C8.8644,265.528 11.4744,267.049 14.1344,268.459 C32.13989,278.056079 52.286603,282.522723 72.0738397,287.824964 C79.7010799,289.954055 84.7780333,291.4186 87.3047,292.2186 C91.5247,291.8676 96.3347,293.3586 99.5147,295.1386 C102.6047,296.8676 105.0947,299.1886 106.9747,301.9186 C106.9747,301.9186 108.7847,303.4286 109.1147,305.7686 C110.0647,307.9386 110.7047,310.2776 111.0247,312.7186 C111.2047,314.1486 110.8447,315.2476 110.1647,316.0276 C112.210057,347.420374 103.730553,378.636431 94.1706911,408.470851 L93.22345,411.412725 L92.6147,413.2776 C82.3047,444.9078 70.4747,476.3088 65.1947,509.2878 C61.6647,531.3178 61.7747,554.1178 64.3647,576.2478 L64.5473046,577.774114 C67.0992181,598.697712 72.0092238,622.169514 85.3147,639.0088 C92.1013071,647.60255 100.1419,651.421507 110.421754,654.188873 L110.9847,654.3388 C120.2847,656.7878 129.8847,660.2588 139.4747,661.3088 C148.3747,662.2778 155.8347,658.9688 163.8447,655.8678 L163.8545,655.8586 C180.7246,640.9285 188.3846,619.1885 194.0446,597.2475 C208.7146,540.4685 206.8946,481.5285 198.5746,423.9185 C194.2346,393.8185 188.3346,363.9785 182.4546,334.1485 C179.5146,319.2385 176.3446,304.3585 173.7146,289.3985 L172.152608,280.593969 C171.290694,275.702562 170.4571,270.80725 169.7446,265.8885 C168.7846,259.2785 168.4946,252.7785 168.1646,246.1285 C160.0846,232.7384 148.3546,221.7084 134.7646,213.7984 C125.0346,208.1284 114.7346,204.1984 104.1046,201.3484 C73.7145,193.1584 40.5845,193.7384 10.0045,187.4384 C-0.268543478,185.324487 -10.0200747,182.185848 -19.7664345,178.425054 L-21.0955,177.9084 C-25.5655,176.1684 -30.1255,175.1984 -32.3455,180.4684 C-33.9255,184.2184 -32.9855,188.1184 -30.6155,191.2684 C-24.8055,198.9884 -13.1255,202.5684 -4.3355,205.3484 C0.9545,207.0284 6.3545,208.3584 11.8145,209.3484 C17.2745,210.3384 22.7545,210.5884 27.9945,212.5184 C30.0145,213.2584 30.4145,216.4684 27.9945,217.0374 C21.3545,218.5884 14.6745,217.2584 8.0745,215.9684 C0.8245,214.5374 -6.3155,212.5084 -13.2555,209.9384 C-14.5355,209.4664 -15.8603,208.9688 -17.20942,208.439968 L-18.2255,208.038 C-17.1755,208.799 -16.1255,209.549 -15.0655,210.299 C-14.7855,210.498 -14.9555,211.028 -15.3255,210.898 C-31.6435328,204.810459 -46.4909931,193.826492 -57.9931867,180.830465 L-58.5655,180.179 C-62.6155,175.538 -71.8455,161.498 -79.6255,165.408 C-86.9311,169.0752 -74.477596,183.211776 -69.7448882,188.991431 L-69.1953,189.6688 C-63.8153,189.8088 -58.6053,193.1578 -54.2453,195.8578 C-46.6753,200.5488 -38.7653,204.5888 -30.7053,208.3678 C-14.6853,215.8978 2.3247,221.2088 18.1747,229.1178 C18.3847,229.2288 18.2247,229.4978 18.0247,229.4688 C7.9347,227.8578 -2.0453,225.2878 -11.7953,222.0988 L-12.2303,221.962425 L-12.6653,221.8178 C-18.7553,219.8178 -24.7653,217.5588 -30.6753,215.1478 C-37.2453,212.4688 -43.6653,209.4588 -49.8953,206.0488 C-55.5353,202.9688 -61.7953,197.4188 -68.3353,196.5988 C-69.0353,196.5088 -69.6553,196.4978 -70.1953,196.5488 C-77.7052,197.1783 -71.4952,209.6183 -69.3952,213.3383 C-65.9652,219.4483 -61.8252,225.0883 -57.0752,230.2383 C-47.4452,240.6983 -35.7752,248.9883 -23.1452,255.4383 C-18.8352,257.6383 -14.4252,259.5783 -9.9452,261.3583 Z" id="ðŸ–-Ink" fill="#000000"></path>
    </g>
</svg>