<?xml version="1.0" encoding="UTF-8"?>
<svg width="289px" height="293px" viewBox="0 0 289 293" version="1.1" xmlns="http://www.w3.org/2000/svg" xmlns:xlink="http://www.w3.org/1999/xlink">
    <!-- Generator: Sketch 62 (91390) - https://sketch.com -->
    <title>face/Angry with Fang</title>
    <desc>Created with Sketch.</desc>
    <g id="face/Angry-with-Fang" stroke="none" stroke-width="1" fill="none" fill-rule="evenodd">
        <path d="M196.5474,185.9139 C198.026892,183.981222 201.62664,192.394704 202.360997,193.42337 L202.3964,193.4699 C205.6004,197.3469 208.2164,203.2839 208.5864,208.2619 C208.5974,208.4109 208.5974,208.5549 208.5974,208.6989 C213.7334,207.9939 218.8704,207.2759 224.0054,206.4879 C225.9914,204.9949 228.7704,205.4579 231.4594,206.8169 C237.4564,209.8439 234.5374,219.4609 228.0764,219.3069 C210.6064,218.8909 192.7634,221.1339 175.4394,223.1529 C166.5274,224.1919 157.6344,225.2939 148.7704,226.7029 C140.4894,228.0179 132.0224,229.8759 123.6414,230.23829 C123.1844,230.2569 122.9934,229.5759 123.4054,229.3639 C130.7944,225.5689 139.2344,223.2709 147.2124,221.0479 C155.8454,218.6429 164.5424,216.3849 173.3004,214.4789 C181.1594,212.7679 189.0594,211.4879 196.9774,210.3349 C196.9164,210.1799 196.8574,210.0219 196.8074,209.8559 C195.803165,206.486488 195.82913,202.621021 195.614727,199.070695 L195.490559,197.186044 C195.295458,193.93866 195.100221,187.806567 196.5474,185.9139 Z M170.814304,144.367155 C178.365682,148.9572 189.871664,159.660291 181.748119,171.039573 C172.185929,181.073062 158.418535,169.568982 151.634201,164.366134 C145.343449,160.333898 138.275437,170.704507 144.112,175.412823 C193.135736,211.708059 213.030606,145.567387 174.633685,138.970386 C170.406047,138.243425 168.835891,142.947174 170.814304,144.367155 Z M49.4016,103.967 C61.9666,102.05 74.8376,101.83 87.5336,102.464 C94.1346,102.793 100.7276,103.283 107.3056,103.935 C110.7396,104.276 114.1706,104.658 117.5946,105.087 C120.0506,105.395 123.8426,106.801 126.1766,106.161 C133.3086,104.208 140.0796,110.957 138.1126,118.098 C136.1616,125.184 127.8006,127.053 122.4226,122.797 C119.8726,121.898 117.3076,121.046 114.7276,120.25 C114.5306,121.063 114.2416,121.867 113.8336,122.644 C113.3756,123.514 112.9346,124.39 112.5166,125.279 C112.6066,125.137 111.9156,126.794 111.8966,126.842 L111.344066,128.285023 C110.381494,130.77318 109.302697,133.132903 106.6876,134.422 C103.0926,136.194 97.4526,135.217 95.9996,130.989 C93.7299571,126.542452 95.2320819,120.330092 96.5328396,115.724108 L96.6336,115.37 C80.9526,111.641 65.0116,108.845 49.4016,105.052 C48.8916,104.928 48.8396,104.053 49.4016,103.967 Z M235.8942,87.2405 C236.7102,85.6075 238.5602,85.6005 239.6612,87.1345 C242.108336,90.5400085 236.627575,95.4174138 234.340652,97.6837577 L234.1122,97.9125 C228.9712,103.1285 222.7012,107.3325 216.4852,111.1335 C215.1812,111.9305 213.8572,112.6905 212.5282,113.4395 C212.7742,113.9345 212.9982,114.4395 213.1812,114.9545 C214.1222,117.6125 214.1402,120.7875 213.2922,123.4735 C211.5262,129.0745 206.8272,133.5495 200.7332,133.543512 C197.5192,133.5405 193.7142,130.5015 194.1492,126.9595 C194.3042,125.6985 194.4312,124.3565 194.6242,123.0155 C190.3382,124.4415 185.0752,122.7705 182.3492,119.2375 C178.5582,114.3265 179.6012,106.2775 185.4052,103.2275 C189.6732,100.9855 194.3842,100.4195 199.0072,99.2345 C203.5952,98.0605 208.1512,96.7115 212.6422,95.2045 C217.0712,93.7185 221.4792,92.1265 225.8802,90.5535 C228.0572,89.7745 230.2112,89.0565 232.4272,88.3965 C233.4172,88.1025 234.8422,87.3295 235.8942,87.2405 Z" id="ðŸ–-Ink" fill="#000000"></path>
    </g>
</svg>