<?xml version="1.0" encoding="UTF-8"?>
<svg width="289px" height="293px" viewBox="0 0 289 293" version="1.1" xmlns="http://www.w3.org/2000/svg" xmlns:xlink="http://www.w3.org/1999/xlink">
    <!-- Generator: Sketch 62 (91390) - https://sketch.com -->
    <title>face/Awe</title>
    <desc>Created with Sketch.</desc>
    <g id="face/Awe" stroke="none" stroke-width="1" fill="none" fill-rule="evenodd">
        <path d="M94.33,189.0907 C94.54,188.8967 94.872,188.8287 95.125,188.9877 C99.452,191.7237 99.964,200.9247 100.013,206.2387 C101.803,206.7047 103.571,207.2347 105.243,207.6047 C108.7934,208.3903 112.36364,209.07542 115.926584,209.797788 L118.597,210.3487 C127.523,212.2297 136.616,213.6217 145.712,214.3187 C154.54,214.9947 163.624,215.2417 172.427,214.1047 C176.207,213.6157 179.965,212.7997 183.618,211.7107 C187.936,210.4227 191.375,208.2877 195.391,206.4177 C205.445,201.7347 213.871,215.4577 204.195,221.4797 C195.889,226.6467 184.557,228.5097 174.969,229.3097 C165.169,230.1267 155.407,229.2297 145.725,227.6797 C135.258,226.0027 125.006,223.4277 115.079,219.6937 C110.881583,218.1152 106.819451,216.201429 102.853321,214.108749 L101.774,213.5337 C101.115,213.1797 100.428,212.8207 99.737,212.4567 C98.994,219.0837 96.853,225.4847 94.266,231.6377 L94.205,231.5297 C92.79,236.3837 87.678,239.3867 82.592,237.2427 C76.6222769,234.727992 76.1688237,228.12601 79.6423102,223.439934 L79.808,223.2217 C83.892,217.9677 86.451,211.4497 88.675,205.2367 C89.816,202.0517 90.872,198.7897 91.788,195.5317 C92.451,193.1747 92.475,190.8037 94.33,189.0907 Z M248.161944,136.318229 C244.623623,147.011716 236.906409,155.246524 226.156233,158.867148 C215.502232,162.456048 203.652923,161.147787 192.762504,159.207506 C190.380225,158.78307 187.965329,158.314404 185.555002,157.767868 C187.527576,158.989727 189.27009,160.709575 190.937577,162.528151 C193.402846,165.216795 195.638939,168.050145 196.317132,171.415686 C196.990196,174.75484 195.929909,177.295282 193.996081,179.212602 C191.021297,182.161992 186.222666,183.750618 182.158158,184.628645 C173.056564,186.595954 163.939117,186.289794 154.88222,184.273272 C152.569715,183.758563 151.00163,182.51841 150.121426,180.901257 C149.052024,178.936502 148.96458,176.493384 149.578088,174.268021 C150.191158,172.044247 151.516221,169.993892 153.43931,168.858975 C155.022184,167.924838 157.002114,167.668533 159.249299,168.416218 C163.759518,169.916839 168.237484,170.911071 173.001321,171.025962 C175.017667,171.072733 177.047505,171.013112 179.060718,170.828108 C180.199049,170.723502 181.3353,170.578512 182.464716,170.397471 C181.79938,169.511639 181.153272,168.609337 180.521816,167.697693 C179.775637,166.62042 179.048862,165.528581 178.355158,164.419241 C176.349041,161.206342 174.678352,157.903537 173.210546,154.417377 C172.739636,153.300676 172.303087,152.179026 171.883958,151.053534 C171.823586,150.891415 171.763539,150.72912 171.703396,150.566375 C171.574005,150.458318 171.445615,150.349171 171.318216,150.238957 C168.447102,147.755127 166.0399,144.695113 164.337199,140.905229 C159.727411,130.639331 160.477951,117.896497 163.275238,107.237008 C165.51673,98.69281 170.464912,90.7899295 177.002049,85.4210592 C178.143678,83.5430557 178.897068,82.4038303 179.82064,81.4444324 C183.577564,77.5356848 188.820042,74.8994778 193.936131,73.2958712 C205.362563,69.712749 217.807028,72.2834331 227.493026,79.1056292 C236.436362,85.4047065 243.437646,94.8516569 247.221021,105.358755 C250.803934,115.309134 251.503056,126.223266 248.161944,136.318229 Z M92.522,71.3311 C106.111,71.2151 119.937,75.2271 130.964,83.2561 C141.514,90.9391 149.796,102.2821 149.786027,115.7931 C149.776,128.9481 142.744,141.8821 134.945,152.0671 C126.191,163.5011 114.751,169.0141 100.367,169.1411 C92.8902941,169.207924 85.3586678,168.545723 77.9355276,167.63638 L73.9529569,167.13415 C68.4685537,166.426811 62.9272273,165.589555 57.729,163.7051 C32.985,154.7301 32.219,122.3421 41.383,101.6391 C48.459,85.6551 66.368,70.0671 84.226,71.9381 C86.917,71.5611 89.68,71.3561 92.522,71.3311 Z M115.473,86.5621 C98.456,78.9241 77.78,81.2111 61.273,89.3621 C54.734,96.4961 49.955,105.4871 48.021,113.7411 C45.956,122.5521 46.258,132.0431 49.363,140.5831 C53.154,151.0081 62.489,153.5901 72.559,155.1921 L76.468601,155.806014 L78.1087887,156.054579 C88.0034832,157.530496 98.8210909,158.678468 108.33,156.8311 C118.927415,154.7703 125.657625,146.209221 130.954738,137.431682 L131.202,137.0201 C136.703,127.8231 141.308,116.6381 136.694,106.1001 C132.771,97.1431 124.202,90.4801 115.473,86.5621 Z M215.9137,89.2235 C210.0737,85.9875 203.4127,85.3995 197.1067,87.5655 C194.393465,88.4972647 192.049261,90.0074896 189.77595,91.7004898 L188.8697,92.3865 C186.074242,94.5322083 183.463382,95.6189983 181.366293,98.5169933 L181.0957,98.9055 C180.0377,100.4855 178.1867,101.1175 176.5007,100.9075 C174.5357,106.3245 173.7247,112.1825 173.708359,117.9495 L173.709979,118.713655 L173.719975,119.493132 C173.84597,126.30976 175.035271,134.648929 180.3987,139.2175 C185.29082,143.38392 192.698388,144.384008 199.311543,144.964129 L204.408274,145.389169 L205.762872,145.491425 C212.733419,145.976348 220.3717,145.810971 226.2137,141.6845 C231.3017,138.0905 233.7017,131.9905 234.3237,125.9675 C235.7947,111.7385 228.5927,96.2485 215.9137,89.2235 Z M88.7952,90.538 C98.1662,85.754 109.4232,86.953 117.3612,92.949 C116.6562,93.087 115.9622,93.263 115.2702,93.61 C113.4692,94.513 112.3512,96.321 111.9252,98.245 C111.4452,100.42 112.5722,102.479 114.7192,103.165 C116.5872,103.761 118.8022,104.034 120.5372,102.899 C121.4462,102.305 122.0812,101.522 122.4982,100.536 L122.5572,100.391 L122.630506,100.284586 L122.658314,100.234797 C122.664706,100.21584 122.631867,100.251889 122.5802,100.333 C122.6332,100.21 122.6822,100.087 122.7312,99.962 C122.8042,99.813 122.8742,99.663 122.9312,99.508 C123.0322,99.421 123.1242,99.324 123.2172,99.227 C124.6592,101.446 125.7912,103.952 126.5102,106.74 C131.1242,124.635 112.2042,143.206 95.3012,145.064 C88.9132,145.766 83.0882,144.245 78.2542,141.247 C78.2982,141.188 78.3472,141.135 78.3872,141.073 C80.3292,141.422 82.6472,140.553 83.3522,138.387 C85.1512,132.862 83.3062,126.399 77.2862,124.594 C73.4122,123.432 69.4482,124.716 66.6792,127.364 C64.5852,122.239 63.8362,116.469 64.8272,110.69 C66.2252,102.537 71.1432,95.19 78.7972,91.798 C82.5242,90.145 85.7362,89.798 88.7952,90.538 Z M187.482,101.5788 L187.76729,101.129417 C190.663051,96.6731856 196.198459,91.2067508 201.935,92.7098 C202.741,92.9208 203.531,93.2608 204.243,93.7018 C207.395,93.2738 210.695,93.9898 213.405,95.6568 L213.331296,95.843763 C213.319556,95.8750222 213.309,95.9068 213.301,95.9398 C213.054,97.0238 213.198,98.0258 213.704,99.0218 C214.253,100.1008 215.036,101.1238 216.096,101.7428 C216.823,102.1668 217.678,102.3898 218.516,102.3728 C219.745,102.3508 220.827,101.8098 221.715,100.9838 C222.198,100.5358 222.535,99.8788 222.721,99.2028 C223.159,99.6228 223.584,100.0908 223.989,100.6218 C230.64,109.3678 229.721,123.4218 221.918,131.2178 C221.603,131.5318 221.268,131.8158 220.937,132.1058 C217.769,136.4668 212.886,139.4268 207.021,140.0258 C201.591,140.5808 196.161,138.9748 191.997,135.6828 C192.332,135.5048 192.645,135.2738 192.915,134.9678 C193.626,134.1628 194.211,133.3688 194.643,132.3858 C194.751667,132.138467 194.856333,131.889356 194.955519,131.637874 L195.1,131.2588 C195.125071,131.189157 195.346735,130.54957 195.287799,130.661923 L195.274212,130.687872 L195.352834,130.503569 C196.098093,128.643382 195.796914,126.516867 194.028146,125.350084 L193.833,125.2288 C193.255,124.8918 192.539,124.7328 191.814,124.7308 C190.008,122.5198 187.32,122.0128 184.797,122.6588 L184.708407,121.944948 C184.695,121.8258 184.683333,121.706467 184.675,121.5868 C182.72,115.1058 183.663,107.7408 187.482,101.5788 Z M100.6853,36.3288 L101.334532,36.2277751 C106.242774,35.5184354 109.58005,36.335175 112.7713,40.5298 C114.2923,42.5288 113.8233,45.5478 112.7713,47.5908 C109.3733,54.1918 100.0253,52.8268 93.7293,54.1378 C87.5823,55.4168 81.4503,57.1578 75.6983,59.6918 C69.8293,62.2778 64.3203,65.3368 58.9483,68.8298 C54.0893,71.9908 49.6823,76.7418 44.1313,78.5808 C43.8813,78.6638 43.5803,78.4398 43.5953882,78.1748 C43.9913,71.8618 49.2643,66.0668 53.3483,61.5708 C58.0723,56.3718 63.8173,51.7558 69.8003,48.0858 C75.9743,44.2998 82.6483,41.1828 89.5583,39.0088 C93.1973,37.8638 96.9203,36.9538 100.6853,36.3288 Z M175.4616,44.9006 C181.6416,35.8636 197.0046,37.5966 206.0696,40.0116 C217.4356,43.0376 229.7516,49.1586 237.7216,58.0186 C244.8606,65.9556 234.1796,76.2676 226.1516,69.5886 L224.009153,67.8119793 L222.638032,66.6858395 C216.4751,61.6522995 210.371985,57.0967691 202.8616,53.7406 C194.0556,49.8076 185.1326,47.8916 175.8256,45.7956 C175.4596,45.7136 175.2446,45.2176 175.4616,44.9006 Z" id="ðŸ–-Ink" fill="#000000"></path>
    </g>
</svg>