<?xml version="1.0" encoding="UTF-8"?>
<svg width="289px" height="293px" viewBox="0 0 289 293" version="1.1" xmlns="http://www.w3.org/2000/svg" xmlns:xlink="http://www.w3.org/1999/xlink">
    <!-- Generator: Sketch 62 (91390) - https://sketch.com -->
    <title>face/Blank</title>
    <desc>Created with Sketch.</desc>
    <g id="face/Blank" stroke="none" stroke-width="1" fill="none" fill-rule="evenodd">
        <path d="M181.7352,212.8104 C182.4292,212.6224 183.0402,213.5544 182.4652,214.0644 C180.1112,216.1534 178.6162,220.0454 176.8982,222.6984 C175.2642,225.2224 173.6892,227.7204 172.2522,230.3624 C170.6412,233.3234 169.0852,236.2734 167.8312,239.4064 L167.5832,240.0384 L167.5832,240.0384 C167.958655,240.932036 168.252291,241.814102 168.468617,242.392337 L168.5312,242.5564 C170.6732,248.0264 166.1772,254.1054 161.1062,255.6344 C152.4322,258.2494 144.9902,251.1264 144.7832,242.6554 C144.6202,235.9914 149.1372,230.0534 153.7272,225.6484 C157.7422,221.7954 162.2382,218.5154 167.2672,216.1124 C169.4862,215.0534 171.7912,214.1674 174.2002,213.6534 C176.6642,213.1284 179.3222,213.4624 181.7352,212.8104 Z M165.3872,236.9604 C166.0232,237.2604 166.5662,237.9934 167.0232,238.8494 C166.7952,238.1234 166.3242,237.4014 165.3872,236.9604 Z M170.814304,144.367155 C178.365682,148.9572 189.871664,159.660291 181.748119,171.039573 C172.185929,181.073062 158.418535,169.568982 151.634201,164.366134 C145.343449,160.333898 138.275437,170.704507 144.112,175.412823 C193.135736,211.708059 213.030606,145.567387 174.633685,138.970386 C170.406047,138.243425 168.835891,142.947174 170.814304,144.367155 Z M108.7411,100.2923 L110.075232,100.180412 C115.862483,99.6703612 121.7221,98.8930143 127.4291,100.2023 C135.0961,101.9623 134.5341,113.1163 127.4291,115.1673 C121.1671,116.9743 114.2281,116.1923 107.7641,116.2543 C106.7471,116.2643 105.7321,116.2903 104.7161,116.3073 C104.5161,118.7243 103.7231,120.8083 102.5091,122.8903 C101.6391,124.3843 100.5291,125.8033 99.4371,127.1303 C96.8411,130.2843 90.7181,130.2133 88.0981,127.1303 C86.1601,124.8483 84.6171,122.2233 84.5921,119.1343 C84.5861,118.3433 84.6821,117.5033 84.8711,116.6773 L81.3429957,116.738979 C72.7079528,116.870758 64.0069,116.81222 55.5281,115.4403 C52.5121,116.0643 50.0441,110.6223 54.2071,108.9933 C65.5241,104.5673 78.1671,103.2643 90.1761,101.9353 C96.3471,101.2513 102.5521,100.7803 108.7411,100.2923 Z M205.152567,95.7185474 L205.4605,95.6879 C212.9495,94.9209 221.2045,93.5929 228.7085,94.3569 C239.9125,95.4959 239.8935,110.6419 228.7085,111.7749 C224.6025,112.1909 220.2765,111.9889 215.9625,111.5909 C218.1675,116.2689 215.5515,121.8559 210.2385,122.5699 C205.301109,123.233146 200.184041,118.435197 201.803654,113.289141 L201.8795,113.0619 C202.1955,112.1689 202.4795,111.1709 202.8165,110.1859 L201.029774,110.035194 C195.688943,109.563039 188.276237,108.598795 186.3105,104.3819 C185.7175,103.1109 185.8545,101.9309 186.7675,100.8449 C190.5115,96.3885981 199.74051,96.2419466 205.152567,95.7185474 L205.152567,95.7185474 Z M125.5169,61.0405 C130.9369,59.0715 136.5699,63.6795 137.2729,68.8725 C138.082408,74.8567623 133.766198,78.7967354 128.295384,79.5114571 L128.0209,79.5445 C115.9449,80.8745 103.9599,83.3065 91.8679,84.6815 C86.3760818,85.3051364 80.8429413,85.7155496 75.3143087,85.8631529 L71.3632923,85.9519397 C66.5216527,86.0743371 61.3287276,86.1847414 56.8589,84.5175 L56.8759,84.4875 L56.8759,84.4875 C55.6889,84.1435 55.1429,82.4315 56.4639,81.4955 C61.2229,78.1305 67.6379,76.8585 73.1779,75.2595 C78.7479,73.6505 84.3589,72.1675 89.9849,70.7745 C101.7989,67.8525 114.0709,65.1985 125.5169,61.0405 Z M175.5034,62.4394 C176.9394,54.8684 187.6644,54.0564 191.6034,59.5654 C194.1494,60.4394 197.8824,61.3514 200.1954,62.0374 C204.2254,63.2324 208.2584,64.4204 212.3004,65.5714 C220.6704,67.9554 228.8384,70.9774 237.0674,73.7944 C237.9154,74.0854 237.6824,75.1614 236.8674,75.2684 C225.38196,76.76312 214.089134,77.4588128 202.534169,76.9794656 L200.164878,76.8727883 C189.983017,76.4760857 172.69816,77.23287 175.5034,62.4394 Z" id="ðŸ–-Ink" fill="#000000"></path>
    </g>
</svg>