<?xml version="1.0" encoding="UTF-8"?>
<svg width="289px" height="293px" viewBox="0 0 289 293" version="1.1" xmlns="http://www.w3.org/2000/svg" xmlns:xlink="http://www.w3.org/1999/xlink">
    <!-- Generator: Sketch 62 (91390) - https://sketch.com -->
    <title>face/Concerned Fear</title>
    <desc>Created with Sketch.</desc>
    <g id="face/Concerned-Fear" stroke="none" stroke-width="1" fill="none" fill-rule="evenodd">
        <path d="M166.6906,207.9332 C178.561529,207.9332 183.5886,209.8632 191.3116,214.4012 C199.0346,218.9392 207.2904,224.78835 209.2436,233.5502 C211.0656,241.7142 207.4806,249.6692 199.5456,252.7832 C195.1076,254.5262 143.967743,258.606343 135.9456,259.1392 C127.923457,259.672057 120.2672,259.0136 115.1156,253.6712 C101.8046,239.8662 120.2896,221.9682 132.1016,215.3592 C142.6486,209.4552 154.819671,207.9332 166.6906,207.9332 Z M163.945031,217.243381 C155.01579,217.243381 140.3876,223.774389 140.3876,226.9542 C140.3876,230.134011 183.022253,226.977236 183.936486,224.25702 C184.85072,221.536805 172.874272,217.243381 163.945031,217.243381 Z M170.814304,144.367155 C178.365682,148.9572 189.871664,159.660291 181.748119,171.039573 C172.185929,181.073062 158.418535,169.568982 151.634201,164.366134 C145.343449,160.333898 138.275437,170.704507 144.112,175.412823 C193.135736,211.708059 213.030606,145.567387 174.633685,138.970386 C170.406047,138.243425 168.835891,142.947174 170.814304,144.367155 Z M85.5415,102.7665 C98.4035,93.2705 117.6435,100.5795 120.8135,115.4365 C123.0165,116.5955 124.2155,118.4385 124.4765,121.1365 L124.5415,121.8115 L124.5415,121.8115 C124.8525,125.0165 122.0005,128.0505 119.1495,128.8955 C115.9405,129.8455 113.4005,129.3545 110.4215,127.9915 C107.565824,126.683824 106.572261,122.976324 107.090796,120.15545 L107.1375,119.9225 C107.9005,116.4215 104.8985,113.0295 101.8775,111.6425 C98.4685,110.0775 94.6435,111.0575 91.6795,113.1315 C88.3885,115.4325 85.6515,119.3685 84.7255,123.2905 L84.6335178,123.697736 C83.903116,127.083489 83.35438,133.43554 86.6395,135.3805 C87.2215,135.7235 86.8065,136.5115 86.2055,136.4075 C79.0675,135.1865 74.8165,130.8925 74.772786,123.2115 C74.7275,115.0775 79.0965,107.5245 85.5415,102.7665 Z M203.9801,100.0641 C216.8251,95.5081 232.8891,107.7471 227.9411,121.8831 C224.69192,131.16435 212.125909,127.443593 213.296402,118.140707 L213.3361,117.8571 C214.0811,113.0171 210.4151,110.7341 205.9211,112.3221 C199.2601,114.6771 195.6681,125.1431 198.7891,131.2491 C199.1721,131.9991 198.1011,132.6341 197.6551,131.9111 L197.227138,131.22391 C193.742344,125.673644 190.562845,121.576727 191.7081,114.4871 C192.7621,107.9521 197.7631,102.2681 203.9801,100.0641 Z M177.9284,66.4177 C177.8954,65.7927 178.5534,65.3717 179.1154,65.5127 C183.6814,66.6617 187.8144,69.9817 191.9724,72.1357 C196.5104,74.4857 201.1584,76.3847 206.0864,77.7767 C210.8884,79.1327 215.7404,79.8087 220.7324,79.7667 C226.1334,79.7217 231.4194,77.6947 236.7164,77.8617 C244.6804,78.1127 248.8414,89.6927 240.9984,93.6727 C229.5784,99.4657 212.6414,95.2567 201.5334,90.4407 C192.5924,86.5637 178.5104,77.4027 177.9284,66.4177 Z M119.9208,69.0653 C124.0868,63.7013 132.5158,63.3793 136.2148,69.6993 C140.0358,76.2293 135.4438,82.7763 128.9508,84.1273 C117.1018,89.4243 104.9658,93.4783 92.0238,95.1593 L90.2708839,95.3800744 C79.0072825,96.7504375 64.7921,97.49785 54.6138,92.3023 C53.6168,91.7923 53.9188,90.2733 54.9168,89.9883 C60.6548,88.3473 67.0808,88.3513 72.9818,87.2743 C78.5948,86.2513 84.1618,85.1193 89.6278,83.4603 C100.4268,80.1813 110.6588,75.4953 119.9208,69.0653 Z" id="ðŸ–-Ink" fill="#000000"></path>
    </g>
</svg>