<?xml version="1.0" encoding="UTF-8"?>
<svg width="289px" height="293px" viewBox="0 0 289 293" version="1.1" xmlns="http://www.w3.org/2000/svg" xmlns:xlink="http://www.w3.org/1999/xlink">
    <!-- Generator: Sketch 62 (91390) - https://sketch.com -->
    <title>face/Concerned</title>
    <desc>Created with Sketch.</desc>
    <g id="face/Concerned" stroke="none" stroke-width="1" fill="none" fill-rule="evenodd">
        <path d="M190.3208,203.4169 C190.620085,203.743908 189.9608,204.1839 189.6318,203.9459 C185.8228,201.1849 179.823275,202.752118 176.1458,204.0019 C175.249866,232.878394 175.297533,247.658752 176.2888,248.342974 C177.7757,249.369308 198.7328,248.759807 198.7328,251.3299 C198.7328,259.730911 186.1298,262.8849 179.2888,262.3849 C168.5178,261.5999 157.416484,260.063897 146.660484,261.307897 C135.904484,262.551897 113.0548,269.415865 101.3588,259.9299 C87.4086055,248.615685 89.2948,230.0219 100.9018,217.8829 C108.218485,210.231554 118.985269,205.640971 129.601107,202.239752 C145.135838,197.262564 181.748119,194.050125 190.3208,203.4169 Z M161.668016,235.216871 C156.034684,237.409567 128.030619,246.658368 121.376848,248.342974 C129.153522,247.784909 155.707208,247.168268 161.668016,244.283404 C162.337157,241.582619 162.763734,234.789993 161.668016,235.216871 Z M165.9438,205.1909 C150.700731,207.666392 117.783804,218.830358 113.0548,224.7729 C120.2408,223.6429 160.331928,218.830358 164.8548,218.830358 C165.5118,215.332358 165.076419,209.199525 165.9438,205.1909 Z M170.814304,137.367155 C178.365682,141.9572 189.871664,152.660291 181.748119,164.039573 C172.185929,174.073062 158.418535,162.568982 151.634201,157.366134 C145.343449,153.333898 138.275437,163.704507 144.112,168.412823 C193.135736,204.708059 213.030606,138.567387 174.633685,131.970386 C170.406047,131.243425 168.835891,135.947174 170.814304,137.367155 Z M187.5567,70.3900003 C191.9897,70.3537 194.5787,73.2307 197.9027,75.7927 C201.3257,78.4317 205.4527,80.5367 209.4537,82.1487 C213.6257,83.8277 218.0857,85.1607 222.4777,86.1117 C227.0307,87.0957 231.2197,86.6347 235.7397,87.4677 C247.7217,89.6767 244.8857,109.6557 232.8707,108.6677 C222.0567,107.7787 210.4477,101.1347 202.2467,94.2457 C198.327641,90.9544059 195.019793,87.1821152 191.800423,83.2398005 L191.1977,82.4987 C188.3397,78.9727 185.6707,75.3637 187.1047,70.7347 C187.1667,70.5347 187.3447,70.3927 187.5567,70.3900003 Z M87.6160369,128.698595 C87.6300369,122.321808 91.344047,107.762216 100.524157,107.762216 C106.259134,107.762216 109.740999,117.67102 110.343765,127.885575 L110.3647,128.302049 C110.630879,134.652574 108.888163,148.533717 100.524157,148.533717 C92.071637,148.533717 87.7042339,135.386546 87.6173265,128.923881 L87.6160369,128.698595 Z M222.773907,128.698595 C222.759907,122.321808 219.045897,107.762216 209.865787,107.762216 C204.274184,107.762216 200.824446,117.181773 200.096775,127.120207 L200.046179,127.885575 C199.684084,134.021693 201.313826,148.533717 209.865787,148.533717 C218.318307,148.533717 222.68571,135.386546 222.772617,128.923881 L222.773907,128.698595 Z M117.658,71.3417 C123.383,68.8707 129.944,69.5727 133.391,75.4667 C136.654,81.0447 134.433,87.7677 129.265,91.1997 C124.189964,94.5708429 117.377045,96.4040189 111.541261,98.3320061 L110.897,98.5467 C105.241,100.4497 99.581,102.0057 93.739,103.2217 C88.2799091,104.358064 82.7794959,105.199386 77.2475274,105.870385 L75.587,106.0667 C71.272,106.5647 65.253,108.2417 61.369,105.7857 C61.024,105.5687 60.891,105.1197 61.099,104.7597 C63.36,100.8447 69.362,99.2847 73.213,97.3017 C78.158,94.7537 83.032,92.0407 87.862,89.2817 C92.745,86.4917 97.615,83.6557 102.446,80.7757 C107.464,77.7847 112.322,73.6437 117.658,71.3417 Z" id="ðŸ–-Ink" fill="#000000"></path>
    </g>
</svg>