<?xml version="1.0" encoding="UTF-8"?>
<svg width="289px" height="293px" viewBox="0 0 289 293" version="1.1" xmlns="http://www.w3.org/2000/svg" xmlns:xlink="http://www.w3.org/1999/xlink">
    <!-- Generator: Sketch 62 (91390) - https://sketch.com -->
    <title>face/Cute</title>
    <desc>Created with Sketch.</desc>
    <g id="face/Cute" stroke="none" stroke-width="1" fill="none" fill-rule="evenodd">
        <path d="M177.5335,205.3371 C180.9645,199.2831 191.2025,200.2671 192.7675,207.3281 C195.9425,221.6421 178.8735,234.8601 165.9095,235.1901 C153.0265,235.5171 138.5715,224.5521 140.4365,210.7021 C140.8975,207.2761 145.4735,207.6921 147.0335,209.8401 L147.639154,210.664134 C151.876221,216.356303 157.466992,222.247946 165.3305,220.8601 C168.5895,220.2861 171.5495,218.2501 173.5195,215.6291 C175.8955,212.4661 175.6345,208.6891 177.5335,205.3371 Z M95.6148,100.6165 C97.3608,100.1355 99.1228,100.3215 100.6698,100.9795 C104.1238,101.6125 107.0088,104.4925 108.0228,107.7805 C108.1028,108.065167 108.192133,108.346278 108.290504,108.624426 L108.4448,109.0395 L108.0308,107.9855 C108.2218,109.0235 109.0668,110.1145 109.3708,111.1565 C109.7448,112.4375 109.8358,113.8925 109.7098,115.3025 C110.8078,115.3135 111.9058,115.3505 113.0018,115.4455 L114.060904,115.540412 C119.98388,116.090875 126.486479,117.100575 129.9978,122.2185 C131.9698,125.0945 130.1188,130.2725 126.4958,130.8265 C120.9188,131.6795 116.1148,128.5935 110.5568,127.9755 C105.3028,127.3905 99.8048,127.7255 94.6188,128.6745 C83.91192,130.63194 74.0731872,134.971716 63.6392483,137.694821 L62.2188,138.0555 L62.2188,138.0555 L62.2208,138.0485 C60.4328,138.4805 58.4028,135.9945 60.1718,134.5405 C68.5308,127.6735 79.2328,122.1085 89.7758,118.7195 C88.2398,116.2765 87.7648,113.0585 88.8148,110.4355 C88.9774,109.8919 89.17924,109.36342 89.392024,108.836452 L89.8358,107.7525 L89.8358,107.7525 C89.8788,107.2415 89.9768,106.7365 90.1188,106.2415 L90.1418,106.0905 L90.1418,106.0905 L90.1548,106.0995 L90.1548,106.0995 C90.9398,103.5485 92.9898,101.3405 95.6148,100.6165 Z M202.2598,101.0113 C204.546011,98.7241158 207.758477,99.0621123 210.144209,100.862169 L210.4608,101.1103 L210.4608,101.1103 C212.7098,102.1093 214.5708,104.2923 215.7928,106.3153 C217.0618,108.4163 217.9048,110.5563 217.9378,112.8693 C223.4718,112.8873 228.7728,114.5473 232.8358,119.0153 C234.1478,120.4573 235.0438,122.6813 234.3218,124.6363 L233.8918,125.7993 L233.8918,125.7993 C232.527456,129.491691 226.393723,131.617218 224.308978,127.274981 L224.2128,127.0633 C221.9978,121.9073 213.4948,122.4483 208.9758,122.9753 C205.8258,123.3443 202.7148,124.1273 199.6728,125.0043 C198.60105,125.3133 197.538863,125.648737 196.4778,125.991206 L195.4168,126.3353 C194.8508,126.5183 191.9028,128.1193 193.7368,127.7403 C194.2298,127.6383 194.6008,128.3563 194.0978,128.5973 C191.9118,129.6423 189.5798,127.5613 189.7258,125.2133 C189.97864,121.13748 196.45103,118.902747 199.565401,117.497319 L199.7518,117.4123 C200.9458,116.8603 202.1968,116.3313 203.4878,115.8403 C202.7618,114.7603 202.1618,113.5603 201.6628,112.2723 C201.1908,111.0563 200.8758,109.8743 200.7028,108.5813 C200.5328,107.9493 200.5328,107.3173 200.7028,106.6843 L200.7288,106.5033 L200.7288,106.5033 C200.6408,106.0853 200.5988,105.6533 200.6048,105.2183 L200.5868,105.0493 L200.6048,105.0493 C200.6658,103.5263 201.2708,102.0003 202.2598,101.0113 Z M165.7316,144.4161 C174.5146,147.1301 189.0046,154.5231 184.4276,165.9341 C178.0366,176.4141 161.0876,168.7121 152.8746,165.3261 C145.4956,162.8821 141.6536,173.2231 148.7886,176.3401 C207.7476,199.6651 207.5306,138.1061 167.8696,139.0101 C163.5026,139.1091 163.3656,143.5141 165.7316,144.4161 Z M87.7267006,64.1488907 L89.2249,63.7117 C97.0099,61.4567 104.9569,57.5627 111.8689,63.6387 C114.5829,66.0247 115.1419,70.9827 113.1999,73.9587 C108.7759,80.7397 102.2149,79.7037 95.0699,80.2817 C89.6299,80.7217 84.2709,82.3197 79.1929,84.3167 C75.0429,85.9497 71.1939,88.2487 67.5599,90.8127 C63.9899,93.3337 61.5509,97.2747 57.8889,99.5437 C56.5469,100.3757 54.9969,99.5197 54.5149,98.1707 C52.8069,93.3857 55.6929,87.4247 58.1349,83.3477 C61.1159,78.3737 65.6439,74.3057 70.5129,71.2277 C75.8445923,67.8566231 81.7403556,65.9102089 87.7267006,64.1488907 L87.7267006,64.1488907 Z M201.1644,59.0001967 C214.3234,58.9962 226.9854,66.3152 234.3454,77.0442 C236.8464,80.6892 235.0134,86.0892 231.4234,88.1882 C227.395949,90.5440824 223.089759,88.8476771 220.435649,85.471752 L220.2784,85.2672 C216.0574,79.6462 210.6164,75.2192 204.1664,72.3372 C201.0194,70.9302 197.5394,69.7892 194.1354,69.2102 L193.035296,69.021688 C191.49344,68.76332 189.7048,68.5166 188.3104,68.7582 C187.5634,68.8562 186.8774,69.1032 186.2454,69.4792 C186.5494,70.1432 185.7644,70.9432 185.0394,70.5452 C181.7694,68.7492 182.1704,65.5452 184.8714,63.0552 C188.6924,59.5322 196.2294,59.0012 201.1644,59.0001967 Z" id="ðŸ–-Ink" fill="#000000"></path>
    </g>
</svg>