<?xml version="1.0" encoding="UTF-8"?>
<svg width="289px" height="293px" viewBox="0 0 289 293" version="1.1" xmlns="http://www.w3.org/2000/svg" xmlns:xlink="http://www.w3.org/1999/xlink">
    <!-- Generator: Sketch 62 (91390) - https://sketch.com -->
    <title>face/Cyclops</title>
    <desc>Created with Sketch.</desc>
    <g id="face/Cyclops" stroke="none" stroke-width="1" fill="none" fill-rule="evenodd">
        <path d="M203.1387,187.8297 C203.3807,187.0717 204.4337,187.0737 204.6757,187.8297 C206.8737,194.6807 208.1647,201.3897 211.4467,207.8317 C212.2577,208.6667 212.8387,209.7177 213.1497,210.8527 C214.6827,213.3997 216.3907,215.8177 218.3017,218.1067 C220.7057,220.9867 222.4547,223.6917 221.1807,227.6227 C220.5527,229.5597 218.9307,230.7987 216.8867,230.8917 C211.2747,231.1457 208.0777,225.7937 206.0927,220.2137 C192.2047,224.8257 176.9127,227.4367 162.3567,226.2897 C150.5247,225.3557 137.6357,222.3917 127.0417,216.3497 C127.1047,218.6317 127.1917,220.9157 127.2717,223.2007 C127.4197,227.4267 128.5567,232.0517 128.1167,236.2017 C127.6807,240.3197 125.3427,243.5057 121.1057,244.1437 C117.4587,244.6917 112.9447,242.2567 112.2337,238.3507 C111.4097,233.8167 112.9357,230.6497 114.1907,226.3697 C115.2997,222.5877 116.1697,218.7237 117.1257,214.9007 C118.0897,211.0407 118.8787,207.1477 119.5937,203.2367 C120.1177,200.3737 119.7397,197.1477 120.7537,194.4507 C120.8337,194.2397 121.0397,194.0887 121.2727,194.1557 C126.667782,195.705864 126.973909,204.392174 126.952045,209.053062 L126.9507,209.2827 C126.9427,210.2327 126.9517,211.1827 126.9617,212.1317 L129.023119,212.582942 C140.339745,215.031502 151.331843,216.891786 163.2307,216.2167 C177.1887,215.4257 189.4627,210.3227 202.7087,206.8257 C201.6087,200.5347 201.2707,193.6717 203.1387,187.8297 Z M156.4613,63.8607 C162.6553,61.7397 169.3513,60.7377 175.8653,61.0587 C189.8273,61.7487 203.1283,68.1167 212.2823,78.7277 C220.9253,88.7447 225.6223,101.3077 225.5615,114.5617 C225.4953,128.1767 221.9193,143.5087 215.1853,155.4267 C201.0363,180.4677 167.9883,180.6417 144.2383,170.6577 C118.8933,160.0037 108.5813,133.1347 114.6863,107.1577 C119.2763,87.6217 134.9333,64.1807 156.4613,63.8607 Z M197.7533,83.2007 C190.2753,77.1977 180.8583,74.5007 171.3433,75.1827 C166.6163,75.5217 161.8133,76.7627 157.5223,78.7797 C155.2413,79.8517 153.2023,81.3487 150.9563,82.4647 C148.953633,83.4584778 146.785831,84.0382309 144.719779,84.8746863 L143.9503,85.2017 C140.5573,86.7177 137.1403,84.5487 136.9703,81.3877 C129.5893,91.7437 126.0883,105.7867 126.143947,118.2447 C126.1873,127.4187 128.3723,136.9487 133.6383,144.5867 C139.4913,153.0757 149.2023,157.5537 158.9423,159.9317 C168.2703,162.2087 178.4413,162.9987 187.7913,160.4117 C197.4963,157.7277 203.7653,150.3627 207.3333,141.1817 C215.0733,121.2667 215.7123,97.6177 197.7533,83.2007 Z M164.427,107.8956 C168.662,102.1146 176.259,101.8076 180.441,107.8956 C183.073,111.7276 182.686,115.4196 182.477,119.8296 L182.436639,120.821265 C182.313123,124.311532 182.329478,127.985817 181.022,131.2116 C179.343,135.3526 176.08,138.0056 171.458,137.4566 C168.737,137.1316 166.458,135.5076 165.136,133.2676 L165.09,133.2936 L165.09,133.2936 C163.2362,129.59244 162.7578,125.83711 162.444719,121.79712 L162.2291,118.834343 C161.966829,114.939345 161.953028,111.272878 164.427,107.8956 Z" id="ðŸ–-Ink" fill="#000000"></path>
    </g>
</svg>