<?xml version="1.0" encoding="UTF-8"?>
<svg width="289px" height="293px" viewBox="0 0 289 293" version="1.1" xmlns="http://www.w3.org/2000/svg" xmlns:xlink="http://www.w3.org/1999/xlink">
    <!-- Generator: Sketch 62 (91390) - https://sketch.com -->
    <title>face/Driven</title>
    <desc>Created with Sketch.</desc>
    <g id="face/Driven" stroke="none" stroke-width="1" fill="none" fill-rule="evenodd">
        <path d="M178.871914,230.917268 C172.084992,233.585341 164.066433,234.215552 157.061098,231.942304 C150.362703,229.768113 144.28029,224.929412 140.599925,218.84408 C137.321901,213.424001 135.952932,206.991935 137.890254,200.579759 C137.982934,200.27284 138.283597,200.076561 138.573641,200 C140.158597,201.44297 141.137823,202.876119 142.116194,204.302267 C143.765639,206.706626 145.418747,209.086307 147.687997,211.141935 C150.989651,214.132462 155.438004,216.561321 159.852826,217.362336 C164.175422,218.148364 168.599466,217.453721 172.469952,215.384705 C174.823771,214.127392 176.726931,212.446046 178.611487,210.757233 C180.663611,208.918256 182.683221,207.051286 185.509504,206.012861 C187.774373,205.180558 190.153432,205.882876 191.981074,207.275134 C193.945418,208.77153 195.357973,211.113879 195.279663,213.562705 C195.158382,217.356749 193.497588,220.521617 191.087827,223.132749 C187.829983,226.662832 183.223603,229.206343 178.871914,230.917268 Z M170.814304,136.367155 C178.365682,140.9572 189.871664,151.660291 181.748119,163.039573 C172.185929,173.073062 158.418535,161.568982 151.634201,156.366134 C145.343449,152.333898 138.275437,162.704507 144.112,167.412823 C193.135736,203.708059 213.030606,137.567387 174.633685,130.970386 C170.406047,130.243425 168.835891,134.947174 170.814304,136.367155 Z M91.388,72.7683 C101.68,72.2763 110.75,76.8983 120.558,78.9983 C129.622,80.9403 138.552,79.7743 147.367,77.3043 C161.673,73.2953 167.587,95.1953 153.476,99.4633 C143.2,102.5713 132.38,102.7873 121.835,101.1853 C112.468,99.7613 104.616,95.2013 95.685,92.5463 C88.0204884,90.2689512 79.0041303,91.2154163 70.9099803,92.2875982 L67.768,92.7103 C63.098,93.3393 58.403,93.9703 53.779,94.8833 C49.767,95.6763 45.762,97.1273 41.667,97.2953 C41.202,97.3153 40.808,96.7113 41.101,96.3083 C45.8578889,89.7777222 55.0259896,84.6248116 62.3187464,81.1879671 L62.813,80.9563 C71.815,76.7593 81.365,73.2463 91.388,72.7683 Z M87.6173265,120.923881 L87.6160369,120.698595 C87.6300369,114.321808 91.344047,99.7622157 100.524157,99.7622157 C106.259134,99.7622157 109.740999,109.67102 110.343765,119.885575 L110.3647,120.302049 C110.630879,126.652574 108.888163,140.533717 100.524157,140.533717 C92.071637,140.533717 87.7042339,127.386546 87.6173265,120.923881 L87.6173265,120.923881 Z M222.772617,120.923881 L222.773907,120.698595 C222.759907,114.321808 219.045897,99.7622157 209.865787,99.7622157 C204.274184,99.7622157 200.824446,109.181773 200.096775,119.120207 L200.046179,119.885575 C199.684084,126.021693 201.313826,140.533717 209.865787,140.533717 C218.318307,140.533717 222.68571,127.386546 222.772617,120.923881 L222.772617,120.923881 Z M222.631889,65.001572 L223.2885,65.016 C234.0165,65.388 245.0515,71.743 247.9155,82.418 C248.0635,82.972 247.3805,83.345 246.9755,82.965 C238.154379,74.7062828 226.291005,82.5977143 217.457956,86.7341044 L214.213553,88.2329098 C202.826322,93.5306845 189.875019,99.7591481 177.2315,95.811 C171.2265,93.936 167.4125,87.766 169.1255,81.534 C170.64941,75.9890149 177.342493,71.3290091 183.139632,73.330419 L183.4025,73.426 C188.1125,75.2276667 193.90375,73.40225 198.768148,71.6025278 L202.76406,70.1019862 C209.189584,67.6637959 215.644819,64.9359718 222.631889,65.001572 L222.631889,65.001572 Z" id="ðŸ–-Ink" fill="#000000"></path>
    </g>
</svg>