<?xml version="1.0" encoding="UTF-8"?>
<svg width="289px" height="293px" viewBox="0 0 289 293" version="1.1" xmlns="http://www.w3.org/2000/svg" xmlns:xlink="http://www.w3.org/1999/xlink">
    <!-- Generator: Sketch 62 (91390) - https://sketch.com -->
    <title>face/Explaining</title>
    <desc>Created with Sketch.</desc>
    <g id="face/Explaining" stroke="none" stroke-width="1" fill="none" fill-rule="evenodd">
        <path d="M89.2809,215.2897 C101.5269,201.0597 122.1519,200.0687 139.2369,203.6267 C150.2009,205.9107 160.8759,209.7147 172.0119,211.1247 C177.2129,211.7837 182.4699,211.9807 187.7089,211.8837 C192.8549,211.7887 198.0089,210.7517 203.1369,210.9447 C203.9249,210.9737 204.2229,212.0087 203.5399,212.4297 C196.5049,216.7507 187.0279,218.1367 178.7179,218.9817 C178.7439,219.5967 178.7809,220.1967 178.8659,220.7057 C179.0929,222.0627 179.2999,223.4107 179.4669,224.7767 C179.8439,227.8577 180.2659,230.9287 180.6869,234.0037 C181.516795,240.055489 181.77767,246.298448 183.237237,252.245371 L183.4919,253.2337 C183.8299,254.4837 183.9069,255.6107 183.7939,256.6267 L184.1319,256.4737 L185.199446,255.956578 L185.8994,255.626324 C188.453377,254.442356 190.890307,253.58007 193.8929,253.8677 C196.1789,254.0857 198.0979,255.6447 198.1119,258.0857 C198.1689,269.0407 183.4049,272.5637 174.9599,274.6607 L172.483329,275.270827 C161.733854,277.892639 150.758471,280.190986 139.7029,280.7407 C121.9609,281.6217 102.0239,276.7277 90.4179,262.3367 C79.5889,248.9097 77.6039,228.8577 89.2809,215.2897 Z M169.8519,261.3177 C167.990247,244.824324 147.721699,243.917424 141.89098,254.376684 C139.303586,239.797591 101.0279,253.1167 104.0209,256.0147 C115.3649,267.0007 132.5799,267.9897 147.3789,265.9577 C154.9159,264.9227 162.4589,263.2377 169.8519,261.3177 Z M147.357836,218.088143 L142.262146,217.35466 L140.25517,217.078243 C127.622512,215.386527 113.415976,214.512736 103.0299,222.6117 C99.2379,225.5677 97.1039,229.4237 96.3069,233.5657 C106.134483,232.109117 115.998199,230.997888 125.891114,230.07257 L128.5899,229.8247 C134.7799,229.2667 140.9669,228.6787 147.1509,228.0617 L151.546025,227.616825 L155.9389,227.1607 C157.4849,226.9987 167.9039,226.4657 169.8629,226.8237 C170.0719,225.0637 170.3449,221.2547 170.7869,219.5417 C163.384817,219.792922 156.014934,219.243162 148.656305,218.26511 L147.357836,218.088143 Z M170.814304,144.367155 C178.365682,148.9572 189.871664,159.660291 181.748119,171.039573 C172.185929,181.073062 158.418535,169.568982 151.634201,164.366134 C145.343449,160.333898 138.275437,170.704507 144.112,175.412823 C193.135736,211.708059 213.030606,145.567387 174.633685,138.970386 C170.406047,138.243425 168.835891,142.947174 170.814304,144.367155 Z M184.3281,163.7039 L184.691094,163.506534 L184.813753,163.432311 C185.026054,163.294896 184.890861,163.309612 184.408176,163.476897 L184.0461,163.6069 L184.0461,163.8629 C184.1391,163.8059 184.2381,163.7629 184.3281,163.7039 Z M87.6173265,122.923881 L87.6160369,122.698595 C87.6300369,116.321808 91.344047,101.762216 100.524157,101.762216 C106.259134,101.762216 109.740999,111.67102 110.343765,121.885575 L110.3647,122.302049 C110.630879,128.652574 108.888163,142.533717 100.524157,142.533717 C92.071637,142.533717 87.7042339,129.386546 87.6173265,122.923881 L87.6173265,122.923881 Z M222.772617,120.923881 L222.773907,120.698595 C222.759907,114.321808 219.045897,99.7622157 209.865787,99.7622157 C204.274184,99.7622157 200.824446,109.181773 200.096775,119.120207 L200.046179,119.885575 C199.684084,126.021693 201.313826,140.533717 209.865787,140.533717 C218.318307,140.533717 222.68571,127.386546 222.772617,120.923881 L222.772617,120.923881 Z M92.8551,58.2848 C100.3471,57.1458 110.2681,59.3098 113.7611,66.9278 C115.3171,70.3218 113.4741,74.0748 109.5511,74.2628 C100.0701,74.7168 91.5671,72.6068 83.2451,78.7718 C79.6636455,81.4254364 76.6525752,85.0995686 74.1257849,88.7644236 L73.1697217,90.1591512 L72.3778765,91.3082057 C70.6621184,93.8307086 69.0374104,96.5713104 69.2911,99.6148 C69.3661,100.5158 68.4451,101.3708 67.5701,101.3348 C62.1161,101.1108 61.5291,94.2728 62.2461,90.1658 C63.5801,82.5438 67.2691,75.3888 72.3821,69.6258 C77.7521,63.5738 84.8411,59.5038 92.8551,58.2848 Z M196.0443,67.5353 C201.2103,64.2143 207.8183,62.9383 213.8703,63.4273 C225.8033,64.3883 245.8223,74.5323 243.1873,89.1073 C242.3743,93.6023 236.1223,95.9743 232.4383,93.4803 C228.4773,90.7993 227.5133,86.6323 224.5653,83.1283 C222.2133,80.3293 219.2323,78.3043 216.0403,76.5793 C212.894089,74.8778263 209.25425,73.8467903 205.683661,73.4708871 L205.0893,73.4143 C202.9403,73.2313 192.0883,73.2803 193.6813,77.3313 C193.9933,78.1243 192.8133,78.7523 192.2713,78.1523 C188.9443,74.4723 192.7123,69.6773 196.0443,67.5353 Z" id="ðŸ–-Ink" fill="#000000"></path>
    </g>
</svg>