<?xml version="1.0" encoding="UTF-8"?>
<svg width="289px" height="293px" viewBox="0 0 289 293" version="1.1" xmlns="http://www.w3.org/2000/svg" xmlns:xlink="http://www.w3.org/1999/xlink">
    <!-- Generator: Sketch 62 (91390) - https://sketch.com -->
    <title>face/Eyes Closed</title>
    <desc>Created with Sketch.</desc>
    <g id="face/Eyes-Closed" stroke="none" stroke-width="1" fill="none" fill-rule="evenodd">
        <path d="M182.2439,225.9652 L182.935568,225.805218 C188.460204,224.502539 193.7763,222.73084 198.9219,226.1542 C203.8249,229.4152 204.5059,235.4472 200.6859,239.8472 C196.759696,244.370955 191.543789,244.117821 186.039297,244.179866 L185.6949,244.1842 C181.1239,244.2472 176.4769,244.1792 171.9239,243.7742 C167.6795,243.3962 163.40756,242.79221 159.211598,241.999409 L156.7304,241.51302 C154.195197,240.999997 151.698275,240.3327 150.3919,237.8792 C148.1139,233.6022 165.0459,230.2462 167.1029,229.6592 C172.0949,228.2342 177.1809,227.1122 182.2439,225.9652 Z M191.634193,174.394641 C188.935096,177.193987 185.36999,179.105754 181.367913,180.295732 C171.30965,183.286456 158.475622,181.693303 150.260436,178.645782 C148.556171,178.013644 146.963437,176.725048 146.048312,175.11365 C145.212412,173.641759 144.929477,171.91077 145.565716,170.145361 C145.746918,169.643897 145.967267,169.151539 146.18863,168.666648 C146.791277,167.347561 148.019458,166.321346 149.46204,165.734482 C150.960207,165.125004 152.663865,165.000599 154.030205,165.430262 C154.213756,165.487988 154.402027,165.547335 154.594782,165.608097 C159.799869,167.24887 168.337051,169.966044 175.409899,169.439413 C179.653911,169.123412 183.386915,167.62397 185.317652,163.740235 C186.335149,161.692395 186.053343,159.667058 185.150862,157.812727 C183.790166,155.016898 181.064689,152.584134 178.768455,150.90779 C175.531656,148.544107 172.079313,147.600482 168.508515,146.60419 C167.163013,146.22878 165.800236,145.848174 164.424715,145.392793 C163.971448,145.243158 163.574107,144.949174 163.276585,144.567009 C162.982731,144.189555 162.789851,143.72864 162.72939,143.266187 C162.666777,142.787275 162.744136,142.309698 162.966096,141.898081 C163.171987,141.516264 163.501275,141.180912 163.99334,140.960603 C170.979515,137.830669 180.015055,139.898917 186.834896,144.822934 C190.243367,147.283895 193.08628,150.445245 194.838513,153.977859 C196.46466,157.256278 197.155548,160.853243 196.518445,164.521349 C195.805094,168.627862 194.066972,171.871505 191.634193,174.394641 Z M77.1362,104.5549 C79.0992,103.6899 80.7122,107.7389 81.1162,108.8429 L81.9517138,111.133296 C83.3146459,114.826319 84.879269,118.580934 87.7452,121.3219 C90.1442,123.6169 93.9882,125.5619 96.7712,122.8769 C99.4112,120.3299 98.1242,117.4609 98.5132,114.3359 C99.2152,108.6839 106.9222,103.0349 111.5562,108.9329 C122.0242,122.2589 105.8282,140.7909 90.9102,137.5399 C83.3233034,135.885917 77.2160347,129.802709 74.7069246,122.568683 L74.5782,122.1869 C73.0762,117.6039 71.5572,107.0159 77.1362,104.5549 Z M212.219928,113.835683 L212.1476,113.6667 C207.1616,102.3257 224.9476,97.4517 226.4556,107.6347 L226.551051,108.321775 C228.017921,119.626038 224.92704,134.8277 211.0816,135.9547 C195.5396,137.2207 189.0676,119.8797 190.4556,107.1547 C190.7046,104.8767 193.4686,104.5617 194.3226,106.6317 L194.504313,107.083458 C197.013691,113.478563 199.396659,125.777394 208.2386,125.7647 C214.145986,125.755829 213.864071,117.781513 212.219928,113.835683 L212.219928,113.835683 Z M223.4962,81.0054 C232.4302,80.6884 232.4182,94.6704 223.4962,94.8804 C193.6942,95.5814 163.8692,96.5134 134.0582,96.6734 L128.639761,96.706498 C100.637912,96.8941456 72.5399273,97.2767636 44.6202,94.9264 C42.2372,94.7264 42.6802,91.3804 44.6712,91.5154 C73.9422,87.3494 103.5702,86.1314 133.0642,84.5484 C163.1812,82.9314 193.3562,82.0754 223.4962,81.0054 Z" id="ðŸ–-Ink" fill="#000000"></path>
    </g>
</svg>