<?xml version="1.0" encoding="UTF-8"?>
<svg width="289px" height="293px" viewBox="0 0 289 293" version="1.1" xmlns="http://www.w3.org/2000/svg" xmlns:xlink="http://www.w3.org/1999/xlink">
    <!-- Generator: Sketch 62 (91390) - https://sketch.com -->
    <title>face/Fear</title>
    <desc>Created with Sketch.</desc>
    <g id="face/Fear" stroke="none" stroke-width="1" fill="none" fill-rule="evenodd">
        <path d="M199.7227,205.9251 L200.547923,205.882374 C206.179192,205.562311 211.647049,204.739007 216.6767,207.8941 C223.3627,212.0871 223.3927,221.6231 216.6767,225.8081 C211.3927,229.1031 205.6507,228.0211 199.7227,227.8671 C194.8407,227.7401 189.9577,227.6521 185.0747,227.6001 C175.3157,227.4981 165.5627,227.4741 155.8027,227.5231 C146.997575,227.56685 138.184794,227.4636 129.381774,227.251536 L125.6097,227.1541 C116.5807,226.9061 107.1267,227.2181 98.2327,225.4601 L97.8507,225.3941 L97.8617,225.3751 L97.8617,225.3751 C96.3207,224.8571 95.5057,222.4001 97.3477,221.5461 C106.1727,217.4551 116.2617,215.7401 125.7387,213.7941 C135.3347,211.8261 145.0957,210.4041 154.8277,209.2901 C164.5467,208.1801 174.3367,207.3961 184.0997,206.7731 C189.3037,206.4391 194.5127,206.1641 199.7227,205.9251 Z M170.1894,80.204 L170.832946,79.7729294 C177.901331,75.1058476 188.057997,70.6120149 196.2024,74.155 C196.6624,74.355 197.0514,74.616 197.3894,74.916 C199.3884,74.955 201.4004,75.121 203.4184,75.425 C219.3614,77.828 234.0934,88.291 241.2964,102.696 C249.4834,119.069 245.5944,136.323 231.1074,147.459 C223.9894,152.93 215.6244,156.869 206.6194,157.757 C203.6754,158.047 200.5554,158.104 197.7294,157.212 C199.0674,160.06 200.0854,163.037 200.6094,166.177 C202.4024,176.927 198.1384,185.791 188.1254,190.433 C179.3264,194.514 167.1484,196.078 158.4464,190.927 C151.0904,186.575 153.4994,172.167 163.1784,173.458 C169.7124,174.329 175.6024,176.51 182.0594,173.724 C187.3224,171.455 184.1294,163.796 182.5434,159.767 C179.890224,153.033824 175.985393,146.694834 172.818966,140.157266 L172.2344,138.929 C170.2434,134.666 167.7704,130.162 165.8774,125.568 C164.8354,130.964 162.9664,136.259 160.7644,141.161 C155.5384,152.793 145.4224,159.91 133.3694,163.243 C120.9774,166.668 106.4344,167.463 93.6584,167.042 C80.6644,166.615 66.9844,163.21 57.4774,153.792 C40.0614,136.539 45.0634,106.353 63.3904,91.932 C75.2454,82.603 91.9494,76.21 107.2894,77.866 C114.9734,76.137 123.5674,77.119 131.2554,78.861 C141.6574,81.218 151.5884,86.263 158.3884,94.298 C158.8924,93.034 159.4744,91.823 160.1404,90.667 C159.8404,90.529 159.6544,90.085 159.9504,89.819 C160.4924,89.332 161.0494,88.865 161.6064,88.397 C163.8214,85.291 166.6824,82.586 170.1894,80.204 Z M44.1714,161.0659 C43.5454,160.1779 44.7694,159.0259 45.6474,159.5909 C52.8414,164.2299 60.3724,168.4469 68.6214,170.9049 C76.6794,173.3059 85.0564,173.0579 93.1504,175.1099 C96.1924,175.8809 95.7094,179.8359 93.1504,180.8049 C84.2424,184.1809 74.1914,181.3479 65.7284,177.7649 C57.1424,174.1309 49.5844,168.7259 44.1714,161.0659 Z M92.4534,86.96 L92.6684,86.701 L92.6684,86.701 L92.1454,86.875 L92.1454,86.875 C82.0634,90.269 73.7614,95.865 67.0134,104.034 C55.5134,117.955 55.3764,140.09 72.5724,149.498 C81.8434,154.569 92.7874,154.808 103.0814,154.271 L105.16324,154.159625 C114.200145,153.661342 123.422186,152.922 132.1424,150.478 C141.6534,147.812 148.2614,142.064 151.9004,132.801 L152.202526,132.019828 C155.832456,122.485535 157.72276,111.882573 150.9834,103.253 C139.5674,88.636 113.1884,85.716 96.8844,92.703 C92.9794,94.376 89.8454,90.293 92.4534,86.96 Z M197.0854,83.038 C196.8144,83.302 196.5244,83.543 196.2024,83.738 C192.9294,85.701 189.2484,85.721 185.6204,86.621 C182.2784,87.45 179.0074,88.462 175.9314,90.027 C171.0994,92.482 166.1164,95.419 161.5484,98.622 C162.5274,100.186 163.4034,101.837 164.1544,103.585 C166.2284,108.416 166.9274,113.503 166.7094,118.611 C169.8924,121.365 172.5534,124.79 175.3704,127.885 L177.85527,130.618364 C180.753202,133.815136 183.631844,137.047667 186.3284,140.403 C187.9314,142.397 189.5584,144.439 191.1214,146.541 C191.3264,145.914 191.6154,145.3 192.0204,144.717 C193.5434,142.521 195.8944,141.412 198.5814,142.047 C200.9334,142.605 202.5054,143.669 204.9624,143.685 C207.9714,143.705 210.8714,143.057 213.7194,142.128 C219.3174,140.302 224.8034,137.021 228.8974,132.771 C238.1374,123.176 233.2624,109.655 226.0544,100.515 C218.7534,91.256 208.2684,85.244 197.0854,83.038 Z M114.7933,106.0842 C117.7593,105.2282 122.1723,106.5782 123.4773,109.6182 L124.4133,111.8312 C124.3843,111.7652 124.3613,111.7142 124.3343,111.6542 C124.6653,112.4382 124.9823,113.1952 125.2363,113.9992 L126.1133,114.6792 L126.1133,114.6792 C126.8623,115.5102 127.5553,116.3872 128.1913,117.3122 C129.6953,119.8822 130.1313,123.1732 129.3613,126.0532 C128.0903,130.8122 123.7203,133.8672 118.8723,133.896639 C104.6813,133.9802 101.2033,110.0082 114.7933,106.0842 Z M200.4034,101.7768 C206.9604,101.4838 211.3274,107.2748 211.8504,113.2238 C212.1484,116.6098 211.4634,120.3118 210.4924,123.5498 C209.0444,128.3808 204.4404,131.4078 199.4764,130.7418 C195.5254,130.2108 192.0354,127.2068 191.0504,123.3458 C189.7524,120.1618 189.0194,116.6588 188.9564,113.2238 C188.8364,106.8098 194.2964,102.0498 200.4034,101.7768 Z M113.8751,48.2473 C120.5251,47.1753 126.8781,50.4073 127.8451,57.5543 C128.8191,64.7633 123.5101,69.5273 116.8511,70.2353 C104.2971,71.5693 91.4791,71.8863 78.8651,72.4373 C73.6039571,72.6661571 68.336202,72.7635041 63.0700213,72.8099472 L60.4371,72.8293 C55.5391,72.8583 49.1521,73.8253 44.7261,71.4143 C44.4381,71.2583 44.4491,70.9033 44.6321,70.6793 C47.7422389,66.8497167 54.1729218,65.2177606 58.7697017,63.5310609 L59.1591,63.3863 C64.9781,61.1913 70.8621,59.1363 76.8241,57.3573 L79.8536596,56.4585454 C90.9924264,53.1778972 102.45435,50.0916333 113.8751,48.2473 Z M156.0878,44.741 C160.1978,43.196 164.2538,44.159 167.0488,46.772 C176.39605,49.3744167 186.01555,51.3684722 195.42358,53.6468918 L197.9838,54.276 C209.7778,57.219 222.7378,59.487 233.7058,64.882 C234.8698,65.455 234.1378,66.941 233.1138,67.066 C220.8958,68.55 207.7328,66.191 195.5858,64.771 C183.1408,63.316 170.6328,60.916 158.1508,59.976 C149.1918,59.301 147.8898,47.824 156.0878,44.741 Z" id="ðŸ–-Ink" fill="#000000"></path>
    </g>
</svg>