<?xml version="1.0" encoding="UTF-8"?>
<svg width="289px" height="293px" viewBox="0 0 289 293" version="1.1" xmlns="http://www.w3.org/2000/svg" xmlns:xlink="http://www.w3.org/1999/xlink">
    <!-- Generator: Sketch 62 (91390) - https://sketch.com -->
    <title>face/Hectic</title>
    <desc>Created with Sketch.</desc>
    <g id="face/Hectic" stroke="none" stroke-width="1" fill="none" fill-rule="evenodd">
        <path d="M151.8819,205.7335 C161.2039,202.3935 171.0979,203.6495 180.5019,207.1185 L181.345095,207.434649 C189.983653,210.728082 200.539773,216.447389 204.0739,225.3805 C204.7739,227.1515 205.1019,228.9635 205.1459,230.7665 C206.3009,230.8805 207.4459,231.0305 208.5809,231.2295 C210.9169,231.6405 210.8069,235.3525 208.5809,235.8405 C207.1709,236.1495 205.7349,236.3755 204.2859,236.5445 C202.9459,240.7105 200.1729,244.4915 196.6709,247.1435 C188.4729,253.3505 177.1749,254.5195 167.2649,255.4685 C156.306381,256.51813 145.293152,256.262124 134.375229,254.934437 L130.531693,254.443187 C121.591212,253.281387 111.6223,251.787833 104.0209,247.0045 C96.8659,242.5035 91.9719,233.8125 95.0009,225.3715 C98.1019,216.7275 108.7319,213.0595 116.6219,210.2845 C127.9589,206.2965 140.0229,204.7325 151.8819,205.7335 Z M136.0649,234.7015 C136.1759,237.2275 136.2709,239.7555 136.3709,242.2835 C136.4009,243.0585 136.1779,243.7585 135.7979,244.3645 C141.2199,245.0015 146.6899,245.3015 152.1449,245.297578 C151.1469,242.2825 151.0939,238.8205 151.0369,235.6015 C146.0419,235.3575 141.0529,235.0675 136.0649,234.7015 Z M156.1409,235.8375 L156.576078,237.470616 C157.249782,240.029493 157.862488,242.661735 157.7719,245.1875 C160.3149,245.0915 162.8499,244.9395 165.3709,244.7205 L168.587356,244.447188 C169.3183,244.38434 170.0583,244.3189 170.8039,244.2485 C170.9689,241.6305 171.2769,238.9775 171.5509,236.3595 C166.4129,236.2205 161.2759,236.0545 156.1409,235.8375 Z M176.5219,236.4735 C176.7559,238.7865 176.9739,241.1515 177.0659,243.4945 C181.1939,242.8515 185.2429,241.8505 188.7019,240.0815 C190.4419,239.1915 191.8369,238.1155 192.8769,236.9235 C189.3829,236.8415 185.8989,236.6645 182.5189,236.6095 C181.852567,236.5985 181.186233,236.584611 180.5199,236.569352 L176.5219,236.4735 Z M104.8169,231.1525 C105.0869,235.9795 112.7179,239.4245 116.6469,240.5585 C120.3959,241.6415 124.2119,242.5195 128.0669,243.2175 C127.9939,242.8945 127.9579,242.5765 127.9839,242.2835 C128.2289,239.5595 128.4699,236.8365 128.7269,234.1165 L126.657991,233.952223 C119.386652,233.392275 111.825422,232.943891 104.8169,231.1525 Z M152.4379,212.7605 C153.0489,218.8085 153.8969,224.8225 155.0269,230.7945 L157.0959,230.8385 L157.0959,230.8385 C162.0629,230.9175 167.0309,230.9495 171.9989,230.9555 C172.0119,230.7115 172.0249,230.4685 172.0339,230.2275 C172.2199,225.1755 172.1489,220.1225 171.9639,215.0725 C165.6529,213.6795 159.0469,213.2255 152.4379,212.7605 Z M174.5559,215.7065 C175.1089,220.7775 175.5699,225.8575 175.9899,230.9435 L180.342863,230.936315 C181.068233,230.934278 181.793567,230.930833 182.5189,230.9245 C186.5959,230.8865 190.7849,230.6195 194.9689,230.5075 C194.6569,228.3235 193.3709,226.1025 191.0009,224.0815 C185.9849,219.8045 180.4209,217.2805 174.5559,215.7065 Z M148.5579,211.5995 C143.7619,212.1135 139.0019,212.9555 134.3109,214.1345 C135.5359,217.6855 135.3019,221.7495 135.5609,225.4585 C135.6759,227.0915 135.7699,228.7255 135.8559,230.3585 C140.8739,230.4815 145.8919,230.5995 150.9099,230.7065 C150.7499,224.6935 150.8529,218.6815 151.1919,212.6725 L150.6449,212.6335 L150.6449,212.6335 C149.8329,212.5755 149.1079,212.1705 148.5579,211.5995 Z M131.1319,214.9875 C128.9389,215.6145 126.7629,216.3105 124.6079,217.0905 L122.257396,217.939803 C116.591246,220.004636 109.092645,222.994202 105.9339,227.6115 C105.4029,228.3875 105.0839,229.1385 104.9269,229.8635 C112.8699,229.1305 121.1059,229.8695 129.1209,230.1715 C129.230233,229.1235 129.343122,228.075944 129.462233,227.028833 L129.6459,225.4585 C130.0559,222.0675 130.0519,218.3005 131.1319,214.9875 Z M170.814304,142.367155 C178.365682,146.9572 189.871664,157.660291 181.748119,169.039573 C172.185929,179.073062 158.418535,167.568982 151.634201,162.366134 C145.343449,158.333898 138.275437,168.704507 144.112,173.412823 C193.135736,209.708059 213.030606,143.567387 174.633685,136.970386 C170.406047,136.243425 168.835891,140.947174 170.814304,142.367155 Z M78.2566,86.7128 C88.9876,68.0628 115.5366,67.8478 130.7256,82.0898 C145.2276,95.6888 147.0216,118.8898 135.4386,134.7938 C123.0936,151.7438 99.1126,156.4328 79.6656,150.3918 C61.4356,144.7288 51.6366,124.9498 57.8856,106.8278 C61.2656,97.0258 69.0456,90.2488 78.2566,86.7128 Z M68.2578,55.4751 C77.3268,47.4471 93.8058,39.6941 106.0348,43.6451 C113.0658,45.9161 116.1308,57.2451 108.2818,60.8361 C99.1928,64.9941 88.7138,63.3021 79.4628,67.6121 C75.5778,69.4231 71.9238,71.6861 69.2188,75.0051 C67.0878,77.6211 64.9198,81.0631 61.8378,82.5711 C61.0278,82.9681 59.9308,82.9781 59.2818,82.2421 C52.5258,74.6001 62.3588,60.6961 68.2578,55.4751 Z M197.8016,43.2466 C203.4066,41.6736 209.6246,41.7056 215.3186,42.6936 C221.0106,43.6816 226.7896,46.0406 231.4366,49.4816 L231.976058,49.8845105 C237.049154,53.7073503 243.103014,59.2694621 242.7786,66.0416 C242.5076,71.6966 236.5586,75.5216 231.4226,72.5576 C227.2356,70.1406 225.2656,65.2986 221.7206,62.0746 C218.7956,59.4136 215.3596,57.3156 211.6936,55.8456 C207.6216,54.2126 203.5426,53.4476 199.1726,53.3746 C195.8076,53.3186 192.4226,54.4226 189.1206,54.7756 C189.3926,55.3336 186.7826,55.0736 185.2866,54.5786 C184.1786,54.1066 184.1726,52.7056 184.5566,51.7966 C186.4616,47.2936 193.3926,44.4826 197.8016,43.2466 Z M203.9032,74.8906 C213.2922,73.0266 223.7312,75.0676 231.5892,80.5716 C245.6792,90.4406 252.0002,110.8506 245.4522,126.8136 C238.9542,142.6566 221.1932,152.7356 204.2572,149.7086 C186.9682,146.6186 173.5942,129.2086 175.4592,111.6686 C176.2522,104.2016 179.5092,97.4716 184.3282,92.3846 C184.3652,92.2096 184.4062,92.0326 184.4752,91.8506 C187.8632,82.8336 194.2832,76.8016 203.9032,74.8906 Z M117.9886,89.2298 C107.2236,82.7498 91.3966,86.3678 82.1496,94.1908 C80.3136,95.7448 78.2416,95.2898 77.1146,93.9338 C70.8386,98.9998 66.4076,106.0868 65.6956,114.7168 C64.4206,130.1958 75.4436,140.3758 90.2956,141.5468 C105.4736,142.7438 121.1816,138.5078 128.3306,123.9648 C134.5036,111.4098 129.9726,96.4428 117.9886,89.2298 Z M219.8982,89.8996 C211.4692,86.5946 199.3802,88.5476 192.0202,94.2036 C186.4172,101.4276 183.6902,111.3396 185.8442,119.4576 C188.9562,131.1816 200.2062,140.3146 212.5652,139.0156 C224.0032,137.8136 234.3372,128.6576 235.5652,117.0326 C236.7462,105.8516 230.6102,94.0996 219.8982,89.8996 Z M212.7466,107.4439 C214.6676,106.0739 216.9596,107.6169 217.6626,109.4439 L218.0651,110.2719 C218.2776,110.7149 218.4961,111.1729 218.5036,111.1899 L218.5796,111.4109 C218.6816,111.6019 218.8036,111.7799 218.9196,111.9609 C219.0096,112.0229 219.7566,112.9579 219.8566,113.0799 C221.0616,114.5679 221.7016,115.9289 221.6636,117.8869 C221.5906,121.7579 217.9786,124.4839 214.2336,123.5469 C210.2056,122.5389 208.4906,118.3729 208.8576,114.5479 C209.1486,111.5199 210.2516,109.2229 212.7466,107.4439 Z M103.3878,108.1833 C105.1648,106.5673 107.9068,106.4313 109.6608,108.1833 C110.6238,109.1453 111.0138,110.2173 111.7048,111.3363 L112.032245,111.850306 C112.75144,112.954536 113.503533,114.0147 113.6968,115.3693 C114.1548,118.5583 113.1658,121.5263 110.0238,122.8533 C106.8988,124.1713 104.0048,122.8233 102.1018,120.2573 C99.8498,117.2173 100.5338,110.7773 103.3878,108.1833 Z" id="ðŸ–-Ink" fill="#000000"></path>
    </g>
</svg>