<?xml version="1.0" encoding="UTF-8"?>
<svg width="289px" height="293px" viewBox="0 0 289 293" version="1.1" xmlns="http://www.w3.org/2000/svg" xmlns:xlink="http://www.w3.org/1999/xlink">
    <!-- Generator: Sketch 62 (91390) - https://sketch.com -->
    <title>face/Loving Grin 1</title>
    <desc>Created with Sketch.</desc>
    <g id="face/Loving-Grin-1" stroke="none" stroke-width="1" fill="none" fill-rule="evenodd">
        <path d="M96.2841973,218.87 C96.3895,207.852 105.9375,205.952 115.0075,207.421 C130.3625,209.905 145.7745,211.653 161.3375,211.968 L164.0195,212.015 L164.0195,212.015 C164.4515,211.385 165.1735,210.907 166.1535,210.802 C174.7805,209.87 183.5935,210.021 192.2675,209.765 C199.8345,209.543 207.6105,208.786 215.1765,209.38 L215.778735,209.432992 C225.025914,210.328302 234.784223,215.047915 233.6675,225.9 C232.6405,235.949 223.0345,244.845 215.3635,250.429 C213.8125,251.548 212.2265,252.597 210.5945,253.553 C210.0825,254.206 209.3355,254.661 208.4725,254.754 C200.9185,258.834 192.5835,261.248 183.9555,262.052 C165.6635,263.754 144.3985,261.912 126.8295,253.985 C121.1175,251.408 115.7895,248.19 111.0795,244.238 C103.8165,238.141 96.2035,228.896 96.2841973,218.87 Z M168.3565,240.717 C161.0235,240.496 153.7025,241.522 146.7185,243.784 C141.9855,245.311 137.6715,248.248 133.1365,250.289 C148.4205,256.118 166.1765,257.389 181.8565,256.328 C188.7355,255.862 195.4045,254.276 201.6185,251.548 C200.6505,250.849 199.6705,250.138 198.6445,249.519 C195.5445,247.642 192.3025,246.045 188.9215,244.774 C182.3355,242.303 175.3865,240.939 168.3565,240.717 Z M170.814304,144.367155 C168.835891,142.947174 170.406047,138.243425 174.633685,138.970386 C213.030606,145.567387 193.135736,211.708059 144.112,175.412823 C138.275437,170.704507 145.343449,160.333898 151.634201,164.366134 L153.867805,166.088187 C161.129962,171.654422 173.142148,180.069714 181.748119,171.039573 C189.871664,159.660291 178.365682,148.9572 170.814304,144.367155 Z M196.8085,94.3093 C204.970734,87.345183 215.208102,92.4775284 221.217135,99.5311113 L222.27638,100.792164 C223.4783,102.23114 224.8095,103.9073 225.6095,105.6993 C232.2685,100.0293 241.2985,96.0393 249.9395,98.6293 C258.3195,101.1503 263.0985,109.1503 261.6595,117.7393 C260.026713,127.506513 252.636442,134.071361 244.695959,139.147715 L242.44409,140.577687 C232.901887,146.660718 223.972833,152.788755 216.1195,161.1503 C214.8385,162.5093 212.0695,162.3293 211.2295,160.5203 L210.55325,159.064425 L210.55325,159.064425 L209.8695,157.6093 C204.2985,145.7303 198.3295,133.9293 193.4285,121.7703 C189.7985,112.7593 188.6195,101.2893 196.8085,94.3093 Z M103.765463,100.617612 L105.0089,99.1798 C110.9889,92.2198 121.1189,87.5598 129.1099,94.3098 C137.6189,101.4998 135.9489,113.3898 132.1589,122.5598 C127.5949,133.6198 122.264322,144.435889 117.142811,155.284499 L116.0489,157.6098 C115.5889,158.5798 115.1389,159.5498 114.6899,160.5198 C113.8489,162.3298 111.0699,162.5098 109.7989,161.1498 C102.189809,153.0498 93.5807182,147.056412 84.3856017,141.165878 L81.6099,139.3998 C73.5389,134.2798 65.9089,127.6698 64.2489,117.7398 C62.8289,109.1698 67.5789,101.1198 75.9689,98.6288 C84.6289,96.0598 93.6389,100.0198 100.3089,105.6998 C101.1039,103.8623 102.47265,102.131675 103.765463,100.617612 L103.765463,100.617612 Z M114.7074,50.6855 C117.6284,54.4775 114.5094,60.6745 110.2444,61.6545 C104.9624,62.8695 99.6264,62.1305 94.4404,63.6375 C89.6884,65.0185 85.1364,67.7855 81.0634,70.5435 C76.4184,73.6875 72.1404,77.1975 68.2094,81.1965 C65.8714,83.5755 62.9254,89.2115 59.3194,89.3165 C55.7344,89.4215 60.5464,78.2105 60.9444,77.2405 C63.7714,70.3355 67.7424,63.9815 72.7094,58.4155 C82.5104,47.4325 103.2674,35.8435 114.7074,50.6855 Z M224.159036,47.6504359 L226.6057,48.3301 C232.6597,50.0131 239.1227,52.0811 244.3167,55.7101 L244.724563,55.9989329 L245.353272,56.458844 C251.874046,61.3200934 261.096721,71.0199969 256.4787,79.4821 C256.1597,80.0651 255.4837,80.1231 254.9397,79.8851 C248.7957,77.1941 244.2407,71.8201 237.7057,69.5721 L236.50015,69.1615409 C230.171147,67.0297024 222.341185,64.7882515 215.5287,64.9921 C210.738954,66.5489889 204.269819,65.2594389 203.022929,59.4287798 L202.9667,59.1431 L202.8587,58.5391 C202.1407,54.5551 203.2087,49.4761 207.3277,47.5561 C212.97145,44.92585 218.477388,46.0961625 224.159036,47.6504359 Z" id="ðŸ–-Ink" fill="#000000"></path>
    </g>
</svg>