<?xml version="1.0" encoding="UTF-8"?>
<svg width="289px" height="293px" viewBox="0 0 289 293" version="1.1" xmlns="http://www.w3.org/2000/svg" xmlns:xlink="http://www.w3.org/1999/xlink">
    <!-- Generator: Sketch 62 (91390) - https://sketch.com -->
    <title>face/Loving Grin 2</title>
    <desc>Created with Sketch.</desc>
    <g id="face/Loving-Grin-2" stroke="none" stroke-width="1" fill="none" fill-rule="evenodd">
        <path d="M167.9366,192.8326 C176.4346,192.5446 184.9936,191.8846 193.4456,193.1236 C207.4876,195.1806 221.7086,205.1576 221.663813,220.6746 C221.5886,246.7046 192.2546,256.5556 171.3476,259.9506 L169.026212,260.3252 C143.853379,264.356201 113.84608,268.00118 91.2606,253.7286 C80.6176,247.0026 73.8696,235.6376 76.9856,222.8736 C79.9536,210.7106 90.2196,201.9746 101.7426,198.1996 C115.1856,193.7946 129.0956,196.0566 142.7746,197.8696 C143.7716,198.0026 144.7656,198.1276 145.7596,198.2556 C148.9416,197.2396 152.0696,195.8706 155.2596,194.9306 C159.4616,193.6916 163.5476,192.9806 167.9366,192.8326 Z M164.844896,226.1931 L151.656663,227.921328 L151.656663,227.921328 C146.719773,228.568558 141.781787,229.191816 136.844896,229.795668 C137.477072,236.521376 137.585539,243.321281 137.362032,250.1931 C146.257419,250.000187 155.201013,248.849557 163.932056,247.380448 C164.509451,240.331697 164.851286,233.273813 164.844896,226.1931 Z M125.844896,231.1931 C113.86176,232.498058 101.868505,233.664427 89.8448961,234.656728 C92.5542834,239.890975 99.4997584,243.21047 104.819601,245.087526 C110.902794,247.233999 117.180478,248.525653 123.550349,249.1931 C124.656588,243.263688 125.372721,237.24447 125.844896,231.1931 Z M212.8419,221.1931 C203.783266,222.678998 194.447563,223.325088 185.407621,224.463176 L174.844896,225.792779 L174.844896,225.792779 C175.928986,232.219562 176.7481,238.694774 177.265956,245.1931 L178.911506,244.870918 C186.320768,243.386194 193.764899,241.398766 200.312201,237.634834 L200.866263,237.308147 C206.10101,234.146375 213.009628,227.861612 212.8419,221.1931 Z M126.844896,211.1931 C120.919766,211.725643 114.659039,211.8295 108.950531,213.085728 C100.608882,214.920902 90.5724134,219.52044 88.9943241,228.911762 C88.736173,230.449729 88.8237199,231.872791 89.1705404,233.1931 C101.52139,230.851899 113.890198,228.701838 126.290432,226.700934 C126.587867,221.527973 126.739391,216.346174 126.844896,211.1931 Z M158.919623,208.1931 L150.803641,208.899984 L150.803641,208.899984 C144.822168,209.42204 138.832981,209.590655 132.844896,210.034889 C134.28737,214.715021 135.327626,219.435146 136.039497,224.1931 C140.960878,223.433254 145.885566,222.689621 150.816865,221.967605 L164.844896,219.915048 L164.844896,219.915048 L164.825959,216.372543 C164.809143,213.993846 164.777309,211.586646 164.690621,209.18425 L164.106579,209.136693 L164.106579,209.136693 C162.352248,208.942137 160.628773,208.600585 158.919623,208.1931 Z M208.844896,213.772288 C203.237051,208.737383 192.736117,209.084912 186.029401,209.290658 C181.002091,209.444167 175.90276,209.969725 170.844896,209.962263 C171.792086,213.000476 172.691262,216.057877 173.428935,219.1931 L184.237596,217.616427 L184.237596,217.616427 C192.364007,216.432057 200.613727,214.799951 208.844896,213.772288 Z M170.814304,144.367155 C178.365682,148.9572 189.871664,159.660291 181.748119,171.039573 C172.185929,181.073062 158.418535,169.568982 151.634201,164.366134 C145.343449,160.333898 138.275437,170.704507 144.112,175.412823 C193.135736,211.708059 213.030606,145.567387 174.633685,138.970386 C170.406047,138.243425 168.835891,142.947174 170.814304,144.367155 Z M244.785835,118.774001 C242.202576,135.655796 215.663649,159.196325 212.062317,159.196325 C208.460985,159.196325 177.625371,129.24444 177.625371,115.920887 C177.625371,102.597334 190.94622,84.7128809 212.062317,107.230782 C224.071147,92.1948429 247.369093,101.892207 244.785835,118.774001 Z M126.884,103.7684 C133.128,112.8854 130.751,124.2274 124.395,132.5394 C118.770429,139.897 99.8496345,156.361101 96.8867018,156.78525 C93.2344248,157.308079 76.517,138.4024 72.65,135.2294 C68.783,132.0564 58.0621266,121.858033 60.608,112.4114 C63.057,103.3234 76.1615358,87.9555018 95.2962581,103.7684 C101.379566,88.6863818 121.244,95.5334 126.884,103.7684 Z M64.7094,74.4155 C74.5104,63.4325 95.2674,51.8435 106.7074,66.6855 C109.6284,70.4775 106.5094,76.6745 102.2444,77.6545 C96.9624,78.8695 91.6264,78.1305 86.4404,79.6375 C81.6884,81.0185 77.1364,83.7855 73.0634,86.5435 C68.4184,89.6875 64.1404,93.1975 60.2094,97.1965 C57.8714,99.5755 54.9254,105.2115 51.3194,105.3165 C47.7344,105.4215 52.5464,94.2105 52.9444,93.2405 C55.7714,86.3355 59.7424,79.9815 64.7094,74.4155 Z M183.3277,47.5561 C188.97145,44.92585 194.477388,46.0961625 200.159036,47.6504359 L202.6057,48.3301 C208.6597,50.0131 215.1227,52.0811 220.3167,55.7101 L220.724563,55.9989329 C227.25785,60.6861748 237.247308,70.7440588 232.4787,79.4821 C232.1597,80.0651 231.4837,80.1231 230.9397,79.8851 C224.7957,77.1941 220.2407,71.8201 213.7057,69.5721 L212.50015,69.1615409 C206.171147,67.0297024 198.341185,64.7882515 191.5287,64.9921 C186.738954,66.5489889 180.269819,65.2594389 179.022929,59.4287798 L178.9667,59.1431 L178.8587,58.5391 C178.1407,54.5551 179.2087,49.4761 183.3277,47.5561 Z" id="ðŸ–-Ink" fill="#000000"></path>
    </g>
</svg>