<?xml version="1.0" encoding="UTF-8"?>
<svg width="289px" height="293px" viewBox="0 0 289 293" version="1.1" xmlns="http://www.w3.org/2000/svg" xmlns:xlink="http://www.w3.org/1999/xlink">
    <!-- Generator: Sketch 62 (91390) - https://sketch.com -->
    <title>face/Monster</title>
    <desc>Created with Sketch.</desc>
    <g id="face/Monster" stroke="none" stroke-width="1" fill="none" fill-rule="evenodd">
        <path d="M101.1623,210.6721 C108.414983,209.2721 117.438041,212.321832 124.671223,213.658183 L125.2103,213.7551 C133.9813,215.2871 142.7333,217.1391 151.6013,218.0431 C160.0673,218.9081 168.7133,219.0631 177.1803,218.0901 C181.2463,217.6221 185.2773,216.8261 189.2273,215.7581 C190.9173,215.3011 192.5933,214.7911 194.2493,214.2251 L194.436545,214.153427 C195.65316,213.651157 198.943084,211.75837 198.9043,212.8131 C199.8293,211.7461 201.1033,210.9891 202.5023,210.6211 C204.4763,210.1021 207.0103,210.5891 208.6623,211.9851 C210.8113,210.2831 214.0353,211.5041 215.4763,213.5421 C217.947614,217.0373 217.143438,221.13362 216.824121,225.188445 L216.7973,225.5461 C216.52605,229.3681 216.110862,233.164069 215.598632,236.957454 L215.3733,238.5831 C214.5763,244.1941 214.3573,253.4481 207.5583,255.2871 C202.1808,256.742933 197.260244,251.209878 193.79374,246.819299 L191.8963,244.3871 C189.6493,241.5361 187.6093,238.6011 185.9653,235.3601 C185.2163,233.8851 184.4923,232.3741 183.8653,230.8431 C183.7863,230.6501 183.7283,230.4771 183.6683,230.3031 C173.6963,231.6451 163.4883,231.4531 153.4903,230.1351 C147.1603,229.3001 140.9243,228.0941 134.7823,226.4741 L132.01131,231.482887 C128.768572,237.323989 125.479522,243.147211 122.0223,248.8561 L121.754037,249.290988 C118.51779,254.43977 113.098834,259.59647 106.6923,255.7401 C100.9593,252.2881 100.7153,244.4361 100.1113,238.5771 C99.707925,234.663225 99.3811125,230.722553 99.2239816,226.787241 L99.1673,225.1011 C99.0643,221.2851 98.4433,216.8621 99.9103,213.2931 C100.1233,212.7731 100.8703,212.3731 101.3203,212.9201 C104.3853,216.6461 105.3123,222.4211 106.6363,226.9941 C108.1103,232.0821 110.2453,237.6391 111.0113,242.9171 L111.2253,242.5451 L111.2253,242.5451 C111.9798,241.1116 112.74955,239.68585 113.52305,238.2621 L115.8433,233.9911 C117.9243,230.1351 120.0433,226.3031 122.1813,222.4801 C119.739967,221.562767 117.3213,220.577433 114.912263,219.575656 L109.445069,217.290086 C106.322106,215.970989 103.1378,214.4821 100.7903,212.0821 C100.3743,211.6571 100.5193,210.7951 101.1623,210.6721 Z M204.8803,224.7601 C199.4933,226.9501 193.9213,228.5301 188.2483,229.5781 C188.6143,229.9531 188.9793,230.3281 189.3193,230.7221 C190.6543,232.2671 192.07055,233.750989 193.495133,235.218327 L194.3503,236.0971 C196.5323,238.3361 199.8103,242.0231 203.1553,244.1661 L203.33612,243.198698 C203.365722,243.031975 203.388925,242.887225 203.4013,242.7751 L203.757596,239.593989 C203.8153,239.063656 203.8713,238.5331 203.9243,238.0021 C204.2123,235.1331 204.4413,232.2581 204.6813,229.3851 C204.8073,227.8711 204.8373,226.3161 204.8803,224.7601 Z M141.13,39.8926 C153.96,34.4126 169.187,36.9998509 180.238,45.2776 C191.546,53.7486 196.491,67.5206 197.145,81.2606 C206.088,73.6246 218.967,79.4046 226.499,86.5596 C235.191,94.8166 239.587,107.2776 237.561,119.1036 C235.542,130.8896 227.013,141.2876 215.474,144.7926 C209.953,146.4696 203.8,146.5076 198.246,144.9476 C196.36,144.4166 194.049,143.5946 191.914,142.4496 C192.036,142.9396 192.16,143.4306 192.276,143.9196 C195.047,155.6486 196.618,168.8326 192.46,180.4316 C185.777,199.0706 162.04,209.5046 147.22,192.9606 C141.401,186.4656 136.878,176.2936 137.23,167.4386 C137.415,162.7856 140.051,157.4026 145.493,157.7176 C149.712849,157.960921 151.713859,161.492552 150.633739,165.229784 L150.568,165.4456 C148.28,172.5906 152.186,182.9146 157.845,187.7876 C166.523,195.2606 178.432,188.7576 183.177,179.9946 C188.707,169.7816 188.034,156.6876 186.266,145.5766 C184.53,134.6666 180.659,124.6876 176.55,114.5926 C176.114,114.6716 175.672,114.7446 175.22,114.8056 C167.048,115.9146 150.421,116.3326 141.392,110.4126 C142.362,119.5496 140.459,128.9556 135.268,136.6926 C129.484,145.3146 120.77,149.8776 110.628,151.2756 C100.778,152.6356 89.36,152.9106 79.635,150.5766 C58.926,145.6066 51.624,120.0396 57.887,101.5836 C61.592,90.6666 71.93,80.8476 83.421,78.3676 C89.341,74.4736 97.29,73.3206 104.122,73.8516 C114.326,74.6466 124.376,79.0556 131.21,86.7986 C133.821,89.7566 135.968,93.1056 137.623,96.6896 C138.179,96.2516 138.827,95.9226 139.559,95.7506 C140.702,95.4826 141.702,95.4226 142.82,95.8166 C143.377,96.0136 144.18,96.7096 144.663,97.1616 L145.766505,98.4575776 C147.119358,100.034235 148.40575,101.356517 150.814,102.3366 C157.528,105.0696 166.634,105.6626 173.767,105.1036 C191.967,103.6796 189.675,79.5726 185.192,67.1876 C179.882,52.5156 164.662,43.3886 149.178,45.9946 C142.525,47.1136 136.178,50.6546 131.308,55.2816 C125.872,60.4476 123.544,66.6876 120.283,73.2266 C120.09,73.6136 119.424,73.5296 119.341,73.1026 C116.661,59.3146 129.369,44.9166 141.13,39.8926 Z M44.1941,151.0551 C43.6411,150.4061 44.3671,149.2651 45.1591,149.8031 C50.9601,153.7441 57.4111,156.5881 64.4241,157.3571 C67.7181,157.7171 71.0381,157.7421 74.3191,157.2371 C77.1141,156.8051 79.6331,155.9531 82.4231,156.7231 C83.9081,157.1331 84.1781,158.8561 83.2711,159.9361 C79.0561,164.9531 68.6791,163.6131 63.0211,162.2681 C55.7041,160.5301 49.0711,156.7851 44.1941,151.0551 Z M239.4055,141.895 C242.2535,140.13 245.6435,143.625 243.9595,146.448 C239.6355,153.691 227.1025,154.281 219.8315,152.547 C219.2625,152.413 219.3925,151.52 219.9685,151.536 C224.1475,151.639 227.9245,150.836 231.5245,148.656 C234.6005,146.793 236.4355,143.735 239.4055,141.895 Z M100.44276,83.9956828 L99.872,84.0006 C93.224,84.1076 87.136,86.6426 80.73,87.9826 C80.199,88.0946 79.666,88.0376 79.185,87.8616 C71.383,93.0666 66.005,101.2506 65.275,112.0196 C64.769,119.4786 66.59,127.6056 71.019,133.7266 C76.0601148,140.693436 84.1808995,141.768486 92.1782594,141.976264 L92.991,141.9946 C108.109,142.2896 124.741,141.3966 130.13,124.4946 C134.118,111.9856 129.859,96.7996 118.75,89.3066 C113.354686,85.6676286 106.91095,83.9896106 100.44276,83.9956828 Z M222.242,92.9666 L221.798392,92.4488816 C215.868887,85.6456933 206.467333,79.4493407 197.198,82.8756 L197.225037,84.0213778 C197.228333,84.2124889 197.230333,84.4036 197.23,84.5946 C197.202,97.7326 192.111,109.9936 179.598,113.8486 C182.955,118.6376 185.652,123.9516 187.812,129.4666 C188.574,128.9686 189.501,128.6526 190.577,128.5436 C194.982,128.0976 197.506,132.2346 201.326,133.7776 C204.902,135.2236 208.958,135.5966 212.733,134.8496 C220.991,133.2166 226.785,126.0956 228.815,118.1936 C231.11,109.2606 228.078,99.8956 222.242,92.9666 Z M96.5345,104.0237 C99.2883548,99.3719581 106.081682,100.045196 108.804889,104.146253 L108.9355,104.3507 L108.9645,104.3127 C113.5005,110.1907 111.3085,119.4747 104.7225,122.7797 C99.4395,125.4287 92.7205,124.7337 89.2085,119.5767 C88.4215,118.4207 87.9165,117.0607 87.7315,115.6837 C87.6055,114.7467 87.6775,113.8107 87.8875,112.8797 L87.834375,113.097575 C87.9385,112.6277 88.1035,111.8912 88.1465,111.7157 C88.6105,109.8197 89.7235,107.7857 91.1165,106.4127 C92.5515,104.9987 94.5445,104.1387 96.5345,104.0237 Z M209.7026,99.1917 C212.1416,99.1917 214.3056,100.2117 216.0676,101.8287 C218.5736,104.1297 218.9226,107.4417 218.3816,110.5847 C218.2156,111.5437 217.9876,112.4707 217.7486,113.4147 L217.542822,114.268478 C217.506822,114.410256 217.468267,114.551033 217.4246,114.6897 C217.2746,115.2747 217.0356,115.8117 216.7516,116.3257 C215.7086,120.2087 211.4856,122.1367 207.7626,121.2897 C206.0106,120.8907 204.2636,119.4367 203.3716,117.9127 C203.0776,117.4107 202.8716,116.9107 202.7256,116.4087 L202.0006,114.6897 L202.0006,114.6897 C201.8646,114.2777 201.7796,113.8357 201.6706,113.4147 C201.4276,112.4717 201.1936,111.5427 201.0246,110.5847 C200.4496,107.3367 200.9076,104.2587 203.3386,101.8287 C204.9706,100.1957 207.3956,99.1917 209.7026,99.1917 Z M155.98,65.5082 C160.213,64.9402 164.524,66.9122 166.713,70.6512 C168.615,73.9012 168.607,78.2742 166.713,81.5242 L166.553,81.7992 L166.553,81.7992 C163.064,87.7852 154.927,88.5532 150.032,83.9282 L149.795,83.7042 L149.795,83.7042 C146.647,80.7312 145.938,75.8002 147.568,71.9382 C149.058,68.4062 152.182,66.0192 155.98,65.5082 Z" id="ðŸ–-Ink" fill="#000000"></path>
    </g>
</svg>