<?xml version="1.0" encoding="UTF-8"?>
<svg width="289px" height="293px" viewBox="0 0 289 293" version="1.1" xmlns="http://www.w3.org/2000/svg" xmlns:xlink="http://www.w3.org/1999/xlink">
    <!-- Generator: Sketch 62 (91390) - https://sketch.com -->
    <title>face/Old</title>
    <desc>Created with Sketch.</desc>
    <g id="face/Old" stroke="none" stroke-width="1" fill="none" fill-rule="evenodd">
        <path d="M176.02971,239.644154 C169.637887,239.69642 162.4524,237.297827 157.647928,235.419824 L156.395115,234.923639 C152.236202,233.257962 147.964779,231.345719 144.779349,228.136932 C143.760701,227.094114 142.676146,225.914068 142.125282,224.673113 C141.802605,223.946205 141.668471,223.193634 141.980225,222.445961 C143.132269,222.332728 144.223848,222.18535 145.257786,221.996378 C145.750099,221.906399 146.221692,221.813093 146.583373,221.81068 C147.916117,221.802185 149.234462,221.971757 150.551836,222.138281 C150.742616,222.162397 150.933374,222.186509 151.124192,222.21013 C152.149847,222.33705 153.170512,222.474162 154.189301,222.611004 C157.15276,223.00905 160.100624,223.40378 163.107057,223.54755 C165.277827,223.651743 167.553758,223.529757 169.849917,223.404802 C175.805483,223.080703 181.962683,222.638337 186.551339,226.809651 C187.753038,227.902069 188.255407,229.278258 188.255407,230.680051 C188.255407,232.383472 187.538373,234.117465 186.444757,235.477978 C183.967691,238.557867 180.155556,239.610416 176.02971,239.644154 Z M210.882238,185.924199 C208.101743,190.095941 203.468972,192.77845 197.121054,192.486987 C184.5045,191.910097 169.446891,187.15002 158.88008,180.266926 C156.128254,178.474961 154.343912,175.609924 154.023919,172.540519 L153.454622,167.079765 L150.378172,171.627224 C150.05764,172.101019 149.734326,172.573495 149.410857,173.046205 C148.520054,174.348006 147.629997,175.649576 146.790017,176.983619 C143.566443,182.105733 140.611422,187.278696 137.927921,192.704365 C136.028157,196.546126 134.639141,200.843111 133.246133,205.178324 C130.894675,212.497754 128.62303,219.696429 123.598652,224.840723 C122.838977,225.618815 121.67117,225.897244 120.602356,225.7597 C119.660229,225.638459 118.736955,225.176544 118.284437,224.256337 C112.281263,212.048578 120.355669,197.337564 126.905585,187.11034 L127.598347,186.042365 C133.671845,176.800347 143.591061,164.56942 154.950956,162.906726 L156.251556,164.980884 L158.142417,163.719789 C161.234923,161.657268 165.317025,161.75321 168.890951,163.366833 L172.46509,164.979953 C179.118253,167.965637 185.680929,170.720436 192.879383,172.229357 C193.403952,172.339316 193.928091,172.441879 194.451426,172.537236 C194.945375,172.627237 195.442258,172.711484 195.941761,172.789626 C195.834073,172.298898 195.719079,171.810388 195.60382,171.323207 C195.481894,170.807841 195.359038,170.291279 195.227326,169.776315 C195.091324,169.244578 194.946219,168.715881 194.801286,168.189225 C194.224622,166.08955 193.573092,164.00866 192.800594,161.971325 C189.89417,154.312226 185.253562,147.148997 180.738376,140.316568 L180.207002,139.512828 C179.559635,138.533742 178.850833,137.512243 178.117422,136.455618 C174.596502,131.385477 170.691585,125.882915 170.414924,120.359436 C175.088786,120.653673 178.999744,123.557252 182.442437,126.085317 C187.166925,129.552355 191.545423,133.517086 195.517266,137.824564 C203.221312,146.180834 210.135753,156.863899 213.168061,167.907383 C214.904163,174.231128 214.140496,181.035639 210.882238,185.924199 L210.882238,185.924199 Z M87.6173265,122.923881 L87.6160369,122.698595 C87.6300369,116.321808 91.344047,101.762216 100.524157,101.762216 C106.259134,101.762216 109.740999,111.67102 110.343765,121.885575 L110.3647,122.302049 C110.630879,128.652574 108.888163,142.533717 100.524157,142.533717 C92.071637,142.533717 87.7042339,129.386546 87.6173265,122.923881 L87.6173265,122.923881 Z M222.772617,120.923881 L222.773907,120.698595 C222.759907,114.321808 219.045897,99.7622157 209.865787,99.7622157 C204.274184,99.7622157 200.824446,109.181773 200.096775,119.120207 L200.046179,119.885575 C199.684084,126.021693 201.313826,140.533717 209.865787,140.533717 C218.318307,140.533717 222.68571,127.386546 222.772617,120.923881 L222.772617,120.923881 Z M118.53429,79.7680988 C117.317758,79.9106848 116.107261,80.097547 114.897379,80.2897525 C111.367333,80.8521052 107.8564,81.5271297 104.36948,82.3138498 C97.7467896,83.8090043 91.1772706,85.6967567 84.7333151,87.8300044 C78.7033507,89.8269901 72.7671998,92.083769 66.8324925,94.3403369 C66.5157989,94.4607541 66.199109,94.5811698 65.8822838,94.7015918 C63.7868818,95.4983536 61.6984692,96.3910009 59.6036281,97.2867029 C56.4154582,98.6498851 53.2126678,100.022204 49.9443536,101.056289 C58.5551148,89.1503798 71.8238293,80.328547 84.5909251,74.0157103 C91.875359,70.4139625 99.6032726,67.5095184 107.377029,65.1296645 L111.706218,63.8287835 C118.080863,61.9480786 125.050815,60.2108515 131.038939,63.9608215 C133.407327,65.4440266 134.918619,67.749563 135.394602,70.2420298 C135.861386,72.6863293 135.328871,75.3070881 133.641078,77.494289 C132.170428,79.3996534 130.337932,80.4847925 128.387536,80.8566957 C126.234862,81.2671695 123.953511,80.816378 121.87681,79.7072256 C120.213068,79.5833049 119.722096,79.6280883 119.229893,79.6828202 L118.53429,79.7680988 Z M214.43213,80.9794236 C210.165597,80.0519166 205.940872,79.6795437 201.563665,79.8130512 C199.584208,79.8725314 197.669201,80.1783078 195.759277,80.4860248 C192.792996,80.9639365 189.838131,81.4575379 186.642392,80.8776949 C184.975143,80.5748977 183.555111,79.5997219 182.458274,78.3267269 C181.175979,76.8384886 180.327609,74.9364168 180.055575,73.1278488 C179.774546,71.259614 180.054149,69.6257955 180.745371,68.1830624 C181.56198,66.4786183 182.937687,65.0421873 184.60029,63.783895 C189.631241,59.9752285 198.263297,60.8912257 204.200778,61.6612548 C210.068138,62.4240507 215.902979,64.2434393 221.089813,67.1330647 C226.206828,69.9853958 230.655195,73.8275454 234.126512,78.5239749 C237.052247,82.4824883 238.430481,87.0384392 239.853737,91.6773738 C233.158782,86.0610835 222.913254,82.8205217 214.43213,80.9794236 Z" id="ðŸ–-Ink" fill="#000000"></path>
    </g>
</svg>