<?xml version="1.0" encoding="UTF-8"?>
<svg width="289px" height="293px" viewBox="0 0 289 293" version="1.1" xmlns="http://www.w3.org/2000/svg" xmlns:xlink="http://www.w3.org/1999/xlink">
    <!-- Generator: Sketch 62 (91390) - https://sketch.com -->
    <title>face/Rage</title>
    <desc>Created with Sketch.</desc>
    <g id="face/Rage" stroke="none" stroke-width="1" fill="none" fill-rule="evenodd">
        <path d="M156.4647,188.4815 C177.0197,187.6675 215.0777,191.4355 230.6007,203.5915 C246.5657,215.6275 226.5387,254.3855 224.2977,254.3015 C201.355767,253.440544 178.613799,256.728654 155.935687,259.781491 L151.369728,260.395849 C136.06669,262.504068 114.73382,266.20844 107.4627,248.5525 C98.4367,218.0055 125.7787,188.3405 156.4647,188.4815 Z M192.6857,201.4275 C180.5077,199.5965 168.1537,199.3165 155.7557,200.5535 C144.7227,201.6555 134.3437,204.6655 127.4367,213.0395 C129.0967,213.3185 130.5667,214.5435 131.5747,216.1745 C146.3667,216.6235 161.6487,215.9735 176.6157,216.7585 C184.9807,216.9415 193.5657,217.8325 201.9177,217.4425 C209.1157,217.1065 207.1377,211.0845 208.1467,205.9995 C203.3807,203.8605 197.6707,202.1875 192.6857,201.4275 Z M58.0329,85.6132 C72.8019,61.2332 117.4059,76.4362 139.7549,81.4502 C156.9079,77.7162 158.6339,106.2482 140.7839,103.2782 C150.4959,117.3512 146.7569,135.7582 133.6259,146.4752 C99.3969,175.0032 36.5569,128.3982 79.9389,95.1402 C80.4339,90.9612 85.9589,89.7732 89.2219,88.1852 L88.0546773,87.911443 C78.5173448,85.7039182 68.8613118,84.2390235 59.3899,87.3952 C58.4279,87.4522 57.8529,86.4552 58.0329,85.6132 Z M178.814304,136.367155 C186.365682,140.9572 197.871664,151.660291 189.748119,163.039573 C180.185929,173.073062 166.418535,161.568982 159.634201,156.366134 C153.343449,152.333898 146.275437,162.704507 152.112,167.412823 C201.135736,203.708059 221.030606,137.567387 182.633685,130.970386 C178.406047,130.243425 176.835891,134.947174 178.814304,136.367155 Z M256.4625,59.0036 C257.0075,58.9436 257.2385,59.7016 256.8945,60.0446 C247.5825,69.2396 235.9495,75.9796 225.5305,83.8246 C242.3355,85.1366 257.6645,97.9656 262.8755,113.8736 C267.5085,139.1696 230.9605,150.8006 211.4505,143.1606 C195.3545,137.6046 183.6835,121.9826 192.4615,105.3946 C183.2795,105.4836 173.9895,93.4676 180.7585,86.5556 C186.7575,80.4286 193.7345,84.1386 196.4465,82.6896 L199.351832,81.1406209 C217.464428,71.5170019 236.243653,62.263939 256.4625,59.0036 Z M131.7499,110.3642 C120.1089,92.0672 74.4369,91.7432 75.6629,119.9562 C77.5079,157.2482 151.3469,148.7892 131.7499,110.3642 Z M225.9915,94.7386 C217.4045,92.9016 209.8785,102.7556 205.0635,100.2156 C177.8365,131.2966 233.2405,149.1516 251.3845,125.3986 C261.3135,112.5696 238.1575,95.0206 225.9915,94.7386 Z M110.9099,111.9484 C122.1809,107.8404 122.0879,124.5484 113.7459,127.8504 C104.2059,131.6014 101.0419,111.7214 110.9099,111.9484 Z M212.1297,113.7452 C211.5367,103.4962 226.9787,98.8252 230.8617,108.9602 C236.3397,122.7072 212.9387,129.5892 212.1297,113.7452 Z" id="Shape" fill="#231F20"></path>
    </g>
</svg>