<?xml version="1.0" encoding="UTF-8"?>
<svg width="289px" height="293px" viewBox="0 0 289 293" version="1.1" xmlns="http://www.w3.org/2000/svg" xmlns:xlink="http://www.w3.org/1999/xlink">
    <!-- Generator: Sketch 62 (91390) - https://sketch.com -->
    <title>face/Serious</title>
    <desc>Created with Sketch.</desc>
    <g id="face/Serious" stroke="none" stroke-width="1" fill="none" fill-rule="evenodd">
        <path d="M157.853264,261.089186 L159.986434,260.522285 C167.625732,258.441025 175.553661,255.136935 182.8485,259.665 C185.4825,261.3 185.8795,264.777 183.7975,267.027 C177.888371,273.411339 169.166228,272.172661 161.174911,272.236758 L160.7825,272.241 C152.7425,272.352 144.7625,271.951 136.8055,270.798 C135.7565,270.646 135.5495,268.903 136.5025,268.485 C143.4305,265.447824 150.556036,263.052862 157.853264,261.089186 L157.853264,261.089186 Z M170.814304,144.367155 C178.365682,148.9572 189.871664,159.660291 181.748119,171.039573 C172.185929,181.073062 158.418535,169.568982 151.634201,164.366134 C145.343449,160.333898 138.275437,170.704507 144.112,175.412823 C193.135736,211.708059 213.030606,145.567387 174.633685,138.970386 C170.406047,138.243425 168.835891,142.947174 170.814304,144.367155 Z M223.3163,84.0053 C235.4983,83.6323 235.5093,102.9853 223.3163,102.9333 C219.6763,102.9173 216.0363,102.9163 212.3963,102.9083 C214.5113,110.6193 213.3033,119.8143 209.4833,126.2913 C206.9633,130.5663 200.9323,131.3433 197.4093,127.8473 C191.3273,121.8113 190.1283,112.9843 192.2773,104.9803 L191.8353,103.9333 L191.8353,103.9333 C191.6913,103.5903 191.5883,103.2433 191.5043,102.8943 C179.738967,102.9043 167.973633,102.932522 156.2083,102.951707 L138.5603,102.9703 C127.1023,102.9743 115.6393,103.0673 104.1803,102.9603 C104.3213,103.1733 104.4623,103.3853 104.5773,103.6283 C105.2923,105.1333 105.5953,107.0333 105.8203,108.6603 C106.2043,111.4523 106.1583,114.4593 105.7183,117.2403 C105.3973,119.2723 104.8073,121.6923 103.6763,123.6073 L103.6693,123.6473 L103.6693,123.6473 C103.1363,125.9193 102.4633,128.0943 100.7063,129.7333 C100.1783,130.2243 99.6633,130.5743 99.1193,130.8223 C98.0923,131.8973 96.7703,132.6083 95.0333,132.630932 C94.1113,132.6413 93.1003,132.3723 92.1203,131.9903 C90.6133,132.1163 89.0573,131.4343 87.7243,130.8303 C86.6553,130.3453 85.6743,129.7013 84.8833,128.8613 C84.5123,128.7733 84.1383,128.6283 83.7643,128.3973 C81.4723,126.9873 80.5963,124.1613 80.4773,121.6093 C80.4693,121.4543 80.4753,121.2913 80.4703,121.1343 C80.3853,120.7883 80.3093,120.4403 80.2513,120.0903 C79.4893,115.5553 80.4153,110.4483 81.3853,106.0413 C81.6293,104.9383 81.8303,103.6573 82.1293,102.4183 C79.8423,102.3293 77.5573,102.2413 75.2703,102.1473 C69.5423,101.9133 62.5513,102.6803 57.2523,100.2593 C56.8663,100.0843 56.9703,99.5703 57.2523,99.3693 C62.1445222,95.8722167 69.7457336,95.3062483 75.6375743,94.1545348 L76.1383,94.0543 C83.1643,92.6133 90.1863,91.4013 97.2833,90.3663 C110.9443,88.3743 124.7803,87.3023 138.5603,86.5303 C166.7733,84.9503 195.0743,84.8683 223.3163,84.0053 Z" id="ðŸ–-Ink" fill="#000000"></path>
    </g>
</svg>