<?xml version="1.0" encoding="UTF-8"?>
<svg width="289px" height="293px" viewBox="0 0 289 293" version="1.1" xmlns="http://www.w3.org/2000/svg" xmlns:xlink="http://www.w3.org/1999/xlink">
    <!-- Generator: Sketch 62 (91390) - https://sketch.com -->
    <title>face/Smile Big</title>
    <desc>Created with Sketch.</desc>
    <g id="face/Smile-Big" stroke="none" stroke-width="1" fill="none" fill-rule="evenodd">
        <path d="M93.3467129,186.476493 C110.488788,184.396013 127.104995,189.644043 143.862898,192.289481 C152.710839,193.685435 161.569756,194.727668 170.523469,195.115267 C172.32459,195.193982 174.126708,195.239817 175.928826,195.276684 C176.096465,193.690417 176.984552,192.233683 178.908408,191.360838 C182.851913,189.573299 186.008114,188.767213 190.337788,188.93959 C194.301251,189.096024 198.278683,189.503551 202.181276,190.217969 C209.268011,191.517272 216.386677,194.465615 221.570511,199.588099 C233.567668,211.441255 231.741602,230.480436 222.47157,243.39077 C203.319435,270.068282 168.364112,271.306425 138.426282,270.958393 L135.66356,270.922255 C108.404278,270.532663 69.4042864,274.596972 57.019963,243.583075 C52.465773,232.178299 53.0984103,218.959081 58.6743992,208.020619 C65.3250733,194.973778 79.3249167,188.178341 93.3467129,186.476493 Z M178.495298,230.894938 L178.250824,230.904902 C165.682896,231.389151 153.116964,231.72992 140.542051,231.952117 C140.918241,235.181444 141.302413,238.411767 141.741468,241.63412 C142.085726,244.169954 142.454931,246.702799 142.839103,249.232654 C143.001753,250.303783 143.598468,251.966772 143.429831,253.027936 L143.368962,253.44742 L143.368962,253.44742 C144.014571,253.739364 144.600309,254.209664 145.03637,254.892197 C145.188043,255.128344 145.297807,255.366483 145.407571,255.603626 C155.170541,255.680348 165.676909,255.491033 175.629471,253.716447 L175.649428,253.500229 L175.649428,253.500229 C175.830039,252.228824 176.358899,251.372918 177.061386,250.786039 C177.76088,246.731694 177.697017,242.411311 177.967435,238.38885 C178.136071,235.889883 178.318678,233.392909 178.495298,230.894938 Z M130.93774,232.123497 C121.87903,232.277607 112.816379,232.396289 103.759597,232.285698 L99.6481393,232.22214 L99.6481393,232.22214 C100.516269,236.880303 101.461234,241.522523 102.246542,246.211574 C103.065777,251.098909 98.7640436,254.205679 95.0410632,254.080133 C95.4591626,254.148884 95.8762641,254.219628 96.2943635,254.278416 C107.926308,255.92347 120.004291,255.487047 131.808863,255.474094 C131.173731,251.767293 131.431054,247.584788 131.336033,244.49078 L131.317921,244.011527 C131.13731,240.046857 131.010583,236.085177 130.93774,232.123497 Z M69.4062821,231.268587 C69.720605,233.690832 70.3322874,236.061264 71.2473164,238.268286 C75.1139873,247.592582 83.9788918,251.943854 93.3586871,253.776231 C91.7311928,253.214262 90.4389764,251.864142 90.1126792,249.551502 C89.299431,243.801286 89.0070608,237.955417 88.9851081,232.116522 C82.448189,232.055742 75.8673645,231.916246 69.4062821,231.268587 Z M212.584867,229.277783 C207.930891,230.375814 202.522541,229.872633 197.956377,230.079884 C193.678592,230.274182 189.398811,230.443569 185.121025,230.616943 C185.322591,233.537386 185.519168,236.456834 185.732708,239.375285 C186.008114,243.147649 186.034059,247.134239 186.756502,250.890661 C195.365957,247.952282 203.08034,243.240314 208.867873,235.705549 C210.309767,233.828335 211.600986,231.625298 212.584867,229.277783 Z M91.3799494,201.775194 C83.6326376,203.609563 76.3004317,207.484557 72.3599198,214.573932 C70.020958,218.780726 68.9921741,223.766703 69.1897485,228.679944 C75.7376439,227.917699 82.3982965,227.628744 89.0270178,227.389608 C89.0489705,226.195923 89.0771321,225.003566 89.1129808,223.813719 L89.2151053,220.764114 C89.3957906,214.947692 89.4865796,207.643706 91.3799494,201.775194 Z M131.479572,202.48463 L128.069104,202.101567 C118.596243,201.022247 109.128468,199.889225 99.6551242,200.538664 C98.2840775,200.633321 96.892076,200.782781 95.4970809,200.987043 C97.1714741,207.029203 97.0307772,214.125552 97.7302705,220.106932 C98.000688,222.419573 98.3419529,224.713282 98.7201382,226.998024 L100.363598,226.921301 L100.363598,226.921301 C110.528702,226.370293 120.703784,226.031517 130.876871,225.627976 C130.876122,223.71788 130.8866,221.806663 130.917143,219.894746 L130.954703,217.982611 C131.070454,213.099262 130.755133,207.598146 131.479572,202.48463 Z M179.049105,201.709432 C169.127476,203.310644 158.873564,203.651412 149.127558,203.663369 C145.234942,203.668351 141.344323,203.429215 137.455699,203.084462 C137.709153,205.154977 137.84087,207.249407 138.031459,209.291027 C138.415432,213.416914 138.854327,217.536423 139.331283,221.652107 L139.756743,225.25333 L139.756743,225.25333 C152.260808,224.686379 164.763876,224.073594 177.264948,223.438888 L179.029148,223.344231 L179.029148,223.344231 L179.523638,216.423284 C179.860246,211.808262 180.23056,207.194273 180.753433,202.600212 L180.361278,202.458723 L180.361278,202.458723 C179.900271,202.269408 179.463213,202.008351 179.049105,201.709432 Z M183.357823,203.427223 C183.904645,209.952636 184.206994,216.504952 184.609128,223.041325 L192.850339,222.601065 C194.223751,222.526187 195.597126,222.449797 196.970501,222.370749 C202.310997,222.062862 209.173215,220.445708 214.452843,221.954255 C214.855974,217.154604 213.48393,212.478506 209.152261,209.254161 C201.547641,203.590632 191.864499,205.607342 183.357823,203.427223 Z M155.2009,145.0937 C167.4729,138.0657 198.2639,130.8827 200.2139,152.9677 C201.11069,163.130663 193.55511,171.551452 184.732334,175.308984 L184.4009,175.4477 C176.1259,178.8497 161.4589,182.6917 154.2979,175.3147 C148.3379,169.1747 156.2429,158.1657 163.6489,163.1957 C167.454921,165.779721 175.466095,163.875752 179.713009,162.646215 L179.9789,162.5687 C184.5619,161.2217 190.6719,156.9107 188.7769,151.2677 C187.0999,146.2757 179.9639,145.3637 175.4949,145.2017 C168.8239,144.9627 162.3319,146.5117 155.7219,147.0157 C154.6749,147.0957 154.3519,145.5797 155.2009,145.0937 Z M206.0359,109.581 C222.6919,108.801 233.0529,126.987 229.2229,141.888 C228.5609,144.459 225.6849,146.983 222.9089,146.694 L222.209444,146.629632 C221.8541,146.59548 221.4971,146.5506 221.1689,146.46 C218.5329,145.73 216.1699,142.988 216.3619,140.146 L216.412906,139.317884 C216.801522,132.278753 216.038672,124.168709 207.6729,122.464 C200.5779,121.018 196.6169,127.847 196.5329,134.133 C196.5169,135.249 195.2629,136.028 194.2759,135.428 C189.1469,132.307 188.2589,126.098 190.2179,120.751 C192.7009,113.976 198.9149,109.914 206.0359,109.581 Z M82.4329,113.4814 C94.5539,109.4374 107.6309,115.8984 113.4999,126.6144 C115.5589,127.2104 117.6149,128.7974 117.3289,131.2274 C116.9159,134.7234 116.2939,136.9274 113.8699,139.5784 C110.078488,143.725503 102.977604,141.605092 101.401739,136.499971 L101.3349,136.2694 C99.5449,129.6704 92.2809,125.3164 85.6639,127.6264 C77.9339,130.3244 78.1579,138.4884 72.7359,143.2444 C72.0989,143.8034 71.3349,143.8924 70.5709,143.5234 C64.8119,140.7404 65.8469,132.3644 67.8999,127.5704 C70.5929,121.2794 75.8269,115.6844 82.4329,113.4814 Z M65.9254,76.6741 C75.7474,66.6521 101.3594,56.9541 108.0784,75.4611 C109.3584,78.9861 106.6334,83.7391 102.9634,84.4701 C96.9534,85.6661 91.6214,83.0571 85.6514,83.5251 C80.8184,83.9061 75.7774,85.5211 71.9134,88.5151 C61.2114,96.8071 58.8574,110.8321 51.4004,121.3861 C51.0374,121.9001 50.3324,121.6841 50.2654,121.0781 C48.5674,105.7131 55.1674,87.6501 65.9254,76.6741 Z M194.0206,66.8082 C200.5386,64.5062 207.9196,64.7032 214.4716,66.7452 C221.0716,68.8032 227.1306,72.7112 231.7986,77.8172 C233.9166,80.1352 235.8766,82.6932 237.4486,85.4162 C238.2836,86.8592 239.1616,89.8402 240.1106,91.6152 C245.245093,94.5796058 247.439689,101.334701 242.842821,106.140464 L242.6356,106.3512 L242.0206,106.9612 C239.5496,109.4072 235.8236,110.4672 232.4506,109.4902 C224.9026,107.3062 223.9856,101.3612 221.3726,95.0512 C219.6466,90.8832 216.6896,87.1952 213.1046,84.4862 C204.6316,78.0862 190.7386,76.0472 180.5376,79.0632 C179.9946,79.2242 179.3566,78.5322 179.7436,78.0302 C181.6766,75.5262 182.7906,73.4712 185.3786,71.4512 C188.0056,69.4012 190.8726,67.9202 194.0206,66.8082 Z" id="ðŸ–-Ink" fill="#000000"></path>
    </g>
</svg>