<?xml version="1.0" encoding="UTF-8"?>
<svg width="289px" height="293px" viewBox="0 0 289 293" version="1.1" xmlns="http://www.w3.org/2000/svg" xmlns:xlink="http://www.w3.org/1999/xlink">
    <!-- Generator: Sketch 62 (91390) - https://sketch.com -->
    <title>face/Smile LOL</title>
    <desc>Created with Sketch.</desc>
    <g id="face/Smile-LOL" stroke="none" stroke-width="1" fill="none" fill-rule="evenodd">
        <path d="M168.3646,195.5175 C180.7546,195.4575 199.3146,195.0975 211.6946,195.8275 C215.2646,196.0375 217.0246,201.1375 217.2746,203.5575 C219.6446,226.0475 201.6846,243.9875 181.8546,250.9375 C163.4546,257.3875 139.1546,258.6075 122.7446,246.5575 C115.6146,241.3275 110.2146,234.0775 106.6946,226.0075 C104.7946,221.6575 103.4046,217.1475 102.6346,212.4675 C102.0446,208.8975 100.9246,204.0875 102.2346,200.5775 C104.0346,195.7875 109.0446,196.1275 113.3346,196.0475 C119.2546,195.9275 125.1746,195.7765 131.0846,195.7075 C143.5146,195.5665 155.9446,195.5665 168.3646,195.5175 Z M202.824081,202.064332 L202.7346,202.0665 C197.1646,202.6675 135.6646,203.1065 126.1646,203.3165 C124.7346,203.3475 123.2346,203.3165 121.7146,203.2765 C120.6616,206.5345 123.3946,213.2425 126.3346,214.4075 C129.2746,215.5715 154.1346,216.7145 168.8146,216.0445 C178.8246,215.5945 204.7906,209.5265 204.7906,206.9235 C204.7906,204.3195 203.6846,201.9675 202.7346,202.0665 Z M78.344,144.3759 C80.257,143.3639 82.046,144.6739 82.294,146.6419 C82.793,150.5929 80.707,154.7229 80.602,158.7919 C80.489,163.1429 80.962,167.4899 80.816,171.8409 C80.561,179.4399 78.291,187.0689 73.901,193.3269 C68.661,200.7959 54.84,208.9529 48.244,198.1409 C43.501,190.3669 47.229,179.0289 50.681,171.5279 C53.388,165.6479 57.325,160.2109 61.735,155.4889 C64.67,152.3449 70.839,145.2629 75.581,145.9749 C75.763,146.0019 75.845,146.2209 75.81,146.3789 C75.778,146.5179 75.725,146.6409 75.682,146.7729 C76.368,145.7959 77.231,144.9639 78.344,144.3759 Z M74.733,148.4589 C73.892,149.4619 72.749,150.2639 71.781,151.2449 C69.722,153.3309 67.676,155.4249 65.83,157.7059 C62.465,161.8629 59.687,166.5079 57.484,171.3759 C54.857,177.1779 50.531,187.1249 53.616,193.5759 C55.27,197.0329 59.526,196.4129 62.396,194.7299 C67.758,191.5869 70.921,184.8799 72.423,179.1119 C74.098,172.6779 73.119,166.1489 73.15,159.5999 C73.165,156.2549 73.226,151.8409 74.733,148.4589 Z M230.9987,134.1829 C231.0907,131.7099 233.5717,130.3959 235.7247,131.4709 C239.4137,133.3139 240.9697,137.0579 243.0067,140.4909 C245.3687,144.4719 247.7317,148.4539 250.0937,152.4349 C254.2617,159.4599 259.9517,166.9569 262.0517,174.9459 C265.1557,186.7539 254.9097,195.4199 243.5527,192.8839 C231.7017,190.2379 227.3017,176.4559 227.5517,165.6909 C227.6827,160.0559 228.9977,154.3329 230.1077,148.8299 C230.7607,145.5919 230.9857,142.0749 231.8237,138.8279 C231.2677,137.2919 230.9407,135.7379 230.9987,134.1829 Z M170.814304,144.367155 C168.835891,142.947174 170.406047,138.243425 174.633685,138.970386 C213.030606,145.567387 193.135736,211.708059 144.112,175.412823 C138.275437,170.704507 145.343449,160.333898 151.634201,164.366134 C158.418535,169.568982 172.185929,181.073062 181.748119,171.039573 C189.871664,159.660291 178.365682,148.9572 170.814304,144.367155 Z M236.7527,147.5249 C236.2787,150.6869 235.5697,153.7289 235.2407,155.9749 C233.9437,164.8159 233.0247,176.2979 240.3327,182.9859 C243.4257,185.8169 248.7997,186.8659 252.3937,184.1949 C257.6507,180.2889 252.1317,172.7769 249.6787,168.7649 C246.0547,162.8389 242.4857,156.8839 238.9407,150.9109 C238.2987,149.8289 237.5397,148.6949 236.7527,147.5249 Z M96.1224,101.5974 C108.6774,99.5674 122.2604,107.8364 126.6434,119.7554 C127.7494,122.7624 125.9124,126.4864 123.2794,128.0244 C120.2414,129.7984 116.9944,128.9384 114.4064,126.8794 C110.9284,124.1134 109.2744,119.6704 105.4544,117.1564 C102.2224,115.0284 97.8904,114.9164 94.1744,115.5314 C85.4364,116.9774 78.5684,122.6164 70.5874,125.9104 C69.4684,126.3724 68.8134,124.9374 69.1894,124.0924 C74.0234,113.2284 84.1164,103.5384 96.1224,101.5974 Z M217.8407,101.1059 C227.8757,100.2449 239.8327,104.5919 243.0067,114.9179 C243.0827,115.1659 242.8217,115.4579 242.5627,115.3619 C236.4907,113.1109 229.7757,111.7429 223.2847,112.8879 C219.1047,113.6259 210.8537,116.5849 210.5377,121.3799 C210.0487,128.7739 201.4707,130.5929 197.2917,124.9669 C193.2277,119.4949 196.7247,112.0109 201.2147,108.0559 C205.9227,103.9099 211.6307,101.6389 217.8407,101.1059 Z M121.6029,59.2015 C123.7819,61.6775 124.5319,66.2795 121.6029,68.6495 C116.4509,72.8195 110.7549,71.2035 104.5809,71.5565 C99.4929,71.8485 94.6029,72.6905 89.7019,74.0915 C78.9499,77.1645 70.1889,82.7745 61.0059,88.9345 C59.8009,89.7425 58.5709,88.2015 59.1459,87.0745 C64.4469,76.6915 74.7199,68.1625 85.0099,62.9635 C90.5019,60.1885 96.5119,57.8865 102.5879,56.8305 L104.465271,56.501905 C110.27307,55.49746 117.4944,54.5323 121.6029,59.2015 Z M203.192876,52.1793876 L204.629806,52.4734684 C220.267042,55.742077 240.583473,62.2713911 247.988459,77.6308459 C248.270623,79.8027272 247.97249,80.2682047 247.730054,80.5723213 L247.649336,80.6735209 C247.449568,80.9332186 247.290169,81.2912104 246.348782,81.5868073 C246.087547,81.5245653 245.823712,81.4586426 245.557082,81.3887687 C242.162766,80.499243 239.477205,79.2737961 236.877298,78.0022488 L234.058339,76.6134493 C230.787784,75.0098309 227.488352,73.4645766 223.991711,72.3238115 C216.52958,69.8898666 208.854137,68.1753043 201.059777,67.259767 C199.37041,67.0615005 197.743655,66.4913394 196.460262,65.5141761 C195.242065,64.5866523 194.311441,63.3024737 193.887128,61.5955207 C193.33722,59.3864508 193.495251,57.7140037 194.680513,55.7210991 C195.571756,54.2244705 196.846982,53.1871113 198.311265,52.5914244 C199.804038,51.9841473 201.503545,51.840982 203.192876,52.1793876 Z" id="ðŸ–-Ink" fill="#000000"></path>
    </g>
</svg>