<?xml version="1.0" encoding="UTF-8"?>
<svg width="289px" height="293px" viewBox="0 0 289 293" version="1.1" xmlns="http://www.w3.org/2000/svg" xmlns:xlink="http://www.w3.org/1999/xlink">
    <!-- Generator: Sketch 62 (91390) - https://sketch.com -->
    <title>face/Smile Teeth Gap</title>
    <desc>Created with Sketch.</desc>
    <g id="face/Smile-Teeth-Gap" stroke="none" stroke-width="1" fill="none" fill-rule="evenodd">
        <path d="M170.814304,144.367155 C178.365682,148.9572 189.871664,159.660291 181.748119,171.039573 C172.185929,181.073062 158.418535,169.568982 151.634201,164.366134 C145.343449,160.333898 138.275437,170.704507 144.112,175.412823 C193.135736,211.708059 213.030606,145.567387 174.633685,138.970386 C170.406047,138.243425 168.835891,142.947174 170.814304,144.367155 Z M102.5879,56.8305 L104.465271,56.501905 L105.42752,56.3387999 C111.05159,55.4089332 117.7185,54.7869836 121.6029,59.2015 C123.7819,61.6775 124.5319,66.2795 121.6029,68.6495 C116.4509,72.8195 110.7549,71.2035 104.5809,71.5565 C99.4929,71.8485 94.6029,72.6905 89.7019,74.0915 C78.9499,77.1645 70.1889,82.7745 61.0059,88.9345 C59.8009,89.7425 58.5709,88.2015 59.1459,87.0745 C64.4469,76.6915 74.7199,68.1625 85.0099,62.9635 C90.5019,60.1885 96.5119,57.8865 102.5879,56.8305 Z M152.3251,200.2709 C168.7571,201.4639 204.3671,193.6199 219.1531,205.3859 C274.8801,274.9729 53.9501,292.8639 77.8101,215.8769 C93.0071,190.9839 127.9621,200.9889 152.3251,200.2709 Z M149.5081,242.2799 C145.4441,241.9489 140.5121,245.1679 139.3191,247.6549 C138.1261,250.1429 138.5871,255.3999 138.6231,256.3109 C145.7281,257.0269 152.8951,257.1359 160.0201,256.6689 C158.1691,250.5459 158.1091,243.2069 149.5081,242.2799 Z M182.3141,252.5519 C181.1721,244.9519 175.7361,243.1519 171.3361,244.2929 C166.8351,245.4589 164.1931,250.6399 164.4791,255.2529 C164.4981,255.5709 164.3141,255.8409 164.1931,256.0969 C170.3111,255.3739 176.3721,254.1839 182.3141,252.5519 Z M131.9201,243.6559 C129.3581,239.7579 123.2361,237.8769 119.3151,238.5639 C112.9121,239.9119 112.1541,248.0479 112.1541,249.7059 C118.0571,251.9559 124.3241,253.4499 130.3161,254.6399 C131.5191,254.8779 132.7251,255.0909 133.9331,255.2919 L134.011748,254.304092 C134.15754,252.1871 134.2657,247.2239 131.9201,243.6559 Z M204.3491,243.0129 C197.7841,232.8559 183.6721,240.1279 184.8381,251.2239 C186.0921,250.8289 187.3401,250.4159 188.5821,249.9829 C193.7401,248.1849 199.3981,246.0479 204.3491,243.0129 Z M152.6641,208.0169 C143.8321,207.2219 136.5871,207.4899 130.8271,208.5579 L130.652379,210.482006 C130.015019,217.153056 129.192942,223.71197 132.6961,226.3959 C135.5411,228.5759 144.9841,228.3679 151.3161,226.7899 C152.8801,226.3959 154.9131,212.5599 152.6641,208.0169 Z M166.3211,207.2219 C164.905471,213.79653 164.239607,221.779589 167.081976,224.150651 C170.083082,226.654129 179.744529,226.314877 182.27115,224.647162 C184.482348,223.187644 184.425998,216.473745 183.6051,208.9359 C178.7121,207.7829 170.1921,207.2219 166.3211,207.2219 Z M126.9211,208.6239 L124.0291,208.6499 L122.392162,208.671764 C118.252917,208.745333 113.787276,208.983724 109.5661,209.9049 C101.17981,228.02784 131.80542,231.15623 127.075335,209.29405 L126.9211,208.6239 Z M187.5011,209.0609 L187.447712,210.087554 C187.196335,215.178372 187.36295,221.882059 190.183224,223.691942 C194.333161,226.355124 202.125997,225.841302 206.347453,213.522759 C204.950453,209.847759 190.1341,209.3299 187.5011,209.0609 Z M106.2238,101.0002 C107.996997,101.0002 109.692946,101.602067 111.237462,102.715752 C112.757587,103.81185 114.13373,105.411583 115.279905,107.406824 C117.448889,111.182554 118.8048,116.395834 118.8048,122.1602 C118.8048,127.924566 117.448889,133.137846 115.279905,136.913576 C114.13373,138.908817 112.757587,140.50855 111.237462,141.604648 C109.692946,142.718333 107.996997,143.3202 106.2238,143.3202 C104.450603,143.3202 102.754654,142.718333 101.210138,141.604648 C99.6900132,140.50855 98.3138701,138.908817 97.1676955,136.913576 C94.9987108,133.137846 93.6428,127.924566 93.6428,122.1602 C93.6428,116.395834 94.9987108,111.182554 97.1676955,107.406824 C98.3138701,105.411583 99.6900132,103.81185 101.210138,102.715752 C102.754654,101.602067 104.450603,101.0002 106.2238,101.0002 Z M218.464,101.0002 C220.237197,101.0002 221.933146,101.602067 223.477662,102.715752 C224.997787,103.81185 226.37393,105.411583 227.520105,107.406824 C229.689089,111.182554 231.045,116.395834 231.045,122.1602 C231.045,127.924566 229.689089,133.137846 227.520105,136.913576 C226.37393,138.908817 224.997787,140.50855 223.477662,141.604648 C221.933146,142.718333 220.237197,143.3202 218.464,143.3202 C216.690803,143.3202 214.994854,142.718333 213.450338,141.604648 C211.930213,140.50855 210.55407,138.908817 209.407895,136.913576 C207.238911,133.137846 205.883,127.924566 205.883,122.1602 C205.883,116.395834 207.238911,111.182554 209.407895,107.406824 C210.55407,105.411583 211.930213,103.81185 213.450338,102.715752 C214.994854,101.602067 216.690803,101.0002 218.464,101.0002 Z M203.192876,52.1793876 L204.629806,52.4734684 L205.583101,52.6756041 C221.082639,56.0094915 240.733069,62.5816831 247.988459,77.6308459 C248.270623,79.8027272 247.97249,80.2682047 247.730054,80.5723213 L247.649336,80.6735209 C247.449568,80.9332186 247.290169,81.2912104 246.348782,81.5868073 C246.087547,81.5245653 245.823712,81.4586426 245.557082,81.3887687 C242.162766,80.499243 239.477205,79.2737961 236.877298,78.0022488 L234.058339,76.6134493 C230.787784,75.0098309 227.488352,73.4645766 223.991711,72.3238115 C216.52958,69.8898666 208.854137,68.1753043 201.059777,67.259767 C199.37041,67.0615005 197.743655,66.4913394 196.460262,65.5141761 C195.242065,64.5866523 194.311441,63.3024737 193.887128,61.5955207 C193.33722,59.3864508 193.495251,57.7140037 194.680513,55.7210991 C195.571756,54.2244705 196.846982,53.1871113 198.311265,52.5914244 C199.804038,51.9841473 201.503545,51.840982 203.192876,52.1793876 Z" id="ðŸ–-Ink" fill="#000000"></path>
    </g>
</svg>