<?xml version="1.0" encoding="UTF-8"?>
<svg width="289px" height="293px" viewBox="0 0 289 293" version="1.1" xmlns="http://www.w3.org/2000/svg" xmlns:xlink="http://www.w3.org/1999/xlink">
    <!-- Generator: Sketch 62 (91390) - https://sketch.com -->
    <title>face/Solemn</title>
    <desc>Created with Sketch.</desc>
    <g id="face/Solemn" stroke="none" stroke-width="1" fill="none" fill-rule="evenodd">
        <path d="M182.1622,217.944437 C175.818663,214.891576 168.562915,215.102951 161.910567,217.121951 C154.03688,219.51384 147.064604,224.482123 140.860171,229.770792 C138.438967,231.835486 136.138367,234.165912 133.828649,236.509296 C130.894803,239.485903 127.950312,242.491794 124.681533,244.928994 C125.759686,235.746126 132.203294,226.420872 137.736988,219.676305 C144.526239,211.402689 153.979675,204.697403 164.199975,201.453875 C175.083531,197.999299 186.314125,199.898229 195.128036,205.507146 C203.861286,211.064732 210.223033,220.269827 211.504761,231.527047 C211.774243,233.891831 210.668892,236.056124 209.028966,237.696192 C207.115883,239.609439 204.42973,240.8686 201.9249,240.8686 C199.368586,240.8686 197.101844,239.838852 195.42024,238.197563 C193.656431,236.47604 192.530626,234.087169 192.369622,231.492058 C192.261561,228.726514 191.620729,226.303933 189.296796,223.385913 C187.735495,221.427351 184.80054,219.214173 182.1622,217.944437 Z M198.289023,121.302437 C195.656533,122.259375 192.599047,124.569715 191.710195,127.099885 C191.514526,127.656869 191.40461,128.226372 191.395602,128.803012 C190.538647,127.061656 190.212556,125.011272 190.324278,122.981997 C190.679012,116.535999 196.82653,111.857577 202.064082,109.12393 C203.924833,108.152235 205.836884,107.506728 207.742297,107.167059 L214.488223,105.964497 L208.154558,103.349469 C202.31398,100.938025 196.837197,97.6208236 191.949853,93.5603152 C187.280917,89.6840017 182.965124,84.6709279 180.43174,79.1394691 C179.287901,76.6413595 178.390185,74.1975806 177.760365,71.5575861 L177.59164,70.8159761 C177.282284,69.3937416 176.944139,68.6683942 176.564256,67.8635422 C176.341356,67.3912885 176.09902,66.8827497 175.838811,66.0559331 C175.692498,65.5916806 175.610879,65.2029977 175.747041,64.9001748 C175.878784,64.607182 176.199149,64.4814402 176.511634,64.3631984 C178.579255,63.5808277 181.909292,64.1138616 183.323945,64.6792237 C186.742779,66.0458477 189.747436,69.0253172 192.639666,71.8157105 C194.050989,73.17734 195.433013,74.5077822 196.805837,75.6457894 C205.565186,82.9076312 216.497853,87.0394119 227.182029,88.0470266 L227.824109,88.1038551 C230.649571,88.3357746 233.269433,89.4485909 235.126022,91.3051798 C236.785791,92.9649481 237.8103,95.2228621 237.8103,97.9271 C237.8103,100.560935 236.62542,103.09701 234.784213,104.938218 C233.025905,106.696525 230.647626,107.835792 228.065569,107.74437 C226.251755,107.679695 224.451489,107.517189 222.663749,107.277794 L216.013678,106.387288 L221.090813,110.773533 C222.098475,111.644073 223.046122,112.643248 223.898326,113.802966 C228.524863,120.102548 230.510624,129.706096 230.338796,137.415564 C230.306023,138.88694 229.89962,140.404563 229.149522,141.712128 C228.494434,142.854073 227.573409,143.839781 226.386092,144.454888 C224.964585,145.192549 223.761821,145.585972 222.143076,145.617485 C220.383092,145.652008 218.892245,145.095102 217.667233,144.162492 C216.135221,142.996161 215.009659,141.275569 214.236753,139.398835 C213.209573,136.903356 213.148424,134.267566 213.046868,131.633051 C212.976688,129.812501 212.900838,127.988516 212.597392,126.191155 C212.164848,123.896013 211.126973,120.971497 209.8177,120.048188 C207.884841,118.683758 202.742435,119.734442 199.548914,120.850555 L198.289023,121.302437 Z M170.814304,144.367155 C178.365682,148.9572 189.871664,159.660291 181.748119,171.039573 C172.185929,181.073062 158.418535,169.568982 151.634201,164.366134 C145.343449,160.333898 138.275437,170.704507 144.112,175.412823 C193.135736,211.708059 213.030606,145.567387 174.633685,138.970386 C170.406047,138.243425 168.835891,142.947174 170.814304,144.367155 Z M117.253343,129.795878 C115.189697,127.467877 113.180038,125.297848 110.07553,124.062087 C106.402731,122.597901 101.952364,122.440575 98.131967,123.537565 C93.8004021,124.781227 90.3708449,127.652701 87.8300313,131.320509 C85.5977411,134.542946 84.060359,138.378485 83.1837539,142.160566 C81.5474246,140.363486 80.7821931,138.285389 80.4127514,136.171348 C79.8045273,132.69093 80.2355568,129.104548 81.4217683,125.693847 C84.0626538,118.100538 90.4248164,111.34976 97.8433211,108.444142 C106.31361,105.126417 116.794138,106.23401 124.575076,110.905386 C128.544708,113.289788 133.120212,117.426725 135.424805,121.473358 C136.999069,124.238731 137.089932,127.101893 136.089237,129.561518 C134.987724,132.268945 132.610787,134.467746 129.576036,135.571451 C128.13846,136.094533 126.658808,136.052665 125.254893,135.681478 C123.427923,135.198437 121.720911,134.166802 120.328796,132.965095 C119.168854,131.965121 118.201916,130.865965 117.253343,129.795878 Z M129.909364,81.906319 C128.170956,84.2324165 125.610528,85.4209854 122.942935,85.5457851 C122.669402,85.558582 122.395948,85.5601377 122.123521,85.5503249 C121.951466,85.7482134 121.759318,85.9668681 121.533596,86.2239105 C121.012719,86.8170628 120.671442,87.2065182 120.316454,87.5845152 C119.034154,88.9500438 117.685984,90.25357 116.281192,91.4937762 C113.152795,94.257709 109.783274,96.6822042 106.138989,98.7165833 C99.7555839,102.282667 92.7546136,105.064062 85.5557623,106.391751 C78.4120992,107.708864 71.3603807,108.113738 64.1668449,107.081931 L62.4220059,106.831235 C58.2665484,106.222436 52.8193479,105.428061 49.4069952,102.854398 C50.7508377,102.426295 52.1121415,102.405375 53.440212,102.346646 C54.3142587,102.307994 55.1826477,102.268832 56.0294255,102.191391 C60.0554707,101.82548 63.9678503,101.157258 67.8658041,100.078158 C75.4430494,97.9813426 82.3096312,95.0855504 88.9994876,90.9352762 C95.5585767,86.8675282 101.581523,81.3311727 106.37991,75.2665777 L106.954901,74.5312102 C107.199882,74.2145892 107.441158,73.8992955 107.680714,73.5862338 C109.643457,71.0212404 111.4463,68.5768669 114.495745,66.9492162 C116.912021,65.6602396 119.357112,65.3118666 121.708053,65.6827776 C124.435778,66.1131342 127.025507,67.486486 129.320578,69.4081583 C131.017757,70.8289556 131.803161,72.8749261 131.928138,74.9733664 C132.07516,77.4419375 131.323839,80.0132766 129.909364,81.906319 Z" id="ðŸ–-Ink" fill="#000000"></path>
    </g>
</svg>