<?xml version="1.0" encoding="UTF-8"?>
<svg width="289px" height="293px" viewBox="0 0 289 293" version="1.1" xmlns="http://www.w3.org/2000/svg" xmlns:xlink="http://www.w3.org/1999/xlink">
    <!-- Generator: Sketch 62 (91390) - https://sketch.com -->
    <title>face/Tired</title>
    <desc>Created with Sketch.</desc>
    <g id="face/Tired" stroke="none" stroke-width="1" fill="none" fill-rule="evenodd">
        <path d="M189.0594,229.1111 C195.3794,227.6381 200.3434,232.9901 199.1014,239.1531 C197.7864,245.6771 190.7714,247.9131 184.8894,247.7081 C178.2204,247.4771 171.5564,246.1001 164.8544,245.8231 C157.9694,245.5391 151.0584,245.4871 144.1694,245.6731 C137.7974,245.8451 131.2574,246.9681 124.9354,245.9601 C122.4734,245.5671 122.7064,242.3171 124.3084,241.1621 C129.0644,237.7321 135.2284,236.3341 140.8344,234.8951 C146.5504,233.4271 152.3934,232.3031 158.2554,231.6171 C164.1984,230.9221 170.1904,230.5751 176.1724,230.5071 C178.8954,230.4761 182.2344,231.0811 184.8894,230.5911 C186.2424,230.3401 187.6204,229.4471 189.0594,229.1111 Z M170.814304,144.367155 C178.365682,148.9572 189.871664,159.660291 181.748119,171.039573 C172.185929,181.073062 158.418535,169.568982 151.634201,164.366134 C145.343449,160.333898 138.275437,170.704507 144.112,175.412823 C193.135736,211.708059 213.030606,145.567387 174.633685,138.970386 C170.406047,138.243425 168.835891,142.947174 170.814304,144.367155 Z M116.0593,110.0915 C126.1603,108.4115 127.9273,122.8115 117.9163,123.8175 C115.8153,124.0285 113.7263,124.2125 111.6413,124.3955 C111.8443,125.0475 111.9793,125.7185 112.0533,126.4085 C112.1483,126.9945 112.2193,127.6165 112.2823,128.3275 C112.5993,131.8705 110.0873,135.5545 107.1523,137.2725 C104.1023,139.0575 99.7243,139.2955 96.6953,137.2725 C95.1333,136.2285 93.5733,135.0515 92.7123,133.3255 C91.5573,131.5525 90.9273,129.5005 90.8633,127.3945 C86.2583,128.5905 81.5693,130.2075 76.9183,131.0645 C77.0893,131.2325 77.2573,131.4115 77.4203,131.6085 C77.5443,131.7595 77.3743,132.0425 77.1933,131.9035 L74.8603,131.3865 L74.8603,131.3865 C74.1423,131.4805 73.4243,131.5575 72.7083,131.6025 L72.7253,131.5395 L72.7253,131.5395 C71.5283,131.5185 70.5483,130.1035 71.6193,128.9715 C75.7284316,124.628237 82.1402363,121.74178 87.9859351,119.328363 L93.618224,117.019362 C100.820152,114.092257 108.422685,111.361654 116.0593,110.0915 Z M197.3196,114.5463 C203.9356,113.7913 210.4866,114.0913 217.1136,114.4953 C228.2666,115.1743 223.5886,131.4383 214.6366,127.6833 C214.7286,128.2783 214.7526,128.8743 214.6836,129.4293 C214.3336,132.2883 213.4016,134.7043 210.7776,136.2403 C208.3406,137.6663 205.2516,137.6623 202.8146,136.2403 C200.2046,134.7183 199.0276,132.5733 198.3616,129.7863 C197.8456,127.6253 198.0526,125.8173 198.3506,123.6773 C198.4496,122.9683 198.7586,122.3073 199.1866,121.7133 C198.5626,121.5573 197.9376,121.4063 197.3116,121.2653 C191.7456,119.9993 186.2546,120.2533 180.7046,119.4513 C180.1126,119.3653 180.0186,118.4093 180.5366,118.1663 C185.5236,115.8233 191.8636,115.1683 197.3196,114.5463 Z M115.0395,64.3154 C118.8575,62.8584 123.6535,65.2814 125.6025,68.6144 C127.8145,72.3964 126.8695,76.7624 124.1395,79.9494 C119.951684,84.8382684 111.976365,87.8499762 106.098381,90.639663 L105.6265,90.8654 C99.5905,93.7774 93.3895,96.4514 87.1045,98.7814 C80.9235,101.0744 74.4935,102.8704 68.0855,104.4124 C64.7065,105.2254 61.2555,105.8974 57.8025,106.3214 C55.0765,106.6554 52.9745,105.9074 50.3665,105.9074 C49.9855,105.9084 49.8665,105.4034 50.1775,105.2094 C52.6145,103.6774 54.4235,101.6604 57.0815,100.2414 C59.8495,98.7644 62.6275,97.3124 65.4155,95.8744 C71.0525,92.9684 76.4805,89.7344 81.9185,86.4794 C87.6505,83.0484 93.2525,79.4354 98.7005,75.5674 C104.0315,71.7824 108.9445,66.6404 115.0395,64.3154 Z M183.0763,61.2035 C187.8443,60.2785 192.5663,62.5345 193.9773,67.3935 C195.3303,72.0485 193.9153,73.0465 197.5243,76.3775 C200.401223,79.0321154 203.502998,81.4015237 206.633449,83.7347007 L211.240945,87.1599199 C219.586327,93.3374333 228.0007,99.1782333 237.5963,103.3465 C238.4073,103.6985 237.9383,104.9035 237.1693,104.9195 C221.9153,105.2135 207.2883,103.1485 193.5193,96.3195 C187.0873,93.1295 180.6253,89.0945 176.8983,82.7265 C172.5813,75.3525 172.7073,63.2135 183.0763,61.2035 Z" id="ðŸ–-Ink" fill="#000000"></path>
    </g>
</svg>