<?xml version="1.0" encoding="UTF-8"?>
<svg width="289px" height="293px" viewBox="0 0 289 293" version="1.1" xmlns="http://www.w3.org/2000/svg" xmlns:xlink="http://www.w3.org/1999/xlink">
    <!-- Generator: Sketch 62 (91390) - https://sketch.com -->
    <title>face/Very Angry</title>
    <desc>Created with Sketch.</desc>
    <g id="face/Very-Angry" stroke="none" stroke-width="1" fill="none" fill-rule="evenodd">
        <path d="M195.648193,205.742798 C187.261657,201.289422 177.421377,202.042614 169.00004,206.020824 C158.706314,210.88389 150.747499,218.869283 143.697486,227.649864 C140.990543,231.020761 138.458006,234.536024 135.928336,238.048092 C134.887194,239.493561 133.846489,240.938447 132.79402,242.372032 C132.588772,242.640738 132.363649,242.930014 132.12515,243.236505 C130.439996,245.40207 128.13963,248.397076 127.259175,251.115005 C126.905739,252.206047 126.774119,253.259272 126.932764,254.218574 C127.009571,254.683016 127.151913,255.128132 127.369961,255.548545 C126.026468,255.89614 125.129125,255.565059 124.508835,254.897651 C123.526737,253.840951 123.182462,252.253688 123.168043,250.431638 C123.118384,243.905641 127.421312,234.392264 129.178267,230.471862 C129.359195,230.068147 129.514259,229.722096 129.636514,229.44246 C135.990874,214.902707 146.156691,200.739536 160.288147,192.902543 C173.980473,185.309944 190.185593,183.874719 204.351165,191.053 C220.000474,198.983539 224.269956,214.687223 226.043182,230.826214 C226.314815,233.298502 225.196205,235.57888 223.475851,237.299234 C221.534025,239.24106 218.805833,240.498 216.2562,240.498 C213.608639,240.498 211.184446,239.377079 209.411751,237.604384 C207.624435,235.817068 206.49522,233.364 206.47514,230.706002 L206.458107,229.158195 C206.376243,223.769253 205.998264,218.709456 204.04209,214.418522 C202.469585,210.969178 199.895477,207.998577 195.648193,205.742798 Z M174.814304,133.367155 C182.365682,137.9572 193.871664,148.660291 185.748119,160.039573 C176.185929,170.073062 162.418535,158.568982 155.634201,153.366134 C149.343449,149.333898 142.275437,159.704507 148.112,164.412823 C197.135736,200.708059 217.030606,134.567387 178.633685,127.970386 C174.406047,127.243425 172.835891,131.947174 174.814304,133.367155 Z M111.249842,134.873685 C109.21559,135.869593 106.960397,136.273981 104.748339,135.812416 C102.766863,135.398964 100.83098,134.28903 99.1167073,132.332702 C96.7628125,129.643932 95.0538784,125.825893 96.1958438,122.182731 L96.522735,121.245789 C96.9093992,120.156024 97.4302579,119.134445 98.0641829,118.208027 C98.4710172,116.223311 98.5529701,114.923595 98.6298744,113.689429 C98.6495261,113.374056 98.6688905,113.063106 98.6908225,112.752749 C98.8127143,111.024361 99.066476,109.214651 99.6465705,107.55057 C99.7557985,107.237235 99.8772989,106.927048 100.008665,106.620486 C99.683933,106.506758 99.3592902,106.392662 99.0347035,106.278263 C96.7917559,105.487748 94.5557732,104.68431 92.3319381,103.844018 C86.0072865,101.452869 79.7532165,98.7573797 73.699327,95.7413805 C70.7082667,94.2508057 67.7926562,92.5737833 64.9139627,90.8770546 C63.5392598,89.9628132 60.5237088,87.8342564 59.1713627,86.6881642 L58.1451201,85.8184397 L57.6080011,87.0517676 C57.0306197,87.6334134 56.564872,87.6786301 56.1732669,87.5480196 C55.7523002,87.4076162 55.440413,87.0757766 55.2442996,86.6771596 C55.0082325,86.1973332 54.9345795,85.6131759 55.0591196,85.0493532 C55.1712928,84.5415179 55.4484252,84.0510599 55.9164995,83.6649246 C57.7001254,82.194146 60.2160755,82.8325585 62.3064786,83.2425326 C62.604845,83.3010488 62.8969781,83.3583123 63.1805622,83.4101146 C66.4312338,84.0040556 69.6742461,84.7114779 72.9040661,85.4416519 L76.7918803,86.327351 C78.2754916,86.6658136 79.7585845,87.0057018 81.2414495,87.3455377 C98.0882943,91.2064165 114.906174,95.0578885 132.122274,96.7503413 L133.936387,96.9204394 C137.005394,97.1943986 139.736127,98.4974603 141.535006,100.572739 C143.191844,102.48415 144.038528,105.048285 143.636316,108.02142 C143.242927,110.931137 141.606085,113.353809 139.353379,114.85422 C137.112221,116.346939 134.260478,116.926782 131.414339,116.162533 C126.070424,114.72933 120.738301,113.221432 115.431497,111.622283 L116.672752,114.571059 C117.740487,117.140109 118.725205,119.802457 118.841202,122.519863 C118.949725,125.073251 118.20064,127.544857 116.90419,129.659453 C115.524303,131.910141 113.523131,133.760751 111.249842,134.873685 Z M231.352025,73.4294893 C230.034079,75.2283938 228.519368,76.7648694 227.010036,78.304574 C223.75001,81.6302018 220.49134,84.9556201 217.000272,88.0490599 C215.73473,89.1711545 214.45535,90.2767508 213.175748,91.3825744 C212.70081,91.7930133 212.225838,92.203481 211.751524,92.614824 L211.004763,93.2624417 L211.643673,94.0166662 C211.815135,94.2190758 211.976961,94.4281686 212.112304,94.6495634 C214.030029,97.7892009 215.095107,101.196799 216.173318,104.614455 C216.912014,106.955936 217.654492,109.303239 218.650635,111.583012 L218.972312,112.29729 C220.269118,115.087375 220.618068,118.000041 219.928905,120.628455 C219.279746,123.104299 217.705376,125.314212 215.178913,126.923219 C214.543962,127.328244 213.460483,127.798237 212.726121,127.961035 C209.831292,128.603237 206.899979,128.155475 204.504242,126.795324 C202.213647,125.494866 200.4178,123.357954 199.621703,120.555259 C198.446409,116.414356 197.690559,112.20737 197.730652,108.107078 C197.737443,107.412601 197.767122,106.71551 197.817624,106.016716 C197.360448,106.481285 196.834987,106.88982 196.238805,107.226646 C194.383563,108.274805 192.286969,108.377994 190.315694,107.842886 C188.085419,107.237471 186.007568,105.820358 184.568759,103.968081 C183.301768,102.336995 182.526878,100.361258 182.627006,98.2959198 C182.714404,96.4931468 183.475101,94.6366233 185.102274,92.8878161 L186.636822,91.3243557 C187.779102,90.1656977 189.351381,89.2743516 191.026519,88.823827 C192.56375,88.4103922 194.193717,88.3660516 195.655884,88.8647619 C197.627626,88.3254321 198.906165,87.6894097 200.093298,87.0978865 C200.938605,86.6766877 201.735754,86.2788833 202.446542,85.9693195 C205.909514,84.4631572 209.359467,82.9279547 212.797752,81.365553 C215.778829,80.0095323 218.807301,78.7577584 221.835722,77.5057861 C225.026091,76.1868631 228.216312,74.8675388 231.352025,73.4294893 Z" id="ðŸ–-Ink" fill="#000000"></path>
    </g>
</svg>